<svg width="26" height="24" viewBox="0 0 26 24" fill="none" xmlns="http://www.w3.org/2000/svg">
<path fill-rule="evenodd" clip-rule="evenodd" d="M11.1426 0L5.57092 12.8568H11.1426L16.7139 0H11.1426Z" fill="black" fill-opacity="0.3"/>
<path fill-rule="evenodd" clip-rule="evenodd" d="M0 0L5.57127 12.8568H11.1425L5.57127 0H0Z" fill="black"/>
<path fill-rule="evenodd" clip-rule="evenodd" d="M25.7135 14.1428C25.7135 15.3265 24.7544 16.2856 23.5707 16.2856C22.387 16.2856 21.4279 15.3265 21.4279 14.1428C21.4279 12.9591 22.387 12 23.5707 12C24.7544 12 25.7135 12.9591 25.7135 14.1428Z" fill="black" fill-opacity="0.3"/>
<path fill-rule="evenodd" clip-rule="evenodd" d="M19.4802 15.4238H13.7997C14.4279 20.2618 18.5614 23.9997 23.5708 23.9997V18.4285C21.65 18.4285 20.0249 17.1646 19.4802 15.4238Z" fill="black"/>
<path fill-rule="evenodd" clip-rule="evenodd" d="M13.8002 12.8578H19.482C20.028 11.1191 21.6518 9.85789 23.5709 9.85789V4.28662C18.5627 4.28662 14.4306 8.02194 13.8002 12.8578Z" fill="black"/>
</svg>
