<svg width="30" height="30" viewBox="0 0 30 30" xmlns="http://www.w3.org/2000/svg"><title>Group 10</title><g fill="none" fill-rule="evenodd"><circle fill="#0C1015" fill-rule="nonzero" cx="15" cy="15" r="15"/><path d="M15.078 22C11.15 22 8 18.928 8 15s3.15-7 7.078-7c1.906 0 3.578.544 4.784 1.711l-2.062 2.06c-.66-.7-1.633-1.05-2.722-1.05-2.334 0-4.356 1.946-4.356 4.28 0 2.332 2.022 4.277 4.356 4.277 1.945 0 3.422-1.245 3.85-3.112H15v-2.722h6.845c.078.467.116 1.05.116 1.556 0 .505-.038.972-.116 1.439-.545 3.616-3.267 5.56-6.767 5.56z" fill="#FFF"/></g></svg>