<svg width="173" height="30" viewBox="0 0 173 30" xmlns="http://www.w3.org/2000/svg"><title>Group 13</title><g fill="#72778E" fill-rule="evenodd"><path d="M68.101 16.97c0 1.042-.45 1.352-2.138 1.942-1.353.508-2.393.733-2.704.733-.563 0-.815-.423-.815-1.295 0-2.083.59-4.617 2.786-4.617 2.027 0 2.871 2.196 2.871 3.237zm-21.96 9.094c0-.17-.026-.281-.11-.366-.226-.226-1.07-.366-1.493-.789-.308-.31-.507-.844-.507-2.083v-4.758c0-.367.085-.591.451-.591h4.843c.366 0 .45.224.45.59v4.76c0 1.238-.197 1.772-.507 2.082-.423.423-1.267.563-1.492.789-.085.085-.112.196-.112.366 0 .73.112 1.464.225 1.576.112.113.281.14.647.14h7.91c.367 0 .535-.027.648-.14.113-.112.226-.846.226-1.576 0-.17-.03-.281-.113-.366-.197-.197-1.07-.366-1.493-.789-.308-.31-.478-.9-.478-1.859V9.904c0-.675.17-1.127.422-1.378.451-.451 1.352-.536 1.549-.734.084-.084.113-.252.113-.393 0-.507-.113-1.267-.226-1.38-.113-.112-.225-.142-.647-.142h-7.63c-.31 0-.422.03-.506.115-.084.084-.17.675-.17 1.435 0 .14.03.31.086.365.14.142.844.367 1.126.649.31.31.422.647.422 1.604v3.744c0 .14-.141.337-.338.337H44.37c-.198 0-.339-.196-.339-.337v-3.744c0-.957.113-1.294.423-1.604.281-.282.985-.507 1.126-.65.056-.055.085-.224.085-.364 0-.76-.085-1.351-.17-1.435-.084-.085-.197-.115-.506-.115H37.36c-.422 0-.535.03-.649.142-.111.113-.225.873-.225 1.38 0 .14.029.309.114.393.197.198 1.098.283 1.548.734.253.251.422.703.422 1.378V23.05c0 .958-.169 1.549-.478 1.86-.423.422-1.295.591-1.492.788-.085.085-.114.196-.114.366 0 .73.114 1.464.225 1.576.114.113.227.14.65.14h7.91c.365 0 .534-.027.647-.14.113-.112.223-.846.223-1.576zm26.155-.395c.816-.816 1.014-1.295 1.014-1.69 0-.422-.113-.76-.45-1.097-.367-.366-.676-.423-.958-.423-.395 0-.564.113-.816.367-1.239 1.239-2.816 1.914-4.73 1.914-1.942 0-3.153-1.294-3.153-2.112 0-.224.197-.422.703-.563 5.406-1.69 7.658-2.814 8.502-3.66.479-.45.675-.985.675-1.463 0-2.14-3.095-5.94-7.853-5.94-1.97 0-3.97.787-5.461 2.28-1.492 1.493-2.421 3.603-2.421 6.475 0 2.76.872 4.674 2.393 6.194 1.52 1.52 3.715 2.28 6.109 2.28 2.449 0 4.757-.872 6.446-2.562zm8.811-13.71c0-.365-.197-.507-.506-.507h-5.434c-.31 0-.421 0-.508.113-.111.113-.223.873-.223 1.38 0 .14.056.252.112.337.198.253.62.338.986.648.252.253.366.788.366 1.604v7.516c0 .958-.114 1.577-.395 1.86-.423.422-1.126.618-1.323.815-.056.058-.084.17-.084.367 0 .732.112 1.436.225 1.548.085.084.225.14.534.14h7.237c.309 0 .45-.056.534-.14.112-.112.196-.816.196-1.548 0-.198-.027-.31-.084-.367-.196-.197-.844-.393-1.267-.816-.28-.282-.366-.9-.366-1.859V11.958zm-3.012-7.094c-1.547 0-2.815 1.211-2.815 2.731 0 1.548 1.268 2.76 2.815 2.76 1.577 0 2.844-1.212 2.844-2.76 0-1.52-1.267-2.731-2.844-2.731zm21.818 10.95c0-3.152-1.633-4.757-4.195-4.757-1.21 0-2.505.394-3.8 1.183-.45.282-.591.366-.704.366-.45 0-.14-1.155-.958-1.155h-4.954c-.31 0-.394 0-.506.113-.141.141-.254.873-.254 1.38 0 .14.029.252.113.337.225.226.647.31.985.648.254.253.365.788.365 1.604v7.516c0 .958-.084 1.577-.365 1.86-.394.392-1.07.618-1.267.815-.056.058-.085.17-.085.367 0 .732.085 1.436.198 1.548.085.084.253.14.563.14h7.095c.337 0 .449-.056.533-.14.142-.141.255-.816.255-1.548 0-.198-.03-.31-.086-.367-.224-.224-.872-.423-1.266-.816-.282-.282-.422-.9-.422-1.859v-5.545c0-2.28 1.265-2.983 2.196-2.983.956 0 1.492.703 1.492 2.194v7.8c0 2.083 1.323 3.461 3.716 3.461 2.645 0 3.771-1.913 3.771-2.308 0-.337-.534-1.013-.871-1.013-.395 0-.958.507-1.24.507-.196 0-.309-.141-.309-.591v-8.756zm52.166 9.854c.816-.816 1.012-1.295 1.012-1.69 0-.422-.111-.76-.449-1.097-.367-.366-.678-.423-.958-.423-.394 0-.563.113-.816.367-1.239 1.239-2.815 1.914-4.73 1.914-1.941 0-3.153-1.294-3.153-2.112 0-.224.197-.422.704-.563 5.405-1.69 7.657-2.814 8.502-3.66.479-.45.675-.985.675-1.463 0-2.14-3.096-5.94-7.854-5.94-1.972 0-3.97.787-5.462 2.28-1.491 1.493-2.42 3.603-2.42 6.475 0 2.76.872 4.674 2.392 6.194 1.52 1.52 3.717 2.28 6.109 2.28 2.45 0 4.76-.872 6.448-2.562zm-4.195-8.699c0 1.042-.45 1.352-2.14 1.942-1.35.508-2.393.733-2.704.733-.561 0-.816-.423-.816-1.295 0-2.083.592-4.617 2.788-4.617 2.027 0 2.872 2.196 2.872 3.237zm-30.405 8.7c.816-.817 1.015-1.296 1.015-1.69 0-.423-.114-.76-.451-1.098-.366-.366-.675-.423-.957-.423-.396 0-.563.113-.817.367-1.238 1.239-2.815 1.914-4.73 1.914-1.942 0-3.153-1.294-3.153-2.112 0-.224.198-.422.705-.563 5.405-1.69 7.657-2.814 8.5-3.66.48-.45.677-.985.677-1.463 0-2.14-3.096-5.94-7.855-5.94a7.76 7.76 0 0 0-5.46 2.28c-1.493 1.493-2.422 3.603-2.422 6.475 0 2.76.873 4.674 2.392 6.194 1.521 1.52 3.718 2.28 6.11 2.28 2.45 0 4.758-.872 6.446-2.562zm-4.194-8.7c0 1.042-.45 1.352-2.14 1.942-1.351.508-2.392.733-2.702.733-.564 0-.816-.423-.816-1.295 0-2.083.59-4.617 2.786-4.617 2.027 0 2.872 2.196 2.872 3.237zm56.359-1.154c0-3.153-1.632-4.758-4.193-4.758-1.211 0-2.506.394-3.8 1.183-.452.282-.594.366-.704.366-.451 0-.142-1.155-.958-1.155h-4.954c-.31 0-.395 0-.508.113-.14.141-.253.873-.253 1.38 0 .14.028.252.112.337.227.226.65.31.987.648.252.253.366.788.366 1.604v7.516c0 .958-.086 1.577-.366 1.86-.396.392-1.07.618-1.267.815-.057.058-.085.17-.085.367 0 .732.085 1.436.195 1.548.086.084.256.14.565.14h7.093c.339 0 .451-.056.536-.14.141-.141.253-.816.253-1.548 0-.198-.027-.31-.084-.367-.225-.224-.873-.423-1.267-.816-.282-.282-.424-.9-.424-1.859v-5.545c0-2.28 1.268-2.983 2.197-2.983.958 0 1.492.703 1.492 2.194v7.8c0 2.083 1.324 3.461 3.717 3.461 2.646 0 3.772-1.913 3.772-2.308 0-.337-.535-1.013-.872-1.013-.395 0-.957.507-1.239.507-.198 0-.311-.141-.311-.591v-8.756zM125.446 5.372h-5.404c-.339 0-.48 0-.563.142-.113.14-.199.844-.199 1.322 0 .168.03.28.086.393.196.198.957.395 1.295.733.28.282.422.844.422 2.983v11.261c0 1.887-.196 2.478-.422 2.703-.394.393-1.07.62-1.267.816-.056.058-.084.17-.084.367 0 .732.084 1.436.196 1.548.086.084.197.14.564.14h7.066c.366 0 .478-.056.563-.14.112-.112.253-.816.253-1.548 0-.198-.027-.31-.112-.367-.197-.197-.873-.423-1.24-.816-.308-.282-.422-.9-.422-1.859v-.646c0-.366.114-.48.733-1.099.28-.252.533-.449.732-.449.282 0 .506.197 3.603 6.446.197.394.28.478.787.478h4.589c.338 0 .452-.056.536-.14.112-.112.225-.816.225-1.548 0-.198-.028-.31-.085-.367-.197-.197-1.379-.338-1.632-.816-4.082-6.897-4.195-7.123-4.195-7.544 0-.366 1.802-2.167 3.294-3.35.958-.76 1.576-.255 1.576-1.155 0-1.041-.14-1.408-.338-1.408h-6.811c-.592 0-.648.337-.648 1.605 0 .422 1.182.478 1.182 1.07 0 .506-2.872 3.266-3.35 3.266-.17 0-.198-.113-.198-.592V6.161c0-.452-.31-.79-.732-.79z" fill-rule="nonzero"/><path d="M15.701 0l3.738 11.366 11.964.042-9.655 7.066 3.658 11.392-9.705-6.998-9.704 6.998 3.658-11.392L0 11.408l11.964-.042z"/></g></svg>