<svg width="159" height="41" viewBox="0 0 159 41" xmlns="http://www.w3.org/2000/svg"><title>Shape</title><path d="M17.8 40.3h8.6l.9-4.1h4v4.1H40V11.9H24l-6.2 28.4zm13.5-21.5v10.1h-2.7l2.7-10.1zM11.7 31.5h6l-1.9 8.7H0l6.4-28.3h9.8l-4.5 19.6zm53.9-19.6l-6.3 28.3h-16V11.9h8.8V32l4.5-20.1h9zm86.8 0h-15.9v28.3h8.6v-4.1h4.1l.9 4.1h8.6l-6.3-28.3zm-7.3 17V18.8l2.6 10.1h-2.6zm-11.3 3l1.7 8.4h-17.3L120 21h-6l-1.6-9h18.2l-2.1 19.9h5.3zm-19.7 0l1.7 8.4H98.5l1.8-19.3h-6l-1.6-9h18.2l-2.1 19.9h5.3zM71.6 0l-9.1 40.3h11.2l1.3-6.9h8.8l1.3 6.9h11.1L87.1 0H71.6zm4.8 24.5l2.9-15.4 3 15.4h-5.9z" fill="#182C54"/></svg>