<svg width="116" height="60" viewBox="0 0 116 60" xmlns="http://www.w3.org/2000/svg"><title>artwork-19 2</title><g fill="none" fill-rule="evenodd"><path d="M86.495 57.07a.996.996 0 0 0-.826-.524c-.22-.012-21.969-1.182-29.835-4.804l-.474-.363-.055-.04-.233-.155.193-1.32a.995.995 0 0 0-.063-.52l-.38-.932a1.029 1.029 0 0 0-.152-.257l-1.026-1.248a1.045 1.045 0 0 0-.138-.14l-1.183-.968-.842-.757-.478-.924a.998.998 0 0 0-1.843.17l-.794-.686-.29-.552-.182-.646a.338.338 0 0 0-.014-.047l-.067-.2.19-.256.085-.004a.954.954 0 0 0 .168-.02l.93-.192 2.238.219a.998.998 0 0 0 .53-1.892l-1.127-.543-.567-.32a.99.99 0 0 0-.37-.12l-1.148-.138a1.018 1.018 0 0 0-.194-.005l-1.19.089a.999.999 0 0 0-.171.029l-.66.167a.909.909 0 0 0-.134.045l-.607.25a1.103 1.103 0 0 0-.177.095l-.475.321a.88.88 0 0 0-.104.082l-.297.263a.997.997 0 0 0-.276.406l-.011.031-.492-.742-.108-.22.08-.226.798-.882a.998.998 0 0 0-1.181-1.563l-.595.295-.352.098a.987.987 0 0 0-.398.216l-.22.2-.317.183a.997.997 0 0 0-.293.26l-.3.358a1.003 1.003 0 0 0-.198.335l-.4-.828-.06-.18.17-.225.512-.311 1.433-.147a.998.998 0 0 0 .06-1.977l-1.582-.26a.993.993 0 0 0-.3-.003l-.843.118c-.11.016-.216.05-.315.1l-.4.204-.474.193a.996.996 0 0 0-.487.422l-.191.328-.24.353a.1.1 0 0 0-.007.011l-.25-.322-.372-.852-.006-.053.152-.201 1.298-.589a.998.998 0 0 0-.584-1.891l-1.702.298a.978.978 0 0 0-.38.152l-.37.245a1.005 1.005 0 0 0-.29.296l-.161.256-.193.247a1 1 0 0 0-.146.256l-.417-.899-.05-.337.09-.168.619-.282 1.797-.321a.997.997 0 0 0-.192-1.98l-1.203.02a.944.944 0 0 0-.186.02l-.864.179c-.046.01-.092.023-.136.039l-.548.197a.934.934 0 0 0-.07.028l-.963.436a.996.996 0 0 0-.524.57l-.162.45-.3-.807-.033-.373.157-.208.689-.314 1.672-.248a.998.998 0 0 0-.14-1.985l-.912-.007c-.034.002-.082.002-.123.007l-.708.082a.625.625 0 0 0-.047.007l-.72.118a.982.982 0 0 0-.334.118l-.656.376a1.22 1.22 0 0 0-.121.083l-.391.308a1.02 1.02 0 0 0-.098.09l-.318.328a1.021 1.021 0 0 0-.197.29l-.08-.144-.335-1.334.149-.313.279-.218.169-.064.377-.096 1.448-.105a.998.998 0 0 0-.034-1.99l-1.232-.063-.365-.033a.96.96 0 0 0-.337.026l-1.116.292a.981.981 0 0 0-.29.131l-.37.244c-.18.119-.315.291-.389.492l-.13.36-.187.278c-.012.017-.02.033-.031.049l-.403-1.121-.036-.361.05-.339.049-.135.26-.224a.942.942 0 0 0 .127-.13l.489-.15 1.399-.182a.998.998 0 0 0-.128-1.987l-1.312-.013c-.07 0-.139.006-.207.02l-.733.148a.972.972 0 0 0-.352.146l-.63.416a.885.885 0 0 0-.118.09l-.295.267a.93.93 0 0 0-.122.13l-.222.288a1.006 1.006 0 0 0-.148.268l-.047.129-.179-.467-.1-.53.029-.793.18-.403.59-.267 1.577-.276a.998.998 0 0 0 .82-1.08.986.986 0 0 0-1.014-.9l-1.407.032a.993.993 0 0 0-.283.047l-.993.318a.993.993 0 0 0-.322.174l-.673.544a1.006 1.006 0 0 0-.199.216l-.434.646a1.007 1.007 0 0 0-.16.409l-.085.557-.145-.637a.947.947 0 0 0-.032-.108l-.27-.77-.106-.564-.002-.618.072-.684.097-.542.177-.486.275-.39.357-.34.406-.282a.998.998 0 0 0-.951-1.74l-.41.167a.991.991 0 0 0-.255.153l-.852.703c-.07.057-.131.124-.183.197l-.652.93a.987.987 0 0 0-.123.234l-.375 1.04a.953.953 0 0 0-.048.19l-.033.219-.098-.308-.423-1.906-.264-1.87.007-1.753.218-1.39.447-1.232a.998.998 0 0 0-1.827-.793l-.27.522-.315.549c-.008.015-.018.031-.025.047l-.277.548a1 1 0 0 0-.048.112l-.226.63a.851.851 0 0 0-.03.095l-.176.712-.015.063-.115.63-.169.68a.972.972 0 0 0-.024.15l-.066.713-.084.688-.404-.854-.813-2.036-.636-1.979-.483-1.99-.11-1.99-.004-1.947a.998.998 0 0 0-.96-.995 1.009 1.009 0 0 0-1.033.92l-.145 1.865-.081 1.881c-.002.04 0 .079.001.117l.136 1.835a.695.695 0 0 0 .006.05l.245 1.97a.68.68 0 0 0 .02.106l.006.027-2.595-5.008-1.276-2.718-1.203-2.702L4.52.803a.998.998 0 0 0-1.871.688L3.553 4.4a.42.42 0 0 0 .017.05l1.078 2.904 1.086 2.772 1.223 2.939 1.605 3.683-1.018-1.113-1.365-1.408-.033-.033-1.425-1.337-1.446-1.276-1.447-1.188A.998.998 0 0 0 .491 11.87l1.427 1.42 1.485 1.525 1.401 1.69 1.313 1.78 2.24 3.127-.97-.677a1.012 1.012 0 0 0-.137-.081l-2.786-1.347a.956.956 0 0 0-.173-.063l-2.397-.652a.998.998 0 0 0-.568 1.912l1.254.405 1.484.728 1.627 1.006 1.745 1.245 1.684 1.427.351.342-.602-.275a1 1 0 0 0-.318-.086l-2.39-.232a.995.995 0 0 0-.488.076l-.659.281a.997.997 0 0 0 .392 1.915h.008l1.143-.009 1.256.342 1.478.622 1.316.878a1.03 1.03 0 0 0-.281-.006l-1.752.217a.998.998 0 0 0-.664.375l-1.34 1.711a.998.998 0 0 0 1.444 1.366l1.498-1.31 1.957.402.467.269-.148.004a.992.992 0 0 0-.298.058l-.826.292a.997.997 0 0 0-.398.264l-.587.636a1.032 1.032 0 0 0-.118.157l-.488.8a.997.997 0 0 0 1.489 1.287l1.584-1.32 1.923.338.581.28-.245.037a.994.994 0 0 0-.309.102l-.74.387a.985.985 0 0 0-.317.26l-.503.626a.975.975 0 0 0-.16.284l-.344.945a.997.997 0 0 0 1.698.986l1.206-1.418 1.82.117.57.25-.183.045a.989.989 0 0 0-.286.118l-.666.406a1.001 1.001 0 0 0-.278.253l-.54.72a.992.992 0 0 0-.171.368l-.233.974a.998.998 0 0 0 1.76.843l1.183-1.52 1.738.025.197.078a1.039 1.039 0 0 0-.326.12l-.405.237a1.02 1.02 0 0 0-.164.12l-.411.37a1 1 0 0 0-.116.123l-.225.284a1.015 1.015 0 0 0-.087.13l-.22.393a.939.939 0 0 0-.07.152l-.113.313c-.017.05-.031.103-.042.155l-.085.46a.998.998 0 0 0 1.919.522l.123-.338.3-.478.686-.48.998-.086.94.255-.035.013a.988.988 0 0 0-.216.108l-.627.418a.988.988 0 0 0-.244.23l-.54.72c-.06.08-.107.168-.141.261l-.34.944a.998.998 0 0 0 1.853.738l.373-.854.361-.371.452-.175.943-.086 1.358.307.36.11-.042.02a1.225 1.225 0 0 0-.103.053l-.51.31a.861.861 0 0 0-.1.07l-.391.309a.987.987 0 0 0-.225.248l-.281.443a.997.997 0 0 0-.011 1.053l.126.207a.998.998 0 0 0 1.643.091l.282-.365.3-.21.424-.152.074-.03.16-.072 1.581.088.568.136-.37.243a.64.64 0 0 0-.048.033l-.271.201a1.09 1.09 0 0 0-.112.096l-.192.193a.998.998 0 0 0 0 1.408l.234.236a.998.998 0 0 0 1.261.127l.344-.229.272-.159.895-.17 1.114.093.072.008c-.039.04-.075.083-.108.129l-.163.232a.998.998 0 0 0 .229 1.382l.378.276a1 1 0 0 0 .663.187l2.745-.195a.999.999 0 0 0 .14 1.205l.723.75c.314.326.808.4 1.203.18l.25-.14.027-.015 1.671-.02.668.02 2.067.235.542.146 1.86.828.72.452c.058.037.12.068.184.092l.702.26c.133.049.274.07.415.06l1.022-.07a.997.997 0 0 0 .258-.051l1.151-.398.55-.09a.993.993 0 0 0 .385-.15l.306-.201.707-.046.536.021c1.516.553 13.7 4.811 32.075 6.115a.997.997 0 0 0 .93-.49l.84-1.425a.997.997 0 0 0 .019-.977z" fill="#72778E"/><path d="M30.712 59.966a.997.997 0 0 1-.859-.49l-.842-1.426a.999.999 0 0 1 .808-1.504c.22-.011 21.972-1.182 29.835-4.803l.476-.365.053-.038.233-.155-.194-1.318a1.006 1.006 0 0 1 .063-.52l.38-.933a.988.988 0 0 1 .153-.258l1.026-1.249a.967.967 0 0 1 .139-.137l1.183-.97.84-.756.48-.924a.999.999 0 0 1 1.021-.53.999.999 0 0 1 .82.702l.037-.022.757-.666.29-.55.178-.645.085-.254-.095-.132-.092-.12-.085-.003a.974.974 0 0 1-.17-.02l-.932-.194-2.236.22a.998.998 0 0 1-.531-1.892l1.128-.544.566-.319a.996.996 0 0 1 .371-.12l1.148-.139a1.146 1.146 0 0 1 .193-.004l1.19.089a.997.997 0 0 1 .172.029l.658.167c.045.012.09.027.133.045l.608.25a.969.969 0 0 1 .177.095l.476.32c.037.025.072.052.105.08l.298.265a.99.99 0 0 1 .278.412l.009.026.081-.107.409-.634.11-.223-.08-.224-.8-.882a.998.998 0 0 1 1.183-1.563l.595.293.35.099a.996.996 0 0 1 .4.219l.221.198.315.183c.113.067.213.154.292.259l.128.168.172.193a1 1 0 0 1 .198.332l.052-.077.349-.751.06-.18-.17-.226-.51-.31-1.434-.147a.998.998 0 0 1-.06-1.977l1.582-.26a1.075 1.075 0 0 1 .3-.002l.84.118c.11.015.216.048.314.098l.403.205.472.192c.204.082.375.23.485.42l.195.33s.245.36.247.365l.248-.32.37-.851.006-.057-.152-.2-1.297-.588a.998.998 0 0 1 .585-1.891l1.702.298c.136.024.266.076.381.152l.368.245a.985.985 0 0 1 .29.298l.162.256.191.244c.061.079.11.166.146.26l.06-.1.36-.801.048-.337-.087-.169-.621-.281-1.799-.32a.998.998 0 0 1 .175-1.981l1.221.02a.99.99 0 0 1 .188.019l.863.18c.046.01.09.022.134.038l.55.197.07.03.622.279.34.156a.998.998 0 0 1 .524.57l.161.45.298-.808.034-.374-.156-.207-.689-.315-1.675-.247a.998.998 0 0 1 .14-1.985l.922-.006a.83.83 0 0 1 .115.007s.74.085.755.088l.719.118c.117.02.23.06.334.12l.656.375c.043.025.085.053.124.083l.389.31a.958.958 0 0 1 .095.086l.32.328c.082.086.149.185.197.294l.08-.146.243-.983.094-.35-.04-.11-.107-.203-.161-.124-.118-.095-.17-.064-.377-.096-.639-.036-.81-.069a.998.998 0 0 1 .035-1.99l1.232-.061.365-.035a1.015 1.015 0 0 1 .336.026l.528.135.589.157a.992.992 0 0 1 .291.132l.369.244a1 1 0 0 1 .386.49l.13.36.189.277.034.054.02-.047.381-1.074.037-.36-.05-.345-.046-.133-.261-.222a1.05 1.05 0 0 1-.13-.134l-.019-.012-.466-.137-.535-.063-.866-.12a.998.998 0 0 1 .128-1.986l1.321-.013c.067 0 .134.006.2.02l.732.149c.124.026.243.075.349.145l.63.414c.043.028.084.06.121.093l.294.266c.045.04.085.084.122.132l.22.287a.995.995 0 0 1 .148.268l.048.13.179-.47.1-.532-.027-.79-.182-.403-.59-.268-1.579-.276a.998.998 0 0 1 .172-1.98l1.435.033a.99.99 0 0 1 .28.047l.992.317c.117.038.227.097.323.174l.673.544a.974.974 0 0 1 .2.219l.433.644c.082.122.137.26.159.406l.086.56.144-.638a.932.932 0 0 1 .032-.108l.27-.77.104-.564.001-.62-.067-.684-.098-.539-.178-.488-.275-.392-.356-.337-.403-.282a.997.997 0 0 1 .95-1.74l.406.167a.975.975 0 0 1 .256.152l.853.704a1 1 0 0 1 .183.196l.652.932c.05.072.091.15.122.233l.376 1.039c.022.062.039.126.049.191l.032.22.099-.309.42-1.908.266-1.871-.006-1.752-.22-1.39-.446-1.235a.998.998 0 0 1 1.829-.79l.267.525.334.59.28.548a.9.9 0 0 1 .051.12l.224.63c.011.03.02.06.027.09l.179.713a.61.61 0 0 1 .013.063l.115.63.17.68c.014.05.023.101.028.153l.066.742.082.658.405-.855.81-2.034.636-1.981.483-1.99.11-1.99.005-1.948a.998.998 0 0 1 .96-.994c.014-.002.026-.002.038-.002.521 0 .954.402.994.921l.142 1.832.086 1.915a.999.999 0 0 1-.002.118l-.137 1.834-.251 2.019a.944.944 0 0 1-.02.106l-.008.035 1.236-2.36 1.372-2.686 1.28-2.707 1.2-2.699 1.16-2.723a.998.998 0 0 1 1.87.687l-.904 2.91-.018.052-1.072 2.885-1.086 2.769-1.223 2.944-1.18 2.722-.429.97.994-1.086 1.42-1.462 1.397-1.316 1.447-1.276 1.472-1.21a.998.998 0 0 1 1.338 1.477l-1.438 1.431-1.474 1.513-1.4 1.693-1.325 1.793-1.365 1.917-.865 1.197.972-.68a.98.98 0 0 1 .137-.08l2.785-1.347a1.09 1.09 0 0 1 .173-.064l2.397-.651a.998.998 0 0 1 .569 1.912l-1.256.406-1.483.727-1.627 1.006-1.746 1.245-1.683 1.427-.35.342.603-.276a1 1 0 0 1 .318-.085l2.388-.232a.996.996 0 0 1 .487.074l.662.282a.998.998 0 0 1-.392 1.916l-1.153-.01-1.256.341-1.477.623-1.316.877a1.023 1.023 0 0 1 .281-.004l1.752.216a1 1 0 0 1 .664.376l1.338 1.711a.998.998 0 0 1-1.443 1.366l-1.497-1.312-1.957.404-.466.266.148.006c.102.004.203.023.299.057l.823.293a1 1 0 0 1 .397.262l.59.636c.047.05.088.103.123.161l.486.802a.998.998 0 0 1-1.492 1.283l-1.583-1.32-1.923.337-.58.28.244.037a.963.963 0 0 1 .311.104l.74.387a.999.999 0 0 1 .313.257l.504.625a1 1 0 0 1 .16.285l.345.946a.998.998 0 0 1-1.697.988l-1.207-1.419-1.819.116-.572.253.183.044c.1.024.196.063.284.116l.667.405c.11.067.205.154.281.256l.539.72a1 1 0 0 1 .172.366l.232.975a.998.998 0 0 1-1.758.844l-1.185-1.52-1.738.025-.196.079c.114.02.225.06.325.12l.404.236a.984.984 0 0 1 .16.117l.415.37a.93.93 0 0 1 .124.134l.222.286c.027.037.053.075.076.115l.224.39a1.1 1.1 0 0 1 .073.16l.112.314c.018.05.031.1.041.152l.086.462a.998.998 0 0 1-1.92.518l-.12-.334-.302-.478-.687-.48-.995-.086-.94.255.033.012a.989.989 0 0 1 .213.107l.63.418c.096.063.18.142.248.234l.538.72c.058.079.105.165.14.258l.341.944a.998.998 0 0 1-1.852.741l-.376-.856-.36-.37-.454-.176-.944-.087-1.355.308-.358.11.042.02c.036.016.07.034.103.054l.51.31c.034.021.068.044.1.069l.39.308a.98.98 0 0 1 .226.25l.28.442a.998.998 0 0 1 .013 1.049l-.125.208a.999.999 0 0 1-1.646.094l-.281-.366-.3-.208-.425-.153a1.008 1.008 0 0 1-.077-.03l-.156-.072-1.583.087-.569.136s.4.264.413.274l.276.202a.948.948 0 0 1 .12.103l.188.193a.997.997 0 0 1 .001 1.398l-.232.236a.994.994 0 0 1-1.264.131l-.345-.229-.273-.159-.138-.039-.756-.13-1.155.095-.034.004a.91.91 0 0 1 .113.134l.162.232a.998.998 0 0 1-.232 1.379l-.38.275a.999.999 0 0 1-.586.19c-.026 0-.052 0-.079-.003l-.492-.038-1.01-.068-1.238-.088a.997.997 0 0 1-.139 1.205l-.725.75a.998.998 0 0 1-1.204.178l-.275-.154-1.712-.018-.626.018-2.07.236-.542.147-1.86.828-.717.452c-.058.036-.12.067-.183.09l-.702.262a.993.993 0 0 1-.349.063c-.023 0-.045 0-.068-.002l-1.024-.07a.996.996 0 0 1-.258-.052l-1.152-.399-.55-.09a.989.989 0 0 1-.385-.15l-.305-.199-.705-.048-.536.022c-1.517.553-13.702 4.81-32.078 6.115a.915.915 0 0 1-.07.003" fill="#72778E"/><path d="M108.671 21.552l-2.834 1.983-2.768 2.275 1.331-2.058 1.318-2.089 1.462-2.025 1.376-1.93 1.34-1.815 1.444-1.746 1.514-1.554 1.437-1.43-1.446 1.189-1.422 1.253-1.397 1.316-1.368 1.409-1.43 1.565-1.539 1.698-1.58 1.92-1.803 2.185 1.418-2.703 1.465-2.786 1.253-2.832 1.173-2.708 1.216-2.926 1.08-2.752 1.071-2.886.904-2.91-1.166 2.739-1.208 2.717-1.289 2.735-1.377 2.695-1.418 2.705-1.512 2.66-1.523 2.63-1.583 2.68.966-2.512.893-2.389.62-2.14.473-2.001.247-1.97.138-1.834-.084-1.881-.142-1.832-.005 1.975-.116 2.107-.514 2.114-.656 2.046-.836 2.097-.996 2.105-1.114 2.102-1.334 2.059.294-.737.316-.78.189-.914.135-.73.079-.886.077-.783.062-.71-.103-.838-.068-.741-.179-.713-.12-.661-.177-.712-.224-.63-.28-.548-.324-.57-.278-.546.477 1.323.247 1.56.007 1.901-.281 1.98-.44 1.99-.656 2.047-.906 1.908-1.216 1.61.354-.788.102-.72.134-.728.145-.699.138-.727-.048-.68-.046-.679-.084-.565-.377-1.039-.653-.932-.854-.703-.405-.166.464.324.483.457.408.582.252.691.12.662.077.774-.002.762-.135.728-.295.841-.183.812-.394.901-.4.767-.426.808-.486.757-.461.712.199-1.436.122-1.209-.012-1.14-.15-.962-.432-.645-.673-.546-.992-.316-1.41-.033 1.703.298 1.049.475.416.925.038 1.097-.137.73-.268.697-.216.716-.32.778-.317.78-.317.776-.28.771-.256.725.157-1.219.124-1.313-.089-1.015-.2-.882-.147-.408-.222-.287-.293-.265-.631-.415-.732-.15-1.312.013.842.117.622.072.67.2.36.214.032.092.462.395.17.474.085.564-.061.605-.433 1.225-.618 1.378-.653 1.393-.672 1.461.253-1.175.18-1.158-.124-.9-.175-.817-.256-.38-.173-.474-.369-.245-.574-.154-.528-.134-.385.036-1.254.063.781.067.735.04.525.134.372.14.227.182.33.256.243.454.17.47-.17.636-.275 1.113-.726 1.305-.69 1.4-.764 1.419.328-1.302.203-1.092-.031-.857-.25-.693-.32-.329-.388-.308-.656-.376-.719-.119-.708-.081-.916.006 1.813.269 1.05.477.54.717-.08.889-.384 1.035-.695 1.16-.69 1.296-.76 1.21.395-1.11.204-1.095-.066-.953-.25-.693-.135-.376-.333-.153-.623-.28-.548-.197-.864-.18-1.204-.02 1.92.344 1.051.475.392.76-.11.792-.444.984-.674 1.118-.82 1.26-.856 1.271.385-1.141.236-1 .078-.885-.227-.633-.221-.283-.188-.298-.368-.245-1.702-.298 1.527.693.61.803-.104.27-.03.25-.478 1.101-.816 1.052-.955 1.226-.925 1.187.286-.527.152-.354.178-.394.227-.574-.003-.457-.066-.396-.025-.409-.257-.38-.21-.357-.513-.208-.442-.225-.838-.118-1.582.259 1.658.17.865.527.54.718.057.158-.048.083-.193.57-.405.872-.57.847-.725.647-.566.639-.58.608.252-.414.14-.385.066-.366.24-.998-.14-.379.019-.28-.2-.222-.152-.2-.403-.237-.296-.266-.443-.122-.678-.334.93 1.028.226.63.02.27-.278.561-.46.715-.594.783-.79.906-.16-.995-.17-.474-.134-.377-.297-.264-.477-.32-.61-.252-.658-.167-1.19-.09-1.149.138-.594.335-1.156.557 2.386-.234 1.08.225.564.02.39.517.395.549-.232.688-.208.748-.425.809-.966.85-1.318.774-.263-1.277-.563 1.087-.994.893-1.2.983-1.026 1.249-.38.933.139.932.084.567-.083.542-.611.407-.563.431a21.24 21.24 0 0 1-2.43.938 21.155 21.155 0 0 1-2.43-.938l-.562-.43-.612-.408-.083-.542.085-.567.136-.933-.38-.932-1.025-1.249-1.2-.983-.994-.893-.563-1.087-.264 1.276-1.316-.773-.968-.85-.425-.81-.209-.747-.23-.688.398-.549.387-.518.563-.02 1.08-.223 2.389.234-1.157-.557-.594-.335-1.148-.137-1.191.088-.66.168-.605.25-.476.32-.297.265-.136.376-.17.475-.16.995-.79-.907-.59-.782-.465-.716-.275-.56.02-.272.225-.63.93-1.027-.678.334-.442.122-.297.266-.405.236-.151.2-.201.223.02.28-.138.379.236.998.067.366.141.385.25.414-.58-.61-.567-.639-.723-.645-.57-.847-.404-.872-.193-.57-.05-.083.058-.16.54-.716.867-.527 1.657-.17-1.58-.259-.843.118-.44.225-.514.208-.208.357-.257.38-.028.408-.065.397.022.614.205.417.175.394.154.355.285.526-.927-1.187-.95-1.225-.818-1.052-.48-1.102-.03-.25-.103-.269.61-.802 1.527-.693-1.702.298-.369.245-.188.295-.222.285-.226.632.079.885.237 1 .384 1.141-.856-1.271-.82-1.262-.674-1.116-.44-.984-.114-.792.393-.76 1.048-.475 1.92-.343-1.202.02-.864.179-.55.198-.62.279-.334.153-.136.376-.25.693-.066.953.204 1.095.396 1.11-.758-1.21-.69-1.296-.698-1.16-.384-1.037-.078-.887.54-.717 1.05-.478 1.81-.269-.914-.007-.708.083-.72.118-.656.377-.39.308-.32.328-.248.694-.03.857.202 1.092.327 1.302-.764-1.419-.688-1.4-.728-1.305-.276-1.113-.166-.635.169-.472.244-.453.329-.256.228-.182.368-.14.527-.134.734-.04.781-.067-1.252-.063-.386-.036-.527.134-.574.154-.371.246-.172.474-.256.38-.175.817-.126.9.18 1.157.252 1.176-.667-1.461-.656-1.391-.613-1.379-.437-1.227-.062-.605.084-.561.173-.475.458-.395.036-.092.357-.215.672-.199.621-.072.842-.117-1.313-.012-.732.148-.63.417-.295.265-.221.287-.15.408-.199.881-.085 1.015.122 1.314.158 1.218-.257-.726-.279-.77-.317-.776-.318-.78-.317-.777-.219-.717-.266-.697-.137-.73.04-1.097.413-.924 1.049-.476 1.703-.298-1.407.031-.994.317-.672.544-.435.643-.148.963-.012 1.141.12 1.21.199 1.435-.46-.712-.486-.754-.425-.809-.402-.767-.39-.901-.186-.813-.296-.841-.135-.728-.003-.762.08-.774.12-.662.25-.69.409-.582.483-.458.466-.326-.409.168-.853.703-.652.93-.376 1.04-.086.566-.046.679-.046.68.136.727.147.698.135.73.098.719.354.788-1.214-1.611-.905-1.908-.655-2.046-.441-1.989-.28-1.98.008-1.901.244-1.56.48-1.323-.278.546-.328.57-.276.549-.226.63-.177.71-.12.662-.178.713-.069.741-.101.838.06.71.078.783.079.885.136.731.188.914.314.78.294.737-1.333-2.06-1.115-2.102-.994-2.103-.838-2.098-.656-2.047-.514-2.113-.117-2.108-.003-1.974-.143 1.832-.081 1.881.134 1.834.245 1.97.472 2 .624 2.142.893 2.389.966 2.512-1.583-2.68-1.524-2.63-1.512-2.661-1.414-2.705L7.26 9.386 5.977 6.652l-1.21-2.72L3.6 1.195l.904 2.91L5.576 6.99l1.08 2.752 1.216 2.927 1.175 2.709 1.25 2.831 1.466 2.787 1.417 2.702-1.802-2.185-1.583-1.92-1.536-1.699-1.43-1.564-1.367-1.409-1.4-1.316-1.421-1.253-1.447-1.19 1.44 1.432 1.512 1.554 1.445 1.744 1.338 1.816 1.375 1.933 1.463 2.023 1.32 2.089 1.33 2.057-2.77-2.274-2.832-1.983-2.784-1.347-2.398-.652 1.324.427 1.592.781 1.695 1.049L8.051 23.1l1.742 1.475 1.62 1.584 1.577 1.605 1.272 1.661-2.998-1.854-2.81-1.283-2.39-.232-.658.282 1.281-.011 1.453.395 1.626.686 1.574 1.05 1.674 1.113 1.497 1.377 1.433 1.22-3.096-1.257-2.399-.758-1.753.217-1.339 1.711 1.869-1.637 2.6.534 3.107 1.78 3.533 1.93-3.067-1.009-2.564-.522-1.01.036-.827.293-.587.637-.488.8 1.938-1.617 2.515.442 3.125 1.506 3.492 1.816-3.064-.901-2.32-.32-1.052.163-.741.386-.503.627-.343.944 1.531-1.8 2.495.16 3.095 1.362 3.66 1.582-3.198-.765-2.3-.14-.876.211-.665.406-.54.72-.23.975 1.488-1.914 2.42.035 2.964 1.186 3.712 1.425-3.313-.657-2.243-.091-.524.134-.421.059-.406.238-.411.37-.226.285-.22.391-.113.315-.086.46.159-.44.466-.739 1.07-.748 1.441-.125 1.709.465 1.16.315 1.128.411 1.3.596 1.748.579-.073-.022-.024.066-2.27-.343-1.316-.115-.965-.089-.42.057-.826.296-.625.418-.54.72-.34.944.446-1.02.638-.658.784-.305 1.24-.114 1.546.351 2.16.657 1.562.528 1.868.577-1.855-.054-1.712-.12-.735.042-.333.152-.477.218-.51.31-.391.308-.282.443.126.207.375-.487.535-.371.549-.199.382-.172 1.915.105 2.202.53 1.504.477 2.38.477-1.133-.067-.576-.055-.88.004-1.189.197-.841.118-.343.182-.262.172-.26.171-.272.202-.192.192.235.236.369-.246.405-.236.308-.09.938-.16 1.279.105 1.147.14 2.143.582 1.58.259 1.38.27-1.436-.114-1.458-.05-1.175.27-.947.086-.408.132-.167.128-.164.233.38.275.494-.037 1.02-.069 1.31-.094.895.07 2.114.333 1.328.187 1.342.365-1.312-.114-1.109-.027-1.118.113-.768.244-.24.106-.281.236.725.751.25-.14.129-.136 2.082-.023.71.02 2.184.248.688.187 1.995.887.78.49.704.261 1.022-.07 1.232-.425.634-.104.525-.344 1.021-.067.746.03s1.193.457 3.425 1.127c-9.7 2.69-26.38 3.559-26.38 3.559l.841 1.425c12.286-.873 21.702-3.044 27.032-4.548 5.329 1.504 14.744 3.675 27.03 4.547l.84-1.425s-16.677-.869-26.378-3.557c2.233-.67 3.426-1.128 3.426-1.128l.747-.03 1.02.07.523.341.635.104 1.231.426 1.025.07.702-.261.778-.49 1.995-.888.69-.187 2.185-.248.709-.02 2.081.023.13.136.25.14.725-.75-.284-.237-.236-.106-.765-.243-1.118-.111-1.108.024-1.313.114 1.343-.365 1.328-.186 2.116-.333.89-.07 1.312.094 1.02.069.492.037.38-.275-.162-.233-.168-.128-.405-.133-.952-.085-1.173-.27-1.458.05-1.436.114 1.38-.27 1.581-.26 2.143-.582 1.145-.14 1.28-.104.937.16.309.09.405.236.37.246.232-.236-.189-.192-.275-.202-.26-.17-.263-.173-.342-.182-.84-.118-1.189-.197-.879-.002-.577.053-1.133.068 2.38-.477 1.502-.478 2.203-.529 1.919-.106.379.173.55.198.535.371.376.488.125-.207-.28-.443-.392-.308-.51-.31-.476-.218-.338-.152-.732-.041-1.712.118-1.856.054 1.866-.577 1.563-.528 2.159-.657 1.545-.35 1.24.113.787.304.636.657.45 1.02-.342-.944-.538-.72-.63-.417-.826-.296-.42-.057-.963.088-1.316.116-2.27.343-.024-.067-.07.023 1.743-.58 1.302-.595 1.127-.412 1.165-.315 1.706-.465 1.439.126 1.07.748.468.74.157.44-.086-.461-.112-.315-.223-.39-.222-.287-.413-.37-.404-.237-.42-.059-.526-.134-2.244.09-3.31.659 3.712-1.426 2.964-1.185 2.418-.036 1.49 1.914-.231-.975-.539-.72-.667-.405-.876-.211-2.3.14-3.194.765 3.655-1.583 3.097-1.362 2.495-.159 1.53 1.8-.343-.946-.504-.624-.74-.389-1.055-.163-2.317.321-3.067.901 3.496-1.816 3.123-1.504 2.515-.443 1.939 1.618-.487-.802-.59-.637-.824-.292-1.012-.036-2.563.522-3.064 1.008 3.529-1.929 3.108-1.779 2.598-.535 1.869 1.637-1.338-1.711-1.752-.218-2.4.758-3.096 1.257 1.434-1.22 1.498-1.376 1.672-1.113 1.574-1.05 1.627-.686 1.453-.395 1.282.01-.66-.281-2.39.232-2.808 1.283-3 1.854 1.275-1.66 1.575-1.606 1.621-1.584 1.742-1.476 1.806-1.289 1.696-1.049 1.593-.78 1.322-.428-2.397.652-2.785 1.346zM48.552 46.47l.88.552.491.514.235.238-.032.3-.075.432-.135.378-.115.314.046.43.65.625-1.432-.668-1.063-.597-.65-.63-.21-.3.112-.313.224-.287.135-.378.04-.44-.032-.353-.54-.492 1.471.675zm-4.524-2.268l1.253.617.952.57.504.59.21.193.09.302-.148.41-.21.36-.114.315.047.426.626.689-1.446-.634-1.047-.633-.581-.606-.175-.393.08-.222.134-.378.15-.41.041-.334.004-.345-.37-.517zm-3.24-1.747l1.338.606.87.689.502.48.213.301.067.364-.114.315-.15.41-.112.315-.078.221.1.269.198.226.344.372-1.435-.667-1.025-.696-.59-.574-.164-.32.116-.316.185-.295.137-.38.075-.428.006-.344-.483-.548zm-1.826-1.014l.905.59.478.546.198.228-.005.343-.149.41-.136.378-.114.315.035.458.64.66-1.424-.698-1.036-.664-.593-.574-.137-.385-.008-.313.257-.38.186-.296.138-.378-.067-.366-.577-.606 1.409.732zm-4.439-.517l.221-.286.21-.357.04-.334.04-.44-.493-.618 1.424.802.772.626.47.577.197.226-.005.346-.102.283-.147.409-.114.316-.08.22.015.177.272.351.393.35-1.374-.617-1.013-.725-.558-.67-.247-.413.079-.223zm-1.537-2.98l.75.69.494.513.174.29-.115.315-.137.378-.15.408-.11.317-.046.126.09.302.177.395.487.304-1.412-.73-1.05-.736-.532-.63-.141-.487.08-.222.256-.38.104-.284.126-.344.05-.472-.397-.56 1.302.806zm-3.528-2.298l-.484-.652 1.281.866.811.741.334.505.163.323-.027.303-.222.388-.14.379-.22.286.052.187-.02.271.213.3.431.465-1.171-.84-.921-.767-.459-.611-.25-.414.128-.347.173-.263.258-.381.138-.378-.068-.361zm-3.218-.705l.22-.39.214-.251.111-.317.09-.253-.049-.187-.068-.26-.357-.443 1.151.9.81.846.372.516.068.365.03.25-.148.409-.223.286-.21.356-.059.158.093.302.173.288.361.444-1.21-.848-.895-.832-.413-.734-.141-.384.08-.22zm-2.244-2.513l.21-.36.076-.43.079-.219-.053-.187.01-.239-.273-.353 1.043.871.702.814.264.594.102.27-.005.345-.148.407-.316.327-.115.32-.057.157.067.363.174.29.397.558-1.222-.92-.778-.938-.46-.609-.139-.386.222-.39.22-.285zM21.33 30.42l.245-.348.22-.39.137-.378.057-.158.007-.24-.018-.281-.323-.433 1.119.995.567.849.305.6.141.384-.115.315-.21.357-.245.35-.187.296-.09.25.101.27.091.303.322.433-1.066-.913-.787-.803-.314-.778-.048-.427.09-.253zm-1.648-3.943l.609.859.352.682.139.383-.006.243-.03.408-.147.409-.115.315.032.25.101.27.25.414.201.436-1.031-1.01-.728-.853-.558-.774-.009-.419.005-.345.114-.315.086-.46.038-.44.06-.158.005-.24-.089-.3-.252-.416.973 1.061zm-2.92-2.523l.607.752.376.622.14.384.066.365.142.488-.087.46.07.366.016.281.175.29.251.415.32.434-.883-.76-.736-.72-.533-.733-.226-.478.053-.366-.042-.428-.015-.522-.046-.426-.016-.282-.065-.26-.212-.3-.164-.323.81.74zm-2.445 2.69l-.633-.792-.514-1.006.53.523.452.296 1.043.423.766.313.464.367.579.608.715.784.442.984-.689-.637-.56-.324-.959-.332-.85-.403-.285-.32-.501-.483zm1.05 2.502l-.855-1.165.687.53.488.307.89-.035.783.04.618.272.663.595.958.885.925 1.08-.953-.673-.653-.177-.784-.04-1.003-.204-.342-.162-.645-.419-.777-.834zm2.284 3.286l-.914-1.01.744.376.578.052.841-.116.913-.099.545.148.74.374.994.787 1.042.977-.946-.36-.651-.073-.951.087-.803.127-.545-.148-.635-.45-.952-.672zm2.49 2.375l-.98-1.03.706.469.601-.01 1.022-.067.767-.242.545.147.814.395 1.027.798 1.045.976-1.034-.452-.6.008-.983.183-.88.003-.436-.118-.741-.377-.872-.683zm3.482 2.953l-.975-.611-1.084-1.091.852.404.546.149.959-.223.875-.214.543.15.851.403 1.026.695 1.14.932-1.057-.392-.566.02-.98.183-.99-.025-.435-.12-.705-.26zm2.714 2.088l-1.009-.516-1.117-.996.853.405.601-.01.937-.16.874-.214.57.087.921.423 1.05.631 1.149.901-.996-.444-.602.01-1.007.245-.984.078-.472-.128-.768-.312zm2.701 2.179l-.998-.549-1.153-.9.995.338.492-.038.494-.039.55-.093.456-.153.262-.173.54.046.983.37 1.123.652 1.186.911-1.067-.36-.603.01-.444.12-.513.103-.562.126-.422.058-.545-.15-.774-.28zm1.976 1.195l-1.28-.865.873.34.674.013.443-.123.565-.125.454-.152.408-.028 1.633.34 2.352 1.437-1.09-.297-.748-.03-.885.244-1.13.145-.4-.111-.836-.331-1.033-.457zm4.085 2.392l-2.326-1.29.885.311.627-.074.562-.123.443-.122.527-.133.237-.108 1.753.337 2.473 1.332-1.055-.288-.709-.02-.477.218-.55.195-.635.104-.386-.035-1.37-.304zm.707.47l.885.311.733-.045.492-.037.477-.218.517-.098.383-.175 1.652.276 2.57 1.392-1.164-.317-.744.074-.372.037-.513.208-.526.132-.517.104-1.377-.272-2.496-1.372zm5.66 2.994l-2.41-1.278.875.34.696-.052.563-.125.55-.196.444-.123.311-.086 1.713.223 2.567 1.288-1.125-.307-.734.043-.453.152-.54.165-.598.217-.48.008-1.38-.269zm.828.467l1.004.204.708-.085.41-.027.56-.228.479-.113.407-.129 1.62.266 2.515 1.205-1.04-.214-.78.062-.374.143-.656.165-.588.084-.457.048-1.27-.241-2.538-1.14zm9.937 2.53l-.675-.012-.456.154-.547.198-.585.187-.461-.057-1.328-.188-2.516-1.203.907.247.59-.083.6-.01.511-.312.518-.101.368-.142 1.704.256 2.459 1.362-1.089-.297zm.017-.827l-.974-.61-.722-.544-.14-.382.113-.316.115-.314.245-.349.115-.316-.045-.427-.709-.47 1.467.572.94.604.541.492.174.287-.004.346-.042.335-.136.377-.115.317.037.458.587.576-1.447-.636zm45.07-23.357l.176-.288.018-.282.065-.364-.086-.462.144-.487.068-.366.142-.383.373-.622.607-.753.808-.74-.163.324-.21.298-.067.26-.02.282-.043.427-.012.521-.044.428.051.367-.226.478-.533.733-.736.72-.883.759.322-.435.25-.415zm-2.596 2.75l.25-.413.103-.272.027-.25-.115-.314-.146-.41-.028-.407-.008-.243.141-.383.35-.682.608-.858.973-1.063-.25.416-.09.3.007.241.059.158.036.44.089.46.113.317.004.344-.009.418-.557.774-.727.855-1.033 1.008.203-.436zm-2.781-.074l.304-.601.57-.85 1.114-.993-.321.434-.02.279.007.24.06.158.133.38.222.388.245.35.092.253-.045.427-.318.778-.787.802-1.067.914.322-.433.093-.302.098-.27-.09-.251-.188-.296-.244-.35-.21-.356-.114-.316.144-.385zm-2.405 2.282l.264-.595.704-.814 1.043-.87-.276.352.009.24-.052.187.082.218.074.43.208.36.223.286.221.39-.138.385-.46.609-.778.937-1.223.922.398-.559.173-.29.067-.363-.057-.158-.114-.318-.316-.328-.148-.407-.006-.346.102-.268zm-2.75 2.546l.067-.364.374-.517.81-.843 1.152-.901-.36.443-.064.259-.052.189.09.252.115.316.211.25.219.391.08.222-.14.383-.413.735-.896.833-1.208.846.357-.443.175-.288.09-.303-.056-.156-.21-.359-.224-.286-.146-.41.03-.25zm-2.598 1.64l.335-.505.808-.739 1.283-.868-.483.652-.067.362.135.378.259.38.174.265.127.345-.25.414-.458.612-.92.768-1.174.838.433-.463.21-.3-.017-.272.05-.187-.221-.286-.139-.379-.22-.388-.03-.303.165-.324zm-2.93 1.94l.492-.513.748-.688 1.306-.807-.397.558.051.472.126.346.102.282.256.381.08.222-.143.488-.53.63-1.051.735-1.41.73.486-.303.179-.395.088-.303-.043-.126-.115-.316-.148-.408-.136-.378-.115-.316.175-.29zm-2.804 3.497l-.115-.315-.147-.41-.105-.283-.004-.346.198-.226.468-.577.773-.626 1.423-.802-.492.618.038.44.043.334.209.357.221.286.08.221-.246.413-.557.67-1.014.725-1.373.617.392-.35.271-.35.016-.175-.08-.22zm-3.314.104l.48-.546.904-.59 1.413-.73-.579.605-.069.366.136.378.186.297.257.38-.007.312-.14.385-.59.574-1.037.665-1.422.698.638-.66.036-.46-.114-.316-.138-.377-.148-.408-.004-.345.198-.228zm-3.055 3.358l-.115-.316-.146-.41-.116-.314.068-.364.214-.3.501-.482.87-.688 1.336-.606-.482.548.006.344.075.429.138.38.188.295.111.314-.161.322-.59.573-1.026.696-1.435.667.344-.372.197-.226.1-.269-.077-.22zm-3.546.238l.209-.195.506-.59.952-.57 1.253-.617-.373.516.006.345.039.337.15.408.137.378.079.221-.177.393-.577.608-1.049.632-1.446.634.628-.688.046-.426-.115-.316-.209-.359-.148-.41.09-.3zm-2.976 1.361l.489-.512.882-.552 1.47-.675-.54.495-.032.354.041.438.135.378.223.287.112.314-.21.3-.65.628-1.06.597-1.434.668.651-.626.045-.429-.116-.315-.136-.377-.074-.43-.031-.302.235-.24zm-3.265 3l-.135-.377-.044-.336-.003-.346.174-.287.542-.492.938-.604 1.47-.572-.709.468-.046.43.115.315.245.349.115.314.112.317-.138.382-.723.544-.976.61-1.445.635.591-.576.034-.458-.117-.317zm5.009 1.823l-1.33.188-.46.057-.584-.187-.548-.197-.457-.154-.674.01-1.089.299 2.462-1.363 1.702-.257.367.143.517.1.512.312.6.01.588.084.91-.247-2.516 1.202zm3.344-1.672l-1.268.241-.457-.048-.587-.084-.658-.165-.373-.141-.78-.064-1.042.214 2.52-1.204 1.616-.267.408.13.479.113.561.227.41.028.708.084 1.004-.204-2.541 1.14zm3.368-1.606l-1.377.27-.481-.009-.6-.216-.539-.166-.452-.152-.734-.044-1.127.308 2.569-1.289 1.713-.222.312.087.442.122.55.196.563.125.697.052.874-.34-2.41 1.278zm3.163-1.624l-1.377.273-.517-.104-.525-.132-.515-.209-.372-.036-.744-.074-1.164.317 2.57-1.393 1.652-.276.384.175.516.098.476.218.496.037.73.045.886-.311-2.496 1.372zm3.207-1.84l-1.368.303-.386.036L78 45.85l-.55-.197-.478-.218-.711.02-1.052.288 2.47-1.332 1.753-.337.239.108.526.133.445.123.561.122.626.074.885-.31-2.325 1.29zm4.081-2.392l-1.032.455-.837.332-.402.11-1.128-.144-.885-.243-.745.029-1.091.297 2.35-1.436 1.637-.34.406.027.455.153.565.124.44.123.676-.013.873-.34-1.282.866zm2.976-1.915l-.997.548-.777.28-.544.15-.422-.058-.561-.126-.517-.104-.44-.12-.604-.01-1.068.36 1.187-.91 1.12-.653.985-.37.541-.045.263.172.453.153.552.093.494.04.492.04.992-.342-1.149.902zm2.809-2.044l-1.007.515-.766.312-.472.129-.984-.079-1.007-.244-.603-.01-.993.444 1.15-.9 1.048-.632.924-.423.566-.086.875.213.937.159.6.01.853-.405-1.121.997zm2.683-2.184l-.973.612-.705.26-.437.12-.988.024-.984-.182-.564-.02-1.055.392 1.14-.932 1.026-.695.85-.403.544-.15.874.213.959.225.547-.15.849-.405-1.083 1.091zm2.505-2.343l-.868.685-.742.375-.437.12h-.88l-.983-.185-.6-.01-1.032.454 1.042-.975 1.026-.8.818-.395.543-.147.766.241 1.023.068.601.009.709-.468-.986 1.028zm2.494-2.373l-.953.674-.637.45-.543.148-.804-.128-.953-.086-.647.073-.948.36 1.044-.977.991-.787.74-.374.547-.15.913.099.84.116.578-.053.745-.374-.913 1.01zm2.284-3.287l-.777.835-.647.417-.341.162-1.001.203-.784.041-.654.177-.953.675.925-1.082.957-.886.663-.595.618-.27.784-.04.89.033.489-.306.685-.531-.854 1.167zm1.682-3.294l-.634.793-.501.485-.285.318-.85.403-.959.332-.562.326-.684.635.44-.983.716-.785.578-.607.464-.367.768-.313 1.042-.422.453-.296.528-.524-.514 1.005z" fill="#FFF" fill-rule="nonzero"/></g></svg>