<svg width="106" height="84" viewBox="0 0 106 84" xmlns="http://www.w3.org/2000/svg" xmlns:xlink="http://www.w3.org/1999/xlink"><title>Group 84</title><defs><path id="a" d="M0 .048h37.532v10.367H0z"/></defs><g fill="none" fill-rule="evenodd"><path d="M94.586 9.807l-23.149 23.34a1.755 1.755 0 0 1-2.483 0l-2.342-2.34a1.757 1.757 0 0 1 0-2.483L88.606 6.33" fill="#E5EEFD"/><path d="M70.194 34.76a2.845 2.845 0 0 1-2.018-.834l-2.341-2.342a2.857 2.857 0 0 1 0-4.038L87.828 5.552a1.1 1.1 0 1 1 1.556 1.556L67.39 29.101a.657.657 0 0 0 0 .928l2.342 2.341a.656.656 0 0 0 .928 0L93.805 9.031a1.1 1.1 0 0 1 1.562 1.549L72.218 33.922a2.854 2.854 0 0 1-2.024.838" fill="#717791"/><path d="M21.188 37.785l5.994 40.603a4.706 4.706 0 0 0 4.655 4.018h60.038a4.705 4.705 0 0 0 4.654-4.018l6.033-40.862H57.378" fill="#E5EEFD"/><path d="M91.874 83.507H31.836c-2.857 0-5.325-2.132-5.743-4.959L20.1 37.947a1.101 1.101 0 0 1 .928-1.25 1.106 1.106 0 0 1 1.25.928l5.993 40.604a3.625 3.625 0 0 0 3.566 3.079h60.038a3.624 3.624 0 0 0 3.566-3.08l5.847-39.6h-43.91a1.1 1.1 0 0 1 0-2.2h45.184a1.1 1.1 0 0 1 1.088 1.26L97.617 78.55c-.417 2.826-2.886 4.957-5.743 4.957" fill="#717791"/><path d="M103.13 29.508H72.81c-.742 0-1.343.6-1.343 1.341v5.595c0 .74.602 1.341 1.343 1.341h30.32c.74 0 1.342-.6 1.342-1.341v-5.595c0-.74-.601-1.341-1.343-1.341" fill="#E5EEFD"/><path d="M72.81 30.608a.242.242 0 0 0-.242.242v5.593c0 .134.108.243.242.243h30.32a.242.242 0 0 0 .242-.243V30.85a.242.242 0 0 0-.242-.242H72.81zm30.32 8.278H72.81a2.445 2.445 0 0 1-2.442-2.443V30.85a2.445 2.445 0 0 1 2.442-2.442h30.32a2.445 2.445 0 0 1 2.442 2.442v5.593a2.445 2.445 0 0 1-2.442 2.443z" fill="#717791"/><path d="M26.252 37.526H3.56l6.032 40.862a4.706 4.706 0 0 0 4.655 4.018h60.038a4.706 4.706 0 0 0 4.655-4.018l6.367-43.13" fill="#FFF"/><path d="M26.252 38.546H3.56l1.008-1.168L10.07 74.64l.344 2.328.172 1.165c.056.349.113.62.235.913.44 1.147 1.498 2.043 2.71 2.268.326.056.555.078.972.072h55.323l4.655-.01a3.688 3.688 0 0 0 3.008-1.855c.141-.271.277-.55.348-.85.05-.147.062-.295.098-.456l.086-.582.344-2.33.687-4.656 1.326-9.323 1.324-9.323.704-4.656c.226-1.553.466-3.104 1.004-4.611a.8.8 0 0 1 1.553.229c.08 1.599-.139 3.153-.372 4.705l-.67 4.66-1.428 9.308-1.424 9.308-.688 4.658-.343 2.329-.086.582c-.045.224-.077.469-.148.695-.115.463-.317.902-.543 1.32-.933 1.676-2.759 2.799-4.674 2.884l-4.76.013H14.501a6.88 6.88 0 0 1-1.368-.111c-1.888-.355-3.525-1.735-4.212-3.524-.18-.432-.289-.934-.354-1.36l-.172-1.164-.344-2.328-5.5-37.263a1.02 1.02 0 0 1 1.008-1.17h22.692a1.02 1.02 0 0 1 0 2.04" fill="#717791"/><path d="M84.717 29.508H3.167c-1.195 0-2.164.97-2.164 2.165v3.947c0 1.196.969 2.166 2.165 2.166h81.549c1.196 0 2.165-.97 2.165-2.166v-3.947a2.165 2.165 0 0 0-2.165-2.165" fill="#FFF"/><path d="M13.457 30.309c-.777.157-1.555.246-2.332.269-.778.055-1.555.052-2.333-.194a.919.919 0 0 1 0-1.752c.778-.246 1.555-.25 2.333-.194.777.023 1.555.112 2.332.268a.818.818 0 0 1 0 1.603m22.133-.187c-1.042.306-2.084.41-3.126.458a46.56 46.56 0 0 1-3.125.043l-3.127-.014c-1.043-.082-2.084-.197-3.127-.424a.694.694 0 0 1 0-1.355c1.043-.227 2.084-.342 3.127-.425l3.127-.013a46.56 46.56 0 0 1 3.126.043c1.041.048 2.083.152 3.125.458a.64.64 0 0 1 0 1.23m9.94 7.12c.84-.494 1.68-.373 2.521-.396l2.52-.013 5.042-.026 10.082-.023 10.083.007 5.041.006 2.521.002 1.26.002.577-.003a.76.76 0 0 0 .72-.703c.004-.024.006-.136.005-.245v-.316l.003-2.52.001-1.26v-.315c.002-.111 0-.22-.003-.244a.774.774 0 0 0-.726-.713l-.58-.004-10.082.077-10.083.087-5.04-.027c-1.682 0-3.362.007-5.043-.51a.627.627 0 0 1 0-1.196c1.681-.518 3.361-.51 5.042-.51l5.041-.028 10.083.087 10.082.077c.233.003.37-.006.681.006.325.016.65.092.951.223a2.722 2.722 0 0 1 1.618 2.288c.012.186.01.287.01.387v.315l.002 1.26.002 2.52.001.316c0 .1.002.199-.009.385a2.724 2.724 0 0 1-2.57 2.526c-.315.013-.449.004-.683.007h-1.26l-2.52.004-5.042.006-10.083.006-10.082-.022-5.042-.027-2.52-.013c-.84-.023-1.68.099-2.52-.395a.63.63 0 0 1 0-1.085" fill="#717791"/><g transform="translate(0 28.506)"><mask id="b" fill="#fff"><use xlink:href="#a"/></mask><path d="M5.993 1.544c-.5.494-1 .373-1.498.395l-1.498.013c-.31 0-.35.006-.471.04a.75.75 0 0 0-.29.167.776.776 0 0 0-.256.594l.025 2.995-.001 1.498c0 .102-.004.3.003.324a.737.737 0 0 0 .728.708l1.479.002 2.996.006 5.99.01c3.996.014 7.99.027 11.985-.066l5.992-.087 2.996.027c.998 0 1.997-.006 2.996.51a.674.674 0 0 1 0 1.197c-1 .518-1.998.51-2.996.51l-2.996.027-5.992-.086c-3.994-.092-7.99-.082-11.984-.066l-5.991.01-2.996.005-1.516-.002A2.738 2.738 0 0 1 .007 7.67C-.004 7.447.004 7.394 0 7.247V5.748l.025-2.996A2.73 2.73 0 0 1 .97.703C1.264.452 1.61.26 1.985.155 2.344.04 2.809.042 2.997.05l1.498.013c.499.022.999-.1 1.498.395.3.295.302.78.006 1.079l-.006.006z" fill="#717791" mask="url(#b)"/></g><path d="M73.4 7.368L43.935 36.833a2.265 2.265 0 0 1-3.202 0l-3.018-3.018a2.264 2.264 0 0 1 0-3.2L67.739.591" fill="#FFF"/><path d="M63.515 4.816l3.329-3.33a1.165 1.165 0 0 1 1.182-.283" fill="#FFF"/><path d="M63.09 4.392c.162-.544.444-.968.76-1.358.317-.388.65-.76 1.003-1.113L65.912.864l.132-.133a2.252 2.252 0 0 1 .889-.567 2.23 2.23 0 0 1 1.43-.01 1.052 1.052 0 0 1-.211 2.042l-.464.053-.041.005c-.006.002-.012.002-.017.006-.012.01.014-.015-.03.027l-.133.13-1.058 1.06c-.353.353-.724.686-1.112 1.004-.391.315-.814.598-1.358.758a.682.682 0 0 1-.848-.847" fill="#717791"/><path d="M57.832 10.499l2.68-2.681" fill="#FFF"/><path d="M57.108 9.775c.11-.336.434-.458.66-.68l.737-.602a31.58 31.58 0 0 1 1.503-1.179.72.72 0 0 1 1.008 1.008 30.903 30.903 0 0 1-1.178 1.502l-.602.74c-.222.224-.344.548-.681.658a1.146 1.146 0 0 1-1.447-1.447m17.016-1.683L46.579 35.636l-1.721 1.722-.223.22c-.11.1-.214.203-.336.287a3.237 3.237 0 0 1-.771.43 3.296 3.296 0 0 1-3.321-.558c-.251-.222-.34-.326-.497-.48l-.43-.43-1.722-1.722c-.286-.308-.552-.493-.951-1.031a3.263 3.263 0 0 1-.568-1.651 3.255 3.255 0 0 1 .861-2.432l.453-.466 3.415-3.472 6.835-6.937c1.134-1.161 2.295-2.295 3.453-3.434l1.735-1.707c.582-.567 1.106-1.19 2.055-1.388a.758.758 0 0 1 .898.898c-.2.948-.822 1.473-1.388 2.055l-1.708 1.735c-1.138 1.157-2.273 2.318-3.433 3.453l-6.937 6.835-3.472 3.415c-.13.13-.322.31-.401.4-.08.079-.136.176-.192.27a1.256 1.256 0 0 0 .08 1.267c.076.124.44.465.712.743l1.722 1.722.43.43c.132.13.32.324.377.368.169.144.375.24.595.276a1.232 1.232 0 0 0 .944-.228c.048-.03.085-.073.129-.108l.209-.207 1.72-1.722L72.678 6.645a1.022 1.022 0 1 1 1.447 1.447" fill="#717791"/><path d="M44.2 32.159a1.874 1.874 0 1 1-3.748.001 1.874 1.874 0 0 1 3.749-.001" fill="#FFF"/><path d="M42.325 31.384a.776.776 0 1 0 .001 1.549.776.776 0 0 0 0-1.55m0 3.75a2.978 2.978 0 0 1-2.976-2.974 2.978 2.978 0 0 1 2.975-2.975 2.978 2.978 0 0 1 2.976 2.975 2.978 2.978 0 0 1-2.976 2.975" fill="#717791"/><path fill="#FFF" d="M67.687 1.1l20.64 3.246 6.26 5.461-21.343-2.215"/><path d="M94.587 10.907c-.038 0-.077-.002-.115-.006L73.131 8.687a1.1 1.1 0 0 1-.981-1.208 1.108 1.108 0 0 1 1.207-.981L91.25 8.355l-3.406-2.971-20.327-3.197a1.1 1.1 0 1 1 .341-2.173L88.5 3.26c.204.03.395.12.552.257l6.258 5.46a1.1 1.1 0 0 1-.722 1.93" fill="#717791"/><path d="M22.733 45.82l2.947 27.905" fill="#FFF"/><path d="M23.192 45.772c.367 2.312.724 4.626 1.04 6.944.326 2.317.655 4.634.94 6.954.287 2.322.62 4.638.867 6.963.263 2.324.476 4.653.554 6.995a.922.922 0 0 1-1.828.194c-.413-2.308-.692-4.63-.92-6.957-.242-2.326-.401-4.66-.607-6.99-.204-2.33-.366-4.664-.532-6.998a320.9 320.9 0 0 1-.433-7.008.461.461 0 0 1 .919-.097" fill="#717791"/><path d="M13.49 45.82l2.947 27.905" fill="#FFF"/><path d="M14.305 45.734c.41 2.308.743 4.624.998 6.95.28 2.322.487 4.65.703 6.979.452 4.654.81 9.32 1.09 13.993a.663.663 0 0 1-1.316.14 373.51 373.51 0 0 1-1.857-13.914c-.275-2.322-.56-4.642-.771-6.971a104.845 104.845 0 0 1-.475-7.005.82.82 0 0 1 1.628-.172" fill="#717791"/><path d="M33.757 56.897l1.298 16.829" fill="#FFF"/><path d="M34.309 56.854c.589 1.365.639 2.772.819 4.17.166 1.397.31 2.796.435 4.198.122 1.401.21 2.805.279 4.21.083 1.405.109 2.814-.244 4.252a.574.574 0 0 1-1.086.083c-.57-1.367-.76-2.763-.893-4.163-.148-1.399-.275-2.8-.37-4.204a148.068 148.068 0 0 1-.214-4.215c-.037-1.409-.203-2.807.17-4.246a.584.584 0 0 1 1.104-.085" fill="#717791"/><path d="M32.912 45.943l.356 4.61" fill="#FFF"/><path d="M33.464 45.9c.51.347.482.736.583 1.115.088.38.153.761.2 1.144.042.383.053.77.044 1.156.013.385-.055.777-.48 1.197a.845.845 0 0 1-1.087.083c-.484-.349-.611-.725-.656-1.109a8.225 8.225 0 0 1-.135-1.148 11.57 11.57 0 0 1 .021-1.162c.043-.39-.046-.769.405-1.19a.888.888 0 0 1 1.105-.086" fill="#717791"/><path d="M62.634 66.444l-.769 7.281" fill="#FFF"/><path d="M63.46 66.53c.143 1.243.041 2.459-.127 3.669-.18 1.208-.415 2.41-.843 3.592a.647.647 0 0 1-1.249-.132c-.173-1.245-.15-2.47-.074-3.69.088-1.216.243-2.427.643-3.612a.85.85 0 0 1 1.65.174" fill="#717791"/><path d="M64.812 45.82l-1.588 15.038" fill="#FFF"/><path d="M65.437 45.886a58.347 58.347 0 0 1-.103 3.791 99.024 99.024 0 0 1-.25 3.774c-.25 2.508-.365 5.03-1.266 7.47a.616.616 0 0 1-1.187-.126c-.371-2.574.04-5.064.322-7.569.15-1.25.346-2.498.544-3.744a59.1 59.1 0 0 1 .69-3.728.632.632 0 0 1 1.25.132" fill="#717791"/><path d="M74.724 45.688l-2.947 27.905" fill="#FFF"/><path d="M75.161 45.734c.183 2.371.078 4.711-.102 7.043-.206 2.33-.44 4.657-.696 6.981-.242 2.326-.547 4.645-.839 6.965-.28 2.322-.63 4.636-1 6.948a.753.753 0 0 1-.862.624.756.756 0 0 1-.63-.781c.12-2.339.26-4.675.47-7.004.201-2.33.386-4.662.635-6.987.235-2.327.493-4.651.777-6.972.311-2.318.698-4.629 1.372-6.909a.447.447 0 0 1 .875.092" fill="#717791"/><path d="M54.633 45.943L52.49 73.725" fill="#FFF"/><path d="M55.127 45.981c.056 2.333-.013 4.657-.08 6.98a201.683 201.683 0 0 1-.383 6.958c-.166 2.316-.337 4.632-.58 6.942-.22 2.312-.468 4.622-.795 6.926a.802.802 0 0 1-1.599-.123c.031-2.327.141-4.647.277-6.966.114-2.32.301-4.635.491-6.949s.42-4.626.69-6.934c.29-2.307.577-4.613.99-6.91a.5.5 0 0 1 .99.076" fill="#717791"/><path d="M43.225 46.065l.937 27.66" fill="#FFF"/><path d="M43.76 46.047c.422 2.293.612 4.595.74 6.898l.344 6.911c.13 2.303.176 4.609.238 6.915l.068 3.46c.024 1.152-.007 2.307-.347 3.473a.675.675 0 0 1-1.282.043c-.418-1.139-.526-2.29-.58-3.442l-.167-3.456c-.094-2.304-.204-4.608-.23-6.915l-.124-6.919c-.03-2.306.004-4.615.27-6.932a.541.541 0 0 1 1.07-.036" fill="#717791"/></g></svg>