<svg width="234" height="56" viewBox="0 0 234 56" xmlns="http://www.w3.org/2000/svg"><title>Group 5</title><g fill="#FFF" fill-rule="evenodd"><path d="M88.268 19.548L93.884 4.39h2.678l-7.098 18.434h-2.522L80 4.39h2.704l5.564 15.158zm13.494 3.276h-2.6V4.39h2.6v18.434zm14.222 0l-4.212-7.54h-2.756v7.54h-2.574V4.39h6.942c3.484 0 5.642 2.444 5.642 5.486 0 2.652-1.69 4.706-4.472 5.226l4.394 7.722h-2.964zm-6.968-9.828h3.9c2.08 0 3.484-1.222 3.484-3.12 0-1.95-1.404-3.198-3.484-3.198h-3.9v6.318zm26.312-6.24h-6.162v16.068h-2.548V6.756h-6.162V4.39h14.872v2.366zm3.38 6.838c0 4.81 3.224 7.28 6.656 7.28 3.432 0 6.656-2.47 6.656-7.28 0-4.81-3.224-7.254-6.656-7.254-3.432 0-6.656 2.444-6.656 7.254zm-2.6 0c0-6.162 4.628-9.594 9.256-9.594s9.256 3.432 9.256 9.594c0 6.162-4.628 9.62-9.256 9.62s-9.256-3.458-9.256-9.62zm-46.046 37.62c-4.758 0-9.152-3.458-9.152-9.62 0-6.162 4.576-9.594 9.152-9.594 4.212 0 7.176 2.288 8.112 5.85l-2.366.832c-.702-2.782-2.73-4.342-5.746-4.342-3.354 0-6.552 2.444-6.552 7.254s3.198 7.28 6.552 7.28c3.146 0 5.122-1.898 5.876-4.42l2.262.832c-.988 3.458-3.9 5.928-8.138 5.928zm12.688-9.62c0 4.81 3.224 7.28 6.656 7.28 3.432 0 6.656-2.47 6.656-7.28 0-4.81-3.224-7.254-6.656-7.254-3.432 0-6.656 2.444-6.656 7.254zm-2.6 0c0-6.162 4.628-9.594 9.256-9.594s9.256 3.432 9.256 9.594c0 6.162-4.628 9.62-9.256 9.62s-9.256-3.458-9.256-9.62zm41.938 9.23h-2.522V36.472l-6.292 14.352h-2.34l-6.24-14.352v14.352h-2.522V32.39h3.458l6.5 15.002 6.552-15.002h3.406v18.434zm24.596 0h-2.522V36.472l-6.292 14.352h-2.34l-6.24-14.352v14.352h-2.522V32.39h3.458l6.5 15.002 6.552-15.002h3.406v18.434zm15.886 0h-11.206V32.39h11.206v2.366h-8.658v5.668h7.852v2.392h-7.852v5.642h8.658v2.366zm13.442 0l-4.212-7.54h-2.756v7.54h-2.574V32.39h6.942c3.484 0 5.642 2.444 5.642 5.486 0 2.652-1.69 4.706-4.472 5.226l4.394 7.722h-2.964zm-6.968-9.828h3.9c2.08 0 3.484-1.222 3.484-3.12 0-1.95-1.404-3.198-3.484-3.198h-3.9v6.318zm21.372 10.218c-4.758 0-9.152-3.458-9.152-9.62 0-6.162 4.576-9.594 9.152-9.594 4.212 0 7.176 2.288 8.112 5.85l-2.366.832c-.702-2.782-2.73-4.342-5.746-4.342-3.354 0-6.552 2.444-6.552 7.254s3.198 7.28 6.552 7.28c3.146 0 5.122-1.898 5.876-4.42l2.262.832c-.988 3.458-3.9 5.928-8.138 5.928zm22.724-.39h-11.206V32.39h11.206v2.366h-8.658v5.668h7.852v2.392h-7.852v5.642h8.658v2.366z" fill-rule="nonzero"/><path opacity=".4" d="M26 0L13 30h13L39 0z"/><path d="M0 0l13 30h13L13 0z"/><path d="M60 33a5 5 0 0 1-5 5 5 5 0 0 1-5-5 5 5 0 0 1 5-5 5 5 0 0 1 5 5" opacity=".4"/><path d="M45.455 35.99H32.2C33.666 47.277 43.311 56 55 56V43c-4.482 0-8.274-2.949-9.545-7.01M32.201 30H45.46c1.274-4.057 5.063-7 9.541-7V10c-11.686 0-21.328 8.716-22.799 20"/></g></svg>