<svg width="1234" height="476" viewBox="0 0 1234 476" xmlns="http://www.w3.org/2000/svg"><title>Group 12</title><g fill="none" fill-rule="evenodd"><path d="M10.28 179.11h5.52c3.6 0 6.06-2.1 6.06-5.4 0-3.42-2.46-5.46-6.06-5.46h-5.52v10.86zm6.48 8.16h-6.54v15.3H.74v-42.54h16.02c8.64 0 14.58 5.7 14.58 13.62 0 8.04-5.94 13.62-14.58 13.62zm41.22 15.3l-7.62-15.84H47v15.84h-9.48v-42.54h16.86c8.4 0 13.8 5.76 13.8 13.32 0 5.76-3.18 10.14-8.4 12l8.64 17.22H57.98zm-10.98-24h5.58c3.9 0 6-2.16 6-5.16 0-3.18-2.1-5.16-6-5.16H47v10.32zm55.2 24h-27v-42.54h26.94v8.94H84.68v8.1h15.84v8.34H84.68v8.16h17.52v9zm15.36-21.3c0 8.88 6.36 12.84 12.3 12.84 5.88 0 12.24-3.96 12.24-12.84 0-8.88-6.36-12.9-12.24-12.9-5.94 0-12.3 4.02-12.3 12.9zm-9.84.06c0-13.5 10.14-22.2 22.14-22.2 11.94 0 22.08 8.7 22.08 22.2 0 13.44-10.14 22.14-22.08 22.14-12 0-22.14-8.7-22.14-22.14zm71.46 21.24l-7.62-15.84h-3.36v15.84h-9.48v-42.54h16.86c8.4 0 13.8 5.76 13.8 13.32 0 5.76-3.18 10.14-8.4 12l8.64 17.22h-10.44zm-10.98-24h5.58c3.9 0 6-2.16 6-5.16 0-3.18-2.1-5.16-6-5.16h-5.58v10.32zm37.68 15.06h5.52c6.54 0 11.88-3.78 11.88-12.3 0-8.52-5.34-12.36-11.88-12.36h-5.52v24.66zm5.88 8.94H196.4v-42.54h15.42c12.78 0 21.36 8.16 21.36 21.3s-8.58 21.24-21.42 21.24zm55.2 0h-27v-42.54h26.94v8.94h-17.46v8.1h15.84v8.34h-15.84v8.16h17.52v9zm28.44 0l-7.62-15.84h-3.36v15.84h-9.48v-42.54h16.86c8.4 0 13.8 5.76 13.8 13.32 0 5.76-3.18 10.14-8.4 12l8.64 17.22H295.4zm-10.98-24H290c3.9 0 6-2.16 6-5.16 0-3.18-2.1-5.16-6-5.16h-5.58v10.32zm-150.48 61.54h5.52c3.6 0 6.06-2.1 6.06-5.4 0-3.42-2.46-5.46-6.06-5.46h-5.52v10.86zm6.48 8.16h-6.54v15.3h-9.48v-42.54h16.02c8.64 0 14.58 5.7 14.58 13.62 0 8.04-5.94 13.62-14.58 13.62zm28.14-6c0 8.88 6.36 12.84 12.3 12.84 5.88 0 12.24-3.96 12.24-12.84 0-8.88-6.36-12.9-12.24-12.9-5.94 0-12.3 4.02-12.3 12.9zm-9.84.06c0-13.5 10.14-22.2 22.14-22.2 11.94 0 22.08 8.7 22.08 22.2 0 13.44-10.14 22.14-22.08 22.14-12 0-22.14-8.7-22.14-22.14zm60.6 21.24h-9.6v-42.54h9.6v42.54zm46.14 0h-10.02l-17.52-27.96v27.96h-9.42v-42.54h11.52l15.96 25.86v-25.86h9.48v42.54zm41.4-33.48h-13.14v33.48h-9.48v-33.48h-13.08v-9.06h35.7v9.06zm250.6-150.52h-27.84V37.03h9.48v33.48h18.36v9.06zm33.12 0h-27V37.03h26.94v8.94h-17.46v8.1h15.84v8.34h-15.84v8.16h17.52v9zm36.48 0L624 70.93h-16.44l-3.06 8.64h-9.96l16.02-42.54h10.98l15.84 42.54h-10.32zM615.9 47.59l-5.22 14.7H621l-5.1-14.7zm36.18 23.04h5.52c6.54 0 11.88-3.78 11.88-12.3 0-8.52-5.34-12.36-11.88-12.36h-5.52v24.66zm5.88 8.94H642.6V37.03h15.42c12.78 0 21.36 8.16 21.36 21.3s-8.58 21.24-21.42 21.24zm-96.12 30.52H548.7v33.48h-9.48v-33.48h-13.08v-9.06h35.7v9.06zm15.36 33.48h-9.6v-42.54h9.6v42.54zm57.36 0h-9.3v-28.2l-11.1 28.2h-7.68l-11.1-27.84v27.84h-9v-42.54h12.36l11.7 28.74 11.1-28.74h13.02v42.54zm36.24 0h-27v-42.54h26.94v8.94h-17.46v8.1h15.84v8.34h-15.84v8.16h17.52v9zm-112.68 170l-3.06-8.64h-16.44l-3.06 8.64h-9.96l16.02-42.54h10.98l15.84 42.54h-10.32zm-11.16-31.98l-5.22 14.7h10.32l-5.1-14.7zm43.38 19.38l10.14-29.94h10.08l-15.54 42.54h-9.78l-15.6-42.54h10.44l10.26 29.94zm52.44 12.6h-27v-42.54h26.94v8.94h-17.46v8.1h15.84v8.34h-15.84v8.16h17.52v9zm28.44 0l-7.62-15.84h-3.36v15.84h-9.48v-42.54h16.86c8.4 0 13.8 5.76 13.8 13.32 0 5.76-3.18 10.14-8.4 12l8.64 17.22h-10.44zm-10.98-24h5.58c3.9 0 6-2.16 6-5.16 0-3.18-2.1-5.16-6-5.16h-5.58v10.32zm56.7 24l-3.06-8.64h-16.44l-3.06 8.64h-9.96l16.02-42.54h10.98l15.84 42.54h-10.32zm-11.16-31.98l-5.22 14.7h10.32l-5.1-14.7zm66 31.98h-7.68l-.6-4.32c-1.86 2.7-5.88 5.22-11.94 5.22-11.82 0-21.54-8.7-21.54-22.14 0-13.38 10.14-22.2 22.14-22.2 12.18 0 17.82 7.2 19.68 13.14l-9.12 3.18c-.66-2.64-3.48-7.44-10.56-7.44-5.76 0-12.54 3.84-12.54 13.32 0 8.88 5.88 13.5 12.78 13.5 7.02 0 9.96-4.56 10.5-6.96h-12.78v-8.04h21.66v22.74zm34.98 0h-27v-42.54h26.94v8.94h-17.46v8.1h15.84v8.34h-15.84v8.16h17.52v9zM539.1 368.63h5.52c6.54 0 11.88-3.78 11.88-12.3 0-8.52-5.34-12.36-11.88-12.36h-5.52v24.66zm5.88 8.94h-15.36v-42.54h15.42c12.78 0 21.36 8.16 21.36 21.3s-8.58 21.24-21.42 21.24zm56.7 0l-3.06-8.64h-16.44l-3.06 8.64h-9.96l16.02-42.54h10.98L612 377.57h-10.32zm-11.16-31.98l-5.22 14.7h10.32l-5.1-14.7zm36.3 31.98h-9.6v-42.54h9.6v42.54zm37.02 0H636v-42.54h9.48v33.48h18.36v9.06zm16.86-17.76l-14.76-24.78h11.1l8.7 15.78 8.82-15.78h10.56l-14.94 24.78v17.76h-9.48v-17.76zm-134.58 82.72c-9.36 0-16.86-5.64-16.86-16.32v-27.18h9.48v26.4c0 5.16 2.88 7.74 7.38 7.74s7.38-2.58 7.38-7.74v-26.4h9.48v27.18c0 10.68-7.5 16.32-16.86 16.32zm55.02-33.06l-8.52 2.4c-.3-1.98-1.92-5.34-7.08-5.34-3.54 0-5.82 2.22-5.82 4.56 0 2.04 1.26 3.54 4.2 4.08l5.7 1.08c8.1 1.5 12.3 6.72 12.3 12.78 0 6.66-5.58 13.44-15.72 13.44-11.76 0-16.8-7.62-17.4-13.62l8.7-2.1c.36 3.9 3 7.32 8.82 7.32 3.72 0 6-1.8 6-4.44 0-2.16-1.74-3.72-4.56-4.26l-5.82-1.08c-7.2-1.38-11.58-6.18-11.58-12.48 0-8.04 7.08-13.68 15.24-13.68 10.62 0 14.64 6.36 15.54 11.34zm35.76 32.1l-3.06-8.64H617.4l-3.06 8.64h-9.96l16.02-42.54h10.98l15.84 42.54H636.9zm-11.16-31.98l-5.22 14.7h10.32l-5.1-14.7zm66 31.98h-7.68l-.6-4.32c-1.86 2.7-5.88 5.22-11.94 5.22-11.82 0-21.54-8.7-21.54-22.14 0-13.38 10.14-22.2 22.14-22.2 12.18 0 17.82 7.2 19.68 13.14l-9.12 3.18c-.66-2.64-3.48-7.44-10.56-7.44-5.76 0-12.54 3.84-12.54 13.32 0 8.88 5.88 13.5 12.78 13.5 7.02 0 9.96-4.56 10.5-6.96h-12.78v-8.04h21.66v22.74zm34.98 0h-27v-42.54h26.94v8.94H709.2v8.1h15.84v8.34H709.2v8.16h17.52v9zm313.18-272.1l-8.52 2.4c-.3-1.98-1.92-5.34-7.08-5.34-3.54 0-5.82 2.22-5.82 4.56 0 2.04 1.26 3.54 4.2 4.08l5.7 1.08c8.1 1.5 12.3 6.72 12.3 12.78 0 6.66-5.58 13.44-15.72 13.44-11.76 0-16.8-7.62-17.4-13.62l8.7-2.1c.36 3.9 3 7.32 8.82 7.32 3.72 0 6-1.8 6-4.44 0-2.16-1.74-3.72-4.56-4.26l-5.82-1.08c-7.2-1.38-11.58-6.18-11.58-12.48 0-8.04 7.08-13.68 15.24-13.68 10.62 0 14.64 6.36 15.54 11.34zm35.76 32.1l-3.06-8.64h-16.44l-3.06 8.64h-9.96l16.02-42.54h10.98l15.84 42.54h-10.32zm-11.16-31.98l-5.22 14.7h10.32l-5.1-14.7zm36.24 31.98h-9.54v-42.54h27.42v9h-17.94v9h15.78v8.64h-15.72v15.9zm51.54 0h-27v-42.54h26.94v8.94h-17.46v8.1h15.84v8.34h-15.84v8.16h17.52v9zm40.2-33.48h-13.14v33.48h-9.48v-33.48h-13.08v-9.06h35.7v9.06zm16.5 15.72l-14.76-24.78h11.1l8.7 15.78 8.82-15.78h10.56l-14.94 24.78v17.76h-9.48v-17.76zm-169.08 48.66l-8.52 2.4c-.3-1.98-1.92-5.34-7.08-5.34-3.54 0-5.82 2.22-5.82 4.56 0 2.04 1.26 3.54 4.2 4.08l5.7 1.08c8.1 1.5 12.3 6.72 12.3 12.78 0 6.66-5.58 13.44-15.72 13.44-11.76 0-16.8-7.62-17.4-13.62l8.7-2.1c.36 3.9 3 7.32 8.82 7.32 3.72 0 6-1.8 6-4.44 0-2.16-1.74-3.72-4.56-4.26l-5.82-1.08c-7.2-1.38-11.58-6.18-11.58-12.48 0-8.04 7.08-13.68 15.24-13.68 10.62 0 14.64 6.36 15.54 11.34zm39.48-1.38h-13.14v33.48h-9.48v-33.48h-13.08v-9.06h35.7v9.06zm13.14 12.18c0 8.88 6.36 12.84 12.3 12.84 5.88 0 12.24-3.96 12.24-12.84 0-8.88-6.36-12.9-12.24-12.9-5.94 0-12.3 4.02-12.3 12.9zm-9.84.06c0-13.5 10.14-22.2 22.14-22.2 11.94 0 22.08 8.7 22.08 22.2 0 13.44-10.14 22.14-22.08 22.14-12 0-22.14-8.7-22.14-22.14zm70.62 22.14c-12.24 0-22.08-8.82-22.08-22.08 0-13.26 10.08-22.26 21.96-22.26 12.78 0 18.42 8.22 19.8 14.34l-8.94 2.82c-.66-2.94-3.36-7.92-10.86-7.92-5.7 0-12.12 4.08-12.12 13.02 0 7.98 5.88 12.6 12.24 12.6 7.38 0 10.32-4.92 11.16-7.98l9.06 2.58c-1.38 5.88-7.02 14.88-20.22 14.88zm52.44-.9l-11.46-16.74-4.8 5.34v11.4H1180v-42.54h9.48v17.88l15.54-17.88h12.48l-16.56 18.42 16.62 24.12h-11.82z" fill="#0C1015" fill-rule="nonzero"/><path d="M905 212.07h50m-25-25v50m-566-38h40m-40 26h40" stroke="#979797" stroke-linecap="round" stroke-linejoin="round" stroke-width="11"/><path d="M473 11.5h35.5a5.5 5.5 0 0 0 0-11h-41A5.5 5.5 0 0 0 462 6v464.309a5.5 5.5 0 0 0 5.5 5.5h41a5.5 5.5 0 0 0 0-11H473V11.5zm373.5 453.309H811a5.5 5.5 0 0 0 0 11h41a5.5 5.5 0 0 0 5.5-5.5V6A5.5 5.5 0 0 0 852 .5h-41a5.5 5.5 0 0 0 0 11h35.5v453.309z" fill="#979797" fill-rule="nonzero"/><path d="M594.787 190.857l42.426 42.427m0-42.427l-42.426 42.427" stroke="#979797" stroke-linecap="round" stroke-linejoin="round" stroke-width="11"/></g></svg>