<svg width="470" height="250" viewBox="0 0 470 250" xmlns="http://www.w3.org/2000/svg"><title>Group 14</title><g fill="none"><path d="M295.148 238.415l-16.791-46.613a5.5 5.5 0 0 0-5.175-3.636H240.73a5.5 5.5 0 0 0 0 11h28.588l16.8 46.64a5.5 5.5 0 0 0 5.213 3.636l15.207-.106a5.5 5.5 0 0 0 5.462-5.5V11.5h145.5a5.5 5.5 0 0 0 0-11h-151A5.5 5.5 0 0 0 301 6v232.374l-5.852.04z" fill="#979797"/><path d="M27.09 157.941h-27v-42.54h26.94v8.94H9.57v8.1h15.84v8.34H9.57v8.16h17.52v9zm15.36-21.3c0 8.88 6.36 12.84 12.3 12.84 5.88 0 12.24-3.96 12.24-12.84 0-8.88-6.36-12.9-12.24-12.9-5.94 0-12.3 4.02-12.3 12.9zm-9.84.06c0-13.5 10.14-22.2 22.14-22.2 11.94 0 22.08 8.7 22.08 22.2 0 13.44-10.14 22.14-22.08 22.14-12 0-22.14-8.7-22.14-22.14zm48.54 0c0-13.5 10.14-22.2 22.14-22.2 11.94 0 22.08 8.7 22.08 22.2 0 5.7-1.8 10.5-4.8 14.16l5.22 5.7-6.24 5.28-5.22-5.76c-3.24 1.8-7.08 2.76-11.04 2.76-12 0-22.14-8.7-22.14-22.14zm9.84-.06c0 8.88 6.36 12.84 12.3 12.84 1.44 0 2.88-.24 4.32-.72l-6.24-6.84 6.3-5.28 6.24 6.84c1.02-1.86 1.62-4.08 1.62-6.84 0-8.88-6.36-12.9-12.24-12.9-5.94 0-12.3 4.02-12.3 12.9zm265.65-64.04l-8.88-.06c-.18-.48-.36-2.04-.36-3.24 0-6.96 5.22-13.2 14.58-13.2 8.94 0 14.46 5.82 14.46 12.78 0 5.04-2.7 9.18-7.68 12.12l-7.38 4.38c-1.14.72-2.1 1.5-2.64 2.64h18v7.92h-29.58c0-7.14 2.04-13.02 9.18-17.16l6.36-3.72c3.06-1.8 4.26-3.42 4.26-6 0-2.46-1.74-4.62-5.22-4.62-3.66 0-5.46 2.52-5.46 5.76 0 .78.12 1.62.36 2.4z" fill="#0C1015"/><path d="M392.46 87.001h5.52c6.54 0 11.88-3.78 11.88-12.3 0-8.52-5.34-12.36-11.88-12.36h-5.52v24.66zm5.88 8.94h-15.36v-42.54h15.42c12.78 0 21.36 8.16 21.36 21.3s-8.58 21.24-21.42 21.24zm53.94 0l-11.46-16.74-4.8 5.34v11.4h-9.48v-42.54h9.48v17.88l15.54-17.88h12.48l-16.56 18.42 16.62 24.12h-11.82z" fill="#F89407"/><path d="M344.5 143.441h120a5.5 5.5 0 0 0 0-11h-120a5.5 5.5 0 0 0 0 11z" fill="#979797"/><path fill="#F89407" d="M423.53 219.941h-9.54v-16.92h-16.98v16.92h-9.48v-42.54h9.48v16.68h16.98v-16.68h9.54z"/></g></svg>