<svg width="40" height="40" viewBox="0 0 40 40" xmlns="http://www.w3.org/2000/svg"><title>Group 4</title><g fill="none" fill-rule="evenodd"><path fill="#FFF" d="M0 40h40V0H0z"/><path d="M13.775 14.375C13.775 7.812 19.1 2.5 25.65 2.5c.5 0 1 .025 1.488.087 1 .125 1.687.825 1.912 1.65.225.813 0 1.726-.65 2.363l-4.137 4.101a3.428 3.428 0 0 0-.013 4.874 3.448 3.448 0 0 0 4.863 0l4.262-4.275c.65-.638 1.538-.863 2.337-.65a2.271 2.271 0 0 1 1.675 1.85c.088.613.138 1.238.138 1.875 0 6.563-5.313 11.875-11.875 11.875-.837 0-1.662-.087-2.45-.25l-9.6 9.6a6.51 6.51 0 0 1-9.2 0 6.51 6.51 0 0 1 0-9.2l9.625-9.612a11.879 11.879 0 0 1-.25-2.413M25.65 5c-5.175 0-9.375 4.2-9.375 9.375 0 .85.125 1.688.338 2.475l.187.688L6.175 28.175a3.993 3.993 0 0 0 0 5.651 3.991 3.991 0 0 0 5.65 0l10.613-10.614.7.2c.8.226 1.65.338 2.512.338a9.37 9.37 0 0 0 9.375-9.375c0-.375-.012-.75-.063-1.125l-4.087 4.087c-2.313 2.326-6.075 2.326-8.4 0a5.934 5.934 0 0 1 .025-8.412l3.938-3.888A8.302 8.302 0 0 0 25.65 5" fill="#000"/></g></svg>