<svg width="40" height="40" viewBox="0 0 40 40" xmlns="http://www.w3.org/2000/svg"><title>Group 9</title><g fill="none" fill-rule="evenodd"><path fill="#FFF" d="M0 40h40V0H0z"/><g fill="#000"><path d="M20.025 26.25h-.05a1.249 1.249 0 0 0-1.225 1.25c0 .688.563 1.25 1.25 1.25.688 0 1.25-.563 1.25-1.25 0-.688-.55-1.238-1.225-1.25m1.688-2.087l3.187-7.425c.275-.625-.025-1.363-.662-1.638-.625-.275-1.363.025-1.638.662l-3.463 8.088a3.741 3.741 0 0 0-2.887 3.65A3.745 3.745 0 0 0 20 31.25a3.745 3.745 0 0 0 3.75-3.75c0-1.45-.825-2.712-2.038-3.337"/><path d="M20 11.25A8.744 8.744 0 0 0 11.25 20c0 .688-.563 1.25-1.25 1.25-.688 0-1.25-.563-1.25-1.25 0-6.213 5.037-11.25 11.25-11.25 6.212 0 11.25 5.037 11.25 11.25 0 .688-.563 1.25-1.25 1.25-.688 0-1.25-.563-1.25-1.25A8.744 8.744 0 0 0 20 11.25"/><path d="M5 20c0-8.287 6.713-15 15-15 8.288 0 15 6.713 15 15 0 8.288-6.712 15-15 15-8.287 0-15-6.712-15-15M20 2.5C10.338 2.5 2.5 10.338 2.5 20c0 9.663 7.838 17.5 17.5 17.5 9.663 0 17.5-7.837 17.5-17.5 0-9.662-7.837-17.5-17.5-17.5"/></g></g></svg>