<svg width="139" height="40" viewBox="0 0 139 40" xmlns="http://www.w3.org/2000/svg"><title>Group 9</title><g fill="none" fill-rule="evenodd"><path fill="#C3C3C3" d="M18 0L9 20h9l9-20z"/><path fill="#DB3A35" d="M0 0l9 20h9L9 0zm40 24a3 3 0 1 1-6 0 3 3 0 0 1 6 0"/><path d="M30.23 26H21c1.1 7.857 7.854 13.923 16 13.923v-9.031c-3.149 0-5.823-2.054-6.77-4.892m0-4c.947-2.854 3.621-4.919 6.77-4.919V8c-8.146 0-14.9 6.1-16 14h9.23z" fill="#F89406"/><path d="M56.705 9.321L60.51.161h.899l-4.528 10.768h-.338L52 .16h.9l3.805 9.16zM63.61.161h.835v10.607h-.835V.16zm8.35 5.785l3.58 4.822h-.98L70.997 6.01h-2.585v4.757h-.835V.16h3.597c.98 0 1.766.273 2.344.82.578.546.867 1.237.867 2.089 0 1.478-.899 2.603-2.424 2.876zm-.82-5.03h-2.73v4.34h2.73c1.526 0 2.377-.885 2.377-2.17 0-1.286-.85-2.17-2.376-2.17zm4.706-.755h8.59v.755H80.55v9.852h-.835V.916h-3.87V.161zM90.65 0c1.509 0 2.794.53 3.853 1.575 1.06 1.045 1.59 2.346 1.59 3.89 0 1.526-.53 2.828-1.59 3.889-1.06 1.044-2.344 1.575-3.853 1.575-1.526 0-2.81-.53-3.854-1.575-1.044-1.061-1.574-2.363-1.574-3.89 0-1.543.53-2.844 1.574-3.889S89.125 0 90.65 0zm.016.771c-1.301 0-2.393.45-3.26 1.35-.867.884-1.3 1.993-1.3 3.327 0 1.334.433 2.443 1.3 3.343.867.9 1.959 1.35 3.26 1.35 1.3 0 2.376-.45 3.243-1.35.867-.9 1.301-2.009 1.301-3.343 0-1.318-.434-2.427-1.317-3.327-.867-.9-1.943-1.35-3.227-1.35zm-33.015 15.3c1.783 0 3.34.82 4.288 2.154l-.627.498c-.883-1.253-2.103-1.88-3.645-1.88-1.3 0-2.376.45-3.26 1.35-.866.884-1.3 1.993-1.3 3.327 0 1.334.434 2.459 1.3 3.359.868.883 1.96 1.333 3.26 1.333 1.558 0 2.762-.626 3.645-1.864l.627.498C60.992 26.18 59.435 27 57.652 27c-1.525 0-2.81-.53-3.854-1.575-1.043-1.045-1.573-2.346-1.573-3.89 0-1.542.53-2.844 1.573-3.889 1.044-1.044 2.329-1.575 3.854-1.575zm11.353 0c1.51 0 2.794.53 3.854 1.575s1.59 2.347 1.59 3.89c0 1.526-.53 2.828-1.59 3.889C71.799 26.47 70.514 27 69.005 27c-1.525 0-2.81-.53-3.854-1.575-1.044-1.06-1.573-2.363-1.573-3.89 0-1.542.53-2.844 1.573-3.889 1.044-1.044 2.329-1.575 3.854-1.575zm.016.772c-1.3 0-2.393.45-3.26 1.35-.867.884-1.3 1.993-1.3 3.327 0 1.334.433 2.442 1.3 3.343.867.9 1.96 1.35 3.26 1.35 1.3 0 2.377-.45 3.244-1.35.867-.9 1.3-2.01 1.3-3.343 0-1.318-.433-2.427-1.316-3.327-.867-.9-1.943-1.35-3.228-1.35zm12.573 5.544l4.416-6.316h.321V26.84h-.835v-8.63l-3.725 5.32h-.321l-3.742-5.32v8.63h-.835V16.071h.321l4.4 6.316zm12.605 0l4.416-6.316h.321V26.84H98.1v-8.63l-3.725 5.32h-.321l-3.742-5.32v8.63h-.835V16.071h.322l4.4 6.316zm7.885-6.155h6.631v.756h-5.796v3.744h4.512v.756h-4.512v4.596h5.99v.755h-6.825V16.232zm13.424 5.786l3.58 4.821h-.979l-3.565-4.757h-2.585v4.757h-.835V16.232h3.597c.98 0 1.766.273 2.344.82.578.546.867 1.237.867 2.09 0 1.478-.899 2.603-2.424 2.876zm-.82-5.03h-2.729v4.339h2.73c1.525 0 2.376-.884 2.376-2.17s-.85-2.17-2.376-2.17zm10.76-.917c1.782 0 3.34.82 4.287 2.154l-.626.498c-.884-1.253-2.104-1.88-3.646-1.88-1.3 0-2.376.45-3.26 1.35-.866.884-1.3 1.993-1.3 3.327 0 1.334.434 2.459 1.3 3.359.868.883 1.96 1.333 3.26 1.333 1.558 0 2.762-.626 3.646-1.864l.626.498C128.787 26.18 127.23 27 125.447 27c-1.525 0-2.81-.53-3.853-1.575-1.044-1.045-1.574-2.346-1.574-3.89 0-1.542.53-2.844 1.574-3.889 1.043-1.044 2.328-1.575 3.853-1.575zm6.728.161h6.631v.756h-5.796v3.744h4.512v.756h-4.512v4.596H139v.755h-6.824V16.232z" fill="#FFF"/></g></svg>