<svg width="176" height="176" viewBox="0 0 176 176" fill="none" xmlns="http://www.w3.org/2000/svg"><path d="M4 8a4 4 0 1 0 0-8 4 4 0 0 0 0 8z" fill="#FDAF3C"/><path d="M28 8a4 4 0 1 0 0-8 4 4 0 0 0 0 8z" fill="#CFCFCF"/><path d="M52 8a4 4 0 1 0 0-8 4 4 0 0 0 0 8z" fill="#FF543B"/><path d="M4 32a4 4 0 1 0 0-8 4 4 0 0 0 0 8z" fill="#CFCFCF"/><path d="M28 32a4 4 0 1 0 0-8 4 4 0 0 0 0 8zm24 0a4 4 0 1 0 0-8 4 4 0 0 0 0 8z" fill="#FDAF3C"/><path d="M4 56a4 4 0 1 0 0-8 4 4 0 0 0 0 8z" fill="#CFCFCF"/><path d="M28 56a4 4 0 1 0 0-8 4 4 0 0 0 0 8z" fill="#FF543B"/><path d="M52 56a4 4 0 1 0 0-8 4 4 0 0 0 0 8zM4 80a4 4 0 1 0 0-8 4 4 0 0 0 0 8z" fill="#CFCFCF"/><path d="M28 80a4 4 0 1 0 0-8 4 4 0 0 0 0 8z" fill="#FDAF3C"/><path d="M52 80a4 4 0 1 0 0-8 4 4 0 0 0 0 8z" fill="#CFCFCF"/><path d="M4 104a4 4 0 1 0 0-8 4 4 0 0 0 0 8z" fill="#FF543B"/><path d="M28 104a4 4 0 1 0 0-8 4 4 0 0 0 0 8z" fill="#CFCFCF"/><path d="M52 104a4 4 0 1 0 0-8 4 4 0 0 0 0 8z" fill="#FF543B"/><path d="M4 128a4 4 0 1 0 0-8 4 4 0 0 0 0 8z" fill="#FDAF3C"/><path d="M28 128a4 4 0 1 0 0-8 4 4 0 0 0 0 8z" fill="#FF543B"/><path d="M52 128a4 4 0 1 0 0-8 4 4 0 0 0 0 8zm24 0a4 4 0 1 0 0-8 4 4 0 0 0 0 8zm24 0a4 4 0 1 0 0-8 4 4 0 0 0 0 8z" fill="#CFCFCF"/><path d="M124 128a4 4 0 1 0 0-8 4 4 0 0 0 0 8z" fill="#FDAF3C"/><path d="M148 128a4 4 0 1 0 0-8 4 4 0 0 0 0 8z" fill="#FF543B"/><path d="M172 128a4 4 0 1 0 0-8 4 4 0 0 0 0 8zM4 152a4 4 0 1 0 0-8 4 4 0 0 0 0 8z" fill="#FDAF3C"/><path d="M28 152a4 4 0 1 0 0-8 4 4 0 0 0 0 8z" fill="#CFCFCF"/><path d="M52 152a4 4 0 1 0 0-8 4 4 0 0 0 0 8z" fill="#FF543B"/><path d="M76 152a4 4 0 1 0 0-8 4 4 0 0 0 0 8z" fill="#CFCFCF"/><path d="M100 152a4 4 0 1 0 0-8 4 4 0 0 0 0 8zm24 0a4 4 0 1 0 0-8 4 4 0 0 0 0 8z" fill="#FF543B"/><path d="M148 152a4 4 0 1 0 0-8 4 4 0 0 0 0 8z" fill="#CFCFCF"/><path d="M172 152a4 4 0 1 0 0-8 4 4 0 0 0 0 8z" fill="#FDAF3C"/><path d="M4 176a4 4 0 1 0 0-8 4 4 0 0 0 0 8z" fill="#CFCFCF"/><path d="M28 176a4 4 0 1 0 0-8 4 4 0 0 0 0 8z" fill="#FF543B"/><path d="M52 176a4 4 0 1 0 0-8 4 4 0 0 0 0 8z" fill="#CFCFCF"/><path d="M76 176a4 4 0 1 0 0-8 4 4 0 0 0 0 8zm24 0a4 4 0 1 0 0-8 4 4 0 0 0 0 8z" fill="#FDAF3C"/><path d="M124 176a4 4 0 1 0 0-8 4 4 0 0 0 0 8z" fill="#CFCFCF"/><path d="M148 176a4 4 0 1 0 0-8 4 4 0 0 0 0 8zm24 0a4 4 0 1 0 0-8 4 4 0 0 0 0 8z" fill="#FF543B"/></svg>