<svg width="200" height="296" viewBox="0 0 200 296" xmlns="http://www.w3.org/2000/svg" xmlns:xlink="http://www.w3.org/1999/xlink"><title>Group 33</title><defs><path id="a" d="M0 0h280v347H0z"/><path id="c" d="M.318.886h19.518v18.663H.318z"/></defs><g transform="translate(-80)" fill="none" fill-rule="evenodd"><mask id="b" fill="#fff"><use xlink:href="#a"/></mask><g mask="url(#b)"><g fill="#FDD1BE"><path d="M224.049 104.354a2.822 2.822 0 0 1-2.82-2.82V79.936a2.822 2.822 0 0 1 5.64 0v21.598a2.822 2.822 0 0 1-2.82 2.82"/><path d="M234.848 93.556H213.25a2.82 2.82 0 1 1 0-5.64h21.598a2.822 2.822 0 0 1 0 5.64"/></g><g transform="translate(189)"><mask id="d" fill="#fff"><use xlink:href="#c"/></mask><path d="M6.03 8.007l1.735 6.08 6.36-1.66-1.736-6.081-6.36 1.661zM5.968 19.55c-1.128 0-2.16-.716-2.47-1.807L.409 6.935a2.363 2.363 0 0 1 .245-1.86 2.56 2.56 0 0 1 1.552-1.152L13.508.97c1.372-.353 2.778.413 3.148 1.719l3.088 10.81c.18.627.09 1.296-.244 1.86-.339.565-.896.98-1.552 1.15L6.646 19.462a2.7 2.7 0 0 1-.678.086z" fill="#9FC3FD" mask="url(#d)"/></g><path d="M258.5 281.638a3.865 3.865 0 0 0-3.862 3.86 3.866 3.866 0 0 0 3.862 3.864 3.866 3.866 0 0 0 3.862-3.863 3.865 3.865 0 0 0-3.862-3.86m0 14.361c-5.79 0-10.5-4.71-10.5-10.501 0-5.789 4.71-10.499 10.5-10.499s10.5 4.71 10.5 10.499c0 5.79-4.71 10.501-10.5 10.501m-127.784-59a2.92 2.92 0 0 1-.35-.019c-2.651-.282-4.98-1.58-6.56-3.651-1.732-2.274-2.418-5.292-1.93-8.497l.354-2.35c.256-1.702-.14-3.122-1.091-3.897-.952-.775-2.404-.865-3.996-.25l-2.196.851c-3.778 1.466-7.698.985-10.475-1.281-2.781-2.267-4.076-6.037-3.463-10.082l.355-2.345c.256-1.702-.142-3.122-1.091-3.894-.952-.777-2.411-.868-3.999-.25l-2.182.846c-3.778 1.464-7.696.988-10.48-1.279-2.78-2.266-4.075-6.036-3.462-10.081.274-1.816 1.932-3.06 3.746-2.782 1.793.277 3.028 1.973 2.752 3.788-.257 1.702.141 3.122 1.09 3.897.954.775 2.409.867 3.999.25l2.182-.849c3.78-1.464 7.696-.988 10.48 1.281 2.783 2.267 4.076 6.034 3.465 10.082l-.355 2.345c-.258 1.702.14 3.12 1.09 3.895.948.774 2.408.864 3.995.25l2.196-.852c3.776-1.461 7.694-.985 10.475 1.281 2.784 2.27 4.076 6.037 3.465 10.082l-.354 2.35c-.213 1.394.013 2.613.638 3.43.48.628 1.185 1.008 2.042 1.1 1.805.192 3.116 1.83 2.926 3.654-.179 1.71-1.606 2.977-3.266 2.977" fill="#D5BEFD"/><path d="M255.207 210a2.218 2.218 0 0 1-2.203-2.363c.118-1.881.947-3.565 2.335-4.743 1.524-1.294 3.6-1.872 5.849-1.623l1.68.187c1.273.144 2.319-.217 2.873-.971.556-.757.58-1.87.074-3.053l-.672-1.562c-1.131-2.638-.921-5.425.57-7.46 1.487-2.035 4.064-3.057 6.902-2.752l1.676.186c1.261.14 2.319-.211 2.87-.97.555-.757.582-1.87.072-3.055l-.667-1.555c-1.134-2.636-.922-5.425.568-7.46 1.489-2.035 4.064-3.06 6.901-2.752a2.22 2.22 0 0 1 1.951 2.451 2.195 2.195 0 0 1-2.433 1.97c-1.266-.144-2.316.212-2.873.969-.552.756-.58 1.87-.069 3.054l.667 1.556c1.134 2.635.922 5.425-.568 7.462-1.491 2.037-4.084 3.057-6.901 2.75l-1.677-.184c-1.263-.145-2.32.211-2.872.968-.554.76-.58 1.872-.072 3.055l.672 1.56c1.132 2.638.92 5.425-.568 7.46-1.494 2.037-4.087 3.057-6.904 2.752l-1.68-.187c-1.03-.114-1.933.1-2.531.606-.462.393-.73.954-.772 1.618a2.213 2.213 0 0 1-2.198 2.086" fill="#FEDFD2"/></g></g></svg>