<svg width="26" height="24" viewBox="0 0 26 24" fill="none" xmlns="http://www.w3.org/2000/svg"><path fill-rule="evenodd" clip-rule="evenodd" d="M11.143 0L5.57 12.857h5.572L16.713 0h-5.57z" fill="#000" fill-opacity=".3"/><path fill-rule="evenodd" clip-rule="evenodd" d="M0 0l5.571 12.857h5.572L5.57 0H0z" fill="#000"/><path fill-rule="evenodd" clip-rule="evenodd" d="M25.713 14.143a2.142 2.142 0 1 1-4.284 0 2.142 2.142 0 0 1 4.285 0z" fill="#000" fill-opacity=".3"/><path fill-rule="evenodd" clip-rule="evenodd" d="M19.48 15.424H13.8C14.428 20.262 18.56 24 23.57 24v-5.572a4.288 4.288 0 0 1-4.09-3.004zm-5.68-2.566h5.682c.546-1.739 2.17-3 4.089-3V4.287c-5.008 0-9.14 3.735-9.77 8.57z" fill="#000"/></svg>