<?xml version="1.0" encoding="UTF-8"?>
<svg width="173px" height="30px" viewBox="0 0 173 30" version="1.1" xmlns="http://www.w3.org/2000/svg" xmlns:xlink="http://www.w3.org/1999/xlink">
    <!-- Generator: Sketch 52.6 (67491) - http://www.bohemiancoding.com/sketch -->
    <title>Group 13</title>
    <desc>Created with Sketch.</desc>
    <g id="Page-2" stroke="none" stroke-width="1" fill="none" fill-rule="evenodd">
        <g id="Index-page" transform="translate(-527.000000, -1187.000000)" fill="#72778E">
            <g id="Group-13" transform="translate(527.000000, 1187.000000)">
                <path d="M68.1010135,16.9702703 C68.1010135,18.0121622 67.6510135,18.3222973 65.9625,18.9121622 C64.610473,19.4199324 63.5695946,19.6449324 63.2594595,19.6449324 C62.6959459,19.6449324 62.4435811,19.2222973 62.4435811,18.3496622 C62.4435811,16.2668919 63.0334459,13.7331081 65.2297297,13.7331081 C67.2567568,13.7331081 68.1010135,15.9293919 68.1010135,16.9702703 Z M46.1412162,26.0635135 C46.1412162,25.8942568 46.1148649,25.7827703 46.0307432,25.6976351 C45.8047297,25.4716216 44.960473,25.3317568 44.5378378,24.9091216 C44.2297297,24.5989865 44.0310811,24.0648649 44.0310811,22.8263514 L44.0310811,18.0679054 C44.0310811,17.7010135 44.1162162,17.477027 44.4820946,17.477027 L49.3246622,17.477027 C49.6905405,17.477027 49.7746622,17.7010135 49.7746622,18.0679054 L49.7746622,22.8263514 C49.7746622,24.0648649 49.5780405,24.5989865 49.2679054,24.9091216 C48.8452703,25.3317568 48.0010135,25.4716216 47.7760135,25.6976351 C47.6908784,25.7827703 47.6635135,25.8942568 47.6635135,26.0635135 C47.6635135,26.7942568 47.7760135,27.5280405 47.8885135,27.639527 C48.0010135,27.7530405 48.1702703,27.7804054 48.5361486,27.7804054 L56.4466216,27.7804054 C56.8125,27.7804054 56.9807432,27.7530811 57.0942568,27.639527 C57.2067568,27.5280405 57.3202703,26.7942568 57.3202703,26.0635135 C57.3202703,25.8942568 57.2909189,25.7827703 57.2067568,25.6976351 C57.0101351,25.5010135 56.1364865,25.3317568 55.7138514,24.9091216 C55.4057432,24.5989865 55.2364865,24.0081081 55.2364865,23.0503378 L55.2364865,9.90405405 C55.2364865,9.22905405 55.4057432,8.77702703 55.6581081,8.52567568 C56.1091216,8.07466216 57.0101351,7.98952703 57.2067568,7.79189189 C57.2908784,7.70777027 57.3202703,7.53952703 57.3202703,7.39864865 C57.3202703,6.89189189 57.2067568,6.13175676 57.0942568,6.01925676 C56.9807432,5.90675676 56.8692568,5.87736486 56.4466216,5.87736486 L48.8168919,5.87736486 C48.5077703,5.87736486 48.3952703,5.90671622 48.3111486,5.99189189 C48.227027,6.07601351 48.1418919,6.66689189 48.1418919,7.42702703 C48.1418919,7.56689189 48.1702703,7.73614865 48.227027,7.79189189 C48.3668919,7.93378378 49.0712838,8.15878378 49.3530405,8.44054054 C49.6621622,8.75067568 49.7746622,9.08817568 49.7746622,10.0449324 L49.7746622,13.7888514 C49.7746622,13.9297297 49.6337838,14.1263514 49.4371622,14.1263514 L44.3695946,14.1263514 C44.1719595,14.1263514 44.0310811,13.9297297 44.0310811,13.7888514 L44.0310811,10.0449324 C44.0310811,9.08817568 44.1435811,8.75067568 44.4537162,8.44054054 C44.735473,8.15878378 45.4388514,7.93378378 45.5797297,7.79189189 C45.6364865,7.73610811 45.6648649,7.56689189 45.6648649,7.42702703 C45.6648649,6.66689189 45.5797297,6.07601351 45.4956081,5.99189189 C45.4114865,5.90675676 45.297973,5.87736486 44.9888514,5.87736486 L37.3601351,5.87736486 C36.9375,5.87736486 36.825,5.90671622 36.7114865,6.01925676 C36.6,6.13175676 36.4864865,6.89189189 36.4864865,7.39864865 C36.4864865,7.53952703 36.5148649,7.70777027 36.6,7.79189189 C36.7966216,7.98952703 37.6976351,8.07466216 38.1476351,8.52567568 C38.4010135,8.77702703 38.5702703,9.22905405 38.5702703,9.90405405 L38.5702703,23.0503378 C38.5702703,24.0081081 38.4010135,24.5989865 38.0918919,24.9091216 C37.6692568,25.3317568 36.7966216,25.5010135 36.6,25.6976351 C36.5148649,25.7827703 36.4864865,25.8942568 36.4864865,26.0635135 C36.4864865,26.7942568 36.6,27.5280405 36.7114865,27.639527 C36.825,27.7530405 36.9375,27.7804054 37.3601351,27.7804054 L45.2706081,27.7804054 C45.6364865,27.7804054 45.8047297,27.7530811 45.9182432,27.639527 C46.0307432,27.5280405 46.1412162,26.7942568 46.1412162,26.0635135 Z M72.2959459,25.6692568 C73.1118243,24.8533784 73.310473,24.3739865 73.310473,23.9797297 C73.310473,23.5570946 73.1969595,23.2195946 72.8594595,22.8820946 C72.4925676,22.5162162 72.1844595,22.4594595 71.9016892,22.4594595 C71.5074324,22.4594595 71.3381757,22.5719595 71.0858108,22.8263514 C69.8472973,24.0648649 68.2702703,24.7398649 66.3557432,24.7398649 C64.4138514,24.7398649 63.2027027,23.4456081 63.2027027,22.6277027 C63.2027027,22.4037162 63.4003378,22.2060811 63.9060811,22.0652027 C69.3121622,20.3756757 71.5641892,19.2506757 72.4084459,18.4054054 C72.8868243,17.9554054 73.0834459,17.4202703 73.0834459,16.9418919 C73.0834459,14.8023649 69.9881757,11.0027027 65.2297297,11.0027027 C63.2594595,11.0027027 61.2608108,11.7891892 59.7689189,13.2820946 C58.277027,14.775 57.3476351,16.8851351 57.3476351,19.7574324 C57.3476351,22.5162162 58.2202703,24.4307432 59.7405405,25.9510135 C61.2608108,27.4712838 63.4560811,28.2314189 65.85,28.2314189 C68.2986486,28.2314189 70.6074324,27.3587838 72.2959459,25.6692568 Z M81.1074324,11.9584459 C81.1074324,11.5935811 80.9097973,11.4516892 80.6006757,11.4516892 L75.1672297,11.4516892 C74.8570946,11.4516892 74.7456081,11.4516892 74.6594595,11.5652027 C74.547973,11.6777027 74.4364865,12.4378378 74.4364865,12.9456081 C74.4364865,13.085473 74.4922703,13.1969595 74.547973,13.2820946 C74.7456081,13.535473 75.1672297,13.6195946 75.5341216,13.9297297 C75.7864865,14.1831081 75.9,14.7182432 75.9,15.5341216 L75.9,23.0503378 C75.9,24.0081081 75.7864865,24.6273649 75.5047297,24.9091216 C75.0820946,25.3317568 74.3787162,25.5283784 74.1820946,25.725 C74.1263108,25.7827297 74.097973,25.8942568 74.097973,26.0918919 C74.097973,26.8236486 74.210473,27.5280405 74.322973,27.639527 C74.4081081,27.7236486 74.547973,27.7804054 74.8570946,27.7804054 L82.0935811,27.7804054 C82.4027027,27.7804054 82.5435811,27.7236486 82.6277027,27.639527 C82.7402027,27.5280405 82.8243243,26.8236486 82.8243243,26.0918919 C82.8243243,25.8942568 82.797,25.7827703 82.7402027,25.725 C82.5435811,25.5283784 81.8959459,25.3317568 81.4733108,24.9091216 C81.1925676,24.6273649 81.1074324,24.0081081 81.1074324,23.0503378 L81.1074324,11.9584459 Z M78.0952703,4.86486486 C76.5476351,4.86486486 75.2797297,6.07601351 75.2797297,7.59628378 C75.2797297,9.14391892 76.5476351,10.3550676 78.0952703,10.3550676 C79.6722973,10.3550676 80.9391892,9.14391892 80.9391892,7.59628378 C80.9391892,6.07601351 79.6722973,4.86486486 78.0952703,4.86486486 Z M99.9131757,15.8158784 C99.9131757,12.6628378 98.2804054,11.0584459 95.7182432,11.0584459 C94.5070946,11.0584459 93.2128378,11.4516892 91.9175676,12.2412162 C91.4675676,12.522973 91.3266892,12.6070946 91.2141892,12.6070946 C90.7631757,12.6070946 91.0733108,11.4516892 90.2564189,11.4516892 L85.3023649,11.4516892 C84.9922297,11.4516892 84.9081081,11.4516892 84.7956081,11.5652027 C84.6547297,11.7060811 84.5422297,12.4378378 84.5422297,12.9456081 C84.5422297,13.085473 84.5706081,13.1969595 84.6547297,13.2820946 C84.8797297,13.5081081 85.3023649,13.5922297 85.6398649,13.9297297 C85.8942568,14.1831081 86.0047297,14.7182432 86.0047297,15.5341216 L86.0047297,23.0503378 C86.0047297,24.0081081 85.9206081,24.6273649 85.6398649,24.9091216 C85.2456081,25.3023649 84.5706081,25.5283784 84.372973,25.725 C84.3172703,25.7827297 84.2878378,25.8942568 84.2878378,26.0918919 C84.2878378,26.8236486 84.372973,27.5280405 84.4864865,27.639527 C84.5706081,27.7236486 84.7388514,27.7804054 85.0489865,27.7804054 L92.1435811,27.7804054 C92.4810811,27.7804054 92.5925676,27.7236486 92.6766892,27.639527 C92.8185811,27.4986486 92.9320946,26.8236486 92.9320946,26.0918919 C92.9320946,25.8942568 92.9027432,25.7827703 92.8459459,25.725 C92.6219595,25.5010135 91.9743243,25.3023649 91.5800676,24.9091216 C91.2983108,24.6273649 91.1584459,24.0081081 91.1584459,23.0503378 L91.1584459,17.5054054 C91.1584459,15.225 92.4233108,14.5216216 93.3537162,14.5216216 C94.310473,14.5216216 94.8456081,15.225 94.8456081,16.7158784 L94.8456081,24.5158784 C94.8456081,26.5986486 96.1692568,27.977027 98.5621622,27.977027 C101.207432,27.977027 102.333446,26.0635135 102.333446,25.6692568 C102.333446,25.3317568 101.799324,24.6557432 101.461824,24.6557432 C101.066554,24.6557432 100.504054,25.1625 100.222297,25.1625 C100.025676,25.1625 99.9131757,25.0216216 99.9131757,24.5716216 L99.9131757,15.8158784 Z M152.078716,25.6692568 C152.894595,24.8533784 153.091216,24.3739865 153.091216,23.9797297 C153.091216,23.5570946 152.97973,23.2195946 152.64223,22.8820946 C152.275338,22.5162162 151.964189,22.4594595 151.684459,22.4594595 C151.290203,22.4594595 151.120946,22.5719595 150.867568,22.8263514 C149.629054,24.0648649 148.053041,24.7398649 146.138514,24.7398649 C144.196622,24.7398649 142.985473,23.4456081 142.985473,22.6277027 C142.985473,22.4037162 143.182095,22.2060811 143.688851,22.0652027 C149.093919,20.3756757 151.345946,19.2506757 152.191216,18.4054054 C152.669595,17.9554054 152.866216,17.4202703 152.866216,16.9418919 C152.866216,14.8023649 149.769932,11.0027027 145.0125,11.0027027 C143.040203,11.0027027 141.042568,11.7891892 139.549662,13.2820946 C138.058784,14.775 137.129392,16.8851351 137.129392,19.7574324 C137.129392,22.5162162 138.002027,24.4307432 139.522297,25.9510135 C141.042568,27.4712838 143.238851,28.2314189 145.630743,28.2314189 C148.080405,28.2314189 150.390203,27.3587838 152.078716,25.6692568 Z M147.883784,16.9702703 C147.883784,18.0121622 147.433784,18.3222973 145.744257,18.9121622 C144.393243,19.4199324 143.351351,19.6449324 143.040203,19.6449324 C142.478716,19.6449324 142.224324,19.2222973 142.224324,18.3496622 C142.224324,16.2668919 142.816216,13.7331081 145.0125,13.7331081 C147.038514,13.7331081 147.883784,15.9293919 147.883784,16.9702703 Z M117.479392,25.6692568 C118.29527,24.8533784 118.493919,24.3739865 118.493919,23.9797297 C118.493919,23.5570946 118.380405,23.2195946 118.042905,22.8820946 C117.677027,22.5162162 117.367905,22.4594595 117.086149,22.4594595 C116.689865,22.4594595 116.522635,22.5719595 116.269257,22.8263514 C115.030743,24.0648649 113.453716,24.7398649 111.539189,24.7398649 C109.597297,24.7398649 108.386149,23.4456081 108.386149,22.6277027 C108.386149,22.4037162 108.583784,22.2060811 109.090541,22.0652027 C114.495608,20.3756757 116.747635,19.2506757 117.591892,18.4054054 C118.071284,17.9554054 118.267905,17.4202703 118.267905,16.9418919 C118.267905,14.8023649 115.171622,11.0027027 110.413176,11.0027027 C108.442905,11.0027027 106.444257,11.7891892 104.952365,13.2820946 C103.460473,14.775 102.531081,16.8851351 102.531081,19.7574324 C102.531081,22.5162162 103.403716,24.4307432 104.922973,25.9510135 C106.444257,27.4712838 108.640541,28.2314189 111.033446,28.2314189 C113.482095,28.2314189 115.790878,27.3587838 117.479392,25.6692568 Z M113.285473,16.9702703 C113.285473,18.0121622 112.834459,18.3222973 111.145946,18.9121622 C109.793919,19.4199324 108.753041,19.6449324 108.442905,19.6449324 C107.879392,19.6449324 107.627027,19.2222973 107.627027,18.3496622 C107.627027,16.2668919 108.217905,13.7331081 110.413176,13.7331081 C112.440203,13.7331081 113.285473,15.9293919 113.285473,16.9702703 Z M169.643919,15.8158784 C169.643919,12.6628378 168.012162,11.0584459 165.451014,11.0584459 C164.239865,11.0584459 162.944595,11.4516892 161.650338,12.2412162 C161.199324,12.522973 161.057432,12.6070946 160.946959,12.6070946 C160.495946,12.6070946 160.805068,11.4516892 159.989189,11.4516892 L155.035135,11.4516892 C154.725,11.4516892 154.639865,11.4516892 154.527365,11.5652027 C154.386486,11.7060811 154.273986,12.4378378 154.273986,12.9456081 C154.273986,13.085473 154.302365,13.1969595 154.386486,13.2820946 C154.6125,13.5081081 155.035135,13.5922297 155.372635,13.9297297 C155.625,14.1831081 155.738514,14.7182432 155.738514,15.5341216 L155.738514,23.0503378 C155.738514,24.0081081 155.653378,24.6273649 155.372635,24.9091216 C154.977365,25.3023649 154.302365,25.5283784 154.105743,25.725 C154.048986,25.7827297 154.020608,25.8942568 154.020608,26.0918919 C154.020608,26.8236486 154.105743,27.5280405 154.216216,27.639527 C154.302365,27.7236486 154.471622,27.7804054 154.780743,27.7804054 L161.874324,27.7804054 C162.212838,27.7804054 162.325338,27.7236486 162.410473,27.639527 C162.551351,27.4986486 162.662838,26.8236486 162.662838,26.0918919 C162.662838,25.8942568 162.635514,25.7827703 162.578716,25.725 C162.353716,25.5010135 161.706081,25.3023649 161.311824,24.9091216 C161.030068,24.6273649 160.888176,24.0081081 160.888176,23.0503378 L160.888176,17.5054054 C160.888176,15.225 162.156081,14.5216216 163.085473,14.5216216 C164.043243,14.5216216 164.577365,15.225 164.577365,16.7158784 L164.577365,24.5158784 C164.577365,26.5986486 165.901014,27.977027 168.293919,27.977027 C170.940203,27.977027 172.066216,26.0635135 172.066216,25.6692568 C172.066216,25.3317568 171.531081,24.6557432 171.193581,24.6557432 C170.799324,24.6557432 170.236824,25.1625 169.955068,25.1625 C169.757432,25.1625 169.643919,25.0216216 169.643919,24.5716216 L169.643919,15.8158784 Z M125.445608,5.37162162 L120.041554,5.37162162 C119.703041,5.37162162 119.562162,5.37162162 119.479054,5.51351351 C119.365541,5.65337838 119.280405,6.35777027 119.280405,6.83614865 C119.280405,7.00439189 119.309757,7.11689189 119.365541,7.22939189 C119.562162,7.42702703 120.323311,7.62364865 120.660811,7.96216216 C120.941554,8.24391892 121.083446,8.80641892 121.083446,10.9449324 L121.083446,22.2060811 C121.083446,24.0932432 120.886824,24.6841216 120.660811,24.9091216 C120.266554,25.3023649 119.591554,25.5283784 119.393919,25.725 C119.338216,25.7827297 119.309797,25.8942568 119.309797,26.0918919 C119.309797,26.8236486 119.393919,27.5280405 119.506419,27.639527 C119.591554,27.7236486 119.703041,27.7804054 120.069932,27.7804054 L127.136149,27.7804054 C127.502027,27.7804054 127.613514,27.7236486 127.698649,27.639527 C127.811149,27.5280405 127.952027,26.8236486 127.952027,26.0918919 C127.952027,25.8942568 127.924703,25.7827703 127.839527,25.725 C127.642905,25.5283784 126.966892,25.3023649 126.6,24.9091216 C126.291892,24.6273649 126.178378,24.0081081 126.178378,23.0503378 L126.178378,22.4037162 C126.178378,22.0378378 126.291892,21.9243243 126.911149,21.3050676 C127.191892,21.0527027 127.444257,20.8560811 127.642905,20.8560811 C127.924662,20.8560811 128.148649,21.0527027 131.245946,27.302027 C131.442568,27.6962838 131.526689,27.7804054 132.033446,27.7804054 L136.621622,27.7804054 C136.960135,27.7804054 137.073649,27.7236486 137.15777,27.639527 C137.27027,27.5280405 137.38277,26.8236486 137.38277,26.0918919 C137.38277,25.8942568 137.355446,25.7827703 137.297635,25.725 C137.101014,25.5283784 135.919257,25.3875 135.665878,24.9091216 C131.584459,18.0121622 131.470946,17.7861486 131.470946,17.364527 C131.470946,16.9986486 133.272973,15.1976351 134.764865,14.0148649 C135.722635,13.2547297 136.340878,13.760473 136.340878,12.860473 C136.340878,11.8185811 136.201014,11.4516892 136.003378,11.4516892 L129.191554,11.4516892 C128.599662,11.4516892 128.543919,11.7891892 128.543919,13.0570946 C128.543919,13.4787162 129.725676,13.535473 129.725676,14.1263514 C129.725676,14.6331081 126.854392,17.3929054 126.376014,17.3929054 C126.206757,17.3929054 126.178378,17.2804054 126.178378,16.8010135 L126.178378,6.16013514 C126.178378,5.70912162 125.868243,5.37162162 125.445608,5.37162162 Z" id="path50" fill-rule="nonzero"></path>
                <polygon id="path3239" points="15.7014783 -3.19744231e-14 19.4386374 11.3657594 31.4029567 11.4077621 21.7483277 18.4742185 25.4055252 29.8659543 15.7014783 22.8675112 5.99743149 29.8659543 9.65463582 18.4742185 3.19744231e-14 11.4077621 11.964326 11.3657594"></polygon>
            </g>
        </g>
    </g>
</svg>