<?xml version="1.0" encoding="UTF-8"?>
<svg width="159px" height="41px" viewBox="0 0 159 41" version="1.1" xmlns="http://www.w3.org/2000/svg" xmlns:xlink="http://www.w3.org/1999/xlink">
    <!-- Generator: Sketch 55.2 (78181) - https://sketchapp.com -->
    <title>Shape</title>
    <desc>Created with Sketch.</desc>
    <g id="Index" stroke="none" stroke-width="1" fill="none" fill-rule="evenodd">
        <g id="Index-(dekstop)" transform="translate(-1119.000000, -1017.000000)" fill="#72778E" fill-rule="nonzero">
            <path d="M1136.8,1057.3 L1145.4,1057.3 L1146.3,1053.2 L1150.3,1053.2 L1150.3,1057.3 L1159,1057.3 L1159,1028.9 L1143,1028.9 L1136.8,1057.3 Z M1150.3,1035.8 L1150.3,1045.9 L1147.6,1045.9 L1150.3,1035.8 Z M1130.7,1048.5 L1136.7,1048.5 L1134.8,1057.2 L1119,1057.2 L1125.4,1028.9 L1135.2,1028.9 L1130.7,1048.5 Z M1184.6,1028.9 L1178.3,1057.2 L1162.3,1057.2 L1162.3,1028.9 L1171.1,1028.9 L1171.1,1049 L1175.6,1028.9 L1184.6,1028.9 Z M1271.4,1028.9 L1255.5,1028.9 L1255.5,1057.2 L1264.1,1057.2 L1264.1,1053.1 L1268.2,1053.1 L1269.1,1057.2 L1277.7,1057.2 L1271.4,1028.9 Z M1264.1,1045.9 L1264.1,1035.8 L1266.7,1045.9 L1264.1,1045.9 Z M1252.8,1048.9 L1254.5,1057.3 L1237.2,1057.3 L1239,1038 L1233,1038 L1231.4,1029 L1249.6,1029 L1247.5,1048.9 L1252.8,1048.9 Z M1233.1,1048.9 L1234.8,1057.3 L1217.5,1057.3 L1219.3,1038 L1213.3,1038 L1211.7,1029 L1229.9,1029 L1227.8,1048.9 L1233.1,1048.9 L1233.1,1048.9 Z M1190.6,1017 L1181.5,1057.3 L1192.7,1057.3 L1194,1050.4 L1202.8,1050.4 L1204.1,1057.3 L1215.2,1057.3 L1206.1,1017 L1190.6,1017 Z M1195.4,1041.5 L1198.3,1026.1 L1201.3,1041.5 L1195.4,1041.5 Z" id="Shape"></path>
        </g>
    </g>
</svg>