<?xml version="1.0" encoding="UTF-8"?>
<svg width="108px" height="29px" viewBox="0 0 108 29" version="1.1" xmlns="http://www.w3.org/2000/svg" xmlns:xlink="http://www.w3.org/1999/xlink">
    <!-- Generator: Sketch 52.6 (67491) - http://www.bohemiancoding.com/sketch -->
    <title>Group 22</title>
    <desc>Created with Sketch.</desc>
    <g id="Page-2" stroke="none" stroke-width="1" fill="none" fill-rule="evenodd">
        <g id="Index-page" transform="translate(-797.000000, -1187.000000)" fill="#EB9036">
            <g id="Group-22" transform="translate(797.000000, 1187.000000)">
                <polygon id="Fill-1" points="23.8952 28.5339333 30.5788 28.5339333 30.5788 9.60453333 23.8952 9.60453333"></polygon>
                <polygon id="Fill-2" points="55.5954 28.5339333 62.279 28.5339333 62.279 9.60453333 55.5954 9.60453333"></polygon>
                <polyline id="Fill-3" points="96.8580667 3.6844 90.1716667 3.6844 90.1716667 9.605 86.8714 9.605 86.8714 15.1480667 90.1716667 15.1480667 90.1716667 28.5344 96.8580667 28.5344 96.8580667 15.1480667 100.161133 15.1480667 100.161133 9.605 96.8580667 9.605 96.8580667 3.6844"></polyline>
                <path d="M58.9176,0.631466667 C56.9828,0.631466667 55.4432667,2.17286667 55.4432667,4.10486667 C55.4432667,6.03966667 56.9828,7.62026667 58.9176,7.62026667 C60.8524,7.62026667 62.4325333,6.03966667 62.4325333,4.10486667 C62.4325333,2.17286667 60.8524,0.631466667 58.9176,0.631466667" id="Fill-4"></path>
                <path d="M78.5498,9.18406667 C76.9309333,9.18406667 75.3461333,9.55226667 74.1435333,10.1570667 C72.9936667,10.7334 72.1821333,11.5136667 71.7826667,12.0559333 L71.6408,12.0559333 L71.6408,9.60453333 L64.9553333,9.60453333 L64.9553333,28.5344 L71.6408,28.5344 L71.6408,18.8692667 C71.6408,15.5610667 73.5266,14.7182667 75.4609333,14.7182667 C77.3976,14.7182667 78.6300667,16.3595333 78.6300667,18.2924667 L78.6300667,28.5344 L85.3164667,28.5344 L85.3164667,16.9204667 C85.3164667,14.3976667 84.5497333,12.4745333 83.4106,11.2364667 C82.2719333,9.9998 80.2494,9.18406667 78.5498,9.18406667" id="Fill-5"></path>
                <path d="M103.636867,21.6165333 C101.703467,21.6165333 100.161133,23.1560667 100.161133,25.0904 C100.161133,27.0233333 101.703467,28.603 103.636867,28.603 C105.5726,28.603 107.1532,27.0233333 107.1532,25.0904 C107.1532,23.1560667 105.5726,21.6165333 103.636867,21.6165333" id="Fill-7"></path>
                <path d="M27.2174,0.631466667 C25.2816667,0.631466667 23.7430667,2.17286667 23.7430667,4.10486667 C23.7430667,6.03966667 25.2816667,7.62026667 27.2174,7.62026667 C29.1522,7.62026667 30.7318667,6.03966667 30.7318667,4.10486667 C30.7318667,2.17286667 29.1522,0.631466667 27.2174,0.631466667" id="Fill-9"></path>
                <polyline id="Fill-10" points="43.1386667 20.6608 38.6997333 9.605 31.6997333 9.605 39.998 28.5344 46.1766667 28.5344 54.4754 9.605 47.5785333 9.605 43.1386667 20.6608"></polyline>
                <polyline id="Fill-12" points="11.4398667 20.6608 7 9.605 -3.19744231e-14 9.605 8.29826667 28.5344 14.4769333 28.5344 22.7738 9.605 15.8788 9.605 11.4398667 20.6608"></polyline>
            </g>
        </g>
    </g>
</svg>
