<svg width="44" height="44" viewBox="0 0 44 44" xmlns="http://www.w3.org/2000/svg"><title>Group 15</title><g fill="none" fill-rule="evenodd" stroke-linecap="round" stroke-linejoin="round"><path d="M10.802 4.9l.318.322c.619.628 1.263 1.267 1.879 1.932.28.303.491.328.878.148 1.281-.597 2.594-1.128 3.954-1.71V2.189h8.287v3.345l.67.3m2.877 1.276c.222.097.443.192.665.287.13.055.398-.046.517-.162.727-.71 1.43-1.446 2.116-2.148l5.884 5.957-2.372 2.234 1.89 4.554h3.448v8.279h-3.435l-1.905 4.601 2.445 2.298-5.886 5.936c-.7-.711-1.411-1.408-2.09-2.134-.266-.284-.46-.318-.83-.144-1.28.604-2.59 1.147-3.964 1.746v3.369h-8.301v-3.341c-1.462-.648-2.82-1.264-4.193-1.842-.143-.06-.432.041-.56.164-.73.705-1.433 1.439-2.14 2.157l-5.888-5.974c.643-.616 1.361-1.328 2.108-2.008.296-.27.298-.474.13-.834-.6-1.282-1.143-2.59-1.74-3.96H2.19v-6.292m0-1.71v-.28h.166m1.751 0h1.57c.153-.474.267-.937.45-1.37.379-.9.772-1.797 1.206-2.672.159-.32.128-.504-.123-.737-.744-.693-1.47-1.407-2.18-2.09l3.858-3.877m8.009 9.785l.105-.097m1.876-1.236a7.191 7.191 0 1 1-2.983 2.51" stroke="#717791" stroke-width="3"/><path d="M26.482 10.257c.079.031.157.062.235.095M13.422 12.56c.88-.776 1.884-1.44 3-1.966A12.678 12.678 0 0 1 23.84 9.54M12.968 31.267a12.71 12.71 0 0 1-2.652-3.722 12.697 12.697 0 0 1-.565-9.432m20.363-5.685a12.691 12.691 0 0 1 3.258 4.272c2.994 6.367.26 13.956-6.106 16.95a12.7 12.7 0 0 1-9.74.458" stroke="#A3ACD6" stroke-width="2"/></g></svg>