<svg width="29" height="41" viewBox="0 0 29 41" xmlns="http://www.w3.org/2000/svg" xmlns:xlink="http://www.w3.org/1999/xlink"><title>Group 78</title><defs><path id="a" d="M0 .289h27.64v18.758H0z"/></defs><g fill="none" fill-rule="evenodd"><path d="M27.84 35.424v3.278c0 .659-.536 1.193-1.197 1.193H3.084c-.66 0-1.197-.534-1.197-1.193V24.076c0-.66.537-1.194 1.197-1.194h23.56c.66 0 1.196.535 1.196 1.194v.058" fill="#FFF"/><g transform="translate(1 21.724)"><mask id="b" fill="#fff"><use xlink:href="#a"/></mask><path d="M27.214 13.7c.406.754.434 1.51.423 2.264l.002.567v.282l.001.142-.01.22a2.001 2.001 0 0 1-1.89 1.797l-.607.006-1.135.002-2.27.008-9.08.028-9.079.028-1.135.003h-.358l-.122-.005c-.082-.002-.163-.016-.244-.028a2.056 2.056 0 0 1-.893-.396c-.523-.379-.838-1.085-.814-1.681L0 15.804l.003-4.529.025-9.157A2.074 2.074 0 0 1 1.077.549a2.06 2.06 0 0 1 .937-.258l.597-.002 2.27.003 4.54.005 9.08.056 4.54.027 2.27.015.283.001a1.972 1.972 0 0 1 1.263.429 1.948 1.948 0 0 1 .734 1.584v.015a.751.751 0 0 1-1.502-.015c-.002-.143-.011-.16-.044-.238a.446.446 0 0 0-.316-.244c-.048-.005-.038-.008-.135-.008l-.284.002-2.27.014-4.54.028-9.079.056-4.54.005-2.27.003-.537.002a.324.324 0 0 0-.146.04.326.326 0 0 0-.164.245l.009 8.961.002 4.53-.003 1.132c-.004.16.04.213.12.29.04.03.085.055.134.061.013 0 .025.007.038.005l.02.002h.067l.283.001 1.135.004 9.08.028 9.08.028 2.27.007 1.134.003h.53a.397.397 0 0 0 .375-.347l.005-1.055c-.011-.755.017-1.51.423-2.265a.425.425 0 0 1 .748 0" fill="#717791" mask="url(#b)"/></g><path d="M28.19 32.265c.293.07.394.141.435.212a.433.433 0 0 1-.006.211c-.039.141-.12.282-.347.423a.819.819 0 0 1-.863 0c-.227-.14-.309-.282-.348-.423a.433.433 0 0 1-.006-.211c.041-.07.142-.141.434-.212a1.54 1.54 0 0 1 .702 0m-.011-6.738c.107.436.183.874.241 1.31.062.438.11.876.14 1.313.04.437.052.874.072 1.311.012.438-.037.875-.313 1.313a.568.568 0 0 1-.96 0c-.276-.438-.325-.875-.312-1.313.02-.437.031-.874.07-1.31.031-.438.08-.876.14-1.313.06-.437.135-.875.243-1.311a.348.348 0 0 1 .679 0" fill="#717791"/><path d="M27.36 23.12l-10.62 8.182c-1.193.92-2.76.92-3.953.002l-10.48-8.058" fill="#E5EEFD"/><path d="M27.36 23.12l-10.62 8.182c-1.193.92-2.76.92-3.953.002l-10.48-8.058" stroke="#717791" stroke-width="2.5" stroke-linecap="round" stroke-linejoin="round"/><path d="M27.104 23.167l-10.51-8.099c-1.181-.91-2.731-.911-3.913-.003L2.009 23.271" fill="#E5EEFD"/><path d="M27.104 23.167l-10.51-8.099c-1.181-.91-2.731-.911-3.913-.003L2.009 23.271" stroke="#717791" stroke-width="2.5" stroke-linecap="round" stroke-linejoin="round"/><path d="M12.826 31.854c-.688.993-1.478 1.897-2.287 2.784-.406.442-.824.874-1.252 1.296-.411.439-.841.86-1.626.97a.319.319 0 0 1-.364-.32c.009-.79.372-1.27.755-1.733a37.61 37.61 0 0 1 1.129-1.405c.778-.914 1.575-1.811 2.474-2.619a.785.785 0 0 1 1.108.059.782.782 0 0 1 .063.968m5.274-.396c.633.186.957.642 1.372 1.018.398.392.794.784 1.164 1.201.369.416.714.854 1.043 1.305.311.468.596.96.743 1.57a.328.328 0 0 1-.437.383c-.588-.224-1.04-.568-1.465-.936a17.709 17.709 0 0 1-1.164-1.2 24.955 24.955 0 0 1-1.045-1.304c-.32-.46-.733-.838-.836-1.488a.491.491 0 0 1 .626-.55" fill="#717791"/><path d="M20.574 23.487H6.873a1.724 1.724 0 0 1-1.727-1.722V14.42h14.46a2.69 2.69 0 0 1 2.693 2.687v4.658c0 .95-.772 1.722-1.725 1.722" fill="#3F72BA"/><path d="M22.99 6.103l.015 14.912a.84.84 0 0 1-.84.837H6.898a.84.84 0 0 1-.84-.837V2.638a.84.84 0 0 1 .84-.838h11.817" fill="#FFF"/><path d="M18.833 1.8l4.274 4.239" fill="#E5EEFD"/><path d="M18.833 1.8l4.274 4.239" stroke="#717791" stroke-width="2.5" stroke-linecap="round" stroke-linejoin="round"/><path d="M23.902 6.103l.009 7.737.004 3.868.001 1.934.002.968v.241c-.002.091.005.126-.007.316a1.635 1.635 0 0 1-1.574 1.477l-.269.002H7.044a1.66 1.66 0 0 1-.874-.236 1.624 1.624 0 0 1-.789-1.368V2.654a1.635 1.635 0 0 1 1.633-1.646l.242-.001h.485l.97-.002c1.292.002 2.584-.016 3.877.006.646.003 1.292.035 1.938.052.647.019 1.293.068 1.94.284a.478.478 0 0 1 0 .907c-.647.216-1.293.265-1.94.285-.646.016-1.292.049-1.938.051-1.293.022-2.585.005-3.877.006H7.003c-.014.003-.032.023-.03.036L6.97 3.5v17.409l.001.108v.007c0 .003.001.007.004.01.002.007.01.016.018.019.019.006-.014.005.05.007h15.241c.006.001.007-.003.012-.003a.049.049 0 0 0 .02-.015l-.005-14.937a.795.795 0 0 1 1.59-.001" fill="#717791"/><path d="M19.622 1.8l.006 4.239-.796-.794c.384.034.768.074 1.151.13.192.028.384.048.576.089.191.04.384.105.575.124a.453.453 0 0 1 0 .901c-.191.02-.384.085-.575.125-.192.041-.384.06-.576.089-.383.056-.767.096-1.15.13a.732.732 0 0 1-.793-.666l-.003-.062V6.04l.006-4.239a.789.789 0 0 1 1.58 0" fill="#717791"/><path d="M9.862 10.423h9.486" fill="#E5EEFD"/><path d="M9.862 9.918c.79-.256 1.58-.299 2.372-.285.79.014 1.58.024 2.372.057a64.33 64.33 0 0 1 4.742.324.411.411 0 0 1 0 .817c-1.581.172-3.162.27-4.742.325-.791.032-1.582.043-2.372.058-.791.013-1.582-.03-2.372-.286a.531.531 0 0 1 0-1.01" fill="#A3ACD6"/><path d="M13.63 12.774h5.718" fill="#E5EEFD"/><path d="M13.63 12.356c.953-.466 1.906-.376 2.86-.345.952.05 1.905.148 2.858.386a.389.389 0 0 1 0 .754c-.953.238-1.906.336-2.859.386-.953.031-1.906.12-2.86-.344a.465.465 0 0 1 0-.837" fill="#A3ACD6"/><path d="M9.862 12.774h2.407" fill="#E5EEFD"/><path d="M9.862 12.297c.401-.373.802-.32 1.203-.3.401.035.802.11 1.204.3a.527.527 0 0 1 0 .954c-.402.19-.803.265-1.204.3-.401.02-.802.073-1.203-.3a.651.651 0 0 1 0-.954" fill="#A3ACD6"/><path d="M18.242 15.125h1.107" fill="#E5EEFD"/><path d="M18.242 14.801c.184-.279.369-.386.553-.444.092-.027.184-.043.277-.003a.562.562 0 0 1 .277.277c.17.318.156.692 0 .99a.56.56 0 0 1-.277.276c-.092.04-.185.023-.277-.003-.184-.059-.369-.166-.553-.445a.588.588 0 0 1 0-.648" fill="#A3ACD6"/><path d="M9.862 15.125h6.807" fill="#E5EEFD"/><path d="M9.862 14.759a37.426 37.426 0 0 1 3.403-.34 52.578 52.578 0 0 1 1.702-.076c.568-.03 1.135-.019 1.702.245a.593.593 0 0 1 0 1.074c-.567.265-1.134.275-1.702.246a54.458 54.458 0 0 1-1.702-.076 37.885 37.885 0 0 1-3.403-.34.37.37 0 0 1 0-.733" fill="#A3ACD6"/><path d="M9.862 7.985h6.807" fill="#E5EEFD"/><path d="M9.862 7.618a37.885 37.885 0 0 1 3.403-.34 54.456 54.456 0 0 1 1.702-.076c.568-.03 1.135-.019 1.702.245a.593.593 0 0 1 0 1.075c-.567.264-1.134.274-1.702.245a54.456 54.456 0 0 1-1.702-.075 37.885 37.885 0 0 1-3.403-.34.37.37 0 0 1 0-.734" fill="#A3ACD6"/><path d="M17.803 7.985h1.34" fill="#E5EEFD"/><path d="M17.803 7.618c.224-.17.447-.274.67-.34.112-.036.224-.058.336-.076.111-.03.223-.019.334.245.151.356.14.744 0 1.075-.11.264-.223.274-.334.245a2.256 2.256 0 0 1-.336-.075 2.062 2.062 0 0 1-.67-.34.46.46 0 0 1 0-.734" fill="#A3ACD6"/><path d="M9.862 17.477h6.05" fill="#E5EEFD"/><path d="M9.862 17.14c1.008-.239 2.017-.345 3.025-.41 1.009-.039 2.017-.163 3.026.285a.505.505 0 0 1 0 .924c-1.009.448-2.017.323-3.026.283-1.008-.064-2.017-.17-3.025-.408a.347.347 0 0 1 0-.675" fill="#A3ACD6"/><path d="M11.95 29.198v-4.56" fill="#E5EEFD"/><path d="M11.611 29.198c-.238-.76-.345-1.52-.41-2.28-.039-.76-.164-1.52.285-2.28a.538.538 0 0 1 .926 0c.45.76.324 1.52.285 2.28-.064.76-.171 1.52-.41 2.28a.355.355 0 0 1-.676 0" fill="#84B2FD"/><path d="M14.456 27.05v-3.082" fill="#E5EEFD"/><path d="M14.118 27.05c-.239-.514-.345-1.027-.41-1.54-.039-.515-.164-1.028.285-1.542a.616.616 0 0 1 .926 0c.45.514.324 1.027.285 1.541-.065.514-.172 1.027-.41 1.541a.373.373 0 0 1-.676 0" fill="#84B2FD"/><path d="M16.1 29.319v-3.082" fill="#E5EEFD"/><path d="M15.762 29.319c-.238-.514-.345-1.028-.41-1.541-.039-.514-.164-1.028.285-1.541a.616.616 0 0 1 .926 0c.45.513.324 1.027.285 1.54-.065.514-.172 1.028-.41 1.542a.373.373 0 0 1-.676 0" fill="#84B2FD"/></g></svg>