<svg width="43" height="43" viewBox="0 0 43 43" xmlns="http://www.w3.org/2000/svg"><title>Group 11</title><g fill="none" fill-rule="evenodd"><path d="M39.458 21.828c0 4.08-1.387 7.831-3.711 10.815-3.228-4.146-8.26-6.811-13.919-6.811-5.653 0-10.69 2.665-13.919 6.811A17.523 17.523 0 0 1 4.2 21.828c0-9.733 7.896-17.63 17.63-17.63 9.736 0 17.63 7.897 17.63 17.63" fill="#D5BEFD"/><path d="M41.503 21.828c0 4.989-1.858 9.542-4.914 13.01a19.625 19.625 0 0 1-14.76 6.665c-5.88 0-11.157-2.581-14.762-6.67a19.582 19.582 0 0 1-4.913-13.005c0-10.864 8.81-19.674 19.674-19.674 10.868 0 19.675 8.81 19.675 19.674z" stroke="#717791" stroke-width="2.5" stroke-linecap="round" stroke-linejoin="round"/><path d="M27.705 15.951a5.877 5.877 0 1 1-11.753 0 5.877 5.877 0 0 1 11.753 0" fill="#FFF"/><path d="M27.705 15.951a5.877 5.877 0 1 1-11.753 0 5.877 5.877 0 0 1 11.753 0z" stroke="#717791" stroke-width="2.5" stroke-linecap="round" stroke-linejoin="round"/><path d="M7.966 32.445c.176-.274.35-.523.542-.797.195-.276.383-.56.607-.815.43-.523.882-1.036 1.39-1.491.998-.927 2.138-1.703 3.346-2.34 2.416-1.275 5.15-1.986 7.892-1.992a16.908 16.908 0 0 1 7.903 1.93c2.419 1.254 4.499 3.206 5.851 5.472l.013.021a.34.34 0 0 1-.536.412c-.927-.953-1.824-1.805-2.832-2.573-1-.76-2.064-1.424-3.185-1.966-2.24-1.095-4.727-1.627-7.206-1.612-2.479.01-4.96.575-7.177 1.707-1.11.562-2.146 1.26-3.123 2.038-.487.391-.964.799-1.419 1.234-.232.214-.44.45-.674.667-.228.224-.474.475-.719.7a.451.451 0 0 1-.686-.575l.013-.02z" fill="#717791"/></g></svg>