<svg width="47" height="44" viewBox="0 0 47 44" xmlns="http://www.w3.org/2000/svg"><title>Group 39</title><g fill="none" fill-rule="evenodd"><path d="M34.441 30.69L12.02 25.309 26.552 6.983l7.889 23.708z" stroke="#7282C4" stroke-width="2.5" stroke-linecap="round" stroke-linejoin="round" stroke-dasharray="8.805"/><path d="M18.745 26.64a8.266 8.266 0 0 1-2.079 5.49 8.312 8.312 0 0 1-6.245 2.813 8.313 8.313 0 0 1-6.245-2.814 8.252 8.252 0 0 1-2.079-5.488c0-4.584 3.728-8.302 8.324-8.302 4.598 0 8.324 3.718 8.324 8.302" fill="#FFF"/><path d="M18.745 26.64a8.266 8.266 0 0 1-2.079 5.49 8.312 8.312 0 0 1-6.245 2.813 8.313 8.313 0 0 1-6.245-2.814 8.252 8.252 0 0 1-2.079-5.488c0-4.584 3.728-8.302 8.324-8.302 4.598 0 8.324 3.718 8.324 8.302z" stroke="#717791" stroke-width="2.5" stroke-linecap="round" stroke-linejoin="round"/><path d="M17.88 26.64a7.39 7.39 0 0 1-1.57 4.564 7.452 7.452 0 0 0-5.889-2.873 7.455 7.455 0 0 0-5.889 2.873 7.38 7.38 0 0 1-1.57-4.563c0-4.107 3.341-7.44 7.459-7.44 4.12 0 7.459 3.333 7.459 7.44" fill="#D5BEFD"/><path d="M12.908 24.161c0 1.37-1.114 2.48-2.487 2.48a2.483 2.483 0 0 1-2.486-2.48c0-1.37 1.113-2.48 2.486-2.48a2.483 2.483 0 0 1 2.487 2.48" fill="#FFF"/><path d="M12.908 24.161c0 1.37-1.114 2.48-2.487 2.48a2.483 2.483 0 0 1-2.486-2.48c0-1.37 1.113-2.48 2.486-2.48a2.483 2.483 0 0 1 2.487 2.48z" stroke="#717791" stroke-width="2.5" stroke-linecap="round" stroke-linejoin="round"/><path d="M4.486 31.058c.067-.12.133-.225.21-.346.08-.122.156-.248.248-.36.177-.233.372-.454.587-.655a6.623 6.623 0 0 1 1.437-1.023 7.242 7.242 0 0 1 6.833-.02c1.04.547 1.933 1.413 2.458 2.408l.008.014a.216.216 0 0 1-.339.259 12.91 12.91 0 0 0-1.23-1.028 8.587 8.587 0 0 0-1.333-.79 6.813 6.813 0 0 0-2.976-.647 6.808 6.808 0 0 0-2.959.694c-.46.227-.89.511-1.3.825-.206.156-.404.323-.601.496-.101.084-.192.178-.294.264-.1.09-.213.195-.323.285a.288.288 0 0 1-.434-.361l.008-.015z" fill="#717791"/><path d="M32.554 8.004a5.914 5.914 0 0 1-5.922 5.907 5.915 5.915 0 0 1-4.444-2.002 5.871 5.871 0 0 1-1.48-3.905c0-3.262 2.653-5.907 5.923-5.907 3.272 0 5.923 2.645 5.923 5.907" fill="#FFF"/><path d="M32.554 8.004a5.914 5.914 0 0 1-5.922 5.907 5.915 5.915 0 0 1-4.444-2.002 5.871 5.871 0 0 1-1.48-3.905c0-3.262 2.653-5.907 5.923-5.907 3.272 0 5.923 2.645 5.923 5.907z" stroke="#717791" stroke-width="2.5" stroke-linecap="round" stroke-linejoin="round"/><path d="M31.737 7.965a5.057 5.057 0 0 1-1.075 3.123 5.101 5.101 0 0 0-4.03-1.967c-1.638 0-3.096.77-4.031 1.967a5.053 5.053 0 0 1-1.075-3.123c0-2.811 2.287-5.092 5.105-5.092a5.1 5.1 0 0 1 5.106 5.092" fill="#FDD1BE"/><path d="M28.4 6.24c0 .974-.792 1.764-1.769 1.764-.977 0-1.769-.79-1.769-1.765 0-.974.792-1.764 1.77-1.764.976 0 1.768.79 1.768 1.764" fill="#FFF"/><path d="M28.4 6.24c0 .974-.792 1.764-1.769 1.764-.977 0-1.769-.79-1.769-1.765 0-.974.792-1.764 1.77-1.764.976 0 1.768.79 1.768 1.764z" stroke="#717791" stroke-width="2.5" stroke-linecap="round" stroke-linejoin="round"/><path d="M22.347 11.093c.042-.09.08-.167.132-.257.054-.09.107-.184.17-.27.124-.173.262-.339.416-.488a4.61 4.61 0 0 1 1.043-.756 5.22 5.22 0 0 1 4.991-.01c.754.404 1.4 1.056 1.734 1.798l.007.016c.05.11 0 .239-.11.288a.22.22 0 0 1-.228-.03c-.616-.508-1.186-.91-1.839-1.21a4.795 4.795 0 0 0-2.054-.43 4.792 4.792 0 0 0-2.04.468 5.94 5.94 0 0 0-.904.559c-.145.104-.287.216-.43.33l-.215.174c-.074.06-.163.133-.248.194a.292.292 0 0 1-.433-.36l.008-.016z" fill="#717791"/><path d="M45.643 32.245c0 2.467-.921 4.72-2.436 6.434a9.743 9.743 0 0 1-7.32 3.296 9.743 9.743 0 0 1-7.32-3.298 9.67 9.67 0 0 1-2.437-6.432c0-5.373 4.37-9.731 9.757-9.731 5.389 0 9.756 4.358 9.756 9.73" fill="#FFF"/><path d="M45.643 32.245c0 2.467-.921 4.72-2.436 6.434a9.743 9.743 0 0 1-7.32 3.296 9.743 9.743 0 0 1-7.32-3.298 9.67 9.67 0 0 1-2.437-6.432c0-5.373 4.37-9.731 9.757-9.731 5.389 0 9.756 4.358 9.756 9.73z" stroke="#717791" stroke-width="2.5" stroke-linecap="round" stroke-linejoin="round"/><path d="M44.63 32.245a8.66 8.66 0 0 1-1.841 5.348 8.735 8.735 0 0 0-6.903-3.368 8.738 8.738 0 0 0-6.902 3.368 8.65 8.65 0 0 1-1.84-5.348c0-4.814 3.916-8.72 8.742-8.72 4.83 0 8.743 3.906 8.743 8.72" fill="#B8D4FF"/><path d="M38.8 29.338a2.91 2.91 0 0 1-2.913 2.907 2.91 2.91 0 0 1-2.915-2.907 2.91 2.91 0 0 1 2.915-2.906 2.91 2.91 0 0 1 2.914 2.906" fill="#FFF"/><path d="M38.8 29.338a2.91 2.91 0 0 1-2.913 2.907 2.91 2.91 0 0 1-2.915-2.907 2.91 2.91 0 0 1 2.915-2.906 2.91 2.91 0 0 1 2.914 2.906z" stroke="#717791" stroke-width="2.5" stroke-linecap="round" stroke-linejoin="round"/><path d="M28.966 37.455a8.32 8.32 0 0 1 .257-.401c.095-.14.186-.285.294-.415a6.41 6.41 0 0 1 .69-.753 7.811 7.811 0 0 1 1.672-1.182 8.45 8.45 0 0 1 7.932-.024c1.21.63 2.25 1.623 2.89 2.77l.008.014a.215.215 0 0 1-.34.259 13.908 13.908 0 0 0-1.425-1.235 9.71 9.71 0 0 0-1.57-.946 8.007 8.007 0 0 0-3.525-.776 8.01 8.01 0 0 0-3.508.829 9.051 9.051 0 0 0-1.536.983c-.241.187-.474.388-.703.595-.117.101-.223.214-.341.318-.116.107-.243.231-.369.34a.286.286 0 1 1-.434-.362l.008-.014z" fill="#717791"/></g></svg>