<svg width="38" height="39" viewBox="0 0 38 39" xmlns="http://www.w3.org/2000/svg" xmlns:xlink="http://www.w3.org/1999/xlink"><title>Group 37</title><defs><path id="a" d="M.116.588H29.6V38.77H.116z"/><path id="c" d="M0 .477h32.938v5.061H0z"/></defs><g fill="none" fill-rule="evenodd"><path d="M35.306 1.244H10.608c-.97 0-1.757.778-1.757 1.736v35.188h21.453c3.733 0 6.76-2.99 6.76-6.678V2.98c0-.958-.787-1.736-1.758-1.736" fill="#FFF"/><g transform="translate(8.098 .027)"><mask id="b" fill="#fff"><use xlink:href="#a"/></mask><path d="M1.39 34.633v3.507l-.637-.628h22.611c.306-.004.65.007.921-.008a4.175 4.175 0 0 0 2.288-.766 4.137 4.137 0 0 0 1.691-2.668c.052-.272.058-.52.065-.821V2.534c0-.094-.003-.113-.007-.155a.595.595 0 0 0-.134-.31.623.623 0 0 0-.395-.217l-3.686-.006H2.437l-.451.002a.615.615 0 0 0-.546.364.595.595 0 0 0-.049.222l-.002.444v5.584l-.003 7.446-.037 7.445-.018 3.723c.002 1.242-.017 2.482-.194 3.724a.388.388 0 0 1-.768 0C.19 29.558.172 28.318.175 27.076l-.019-3.723-.037-7.445-.003-7.446V2.878L.12 2.39c.007-.232.06-.466.155-.68A1.88 1.88 0 0 1 1.946.59l.49-.002h24.969c.162.005.283-.01.552.018a1.89 1.89 0 0 1 1.214.664 1.864 1.864 0 0 1 .43 1.264v30.714a6.176 6.176 0 0 1-.082 1.032 5.388 5.388 0 0 1-2.205 3.48 5.46 5.46 0 0 1-2.986 1c-.356.017-.64.004-.964.009H.753a.633.633 0 0 1-.637-.63v-3.506c0-.347.285-.629.637-.629.351 0 .636.282.636.629" fill="#717791" mask="url(#b)"/></g><path d="M8.851 32.581v.058" stroke="#717791" stroke-width="2.043" stroke-linecap="round" stroke-linejoin="round"/><path d="M22.327 34.424h6.186a3.68 3.68 0 0 0 1.112 2.645 3.774 3.774 0 0 0 2.677 1.099H4.42a3.786 3.786 0 0 1-2.677-1.1 3.7 3.7 0 0 1-1.106-2.644h18.328" fill="#FFF"/><g transform="translate(0 33.258)"><mask id="d" fill="#fff"><use xlink:href="#c"/></mask><path d="M22.327.83c.515-.163 1.03-.224 1.546-.257.516-.023 1.031-.048 1.547-.058.515-.017 1.03-.011 1.546-.014a27.56 27.56 0 0 1 1.547.037h.03c.34.016.606.296.606.628-.003.82.332 1.623.926 2.2a3.148 3.148 0 0 0 2.227.915v1.257H4.83c-.328-.001-.753.013-1.161-.064a4.474 4.474 0 0 1-1.173-.37C1 4.403-.01 2.821.001 1.186v-.02A.615.615 0 0 1 .602.537h.033C3.692.47 6.747.477 9.802.478l4.581.047c1.528.047 3.055-.084 4.583.305a.347.347 0 0 1 0 .673c-1.528.389-3.055.258-4.583.305l-4.581.047c-3.055 0-6.11.006-9.164-.06l.636-.629v.015c-.01 1.165.716 2.293 1.778 2.79.264.125.544.216.833.264.286.055.57.045.946.046h27.471c.35 0 .636.281.636.628a.633.633 0 0 1-.632.63h-.004a4.433 4.433 0 0 1-3.127-1.284 4.324 4.324 0 0 1-1.3-3.089l.638.629c-.516.023-1.032.042-1.547.037-.515-.003-1.031.002-1.546-.015-.516-.01-1.031-.035-1.547-.057-.516-.034-1.031-.095-1.546-.257a.353.353 0 0 1-.233-.444.358.358 0 0 1 .233-.23" fill="#717791" mask="url(#d)"/></g><path d="M13.807 7.337H32.44" fill="#FFF"/><path d="M13.807 6.959c1.553-.304 3.106-.258 4.659-.28 1.553-.013 3.105.015 4.658.057 3.105.066 6.212.163 9.316.377a.226.226 0 0 1 .213.24.227.227 0 0 1-.213.209c-3.104.213-6.211.31-9.316.377-1.553.041-3.105.069-4.658.056-1.553-.021-3.106.025-4.659-.28a.385.385 0 0 1 0-.756" fill="#717791"/><path d="M13.807 11.656h14.385" fill="#FFF"/><path d="M13.807 11.388c1.199-.104 2.398-.192 3.596-.261 1.2-.061 2.398-.152 3.597-.149 1.198.008 2.397-.034 3.596-.062 1.198-.006 2.397.056 3.596.253a.494.494 0 0 1 .411.568.498.498 0 0 1-.411.407c-1.199.196-2.398.258-3.596.252-1.199-.027-2.398-.07-3.596-.061-1.2.002-2.398-.088-3.597-.15-1.198-.07-2.397-.156-3.596-.261a.27.27 0 0 1-.246-.292.27.27 0 0 1 .246-.244" fill="#717791"/><path d="M13.807 15.975H32.44" fill="#FFF"/><path d="M13.807 15.708c3.106-.416 6.212-.315 9.317-.325 1.553-.009 3.105.023 4.659.05 1.553.02 3.105.077 4.657.144a.4.4 0 0 1 .386.416.402.402 0 0 1-.386.38 154.79 154.79 0 0 1-4.657.144c-1.554.027-3.106.06-4.659.05-3.105-.01-6.211.091-9.317-.325a.27.27 0 0 1-.233-.303.271.271 0 0 1 .233-.23" fill="#717791"/><path d="M13.807 20.294h14.385" fill="#FFF"/><path d="M13.807 19.918c2.398-.176 4.795-.26 7.193-.29 2.397-.02 4.794-.074 7.192.29a.38.38 0 0 1 .321.434.382.382 0 0 1-.321.318c-2.398.364-4.795.31-7.192.29-2.398-.03-4.795-.113-7.193-.29a.378.378 0 0 1-.352-.404.38.38 0 0 1 .352-.348" fill="#717791"/><path d="M13.807 24.613H32.44" fill="#FFF"/><path d="M13.807 24.304c1.553-.189 3.106-.254 4.659-.286a258.34 258.34 0 0 1 4.658-.046l4.659.067c1.553.035 3.105.103 4.657.287a.289.289 0 0 1 0 .574c-1.552.185-3.104.253-4.657.288l-4.659.066c-1.553 0-3.105-.017-4.658-.045-1.553-.033-3.106-.097-4.659-.287a.312.312 0 0 1-.274-.347.314.314 0 0 1 .274-.27" fill="#717791"/><path d="M13.807 28.932h14.385" fill="#FFF"/><path d="M13.807 28.559c1.199-.193 2.398-.245 3.596-.26 1.2-.001 2.398.008 3.597.03 1.198.014 2.397.06 3.596.097 1.198.033 2.397.1 3.596.176.184.012.324.17.313.352a.334.334 0 0 1-.313.309c-1.199.075-2.398.143-3.596.176-1.199.037-2.398.082-3.596.097-1.2.022-2.398.031-3.597.03-1.198-.015-2.397-.067-3.596-.26a.38.38 0 0 1-.317-.434.383.383 0 0 1 .317-.313" fill="#717791"/></g></svg>