<svg width="36" height="42" viewBox="0 0 36 42" xmlns="http://www.w3.org/2000/svg"><title>Group 19</title><g fill="none" fill-rule="evenodd"><path d="M9.322 25.038H7.215c-2.742 0-4.965-2.195-4.965-4.904 0-2.708 2.223-4.904 4.965-4.904h2.107v9.808z" fill="#B8D4FF"/><path d="M9.322 25.038H7.215c-2.742 0-4.965-2.195-4.965-4.904 0-2.708 2.223-4.904 4.965-4.904h2.107v9.808z" stroke="#717791" stroke-width="3" stroke-linecap="round" stroke-linejoin="round"/><path d="M28.179 25.038h2.106c2.742 0 4.966-2.195 4.966-4.904 0-2.708-2.224-4.904-4.966-4.904H28.18v9.808z" fill="#B8D4FF"/><path d="M34.217 17.605c-.53-.306-.915-.625-1.348-.905a4.645 4.645 0 0 0-2.131-.694c-.246-.022-.487-.009-.798-.008-.586.005-1.172.005-1.759-.015h-.002l.762-.753c.019 3.27-.003 6.539-.007 9.808l-.755-.746 1.295.003c.43-.003.883.019 1.221-.023.366-.041.714-.135 1.082-.2a5.34 5.34 0 0 1 1.237-.154h.018a.308.308 0 0 1 .286.422c-.204.493-.601.826-1.043 1.045-.442.23-.94.335-1.435.372-.522.04-.934.015-1.366.024l-1.295.003a.749.749 0 0 1-.756-.742v-.004c-.005-3.269-.026-6.539-.007-9.808a.762.762 0 0 1 .748-.752h.017a41.28 41.28 0 0 1 1.759-.016c.275.005.622.002.96.054.334.043.666.113.984.223.64.206 1.232.54 1.74.96.509.41.935.95 1.05 1.61a.294.294 0 0 1-.241.34.303.303 0 0 1-.2-.036l-.016-.008zm.232 4.266c.008-.373.08-.694.139-1.026l.088-.5c.029-.17.046-.34.09-.517l.012-.047a.483.483 0 0 1 .933-.016c.12.412.133.85.067 1.274-.066.424-.214.843-.506 1.176a.474.474 0 0 1-.662.046.459.459 0 0 1-.162-.358v-.032z" fill="#717791"/><path d="M29.336 13.14c-.006-.47.017-.978-.013-1.416l-.033-.67c-.007-.224-.061-.443-.09-.664-.113-.89-.4-1.746-.735-2.574-.74-1.627-1.85-3.117-3.312-4.187-.704-.57-1.52-.976-2.338-1.357-.846-.314-1.711-.605-2.615-.705-.895-.146-1.81-.13-2.712-.057l-.672.102-.335.052-.33.084-.657.167-.638.23c-1.706.611-3.204 1.72-4.385 3.072a10.637 10.637 0 0 0-2.311 4.79c-.058.444-.163.882-.162 1.332l-.035.67v.718l.002 2.87c-.001.957.05 1.914.08 2.87.012.958.059 1.915-.24 2.871a.62.62 0 0 1-1.18 0c-.299-.956-.252-1.913-.24-2.87.03-.957.082-1.914.08-2.871l.002-2.87v-.718l.04-.763c.003-.511.116-1.012.187-1.516a12.097 12.097 0 0 1 2.64-5.458c1.345-1.54 3.053-2.795 4.996-3.493l.728-.26.75-.19.375-.094.382-.06.764-.114c1.026-.084 2.064-.098 3.082.067 1.028.118 2.015.445 2.976.808.932.43 1.857.9 2.658 1.545C27.7 3.7 28.978 5.38 29.823 7.234c.389.942.714 1.919.85 2.931.034.252.092.503.104.757l.04.763c.033.517.01.968.019 1.455a.745.745 0 0 1-.738.752.746.746 0 0 1-.762-.729v-.023zM18.65 37.771c2.341-.037 4.681-.78 6.516-2.229a10.97 10.97 0 0 0 2.384-2.52c.656-.96 1.12-2.038 1.418-3.152.168-.554.235-1.132.308-1.704l.046-.866c.009-.298.003-.616.005-.923l.004-3.716.005-3.715c.004-.62.002-1.238.04-1.858.05-.62.046-1.239.262-1.858a.476.476 0 0 1 .897 0c.215.62.21 1.238.26 1.858.039.62.037 1.239.041 1.858l.004 3.715.005 3.716c-.002.312.005.613-.004.934l-.05.989c-.078.654-.158 1.313-.346 1.949-.338 1.276-.869 2.51-1.615 3.609a12.472 12.472 0 0 1-2.72 2.889c-2.102 1.652-4.796 2.485-7.46 2.506a.745.745 0 0 1-.755-.735.745.745 0 0 1 .737-.747h.019z" fill="#717791"/><path d="M21.334 39.949h-3.812a1.47 1.47 0 0 1-1.48-1.462 1.47 1.47 0 0 1 1.48-1.46h3.812c.817 0 1.48.653 1.48 1.46a1.47 1.47 0 0 1-1.48 1.462" fill="#FFF"/><path d="M21.334 39.949h-3.812a1.47 1.47 0 0 1-1.48-1.462 1.47 1.47 0 0 1 1.48-1.46h3.812c.817 0 1.48.653 1.48 1.46a1.47 1.47 0 0 1-1.48 1.462z" stroke="#717791" stroke-width="3" stroke-linecap="round" stroke-linejoin="round"/></g></svg>