<?xml version="1.0" encoding="UTF-8"?>
<svg width="51px" height="40px" viewBox="0 0 51 40" version="1.1" xmlns="http://www.w3.org/2000/svg" xmlns:xlink="http://www.w3.org/1999/xlink">
    <!-- Generator: Sketch 52.6 (67491) - http://www.bohemiancoding.com/sketch -->
    <title>Group 39</title>
    <desc>Created with Sketch.</desc>
    <g id="Features" stroke="none" stroke-width="1" fill="none" fill-rule="evenodd">
        <g id="Features-(desktop)" transform="translate(-409.000000, -8466.000000)">
            <g id="Group-51" transform="translate(100.000000, 7363.000000)">
                <g id="Group-39" transform="translate(310.000000, 1103.000000)">
                    <path d="M36.3221,23.3814 C36.3121,23.5234 36.3041,23.6664 36.2991,23.8084" id="Fill-1" fill="#93B9F4"></path>
                    <path d="M40.6815,5.878 C36.6165,6.049 29.4925,3.66 24.4805,0 C19.4695,3.66 12.3445,6.049 8.2795,5.878 C8.4075,25.539 9.7475,31.452 24.4805,40 C39.2125,31.452 40.5545,25.539 40.6815,5.878" id="Fill-3" fill="#3F72BA"></path>
                    <path d="M39.5799,6.6055 C35.7909,6.7565 29.1509,4.6505 24.4799,1.4245 C19.8099,4.6505 13.1699,6.7565 9.3819,6.6055 C9.4999,23.9355 10.7499,29.1475 24.4799,36.6825 C38.2109,29.1475 39.4609,23.9355 39.5799,6.6055" id="Fill-5" fill="#E5EEFD"></path>
                    <path d="M39.5799,6.6055 C35.7909,6.7565 29.1509,4.6505 24.4799,1.4245 C19.8099,4.6505 13.1699,6.7565 9.3819,6.6055 C9.4999,23.9355 10.7499,29.1475 24.4799,36.6825 C38.2109,29.1475 39.4609,23.9355 39.5799,6.6055 Z" id="Stroke-7" stroke="#717791" stroke-width="2.5" stroke-linecap="round" stroke-linejoin="round"></path>
                    <path d="M24.4803,33.9903 C18.4343,30.5693 15.5313,27.0653 13.9383,23.8133 C12.3183,20.5023 11.8723,16.0823 11.7583,8.9303 C15.6353,8.7183 20.5083,6.4843 24.4803,4.2013 C28.4533,6.4853 33.3263,8.7193 37.2023,8.9303 C37.0883,16.0823 36.6423,20.5023 35.0223,23.8133 C33.4303,27.0653 30.5263,30.5693 24.4803,33.9903" id="Fill-9" fill="#FFFFFF"></path>
                    <path d="M22.868,33.5562 C20.345,33.0582 18.384,31.4482 16.587,29.7202 C14.782,27.9732 13.265,25.8882 12.246,23.4952 C11.253,21.0772 10.875,18.5822 10.672,16.1642 C10.487,13.7362 10.452,11.3402 10.509,8.9542 L10.509,8.9502 C10.52,8.3632 10.927,7.8762 11.47,7.7382 L11.69,7.6822 C12.257,7.5382 12.845,7.5582 13.461,7.5542 C14.075,7.5542 14.709,7.5462 15.371,7.5722 L15.384,7.5722 C15.774,7.5882 16.078,7.9172 16.062,8.3072 C16.054,8.5392 15.931,8.7442 15.752,8.8662 C15.175,9.2562 14.553,9.5642 13.899,9.8112 C13.247,10.0532 12.552,10.2502 11.827,10.1782 L13.009,8.9102 L13.009,8.9142 C13.148,11.2652 13.251,13.6102 13.496,15.9012 C13.734,18.1882 14.085,20.4352 14.876,22.4212 C15.669,24.4132 16.933,26.2722 18.446,27.9002 C19.968,29.5622 21.843,30.7922 23.337,32.7962 L23.343,32.8032 C23.5,33.0142 23.456,33.3132 23.245,33.4702 C23.134,33.5542 22.995,33.5802 22.868,33.5562" id="Fill-11" fill="#717791"></path>
                    <path d="M20.1102,5.7652 C20.6462,5.1162 21.2592,4.6592 21.8902,4.2342 C22.5202,3.8102 23.1652,3.4232 23.8572,3.1182 L24.0622,3.0282 C24.4132,2.8742 24.8052,2.9232 25.1032,3.1182 L25.1042,3.1182 C27.0422,4.2302 29.0342,5.2442 31.0752,6.0732 C33.1092,6.8902 35.2252,7.5512 37.2682,7.6822 L37.2702,7.6822 L37.2872,7.6832 C37.9482,7.7422 38.4472,8.2992 38.4522,8.9502 C38.4622,11.4692 38.4362,14.0012 38.1632,16.5622 C37.8822,19.1052 37.4682,21.7652 36.2262,24.2362 C35.0262,26.6412 33.3172,28.7532 31.3442,30.4702 C29.3622,32.1842 27.1042,33.4962 24.7052,34.3862 C24.4652,34.4742 24.2012,34.3532 24.1122,34.1142 C24.0422,33.9252 24.1032,33.7192 24.2512,33.5982 L24.2562,33.5942 C26.1972,32.0012 28.1262,30.5092 29.8222,28.8192 C31.5412,27.1612 32.9762,25.2612 33.9312,23.1412 C34.8472,21.0722 35.2752,18.7102 35.5122,16.2932 C35.7392,13.8722 35.8522,11.3952 35.9522,8.9112 L37.1332,10.1782 L37.1312,10.1782 C34.6112,10.0102 32.3242,9.2612 30.1362,8.3902 C27.9532,7.5032 25.8742,6.4412 23.8582,5.2862 L25.1032,5.2862 C24.4302,5.6962 23.7082,6.0232 22.9722,6.3132 C22.2372,6.6042 21.4852,6.8622 20.6552,6.9282 C20.2782,6.9572 19.9492,6.6762 19.9192,6.2992 C19.9052,6.1152 19.9642,5.9432 20.0722,5.8112 L20.1102,5.7652 Z" id="Fill-13" fill="#717791"></path>
                    <path d="M17.4481,6.6163 C17.4011,6.3483 17.4271,6.2763 17.4691,6.2413 L17.5931,6.1323 C17.6311,6.0913 17.6861,6.0913 17.7321,6.0693 C17.7811,6.0533 17.8381,6.0553 17.8991,6.0703 L17.9661,6.0863 C18.7661,6.2833 19.2571,7.0933 19.0591,7.8943 C19.0151,8.0743 18.9371,8.2423 18.8391,8.3873 C18.8011,8.4413 18.7581,8.4823 18.7081,8.5053 C18.6551,8.5223 18.6111,8.5613 18.5511,8.5593 L18.3771,8.5683 C18.3191,8.5723 18.2471,8.5393 18.1001,8.3103 C17.7731,7.8013 17.5621,7.2503 17.4601,6.6893 L17.4481,6.6163 Z" id="Fill-15" fill="#717791"></path>
                    <path d="M23.0116,23.6954 C22.6996,23.6954 22.3856,23.5754 22.1476,23.3374 L17.9096,19.1004 C17.4326,18.6234 17.4326,17.8484 17.9096,17.3714 C18.3876,16.8934 19.1616,16.8934 19.6396,17.3714 L23.0116,20.7434 L30.2716,13.4844 C30.7486,13.0064 31.5236,13.0064 32.0006,13.4844 C32.4786,13.9614 32.4786,14.7364 32.0006,15.2134 L23.8766,23.3374 C23.6376,23.5754 23.3246,23.6954 23.0116,23.6954" id="Fill-17" fill="#FFFFFF"></path>
                    <path d="M30.5448,13.2779 C31.0098,13.0209 31.6068,13.0899 32.0008,13.4839 C32.4788,13.9619 32.4788,14.7359 32.0008,15.2139 L23.8768,23.3369 C23.6378,23.5759 23.3248,23.6949 23.0118,23.6949 C22.6988,23.6949 22.3858,23.5759 22.1478,23.3369 L17.9098,19.1009 C17.4328,18.6229 17.4328,17.8489 17.9098,17.3709 C18.3878,16.8939 19.1618,16.8939 19.6398,17.3709 L23.0118,20.7429 L28.1978,15.5569" id="Fill-19" fill="#96C0FF"></path>
                    <path d="M30.2957,12.8277 C30.6217,12.4407 31.2017,12.2797 31.7407,12.3927 C32.2907,12.5017 32.7627,12.8987 33.0207,13.4017 C33.2827,13.9077 33.3277,14.5147 33.1417,15.0567 C33.0497,15.3277 32.9007,15.5807 32.7097,15.7927 L32.3437,16.1777 L29.6137,19.0147 L26.8847,21.8527 L25.5197,23.2717 L24.8357,23.9787 L24.6497,24.1687 C24.5367,24.2787 24.4127,24.3777 24.2787,24.4637 C24.0127,24.6367 23.7097,24.7537 23.3977,24.8067 C22.7747,24.9157 22.1047,24.7617 21.5897,24.3777 C21.2877,24.1397 21.2317,24.0487 21.1047,23.9347 L20.7517,23.5907 L19.3447,22.2147 L17.9377,20.8387 L17.2327,20.1507 L17.0577,19.9787 C16.9667,19.8887 16.8407,19.7467 16.7527,19.6167 C16.5647,19.3467 16.4327,19.0357 16.3667,18.7137 C16.2317,18.0687 16.3777,17.3717 16.7587,16.8287 C17.1307,16.2887 17.7367,15.9057 18.3917,15.8057 C19.0407,15.6997 19.7337,15.8697 20.2617,16.2737 C20.5737,16.5267 20.6147,16.6007 20.7467,16.7227 L21.0957,17.0697 L23.8847,19.8477 L23.8957,19.8597 L22.1277,19.8597 L27.7397,15.0987 C28.0137,14.8677 28.4237,14.9007 28.6557,15.1747 C28.8637,15.4207 28.8587,15.7767 28.6557,16.0147 L23.8957,21.6267 C23.4837,22.1127 22.7547,22.1727 22.2697,21.7607 L22.2127,21.7097 L22.1277,21.6267 L22.1157,21.6157 L19.3387,18.8267 L18.7627,18.2497 C18.7697,18.2537 18.7757,18.2527 18.7757,18.2527 C18.7877,18.2507 18.7897,18.2377 18.7847,18.2347 L18.7777,18.2317 C18.7817,18.2377 18.7647,18.2197 18.7877,18.2477 L18.9597,18.4237 L19.6487,19.1267 L21.0247,20.5347 L22.3997,21.9427 L22.9717,22.5287 C22.9827,22.5407 23.0017,22.5507 23.0257,22.5507 C23.0367,22.5507 23.0467,22.5487 23.0567,22.5447 L23.0727,22.5357 L23.2337,22.3787 L23.9417,21.6937 L25.3607,20.3287 L28.1977,17.5997 L31.0357,14.8697 L31.3617,14.5557 C31.3937,14.5257 31.4167,14.4937 31.4337,14.4547 C31.4677,14.3777 31.4697,14.2787 31.4357,14.1987 C31.3337,14.0507 31.2737,13.8797 30.7937,13.7277 L30.5317,13.6457 C30.2627,13.5607 30.1137,13.2727 30.1987,13.0037 C30.2197,12.9377 30.2537,12.8777 30.2957,12.8277" id="Fill-21" fill="#717791"></path>
                    <path d="M42.1717,24.0406 C37.7507,25.0126 31.4597,25.6206 24.4807,25.6206 C11.0987,25.6206 0.2497,23.3876 0.2497,20.6336 C0.2497,19.3266 2.6927,18.1376 6.6887,17.2486" id="Stroke-23" stroke="#96C0FF" stroke-width="2.5" stroke-linecap="round" stroke-linejoin="round"></path>
                    <path d="M41.7528,17.1358 C46.0568,18.0358 48.7108,19.2708 48.7108,20.6338 C48.7108,21.7458 46.9398,22.7738 43.9468,23.6028" id="Stroke-25" stroke="#96C0FF" stroke-width="2.5" stroke-linecap="round" stroke-linejoin="round"></path>
                    <path d="M6.8846,35.6026 C7.2646,34.0116 8.5396,31.6976 10.5006,28.9676" id="Stroke-27" stroke="#96C0FF" stroke-width="2.5" stroke-linecap="round" stroke-linejoin="round"></path>
                    <path d="M7.0448,37.4517 C6.9628,37.3487 6.8988,37.2297 6.8548,37.0957" id="Stroke-29" stroke="#96C0FF" stroke-width="2.5" stroke-linecap="round" stroke-linejoin="round"></path>
                    <path d="M37.8817,4.1651 C39.8207,3.2901 41.2237,3.0951 41.8467,3.7361 C43.7677,5.7091 37.5497,14.8751 27.9577,24.2071 C19.8457,32.1011 11.9187,37.5851 8.5047,37.8941" id="Stroke-31" stroke="#96C0FF" stroke-width="2.5" stroke-linecap="round" stroke-linejoin="round"></path>
                    <path d="M12.4393,17.9278 C14.2203,19.9568 16.2333,22.0778 18.4223,24.2078 C28.0133,33.5398 37.3453,39.5048 39.2663,37.5308 C40.1923,36.5798 39.2273,33.9578 36.9063,30.4528" id="Stroke-33" stroke="#96C0FF" stroke-width="2.5" stroke-linecap="round" stroke-linejoin="round"></path>
                    <path d="M11.0789,16.3419 C11.1399,16.4139 11.1999,16.4859 11.2609,16.5579" id="Stroke-35" stroke="#96C0FF" stroke-width="2.5" stroke-linecap="round" stroke-linejoin="round"></path>
                    <path d="M8.87,4.338 C6.739,3.318 5.196,3.055 4.533,3.736 C3.292,5.012 5.454,9.297 9.73,14.689" id="Stroke-37" stroke="#96C0FF" stroke-width="2.5" stroke-linecap="round" stroke-linejoin="round"></path>
                </g>
            </g>
        </g>
    </g>
</svg>