<?xml version="1.0" encoding="UTF-8"?>
<svg width="30px" height="53px" viewBox="0 0 30 53" version="1.1" xmlns="http://www.w3.org/2000/svg" xmlns:xlink="http://www.w3.org/1999/xlink">
    <!-- Generator: Sketch 52.6 (67491) - http://www.bohemiancoding.com/sketch -->
    <title>Group 26</title>
    <desc>Created with Sketch.</desc>
    <defs>
        <polygon id="path-1" points="4.53605286e-05 0.371367671 29.946 0.371367671 29.946 53 4.53605286e-05 53"></polygon>
    </defs>
    <g id="Features" stroke="none" stroke-width="1" fill="none" fill-rule="evenodd">
        <g id="Features-(desktop)" transform="translate(-720.000000, -8453.000000)">
            <g id="Group-51" transform="translate(100.000000, 7363.000000)">
                <g id="Group-26" transform="translate(620.000000, 1089.000000)">
                    <path d="M28.591,28.709 C28.581,28.859 28.573,29.009 28.566,29.16" id="Fill-1" fill="#93B9F4"></path>
                    <path d="M28.6056,7.7203 L28.6056,46.8553 C28.6056,49.8573 26.1726,52.2873 23.1736,52.2873 L6.7306,52.2873 C4.2626,52.2873 2.1796,50.6433 1.5186,48.3893 C1.3746,47.9033 1.2986,47.3883 1.2986,46.8553 L1.2986,7.7203 C1.2986,7.4083 1.3256,7.1023 1.3766,6.8043 C1.8116,4.2403 4.0436,2.2883 6.7306,2.2883 L23.1736,2.2883 C25.8616,2.2883 28.0936,4.2403 28.5256,6.8043 C28.5796,7.1023 28.6056,7.4083 28.6056,7.7203" id="Fill-3" fill="#FFFFFF"></path>
                    <path d="M28.6056,46.1172 L28.6056,46.8552 C28.6056,49.8572 26.1726,52.2872 23.1736,52.2872 L6.7306,52.2872 C4.2626,52.2872 2.1796,50.6432 1.5186,48.3892 C1.3746,47.9032 1.2986,47.3882 1.2986,46.8552 L1.2986,46.1172 L28.6056,46.1172 Z" id="Fill-5" fill="#E5EEFD"></path>
                    <path d="M28.5246,6.8043 L1.3766,6.8043 C1.8106,4.2393 4.0426,2.2883 6.7306,2.2883 L23.1726,2.2883 C25.8606,2.2883 28.0926,4.2393 28.5246,6.8043" id="Fill-7" fill="#E5EEFD"></path>
                    <path d="M0.047,16.3253 C-0.017,16.2783 0.024,16.2323 0.089,16.1853 C0.151,16.1393 0.235,16.0933 0.374,16.0463 C0.997,15.8363 1.642,15.8513 2.221,16.0463 C2.359,16.0933 2.443,16.1393 2.505,16.1853 C2.57,16.2323 2.611,16.2783 2.547,16.3253 C1.784,16.8813 0.772,16.8513 0.047,16.3253" id="Fill-9" fill="#717791"></path>
                    <g id="Group-13" transform="translate(0.000000, 0.628600)">
                        <mask id="mask-2" fill="white">
                            <use xlink:href="#path-1"></use>
                        </mask>
                        <g id="Clip-12"></g>
                        <path d="M0.5973,14.2758 C0.4093,12.8178 0.2843,11.3588 0.1583,9.9008 C0.1013,9.1708 0.0393,8.4418 0.0483,7.7128 L0.0463,7.1658 L0.0743,6.5108 C0.1143,6.0648 0.1983,5.6218 0.3223,5.1898 C0.8233,3.4588 2.0593,1.9688 3.6613,1.1488 C4.4593,0.7348 5.3443,0.4858 6.2393,0.4218 C6.7223,0.3888 7.0573,0.3978 7.4243,0.3958 L8.5173,0.3948 L17.2693,0.3818 L21.6453,0.3758 C22.4073,0.3898 23.0093,0.3338 23.9853,0.4248 C24.8813,0.5318 25.7573,0.8238 26.5373,1.2768 C28.1033,2.1768 29.2773,3.7288 29.7023,5.4908 C29.8133,5.9288 29.8773,6.3798 29.8913,6.8298 C29.9153,7.2948 29.8993,7.5868 29.9043,7.9738 L29.9083,10.1618 L29.9203,18.9128 L29.9463,36.4158 L29.9463,45.1668 L29.9443,46.2688 C29.9373,46.7228 29.8893,47.1748 29.8003,47.6228 C29.6143,48.5138 29.2413,49.3658 28.7183,50.1088 C27.6803,51.6008 26.0163,52.6428 24.2123,52.9128 C23.9883,52.9528 23.7623,52.9778 23.5353,52.9828 C23.2983,52.9968 23.0843,53.0028 22.9173,52.9998 L21.8243,52.9988 L19.6363,52.9988 L15.2603,52.9978 C12.3193,52.9918 9.4783,53.0098 6.4563,52.9718 C4.6413,52.9068 2.8723,52.0548 1.6843,50.6928 C1.0863,50.0148 0.6253,49.2148 0.3423,48.3558 C0.2013,47.9248 0.1043,47.4808 0.0493,47.0328 C0.0003,46.5768 -0.0027,46.1158 0.0013,45.7858 L0.0303,37.0348 L0.0593,28.2838 L0.0743,23.9078 C0.0593,22.4488 0.1423,20.9908 0.6923,19.5318 C0.8183,19.1978 1.1913,19.0288 1.5253,19.1548 C1.7053,19.2228 1.8383,19.3658 1.9023,19.5318 C2.4523,20.9908 2.5353,22.4488 2.5203,23.9078 L2.5343,28.2838 L2.5643,37.0348 L2.5933,45.7858 C2.5913,46.1848 2.6013,46.4548 2.6303,46.7238 C2.6663,46.9998 2.7263,47.2698 2.8143,47.5318 C2.9923,48.0548 3.2773,48.5428 3.6463,48.9548 C4.3853,49.7858 5.4573,50.2918 6.5623,50.3248 L15.2603,50.3218 L19.6363,50.3208 L21.8243,50.3198 L22.9173,50.3198 C23.1163,50.3228 23.2663,50.3158 23.3933,50.3068 C23.5313,50.3058 23.6673,50.2908 23.8033,50.2648 C24.8873,50.1028 25.8923,49.4738 26.5223,48.5698 C26.8383,48.1208 27.0623,47.6088 27.1743,47.0718 C27.2263,46.8018 27.2543,46.5288 27.2613,46.2528 L27.2623,45.1668 L27.2623,36.4158 L27.2873,18.9128 L27.3003,10.1618 L27.3043,7.9738 C27.3003,7.6308 27.3143,7.1938 27.2953,6.9298 C27.2883,6.6518 27.2503,6.3758 27.1823,6.1078 C26.9273,5.0308 26.2053,4.0678 25.2433,3.5108 C24.7633,3.2308 24.2283,3.0498 23.6763,2.9828 C23.2013,2.9238 22.3403,2.9538 21.6453,2.9448 L17.2693,2.9388 L8.5173,2.9258 L7.4243,2.9238 C7.0613,2.9228 6.6663,2.9198 6.4223,2.9398 C5.8633,2.9788 5.3163,3.1308 4.8183,3.3858 C3.8183,3.8918 3.0363,4.8268 2.7243,5.9018 C2.6473,6.1718 2.5953,6.4468 2.5683,6.7268 L2.5483,7.1658 L2.5463,7.7128 C2.5543,8.4418 2.4933,9.1708 2.4363,9.9008 C2.3103,11.3588 2.1853,12.8178 1.9963,14.2758 C1.9473,14.6628 1.5933,14.9348 1.2063,14.8848 C0.8823,14.8428 0.6383,14.5858 0.5973,14.2758" id="Fill-11" fill="#717791" mask="url(#mask-2)"></path>
                    </g>
                    <path d="M13.1193,3.8638 C13.4383,3.6168 13.7583,3.5158 14.0773,3.4428 C14.3963,3.3678 14.7163,3.3818 15.0353,3.3948 C15.6733,3.4358 16.3123,3.5388 16.9513,3.8638 C17.3733,4.0788 17.5423,4.5968 17.3273,5.0198 C17.2413,5.1888 17.1073,5.3168 16.9513,5.3968 C16.3123,5.7208 15.6733,5.8238 15.0353,5.8648 C14.7163,5.8788 14.3963,5.8928 14.0773,5.8178 C13.7583,5.7438 13.4383,5.6428 13.1193,5.3968 C12.6963,5.0688 12.6193,4.4608 12.9463,4.0368 C12.9963,3.9718 13.0573,3.9118 13.1193,3.8638" id="Fill-14" fill="#717791"></path>
                    <path d="M16.921,50.4835 C16.878,51.0955 16.417,51.6185 15.832,51.8735 C15.238,52.1315 14.55,52.0825 13.939,51.8595 C12.698,51.4175 11.893,50.0145 12.14,48.7445 C12.341,47.4565 13.475,46.4805 14.672,46.4285 C15.258,46.3825 15.853,46.5625 16.292,46.9095 C16.731,47.2575 16.998,47.7735 17.015,48.2765 C17.024,48.5305 16.825,48.7435 16.571,48.7515 C16.473,48.7545 16.382,48.7275 16.306,48.6785 L16.203,48.6125 C15.649,48.2555 15.24,48.2815 14.938,48.3905 C14.638,48.5155 14.507,48.8255 14.552,49.0355 C14.587,49.2575 14.712,49.4045 14.877,49.4955 C14.958,49.5485 15.056,49.5365 15.178,49.5905 C15.311,49.6405 15.493,49.7145 15.892,49.7255 L16.242,49.7345 C16.629,49.7455 16.933,50.0665 16.922,50.4535 C16.922,50.4625 16.921,50.4745 16.921,50.4835" id="Fill-16" fill="#717791"></path>
                    <path d="M25.8175,45.6373 C26.0435,45.4483 26.2705,45.3413 26.4965,45.2293 C26.7225,45.1363 26.9485,45.0613 27.1755,45.0163 C27.6285,44.9253 28.0805,44.8743 28.5335,44.9643 C29.2235,45.1013 29.6715,45.7723 29.5345,46.4623 C29.4315,46.9833 29.0235,47.3663 28.5335,47.4643 C28.0805,47.5543 27.6285,47.5033 27.1755,47.4113 C26.9485,47.3673 26.7225,47.2923 26.4965,47.1993 C26.2705,47.0873 26.0435,46.9803 25.8175,46.7913 C25.4985,46.5253 25.4565,46.0513 25.7215,45.7333 C25.7505,45.6993 25.7845,45.6653 25.8175,45.6373" id="Fill-18" fill="#717791"></path>
                    <path d="M21.1325,45.6299 C21.2585,45.2709 21.3835,45.1119 21.5095,45.0229 C21.6345,44.9589 21.7605,44.8339 21.8855,45.4579 C21.9885,45.9669 21.9805,46.4909 21.8855,46.9699 C21.7605,47.5939 21.6345,47.4699 21.5095,47.4059 C21.3835,47.3169 21.2585,47.1569 21.1325,46.7989 C20.9945,46.4049 21.0055,45.9949 21.1325,45.6299" id="Fill-20" fill="#717791"></path>
                    <path d="M1.3327,44.9639 C2.8157,44.8739 4.2987,44.8469 5.7827,44.8129 C7.2657,44.7889 8.7487,44.7989 10.2317,44.8129 C11.7157,44.8419 13.1987,44.8649 14.6817,44.9269 C16.1657,45.0159 17.6487,44.8329 19.1317,45.7299 C19.3987,45.8919 19.4847,46.2399 19.3227,46.5069 C19.2747,46.5879 19.2067,46.6529 19.1317,46.6989 C17.6487,47.5959 16.1657,47.4119 14.6817,47.5019 C13.1987,47.5639 11.7157,47.5859 10.2317,47.6149 C8.7487,47.6289 7.2657,47.6389 5.7827,47.6159 C4.2987,47.5819 2.8157,47.5549 1.3327,47.4639 C0.6427,47.4219 0.1167,46.8279 0.1587,46.1379 C0.1977,45.4989 0.7097,45.0019 1.3327,44.9639" id="Fill-22" fill="#717791"></path>
                    <path d="M4.4225,6.3096 C6.4315,5.6216 8.4415,5.7106 10.4505,5.6446 L16.4785,5.5326 C20.4965,5.5106 24.5145,5.4896 28.5335,5.6146 C29.2235,5.6366 29.7655,6.2136 29.7445,6.9036 C29.7235,7.5666 29.1865,8.0926 28.5335,8.1146 C24.5145,8.2406 20.4965,8.2186 16.4785,8.1976 L10.4505,8.0846 C8.4415,8.0186 6.4315,8.1086 4.4225,7.4206 C4.1155,7.3156 3.9525,6.9816 4.0575,6.6746 C4.1185,6.4966 4.2585,6.3666 4.4225,6.3096" id="Fill-24" fill="#717791"></path>
                </g>
            </g>
        </g>
    </g>
</svg>