<?xml version="1.0" encoding="UTF-8"?>
<svg width="43px" height="44px" viewBox="0 0 43 44" version="1.1" xmlns="http://www.w3.org/2000/svg" xmlns:xlink="http://www.w3.org/1999/xlink">
    <!-- Generator: Sketch 52.6 (67491) - http://www.bohemiancoding.com/sketch -->
    <title>Group 20</title>
    <desc>Created with Sketch.</desc>
    <defs>
        <polygon id="path-1" points="0.000279714899 0.2052 42.148 0.2052 42.148 36.9999091 0.000279714899 36.9999091"></polygon>
    </defs>
    <g id="Features" stroke="none" stroke-width="1" fill="none" fill-rule="evenodd">
        <g id="Features-(desktop)" transform="translate(-407.000000, -7939.000000)">
            <g id="Group-51" transform="translate(100.000000, 7363.000000)">
                <g id="Group-20" transform="translate(307.000000, 577.000000)">
                    <polygon id="Fill-1" fill="#FFFFFF" points="35.6969 15.6287 4.8489 15.6287 7.8779 0.5547 32.6679 0.5547"></polygon>
                    <g id="Group-19" transform="translate(0.000000, 0.139400)">
                        <polygon id="Stroke-2" stroke="#717791" stroke-width="3" stroke-linecap="round" stroke-linejoin="round" points="35.6969 15.4893 4.8489 15.4893 7.8779 0.4153 32.6679 0.4153"></polygon>
                        <path d="M1.4381,40.128 C1.0731,39.722 0.8701,39.17 0.9221,38.579 L3.6251,8.309 C3.6971,7.503 4.3731,6.884 5.1821,6.884 L36.9221,6.884 C37.3541,6.884 37.7141,7.214 37.7531,7.644 L40.4861,38.42 C40.5791,39.463 39.7581,40.36 38.7111,40.36 L2.9811,40.36" id="Fill-4" fill="#FFFFFF"></path>
                        <g id="Group-8" transform="translate(0.000000, 5.000000)">
                            <mask id="mask-2" fill="white">
                                <use xlink:href="#path-1"></use>
                            </mask>
                            <g id="Clip-7"></g>
                            <path d="M0.8683,35.6392 C0.5163,35.3002 0.2343,34.8622 0.1023,34.3662 C0.0353,34.1192 -0.0007,33.8622 0.0003,33.6042 L0.0043,33.0352 C0.0083,32.3192 0.0123,31.6032 0.0383,30.8892 C0.0763,29.4602 0.1393,28.0342 0.2243,26.6092 C0.3793,23.7592 0.6363,20.9172 0.8723,18.0742 L1.5903,9.5452 L1.9493,5.2812 L2.1323,3.1232 C2.2533,1.7082 3.4683,0.4992 4.8893,0.3822 L22.1513,0.2812 L30.7093,0.2372 L34.9893,0.2152 L36.0593,0.2102 L36.5943,0.2072 L36.8613,0.2052 L36.9403,0.2052 L37.1403,0.2152 C37.2743,0.2272 37.4083,0.2482 37.5383,0.2822 C38.0633,0.4122 38.5393,0.7162 38.8763,1.1342 C39.0463,1.3422 39.1823,1.5782 39.2793,1.8312 C39.3263,1.9582 39.3643,2.0882 39.3903,2.2202 C39.4163,2.3362 39.4353,2.5362 39.4353,2.5362 L39.5353,3.6012 L41.0423,20.6532 L41.7963,29.1792 L41.9733,31.3112 L42.0623,32.3772 L42.1063,32.9102 C42.1193,33.1132 42.1393,33.1842 42.1483,33.5992 C42.1503,34.9942 41.2273,36.3072 39.9263,36.7792 C39.6053,36.9022 39.2633,36.9742 38.9233,36.9922 C38.7223,37.0032 38.6353,36.9992 38.5553,36.9992 L38.2873,36.9972 L37.2183,36.9912 L20.0993,36.8902 C14.3933,36.8812 8.6873,36.8642 2.9813,35.7572 C2.7633,35.7152 2.6193,35.5022 2.6623,35.2842 C2.6943,35.1172 2.8253,34.9942 2.9813,34.9642 C8.6873,33.8572 14.3933,33.8402 20.0993,33.8302 L37.2183,33.7302 L38.2873,33.7232 L38.5553,33.7222 C38.6533,33.7222 38.7453,33.7202 38.7223,33.7172 C38.7383,33.7182 38.7493,33.7132 38.7603,33.7062 C38.8073,33.6862 38.8433,33.6242 38.8363,33.5822 L38.4493,29.4762 L37.6883,20.9512 L36.1663,3.9012 L36.0773,2.8352 C36.0703,2.7492 36.0773,2.8572 36.0873,2.8862 C36.0963,2.9302 36.1093,2.9742 36.1263,3.0172 C36.1583,3.1042 36.2053,3.1842 36.2633,3.2542 C36.3773,3.3922 36.5353,3.4952 36.7153,3.5392 C36.7603,3.5502 36.8053,3.5582 36.8493,3.5612 C36.8713,3.5642 36.8943,3.5652 36.9163,3.5642 L36.8613,3.5632 L36.5943,3.5622 L36.0593,3.5592 L34.9893,3.5542 L30.7093,3.5322 L22.1513,3.4882 L5.1763,3.4012 C5.1603,3.4002 5.1283,3.4162 5.1253,3.4422 L4.9253,5.5462 L4.5233,9.8072 L3.7183,18.3282 C3.4473,21.1682 3.1963,24.0102 2.8443,26.8432 C2.6753,28.2612 2.4853,29.6762 2.2693,31.0882 C2.1683,31.7962 2.0453,32.5012 1.9233,33.2062 L1.8363,33.7022 C1.8153,33.8012 1.8093,33.9022 1.8153,34.0042 C1.8283,34.2072 1.8853,34.4232 2.0083,34.6172 L2.0453,34.6762 C2.2733,35.0332 2.1673,35.5062 1.8103,35.7332 C1.5063,35.9272 1.1173,35.8792 0.8683,35.6392" id="Fill-6" fill="#717791" mask="url(#mask-2)"></path>
                        </g>
                        <polygon id="Fill-9" fill="#E5EEFD" points="4.8439 6.8863 10.2869 3.8813 7.8329 0.3603 32.6929 0.3603 30.8789 3.4543 37.0949 6.8803"></polygon>
                        <polygon id="Stroke-11" stroke="#717791" stroke-width="3" stroke-linecap="round" stroke-linejoin="round" points="4.8439 6.8863 10.2869 3.8813 7.8329 0.3603 32.6929 0.3603 30.8789 3.4543 37.0949 6.8803"></polygon>
                        <path d="M28.4689,14.104 L28.4689,17.541 C28.4689,21.987 24.4549,24.92 20.0089,24.92 L20.0079,24.92 C15.5609,24.92 12.3649,21.987 12.3649,17.541 L12.3649,14.104" id="Stroke-13" stroke="#717791" stroke-width="3" stroke-linecap="round" stroke-linejoin="round"></path>
                        <path d="M15.0782,15.6724 C15.0132,16.4254 14.4392,17.0674 13.7152,17.3794 C12.9802,17.6964 12.1302,17.6354 11.3752,17.3594 C9.8432,16.8124 8.8482,15.0814 9.1512,13.5104 C9.2832,12.7294 9.6842,12.0094 10.2482,11.4984 C10.8192,10.9944 11.5462,10.6814 12.2812,10.6394 C13.0062,10.5814 13.7442,10.8014 14.2912,11.2294 C14.8372,11.6584 15.1742,12.2964 15.2032,12.9214 C15.2182,13.2254 14.9832,13.4834 14.6792,13.4974 C14.5532,13.5034 14.4352,13.4664 14.3402,13.4004 L14.2292,13.3244 C13.5462,12.8524 13.0082,12.8564 12.5992,12.9944 C12.1922,13.1494 11.9962,13.5614 12.0452,13.8594 C12.0802,14.1724 12.2592,14.3974 12.5012,14.5224 C12.6202,14.5944 12.7622,14.5824 12.9302,14.6394 C13.1122,14.6944 13.3512,14.7684 13.8442,14.7624 L14.2302,14.7584 C14.6952,14.7534 15.0762,15.1254 15.0812,15.5894 C15.0812,15.6174 15.0802,15.6454 15.0782,15.6724" id="Fill-15" fill="#717791"></path>
                        <path d="M30.5924,15.6724 C30.5274,16.4254 29.9534,17.0674 29.2294,17.3794 C28.4934,17.6964 27.6444,17.6354 26.8894,17.3594 C25.3564,16.8124 24.3624,15.0814 24.6644,13.5104 C24.7974,12.7294 25.1984,12.0094 25.7624,11.4984 C26.3334,10.9944 27.0604,10.6814 27.7944,10.6394 C28.5204,10.5814 29.2584,10.8014 29.8054,11.2294 C30.3514,11.6584 30.6884,12.2964 30.7174,12.9214 C30.7314,13.2254 30.4964,13.4834 30.1924,13.4974 C30.0674,13.5034 29.9494,13.4664 29.8534,13.4004 L29.7434,13.3244 C29.0604,12.8524 28.5224,12.8564 28.1134,12.9944 C27.7064,13.1494 27.5104,13.5614 27.5594,13.8594 C27.5944,14.1724 27.7724,14.3974 28.0154,14.5224 C28.1344,14.5944 28.2764,14.5824 28.4444,14.6394 C28.6264,14.6944 28.8654,14.7684 29.3584,14.7624 L29.7444,14.7584 C30.2094,14.7534 30.5904,15.1254 30.5954,15.5894 C30.5954,15.6174 30.5944,15.6454 30.5924,15.6724" id="Fill-17" fill="#717791"></path>
                    </g>
                </g>
            </g>
        </g>
    </g>
</svg>