<?xml version="1.0" encoding="UTF-8"?>
<svg width="64px" height="52px" viewBox="0 0 64 52" version="1.1" xmlns="http://www.w3.org/2000/svg" xmlns:xlink="http://www.w3.org/1999/xlink">
    <!-- Generator: Sketch 52.6 (67491) - http://www.bohemiancoding.com/sketch -->
    <title>Group 16</title>
    <desc>Created with Sketch.</desc>
    <defs>
        <polygon id="path-1" points="0 0.301136808 63.813 0.301136808 63.813 48.6552159 0 48.6552159"></polygon>
    </defs>
    <g id="Features" stroke="none" stroke-width="1" fill="none" fill-rule="evenodd">
        <g id="Features-(desktop)" transform="translate(-720.000000, -7545.000000)">
            <g id="Group-51" transform="translate(100.000000, 7363.000000)">
                <g id="Group-16" transform="translate(620.000000, 181.000000)">
                    <path d="M27.4795,5.3073 C25.1335,5.1203 22.7835,5.5363 20.6435,6.5173 C17.4475,7.9823 12.8735,10.0783 11.6165,10.6443 C11.3945,10.7443 11.1845,10.8493 10.9725,10.9673 L6.7795,13.2933 C5.7245,13.8783 5.3005,15.1803 5.8105,16.2743 L8.7465,22.5773 L15.9685,20.6933 L16.5945,31.3773 L16.3005,48.4953 C16.2765,49.9143 17.4015,51.0873 18.8215,51.1223 L42.0375,51.6823 L47.0755,51.4843 C48.5295,51.4273 49.6905,50.2533 49.7325,48.7993 L50.4115,25.4193 L51.6935,24.5103 L57.4735,27.1803 L62.2505,15.5433 L43.2055,5.4113 L27.4795,5.3073 Z" id="Fill-1" fill="#A9EBC8"></path>
                    <path d="M47.9453,52.6672 C45.4133,52.7712 42.8883,52.5912 40.3603,52.5462 L32.7783,52.2992 C30.2513,52.2082 27.7233,52.1412 25.1973,52.0202 L17.6173,51.6882 C17.3813,51.6782 17.1983,51.4782 17.2093,51.2422 C17.2183,51.0112 17.4113,50.8312 17.6393,50.8332 L25.2263,50.9052 C27.7563,50.9182 30.2833,50.9862 32.8113,51.0292 L40.3963,51.1852 C42.9243,51.2752 45.4543,51.2292 47.9773,51.4682 C48.3073,51.5002 48.5503,51.7922 48.5183,52.1232 C48.4903,52.4262 48.2413,52.6552 47.9453,52.6672" id="Fill-3" fill="#717791"></path>
                    <g id="Group-7" transform="translate(0.000000, 0.699100)">
                        <mask id="mask-2" fill="white">
                            <use xlink:href="#path-1"></use>
                        </mask>
                        <g id="Clip-6"></g>
                        <path d="M13.0498,48.4095 C12.5708,46.0535 12.5328,43.7095 12.5608,41.3665 L12.6118,34.3375 C12.6238,31.9945 12.7088,29.6535 12.7548,27.3115 C12.8158,24.9705 12.9058,22.6285 13.0288,20.2885 L14.5028,21.3045 L14.5018,21.3045 L9.3968,23.4135 L8.1198,23.9405 C7.4048,24.2425 6.5278,24.1955 5.8528,23.7975 C5.5128,23.6025 5.2128,23.3295 4.9948,23.0005 C4.8948,22.8615 4.7748,22.6065 4.7438,22.5355 L4.6038,22.2205 L4.0398,20.9595 L1.7868,15.9165 L0.6598,13.3955 L0.3778,12.7645 L0.2368,12.4505 C0.1758,12.3145 0.0978,12.0985 0.0578,11.9155 C-0.1112,11.1415 0.0948,10.3035 0.6098,9.7045 C0.8618,9.4055 1.1938,9.1595 1.5438,9.0075 L2.1758,8.7295 L3.4408,8.1735 L5.9678,7.0615 L11.0248,4.8385 L21.1378,0.3905 C21.2848,0.3265 21.4458,0.2975 21.5968,0.3015 L42.8318,0.8665 L42.8408,0.8665 C42.9958,0.8705 43.1468,0.9105 43.2768,0.9765 L53.1458,5.9565 L58.0768,8.4465 L60.5428,9.6915 L61.7768,10.3135 L62.3928,10.6245 C62.7318,10.7925 63.0528,11.0565 63.2878,11.3695 C63.7708,11.9935 63.9328,12.8385 63.7258,13.6025 C63.6768,13.7835 63.5888,13.9935 63.5188,14.1295 L63.3618,14.4375 L63.0458,15.0515 L61.7858,17.5095 L59.2668,22.4255 L58.6378,23.6545 C58.5238,23.8555 58.4718,24.0325 58.2068,24.4095 C57.9738,24.7265 57.6608,24.9865 57.3108,25.1625 C56.6148,25.5265 55.7398,25.5305 55.0368,25.1915 L53.7898,24.5965 L48.8038,22.2185 L48.7988,22.2165 L50.3248,21.2815 C50.2818,23.0725 50.2038,24.8625 50.1128,26.6525 C50.0198,28.4425 49.9618,30.2335 49.8388,32.0225 C49.6018,35.6015 49.4168,39.1815 49.1188,42.7585 C49.0998,42.9975 48.8898,43.1745 48.6518,43.1545 C48.4288,43.1365 48.2598,42.9535 48.2538,42.7355 C48.1478,39.1475 48.1538,35.5625 48.1058,31.9765 C48.0778,30.1835 48.1158,28.3915 48.1178,26.5995 C48.1218,24.8075 48.1398,23.0155 48.1908,21.2245 C48.2068,20.6345 48.6978,20.1695 49.2878,20.1855 C49.4398,20.1895 49.5888,20.2285 49.7178,20.2885 L49.7238,20.2915 L54.7078,22.6685 L55.9548,23.2635 C56.0818,23.3205 56.2228,23.3225 56.3458,23.2575 C56.4958,23.1565 56.4618,23.2225 56.7368,22.6805 L57.3658,21.4515 L59.8858,16.5365 L61.1448,14.0785 L61.4598,13.4645 L61.6168,13.1575 C61.6518,13.0875 61.6498,13.0845 61.6638,13.0435 C61.6958,12.9185 61.6718,12.7655 61.5868,12.6605 C61.5438,12.6075 61.5028,12.5685 61.4298,12.5315 L60.8138,12.2205 L59.5808,11.5975 L57.1158,10.3535 L52.1868,7.8655 L42.3308,2.8905 L42.7758,3.0005 L21.5388,2.4355 L21.9968,2.3465 L11.8838,6.7935 L6.8268,9.0165 L4.2988,10.1285 L3.0338,10.6845 L2.4028,10.9625 C2.3308,10.9945 2.2848,11.0325 2.2398,11.0835 C2.1508,11.1835 2.1188,11.3335 2.1448,11.4595 C2.1568,11.5005 2.1538,11.5025 2.1868,11.5775 L2.3268,11.8925 L2.6098,12.5235 L3.7368,15.0455 L5.9898,20.0885 L6.5538,21.3495 C6.7988,21.9075 6.7658,21.8305 6.9118,21.9425 C7.0338,22.0135 7.1708,22.0205 7.3058,21.9675 L8.5808,21.4395 L13.6868,19.3305 L13.6878,19.3305 C14.2178,19.0955 14.8368,19.3345 15.0718,19.8645 C15.1338,20.0015 15.1618,20.1445 15.1628,20.2855 L15.1628,20.3455 C15.1588,22.6885 15.1258,25.0315 15.0618,27.3725 C14.9828,29.7145 14.9438,32.0565 14.8318,34.3965 L14.5088,41.4185 C14.4108,43.7595 14.2478,46.0975 13.6458,48.4255 C13.6038,48.5895 13.4368,48.6875 13.2728,48.6455 C13.1558,48.6155 13.0718,48.5205 13.0498,48.4095" id="Fill-5" fill="#717791" mask="url(#mask-2)"></path>
                    </g>
                    <path d="M22.876,7.7038 L22.753,7.0688 C22.694,6.7698 22.89,6.4808 23.188,6.4228 C23.324,6.3968 23.458,6.4228 23.569,6.4868 L23.619,6.5158 L24.124,6.8088 L24.129,6.8118 C24.533,7.0458 24.67,7.5628 24.436,7.9668 C24.201,8.3708 23.685,8.5078 23.281,8.2728 C23.063,8.1458 22.922,7.9328 22.876,7.7038" id="Fill-8" fill="#717791"></path>
                    <path d="M43.4297,2.9333 C43.1857,4.7313 42.5257,6.5073 41.4327,7.9783 C40.3467,9.4473 38.9427,10.7073 37.2797,11.4803 C35.6427,12.2953 33.8067,12.6633 32.0027,12.6293 C30.2037,12.5993 28.3907,12.0033 27.0487,10.8503 C26.8697,10.6973 26.8507,10.4283 27.0037,10.2493 C27.1087,10.1273 27.2687,10.0793 27.4167,10.1113 L27.4267,10.1133 C29.0217,10.4613 30.5047,10.6833 32.0067,10.6203 C33.4977,10.5773 34.9747,10.2113 36.2637,9.4903 C37.5557,8.7843 38.7077,7.8213 39.5667,6.6233 C40.4357,5.4373 41.0157,4.0583 41.3197,2.6073 L41.3257,2.5713 C41.4477,1.9943 42.0127,1.6243 42.5897,1.7453 C43.1407,1.8603 43.5017,2.3843 43.4297,2.9333" id="Fill-10" fill="#717791"></path>
                    <path d="M37.1631,21.197 C38.5651,21.152 42.6001,21.342 44.1231,21.382" id="Fill-12" fill="#FFFFFF"></path>
                    <path d="M37.1387,20.4558 C38.3007,20.3008 39.4707,20.2918 40.6407,20.3248 C41.2257,20.3438 41.8097,20.3838 42.3937,20.4508 C42.9777,20.5278 43.5607,20.6058 44.1397,20.7578 C44.4827,20.8488 44.6867,21.1998 44.5967,21.5418 C44.5337,21.7838 44.3357,21.9578 44.1067,22.0058 C43.5267,22.1278 42.9497,22.1748 42.3727,22.2208 C41.7957,22.2568 41.2207,22.2668 40.6457,22.2538 C39.4947,22.2258 38.3447,22.1558 37.1867,21.9378 L37.1007,21.9218 C36.6977,21.8468 36.4317,21.4588 36.5067,21.0558 C36.5677,20.7318 36.8297,20.4978 37.1387,20.4558" id="Fill-14" fill="#717791"></path>
                </g>
            </g>
        </g>
    </g>
</svg>