<?xml version="1.0" encoding="UTF-8"?>
<svg width="45px" height="43px" viewBox="0 0 45 43" version="1.1" xmlns="http://www.w3.org/2000/svg" xmlns:xlink="http://www.w3.org/1999/xlink">
    <!-- Generator: Sketch 52.6 (67491) - http://www.bohemiancoding.com/sketch -->
    <title>Group 39</title>
    <desc>Created with Sketch.</desc>
    <defs>
        <polygon id="path-1" points="0.938384858 0.50015415 23.074 0.50015415 23.074 15.8275038 0.938384858 15.8275038"></polygon>
        <polygon id="path-3" points="0 0.295076782 14.1400977 0.295076782 14.1400977 13.6661719 0 13.6661719"></polygon>
    </defs>
    <g id="Features" stroke="none" stroke-width="1" fill="none" fill-rule="evenodd">
        <g id="Features-(desktop)" transform="translate(-100.000000, -7940.000000)">
            <g id="Group-51" transform="translate(100.000000, 7363.000000)">
                <g id="Group-39" transform="translate(0.000000, 576.000000)">
                    <path d="M22.5274,7.728 L24.3984,2.731 C24.5284,2.383 24.9014,2.189 25.2614,2.284 L42.1504,6.703 C42.5864,6.817 42.8134,7.298 42.6254,7.708 L39.2184,15.111" id="Fill-1" fill="#FFFFFF"></path>
                    <g id="Group-5" transform="translate(21.000000, 0.499700)">
                        <mask id="mask-2" fill="white">
                            <use xlink:href="#path-1"></use>
                        </mask>
                        <g id="Clip-4"></g>
                        <path d="M0.942,7.0091 C1.097,5.5871 1.447,4.2381 1.856,2.9101 L2.185,1.9231 L2.226,1.8001 C2.258,1.7121 2.313,1.5891 2.37,1.4911 C2.488,1.2861 2.644,1.1011 2.827,0.9511 C3.192,0.6501 3.666,0.4861 4.143,0.5011 C4.384,0.5041 4.653,0.5801 4.676,0.5861 L4.928,0.6491 L5.433,0.7741 L6.442,1.0261 L14.515,3.0351 L18.539,4.0861 L20.55,4.6161 L21.657,4.9151 C22.636,5.2361 23.25,6.3171 23.03,7.3221 C22.855,7.9481 22.804,7.8991 22.731,8.1031 L22.513,8.5751 L22.066,9.5141 L21.168,11.3901 C20.572,12.6421 19.973,13.8921 19.354,15.1341 C19.046,15.7521 18.296,16.0041 17.677,15.6961 C17.084,15.4001 16.829,14.6921 17.083,14.0891 C17.624,12.8121 18.183,11.5431 18.746,10.2761 L19.588,8.3741 L20.009,7.4231 L20.226,6.9501 C20.287,6.8371 20.419,6.4861 20.325,6.7741 C20.254,7.0941 20.445,7.4191 20.752,7.5271 L19.849,7.2931 L17.837,6.7711 L13.814,5.7151 L5.791,3.5131 L4.788,3.2381 L4.287,3.1001 L4.036,3.0311 C3.893,2.9931 3.992,3.0221 4.06,3.0211 C4.191,3.0241 4.316,2.9781 4.412,2.8971 C4.461,2.8561 4.503,2.8051 4.533,2.7501 C4.546,2.7271 4.567,2.6831 4.567,2.6761 L4.516,2.7961 L4.116,3.7561 C3.553,5.0261 2.93,6.2731 2.113,7.4471 C1.91,7.7401 1.507,7.8121 1.215,7.6091 C1.014,7.4691 0.918,7.2361 0.942,7.0091" id="Fill-3" fill="#717791" mask="url(#mask-2)"></path>
                    </g>
                    <path d="M13.6373,3.3325 L1.8173,6.2155 C1.3763,6.3235 1.1413,6.8045 1.3283,7.2185 L4.8243,14.9545" id="Fill-6" fill="#FFFFFF"></path>
                    <g id="Group-10" transform="translate(0.000000, 2.499700)">
                        <mask id="mask-4" fill="white">
                            <use xlink:href="#path-3"></use>
                        </mask>
                        <g id="Clip-9"></g>
                        <path d="M13.7667,1.3645 C12.0297,1.9545 10.2797,2.4915 8.5317,3.0355 C6.7827,3.5755 5.0367,4.1275 3.2727,4.6085 L2.6117,4.7915 L2.2817,4.8835 L2.1167,4.9295 C2.1457,4.9245 2.1907,4.9095 2.2267,4.8905 C2.3847,4.8155 2.4927,4.6715 2.5207,4.5045 C2.5357,4.4215 2.5287,4.3285 2.5037,4.2475 C2.5027,4.2345 2.4847,4.1945 2.4887,4.2045 L2.5247,4.2815 L2.5977,4.4375 L3.7617,6.9195 C4.5137,8.5855 5.2677,10.2495 5.9637,11.9405 C6.2267,12.5785 5.9217,13.3095 5.2837,13.5725 C4.6717,13.8235 3.9747,13.5525 3.6857,12.9695 C2.8767,11.3295 2.1257,9.6635 1.3717,7.9995 L0.2787,5.4855 L0.2097,5.3285 L0.1767,5.2495 L0.0987,5.0475 C-0.0003,4.7505 -0.0253,4.4235 0.0257,4.1145 C0.1237,3.4955 0.5257,2.9395 1.0927,2.6575 C1.2307,2.5885 1.3837,2.5345 1.5237,2.5005 L1.6917,2.4655 L2.0277,2.3945 L2.6977,2.2535 C4.4847,1.8685 6.2887,1.5545 8.0907,1.2285 C9.8927,0.9055 11.6937,0.5765 13.5077,0.3015 C13.8077,0.2555 14.0877,0.4615 14.1337,0.7615 C14.1747,1.0295 14.0147,1.2805 13.7667,1.3645" id="Fill-8" fill="#717791" mask="url(#mask-4)"></path>
                    </g>
                    <path d="M21.6798,10.2993 L18.8428,2.7203 C18.7138,2.3773 18.3478,2.1833 17.9918,2.2703 L17.2008,2.4633" id="Fill-11" fill="#FFFFFF"></path>
                    <path d="M20.5094,10.7378 L19.1264,5.9388 L18.4354,3.5388 L18.2624,2.9398 C18.2644,2.9038 18.2544,2.8618 18.2164,2.8308 C18.2704,2.7358 17.6944,2.8728 17.3134,2.9238 L17.3004,2.9258 C17.0404,2.9608 16.8014,2.7778 16.7664,2.5178 C16.7354,2.2868 16.8754,2.0728 17.0894,2.0028 L17.6824,1.8078 C17.8014,1.7508 18.2814,1.6218 18.6144,1.7608 C18.9684,1.8708 19.2754,2.1528 19.4234,2.5048 L19.6864,3.0708 L20.7414,5.3338 L22.8504,9.8608 C23.1424,10.4888 22.8714,11.2348 22.2434,11.5268 C21.6154,11.8198 20.8694,11.5478 20.5774,10.9198 C20.5504,10.8628 20.5264,10.7968 20.5094,10.7378" id="Fill-13" fill="#717791"></path>
                    <path d="M28.4234,40.4067 L37.9444,37.6787 C38.7144,37.4577 39.2434,36.7547 39.2424,35.9547 L39.2184,15.1117 L21.9644,21.1067 L21.9904,42.2147 L23.2914,41.8767" id="Fill-15" fill="#E5EEFD"></path>
                    <path d="M28.2286,39.727 C30.7926,38.675 33.4046,37.786 36.0346,36.962 L37.0216,36.657 L37.5156,36.504 C37.6236,36.472 37.6196,36.468 37.6486,36.458 L37.7176,36.423 C37.8046,36.37 37.8756,36.29 37.9206,36.198 C37.9436,36.153 37.9576,36.104 37.9646,36.055 C37.9716,35.996 37.9726,36.002 37.9706,35.777 L37.9286,31.644 C37.8786,26.134 37.7956,20.623 37.7996,15.113 L39.6846,16.452 L31.0586,19.451 L22.4116,22.388 L22.4096,22.389 L23.3216,21.104 C23.2286,24.623 23.1636,28.14 23.1216,31.658 L23.0776,36.935 L23.0586,39.573 C23.0916,40.452 22.9256,41.332 23.2496,42.211 L23.2496,42.213 L21.6746,40.995 C21.8776,40.885 22.1106,40.891 22.3516,40.928 C22.5936,40.971 22.8436,41.041 23.1146,41.194 C23.5856,41.46 23.7526,42.059 23.4856,42.53 C23.4806,42.539 23.4736,42.551 23.4686,42.56 C23.3066,42.826 23.1226,43.008 22.9316,43.163 C22.7386,43.313 22.5386,43.431 22.3076,43.434 L21.5716,43.441 C21.0776,43.446 20.6726,43.05 20.6676,42.556 C20.6666,42.437 20.6906,42.32 20.7316,42.216 L20.7316,42.214 C21.0536,41.334 20.8856,40.455 20.9166,39.576 L20.8906,36.937 L20.8336,31.661 C20.7826,28.143 20.7096,24.625 20.6066,21.108 C20.5896,20.53 20.9516,20.029 21.4666,19.842 L21.5186,19.824 L21.5206,19.823 L30.1256,16.766 L38.7526,13.77 C39.4936,13.514 40.3026,13.906 40.5596,14.646 C40.6116,14.797 40.6366,14.958 40.6376,15.11 C40.6536,20.62 40.5836,26.131 40.5466,31.642 L40.5146,35.774 C40.5146,35.893 40.5146,36.246 40.4556,36.526 C40.3986,36.815 40.3026,37.096 40.1656,37.356 C39.8926,37.876 39.4696,38.313 38.9576,38.602 C38.8296,38.673 38.6976,38.736 38.5606,38.789 C38.4286,38.839 38.2606,38.888 38.2026,38.902 L37.7036,39.034 L36.7046,39.298 C34.0366,39.992 31.3506,40.62 28.6176,41.086 C28.2306,41.152 27.8636,40.892 27.7976,40.504 C27.7406,40.17 27.9276,39.851 28.2286,39.727" id="Fill-17" fill="#717791"></path>
                    <path d="M25.7403,41.1753 L26.2593,41.0273" id="Fill-19" fill="#E5EEFD"></path>
                    <path d="M25.565,40.5649 C25.579,40.2849 25.637,40.1609 25.701,40.0589 C25.76,39.9389 25.833,39.8689 25.915,39.8249 C26.537,39.4919 27.312,39.7269 27.645,40.3499 C27.978,40.9729 27.743,41.7469 27.12,42.0799 C26.957,42.1679 26.776,42.2159 26.603,42.2289 C26.511,42.2349 26.412,42.2139 26.298,42.1439 C26.19,42.0899 26.075,42.0169 25.915,41.7859 C25.658,41.4139 25.545,40.9839 25.565,40.5649" id="Fill-21" fill="#717791"></path>
                    <path d="M4.8248,14.9546 L21.9638,21.1066 L21.9618,42.2496 L6.0128,37.6806 C5.2418,37.4586 4.7118,36.7516 4.7158,35.9496 L4.8248,14.9546 Z" id="Fill-23" fill="#E5EEFD"></path>
                    <path d="M4.8248,14.9546 L21.9638,21.1066 L21.9618,42.2496 L6.0128,37.6806 C5.2418,37.4586 4.7118,36.7516 4.7158,35.9496 L4.8248,14.9546 Z" id="Stroke-25" stroke="#717791" stroke-width="2.5" stroke-linecap="round" stroke-linejoin="round"></path>
                    <path d="M21.964,21.1064 L18.005,29.9454 C17.804,30.3934 17.285,30.6014 16.831,30.4174 L2.467,24.5954 C2.02,24.4144 1.791,23.9154 1.946,23.4584 L4.67,15.4114 C4.767,15.1254 4.999,14.9064 5.289,14.8254 L21.323,10.3664 C21.481,10.3224 21.649,10.3224 21.807,10.3654 L38.756,14.9854 C39.046,15.0644 39.278,15.2804 39.377,15.5634 L42.149,23.4854 C42.311,23.9484 42.078,24.4564 41.621,24.6354 L27.255,30.2674 C26.81,30.4414 26.305,30.2414 26.099,29.8094 L21.964,21.1064" id="Fill-27" fill="#FFFFFF"></path>
                    <path d="M4.7696,25.5288 L2.4666,24.5948 C2.0196,24.4138 1.7906,23.9158 1.9456,23.4578 L4.6696,15.4108 C4.7666,15.1258 4.9986,14.9058 5.2896,14.8248 L21.3226,10.3668 C21.4806,10.3228 21.6486,10.3218 21.8066,10.3648 L38.7566,14.9858 C39.0456,15.0638 39.2776,15.2798 39.3766,15.5638 L42.1486,23.4858 C42.3106,23.9488 42.0776,24.4568 41.6216,24.6348 L27.2546,30.2668 C26.8096,30.4418 26.3046,30.2418 26.0996,29.8098 L21.9636,21.1068" id="Stroke-29" stroke="#717791" stroke-width="2.5" stroke-linecap="round" stroke-linejoin="round"></path>
                    <path d="M23.1051,21.6172 C22.4591,23.1062 21.8241,24.5992 21.1481,26.0742 L20.1431,28.2912 L19.0831,30.5562 C18.6471,31.4232 17.5931,31.8922 16.6651,31.6402 C16.5601,31.6172 16.4141,31.5602 16.3551,31.5362 L16.2151,31.4772 L15.9351,31.3592 L15.3741,31.1212 L13.1481,30.1342 C11.6671,29.4682 10.1981,28.7742 8.7501,28.0282 C8.3451,27.8202 8.1861,27.3222 8.3941,26.9172 C8.5801,26.5572 8.9931,26.3912 9.3671,26.5062 C10.9261,26.9792 12.4641,27.5032 13.9901,28.0572 L16.2751,28.8982 L17.2481,29.2732 C17.1101,29.2332 16.9591,29.2922 16.8821,29.4232 L17.8151,27.2482 L18.8011,25.0232 C19.4511,23.5362 20.1421,22.0682 20.8231,20.5952 C21.1131,19.9692 21.8561,19.6962 22.4831,19.9862 C23.1001,20.2712 23.3731,20.9972 23.1051,21.6172" id="Fill-31" fill="#717791"></path>
                    <g id="Group-36" transform="translate(5.000000, 9.499700)">
                        <path d="M16.964,11.6067 L0.177,5.5757 C0.172,5.5847 -0.001,5.4067 0.289,5.3257 L16.323,0.8667 C16.481,0.8227 16.649,0.8227 16.807,0.8657 L33.756,5.4857 C34.046,5.5647 34.054,5.6717 33.808,5.7587 L16.964,11.6067" id="Fill-33" fill="#E5EEFD"></path>
                        <path d="M16.964,11.6067 L0.177,5.5757 C0.172,5.5847 -0.001,5.4067 0.289,5.3257 L16.323,0.8667 C16.481,0.8227 16.649,0.8227 16.807,0.8657 L33.756,5.4857 C34.046,5.5647 34.054,5.6717 33.808,5.7587 L16.964,11.6067" id="Stroke-35" stroke="#717791" stroke-width="2.5" stroke-linecap="round" stroke-linejoin="round"></path>
                    </g>
                    <polyline id="Stroke-37" stroke="#717791" stroke-width="2.5" stroke-linecap="round" stroke-linejoin="round" points="39.2188 15.1113 21.9638 21.1063 4.8248 14.9543"></polyline>
                </g>
            </g>
        </g>
    </g>
</svg>