<?xml version="1.0" encoding="UTF-8"?>
<svg width="63px" height="43px" viewBox="0 0 63 43" version="1.1" xmlns="http://www.w3.org/2000/svg" xmlns:xlink="http://www.w3.org/1999/xlink">
    <!-- Generator: Sketch 52.6 (67491) - http://www.bohemiancoding.com/sketch -->
    <title>Group 10</title>
    <desc>Created with Sketch.</desc>
    <defs>
        <polygon id="path-1" points="0.111187423 0.622017487 57.777 0.622017487 57.777 42 0.111187423 42"></polygon>
    </defs>
    <g id="Features" stroke="none" stroke-width="1" fill="none" fill-rule="evenodd">
        <g id="Features-(desktop)" transform="translate(-406.000000, -7554.000000)">
            <g id="Group-51" transform="translate(100.000000, 7363.000000)">
                <g id="Group-10" transform="translate(307.000000, 191.000000)">
                    <path d="M36.893,37.3296 L16.359,30.8406 C15.329,30.5156 14.43,29.8686 13.793,28.9956 L6.52,17.2226 C4.154,13.9736 5.611,9.3626 9.414,8.0636 L22.132,2.6076 C23.155,2.2586 24.262,2.2466 25.292,2.5716 L57.622,12.7886 C59.79,13.4746 60.994,15.7876 60.308,17.9556 L53.856,38.3716 C53.17,40.5406 50.857,41.7426 48.689,41.0576 L46.937,40.5036" id="Fill-1" fill="#A9EBC8"></path>
                    <g id="Group-5" transform="translate(4.000000, 0.416900)">
                        <mask id="mask-2" fill="white">
                            <use xlink:href="#path-1"></use>
                        </mask>
                        <g id="Clip-4"></g>
                        <path d="M32.6948,37.5397 C30.6078,37.2977 28.6048,36.7907 26.6238,36.2167 C24.6468,35.6297 22.6668,35.0517 20.7058,34.4137 L14.8158,32.5167 L11.8458,31.5537 C10.6308,31.1417 9.5488,30.3467 8.7928,29.3077 C8.7748,29.2837 8.7558,29.2547 8.7398,29.2297 L1.4488,17.4677 L1.5028,17.5467 C0.1588,15.7387 -0.2502,13.2567 0.4448,11.1127 C1.1028,8.9567 2.8598,7.1537 5.0028,6.4387 L4.9118,6.4737 L17.6218,0.9997 C17.6498,0.9877 17.6848,0.9747 17.7138,0.9647 C18.6218,0.6537 19.5998,0.5517 20.5518,0.6697 C21.0058,0.7167 21.5498,0.8647 21.8968,0.9807 L22.9898,1.3247 L27.3598,2.6987 L36.0958,5.4607 L53.5628,11.0027 C53.7578,11.0677 53.8988,11.1037 54.1378,11.1917 C54.3738,11.2737 54.6058,11.3667 54.8278,11.4847 C55.2758,11.7087 55.6928,11.9987 56.0558,12.3437 C56.7958,13.0227 57.3248,13.9157 57.5888,14.8797 C57.8558,15.8457 57.8368,16.8887 57.5488,17.8447 L56.8538,20.0477 L54.0828,28.7807 L51.3108,37.5147 L51.1378,38.0607 L51.0508,38.3327 L50.9228,38.6827 C50.7408,39.1437 50.4968,39.5857 50.1878,39.9777 C49.5868,40.7737 48.7508,41.3877 47.8168,41.7177 C46.8838,42.0587 45.8478,42.0847 44.9128,41.8287 C44.4118,41.6757 44.0838,41.5137 43.7398,41.3467 C43.3918,41.1797 43.0488,41.0017 42.7108,40.8037 C42.3428,40.5887 42.2198,40.1157 42.4348,39.7487 C42.5908,39.4847 42.8778,39.3477 43.1638,39.3707 C43.5528,39.4017 43.9378,39.4537 44.3178,39.5177 C44.7028,39.5797 45.0988,39.6637 45.3428,39.6757 C45.9088,39.7107 46.4488,39.6167 46.9458,39.4107 C47.4348,39.2007 47.8848,38.8807 48.2018,38.4557 C48.3668,38.2477 48.4938,38.0127 48.5908,37.7647 L48.6608,37.5777 L48.7468,37.3047 L48.9188,36.7577 L51.6698,28.0187 L54.4198,19.2777 L55.0978,17.1107 C55.2488,16.6027 55.2568,16.0637 55.1158,15.5557 C54.9748,15.0497 54.6958,14.5767 54.3068,14.2247 C54.1178,14.0427 53.8998,13.8937 53.6648,13.7787 C53.5488,13.7147 53.4258,13.6687 53.3008,13.6247 C53.1838,13.5777 52.9558,13.5127 52.7878,13.4577 L35.3068,7.9567 L26.5708,5.1967 L22.2038,3.8097 L21.1128,3.4627 C20.7348,3.3397 20.5388,3.2897 20.2318,3.2487 C19.6688,3.1777 19.0908,3.2357 18.5508,3.4177 L18.6438,3.3827 L5.9178,8.8187 L5.9088,8.8227 L5.8268,8.8537 C4.4258,9.3227 3.3058,10.4637 2.8628,11.8767 C2.4088,13.2857 2.6628,14.8677 3.5388,16.0637 C3.5558,16.0887 3.5758,16.1177 3.5908,16.1437 L10.8478,27.9267 L10.7958,27.8487 C11.2528,28.4797 11.9078,28.9647 12.6448,29.2177 L15.5728,30.1227 L21.4828,31.9547 C23.4538,32.5597 25.4068,33.2237 27.3628,33.8797 C29.3138,34.5487 31.2448,35.2857 33.0908,36.2857 C33.4158,36.4617 33.5368,36.8687 33.3598,37.1937 C33.2258,37.4407 32.9578,37.5687 32.6948,37.5397" id="Fill-3" fill="#717791" mask="url(#mask-2)"></path>
                    </g>
                    <path d="M10.3911,13.4082 C10.9321,11.6962 12.7591,10.7462 14.4721,11.2872 C16.1841,11.8282 17.1341,13.6562 16.5921,15.3682 C16.0511,17.0812 14.2241,18.0312 12.5121,17.4892 C10.7991,16.9482 9.8491,15.1212 10.3911,13.4082 Z" id="Stroke-6" stroke="#717791" stroke-width="2.5" stroke-linecap="round" stroke-linejoin="round"></path>
                    <path d="M14.0561,11.7446 C12.4961,14.9186 8.8111,16.5646 5.3351,15.4656 C1.5041,14.2556 -0.6209,10.1676 0.5901,6.3356 C1.8011,2.5036 5.8891,0.3796 9.7211,1.5906 C10.5081,1.8386 11.2241,2.2096 11.8531,2.6746" id="Stroke-8" stroke="#717791" stroke-width="2.5" stroke-linecap="round" stroke-linejoin="round"></path>
                </g>
            </g>
        </g>
    </g>
</svg>