<?xml version="1.0" encoding="UTF-8"?>
<svg width="43px" height="43px" viewBox="0 0 43 43" version="1.1" xmlns="http://www.w3.org/2000/svg" xmlns:xlink="http://www.w3.org/1999/xlink">
    <!-- Generator: Sketch 52.6 (67491) - http://www.bohemiancoding.com/sketch -->
    <title>Group 11</title>
    <desc>Created with Sketch.</desc>
    <g id="Features" stroke="none" stroke-width="1" fill="none" fill-rule="evenodd">
        <g id="Features-(desktop)" transform="translate(-1029.000000, -7941.000000)">
            <g id="Group-51" transform="translate(100.000000, 7363.000000)">
                <g id="Group-11" transform="translate(930.000000, 579.000000)">
                    <path d="M38.1721,20.2501 C38.1721,24.3971 36.7611,28.2101 34.3991,31.2441 C31.1181,27.0291 26.0021,24.3201 20.2501,24.3201 C14.5031,24.3201 9.3821,27.0291 6.1011,31.2441 C3.7341,28.2061 2.3281,24.3971 2.3281,20.2501 C2.3281,10.3561 10.3561,2.3281 20.2501,2.3281 C30.1491,2.3281 38.1721,10.3561 38.1721,20.2501" id="Fill-1" fill="#D5BEFD"></path>
                    <path d="M40.2502,20.2501 C40.2502,25.3211 38.3612,29.9501 35.2552,33.4751 C31.5912,37.6311 26.2272,40.2501 20.2502,40.2501 C14.2732,40.2501 8.9092,37.6261 5.2442,33.4711 C2.1342,29.9461 0.2502,25.3211 0.2502,20.2501 C0.2502,9.2071 9.2072,0.2501 20.2502,0.2501 C31.2982,0.2501 40.2502,9.2071 40.2502,20.2501 Z" id="Stroke-3" stroke="#717791" stroke-width="2.5" stroke-linecap="round" stroke-linejoin="round"></path>
                    <path d="M26.2243,14.276 C26.2243,17.575 23.5493,20.25 20.2503,20.25 C16.9513,20.25 14.2763,17.575 14.2763,14.276 C14.2763,10.977 16.9513,8.302 20.2503,8.302 C23.5493,8.302 26.2243,10.977 26.2243,14.276" id="Fill-5" fill="#FFFFFF"></path>
                    <path d="M26.2243,14.276 C26.2243,17.575 23.5493,20.25 20.2503,20.25 C16.9513,20.25 14.2763,17.575 14.2763,14.276 C14.2763,10.977 16.9513,8.302 20.2503,8.302 C23.5493,8.302 26.2243,10.977 26.2243,14.276 Z" id="Stroke-7" stroke="#717791" stroke-width="2.5" stroke-linecap="round" stroke-linejoin="round"></path>
                    <path d="M5.9538,30.8615 C6.1108,30.5685 6.2658,30.3155 6.4498,30.0215 C6.6388,29.7255 6.8218,29.4195 7.0408,29.1445 C7.4658,28.5795 7.9328,28.0425 8.4498,27.5545 C9.4748,26.5695 10.6598,25.7525 11.9158,25.0745 C14.4258,23.7095 17.2948,22.9745 20.1608,22.9725 C23.0278,22.9615 25.8938,23.6835 28.4068,25.0305 C30.9138,26.3555 33.0648,28.4605 34.3048,30.8775 L34.3248,30.9155 C34.4648,31.1885 34.3568,31.5245 34.0828,31.6645 C33.8708,31.7735 33.6208,31.7325 33.4548,31.5805 C32.4378,30.6565 31.5098,29.8695 30.4818,29.1325 C29.4628,28.4095 28.3998,27.7745 27.2868,27.2505 C25.0658,26.1915 22.6138,25.6925 20.1738,25.7085 C17.7308,25.7225 15.3018,26.2855 13.1008,27.3665 C11.9998,27.9075 10.9738,28.5895 9.9898,29.3375 C9.4958,29.7105 9.0178,30.1085 8.5428,30.5185 C8.3008,30.7195 8.0798,30.9425 7.8328,31.1455 C7.5888,31.3595 7.3178,31.6145 7.0478,31.8285 C6.7268,32.0835 6.2608,32.0295 6.0068,31.7085 C5.8178,31.4705 5.7988,31.1515 5.9328,30.8995 L5.9538,30.8615 Z" id="Fill-9" fill="#717791"></path>
                </g>
            </g>
        </g>
    </g>
</svg>