<?xml version="1.0" encoding="UTF-8"?>
<svg width="41px" height="43px" viewBox="0 0 41 43" version="1.1" xmlns="http://www.w3.org/2000/svg" xmlns:xlink="http://www.w3.org/1999/xlink">
    <!-- Generator: Sketch 52.6 (67491) - http://www.bohemiancoding.com/sketch -->
    <title>Group 15</title>
    <desc>Created with Sketch.</desc>
    <g id="Features" stroke="none" stroke-width="1" fill="none" fill-rule="evenodd">
        <g id="Features-(desktop)" transform="translate(-1030.000000, -7554.000000)">
            <g id="Group-51" transform="translate(100.000000, 7363.000000)">
                <g id="Group-15" transform="translate(930.000000, 191.000000)">
                    <path d="M29.3215,37.9782 C28.9875,37.9572 28.6495,37.9622 28.3195,37.9132 C26.5385,37.6452 24.9735,38.1502 23.5235,39.1712 C21.2675,40.7582 21.2455,40.7642 18.9675,39.1632 C17.4895,38.1242 15.9075,37.6992 14.0965,37.9102 C11.5515,38.2072 11.4245,38.1242 10.3505,35.7572 C9.5715,34.0382 8.3595,32.8322 6.6385,32.0552 C4.2915,30.9942 4.2075,30.8652 4.5005,28.2992 C4.7105,26.4602 4.2605,24.8652 3.1975,23.3732 C1.6425,21.1902 1.6415,21.1232 3.2045,18.9322 C4.2685,17.4392 4.7085,15.8412 4.4985,14.0042 C4.2075,11.4572 4.3075,11.2932 6.6445,10.2542 C8.3725,9.4852 9.5755,8.2802 10.3525,6.5552 C11.4285,4.1702 11.5715,4.0922 14.1665,4.4082 C15.9545,4.6252 17.5085,4.1852 18.9605,3.1532 C21.2365,1.5342 21.2615,1.5352 23.5135,3.1342 C24.9845,4.1792 26.5595,4.6282 28.3755,4.4062 C30.9335,4.0922 31.1165,4.2032 32.1705,6.5822 C32.9265,8.2892 34.1185,9.4792 35.8225,10.2372 C38.2075,11.2982 38.3055,11.4552 38.0105,14.0302 C37.8005,15.8692 38.2575,17.4642 39.3245,18.9542 C40.8565,21.0922 40.8585,21.2202 39.3415,23.3352 C38.2575,24.8462 37.7945,26.4602 38.0115,28.3262 C38.3055,30.8362 38.1845,31.0222 35.8455,32.0642 C34.1435,32.8222 32.9025,33.9892 32.1915,35.7162 C32.0735,36.0032 31.9135,36.2722 31.7945,36.5592 C31.3315,37.6672 30.5795,38.2592 29.3215,37.9782" id="Fill-1" fill="#FFFFFF"></path>
                    <path d="M28.0569,35.3395 C27.7749,35.3225 27.4909,35.3265 27.2119,35.2845 C25.7099,35.0595 24.3909,35.4845 23.1669,36.3455 C21.2659,37.6835 21.2469,37.6885 19.3269,36.3385 C18.0799,35.4625 16.7459,35.1045 15.2189,35.2815 C13.0739,35.5325 12.9659,35.4635 12.0609,33.4665 C11.4029,32.0165 10.3809,30.9995 8.9309,30.3445 C6.9509,29.4505 6.8799,29.3415 7.1269,27.1785 C7.3049,25.6275 6.9249,24.2825 6.0289,23.0245 C4.7169,21.1845 4.7159,21.1275 6.0349,19.2795 C6.9319,18.0205 7.3029,16.6725 7.1259,15.1255 C6.8799,12.9765 6.9649,12.8385 8.9349,11.9625 C10.3919,11.3145 11.4069,10.2975 12.0629,8.8435 C12.9689,6.8325 13.0899,6.7665 15.2779,7.0325 C16.7859,7.2165 18.0959,6.8445 19.3199,5.9745 C21.2399,4.6095 21.2609,4.6105 23.1599,5.9595 C24.3999,6.8395 25.7279,7.2185 27.2589,7.0305 C29.4159,6.7665 29.5699,6.8605 30.4589,8.8655 C31.0969,10.3055 32.1019,11.3085 33.5379,11.9485 C35.5489,12.8435 35.6319,12.9755 35.3839,15.1465 C35.2059,16.6975 35.5909,18.0425 36.4919,19.2975 C37.7839,21.1015 37.7849,21.2095 36.5049,22.9925 C35.5909,24.2665 35.2019,25.6285 35.3849,27.2015 C35.6319,29.3185 35.5309,29.4745 33.5579,30.3525 C32.1229,30.9925 31.0769,31.9765 30.4769,33.4325 C30.3769,33.6735 30.2429,33.9015 30.1419,34.1425 C29.7509,35.0775 29.1179,35.5765 28.0569,35.3395" id="Fill-3" fill="#D5BEFD"></path>
                    <path d="M40.2004,24.3009 C40.1974,25.1919 40.0344,25.8319 39.8894,26.5079 C39.7514,27.1879 39.7404,27.8609 39.8354,28.6069 C39.8834,29.0239 39.9314,29.4519 39.9474,29.9389 C39.9524,30.4059 39.9584,31.0599 39.5564,31.7489 C39.1324,32.4119 38.5954,32.7089 38.1924,32.9379 C37.7724,33.1649 37.3824,33.3419 37.0004,33.5139 C35.6354,34.1049 34.5854,35.0029 33.9514,36.2339 C33.8724,36.3869 33.7994,36.5439 33.7314,36.7049 L33.4734,37.2589 C33.3074,37.5889 33.1224,38.1169 32.7754,38.5879 C32.4464,39.0619 31.8994,39.5419 31.2344,39.7529 C30.5714,39.9709 29.9294,39.9209 29.3974,39.8079 L29.5814,39.8339 C29.0774,39.7999 28.4274,39.7679 28.0904,39.7199 C27.6894,39.6869 27.2934,39.6999 26.9024,39.7589 C26.1214,39.8729 25.3634,40.1909 24.6464,40.6469 C24.3084,40.8619 23.8884,41.1749 23.4654,41.4599 C23.0244,41.7359 22.5834,42.0939 21.7194,42.2959 C21.2724,42.3839 20.7714,42.3229 20.3974,42.1959 C20.0404,42.0669 19.7464,41.9129 19.5104,41.7679 C19.0224,41.4729 18.6224,41.1859 18.2174,40.9049 C17.5134,40.4069 16.7754,40.0639 15.9914,39.8889 C15.6004,39.8009 15.1994,39.7549 14.7904,39.7539 C14.3704,39.7499 14.0064,39.7929 13.4714,39.8559 C12.9544,39.9009 12.4624,39.9859 11.7284,39.9089 C11.3814,39.8799 10.8914,39.7329 10.5094,39.4669 C10.1144,39.1989 9.8604,38.8709 9.6854,38.6049 C9.0074,37.5289 8.7634,36.6479 8.3104,35.9859 C7.8684,35.2909 7.3044,34.7069 6.6304,34.2459 C6.2934,34.0139 5.9294,33.8129 5.5434,33.6389 C5.0944,33.4339 4.6364,33.2369 4.1194,32.9479 C3.8654,32.8069 3.5714,32.6209 3.2704,32.3349 C2.9634,32.0599 2.6794,31.5809 2.5714,31.1679 C2.3504,30.3089 2.4624,29.7889 2.4854,29.2529 L2.5624,28.4949 C2.5864,28.2729 2.6004,28.0779 2.6064,27.8699 C2.6184,27.4609 2.5874,27.0609 2.5144,26.6699 C2.3694,25.8889 2.0614,25.1419 1.6024,24.4399 L0.7714,23.2299 C0.5074,22.7699 0.0854,22.2809 0.0024,21.2659 C-0.0186,20.7829 0.1144,20.3219 0.2604,20.0039 C0.4064,19.6809 0.5614,19.4259 0.7104,19.1929 C1.0014,18.7409 1.3214,18.3179 1.5634,17.9629 C2.0384,17.2689 2.3734,16.5259 2.5264,15.7419 C2.6044,15.3499 2.6404,14.9469 2.6374,14.5379 C2.6364,14.3329 2.6224,14.1259 2.6014,13.9179 L2.5264,13.1759 C2.4904,12.6549 2.4134,12.1219 2.5534,11.3449 C2.6364,10.9449 2.8514,10.4829 3.1494,10.1509 C3.4494,9.8049 3.7394,9.6339 4.0124,9.4559 C4.5404,9.1489 5.0044,8.9499 5.4584,8.7459 C5.8764,8.5619 6.2264,8.3799 6.5764,8.1509 C7.2644,7.7019 7.8364,7.1239 8.2884,6.4339 C8.5214,6.0789 8.6974,5.7389 8.8954,5.3019 C9.1094,4.8459 9.3034,4.3919 9.6304,3.8599 C9.8024,3.5929 10.0074,3.2959 10.3484,3.0079 C10.6984,2.7169 11.1604,2.5309 11.5474,2.4629 C12.3074,2.3469 12.8294,2.4309 13.3464,2.4759 L14.0834,2.5609 C14.2904,2.5839 14.4964,2.5999 14.7004,2.6019 C15.1094,2.6099 15.5124,2.5739 15.9044,2.4959 C16.6894,2.3389 17.4374,1.9919 18.1384,1.5069 C18.5274,1.2379 18.9324,0.9419 19.3934,0.6499 C19.6384,0.5029 19.8814,0.3509 20.2234,0.2139 C20.5384,0.0749 21.0154,-0.0391 21.4734,0.0119 C22.4194,0.1359 22.8674,0.5339 23.3234,0.8019 L24.5214,1.6369 C25.2314,2.1039 25.9914,2.4239 26.7874,2.5629 C27.1854,2.6339 27.5954,2.6559 28.0094,2.6399 C28.3974,2.6279 28.8824,2.5499 29.4154,2.5049 C29.9394,2.4749 30.5054,2.3819 31.3274,2.6269 C31.7324,2.7589 32.1364,3.0329 32.3994,3.3239 C32.6484,3.6069 32.8344,3.8899 32.9674,4.1379 C33.2464,4.6439 33.4424,5.1059 33.6444,5.5549 C33.8174,5.9459 34.0204,6.3159 34.2554,6.6569 C34.7224,7.3439 35.3274,7.8949 36.0154,8.3789 C36.6564,8.8709 37.5964,9.2499 38.4164,10.1149 C38.6544,10.3679 38.6434,10.7659 38.3914,11.0049 C38.2254,11.1619 37.9974,11.2109 37.7924,11.1549 L37.7134,11.1329 C36.9004,10.9069 35.9174,10.7499 34.9014,10.1939 C33.9214,9.6579 33.0704,8.8419 32.4304,7.9169 C32.1094,7.4539 31.8384,6.9639 31.6124,6.4629 C31.4124,6.0209 31.2184,5.5859 31.0214,5.2369 C30.9254,5.0529 30.8284,4.9339 30.7584,4.8469 C30.6874,4.7799 30.6734,4.7789 30.6164,4.7539 C30.4974,4.7039 30.0614,4.6979 29.6184,4.7469 C29.1784,4.7839 28.6954,4.8699 28.1064,4.8989 C27.5454,4.9249 26.9714,4.8969 26.4074,4.8009 C25.2734,4.6129 24.1954,4.1549 23.2704,3.5509 L22.0574,2.7179 C21.6984,2.4719 21.3064,2.2809 21.2644,2.3069 C21.2704,2.2749 20.9944,2.3669 20.6274,2.6069 C20.2634,2.8399 19.8794,3.1209 19.4674,3.4109 C18.5674,4.0439 17.5124,4.5529 16.3784,4.7859 C15.8134,4.9039 15.2354,4.9569 14.6674,4.9499 C14.3834,4.9479 14.1004,4.9279 13.8224,4.8989 L13.1024,4.8199 C12.6494,4.7699 12.1864,4.7479 11.9784,4.7879 C11.8874,4.8129 11.8874,4.8179 11.8554,4.8369 C11.8224,4.8649 11.7364,4.9679 11.6464,5.1129 C11.4604,5.4129 11.2614,5.8569 11.0644,6.2889 C10.8634,6.7429 10.5964,7.2769 10.2924,7.7399 C9.6814,8.6899 8.8544,9.5359 7.9064,10.1589 C7.4404,10.4709 6.9214,10.7409 6.4454,10.9529 C6.0094,11.1489 5.5774,11.3479 5.2624,11.5359 C5.1274,11.6249 4.9954,11.7159 4.9814,11.7489 C4.9564,11.7869 4.9584,11.7769 4.9344,11.8539 C4.8964,12.0429 4.9114,12.4969 4.9604,12.9459 L5.0374,13.6619 C5.0664,13.9399 5.0854,14.2209 5.0894,14.5049 C5.0984,15.0719 5.0524,15.6489 4.9414,16.2169 C4.7264,17.3559 4.2404,18.4309 3.6174,19.3519 C3.3094,19.8039 3.0404,20.1629 2.8054,20.5349 C2.5544,20.9049 2.4704,21.1969 2.4964,21.1599 C2.4644,21.1389 2.6194,21.5029 2.8684,21.8589 L3.7044,23.0599 C4.3214,23.9889 4.7974,25.0759 4.9964,26.2219 C5.0974,26.7929 5.1374,27.3729 5.1194,27.9409 C5.1094,28.2219 5.0854,28.5139 5.0554,28.7779 L4.9804,29.4779 C4.9364,29.9099 4.9264,30.3879 4.9714,30.4779 C4.9954,30.5329 4.9594,30.4979 5.0154,30.5519 C5.0684,30.6019 5.1824,30.6929 5.3564,30.7869 C5.6914,30.9779 6.1304,31.1769 6.5694,31.3789 C7.0734,31.6089 7.5674,31.8839 8.0344,32.2069 C8.9714,32.8519 9.7874,33.7089 10.3884,34.6689 C11.0114,35.6469 11.3334,36.6759 11.7184,37.2459 C11.8064,37.3879 11.8724,37.4469 11.8854,37.4509 C11.9054,37.4569 11.8924,37.4779 12.0324,37.4909 C12.2714,37.5289 12.7614,37.4869 13.2134,37.4409 C13.6494,37.3909 14.2594,37.3199 14.8164,37.3319 C15.3854,37.3369 15.9614,37.4049 16.5224,37.5339 C17.6484,37.7869 18.7084,38.3049 19.5954,38.9419 C19.9904,39.2199 20.3874,39.5019 20.7354,39.7139 C20.9144,39.8279 21.0604,39.8909 21.1614,39.9329 C21.2514,39.9559 21.2474,39.9529 21.2834,39.9529 C21.3804,39.9439 21.7724,39.7439 22.1424,39.4859 C22.5324,39.2279 22.8954,38.9539 23.3834,38.6439 C24.3134,38.0569 25.3964,37.5949 26.5554,37.4309 C27.1324,37.3469 27.7194,37.3319 28.2924,37.3839 C28.9244,37.4679 29.2534,37.4619 29.7224,37.5009 L29.7434,37.5019 C29.7974,37.5069 29.8564,37.5159 29.9074,37.5269 C30.1754,37.5839 30.3854,37.5809 30.5094,37.5379 C30.6334,37.4969 30.7474,37.4219 30.8914,37.2259 C31.0384,37.0319 31.1354,36.7769 31.3324,36.3699 L31.5974,35.8059 C31.6894,35.5879 31.7924,35.3729 31.9034,35.1609 C32.7734,33.4389 34.4054,32.1149 36.0654,31.4279 C36.4344,31.2639 36.7944,31.0999 37.0984,30.9369 C37.4124,30.7759 37.5934,30.6099 37.6124,30.5699 C37.7084,30.5449 37.6964,29.6259 37.5884,28.8629 C37.4784,27.9769 37.4874,26.9829 37.6884,26.0509 C37.8754,25.1129 38.3504,24.2109 39.2044,23.6969 C39.5144,23.5089 39.9194,23.6089 40.1064,23.9199 C40.1704,24.0259 40.2004,24.1429 40.2004,24.2589 L40.2004,24.3009 Z" id="Fill-5" fill="#717791"></path>
                    <path d="M13.8284,27.9733 C14.5874,26.3713 15.7064,25.1293 16.8424,23.9043 C17.9944,22.6943 19.2334,21.5733 20.4404,20.4183 C22.8654,18.1203 25.2864,15.8193 27.7794,13.5893 C28.1504,13.2583 28.7214,13.2893 29.0524,13.6603 C29.3614,14.0063 29.3544,14.5243 29.0524,14.8623 C26.8234,17.3553 24.5214,19.7773 22.2244,22.2013 C21.0694,23.4083 19.9474,24.6473 18.7384,25.7993 C17.5134,26.9353 16.2704,28.0553 14.6684,28.8133 C14.3534,28.9633 13.9774,28.8283 13.8284,28.5143 C13.7444,28.3373 13.7514,28.1383 13.8284,27.9733" id="Fill-7" fill="#717791"></path>
                    <path d="M18.1526,13.5753 C19.4486,14.8703 19.4486,16.9703 18.1526,18.2653 C16.8576,19.5603 14.7576,19.5603 13.4636,18.2653 C12.1686,16.9703 12.1686,14.8703 13.4636,13.5753 C14.7576,12.2803 16.8576,12.2803 18.1526,13.5753 Z" id="Stroke-9" stroke="#717791" stroke-width="2.2" stroke-linecap="round" stroke-linejoin="round"></path>
                    <path d="M29.0422,24.3297 C30.3372,25.6247 30.3372,27.7247 29.0422,29.0197 C27.7472,30.3147 25.6462,30.3147 24.3522,29.0197 C23.0572,27.7247 23.0572,25.6247 24.3522,24.3297 C25.6462,23.0347 27.7472,23.0347 29.0422,24.3297 Z" id="Stroke-11" stroke="#717791" stroke-width="2.2" stroke-linecap="round" stroke-linejoin="round"></path>
                    <path d="M39.2297,14.2057 C39.4407,14.6727 39.4247,15.0827 39.3517,15.4787 C39.2737,15.8727 39.1457,16.2557 38.8647,16.5987 C38.5137,17.0267 37.8827,17.0887 37.4557,16.7387 C37.2687,16.5857 37.1517,16.3787 37.1077,16.1597 C37.0207,15.7247 37.0887,15.3267 37.2047,14.9417 C37.3267,14.5587 37.5057,14.1887 37.9117,13.8757 C38.2907,13.5837 38.8337,13.6547 39.1257,14.0337 C39.1677,14.0867 39.2037,14.1467 39.2297,14.2057" id="Fill-13" fill="#717791"></path>
                </g>
            </g>
        </g>
    </g>
</svg>