<?xml version="1.0" encoding="UTF-8"?>
<svg width="45px" height="43px" viewBox="0 0 45 43" version="1.1" xmlns="http://www.w3.org/2000/svg" xmlns:xlink="http://www.w3.org/1999/xlink">
    <!-- Generator: Sketch 52.6 (67491) - http://www.bohemiancoding.com/sketch -->
    <title>Group 19</title>
    <desc>Created with Sketch.</desc>
    <defs>
        <polygon id="path-1" points="0 0.625620722 29.8513316 0.625620722 29.8513316 29.2130176 0 29.2130176"></polygon>
        <polygon id="path-3" points="0.46147651 0.635 3.79046503 0.635 3.79046503 3.40057183 0.46147651 3.40057183"></polygon>
    </defs>
    <g id="Features" stroke="none" stroke-width="1" fill="none" fill-rule="evenodd">
        <g id="Features-(desktop)" transform="translate(-100.000000, -8464.000000)">
            <g id="Group-51" transform="translate(100.000000, 7363.000000)">
                <g id="Group-19" transform="translate(0.000000, 1100.000000)">
                    <path d="M27.1372,17.1025 C27.1372,23.8485 21.6682,29.3175 14.9222,29.3175 C8.1762,29.3175 2.7072,23.8485 2.7072,17.1025 C2.7072,10.3565 8.1762,4.8875 14.9222,4.8875 C21.6682,4.8875 27.1372,10.3565 27.1372,17.1025" id="Fill-1" fill="#B8D4FF"></path>
                    <g id="Group-5" transform="translate(0.000000, 1.365000)">
                        <mask id="mask-2" fill="white">
                            <use xlink:href="#path-1"></use>
                        </mask>
                        <g id="Clip-4"></g>
                        <path d="M21.789,1.8786 C23.475,2.1686 24.956,3.1376 26.116,4.3646 C27.298,5.5856 28.222,7.0586 28.84,8.6476 C30.065,11.8376 30.165,15.3876 29.206,18.6426 C28.203,21.8876 26.078,24.7556 23.271,26.6656 C20.452,28.5576 16.981,29.4556 13.602,29.1566 C10.227,28.8506 6.941,27.3926 4.523,25.0026 C2.102,22.6356 0.469,19.4386 0.097,16.0576 C-0.29,12.6956 0.486,9.1976 2.32,6.3536 C3.231,4.9306 4.381,3.6666 5.707,2.6276 C7.029,1.5916 8.596,0.8226 10.265,0.6306 C10.671,0.5836 11.038,0.8746 11.085,1.2806 C11.119,1.5696 10.981,1.8386 10.752,1.9866 L10.732,1.9996 C9.464,2.8186 8.272,3.5686 7.163,4.4636 C6.056,5.3546 5.102,6.4296 4.352,7.6316 C2.843,10.0356 2.239,12.9586 2.594,15.7586 C2.92,18.5656 4.274,21.2116 6.29,23.1786 C8.308,25.1596 11.025,26.3596 13.825,26.6266 C16.64,26.8786 19.51,26.1376 21.86,24.5736 C24.195,22.9866 25.968,20.6016 26.809,17.9086 C27.621,15.2156 27.527,12.2086 26.374,9.6436 C25.854,8.3396 25.08,7.1586 24.22,6.0436 C23.331,4.9366 22.335,3.9606 21.324,2.7156 L21.31,2.6976 C21.133,2.4806 21.166,2.1606 21.383,1.9846 C21.501,1.8896 21.65,1.8556 21.789,1.8786" id="Fill-3" fill="#717791" mask="url(#mask-2)"></path>
                    </g>
                    <g id="Group-8" transform="translate(16.000000, 0.365000)">
                        <mask id="mask-4" fill="white">
                            <use xlink:href="#path-3"></use>
                        </mask>
                        <g id="Clip-7"></g>
                        <path d="M1.1958,0.8781 L2.0918,0.6711 C2.8368,0.4981 3.5798,0.9601 3.7538,1.7041 C3.9278,2.4481 3.4658,3.1911 2.7218,3.3651 C2.3048,3.4621 1.8808,3.3541 1.5638,3.1151 L0.9228,2.6221 L0.8318,2.5521 C0.4168,2.2331 0.3388,1.6381 0.6578,1.2241 C0.7968,1.0431 0.9898,0.9251 1.1958,0.8781" id="Fill-6" fill="#717791" mask="url(#mask-4)"></path>
                    </g>
                    <path d="M18.3818,7.4335 C19.7278,7.4005 20.8768,8.1555 21.7968,9.0425 C22.7328,9.9345 23.4428,11.0695 23.8868,12.2885 C24.3308,13.5125 24.5288,14.8185 24.4598,16.1115 C24.4148,17.4065 24.1008,18.6995 23.5388,19.8765 C22.4398,22.2445 20.3218,24.1525 17.7808,24.9235 C16.5198,25.3195 15.1718,25.4205 13.8748,25.2435 C13.2268,25.1495 12.5828,25.0065 11.9728,24.7705 C11.3748,24.5105 10.8308,24.0635 10.5818,23.2865 C10.4828,22.9775 10.6528,22.6465 10.9628,22.5475 C10.9648,22.5465 10.9678,22.5465 10.9708,22.5455 L11.0098,22.5335 C11.7498,22.3125 12.2478,22.3315 12.7318,22.4175 C13.2018,22.5335 13.6748,22.6225 14.1548,22.6515 C15.1148,22.7205 16.0748,22.5975 16.9848,22.3325 C18.8008,21.7835 20.4038,20.4855 21.2988,18.7715 C22.1848,17.0695 22.3598,14.9405 21.6268,13.1325 C21.2758,12.2275 20.7598,11.3905 20.1148,10.6545 C19.4728,9.8915 18.7028,9.3525 17.9658,8.4165 L17.9368,8.3795 C17.7368,8.1255 17.7808,7.7585 18.0348,7.5585 C18.1378,7.4765 18.2598,7.4365 18.3818,7.4335" id="Fill-9" fill="#717791"></path>
                    <path d="M6.3213,17.8002 C5.7993,17.2792 5.5383,16.6222 5.4013,15.9532 C5.2793,15.2792 5.3413,14.5902 5.4203,13.9092 C5.6113,12.5472 6.1543,11.2292 6.9593,10.1122 C7.7763,9.0022 8.8303,8.0752 10.0383,7.4512 C11.2193,6.8162 12.5943,6.3922 13.9293,6.7612 C14.2513,6.8512 14.4403,7.1842 14.3513,7.5062 C14.3093,7.6572 14.2133,7.7792 14.0893,7.8572 L14.0533,7.8792 C13.0243,8.5222 12.1013,8.8802 11.2403,9.4612 C10.3973,10.0422 9.6793,10.7832 9.1503,11.6332 C8.6073,12.4702 8.1863,13.3862 7.9693,14.3692 C7.7633,15.3722 7.7443,16.3162 7.2993,17.5552 L7.2883,17.5842 C7.1783,17.8892 6.8423,18.0472 6.5373,17.9372 C6.4543,17.9072 6.3803,17.8592 6.3213,17.8002" id="Fill-11" fill="#717791"></path>
                    <polygon id="Stroke-13" stroke="#717791" stroke-width="2.5" stroke-linecap="round" stroke-linejoin="round" points="31.0835 28.3081 29.1205 30.2711 24.6495 25.8001 26.6125 23.8371"></polygon>
                    <g id="Group-18" transform="translate(26.000000, 25.365000)">
                        <path d="M5.8848,10.0261 L0.4418,4.5831 L4.7608,0.2641 L16.0328,11.5371 C17.2258,12.7291 17.2258,14.6631 16.0328,15.8561 C14.8408,17.0481 12.9068,17.0481 11.7138,15.8561 L11.4648,15.6071" id="Fill-15" fill="#FFFFFF"></path>
                        <path d="M5.8848,10.0261 L0.4418,4.5831 L4.7608,0.2641 L16.0328,11.5371 C17.2258,12.7291 17.2258,14.6631 16.0328,15.8561 C14.8408,17.0481 12.9068,17.0481 11.7138,15.8561 L11.4648,15.6071" id="Stroke-17" stroke="#717791" stroke-width="2.5" stroke-linecap="round" stroke-linejoin="round"></path>
                    </g>
                </g>
            </g>
        </g>
    </g>
</svg>