<svg width="60" height="34" viewBox="0 0 60 34" xmlns="http://www.w3.org/2000/svg" xmlns:xlink="http://www.w3.org/1999/xlink"><title>Group 20</title><defs><path id="a" d="M0 .497h13.64v18.68H0z"/></defs><g fill="none" fill-rule="evenodd"><path d="M58.693 22.772c0 .71-.061 1.408-.183 2.083-3.105-4.363-7.539-7.782-12.574-9.69-15.312-.199-30.656 3.574-44.09 10.849l-.026.013a9.337 9.337 0 0 1-1.235-4.655c0-5.243 4.296-9.492 9.589-9.492.506 0 1 .037 1.482.114C13.112 5.142 19.249 0 26.6 0c3.369 0 6.48 1.082 9.004 2.912a12.177 12.177 0 0 1 5.062-1.095c6.226 0 11.355 4.632 12.068 10.604 3.565 2.1 5.958 5.948 5.958 10.351" fill="#3F72BA"/><path d="M6.543 31.424l48.829-.465c.021-.36 1.062-1.38 1.083-1.74 1.496-3.679 1.999-2.67 2.172-5.266.175-2.598-1.02-5.247-3.087-6.854-1.237-.96-2.761-1.574-3.789-2.75-1.946-2.23-1.671-5.968-4.04-7.752-1.015-.764-6.047-3.044-7.289-2.756-5.168 1.199-6.938 1.798-7.053-.279-.076-1.385-2.765-.468-4.165-.534-3.771-.178-7.473.08-10.57 2.218-3.096 2.138-5.569 6.142-6.705 9.706-3.49-.694-7.325.793-9.411 3.649C.43 21.457.422 23.995 2.18 27.059c1.02 1.778 2.644 3.4 4.362 4.365" fill="#FFF"/><path d="M33.581 5.514c1.4-1.684 3.637-2.415 5.775-2.686 2.17-.224 4.429.099 6.421 1.06a11.261 11.261 0 0 1 2.741 1.824 11.215 11.215 0 0 1 2.135 2.503c1.192 1.851 1.785 4.074 1.775 6.25l-.99-1.161c.802.14 1.6.343 2.35.67.74.344 1.457.747 2.09 1.263 1.254 1.028 2.298 2.351 2.837 3.876.418 1.557.63 3.136.401 4.685-.226 1.544-.86 3.006-1.763 4.249a.73.73 0 0 1-1.012.163.717.717 0 0 1-.172-.99 7.116 7.116 0 0 0 1.235-3.607c.05-1.26-.1-2.581-.808-3.628-.545-1.096-1.29-2.095-2.264-2.835-.956-.76-2.094-1.267-3.295-1.522l-.04-.01a1.194 1.194 0 0 1-.95-1.152v-.001c-.04-1.767-.49-3.508-1.44-4.997a8.827 8.827 0 0 0-1.674-2.031 8.985 8.985 0 0 0-2.18-1.503c-1.572-.832-3.395-1.161-5.19-1.046a9.72 9.72 0 0 0-2.633.577c-.852.311-1.666.69-2.564 1.053l-.028.012a.658.658 0 0 1-.857-.355.648.648 0 0 1 .1-.66m-2.22 2.125c-.178-.264-.199-.42-.177-.542.046-.111.11-.157.192-.248A1.81 1.81 0 0 1 32 6.414 1.103 1.103 0 0 1 33.438 7c.1.235.109.485.044.713l-.06.209a1.359 1.359 0 0 1-.185.429c-.043.063-.105.17-.18.214-.1.035-.243.034-.543-.074l-.097-.034a2.147 2.147 0 0 1-1.056-.819" fill="#717791"/><path d="M12.46 18.56a22.064 22.064 0 0 1-.547-2.085 17.66 17.66 0 0 1-.201-1.077c-.026-.184-.052-.366-.067-.565a2.32 2.32 0 0 1-.006-.324l.034-.273c.176-1.452.59-2.874 1.192-4.211a14.986 14.986 0 0 1 5.76-6.518 15.174 15.174 0 0 1 8.473-2.226c2.964.093 5.913 1.068 8.332 2.802l.005.003a1.17 1.17 0 0 1 .266 1.646 1.199 1.199 0 0 1-1.661.264l-.019-.014a12.778 12.778 0 0 0-7.01-2.505 12.962 12.962 0 0 0-7.25 1.85 12.878 12.878 0 0 0-4.981 5.559 12.528 12.528 0 0 0-1.051 3.613c-.108.525-.224 1.19-.247 1.834-.019.647.01 1.302.136 1.936v.008a.593.593 0 0 1-.473.693.602.602 0 0 1-.685-.41" fill="#717791"/><g transform="translate(0 12.493)"><mask id="b" fill="#fff"><use xlink:href="#a"/></mask><path d="M5.735 19.138a9.521 9.521 0 0 1-4.94-4.948c-.486-1.103-.74-2.306-.793-3.517a9.883 9.883 0 0 1 .591-3.588c.834-2.307 2.574-4.292 4.8-5.444C7.615.471 10.3.182 12.753.85l.012.003c.634.172 1.006.821.832 1.449-.174.628-.83.997-1.463.824l-.038-.01c-1.866-.575-3.96-.413-5.748.415A8.076 8.076 0 0 0 2.3 7.733a8.272 8.272 0 0 0-.149 5.926c.682 1.936 2.148 3.598 4.005 4.623l.005.002a.474.474 0 0 1 .187.648.486.486 0 0 1-.613.206" fill="#717791" mask="url(#b)"/></g><path d="M36.503 21.196h-2.526a.66.66 0 0 0-.664.656v9.29a.919.919 0 0 1-.923.916h-3.56a.92.92 0 0 1-.924-.916v-9.29a.66.66 0 0 0-.663-.656h-2.525c-.663 0-1.03-.76-.615-1.272l5.484-6.749a1.322 1.322 0 0 1 2.048 0l5.483 6.75c.415.511.047 1.271-.615 1.271" fill="#B8D4FF"/><path d="M27.906 27.848v-.14m0-2.606v-3.25a.66.66 0 0 0-.663-.656h-2.526c-.662 0-1.03-.76-.614-1.271l5.485-6.75a1.322 1.322 0 0 1 2.047 0l5.482 6.75c.416.512.049 1.27-.615 1.27h-2.526a.66.66 0 0 0-.662.658v9.29a.92.92 0 0 1-.924.914h-3.56a.92.92 0 0 1-.924-.914v-1.391" stroke="#717791" stroke-width="2.5" stroke-linecap="round" stroke-linejoin="round"/></g></svg>