<svg width="38" height="43" viewBox="0 0 38 43" xmlns="http://www.w3.org/2000/svg"><title>Group 29</title><g fill="none" fill-rule="evenodd"><path d="M20.907 4.815c0 1.19-.957 2.154-2.138 2.154a2.146 2.146 0 0 1-2.138-2.154c0-1.19.957-2.154 2.138-2.154 1.18 0 2.138.964 2.138 2.154" fill="#E5EEFD"/><path d="M20.907 4.815c0 1.19-.957 2.154-2.138 2.154a2.146 2.146 0 0 1-2.138-2.154c0-1.19.957-2.154 2.138-2.154 1.18 0 2.138.964 2.138 2.154z" stroke="#717791" stroke-width="2.063" stroke-linecap="round" stroke-linejoin="round"/><path d="M31.954 19.877v13.738a2 2 0 0 1-1.995 2.007H7.577c-1.1 0-1.994-.898-1.994-2.007V19.877c0-5.189 2.952-9.68 7.254-11.865a13.021 13.021 0 0 1 5.931-1.42 13.09 13.09 0 0 1 9.324 3.89 13.29 13.29 0 0 1 3.862 9.395" fill="#E5EEFD"/><path d="M31.954 19.877v13.738a2 2 0 0 1-1.995 2.007h-2.695a2 2 0 0 0 1.995-2.007V19.877c0-3.67-1.475-6.99-3.861-9.395a13.097 13.097 0 0 0-7.97-3.82 13.092 13.092 0 0 1 10.664 3.82 13.29 13.29 0 0 1 3.862 9.395" fill="#3F72BA"/><path d="M5.76 16.332c-.106-1.034.264-1.989.733-2.853.206-.45.488-.858.738-1.284.286-.401.558-.816.879-1.19 1.252-1.527 2.817-2.794 4.591-3.657 3.53-1.779 7.813-1.879 11.454-.349 3.642 1.54 6.554 4.705 7.796 8.489.168.467.261.959.394 1.438.101.485.159.98.239 1.471.036.495.056.993.081 1.488l.003 1.416.002 5.663-.002 5.663v.708c-.003.13.004.21-.005.38a2.733 2.733 0 0 1-1.903 2.505 2.976 2.976 0 0 1-.904.121H28.45l-11.241-.006-5.621-.002-2.81-.001h-.703c-.252-.004-.42.01-.774-.014A2.713 2.713 0 0 1 4.89 33.77l-.023-1.456-.055-2.831a50.674 50.674 0 0 1 .023-2.832c.036-.944.125-1.888.428-2.832a.337.337 0 0 1 .643 0c.303.944.392 1.888.428 2.832.037.944.04 1.888.023 2.832l-.054 2.831-.01.708-.004.354c0 .113-.005.255.003.313a1.301 1.301 0 0 0 1.154 1.218c.113.01.414.006.63.007h.703l2.81-.001 5.621-.003 11.241-.005h1.406a1.522 1.522 0 0 0 .484-.058 1.3 1.3 0 0 0 .871-.96c.013-.074.026-.149.026-.225.007-.066.002-.222.004-.328v-.708l-.003-5.663.002-5.663.002-1.416-.068-1.339c-.073-.44-.12-.885-.21-1.322-.12-.43-.198-.872-.349-1.292-1.101-3.4-3.714-6.267-6.99-7.668-3.272-1.39-7.152-1.32-10.345.278-1.608.772-3.03 1.916-4.17 3.295-.294.337-.54.714-.803 1.076-.226.386-.486.754-.672 1.162-.437.794-.668 1.64-1.319 2.408l-.016.019a.307.307 0 0 1-.54-.17" fill="#717791"/><path d="M4.915 20.097c-.044-.136-.018-.276.031-.421.043-.143.105-.285.196-.423a.53.53 0 0 1 .89.01l.02.031c.085.137.14.27.177.4.042.13.067.263.023.403a.699.699 0 0 1-1.332.015l-.005-.015z" fill="#717791"/><path d="M22.557 37.756c0 2.108-1.696 3.817-3.788 3.817-2.092 0-3.789-1.71-3.789-3.817 0-2.108 1.697-3.817 3.789-3.817s3.788 1.709 3.788 3.817" fill="#E5EEFD"/><path d="M22.557 37.756c0 2.108-1.696 3.817-3.788 3.817-2.092 0-3.789-1.71-3.789-3.817 0-2.108 1.697-3.817 3.789-3.817s3.788 1.709 3.788 3.817z" stroke="#717791" stroke-width="2.358" stroke-linecap="round" stroke-linejoin="round"/><path d="M9.371 32.642h24.343c1.763 0 3.192 1.44 3.192 3.216 0 1.777-1.429 3.217-3.192 3.217H3.824c-1.764 0-3.193-1.44-3.193-3.217 0-1.776 1.43-3.216 3.192-3.216h1.463" fill="#E5EEFD"/><path d="M36.907 35.859c0 .888-.357 1.69-.936 2.274a3.167 3.167 0 0 1-2.256.942h-2.694a3.17 3.17 0 0 0 2.256-.942 3.217 3.217 0 0 0 .936-2.274c0-1.777-1.431-3.216-3.192-3.216h2.694c1.762 0 3.192 1.439 3.192 3.216" fill="#3F72BA"/><path d="M10.025 32.26c1.589-.303 3.178-.233 4.768-.26l4.767-.027 9.536.013 4.797.018a3.815 3.815 0 0 1 2.556 1.146 3.852 3.852 0 0 1 1.099 2.593 3.89 3.89 0 0 1-.94 2.657 3.837 3.837 0 0 1-2.485 1.31l-.357.02-.307.002-.595.001-1.193.002-2.383.002-19.072-.002-4.767-.01-1.192-.001c-.363.002-.873.007-1.335-.114a3.835 3.835 0 0 1-2.288-1.617 3.87 3.87 0 0 1-.583-2.75 3.86 3.86 0 0 1 1.422-2.416 3.804 3.804 0 0 1 1.96-.795l.355-.017.304-.001c.794.018 1.59-.08 2.384.246a.415.415 0 0 1 0 .765c-.795.326-1.59.228-2.384.246l-.293.002-.24.013c-.158.022-.315.05-.468.096a2.583 2.583 0 0 0-1.79 2.064 2.575 2.575 0 0 0 .394 1.836c.353.534.911.926 1.528 1.071.31.077.604.075 1.034.073l1.192-.002 4.767-.01 19.072-.002 2.383.003 1.193.001.595.001.29-.002.237-.012a2.533 2.533 0 0 0 1.643-.863c.42-.48.646-1.118.626-1.758a2.544 2.544 0 0 0-.725-1.723 2.531 2.531 0 0 0-1.697-.764l-4.737.004-9.536.013-4.767-.028c-1.59-.026-3.18.044-4.768-.259a.389.389 0 0 1-.308-.455.389.389 0 0 1 .308-.31" fill="#717791"/><path d="M33.129 8.028c0 3.25-2.615 5.885-5.841 5.885s-5.841-2.635-5.841-5.885 2.615-5.885 5.84-5.885c3.227 0 5.842 2.635 5.842 5.885" fill="#FD8989"/><path d="M33.129 8.028c0 3.25-2.615 5.885-5.841 5.885s-5.841-2.635-5.841-5.885 2.615-5.885 5.84-5.885c3.227 0 5.842 2.635 5.842 5.885z" stroke="#717791" stroke-width="2.5" stroke-linecap="round" stroke-linejoin="round"/><path fill="#FFF" d="M26.973 6.233h-.017l-1.023.52-.18-.806 1.358-.676h.886v5.63h-1.024z"/></g></svg>