<svg width="50" height="50" viewBox="0 0 50 50" fill="none" xmlns="http://www.w3.org/2000/svg">
<path d="M38.08 25.38C39.59 23.24 40.48 20.64 40.48 17.84C40.48 10.6 34.59 4.7 27.34 4.7C25.89 4.7 24.51 4.94 23.2 5.38C21.81 2.18 18.6 0 15.02 0C10.09 0 6.09 4.01 6.09 8.93C6.09 10.63 6.57 12.21 7.4 13.56C2.85 16.25 0 21.13 0 26.5V26.76C0.01 27.43 0.46 28.01 1.1 28.19C4.19 29.05 7.44 29.61 10.8 29.86C6.95 33.98 4.69 39.46 4.69 45.33V45.73C4.7 46.39 5.15 46.97 5.79 47.15C12.57 49.04 19.82 50 27.34 50C34.86 50 42.12 49.04 48.9 47.15C49.54 46.97 49.99 46.39 50 45.73V45.33C50 36.94 45.38 29.31 38.08 25.38ZM37.48 17.84C37.48 23.43 32.93 27.98 27.34 27.98C21.75 27.98 17.2 23.43 17.2 17.84C17.2 12.25 21.75 7.7 27.34 7.7C32.93 7.7 37.48 12.25 37.48 17.84ZM15.02 3C17.43 3 19.59 4.49 20.49 6.65C17.55 8.46 15.37 11.39 14.56 14.85C11.5 14.62 9.08 12.06 9.08 8.94C9.08 5.66 11.75 3 15.02 3ZM9.4 15.87C10.74 16.95 12.39 17.66 14.2 17.82V17.83C14.2 20.64 15.09 23.24 16.6 25.37C15.69 25.86 14.82 26.4 14 26.99C10.19 26.92 6.5 26.45 3.02 25.58C3.34 21.47 5.75 17.81 9.4 15.87ZM27.34 47C20.5 47 13.9 46.18 7.7 44.56C7.98 37.34 12.2 30.87 18.68 27.69C20.99 29.73 24.02 30.97 27.34 30.97C30.66 30.97 33.68 29.72 36 27.69C42.48 30.87 46.7 37.34 46.98 44.56C40.79 46.18 34.19 47 27.34 47Z" fill="#FDAF3C"/>
</svg>
