<?xml version="1.0" encoding="UTF-8"?>
<svg width="136px" height="83px" viewBox="0 0 136 83" version="1.1" xmlns="http://www.w3.org/2000/svg" xmlns:xlink="http://www.w3.org/1999/xlink">
    <!-- Generator: Sketch 52.6 (67491) - http://www.bohemiancoding.com/sketch -->
    <title>Group 67</title>
    <desc>Created with Sketch.</desc>
    <defs>
        <polygon id="path-1" points="0.000368394465 0.506488889 135.050076 0.506488889 135.050076 3.11111111 0.000368394465 3.11111111"></polygon>
        <polygon id="path-3" points="0 82.962963 135.050076 82.962963 135.050076 0.468740741 0 0.468740741"></polygon>
    </defs>
    <g id="Features" stroke="none" stroke-width="1" fill="none" fill-rule="evenodd">
        <g id="Features-(desktop)" transform="translate(-282.000000, -1089.000000)">
            <g id="Group-67" transform="translate(282.000000, 1088.000000)">
                <path d="M0.699829008,82.229363 L134.129325,82.229363 L0.699829008,82.229363 Z" id="Fill-1" fill="#E5EEFD"></path>
                <g id="Group-66" transform="translate(0.000000, 0.568400)">
                    <g id="Group-4" transform="translate(0.000000, 79.851852)">
                        <mask id="mask-2" fill="white">
                            <use xlink:href="#path-1"></use>
                        </mask>
                        <g id="Clip-3"></g>
                        <path d="M0.69941374,1.06648889 C6.25776489,0.725303704 11.8181924,0.681748148 17.3775817,0.674488889 L34.0567878,0.617451852 L67.4141618,0.506488889 L100.772574,0.510637037 L117.450742,0.512711111 C123.010131,0.528266667 128.570559,0.549007407 134.12891,0.840414815 C134.665643,0.868414815 135.076757,1.32471111 135.048727,1.85982222 C135.022773,2.35863704 134.617887,2.75063704 134.12891,2.7776 C128.570559,3.06900741 123.010131,3.08974815 117.450742,3.1053037 L100.772574,3.10737778 L67.4141618,3.11152593 L34.0567878,3.00056296 L17.3775817,2.94352593 C11.8181924,2.93626667 6.25776489,2.89271111 0.69941374,2.55152593 C0.288299237,2.5256 -0.023151145,2.17300741 0.0017648855,1.76337778 C0.0246045802,1.38382222 0.328787786,1.08826667 0.69941374,1.06648889" id="Fill-2" fill="#717791" mask="url(#mask-2)"></path>
                    </g>
                    <mask id="mask-4" fill="white">
                        <use xlink:href="#path-3"></use>
                    </mask>
                    <g id="Clip-6"></g>
                    <polygon id="Fill-5" fill="#E5EEFD" mask="url(#mask-4)" points="3.16537405 80.9967407 124.252092 80.9967407 124.252092 76.804 3.16537405 76.804"></polygon>
                    <path d="M2.43408855,79.7664 C2.28043969,79.2727704 2.1475542,78.7791407 2.04996641,78.2855111 C1.93784427,77.7908444 1.84856183,77.2972148 1.86724885,76.8035852 L1.86932519,76.7527704 C1.89527939,76.0548444 2.47250076,75.5083259 3.16495878,75.5072889 L124.251676,75.5072889 L124.458272,75.5072889 C125.070791,75.5072889 125.565997,76.0029926 125.565997,76.6138074 C125.565997,76.6770667 125.559768,76.743437 125.549386,76.8035852 L124.960745,80.1770667 C124.892226,80.5680296 124.520562,80.829363 124.128134,80.7619556 C123.821875,80.7080296 123.593478,80.4664 123.542608,80.1770667 L122.953966,76.8035852 L124.251676,78.0998815 L3.16495878,78.0998815 L4.4626687,76.8035852 C4.48239389,77.2972148 4.39103511,77.7908444 4.27995115,78.2855111 C4.18236336,78.7791407 4.04947786,79.2727704 3.89479084,79.7664 C3.76813435,80.1698074 3.33937099,80.3938074 2.93552366,80.2672889 C2.68947786,80.1905481 2.50779847,79.9955852 2.43408855,79.7664" id="Fill-7" fill="#717791" mask="url(#mask-4)"></path>
                    <polygon id="Fill-8" fill="#FFFFFF" mask="url(#mask-4)" points="18.4324641 76.4056741 120.054571 76.4056741 120.054571 4.05263704 8.01860153 4.05263704 8.01860153 76.4056741"></polygon>
                    <polyline id="Stroke-9" stroke="#717791" stroke-width="2.5" stroke-linecap="round" stroke-linejoin="round" mask="url(#mask-4)" points="18.4324641 76.4056741 120.054571 76.4056741 120.054571 4.05263704 8.01860153 4.05263704 8.01860153 76.4056741 18.4324641 76.4056741"></polyline>
                    <polyline id="Fill-10" fill="#FFFFFF" mask="url(#mask-4)" points="17.3851603 6.5154963 6.37019847 6.5154963 6.37019847 1.76482963 121.762565 1.76482963 121.762565 6.5154963 35.0402443 6.5154963"></polyline>
                    <path d="M17.3851603,7.25075556 C15.5496794,7.55979259 13.7141985,7.65001481 11.8776794,7.71638519 C10.0421985,7.80245926 8.20567939,7.83045926 6.37123664,7.81179259 L6.35670229,7.81179259 C5.64451908,7.80453333 5.07352672,7.22482963 5.07352672,6.5154963 L5.07352672,1.76482963 C5.07352672,1.04927407 5.6538626,0.468533333 6.37123664,0.468533333 L121.762565,0.468533333 C122.478901,0.468533333 123.060275,1.04927407 123.060275,1.76482963 L123.060275,6.5154963 C123.060275,7.22897778 122.483053,7.80764444 121.769832,7.81179259 L121.762565,7.81179259 L100.081466,7.93105185 L78.4003664,7.9352 L56.7203053,7.85223704 L45.8797557,7.80245926 C42.2669313,7.7112 38.6530687,8.03371852 35.0402443,7.21757037 C34.6519695,7.13045926 34.4069618,6.74468148 34.4952061,6.35682963 C34.5585344,6.07786667 34.7775878,5.87253333 35.0402443,5.81342222 C38.6530687,4.99831111 42.2669313,5.31979259 45.8797557,5.22853333 L56.7203053,5.17979259 L78.4003664,5.09579259 L100.081466,5.09994074 L121.762565,5.2192 L120.464855,6.5154963 L120.464855,1.76482963 L121.762565,3.06112593 L6.37123664,3.06112593 L7.66894656,1.76482963 L7.66894656,6.5154963 L6.37123664,5.2192 C8.20567939,5.20053333 10.0421985,5.22853333 11.8776794,5.31460741 C13.7141985,5.38097778 15.5496794,5.4712 17.3851603,5.78023704 C17.7921221,5.84868148 18.0661985,6.23342222 17.9976794,6.63994074 C17.9436947,6.96038519 17.6893435,7.1989037 17.3851603,7.25075556" id="Fill-11" fill="#717791" mask="url(#mask-4)"></path>
                    <path d="M31.2453252,6.5154963 L30.8321344,6.5154963" id="Fill-12" fill="#FFFFFF" mask="url(#mask-4)"></path>
                    <path d="M31.2453252,7.81179259 L30.8310962,7.64068148 C30.2092336,7.3834963 29.9133557,6.67105185 30.1708214,6.04986667 C30.2995542,5.73979259 30.5435237,5.50957037 30.8310962,5.39031111 L31.2453252,5.2192 C31.9616611,4.92260741 32.7828519,5.26275556 33.0797679,5.97934815 C33.376684,6.6949037 33.0361649,7.5152 32.3187908,7.81179259 C31.9616611,7.95905185 31.5754626,7.94764444 31.2453252,7.81179259" id="Fill-13" fill="#717791" mask="url(#mask-4)"></path>
                    <polygon id="Fill-14" fill="#CFE2FF" mask="url(#mask-4)" points="17.6094046 63.0746667 87.7127328 63.0746667 87.7127328 20.0065185 17.6094046 20.0065185"></polygon>
                    <polygon id="Fill-15" fill="#FFFFFF" mask="url(#mask-4)" points="51.8778748 20.0071407 25.630913 63.0752889 17.7013863 63.0752889 43.9462718 20.0071407"></polygon>
                    <polygon id="Fill-16" fill="#FFFFFF" mask="url(#mask-4)" points="74.3961527 20.0071407 48.1491908 63.0752889 31.3537099 63.0752889 57.5985954 20.0071407"></polygon>
                    <path d="M16.9624183,51.7284444 C16.3654718,49.085037 16.5211969,46.4416296 16.4433344,43.7982222 L16.3260214,35.868 C16.2928,30.5811852 16.2575023,25.2943704 16.3322504,20.0075556 L16.3322504,19.9899259 C16.3415939,19.290963 16.9125863,18.732 17.6091969,18.732 L87.7125252,18.732 C88.4184794,18.732 88.9905099,19.3023704 88.9905099,20.0075556 L88.9905099,63.0746667 C88.9905099,63.7798519 88.4184794,64.3512593 87.7125252,64.3512593 L17.6091969,64.3512593 C17.0049832,64.3512593 16.5014718,63.9208889 16.3862351,63.3505185 L16.3322504,63.0746667 C16.1599145,62.2139259 16.330174,61.3531852 16.4516397,60.4924444 C16.5699908,59.6317037 16.7402504,58.7699259 16.9624183,57.9091852 C17.0548153,57.5524444 17.418174,57.3377778 17.7753038,57.4300741 C18.0192733,57.4922963 18.1968,57.6820741 18.2559756,57.9091852 C18.4781435,58.7699259 18.6484031,59.6317037 18.7667542,60.4924444 C18.8882198,61.3531852 19.0595176,62.2139259 18.8871817,63.0746667 L17.6091969,61.7991111 L87.7125252,61.7991111 L86.4355786,63.0746667 L86.4355786,20.0075556 L87.7125252,21.2831111 L17.6091969,21.2831111 L18.8871817,20.0075556 C18.9608916,25.2943704 18.9255939,30.5811852 18.8923725,35.868 L18.7750595,43.7982222 C18.6971969,46.4416296 18.8529221,49.085037 18.2559756,51.7284444 C18.1749985,52.0851852 17.819945,52.3091852 17.4628153,52.2282963 C17.2053496,52.1702222 17.0174412,51.969037 16.9624183,51.7284444" id="Fill-17" fill="#A3ACD6" mask="url(#mask-4)"></path>
                    <polyline id="Fill-18" fill="#FFFFFF" mask="url(#mask-4)" points="113.722889 69.7134667 113.722889 23.6793926 93.0716519 23.6793926 93.0716519 73.6759852 113.722889 73.6759852"></polyline>
                    <path d="M113.084208,69.7134667 C112.370986,67.7949481 112.461307,65.8774667 112.436391,63.9589481 L112.382406,58.2054667 L112.284818,46.6964296 L112.292085,35.1884296 C112.327383,31.3524296 112.343994,27.5164296 112.424971,23.6793926 L113.722681,24.9756889 L93.0724824,24.9756889 L94.3701924,23.6793926 L94.3701924,73.6759852 L93.0724824,72.3796889 L113.722681,72.3796889 C114.440055,72.3796889 115.020391,72.9593926 115.020391,73.6759852 C115.020391,74.3915407 114.440055,74.9722815 113.722681,74.9722815 L93.0724824,74.9722815 C92.3551084,74.9722815 91.7747725,74.3915407 91.7747725,73.6759852 L91.7747725,23.6793926 C91.7747725,22.963837 92.3551084,22.3830963 93.0724824,22.3830963 L113.722681,22.3830963 C114.429673,22.3830963 115.004818,22.9482815 115.020391,23.6503556 L115.020391,23.6793926 C115.102406,27.5164296 115.117979,31.3524296 115.154315,35.1884296 L115.161582,46.6964296 L115.063994,58.2054667 L115.008971,63.9589481 C114.985093,65.8774667 115.076452,67.7949481 114.361154,69.7134667 C114.230345,70.0660593 113.838956,70.2454667 113.485979,70.1148 C113.292879,70.0432444 113.15065,69.8908 113.084208,69.7134667" id="Fill-19" fill="#A3ACD6" mask="url(#mask-4)"></path>
                    <polygon id="Fill-20" fill="#CFE2FF" mask="url(#mask-4)" points="93.84 56.2084444 112.959939 56.2084444 112.959939 24.806963 93.84 24.806963"></polygon>
                    <polygon id="Fill-21" fill="#E5EEFD" mask="url(#mask-4)" points="89.6831756 76.2740741 116.797008 76.2740741 116.797008 73.6762963 89.6831756 73.6762963"></polygon>
                    <polygon id="Stroke-22" stroke="#717791" stroke-width="2.5" stroke-linecap="round" stroke-linejoin="round" mask="url(#mask-4)" points="89.6831756 76.2740741 116.797008 76.2740741 116.797008 73.6762963 89.6831756 73.6762963"></polygon>
                    <polygon id="Fill-23" fill="#CFE2FF" mask="url(#mask-4)" points="93.8047023 72.2265185 112.924641 72.2265185 112.924641 58.0232593 93.8047023 58.0232593"></polygon>
                    <g id="Group-26" mask="url(#mask-4)">
                        <g transform="translate(93.435115, 57.037037)">
                            <path d="M0.370003053,0.815318519 L19.6031023,0.815318519" id="Fill-24" stroke="none" fill="#A4C9FF" fill-rule="evenodd"></path>
                            <path d="M0.370003053,0.815318519 L19.6031023,0.815318519" id="Stroke-25" stroke="#A3ACD6" stroke-width="2.5" fill="none" stroke-linecap="round" stroke-linejoin="round"></path>
                        </g>
                    </g>
                    <g id="Group-29" mask="url(#mask-4)">
                        <g transform="translate(94.473282, 23.851852)">
                            <path d="M18.1465527,0.851303704 L0.305636641,0.851303704" id="Fill-27" stroke="none" fill="#A4C9FF" fill-rule="evenodd"></path>
                            <path d="M18.1465527,0.851303704 L0.305636641,0.851303704" id="Stroke-28" stroke="#717791" stroke-width="2.5" fill="none" stroke-linecap="round" stroke-linejoin="round"></path>
                        </g>
                    </g>
                    <polygon id="Fill-30" fill="#FFBFBF" mask="url(#mask-4)" points="16.4970076 19.3493481 2.98006107 19.3493481 15.040458 10.5314222 25.7367023 10.5314222"></polygon>
                    <polygon id="Stroke-31" stroke="#717791" stroke-width="2.5" stroke-linecap="round" stroke-linejoin="round" mask="url(#mask-4)" points="16.4970076 19.3493481 2.98006107 19.3493481 15.040458 10.5314222 25.7367023 10.5314222"></polygon>
                    <polygon id="Fill-32" fill="#FFFFFF" mask="url(#mask-4)" points="29.9414901 19.3493481 16.4255817 19.3493481 25.9019786 10.5314222 36.5992611 10.5314222"></polygon>
                    <polygon id="Stroke-33" stroke="#717791" stroke-width="2.5" stroke-linecap="round" stroke-linejoin="round" mask="url(#mask-4)" points="29.9414901 19.3493481 16.4255817 19.3493481 25.9019786 10.5314222 36.5992611 10.5314222"></polygon>
                    <polygon id="Fill-34" fill="#FFBFBF" mask="url(#mask-4)" points="43.3302229 19.3493481 29.8143145 19.3493481 36.5426809 10.5314222 47.2399634 10.5314222"></polygon>
                    <polygon id="Stroke-35" stroke="#717791" stroke-width="2.5" stroke-linecap="round" stroke-linejoin="round" mask="url(#mask-4)" points="43.3302229 19.3493481 29.8143145 19.3493481 36.5426809 10.5314222 47.2399634 10.5314222"></polygon>
                    <polygon id="Fill-36" fill="#FFFFFF" mask="url(#mask-4)" points="57.0576061 19.3493481 43.5416977 19.3493481 47.3663084 10.5314222 58.1933618 10.5314222"></polygon>
                    <polygon id="Stroke-37" stroke="#717791" stroke-width="2.5" stroke-linecap="round" stroke-linejoin="round" mask="url(#mask-4)" points="57.0576061 19.3493481 43.5416977 19.3493481 47.3663084 10.5314222 58.1933618 10.5314222"></polygon>
                    <polygon id="Fill-38" fill="#FFBFBF" mask="url(#mask-4)" points="111.367701 19.3493481 125.402693 19.3493481 112.823212 10.5314222 102.126968 10.5314222"></polygon>
                    <polygon id="Stroke-39" stroke="#717791" stroke-width="2.5" stroke-linecap="round" stroke-linejoin="round" mask="url(#mask-4)" points="111.367701 19.3493481 125.402693 19.3493481 112.823212 10.5314222 102.126968 10.5314222"></polygon>
                    <polygon id="Fill-40" fill="#FFFFFF" mask="url(#mask-4)" points="97.7427847 19.3493481 111.258693 19.3493481 101.782296 10.5314222 91.0850137 10.5314222"></polygon>
                    <polygon id="Stroke-41" stroke="#717791" stroke-width="2.5" stroke-linecap="round" stroke-linejoin="round" mask="url(#mask-4)" points="97.7427847 19.3493481 111.258693 19.3493481 101.782296 10.5314222 91.0850137 10.5314222"></polygon>
                    <polygon id="Fill-42" fill="#FFBFBF" mask="url(#mask-4)" points="84.3540519 19.3493481 97.8699603 19.3493481 91.1415939 10.5314222 80.4443115 10.5314222"></polygon>
                    <polygon id="Stroke-43" stroke="#717791" stroke-width="2.5" stroke-linecap="round" stroke-linejoin="round" mask="url(#mask-4)" points="84.3540519 19.3493481 97.8699603 19.3493481 91.1415939 10.5314222 80.4443115 10.5314222"></polygon>
                    <polygon id="Fill-44" fill="#FFFFFF" mask="url(#mask-4)" points="70.6267725 19.3493481 84.1426809 19.3493481 80.3180702 10.5314222 69.4910168 10.5314222"></polygon>
                    <polygon id="Stroke-45" stroke="#717791" stroke-width="2.5" stroke-linecap="round" stroke-linejoin="round" mask="url(#mask-4)" points="70.6267725 19.3493481 84.1426809 19.3493481 80.3180702 10.5314222 69.4910168 10.5314222"></polygon>
                    <polygon id="Fill-46" fill="#FFBFBF" mask="url(#mask-4)" points="70.5030229 19.3493481 56.9871145 19.3493481 58.1560916 10.5314222 69.112916 10.5314222"></polygon>
                    <polygon id="Stroke-47" stroke="#717791" stroke-width="2.5" stroke-linecap="round" stroke-linejoin="round" mask="url(#mask-4)" points="70.5030229 19.3493481 56.9871145 19.3493481 58.1560916 10.5314222 69.112916 10.5314222"></polygon>
                    <path d="M9.64146565,31.288963 C5.87603053,31.288963 2.82381679,28.2400741 2.82381679,24.4787407 L2.82381679,19.2707407 L16.4591145,19.2707407 L16.4591145,24.4787407 C16.4591145,28.2400741 13.4069008,31.288963 9.64146565,31.288963" id="Fill-48" fill="#FFBFBF" mask="url(#mask-4)"></path>
                    <path d="M9.64146565,31.288963 C5.87603053,31.288963 2.82381679,28.2400741 2.82381679,24.4787407 L2.82381679,19.2707407 L16.4591145,19.2707407 L16.4591145,24.4787407 C16.4591145,28.2400741 13.4069008,31.288963 9.64146565,31.288963 Z" id="Stroke-49" stroke="#717791" stroke-width="2.5" stroke-linecap="round" stroke-linejoin="round" mask="url(#mask-4)"></path>
                    <path d="M23.2775939,31.288963 C19.5121588,31.288963 16.459945,28.2400741 16.459945,24.4787407 L16.459945,19.2707407 L30.0942046,19.2707407 L30.0942046,24.4787407 C30.0942046,28.2400741 27.043029,31.288963 23.2775939,31.288963" id="Fill-50" fill="#FFFFFF" mask="url(#mask-4)"></path>
                    <path d="M23.2775939,31.288963 C19.5121588,31.288963 16.459945,28.2400741 16.459945,24.4787407 L16.459945,19.2707407 L30.0942046,19.2707407 L30.0942046,24.4787407 C30.0942046,28.2400741 27.043029,31.288963 23.2775939,31.288963 Z" id="Stroke-51" stroke="#717791" stroke-width="2.5" stroke-linecap="round" stroke-linejoin="round" mask="url(#mask-4)"></path>
                    <path d="M36.6763969,31.288963 C32.9109618,31.288963 29.8587481,28.2400741 29.8587481,24.4787407 L29.8587481,19.2707407 L43.4940458,19.2707407 L43.4940458,24.4787407 C43.4940458,28.2400741 40.4418321,31.288963 36.6763969,31.288963" id="Fill-52" fill="#FFBFBF" mask="url(#mask-4)"></path>
                    <path d="M36.6763969,31.288963 C32.9109618,31.288963 29.8587481,28.2400741 29.8587481,24.4787407 L29.8587481,19.2707407 L43.4940458,19.2707407 L43.4940458,24.4787407 C43.4940458,28.2400741 40.4418321,31.288963 36.6763969,31.288963 Z" id="Stroke-53" stroke="#717791" stroke-width="2.5" stroke-linecap="round" stroke-linejoin="round" mask="url(#mask-4)"></path>
                    <path d="M50.3916336,31.288963 C46.6261985,31.288963 43.5739847,28.2400741 43.5739847,24.4787407 L43.5739847,19.2707407 L57.2092824,19.2707407 L57.2092824,24.4787407 C57.2092824,28.2400741 54.1570687,31.288963 50.3916336,31.288963" id="Fill-54" fill="#FFFFFF" mask="url(#mask-4)"></path>
                    <path d="M50.3916336,31.288963 C46.6261985,31.288963 43.5739847,28.2400741 43.5739847,24.4787407 L43.5739847,19.2707407 L57.2092824,19.2707407 L57.2092824,24.4787407 C57.2092824,28.2400741 54.1570687,31.288963 50.3916336,31.288963 Z" id="Stroke-55" stroke="#717791" stroke-width="2.5" stroke-linecap="round" stroke-linejoin="round" mask="url(#mask-4)"></path>
                    <path d="M63.7904366,31.288963 C60.0250015,31.288963 56.9727878,28.2400741 56.9727878,24.4787407 L56.9727878,19.2707407 L70.6080855,19.2707407 L70.6080855,24.4787407 C70.6080855,28.2400741 67.5558718,31.288963 63.7904366,31.288963" id="Fill-56" fill="#FFBFBF" mask="url(#mask-4)"></path>
                    <path d="M63.7904366,31.288963 C60.0250015,31.288963 56.9727878,28.2400741 56.9727878,24.4787407 L56.9727878,19.2707407 L70.6080855,19.2707407 L70.6080855,24.4787407 C70.6080855,28.2400741 67.5558718,31.288963 63.7904366,31.288963 Z" id="Stroke-57" stroke="#717791" stroke-width="2.5" stroke-linecap="round" stroke-linejoin="round" mask="url(#mask-4)"></path>
                    <path d="M77.5837435,31.288963 C73.8183084,31.288963 70.7671328,28.2400741 70.7671328,24.4787407 L70.7671328,19.2707407 L84.4013924,19.2707407 L84.4013924,24.4787407 C84.4013924,28.2400741 81.3491786,31.288963 77.5837435,31.288963" id="Fill-58" fill="#FFFFFF" mask="url(#mask-4)"></path>
                    <path d="M77.5837435,31.288963 C73.8183084,31.288963 70.7671328,28.2400741 70.7671328,24.4787407 L70.7671328,19.2707407 L84.4013924,19.2707407 L84.4013924,24.4787407 C84.4013924,28.2400741 81.3491786,31.288963 77.5837435,31.288963 Z" id="Stroke-59" stroke="#717791" stroke-width="2.5" stroke-linecap="round" stroke-linejoin="round" mask="url(#mask-4)"></path>
                    <path d="M91.2197679,31.288963 C87.4543328,31.288963 84.4021191,28.2400741 84.4021191,24.4787407 L84.4021191,19.2707407 L98.0374168,19.2707407 L98.0374168,24.4787407 C98.0374168,28.2400741 94.9852031,31.288963 91.2197679,31.288963" id="Fill-60" fill="#FFBFBF" mask="url(#mask-4)"></path>
                    <path d="M91.2197679,31.288963 C87.4543328,31.288963 84.4021191,28.2400741 84.4021191,24.4787407 L84.4021191,19.2707407 L98.0374168,19.2707407 L98.0374168,24.4787407 C98.0374168,28.2400741 94.9852031,31.288963 91.2197679,31.288963 Z" id="Stroke-61" stroke="#717791" stroke-width="2.5" stroke-linecap="round" stroke-linejoin="round" mask="url(#mask-4)"></path>
                    <path d="M104.776788,31.288963 C101.011353,31.288963 97.9591389,28.2400741 97.9591389,24.4787407 L97.9591389,19.2707407 L111.594437,19.2707407 L111.594437,24.4787407 C111.594437,28.2400741 108.542223,31.288963 104.776788,31.288963" id="Fill-62" fill="#FFFFFF" mask="url(#mask-4)"></path>
                    <path d="M104.776788,31.288963 C101.011353,31.288963 97.9591389,28.2400741 97.9591389,24.4787407 L97.9591389,19.2707407 L111.594437,19.2707407 L111.594437,24.4787407 C111.594437,28.2400741 108.542223,31.288963 104.776788,31.288963 Z" id="Stroke-63" stroke="#717791" stroke-width="2.5" stroke-linecap="round" stroke-linejoin="round" mask="url(#mask-4)"></path>
                    <path d="M118.412916,31.288963 C114.647481,31.288963 111.595267,28.2400741 111.595267,24.4787407 L111.595267,19.2707407 L125.230565,19.2707407 L125.230565,24.4787407 C125.230565,28.2400741 122.178351,31.288963 118.412916,31.288963" id="Fill-64" fill="#FFBFBF" mask="url(#mask-4)"></path>
                    <path d="M118.412916,31.288963 C114.647481,31.288963 111.595267,28.2400741 111.595267,24.4787407 L111.595267,19.2707407 L125.230565,19.2707407 L125.230565,24.4787407 C125.230565,28.2400741 122.178351,31.288963 118.412916,31.288963 Z" id="Stroke-65" stroke="#717791" stroke-width="2.5" stroke-linecap="round" stroke-linejoin="round" mask="url(#mask-4)"></path>
                </g>
            </g>
        </g>
    </g>
</svg>