<?xml version="1.0" encoding="UTF-8"?>
<svg width="1234px" height="476px" viewBox="0 0 1234 476" version="1.1" xmlns="http://www.w3.org/2000/svg" xmlns:xlink="http://www.w3.org/1999/xlink">
    <!-- Generator: Sketch 55.1 (78136) - https://sketchapp.com -->
    <title>Group 12</title>
    <desc>Created with Sketch.</desc>
    <g id="Tilda" stroke="none" stroke-width="1" fill="none" fill-rule="evenodd">
        <g id="Inventory-Management" transform="translate(-104.000000, -2762.000000)">
            <g id="Group-12" transform="translate(104.740000, 2762.500000)">
                <path d="M9.54,178.610312 L15.06,178.610312 C18.66,178.610312 21.12,176.510313 21.12,173.210312 C21.12,169.790312 18.66,167.750312 15.06,167.750312 L9.54,167.750312 L9.54,178.610312 Z M16.02,186.770312 L9.48,186.770312 L9.48,202.070312 L-2.30215846e-12,202.070312 L-2.30215846e-12,159.530313 L16.02,159.530313 C24.66,159.530313 30.6,165.230312 30.6,173.150312 C30.6,181.190312 24.66,186.770312 16.02,186.770312 Z M57.24,202.070312 L49.62,186.230312 L46.26,186.230312 L46.26,202.070312 L36.78,202.070312 L36.78,159.530313 L53.64,159.530313 C62.04,159.530313 67.44,165.290312 67.44,172.850313 C67.44,178.610312 64.26,182.990313 59.04,184.850313 L67.68,202.070312 L57.24,202.070312 Z M46.26,178.070312 L51.84,178.070312 C55.74,178.070312 57.84,175.910313 57.84,172.910313 C57.84,169.730312 55.74,167.750312 51.84,167.750312 L46.26,167.750312 L46.26,178.070312 Z M101.46,202.070312 L74.46,202.070312 L74.46,159.530313 L101.4,159.530313 L101.4,168.470313 L83.94,168.470313 L83.94,176.570312 L99.78,176.570312 L99.78,184.910313 L83.94,184.910313 L83.94,193.070312 L101.46,193.070312 L101.46,202.070312 Z M116.82,180.770312 C116.82,189.650312 123.18,193.610312 129.12,193.610312 C135,193.610312 141.36,189.650312 141.36,180.770312 C141.36,171.890313 135,167.870313 129.12,167.870313 C123.18,167.870313 116.82,171.890313 116.82,180.770312 Z M106.98,180.830313 C106.98,167.330313 117.12,158.630312 129.12,158.630312 C141.06,158.630312 151.2,167.330313 151.2,180.830313 C151.2,194.270312 141.06,202.970313 129.12,202.970313 C117.12,202.970313 106.98,194.270312 106.98,180.830313 Z M178.44,202.070312 L170.82,186.230312 L167.46,186.230312 L167.46,202.070312 L157.98,202.070312 L157.98,159.530313 L174.84,159.530313 C183.24,159.530313 188.64,165.290312 188.64,172.850313 C188.64,178.610312 185.46,182.990313 180.24,184.850313 L188.88,202.070312 L178.44,202.070312 Z M167.46,178.070312 L173.04,178.070312 C176.94,178.070312 179.04,175.910313 179.04,172.910313 C179.04,169.730312 176.94,167.750312 173.04,167.750312 L167.46,167.750312 L167.46,178.070312 Z M205.14,193.130312 L210.66,193.130312 C217.2,193.130312 222.54,189.350313 222.54,180.830313 C222.54,172.310312 217.2,168.470313 210.66,168.470313 L205.14,168.470313 L205.14,193.130312 Z M211.02,202.070312 L195.66,202.070312 L195.66,159.530313 L211.08,159.530313 C223.86,159.530313 232.44,167.690312 232.44,180.830313 C232.44,193.970313 223.86,202.070312 211.02,202.070312 Z M266.22,202.070312 L239.22,202.070312 L239.22,159.530313 L266.16,159.530313 L266.16,168.470313 L248.7,168.470313 L248.7,176.570312 L264.54,176.570312 L264.54,184.910313 L248.7,184.910313 L248.7,193.070312 L266.22,193.070312 L266.22,202.070312 Z M294.66,202.070312 L287.04,186.230312 L283.68,186.230312 L283.68,202.070312 L274.2,202.070312 L274.2,159.530313 L291.06,159.530313 C299.46,159.530313 304.86,165.290312 304.86,172.850313 C304.86,178.610312 301.68,182.990313 296.46,184.850313 L305.1,202.070312 L294.66,202.070312 Z M283.68,178.070312 L289.26,178.070312 C293.16,178.070312 295.26,175.910313 295.26,172.910313 C295.26,169.730312 293.16,167.750312 289.26,167.750312 L283.68,167.750312 L283.68,178.070312 Z M133.2,239.610312 L138.72,239.610312 C142.32,239.610312 144.78,237.510313 144.78,234.210312 C144.78,230.790312 142.32,228.750312 138.72,228.750312 L133.2,228.750312 L133.2,239.610312 Z M139.68,247.770312 L133.14,247.770312 L133.14,263.070312 L123.66,263.070312 L123.66,220.530313 L139.68,220.530313 C148.32,220.530313 154.26,226.230312 154.26,234.150312 C154.26,242.190312 148.32,247.770312 139.68,247.770312 Z M167.82,241.770312 C167.82,250.650312 174.18,254.610312 180.12,254.610312 C186,254.610312 192.36,250.650312 192.36,241.770312 C192.36,232.890313 186,228.870313 180.12,228.870313 C174.18,228.870313 167.82,232.890313 167.82,241.770312 Z M157.98,241.830313 C157.98,228.330313 168.12,219.630312 180.12,219.630312 C192.06,219.630312 202.2,228.330313 202.2,241.830313 C202.2,255.270312 192.06,263.970313 180.12,263.970313 C168.12,263.970313 157.98,255.270312 157.98,241.830313 Z M218.58,263.070312 L208.98,263.070312 L208.98,220.530313 L218.58,220.530313 L218.58,263.070312 Z M264.72,263.070312 L254.7,263.070312 L237.18,235.110312 L237.18,263.070312 L227.76,263.070312 L227.76,220.530313 L239.28,220.530313 L255.24,246.390313 L255.24,220.530313 L264.72,220.530313 L264.72,263.070312 Z M306.12,229.590312 L292.98,229.590312 L292.98,263.070312 L283.5,263.070312 L283.5,229.590312 L270.42,229.590312 L270.42,220.530313 L306.12,220.530313 L306.12,229.590312 Z" id="PREORDERPOINT" fill="#0C1015" fill-rule="nonzero"></path>
                <path d="M556.72,79.0703125 L528.88,79.0703125 L528.88,36.5303125 L538.36,36.5303125 L538.36,70.0103125 L556.72,70.0103125 L556.72,79.0703125 Z M589.84,79.0703125 L562.84,79.0703125 L562.84,36.5303125 L589.78,36.5303125 L589.78,45.4703125 L572.32,45.4703125 L572.32,53.5703125 L588.16,53.5703125 L588.16,61.9103125 L572.32,61.9103125 L572.32,70.0703125 L589.84,70.0703125 L589.84,79.0703125 Z M626.32,79.0703125 L623.26,70.4303125 L606.82,70.4303125 L603.76,79.0703125 L593.8,79.0703125 L609.82,36.5303125 L620.8,36.5303125 L636.64,79.0703125 L626.32,79.0703125 Z M615.16,47.0903125 L609.94,61.7903125 L620.26,61.7903125 L615.16,47.0903125 Z M651.34,70.1303125 L656.86,70.1303125 C663.4,70.1303125 668.74,66.3503125 668.74,57.8303125 C668.74,49.3103125 663.4,45.4703125 656.86,45.4703125 L651.34,45.4703125 L651.34,70.1303125 Z M657.22,79.0703125 L641.86,79.0703125 L641.86,36.5303125 L657.28,36.5303125 C670.06,36.5303125 678.64,44.6903125 678.64,57.8303125 C678.64,70.9703125 670.06,79.0703125 657.22,79.0703125 Z M561.1,109.590312 L547.96,109.590312 L547.96,143.070312 L538.48,143.070312 L538.48,109.590312 L525.4,109.590312 L525.4,100.530313 L561.1,100.530313 L561.1,109.590312 Z M576.46,143.070312 L566.86,143.070312 L566.86,100.530313 L576.46,100.530313 L576.46,143.070312 Z M633.82,143.070312 L624.52,143.070312 L624.52,114.870313 L613.42,143.070312 L605.74,143.070312 L594.64,115.230312 L594.64,143.070312 L585.64,143.070312 L585.64,100.530313 L598,100.530313 L609.7,129.270312 L620.8,100.530313 L633.82,100.530313 L633.82,143.070312 Z M670.06,143.070312 L643.06,143.070312 L643.06,100.530313 L670,100.530313 L670,109.470313 L652.54,109.470313 L652.54,117.570312 L668.38,117.570312 L668.38,125.910313 L652.54,125.910313 L652.54,134.070312 L670.06,134.070312 L670.06,143.070312 Z" id="LEADTIME" fill="#0C1015" fill-rule="nonzero"></path>
                <path d="M557.38,313.070313 L554.32,304.430313 L537.88,304.430313 L534.82,313.070313 L524.86,313.070313 L540.88,270.530313 L551.86,270.530313 L567.7,313.070313 L557.38,313.070313 Z M546.22,281.090313 L541,295.790313 L551.32,295.790313 L546.22,281.090313 Z M589.6,300.470313 L599.74,270.530313 L609.82,270.530313 L594.28,313.070313 L584.5,313.070313 L568.9,270.530313 L579.34,270.530313 L589.6,300.470313 Z M642.04,313.070313 L615.04,313.070313 L615.04,270.530313 L641.98,270.530313 L641.98,279.470313 L624.52,279.470313 L624.52,287.570313 L640.36,287.570313 L640.36,295.910313 L624.52,295.910313 L624.52,304.070313 L642.04,304.070313 L642.04,313.070313 Z M670.48,313.070313 L662.86,297.230313 L659.5,297.230313 L659.5,313.070313 L650.02,313.070313 L650.02,270.530313 L666.88,270.530313 C675.28,270.530313 680.68,276.290313 680.68,283.850313 C680.68,289.610313 677.5,293.990313 672.28,295.850313 L680.92,313.070313 L670.48,313.070313 Z M659.5,289.070313 L665.08,289.070313 C668.98,289.070313 671.08,286.910313 671.08,283.910313 C671.08,280.730313 668.98,278.750313 665.08,278.750313 L659.5,278.750313 L659.5,289.070313 Z M716.2,313.070313 L713.14,304.430313 L696.7,304.430313 L693.64,313.070313 L683.68,313.070313 L699.7,270.530313 L710.68,270.530313 L726.52,313.070313 L716.2,313.070313 Z M705.04,281.090313 L699.82,295.790313 L710.14,295.790313 L705.04,281.090313 Z M771.04,313.070313 L763.36,313.070313 L762.76,308.750313 C760.9,311.450313 756.88,313.970313 750.82,313.970313 C739,313.970313 729.28,305.270313 729.28,291.830313 C729.28,278.450313 739.42,269.630313 751.42,269.630313 C763.6,269.630313 769.24,276.830313 771.1,282.770313 L761.98,285.950313 C761.32,283.310313 758.5,278.510313 751.42,278.510313 C745.66,278.510313 738.88,282.350313 738.88,291.830313 C738.88,300.710313 744.76,305.330313 751.66,305.330313 C758.68,305.330313 761.62,300.770313 762.16,298.370313 L749.38,298.370313 L749.38,290.330313 L771.04,290.330313 L771.04,313.070313 Z M806.02,313.070313 L779.02,313.070313 L779.02,270.530313 L805.96,270.530313 L805.96,279.470313 L788.5,279.470313 L788.5,287.570313 L804.34,287.570313 L804.34,295.910313 L788.5,295.910313 L788.5,304.070313 L806.02,304.070313 L806.02,313.070313 Z M538.36,368.130313 L543.88,368.130313 C550.42,368.130313 555.76,364.350313 555.76,355.830313 C555.76,347.310313 550.42,343.470313 543.88,343.470313 L538.36,343.470313 L538.36,368.130313 Z M544.24,377.070313 L528.88,377.070313 L528.88,334.530313 L544.3,334.530313 C557.08,334.530313 565.66,342.690313 565.66,355.830313 C565.66,368.970313 557.08,377.070313 544.24,377.070313 Z M600.94,377.070313 L597.88,368.430313 L581.44,368.430313 L578.38,377.070313 L568.42,377.070313 L584.44,334.530313 L595.42,334.530313 L611.26,377.070313 L600.94,377.070313 Z M589.78,345.090313 L584.56,359.790313 L594.88,359.790313 L589.78,345.090313 Z M626.08,377.070313 L616.48,377.070313 L616.48,334.530313 L626.08,334.530313 L626.08,377.070313 Z M663.1,377.070313 L635.26,377.070313 L635.26,334.530313 L644.74,334.530313 L644.74,368.010313 L663.1,368.010313 L663.1,377.070313 Z M679.96,359.310313 L665.2,334.530313 L676.3,334.530313 L685,350.310313 L693.82,334.530313 L704.38,334.530313 L689.44,359.310313 L689.44,377.070313 L679.96,377.070313 L679.96,359.310313 Z M545.38,442.030313 C536.02,442.030313 528.52,436.390313 528.52,425.710313 L528.52,398.530313 L538,398.530313 L538,424.930313 C538,430.090313 540.88,432.670313 545.38,432.670313 C549.88,432.670313 552.76,430.090313 552.76,424.930313 L552.76,398.530313 L562.24,398.530313 L562.24,425.710313 C562.24,436.390313 554.74,442.030313 545.38,442.030313 Z M600.4,408.970313 L591.88,411.370313 C591.58,409.390313 589.96,406.030313 584.8,406.030313 C581.26,406.030313 578.98,408.250313 578.98,410.590313 C578.98,412.630313 580.24,414.130313 583.18,414.670313 L588.88,415.750313 C596.98,417.250313 601.18,422.470313 601.18,428.530313 C601.18,435.190313 595.6,441.970313 585.46,441.970313 C573.7,441.970313 568.66,434.350313 568.06,428.350313 L576.76,426.250313 C577.12,430.150313 579.76,433.570313 585.58,433.570313 C589.3,433.570313 591.58,431.770313 591.58,429.130313 C591.58,426.970313 589.84,425.410313 587.02,424.870313 L581.2,423.790313 C574,422.410313 569.62,417.610313 569.62,411.310313 C569.62,403.270313 576.7,397.630313 584.86,397.630313 C595.48,397.630313 599.5,403.990313 600.4,408.970313 Z M636.16,441.070313 L633.1,432.430313 L616.66,432.430313 L613.6,441.070313 L603.64,441.070313 L619.66,398.530313 L630.64,398.530313 L646.48,441.070313 L636.16,441.070313 Z M625,409.090313 L619.78,423.790313 L630.1,423.790313 L625,409.090313 Z M691,441.070313 L683.32,441.070313 L682.72,436.750313 C680.86,439.450313 676.84,441.970313 670.78,441.970313 C658.96,441.970313 649.24,433.270313 649.24,419.830313 C649.24,406.450313 659.38,397.630313 671.38,397.630313 C683.56,397.630313 689.2,404.830313 691.06,410.770313 L681.94,413.950313 C681.28,411.310313 678.46,406.510313 671.38,406.510313 C665.62,406.510313 658.84,410.350313 658.84,419.830313 C658.84,428.710313 664.72,433.330313 671.62,433.330313 C678.64,433.330313 681.58,428.770313 682.12,426.370313 L669.34,426.370313 L669.34,418.330313 L691,418.330313 L691,441.070313 Z M725.98,441.070313 L698.98,441.070313 L698.98,398.530313 L725.92,398.530313 L725.92,407.470313 L708.46,407.470313 L708.46,415.570313 L724.3,415.570313 L724.3,423.910313 L708.46,423.910313 L708.46,432.070313 L725.98,432.070313 L725.98,441.070313 Z" id="AVERAGEDAILYUSAGE" fill="#0C1015" fill-rule="nonzero"></path>
                <path d="M1039.16,168.970313 L1030.64,171.370313 C1030.34,169.390313 1028.72,166.030313 1023.56,166.030313 C1020.02,166.030313 1017.74,168.250312 1017.74,170.590312 C1017.74,172.630312 1019,174.130312 1021.94,174.670312 L1027.64,175.750312 C1035.74,177.250312 1039.94,182.470313 1039.94,188.530313 C1039.94,195.190312 1034.36,201.970313 1024.22,201.970313 C1012.46,201.970313 1007.42,194.350313 1006.82,188.350313 L1015.52,186.250312 C1015.88,190.150312 1018.52,193.570312 1024.34,193.570312 C1028.06,193.570312 1030.34,191.770312 1030.34,189.130312 C1030.34,186.970313 1028.6,185.410313 1025.78,184.870313 L1019.96,183.790312 C1012.76,182.410313 1008.38,177.610312 1008.38,171.310312 C1008.38,163.270312 1015.46,157.630312 1023.62,157.630312 C1034.24,157.630312 1038.26,163.990313 1039.16,168.970313 Z M1074.92,201.070312 L1071.86,192.430313 L1055.42,192.430313 L1052.36,201.070312 L1042.4,201.070312 L1058.42,158.530313 L1069.4,158.530313 L1085.24,201.070312 L1074.92,201.070312 Z M1063.76,169.090312 L1058.54,183.790312 L1068.86,183.790312 L1063.76,169.090312 Z M1100,201.070312 L1090.46,201.070312 L1090.46,158.530313 L1117.88,158.530313 L1117.88,167.530313 L1099.94,167.530313 L1099.94,176.530313 L1115.72,176.530313 L1115.72,185.170312 L1100,185.170312 L1100,201.070312 Z M1151.54,201.070312 L1124.54,201.070312 L1124.54,158.530313 L1151.48,158.530313 L1151.48,167.470313 L1134.02,167.470313 L1134.02,175.570312 L1149.86,175.570312 L1149.86,183.910313 L1134.02,183.910313 L1134.02,192.070312 L1151.54,192.070312 L1151.54,201.070312 Z M1191.74,167.590312 L1178.6,167.590312 L1178.6,201.070312 L1169.12,201.070312 L1169.12,167.590312 L1156.04,167.590312 L1156.04,158.530313 L1191.74,158.530313 L1191.74,167.590312 Z M1208.24,183.310312 L1193.48,158.530313 L1204.58,158.530313 L1213.28,174.310312 L1222.1,158.530313 L1232.66,158.530313 L1217.72,183.310312 L1217.72,201.070312 L1208.24,201.070312 L1208.24,183.310312 Z M1039.16,231.970313 L1030.64,234.370313 C1030.34,232.390313 1028.72,229.030313 1023.56,229.030313 C1020.02,229.030313 1017.74,231.250312 1017.74,233.590312 C1017.74,235.630312 1019,237.130312 1021.94,237.670312 L1027.64,238.750312 C1035.74,240.250312 1039.94,245.470313 1039.94,251.530313 C1039.94,258.190312 1034.36,264.970313 1024.22,264.970313 C1012.46,264.970313 1007.42,257.350313 1006.82,251.350313 L1015.52,249.250312 C1015.88,253.150312 1018.52,256.570312 1024.34,256.570312 C1028.06,256.570312 1030.34,254.770312 1030.34,252.130312 C1030.34,249.970313 1028.6,248.410313 1025.78,247.870313 L1019.96,246.790312 C1012.76,245.410313 1008.38,240.610312 1008.38,234.310312 C1008.38,226.270312 1015.46,220.630312 1023.62,220.630312 C1034.24,220.630312 1038.26,226.990313 1039.16,231.970313 Z M1078.64,230.590312 L1065.5,230.590312 L1065.5,264.070312 L1056.02,264.070312 L1056.02,230.590312 L1042.94,230.590312 L1042.94,221.530313 L1078.64,221.530313 L1078.64,230.590312 Z M1091.78,242.770312 C1091.78,251.650312 1098.14,255.610312 1104.08,255.610312 C1109.96,255.610312 1116.32,251.650312 1116.32,242.770312 C1116.32,233.890313 1109.96,229.870313 1104.08,229.870313 C1098.14,229.870313 1091.78,233.890313 1091.78,242.770312 Z M1081.94,242.830313 C1081.94,229.330313 1092.08,220.630312 1104.08,220.630312 C1116.02,220.630312 1126.16,229.330313 1126.16,242.830313 C1126.16,256.270312 1116.02,264.970313 1104.08,264.970313 C1092.08,264.970313 1081.94,256.270312 1081.94,242.830313 Z M1152.56,264.970313 C1140.32,264.970313 1130.48,256.150312 1130.48,242.890313 C1130.48,229.630312 1140.56,220.630312 1152.44,220.630312 C1165.22,220.630312 1170.86,228.850313 1172.24,234.970313 L1163.3,237.790312 C1162.64,234.850313 1159.94,229.870313 1152.44,229.870313 C1146.74,229.870313 1140.32,233.950313 1140.32,242.890313 C1140.32,250.870313 1146.2,255.490313 1152.56,255.490313 C1159.94,255.490313 1162.88,250.570312 1163.72,247.510313 L1172.78,250.090312 C1171.4,255.970313 1165.76,264.970313 1152.56,264.970313 Z M1205,264.070312 L1193.54,247.330313 L1188.74,252.670312 L1188.74,264.070312 L1179.26,264.070312 L1179.26,221.530313 L1188.74,221.530313 L1188.74,239.410313 L1204.28,221.530313 L1216.76,221.530313 L1200.2,239.950313 L1216.82,264.070312 L1205,264.070312 Z" id="SAFETYSTOCK" fill="#0C1015" fill-rule="nonzero"></path>
                <g id="Group-10" transform="translate(904.260000, 186.070312)" stroke="#979797" stroke-linecap="round" stroke-linejoin="round" stroke-width="11">
                    <path d="M0,25.5 L50,25.5" id="Line-2"></path>
                    <path d="M0,25.5 L50,25.5" id="Line-2" transform="translate(25.000000, 25.500000) rotate(-270.000000) translate(-25.000000, -25.500000) "></path>
                </g>
                <g id="Group-5" transform="translate(363.260000, 198.070312)" stroke="#979797" stroke-linecap="round" stroke-linejoin="round" stroke-width="11">
                    <path d="M0,0.5 L40,0.5" id="Line-2"></path>
                    <path d="M0,26.5 L40,26.5" id="Line-2"></path>
                </g>
                <path d="M472.26,11 L507.76,11 C510.797566,11 513.26,8.53756612 513.26,5.5 C513.26,2.46243388 510.797566,2.27373675e-13 507.76,2.27373675e-13 L466.76,2.27373675e-13 C463.722434,2.27373675e-13 461.26,2.46243388 461.26,5.5 L461.26,469.808594 C461.26,472.84616 463.722434,475.308594 466.76,475.308594 L507.76,475.308594 C510.797566,475.308594 513.26,472.84616 513.26,469.808594 C513.26,466.771028 510.797566,464.308594 507.76,464.308594 L472.26,464.308594 L472.26,11 Z" id="Line-3" fill="#979797" fill-rule="nonzero"></path>
                <path d="M815.76,11 L851.26,11 C854.297566,11 856.76,8.53756612 856.76,5.5 C856.76,2.46243388 854.297566,2.27373675e-13 851.26,2.27373675e-13 L810.26,2.27373675e-13 C807.222434,2.27373675e-13 804.76,2.46243388 804.76,5.5 L804.76,469.808594 C804.76,472.84616 807.222434,475.308594 810.26,475.308594 L851.26,475.308594 C854.297566,475.308594 856.76,472.84616 856.76,469.808594 C856.76,466.771028 854.297566,464.308594 851.26,464.308594 L815.76,464.308594 L815.76,11 Z" id="Line-3" fill="#979797" fill-rule="nonzero" transform="translate(830.760000, 237.654297) rotate(-180.000000) translate(-830.760000, -237.654297) "></path>
                <g id="Group-11" transform="translate(593.260000, 189.070312)" stroke="#979797" stroke-linecap="round" stroke-linejoin="round" stroke-width="11">
                    <g id="Group-9">
                        <path d="M-8,22.5 L52,22.5" id="Line-2" transform="translate(22.000000, 22.500000) rotate(-315.000000) translate(-22.000000, -22.500000) "></path>
                        <path d="M-8,22.5 L52,22.5" id="Line-2" transform="translate(22.000000, 22.500000) rotate(-225.000000) translate(-22.000000, -22.500000) "></path>
                    </g>
                </g>
            </g>
        </g>
    </g>
</svg>