<?xml version="1.0" encoding="UTF-8"?>
<svg width="141px" height="130px" viewBox="0 0 141 130" version="1.1" xmlns="http://www.w3.org/2000/svg" xmlns:xlink="http://www.w3.org/1999/xlink">
    <!-- Generator: Sketch 55.1 (78136) - https://sketchapp.com -->
    <title>shutterstock_1259096683</title>
    <desc>Created with Sketch.</desc>
    <g id="Blog" stroke="none" stroke-width="1" fill="none" fill-rule="evenodd">
        <g id="Blog-v1" transform="translate(-1134.000000, -341.000000)">
            <g id="Group-20" transform="translate(1070.000000, 292.000000)">
                <g id="shutterstock_1259096683" transform="translate(64.000000, 49.000000)">
                    <path d="M70.5481005,130 L67.8547695,130 C64.9711092,130 62.633112,127.625607 62.633112,124.696463 L62.633112,100.168402 C62.633112,97.2392582 64.9711092,94.8648649 67.8547695,94.8648649 L70.5481005,94.8648649 C73.4317608,94.8648649 75.769758,97.2392582 75.769758,100.168402 L75.769758,124.696463 C75.769758,127.625607 73.4317608,130 70.5481005,130" id="Fill-3" fill="#FFF7BF"></path>
                    <path d="M75.6041125,122.779726 C75.519042,126.229736 73.0914399,129.78696 69.646601,129.074556 C66.6304659,128.450744 64.6313096,125.486861 64.5506215,122.21742 C64.5428878,121.907348 62.6195216,122.217138 62.633112,122.779726 C62.7424871,127.209892 66.2138783,130.340237 70.1879586,129.970351 C74.0589233,129.609776 77.4122469,126.650407 77.5213108,122.21742 C77.5282521,121.941205 75.6185487,122.19626 75.6041125,122.779726" id="Fill-4" fill="#71768E"></path>
                    <path d="M115.888429,87.1262474 C108.492453,56.4391965 109.063756,16.6891892 69.6394533,16.6891892 C29.9060852,16.6891892 30.7864531,56.4391965 23.3902176,87.1262474 C20.0404487,101.0245 10.9623046,102.028717 10.9623046,109.924034 C10.9623046,116.160392 40.014187,121.216216 69.6394533,121.216216 C99.2644594,121.216216 128.316342,116.160392 128.316342,109.924034 C128.316342,102.028717 119.238198,101.0245 115.888429,87.1262474" id="Fill-5" fill="#FFE07B"></path>
                    <path d="M70.5479967,36.0135135 L67.8548733,36.0135135 C64.9708945,36.0135135 62.633112,33.638855 62.633112,30.7099768 L62.633112,6.18191508 C62.633112,3.25277176 64.9708945,0.878378378 67.8548733,0.878378378 L70.5479967,0.878378378 C73.4319754,0.878378378 75.769758,3.25277176 75.769758,6.18191508 L75.769758,30.7099768 C75.769758,33.638855 73.4319754,36.0135135 70.5479967,36.0135135" id="Fill-6" fill="#FFEEA4"></path>
                    <path d="M108.874312,87.7044591 C106.301769,77.1924102 105.110105,66.511451 102.921473,55.8999968 C101.25377,47.8140676 99.01816,39.5416551 94.4882191,32.5510206 C87.5190991,21.7960975 75.8282132,17.5675676 63.4284882,17.5675676 C46.4006914,17.5686167 34.949652,34.1163268 31.4605247,47.9155712 C29.4360532,55.9228154 28.5301694,64.3772525 26.6852565,72.4004959 C25.0112897,79.6804288 23.6189273,87.9764468 20.1759947,94.3533385 C17.847735,98.6647499 8.83195966,104.666577 11.4269475,109.631336 C12.5249173,111.731962 16.86747,112.341246 18.8590573,112.821224 C23.4164018,113.919142 28.0747481,114.61629 32.7153474,115.246295 C46.3015165,117.091195 60.0346211,118.121705 73.7465857,117.540486 C86.6134763,116.994937 99.8407892,115.49048 111.683308,110.062529 C119.641045,106.414694 111.743074,97.924849 110.183158,92.594205 C109.707641,90.9690982 109.274143,89.3387458 108.874312,87.7044591" id="Fill-7" fill="#FFEEA4"></path>
                    <path d="M62.8271923,101.634794 C57.3848757,101.200238 52.3928585,99.4956016 48.6633017,95.1391051 C43.5948827,89.2183108 43.413821,80.4550665 44.69983,73.1428595 C45.4625393,68.8051096 46.9494953,64.63686 48.6567605,60.5870783 C50.1327272,57.0853737 52.4483282,53.3790189 52.1071368,49.4255739 C51.9360179,47.4446854 50.7114966,45.4205757 48.778166,44.9178029 C47.3134502,44.5371432 45.7265439,45.0974576 44.5525211,46.0485861 C40.061825,49.6877656 37.7815467,57.4556186 36.1862676,62.7627229 C34.4693214,68.4741804 33.5245038,74.4160646 33.4064998,80.3772161 C33.3282665,84.3212879 32.4383954,88.473655 30.6348431,92.094088 C28.6892149,95.9998855 25.1613901,98.1362143 22.8737856,101.650417 C19.7229983,106.491981 31.6393168,107.959161 34.1964206,108.470786 C43.2324977,110.278529 52.2128434,110.560509 61.3889031,110.669604 C63.8251247,110.698505 66.433512,110.678717 68.4492623,109.315945 C70.9134805,107.649061 71.4252675,104.080963 68.594478,102.558063 C67.3872256,101.908442 65.9724849,101.776435 64.6006549,101.732433 C64.0048782,101.713426 63.4132879,101.681401 62.8271923,101.634794" id="Fill-8" fill="#FFF7BF"></path>
                    <path d="M109.843173,58.6824655 C111.377901,65.7161033 112.578845,72.8160269 114.025157,79.8674806 C115.176661,85.4826533 116.25152,91.1635878 119.43869,96.0323239 C121.428579,99.0725658 124.209767,101.421129 126.310307,104.357881 C127.558598,106.103322 129.121054,109.386961 127.394583,111.285147 C125.355255,113.527601 121.597302,114.422067 118.810882,115.197585 C113.648995,116.63439 108.333033,117.515756 103.027797,118.221321 C89.4038464,120.033047 75.5797824,120.55364 61.8493663,120.114005 C49.3507612,119.713932 36.5743513,118.74401 24.3886037,115.780796 C20.9385388,114.941874 17.1201601,114.009156 14.1257789,112.005908 C13.3444199,111.483219 12.4576415,110.802544 12.1649262,109.864062 C11.7989666,108.690304 12.2376472,107.152891 12.6810364,106.05852 C13.9387445,102.954874 16.8248288,100.696176 18.8924089,98.1521616 C22.0296163,94.2921234 23.8063121,89.8991783 24.9261641,85.0807461 C27.0306278,76.0255204 28.4018645,66.819907 30.3896606,57.7400534 C32.267852,49.1600948 34.6273626,40.3495766 39.3110697,32.8275718 C43.8456724,25.5455586 50.5783869,20.3406771 58.9554344,18.3109672 C60.4077628,17.9591019 61.8846805,17.7204204 63.3545353,17.4547529 C63.696952,17.3929211 64.4819733,17.2089974 64.4819733,16.7355644 C64.4819733,14.7781663 64.4819733,12.8207683 64.4819733,10.8633703 C64.4819733,8.78754846 64.1625761,6.31715546 64.9949445,4.36211542 C66.7645774,0.20601783 71.9337891,0.0144962171 74.4918439,3.53760309 C75.9556822,5.55368901 75.6982811,8.01517403 75.6982811,10.3605933 C75.6982811,12.6371067 75.6982811,14.9136201 75.6982811,17.1901335 C75.7325489,17.2760693 75.7948065,17.3318752 75.8853154,17.3578131 C78.2895574,17.932116 80.6935377,18.5064188 83.097518,19.0804596 C83.5343676,19.1849974 84.082653,19.1166156 84.4671852,18.8679781 C84.6306768,18.7621303 85.1415553,18.3355951 84.6686068,18.2226734 C83.3410551,17.905392 82.0135034,17.5883727 80.6856901,17.2713533 C79.9388605,17.0929317 79.1920309,16.91451 78.4452014,16.7360884 C78.175244,16.6716365 77.8990087,16.6187126 77.6321904,16.5419468 C77.3125316,16.449985 77.6643655,16.7203684 77.6437002,16.5888447 C77.4488182,15.3385832 77.6437002,13.9051841 77.6437002,12.6423467 C77.6437002,10.9422321 77.6437002,9.24211755 77.6437002,7.54200299 C77.6437002,5.82512046 77.3570013,4.23923767 76.3106552,2.81946254 C74.9564216,0.982322259 72.7468001,-0.010655732 70.4877387,0 C66.0517541,0.0210462039 62.5532957,3.29577758 62.5362925,7.74452858 C62.5242596,10.9155082 62.5362925,14.0867497 62.5362925,17.2574673 C62.9121924,17.0177378 63.2878307,16.7780083 63.6637305,16.5382788 C59.7624288,17.2433194 55.9356793,18.0565657 52.2988416,19.6969444 C48.4320693,21.4410749 44.9456438,23.9038699 42.026338,26.9865556 C36.0017383,33.3479028 32.7007777,41.8041977 30.3933229,50.1242528 C27.7957685,59.4912579 26.3363771,69.1249784 24.433335,78.6452531 C23.4272732,83.6793109 22.5690078,88.9572902 20.1862159,93.5545949 C18.2706177,97.2506215 15.3209678,99.9707 12.7338769,103.151898 C11.7649603,104.343471 10.9030327,105.663162 10.4674911,107.150271 C10.1562031,108.214251 9.85537857,109.64241 10.3453302,110.69984 C11.4259442,113.031636 14.8365095,114.168451 17.0388066,114.95314 C21.7091728,116.616836 26.6445261,117.58047 31.5244231,118.382975 C38.0298188,119.452719 44.5993033,120.132083 51.1748042,120.580888 C65.6496956,121.568888 80.2135264,121.414309 94.6591201,120.048767 C100.805881,119.467391 106.948979,118.674842 112.999999,117.432441 C117.213897,116.567318 121.521704,115.566742 125.437393,113.734318 C127.239462,112.891204 129.973042,111.535619 130.062504,109.229499 C130.19042,105.931974 128.019252,103.313027 125.933099,101.027082 C122.825713,97.6218747 120.111229,94.1671497 118.530723,89.7666066 C117.380789,86.5644491 116.758998,83.156098 116.070763,79.8318487 C115.325242,76.229094 114.65061,72.6121913 113.963684,68.9979086 C113.275973,65.377862 112.574398,61.7604353 111.788853,58.1603006 C111.667216,57.6035517 109.712902,58.0856307 109.843173,58.6824655" id="Fill-9" fill="#71768E"></path>
                    <path d="M16.4029483,36.9681093 C16.5395053,26.6538806 23.1843392,17.4661144 33.0107977,14.6029464 C34.1828266,14.2614915 33.8306532,12.8860353 32.6483569,13.2306156 C22.1334662,16.2940725 14.6133326,25.9410187 14.4654102,37.1038057 C14.451877,38.1380675 16.3908841,37.8713629 16.4029483,36.9681093" id="Fill-10" fill="#71768E"></path>
                    <path d="M2.40747237,40.535206 C2.58457869,22.3718163 15.0411443,5.87377066 32.9704003,0.905267119 C34.1187009,0.587017384 33.9097995,-0.250414214 32.7425795,0.0729810297 C18.5554172,4.0046645 6.96914262,14.5820302 2.48446369,28.4054403 C1.15642905,32.49895 0.495039415,36.7560869 0.452987792,41.047956 C0.448266528,41.5375512 2.40090314,41.2154423 2.40747237,40.535206" id="Fill-11" fill="#71768E"></path>
                    <path d="M140.577211,28.986617 C140.577211,13.4628481 128.03002,0.878378378 112.552497,0.878378378 C97.0747133,0.878378378 84.527522,13.4628481 84.527522,28.986617 C84.527522,44.5101249 97.0747133,57.0945946 112.552497,57.0945946 C128.03002,57.0945946 140.577211,44.5101249 140.577211,28.986617" id="Fill-12" fill="#FB7861"></path>
                    <path d="M111.099695,40.0050248 L111.099695,22.9528006 C108.014225,25.3886823 105.937043,26.6068862 104.868406,26.6068862 C104.358252,26.6068862 103.905635,26.3978033 103.511065,25.9788484 C103.116239,25.5606826 102.918826,25.0765044 102.918826,24.5265769 C102.918826,23.8895972 103.112915,23.4211989 103.502115,23.1213819 C103.890547,22.8215649 104.576889,22.4344327 105.560629,21.9594595 C107.030229,21.2475255 108.2055,20.497983 109.086442,19.7108319 C109.966873,18.9239437 110.747318,18.0431655 111.427779,17.0687602 C112.107728,16.0940919 112.550884,15.4947208 112.757758,15.2698581 C112.964121,15.0449953 113.352809,14.9324324 113.923823,14.9324324 C114.56746,14.9324324 115.083751,15.1885919 115.47244,15.7006478 C115.861128,16.2132297 116.055472,16.9188517 116.055472,17.8183027 L116.055472,39.274155 C116.055472,41.785254 115.223628,43.0405405 113.559428,43.0405405 C112.818363,43.0405405 112.223056,42.7843811 111.773762,42.2723252 C111.324214,41.7602693 111.099695,41.0046778 111.099695,40.0050248" id="Fill-13" fill="#FFFFFF"></path>
                    <path d="M56.600597,69.351714 C59.9648343,72.3590129 65.2773433,73.8061342 69.9464954,73.7835229 C74.5948089,73.7611448 79.9329045,72.4904846 83.4416927,69.6316741 C84.2836752,68.9458766 82.3554508,68.9144074 81.85981,69.3183798 C75.7411924,74.3035821 64.2164242,73.8448298 58.4193531,68.6624199 C57.9210746,68.2169546 56.0585311,68.8670869 56.600597,69.351714" id="Fill-14" fill="#71768E"></path>
                    <path d="M54.7507892,67.6005465 C54.7717298,69.5408729 53.8089281,71.1294311 52.5999582,71.1484759 C51.3909882,71.1675206 50.3937509,69.6097701 50.3725777,67.6694438 C50.3516371,65.7291174 51.3144388,64.1408392 52.5234087,64.1217944 C53.7323786,64.1027497 54.729616,65.6602201 54.7507892,67.6005465" id="Fill-15" fill="#FF9A88"></path>
                    <path d="M89.7818378,65.8439284 C89.8030121,67.7843321 88.8399298,69.3726735 87.6308996,69.3917191 C86.4218695,69.4107646 85.4245825,67.8532321 85.4036409,65.9128284 C85.3824666,63.9724247 86.3455489,62.3840832 87.554579,62.3650377 C88.7636092,62.3459922 89.7608961,63.9035246 89.7818378,65.8439284" id="Fill-16" fill="#FF9A88"></path>
                    <path d="M81.1412573,62.5913305 C81.1671297,62.0721341 81.2816716,61.5924388 81.5491874,61.158738 C81.9834922,60.4547521 82.3735879,60.3541054 83.0718919,60.7391061 C83.935729,61.2155547 84.3599864,62.120293 84.4104753,63.130548 C84.4252954,63.4251832 86.3044363,63.1059275 86.2788151,62.5913305 C86.06003,58.2148214 79.4678397,59.2294053 79.2728636,63.130548 C79.2613627,63.3602498 81.1133754,63.1475931 81.1412573,62.5913305" id="Fill-17" fill="#71768E"></path>
                    <path d="M56.6195379,62.5548901 C56.6790684,61.3943099 57.4444246,60.1070588 58.6722096,60.8323227 C59.4619305,61.2987142 59.84172,62.1622363 59.8886913,63.0797451 C59.9085348,63.4621282 61.7863827,63.1274113 61.7569942,62.5548901 C61.5362039,58.2570304 54.9499211,59.2103547 54.751235,63.0797451 C54.7346569,63.4026113 56.5883912,63.1598033 56.6195379,62.5548901" id="Fill-18" fill="#71768E"></path>
                </g>
            </g>
        </g>
    </g>
</svg>