<?xml version="1.0" encoding="UTF-8"?>
<svg width="30px" height="30px" viewBox="0 0 30 30" version="1.1" xmlns="http://www.w3.org/2000/svg" xmlns:xlink="http://www.w3.org/1999/xlink">
    <!-- Generator: Sketch 55.1 (78136) - https://sketchapp.com -->
    <title>Group 10</title>
    <desc>Created with Sketch.</desc>
    <g id="Blog" stroke="none" stroke-width="1" fill="none" fill-rule="evenodd">
        <g id="Blog-v1" transform="translate(-1190.000000, -785.000000)">
            <g id="Group-7" transform="translate(1148.000000, 785.000000)">
                <g id="Group-6">
                    <g id="Group-10" transform="translate(42.000000, 0.000000)">
                        <circle id="Oval" fill="#0C1015" fill-rule="nonzero" cx="15" cy="15" r="15"></circle>
                        <path d="M15.0777771,21.9998 C11.1500863,22.0003833 8,18.9278826 8,15.0001917 C8,11.0719174 11.1500863,8 15.0777771,8 C16.9835793,8 18.6560418,8.5442649 19.8618248,9.71096352 L17.8002683,11.7719366 C17.1393336,11.0719174 16.1668903,10.7219079 15.0777771,10.7219079 C12.7443799,10.7219079 10.7224912,12.6667944 10.7224912,15.0001917 C10.7224912,17.3330056 12.7443799,19.2778921 15.0777771,19.2778921 C17.0226637,19.2778921 18.5002875,18.0330247 18.9284659,16.1663069 L15.0001917,16.1663069 L15.0001917,13.4443991 L21.8452124,13.4443991 C21.9227979,13.9110785 21.9612989,14.4944278 21.9612989,15.0001917 C21.9612989,15.5053722 21.9227979,15.9720516 21.8452124,16.4387311 C21.3003642,20.0554968 18.577873,21.9998 15.0777771,21.9998 Z" id="Fill-1" fill="#FFFFFF"></path>
                    </g>
                </g>
            </g>
        </g>
    </g>
</svg>