<svg width="44" height="44" viewBox="0 0 44 44" xmlns="http://www.w3.org/2000/svg"><title>Group 21</title><g fill="none" fill-rule="evenodd"><rect fill="#0C1015" width="44" height="44" rx="22"/><path d="M30.924 21.002H14.42l5.295-5.295a.999.999 0 1 0-1.414-1.414l-6.988 6.988a.992.992 0 0 0-.238.347c-.027.068-.03.141-.042.211-.009.056-.033.105-.033.163l.001.003a.995.995 0 0 0 .292.71l7.008 7.008a.997.997 0 0 0 1.414 0 .999.999 0 0 0 0-1.414l-5.307-5.307h16.516a1 1 0 1 0 0-2" fill="#FFF"/></g></svg>