<svg width="32" height="66" viewBox="0 0 32 66" xmlns="http://www.w3.org/2000/svg"><title>Group 2</title><g fill="none" fill-rule="evenodd"><path d="M15.061 35.56l-3.564 9.718-10.01.569a1 1 0 0 0-.593 1.759l7.821 6.678-2.574 10.16a1 1 0 0 0 1.532 1.073L16 59.851l8.327 5.666a1 1 0 0 0 1.532-1.072l-2.574-10.161 7.82-6.678a1 1 0 0 0-.592-1.76l-10.01-.568-3.564-9.718a1 1 0 0 0-1.878 0z" fill="#FFB82A"/><path d="M15.061 1.56l-3.564 9.718-10.01.569a1 1 0 0 0-.593 1.759l7.821 6.678-2.574 10.16a1 1 0 0 0 1.532 1.073L16 25.851l8.327 5.666a1 1 0 0 0 1.532-1.072l-2.574-10.161 7.82-6.678a1 1 0 0 0-.592-1.76l-10.01-.568-3.564-9.718a1 1 0 0 0-1.878 0z" fill="#CFD2E6"/></g></svg>