<svg width="429" height="400" viewBox="0 0 429 400" fill="none" xmlns="http://www.w3.org/2000/svg"><path opacity=".4" fill-rule="evenodd" clip-rule="evenodd" d="M185.715 0L92.851 214.285h92.864L278.572 0h-92.857z" fill="#000" fill-opacity=".1"/><path fill-rule="evenodd" clip-rule="evenodd" d="M0 0l92.857 214.285h92.857L92.857 0H0zm428.57 235.713c0 19.728-15.985 35.714-35.714 35.714-19.728 0-35.714-15.986-35.714-35.714 0-19.729 15.986-35.715 35.714-35.715 19.729 0 35.714 15.986 35.714 35.715zm-103.892 21.352H230C240.471 337.7 309.364 400 392.857 400v-92.857c-32.015 0-59.1-21.064-68.179-50.078zm-94.67-42.782h94.7c9.1-28.978 36.164-49.999 68.149-49.999V71.427c-83.471 0-152.342 62.257-162.849 142.856z" fill="#000" fill-opacity=".1"/></svg>