<svg width="60" height="60" viewBox="0 0 60 60" xmlns="http://www.w3.org/2000/svg"><title>typescript-seeklogo.com</title><g fill="none" fill-rule="evenodd"><path fill="#007ACC" d="M0 30v30h60V0H0z"/><path d="M13.268 30.199l-.019 2.457h7.81v22.191h5.524V32.656h7.809v-2.41c0-1.333-.029-2.447-.067-2.476-.028-.038-4.78-.057-10.542-.047l-10.486.028-.029 2.448zm35.146-2.517c1.524.38 2.686 1.057 3.752 2.162.553.59 1.372 1.666 1.439 1.923.019.077-2.59 1.829-4.172 2.81-.057.038-.286-.21-.543-.59-.771-1.124-1.58-1.61-2.819-1.696-1.819-.124-2.99.829-2.98 2.42 0 .466.066.742.256 1.123.4.829 1.143 1.324 3.477 2.333 4.295 1.848 6.133 3.067 7.276 4.8 1.276 1.934 1.562 5.02.695 7.315-.952 2.495-3.314 4.19-6.638 4.752-1.029.181-3.467.152-4.572-.048-2.409-.428-4.695-1.619-6.104-3.18-.553-.61-1.629-2.2-1.562-2.315.028-.038.276-.19.552-.352.267-.153 1.276-.734 2.229-1.286l1.724-1 .361.533c.505.772 1.61 1.829 2.277 2.181 1.914 1.01 4.543.867 5.838-.295.552-.505.78-1.028.78-1.8 0-.695-.085-1-.447-1.524-.467-.666-1.419-1.228-4.124-2.4-3.095-1.333-4.428-2.162-5.647-3.476-.705-.762-1.372-1.98-1.648-3-.229-.848-.286-2.971-.105-3.828.638-2.99 2.896-5.077 6.153-5.696 1.057-.2 3.514-.124 4.552.134z" fill="#FFF"/></g></svg>