<?xml version="1.0" encoding="UTF-8"?>
<svg width="40px" height="40px" viewBox="0 0 40 40" version="1.1" xmlns="http://www.w3.org/2000/svg" xmlns:xlink="http://www.w3.org/1999/xlink">
    <!-- Generator: Sketch 55.1 (78136) - https://sketchapp.com -->
    <title>Group 7</title>
    <desc>Created with Sketch.</desc>
    <g id="Storytelling-Techniques-to-Communicate" stroke="none" stroke-width="1" fill="none" fill-rule="evenodd">
        <g id="How-Startups-v7" transform="translate(-930.000000, -1662.000000)">
            <g id="Group-7" transform="translate(930.000000, 1662.000000)">
                <polygon id="Fill-1" fill="#FFFFFF" points="0 40 40 40 40 0 0 0"></polygon>
                <g id="Group-6" transform="translate(3.750000, 2.500000)" fill="#000000">
                    <path d="M10,8.75 C10,5.29875 12.79875,2.5 16.25,2.5 C19.70125,2.5 22.5,5.29875 22.5,8.75 C22.5,12.20125 19.70125,15 16.25,15 C12.79875,15 10,12.20125 10,8.75 M16.25,0 C11.4175,0 7.5,3.9175 7.5,8.75 C7.5,13.5825 11.4175,17.5 16.25,17.5 C21.0825,17.5 25,13.5825 25,8.75 C25,3.9175 21.0825,0 16.25,0" id="Fill-2"></path>
                    <path d="M3.887375,23.54975 C4.199875,22.9185 4.898625,22.49975 5.754875,22.49975 L26.744875,22.49975 C27.601125,22.49975 28.299875,22.9185 28.612375,23.54975 C29.212375,24.75975 29.857375,26.3935 29.992375,27.966 C30.052375,28.66475 29.761125,29.24225 29.286125,29.5385 C27.502375,30.646 23.451125,32.49975 16.249875,32.49975 C9.048625,32.49975 4.997375,30.646 3.213625,29.5385 C2.738625,29.24225 2.447375,28.66475 2.507375,27.966 C2.642375,26.3935 3.287375,24.75975 3.887375,23.54975 L3.887375,23.54975 Z M5.754875,19.99975 C4.104875,19.99975 2.447375,20.826 1.647375,22.43975 C0.992375,23.75975 0.191125,25.72225 0.016125,27.75225 C-0.112625,29.25475 0.512375,30.80225 1.894875,31.66225 C4.083625,33.021 8.593625,34.99975 16.249875,34.99975 C23.906125,34.99975 28.416125,33.021 30.604875,31.66225 C31.987375,30.80225 32.612375,29.25475 32.483625,27.75225 C32.308625,25.72225 31.507375,23.75975 30.852375,22.43975 C30.052375,20.826 28.394875,19.99975 26.744875,19.99975 L5.754875,19.99975 Z" id="Fill-4"></path>
                </g>
            </g>
        </g>
    </g>
</svg>