<?xml version="1.0" encoding="UTF-8"?>
<svg width="40px" height="40px" viewBox="0 0 40 40" version="1.1" xmlns="http://www.w3.org/2000/svg" xmlns:xlink="http://www.w3.org/1999/xlink">
    <!-- Generator: Sketch 55.1 (78136) - https://sketchapp.com -->
    <title>Group 9</title>
    <desc>Created with Sketch.</desc>
    <g id="Storytelling-Techniques-to-Communicate" stroke="none" stroke-width="1" fill="none" fill-rule="evenodd">
        <g id="How-Startups-v7" transform="translate(-600.000000, -1662.000000)">
            <g id="Group-9" transform="translate(600.000000, 1662.000000)">
                <polygon id="Fill-1" fill="#FFFFFF" points="0 40 40 40 40 0 0 0"></polygon>
                <g id="Group-8" transform="translate(2.500000, 2.500000)" fill="#000000">
                    <path d="M17.525,23.75 L17.475,23.75 C16.8,23.7625 16.25,24.3125 16.25,25 C16.25,25.6875 16.8125,26.25 17.5,26.25 C18.1875,26.25 18.75,25.6875 18.75,25 C18.75,24.3125 18.2,23.7625 17.525,23.75 M19.2125,21.6625 L22.4,14.2375 C22.675,13.6125 22.375,12.875 21.7375,12.6 C21.1125,12.325 20.375,12.625 20.1,13.2625 L16.6375,21.35 C14.975,21.7375 13.75,23.225 13.75,25 C13.75,27.075 15.425,28.75 17.5,28.75 C19.575,28.75 21.25,27.075 21.25,25 C21.25,23.55 20.425,22.2875 19.2125,21.6625" id="Fill-2"></path>
                    <path d="M17.5,8.75 C12.6625,8.75 8.75,12.6625 8.75,17.5 C8.75,18.1875 8.1875,18.75 7.5,18.75 C6.8125,18.75 6.25,18.1875 6.25,17.5 C6.25,11.2875 11.2875,6.25 17.5,6.25 C23.7125,6.25 28.75,11.2875 28.75,17.5 C28.75,18.1875 28.1875,18.75 27.5,18.75 C26.8125,18.75 26.25,18.1875 26.25,17.5 C26.25,12.6625 22.3375,8.75 17.5,8.75" id="Fill-4"></path>
                    <path d="M2.5,17.5 C2.5,9.2125 9.2125,2.5 17.5,2.5 C25.7875,2.5 32.5,9.2125 32.5,17.5 C32.5,25.7875 25.7875,32.5 17.5,32.5 C9.2125,32.5 2.5,25.7875 2.5,17.5 M17.5,0 C7.8375,0 0,7.8375 0,17.5 C0,27.1625 7.8375,35 17.5,35 C27.1625,35 35,27.1625 35,17.5 C35,7.8375 27.1625,0 17.5,0" id="Fill-6"></path>
                </g>
            </g>
        </g>
    </g>
</svg>