<svg width="317" height="340" viewBox="0 0 317 340" fill="none" xmlns="http://www.w3.org/2000/svg">
<path d="M183.996 335.222C183.426 334.164 175.987 333.656 173.602 333.408C164.402 332.449 154.764 332.127 145.18 332.015C128.057 331.817 110.93 332.176 93.8035 332.127C66.8569 332.048 40.0177 332.052 13.1 333.11C10.4178 333.218 4.93754 333.234 4.4044 334.458C3.74726 335.966 7.59913 336.929 11.2361 337.421C22.7917 338.983 36.3849 339.4 48.6927 339.752C74.9491 340.5 101.239 339.38 127.421 338.727C131.826 338.615 185.042 337.16 183.996 335.222Z" fill="#DDDDDD"/>
<path d="M3.62744 211.966C4.21018 216.641 5.61124 221.166 7.02057 225.659C12.6868 243.682 18.9482 261.507 25.3129 279.291C31.5825 296.803 37.7447 314.338 46.8619 330.63C48.1679 332.961 49.7673 335.478 52.3504 336.169C55.1236 336.908 58.0827 335.135 59.5871 332.693C61.232 330.015 61.4965 326.737 61.6494 323.596C62.4884 306.503 61.0998 289.326 60.0169 272.265C59.645 266.393 59.2689 260.516 58.8969 254.643C58.5084 248.497 58.6242 244.091 60.0624 238.156C62.7653 226.998 63.7324 215.421 62.9059 203.973L3.62744 211.966Z" fill="#CACEDE"/>
<path d="M3.28445 216.074C4.78883 222.947 7.18179 229.651 9.3681 236.334C11.5916 243.128 13.8895 249.902 16.2329 256.66C20.8287 269.918 25.4782 283.168 30.3964 296.311C32.7935 302.708 35.3063 309.065 38.096 315.301C40.7039 321.133 43.4068 327.159 46.8371 332.561C49.383 336.569 53.6482 338.433 57.8885 335.549C62.786 332.222 62.6207 325.506 62.7943 320.244C63.3274 304.138 62.0421 288.053 61.0172 271.993C60.9634 271.17 58.9631 271.625 59.021 272.526C59.8847 286.032 60.9262 299.547 60.9014 313.09C60.8973 316.078 60.8394 319.067 60.7196 322.055C60.5915 325.167 60.5791 328.527 59.2689 331.42C57.9629 334.301 54.731 336.875 51.5982 334.941C49.2383 333.482 47.9282 330.502 46.6594 328.159C40.6625 317.087 35.9427 305.387 31.5784 293.591C27.1644 281.664 22.9323 269.662 18.754 257.647C16.361 250.766 14.0135 243.868 11.7363 236.946C9.4177 229.887 6.86356 222.799 5.27238 215.533C5.09467 214.69 3.09434 215.202 3.28445 216.074Z" fill="#5D7183"/>
<path d="M58.1984 207.837C60.8352 226.956 57.6239 245.914 55.5699 264.934C54.2184 277.452 47.6677 289.954 41.1501 300.543C38.6414 304.618 15.2739 335.797 30.9955 334.846C36.3353 334.524 41.8568 330.668 46.1551 327.771C58.7315 319.302 70.0433 308.962 79.6193 297.208C100.499 271.579 111.612 236.375 108.583 203.399L58.1984 207.837Z" fill="#CACEDE"/>
<path d="M57.9712 233.738C56.7767 244.889 55.9626 256.114 53.7473 267.124C51.8255 276.671 48.4531 285.788 43.8366 294.36C39.0879 303.176 32.7108 310.974 28.1646 319.918C26.4412 323.307 24.0523 327.795 24.6681 331.755C25.3087 335.879 30.2434 335.565 33.339 334.842C37.505 333.871 41.2453 331.598 44.7748 329.258C48.7052 326.655 52.5529 323.927 56.256 321.009C63.8647 315.012 70.9113 308.317 77.2719 301.01C91.423 284.755 101.317 265.26 106.409 244.331C106.525 243.86 104.566 244.145 104.438 244.67C100.065 262.64 92.171 279.82 80.8964 294.513C69.7913 308.982 55.5617 322.199 39.7367 331.37C36.7032 333.127 27.4 337.495 26.6395 331.007C26.1684 326.981 28.6275 322.501 30.4046 319.067C34.5417 311.086 40.1583 304.056 44.5764 296.257C49.726 287.165 53.5489 277.436 55.6402 267.186C57.9257 255.982 58.7523 244.558 59.9674 233.205C59.9963 232.908 58.0373 233.11 57.9712 233.738Z" fill="#5D7183"/>
<path d="M20.1012 238.438C24.9739 235.325 28.3257 230.49 29.5987 224.857C29.826 223.857 27.7802 224.08 27.5735 224.993C26.3956 230.201 23.2588 234.61 18.7663 237.479C17.6297 238.206 19.2581 238.979 20.1012 238.438Z" fill="#5D7183"/>
<path d="M93.6919 107.412C96.8123 99.3649 100.511 92.3968 105.285 85.003C110.951 76.2206 120.486 64.8881 120.498 54.0558C120.506 47.7489 117.993 39.0988 112.216 35.8916C105.694 32.2712 97.1181 32.9035 90.522 35.9288C74.5276 43.2647 63.6456 57.7506 53.5654 71.5917C42.886 86.2595 30.1194 99.1294 21.0353 114.958C11.2568 131.994 4.29282 151.498 1.76348 171.013C-0.0426054 184.933 1.66842 199.038 3.37945 212.971C3.51584 214.086 18.105 216.165 19.7375 216.422C25.1227 217.269 30.3963 217.438 35.8352 217.492C47.6554 217.612 59.4714 217.732 71.2915 217.847C79.826 217.934 88.377 218.017 96.8867 217.351C101.826 216.963 106.814 216.306 111.389 214.4C114.286 201.919 108.446 187.33 104.954 175.386C101.177 162.47 96.9115 149.687 93.7622 136.598C91.5883 127.572 89.902 117.492 93.2704 108.536C93.4068 108.156 93.5473 107.784 93.6919 107.412Z" fill="white"/>
<path d="M45.0062 90.8635C50.908 108.668 70.3286 115.74 87.6703 113.884C88.7655 113.768 89.2243 112.317 87.8604 112.466C71.2089 114.252 52.6604 107.403 47.0024 90.3304C46.709 89.4459 44.7169 89.9956 45.0062 90.8635Z" fill="#5D7183"/>
<path d="M61.6991 111.941C57.8431 117.971 55.136 124.58 53.6895 131.593C53.5531 132.246 55.5493 131.924 55.6774 131.308C57.1074 124.398 59.7442 117.868 63.5424 111.921C63.9928 111.21 62.0173 111.445 61.6991 111.941Z" fill="#5D7183"/>
<path d="M30.5947 134.251C29.8508 139.057 27.8381 143.484 26.5031 148.133C25.9741 149.981 25.6766 150.791 27.6645 151.369C30.0533 152.064 32.4669 152.663 34.9012 153.175C37.0379 153.626 41.6214 155.482 42.7703 152.618C44.6632 147.902 45.9155 142.81 47.4694 137.971C47.5769 137.632 45.6633 137.838 45.5022 138.334C44.659 140.963 43.8159 143.591 42.9728 146.22C42.1958 148.646 41.6875 151.646 40.3939 153.845C40.6956 153.688 40.9973 153.535 41.299 153.378C40.5551 153.593 38.4555 152.812 37.6951 152.659C36.4097 152.403 35.1327 152.126 33.8597 151.82C32.5951 151.518 31.2973 151.237 30.0616 150.832C29.5574 150.749 29.0945 150.559 28.6729 150.27C28.0199 150.158 27.8216 149.795 28.0861 149.179C28.0447 148.658 28.425 147.91 28.5696 147.422C29.9211 142.843 31.8511 138.466 32.5868 133.722C32.6199 133.532 30.6857 133.664 30.5947 134.251Z" fill="#5D7183"/>
<path d="M66.8239 70.9553C66.051 72.9184 65.9271 74.8691 67.5926 76.2991C69.2458 77.7167 71.8743 77.3902 73.6597 76.1462C75.4452 74.9022 76.59 72.9515 77.6769 71.0627C77.0777 70.6246 69.7955 65.8635 70.2501 65.1196C69.3367 66.6074 67.6794 68.7855 66.8239 70.9553Z" fill="#5D7183"/>
<path d="M70.0517 33.2176C67.8902 36.3752 66.5181 40.351 68.0307 44.0748C71.0353 51.4768 80.7436 51.2247 86.2445 47.0216C83.5746 52.2497 85.9758 59.2881 91.0263 62.2762C96.0808 65.2643 102.991 64.2434 107.38 60.3461C104.851 63.3342 105.413 68.2606 108.24 70.9759C111.063 73.6871 115.605 74.1831 119.196 72.6291C123.011 70.9759 125.78 67.3018 126.871 63.3548C127.193 62.1852 127.636 51.7414 124.796 52.4977C128.404 51.5347 131.388 48.5259 132.322 44.9096C133.256 41.2933 132.107 37.2142 129.417 34.6228C126.47 31.7794 121.039 31.1801 118.539 34.4244C120.258 29.2128 116.89 22.906 111.604 21.4347C106.318 19.9634 100.177 23.6251 98.9573 28.9772C97.5191 25.5635 93.568 22.3233 89.6541 22.7944C87.939 23.0011 81.1238 27.3861 83.8474 29.7625C79.0656 25.5841 73.3126 28.4524 70.0517 33.2176Z" fill="#FDAF3C"/>
<path d="M101.983 161.966C99.4739 153.729 96.9859 145.48 94.9401 137.111C93.0265 129.279 91.3982 120.988 92.9728 112.946C94.4483 105.407 98.4985 97.9721 102.297 91.3719C106.029 84.8873 110.542 78.9401 114.514 72.6126C117.948 67.1406 121.279 60.9991 121.486 54.3905C121.659 48.8152 120.072 42.4877 116.369 38.1936C112.348 33.5359 105.372 32.4654 99.5524 33.0564C93.0141 33.7177 87.0793 36.7223 81.6941 40.3469C70.0351 48.1912 61.4097 59.6022 53.2266 70.8189C43.9647 83.5111 33.1323 95.0171 24.3954 108.094C15.7121 121.092 9.23996 135.751 4.99132 150.774C2.77608 158.602 1.09398 166.661 0.383122 174.774C-0.352537 183.152 0.0607543 191.579 0.866673 199.931C1.06092 201.952 1.27996 203.969 1.51141 205.986C1.75525 208.106 1.64779 210.809 2.32972 212.83C2.71822 213.975 3.79691 214.086 4.95826 214.384C9.01265 215.425 13.2034 216.008 17.3405 216.636C23.9077 217.632 30.4377 217.934 37.0751 218C45.87 218.087 54.6648 218.178 63.4597 218.265C67.7827 218.31 72.1057 218.36 76.4288 218.389C77.0983 218.393 78.5737 217.393 77.2388 217.384C68.7911 217.331 60.3476 217.223 51.8999 217.136C43.5432 217.054 35.1203 217.26 26.7842 216.649C22.2793 216.318 17.791 215.574 13.3398 214.818C11.2899 214.471 9.23996 214.111 7.21483 213.644C6.52463 213.483 5.63606 213.371 4.99959 213.028C4.02009 212.495 4.27632 211.925 4.12341 210.681C3.12737 202.502 2.18507 194.298 2.01149 186.049C1.84204 177.849 2.65209 169.757 4.25153 161.718C7.24376 146.699 12.6248 132.155 19.8657 118.674C27.0694 105.271 36.8892 93.7979 46.3949 82.015C55.074 71.257 62.5339 59.4492 72.3454 49.646C81.7809 40.2147 97.519 28.5433 111.273 36.2677C116.427 39.1608 118.651 45.6288 119.304 51.1834C120.093 57.8787 117.659 64.0616 114.385 69.7857C110.98 75.7329 106.752 81.1553 103.119 86.9621C99.2301 93.178 95.8287 99.679 93.1092 106.49C90.3691 113.363 89.8773 120.253 90.9064 127.556C92.0223 135.462 94.2912 143.236 96.5065 150.89C97.6306 154.767 98.8002 158.631 99.9781 162.491C100.172 163.103 102.16 162.549 101.983 161.966Z" fill="#5D7183"/>
<path d="M94.6178 144.137C96.9777 151.956 102.061 159.019 109.484 162.706C115.617 165.752 123.023 165.979 128.851 162.094C137.224 156.519 137.856 145.559 136.926 136.466C135.715 124.629 131.02 113.483 125.982 102.824C123.131 96.786 119.647 90.847 117.679 84.4492C116.762 81.4611 116.125 78.1755 116.7 75.0593C117.212 72.2778 118.882 68.9715 122.06 68.8227C123.201 68.769 123.59 67.2687 122.23 67.3307C118.415 67.5084 115.923 70.5585 114.948 74.0426C113.584 78.9277 115.22 84.3294 117.101 88.8425C121.56 99.5468 127.433 109.553 131.173 120.583C132.979 125.911 134.36 131.399 134.93 137.003C135.476 142.368 135.509 148.216 133.604 153.341C130.677 161.21 122.668 165.091 114.667 162.904C105.599 160.425 99.2384 152.312 96.6098 143.608C96.3329 142.67 94.3409 143.207 94.6178 144.137Z" fill="#5D7183"/>
<path d="M51.0403 124.605C51.0485 124.638 51.0609 124.671 51.0733 124.708C51.2593 125.216 52.5281 126.27 52.9951 125.559C53.3258 125.055 53.4291 124.41 53.2721 123.832C52.4248 123.29 50.6725 123.352 51.0403 124.605Z" fill="#5D7183"/>
<path d="M54.9087 116.979C54.8756 116.984 54.8384 116.988 54.8013 116.996C54.2681 117.095 53.0241 118.178 53.6482 118.752C54.0904 119.157 54.7103 119.368 55.3055 119.31C55.9833 118.562 56.2064 116.822 54.9087 116.979Z" fill="#5D7183"/>
<path d="M309.686 215.521H206.364C202.942 215.521 200.164 212.743 200.164 209.321V72.3977C200.164 68.9756 202.942 66.1983 206.364 66.1983H309.686C313.108 66.1983 315.886 68.9756 315.886 72.3977V209.321C315.886 212.743 313.113 215.521 309.686 215.521Z" fill="white"/>
<path d="M280.756 241.653H177.433C174.011 241.653 171.234 238.876 171.234 235.454V98.5301C171.234 95.108 174.011 92.3307 177.433 92.3307H280.756C284.178 92.3307 286.955 95.108 286.955 98.5301V235.454C286.955 238.876 284.182 241.653 280.756 241.653Z" fill="white"/>
<path d="M251.826 267.785H148.503C145.081 267.785 142.303 265.008 142.303 261.586V124.663C142.303 121.24 145.081 118.463 148.503 118.463H251.826C255.248 118.463 258.025 121.24 258.025 124.663V261.586C258.025 265.008 255.252 267.785 251.826 267.785Z" fill="white"/>
<path d="M245.246 66.7893C261.625 66.7893 278.003 66.7893 294.382 66.7893C298.193 66.7893 302.003 66.7893 305.814 66.7893C308.571 66.7893 311.492 66.4049 313.501 68.7979C314.915 70.4841 314.881 72.3398 314.881 74.3442C314.881 76.4686 314.881 78.5888 314.881 80.7131C314.881 98.8028 314.881 116.897 314.881 134.987C314.881 154.688 314.881 174.39 314.881 194.091C314.881 198.91 314.881 203.725 314.881 208.544C314.881 211.747 313.435 214.785 309.761 214.921C305.272 215.087 300.747 214.921 296.259 214.921C294.915 214.921 293.576 214.921 292.233 214.921C291.448 214.921 290.125 216.107 291.473 216.107C295.647 216.107 299.821 216.107 303.995 216.107C308.165 216.107 313.208 216.793 315.824 212.702C316.915 210.999 316.882 209.251 316.882 207.362C316.882 205.168 316.882 202.977 316.882 200.783C316.882 182.073 316.882 163.367 316.882 144.658C316.882 124.724 316.882 104.791 316.882 84.8584C316.882 80.7296 316.944 76.5967 316.882 72.4679C316.824 68.4383 313.857 65.7023 309.893 65.5949C307.608 65.5329 305.314 65.5949 303.028 65.5949C284.463 65.5949 265.902 65.5949 247.337 65.5949C246.891 65.5949 246.449 65.5949 246.002 65.5949C245.221 65.6031 243.903 66.7893 245.246 66.7893Z" fill="#CFCFCF"/>
<path d="M172.234 113.396C172.234 110.028 172.234 106.664 172.234 103.295C172.234 99.4021 171.519 93.2565 177.061 92.9217C180.144 92.7357 183.298 92.9217 186.385 92.9217C202.83 92.9217 219.275 92.9217 235.719 92.9217C249.759 92.9217 263.803 92.9217 277.842 92.9217C278.681 92.9217 279.528 92.8887 280.367 92.9217C284.347 93.0746 285.951 96.4223 285.951 99.8857C285.951 106.073 285.951 112.255 285.951 118.442C285.951 133.449 285.951 148.452 285.951 163.458C285.951 163.776 285.951 164.091 285.951 164.409C285.951 165.277 287.951 164.872 287.951 164.177C287.951 150.423 287.951 136.669 287.951 122.918C287.951 115.64 287.951 108.362 287.951 101.084C287.951 99.2657 288.141 97.2943 287.352 95.6081C286.054 92.8308 283.322 91.7562 280.442 91.7397C267.485 91.6571 254.52 91.7397 241.563 91.7397C224.073 91.7397 206.582 91.7397 189.092 91.7397C185.368 91.7397 181.64 91.6694 177.921 91.7397C173.854 91.8141 170.37 94.5501 170.233 98.7781C170.114 102.584 170.233 106.416 170.233 110.226C170.233 111.363 170.233 112.499 170.233 113.636C170.233 114.496 172.234 114.095 172.234 113.396Z" fill="#CFCFCF"/>
<path d="M257.025 244.62C257.025 249.84 257.025 255.06 257.025 260.28C257.025 263.483 256.054 266.959 252.181 267.19C251.607 267.223 251.024 267.19 250.449 267.19C241.361 267.19 232.277 267.19 223.189 267.19C209.496 267.19 195.804 267.19 182.107 267.19C172.122 267.19 162.141 267.19 152.156 267.19C148.639 267.19 144.717 267.318 143.518 262.966C142.923 260.809 143.299 258.168 143.299 255.965C143.299 252.75 143.299 249.539 143.299 246.323C143.299 245.678 143.299 245.03 143.299 244.385C143.299 243.517 141.299 243.922 141.299 244.616C141.299 250.018 141.299 255.42 141.299 260.821C141.299 265.657 144.481 268.376 149.143 268.376C158.161 268.376 167.179 268.376 176.201 268.376C190.464 268.376 204.727 268.376 218.994 268.376C229.057 268.376 239.121 268.376 249.185 268.376C252.917 268.376 256.905 267.897 258.533 263.876C259.418 261.689 259.025 258.842 259.025 256.54C259.025 253.18 259.025 249.82 259.025 246.464C259.025 245.769 259.025 245.079 259.025 244.385C259.025 243.517 257.025 243.922 257.025 244.62Z" fill="#CFCFCF"/>
<path d="M143.303 162.115C143.303 149.675 142.969 137.189 143.303 124.753C143.39 121.571 145.403 119.083 148.672 119.054C150.098 119.042 151.528 119.054 152.954 119.054C159.017 119.054 165.076 119.054 171.139 119.054C188.422 119.054 205.706 119.054 222.99 119.054C229.81 119.054 236.625 119.054 243.444 119.054C246.329 119.054 249.751 118.546 252.603 119.186C256.702 120.108 257.025 123.906 257.025 127.279C257.025 130.767 257.025 134.259 257.025 137.747C257.025 145.381 257.025 153.018 257.025 160.652C257.025 161.127 257.025 161.603 257.025 162.078C257.025 162.946 259.025 162.541 259.025 161.846C259.025 149.435 259.463 136.946 259.025 124.543C258.885 120.542 255.843 117.955 251.945 117.868C250.664 117.839 249.379 117.868 248.102 117.868C241.973 117.868 235.844 117.868 229.719 117.868C211.889 117.868 194.06 117.868 176.226 117.868C169.366 117.868 162.505 117.868 155.644 117.868C152.392 117.868 147.941 117.227 144.986 118.86C141.894 120.567 141.307 123.464 141.307 126.65C141.307 130.068 141.307 133.49 141.307 136.908C141.307 144.86 141.307 152.808 141.307 160.759C141.307 161.288 141.307 161.822 141.307 162.351C141.303 163.214 143.303 162.813 143.303 162.115Z" fill="#CFCFCF"/>
<path d="M281.116 241.43H86.8685C83.4464 241.43 80.6691 238.652 80.6691 235.23V171.584C80.6691 168.161 83.4464 165.384 86.8685 165.384H281.116C284.538 165.384 287.315 168.161 287.315 171.584V235.23C287.315 238.657 284.542 241.43 281.116 241.43Z" fill="white"/>
<path d="M281.768 241.045C270.411 241.045 259.054 241.045 247.697 241.045C223.449 241.045 199.197 241.045 174.949 241.045C152.631 241.045 130.31 241.045 107.992 241.045C102.028 241.045 96.0683 241.045 90.1045 241.045C89.249 241.045 88.3811 241.083 87.5256 241.045C84.054 240.897 81.7767 238.144 81.6693 234.792C81.6362 233.809 81.6693 232.817 81.6693 231.833C81.6693 211.859 81.4915 191.872 81.6693 171.898C81.6982 168.695 83.4795 165.884 86.8767 165.769C88.4886 165.715 90.1169 165.769 91.7288 165.769C98.8705 165.769 106.012 165.769 113.154 165.769C136.616 165.769 160.079 165.769 183.546 165.769C206.872 165.769 230.198 165.769 253.524 165.769C260.666 165.769 267.807 165.769 274.949 165.769C276.565 165.769 278.185 165.748 279.801 165.769C283.492 165.818 286.215 168.281 286.315 172.071C286.542 180.742 286.315 189.446 286.315 198.117C286.315 209.226 286.315 220.335 286.315 231.445C286.319 234.954 286.827 240.818 281.768 241.045C281.372 241.062 279.537 241.86 280.462 241.818C283.93 241.661 287.497 239.872 288.195 236.164C288.365 235.268 288.311 234.325 288.311 233.416C288.311 229.329 288.311 225.241 288.311 221.15C288.311 208.635 288.311 196.116 288.311 183.602C288.311 179.837 288.311 176.068 288.311 172.303C288.311 168.252 285.951 165.103 281.649 165C277.739 164.909 273.821 165 269.911 165C248.937 165 227.962 165 206.988 165C181.558 165 156.128 165 130.698 165C116.51 165 102.313 164.888 88.1249 165C84.4383 165.029 80.479 166.686 79.7681 170.74C79.3383 173.199 79.6689 175.944 79.6689 178.419C79.6689 190.425 79.6689 202.432 79.6689 214.438C79.6689 219.691 79.6689 224.944 79.6689 230.197C79.6689 232.974 79.1234 236.681 80.8013 239.074C83.434 242.823 89.4763 241.818 93.4853 241.818C112.798 241.818 132.116 241.818 151.429 241.818C177.16 241.818 202.892 241.818 228.623 241.818C245.076 241.818 261.53 241.818 277.983 241.818C278.809 241.818 279.632 241.818 280.458 241.818C280.868 241.818 282.711 241.045 281.768 241.045Z" fill="#5D7183"/>
<path d="M264.584 215.806H103.4C99.9781 215.806 97.2008 213.028 97.2008 209.606V197.208C97.2008 193.786 99.9781 191.008 103.4 191.008H264.584C268.006 191.008 270.783 193.786 270.783 197.208V209.606C270.783 213.033 268.01 215.806 264.584 215.806Z" fill="white"/>
<path d="M121.998 215.806H103.4C99.9781 215.806 97.2008 213.028 97.2008 209.606V197.208C97.2008 193.786 99.9781 191.008 103.4 191.008H121.998V215.806Z" fill="#FDAF3C"/>
<path d="M122.651 215.421C116.849 215.421 111.05 215.421 105.248 215.421C101.354 215.421 98.3249 213.285 98.1968 209.123C98.1018 205.903 98.1968 202.667 98.1968 199.448C98.1968 195.881 98.5688 191.711 103.156 191.397C106.157 191.19 109.244 191.397 112.253 191.397C114.104 191.397 115.952 191.397 117.803 191.397C118.824 191.397 120.11 191.182 121.11 191.397C121.568 191.492 120.969 191.169 121.002 191.36C121.056 191.653 121.002 192 121.002 192.298C121.002 193.517 121.002 194.736 121.002 195.955C121.002 202.663 121.002 209.371 121.002 216.074C121.002 216.347 122.998 216.078 122.998 215.541C122.998 207.275 122.998 199.01 122.998 190.744C122.998 190.632 122.688 190.624 122.651 190.624C118.101 190.624 113.546 190.624 108.996 190.624C104.607 190.624 98.8044 190.029 96.709 194.984C95.8865 196.931 96.2006 199.386 96.2006 201.448C96.2006 204.056 96.1758 206.664 96.2006 209.272C96.2254 212.173 97.5438 214.76 100.412 215.789C102.131 216.409 104.169 216.19 105.967 216.19C111.092 216.19 116.22 216.19 121.345 216.19C121.75 216.194 123.594 215.421 122.651 215.421Z" fill="#5D7183"/>
<path d="M146.796 191.008H121.998V215.806H146.796V191.008Z" fill="#FFBE5E"/>
<path d="M147.449 215.421C140.224 215.421 133.004 215.421 125.78 215.421C125.102 215.421 123.35 215.756 122.73 215.421C122.994 215.566 122.928 215.541 122.994 215.169C123.089 214.644 122.994 214 122.994 213.466C122.994 209.272 122.994 205.077 122.994 200.878C122.994 197.497 122.994 194.12 122.994 190.74C122.445 190.959 121.895 191.178 121.345 191.393C128.57 191.393 135.79 191.393 143.014 191.393C143.692 191.393 145.444 191.058 146.064 191.393C145.8 191.248 145.866 191.273 145.8 191.645C145.705 192.17 145.8 192.814 145.8 193.347C145.8 197.542 145.8 201.737 145.8 205.936C145.8 209.317 145.8 212.694 145.8 216.074C145.8 216.347 147.796 216.078 147.796 215.541C147.796 207.275 147.796 199.01 147.796 190.744C147.796 190.632 147.486 190.624 147.449 190.624C139.183 190.624 130.917 190.624 122.651 190.624C122.317 190.624 121.002 190.789 121.002 191.277C121.002 199.543 121.002 207.808 121.002 216.074C121.002 216.186 121.312 216.194 121.349 216.194C129.615 216.194 137.881 216.194 146.147 216.194C146.548 216.194 148.391 215.421 147.449 215.421Z" fill="#5D7183"/>
<path d="M171.593 191.008H146.796V215.806H171.593V191.008Z" fill="#FFCD84"/>
<path d="M172.246 215.421C165.096 215.421 157.951 215.421 150.801 215.421C150.119 215.421 148.135 215.785 147.527 215.421C147.701 215.525 147.75 215.583 147.792 215.223C147.854 214.731 147.792 214.194 147.792 213.702C147.792 209.495 147.792 205.287 147.792 201.084C147.792 197.637 147.792 194.191 147.792 190.744C147.242 190.963 146.692 191.182 146.143 191.397C153.293 191.397 160.439 191.397 167.588 191.397C168.27 191.397 170.254 191.033 170.862 191.397C170.688 191.293 170.639 191.236 170.597 191.595C170.535 192.087 170.597 192.624 170.597 193.116C170.597 197.323 170.597 201.531 170.597 205.734C170.597 209.181 170.597 212.627 170.597 216.074C170.597 216.347 172.593 216.078 172.593 215.541C172.593 207.275 172.593 199.01 172.593 190.744C172.593 190.632 172.283 190.624 172.246 190.624C163.98 190.624 155.715 190.624 147.449 190.624C147.114 190.624 145.8 190.789 145.8 191.277C145.8 199.543 145.8 207.808 145.8 216.074C145.8 216.186 146.11 216.194 146.147 216.194C154.413 216.194 162.679 216.194 170.944 216.194C171.345 216.194 173.189 215.421 172.246 215.421Z" fill="#5D7183"/>
<path d="M196.391 191.008H171.593V215.806H196.391V191.008Z" fill="#FFE0B1"/>
<path d="M197.044 215.421C189.819 215.421 182.599 215.421 175.375 215.421C174.697 215.421 172.945 215.756 172.325 215.421C172.589 215.566 172.523 215.541 172.589 215.169C172.684 214.644 172.589 214 172.589 213.466C172.589 209.272 172.589 205.077 172.589 200.878C172.589 197.497 172.589 194.12 172.589 190.74C172.04 190.959 171.49 191.178 170.94 191.393C178.165 191.393 185.385 191.393 192.609 191.393C193.287 191.393 195.039 191.058 195.659 191.393C195.395 191.248 195.461 191.273 195.395 191.645C195.3 192.17 195.395 192.814 195.395 193.347C195.395 197.542 195.395 201.737 195.395 205.936C195.395 209.317 195.395 212.694 195.395 216.074C195.395 216.347 197.391 216.078 197.391 215.541C197.391 207.275 197.391 199.01 197.391 190.744C197.391 190.632 197.081 190.624 197.044 190.624C188.778 190.624 180.512 190.624 172.246 190.624C171.912 190.624 170.597 190.789 170.597 191.277C170.597 199.543 170.597 207.808 170.597 216.074C170.597 216.186 170.907 216.194 170.944 216.194C179.21 216.194 187.476 216.194 195.742 216.194C196.143 216.194 197.986 215.421 197.044 215.421Z" fill="#5D7183"/>
<path d="M245.986 191.008H221.188V215.806H245.986V191.008Z" fill="white"/>
<path d="M246.639 215.421C239.415 215.421 232.194 215.421 224.97 215.421C224.292 215.421 222.54 215.756 221.92 215.421C222.184 215.566 222.118 215.541 222.184 215.169C222.28 214.644 222.184 214 222.184 213.466C222.184 209.272 222.184 205.077 222.184 200.878C222.184 197.497 222.184 194.12 222.184 190.74C221.635 190.959 221.085 191.178 220.535 191.393C227.76 191.393 234.98 191.393 242.204 191.393C242.882 191.393 244.634 191.058 245.254 191.393C244.99 191.248 245.056 191.273 244.99 191.645C244.895 192.17 244.99 192.814 244.99 193.347C244.99 197.542 244.99 201.737 244.99 205.936C244.99 209.317 244.99 212.694 244.99 216.074C244.99 216.347 246.986 216.078 246.986 215.541C246.986 207.275 246.986 199.01 246.986 190.744C246.986 190.632 246.676 190.624 246.639 190.624C238.373 190.624 230.107 190.624 221.841 190.624C221.507 190.624 220.192 190.789 220.192 191.277C220.192 199.543 220.192 207.808 220.192 216.074C220.192 216.186 220.502 216.194 220.54 216.194C228.805 216.194 237.071 216.194 245.337 216.194C245.738 216.194 247.581 215.421 246.639 215.421Z" fill="#5D7183"/>
<path d="M221.221 191.008H196.424V215.806H221.221V191.008Z" fill="white"/>
<path d="M221.874 215.421C214.65 215.421 207.43 215.421 200.205 215.421C199.528 215.421 197.775 215.756 197.155 215.421C197.42 215.566 197.354 215.541 197.42 215.169C197.515 214.644 197.42 214 197.42 213.466C197.42 209.272 197.42 205.077 197.42 200.878C197.42 197.497 197.42 194.12 197.42 190.74C196.87 190.959 196.32 191.178 195.771 191.393C202.995 191.393 210.215 191.393 217.44 191.393C218.117 191.393 219.87 191.058 220.49 191.393C220.225 191.248 220.291 191.273 220.225 191.645C220.13 192.17 220.225 192.814 220.225 193.347C220.225 197.542 220.225 201.737 220.225 205.936C220.225 209.317 220.225 212.694 220.225 216.074C220.225 216.347 222.221 216.078 222.221 215.541C222.221 207.275 222.221 199.01 222.221 190.744C222.221 190.632 221.911 190.624 221.874 190.624C213.608 190.624 205.343 190.624 197.077 190.624C196.742 190.624 195.428 190.789 195.428 191.277C195.428 199.543 195.428 207.808 195.428 216.074C195.428 216.186 195.738 216.194 195.775 216.194C204.041 216.194 212.307 216.194 220.572 216.194C220.973 216.194 222.817 215.421 221.874 215.421Z" fill="#5D7183"/>
<path d="M264.584 215.806H245.986V191.008H264.584C268.006 191.008 270.783 193.786 270.783 197.208V209.606C270.783 213.033 268.01 215.806 264.584 215.806Z" fill="white"/>
<path d="M265.237 215.421C262.612 215.421 259.992 215.421 257.368 215.421C254.028 215.421 250.511 215.099 247.188 215.421C246.486 215.492 246.936 215.293 246.982 215.516C246.936 215.301 246.961 214.979 246.982 214.768C247.093 213.487 246.982 212.148 246.982 210.863C246.982 206.932 246.982 203.006 246.982 199.076C246.982 196.298 246.982 193.521 246.982 190.744C246.432 190.963 245.882 191.182 245.333 191.397C250.85 191.397 256.372 191.397 261.889 191.397C265.307 191.397 268.717 192.174 269.622 196.096C270.229 198.72 269.783 201.836 269.783 204.502C269.787 208.135 270.668 215.178 265.237 215.421C264.84 215.438 263.005 216.236 263.931 216.194C268.146 216.004 271.717 213.475 271.779 208.991C271.829 205.407 271.779 201.816 271.779 198.233C271.779 194.124 269.68 190.781 265.225 190.624C262.34 190.521 259.438 190.624 256.554 190.624C253.247 190.624 249.945 190.624 246.639 190.624C246.304 190.624 244.99 190.789 244.99 191.277C244.99 199.543 244.99 207.809 244.99 216.074C244.99 216.186 245.3 216.194 245.337 216.194C251.536 216.194 257.736 216.194 263.935 216.194C264.336 216.194 266.179 215.421 265.237 215.421Z" fill="#5D7183"/>
<path d="M200.164 91.5248C225.272 91.5248 245.626 71.1707 245.626 46.0627C245.626 20.9547 225.272 0.600647 200.164 0.600647C175.056 0.600647 154.702 20.9547 154.702 46.0627C154.702 71.1707 175.056 91.5248 200.164 91.5248Z" fill="white"/>
<path d="M199.151 80.7007C199.151 82.9573 199.151 85.2138 199.151 87.4704C199.151 88.5367 201.177 88.2557 201.177 87.3299C201.177 85.0733 201.177 82.8167 201.177 80.5602C201.177 79.4939 199.151 79.7708 199.151 80.7007Z" fill="#5D7183"/>
<path d="M199.16 4.82449C199.16 7.10586 199.16 9.3831 199.16 11.6645C199.16 12.6192 201.168 12.2596 201.168 11.4702C201.168 9.18885 201.168 6.91161 201.168 4.63025C201.173 3.67554 199.16 4.03511 199.16 4.82449Z" fill="#5D7183"/>
<path d="M164.914 46.0379C163.026 46.0379 161.137 46.0379 159.248 46.0379C158.632 46.0379 157.087 46.9596 158.413 46.9596C160.302 46.9596 162.191 46.9596 164.08 46.9596C164.695 46.9596 166.241 46.0379 164.914 46.0379Z" fill="#5D7183"/>
<path d="M241.882 45.9098C239.823 45.9098 237.765 45.9098 235.711 45.9098C235.331 45.9098 234.554 46.0379 234.397 46.4636C234.244 46.8686 234.529 47.0836 234.947 47.0836C237.005 47.0836 239.063 47.0836 241.117 47.0836C241.497 47.0836 242.274 46.9554 242.431 46.5297C242.588 46.1247 242.303 45.9098 241.882 45.9098Z" fill="#5D7183"/>
<path d="M226.255 64.3302C226.086 64.3302 225.912 64.2806 225.755 64.1814L198.734 46.6868C198.308 46.4099 198.185 45.8396 198.461 45.4139C198.738 44.9882 199.309 44.8642 199.734 45.1411L226.755 62.6357C227.181 62.9126 227.305 63.483 227.028 63.9087C226.855 64.1814 226.557 64.3302 226.255 64.3302Z" fill="#5D7183"/>
<path d="M201.507 45.6412C201.247 45.8768 200.945 45.9759 200.685 45.8809C200.218 45.7156 200.048 44.9964 200.309 44.2814L209.463 18.9095C209.724 18.1945 210.31 17.7481 210.777 17.9134C211.244 18.0788 211.414 18.7979 211.154 19.5129L201.999 44.8848C201.883 45.1989 201.71 45.4593 201.507 45.6412Z" fill="#5D7183"/>
<path d="M200.893 50.5683C203.374 50.1672 205.06 47.8309 204.659 45.35C204.258 42.8691 201.922 41.183 199.441 41.5841C196.96 41.9852 195.274 44.3215 195.675 46.8024C196.076 49.2834 198.412 50.9694 200.893 50.5683Z" fill="#FFBE5D"/>
<path d="M246.63 45.9594C246.511 26.6339 234.281 9.13512 216.018 2.62991C197.854 -3.8381 176.825 1.91492 164.464 16.6942C152.011 31.581 150.238 53.2333 160.265 69.889C170.287 86.5405 190.158 94.984 209.137 91.2479C227.838 87.5613 242.927 72.2447 246.027 53.3904C246.432 50.9313 246.614 48.4474 246.63 45.9594C246.635 45.0419 244.63 45.418 244.622 46.1702C244.506 64.5988 233.153 81.6058 215.786 88.1358C198.118 94.7774 177.726 88.9293 165.857 74.3897C154.111 60.0072 152.458 39.2145 161.852 23.1788C171.403 6.87442 190.696 -1.77577 209.215 2.22489C229.714 6.65124 244.498 25.2948 244.626 46.1702C244.63 47.0877 246.635 46.7075 246.63 45.9594Z" fill="#5D7183"/>
<path d="M17.6711 119.36C11.1577 133.689 6.04113 152.919 13.6746 167.806C17.853 175.956 25.5609 180.907 34.6492 181.717C44.8575 182.631 55.2972 178.795 64.0011 173.72C69.0144 170.798 73.325 167.161 77.6273 163.297C80.3344 160.863 83.6201 158.18 87.4968 158.379C90.737 158.544 93.5019 161.011 93.6961 164.285C93.7333 164.896 95.7378 164.496 95.6923 163.752C95.4402 159.491 91.3032 157.106 87.3604 157.292C82.6406 157.511 78.8383 160.437 75.4906 163.491C67.1752 171.079 57.6075 177.217 46.4982 179.767C35.6989 182.242 24.1764 179.833 17.5596 170.397C12.6951 163.466 11.5668 154.639 12.2033 146.377C12.9348 136.941 15.7617 127.684 19.6632 119.095C19.9277 118.521 17.9604 118.728 17.6711 119.36Z" fill="#5D7183"/>
</svg>
