<svg width="108" height="29" viewBox="0 0 108 29" xmlns="http://www.w3.org/2000/svg"><title>Group 22</title><path d="M23.895 28.534h6.684V9.604h-6.684zm31.7 0h6.684V9.604h-6.684zm41.263-24.85h-6.686v5.921h-3.3v5.543h3.3v13.386h6.686V15.148h3.303V9.605h-3.303v-5.92M58.918.631a3.455 3.455 0 0 0-3.475 3.474c0 1.935 1.54 3.515 3.475 3.515a3.524 3.524 0 0 0 3.515-3.515c0-1.932-1.58-3.474-3.515-3.474M78.55 9.184c-1.62 0-3.204.368-4.406.973-1.15.576-1.962 1.357-2.361 1.899h-.142V9.605h-6.686v18.93h6.686v-9.666c0-3.308 1.886-4.15 3.82-4.15 1.937 0 3.17 1.64 3.17 3.573v10.242h6.685V16.92c0-2.522-.766-4.445-1.905-5.684C82.27 10 80.249 9.184 78.55 9.184m25.087 12.433a3.456 3.456 0 0 0-3.476 3.473c0 1.933 1.542 3.513 3.476 3.513a3.523 3.523 0 0 0 3.516-3.513c0-1.934-1.58-3.473-3.516-3.473M27.217.631a3.454 3.454 0 0 0-3.474 3.474c0 1.935 1.539 3.515 3.474 3.515a3.523 3.523 0 0 0 3.515-3.515c0-1.932-1.58-3.474-3.515-3.474M43.139 20.66l-4.44-11.055h-7l8.299 18.93h6.179l8.298-18.93H47.58l-4.44 11.056m-31.7-.001L7 9.606H0l8.298 18.93h6.179l8.297-18.93h-6.895l-4.44 11.056" fill="#72778E" fill-rule="evenodd"/></svg>