<?xml version="1.0" encoding="UTF-8"?>
<svg width="70px" height="67px" viewBox="0 0 70 67" version="1.1" xmlns="http://www.w3.org/2000/svg" xmlns:xlink="http://www.w3.org/1999/xlink">
    <!-- Generator: Sketch 55.1 (78136) - https://sketchapp.com -->
    <title>Combined Shape</title>
    <desc>Created with Sketch.</desc>
    <g id="Tilda" stroke="none" stroke-width="1" fill="none" fill-rule="evenodd" fill-opacity="0.08">
        <g id="Proffmagasinet-success-story" transform="translate(-270.000000, -615.000000)" fill="#000000" fill-rule="nonzero">
            <path d="M336,631 C332.351025,631 325.922975,631.303212 325.922609,645.910487 L325.922609,652 L340,652 L340,682 L310,682 L310,652 L310,645.910487 C310,634.426223 312.972009,625.897987 319.465264,620.562277 C323.957043,616.871379 329.278455,615 336,615 L336,631 Z M296,631 C292.351025,631 285.922975,631.303212 285.922609,645.910487 L285.922609,652 L300,652 L300,682 L270,682 L270,652 L270,645.910487 C270,634.426223 272.972009,625.897987 279.465264,620.562277 C283.957043,616.871379 289.278455,615 296,615 L296,631 Z" id="Combined-Shape"></path>
        </g>
    </g>
</svg>