<?xml version="1.0" encoding="UTF-8"?>
<svg width="44px" height="44px" viewBox="0 0 44 44" version="1.1" xmlns="http://www.w3.org/2000/svg" xmlns:xlink="http://www.w3.org/1999/xlink">
    <!-- Generator: Sketch 58 (84663) - https://sketch.com -->
    <title>Stroke 1</title>
    <desc>Created with Sketch.</desc>
    <g id="Contacts" stroke="none" stroke-width="1" fill="none" fill-rule="evenodd" opacity="0.5" stroke-linecap="square">
        <g id="feedback" transform="translate(-777.000000, -108.000000)" stroke="#000" stroke-width="3">
            <path d="M791.050413,137.94349 C778.884116,125.779848 779.032486,117.324633 779.032486,117.324633 C778.884116,115.544588 779.180855,113.319531 781.258028,111.984497 L784.373787,110.204452 C785.264003,109.759441 786.30259,110.056115 786.896068,110.946138 L792.237368,119.401352 C792.682477,120.291375 792.682477,120.884723 792.237368,121.774746 L790.456935,124.889825 C790.011826,125.779848 789.863457,126.373196 790.456935,127.263219 C790.456935,127.263219 791.495521,129.191601 795.649866,133.34504 C799.804211,137.498479 801.733014,138.536838 801.733014,138.536838 C802.771601,139.130187 803.365079,138.98185 804.106926,138.536838 L807.222685,136.756793 C808.112902,136.311782 808.706379,136.311782 809.596596,136.756793 L818.053656,142.096929 C818.943873,142.690277 819.240612,143.728637 818.795503,144.61866 L817.01507,147.733739 C815.679744,149.958795 813.454202,150.107132 811.673769,149.958795 C811.525399,150.107132 803.216709,150.107132 791.050413,137.94349 Z" id="Stroke-1"></path>
        </g>
    </g>
</svg>