<?xml version="1.0" encoding="UTF-8"?>
<svg width="32px" height="66px" viewBox="0 0 32 66" version="1.1" xmlns="http://www.w3.org/2000/svg" xmlns:xlink="http://www.w3.org/1999/xlink">
    <!-- Generator: Sketch 55.2 (78181) - https://sketchapp.com -->
    <title>Group 2</title>
    <desc>Created with Sketch.</desc>
    <g id="Appstore" stroke="none" stroke-width="1" fill="none" fill-rule="evenodd">
        <g id="Artboard" transform="translate(-1.000000, -1.000000)">
            <g id="Group-2">
                <g id="Group">
                    <path d="M16.0611407,36.560133 L12.4972174,46.2784348 L2.48705757,46.8467902 C1.93566088,46.8780973 1.51404499,47.3504721 1.54535211,47.9018688 C1.56081722,48.1742481 1.68689591,48.4284838 1.89436422,48.6056464 L9.71513043,55.284 L7.14125623,65.4448379 C7.0056387,65.9802129 7.32970611,66.5241598 7.86508106,66.6597773 C8.14245617,66.7300401 8.43664277,66.6781173 8.67320605,66.5171464 L17,60.8511304 L25.326794,66.5171464 C25.783396,66.827844 26.4054153,66.709565 26.7161129,66.2529629 C26.8770838,66.0163997 26.9290065,65.7222131 26.8587438,65.4448379 L24.2848696,55.284 L32.1056358,48.6056464 C32.5256285,48.2470038 32.5753626,47.6157951 32.21672,47.1958023 C32.0395575,46.988334 31.7853217,46.8622553 31.5129424,46.8467902 L21.5027826,46.2784348 L17.9388593,36.560133 C17.748707,36.0416153 17.1742165,35.7754226 16.6556989,35.9655749 C16.379773,36.0667632 16.162329,36.2842071 16.0611407,36.560133 Z" id="Fill-1" fill="#FFB82A"></path>
                    <path d="M16.0611407,2.56013298 L12.4972174,12.2784348 L2.48705757,12.8467902 C1.93566088,12.8780973 1.51404499,13.3504721 1.54535211,13.9018688 C1.56081722,14.1742481 1.68689591,14.4284838 1.89436422,14.6056464 L9.71513043,21.284 L7.14125623,31.4448379 C7.0056387,31.9802129 7.32970611,32.5241598 7.86508106,32.6597773 C8.14245617,32.7300401 8.43664277,32.6781173 8.67320605,32.5171464 L17,26.8511304 L25.326794,32.5171464 C25.783396,32.827844 26.4054153,32.709565 26.7161129,32.2529629 C26.8770838,32.0163997 26.9290065,31.7222131 26.8587438,31.4448379 L24.2848696,21.284 L32.1056358,14.6056464 C32.5256285,14.2470038 32.5753626,13.6157951 32.21672,13.1958023 C32.0395575,12.988334 31.7853217,12.8622553 31.5129424,12.8467902 L21.5027826,12.2784348 L17.9388593,2.56013298 C17.748707,2.04161533 17.1742165,1.77542259 16.6556989,1.96557486 C16.379773,2.06676318 16.162329,2.28420713 16.0611407,2.56013298 Z" id="Fill-1" fill="#CFD2E6"></path>
                </g>
                <rect id="Rectangle" fill="#D8D8D8" opacity="0" x="0" y="0" width="34" height="68"></rect>
            </g>
        </g>
    </g>
</svg>