<svg width="44" height="44" viewBox="0 0 44 44" xmlns="http://www.w3.org/2000/svg"><title>Stroke 1</title><path d="M14.05 29.943C1.884 17.78 2.032 9.325 2.032 9.325c-.148-1.78.149-4.005 2.226-5.34l3.116-1.78c.89-.446 1.929-.149 2.522.741l5.341 8.455c.445.89.445 1.484 0 2.374l-1.78 3.115c-.445.89-.594 1.483 0 2.373 0 0 1.039 1.929 5.193 6.082s6.083 5.192 6.083 5.192c1.039.593 1.632.445 2.374 0l3.116-1.78c.89-.445 1.483-.445 2.374 0l8.457 5.34c.89.593 1.187 1.632.742 2.522l-1.78 3.115c-1.336 2.225-3.562 2.373-5.342 2.225-.149.148-8.457.148-20.624-12.016z" stroke="#000" stroke-width="3" fill="none" opacity=".5" stroke-linecap="square"/></svg>