<svg width="129" height="30" viewBox="0 0 129 30" xmlns="http://www.w3.org/2000/svg"><title>Group 11</title><g fill="#72778E" fill-rule="evenodd"><path d="M28.154 15c0 7.252-5.901 13.154-13.154 13.154-7.252 0-13.153-5.902-13.153-13.154C1.847 7.747 7.748 1.846 15 1.846c7.253 0 13.154 5.9 13.154 13.154M15 0C6.729 0 0 6.729 0 15c0 8.27 6.729 15 15 15s15-6.73 15-15c0-8.271-6.729-15-15-15"/><path d="M8.311 20.754A9.279 9.279 0 0 1 6.333 15c0-2.112.696-4.122 1.978-5.754-.038.438-.057.89-.057 1.354v8.8c0 .463.02.916.057 1.354m11.271-7.878v4.247a.175.175 0 0 1-.175.174h-8.814a.175.175 0 0 1-.175-.174v-4.247c0-.096.08-.175.175-.175h8.814c.096 0 .175.08.175.175m2.107-3.63A9.274 9.274 0 0 1 23.667 15a9.277 9.277 0 0 1-1.978 5.754c.04-.437.058-.89.058-1.354v-8.8c0-.464-.019-.917-.058-1.354M20.392 5.34a.532.532 0 0 0-.81.452v4.57a.175.175 0 0 1-.175.175h-8.814a.175.175 0 0 1-.175-.175v-4.57a.532.532 0 0 0-.808-.453A11.219 11.219 0 0 0 4.168 15c0 3.981 2.035 7.593 5.444 9.663a.532.532 0 0 0 .806-.457v-4.569c0-.097.08-.175.175-.175h8.814c.096 0 .175.078.175.175v4.57a.532.532 0 0 0 .808.454c3.407-2.068 5.442-5.68 5.442-9.66 0-3.983-2.034-7.594-5.44-9.66m33.656 14.061c0 3.346-3.083 5.547-6.2 5.547H37.694V5.079h9.31c3.583 0 6.17 1.79 6.17 5.46 0 3.14-2.732 4.079-2.732 4.079 0 .03 3.607.852 3.607 4.784m-5.936-8.305c0-1.115-.758-1.878-1.892-1.878h-3.638v3.698h3.552c1.278 0 1.978-.94 1.978-1.82m.64 7.747c0-1.144-.845-1.937-2.618-1.937h-3.552v3.904h3.638c1.484 0 2.532-.528 2.532-1.967M74.137 15c0 5.84-3.347 10.418-9.134 10.418-5.762 0-9.138-4.578-9.138-10.418 0-5.811 3.376-10.418 9.134-10.418 5.791 0 9.138 4.607 9.138 10.418m-4.888 0c0-3.111-1.426-5.635-4.246-5.635-2.824 0-4.22 2.524-4.22 5.635 0 3.14 1.396 5.664 4.22 5.664 2.82 0 4.246-2.524 4.246-5.664m21.953 3.932c0 4.373-3.957 6.486-7.68 6.486-4.307 0-6.52-1.643-8.264-3.727l3.171-3.112c1.34 1.704 3.086 2.554 5.036 2.554 1.6 0 2.675-.792 2.675-1.966 0-1.261-.95-1.655-3.552-2.201l-.697-.147c-3.132-.658-5.705-2.435-5.705-5.986 0-3.903 3.174-6.251 7.365-6.251 3.55 0 5.85 1.526 7.246 3.109l-3.086 3.053c-.96-1.027-2.416-1.848-4.073-1.848-1.134 0-2.415.528-2.415 1.848 0 1.204 1.333 1.64 3.025 1.996l.701.148c2.832.594 6.253 1.466 6.253 6.044m18.899 2.172c-2.037 2.935-3.929 4.314-7.856 4.314-5.586 0-9.196-4.636-9.196-10.535 0-5.606 3.26-10.272 9.253-10.272 3.29 0 5.647 1.29 7.654 4.314l-4.015 2.67c-.816-1.408-1.862-2.23-3.61-2.23-2.209 0-4.335 1.977-4.335 5.518 0 3.967 2.3 5.78 4.483 5.78 1.89 0 2.762-.94 3.578-2.288l4.044 2.729m18.638 3.844h-5.238v-7.835h-6.026v7.835h-5.206V5.08h5.206v7.308h6.026V5.08h5.238z"/></g></svg>