<svg width="42" height="39" viewBox="0 0 42 39" xmlns="http://www.w3.org/2000/svg" xmlns:xlink="http://www.w3.org/1999/xlink"><title>Group 11</title><defs><path id="a" d="M.36.01h35.152v36.18H.361z"/><path id="c" d="M.187.062h15.79v18.192H.187z"/></defs><g fill="none" fill-rule="evenodd"><g transform="translate(1 2.748)"><mask id="b" fill="#fff"><use xlink:href="#a"/></mask><path d="M29.288 33.24c-3.662 2.597-9.057 3.531-13.247 2.597-6.235-1.383-12.027-5.214-14.477-11.426-2.46-6.205-1.052-13.746 3.34-18.928 4.082-4.827 11.67-7.165 17.037-4.08a.368.368 0 0 1-.23-.017c.094.052.185.113.28.166-1.098 6.074-1.668 10.69-2.756 16.758a59.746 59.746 0 0 1 16.277 1.621c-.04 5.169-2.144 10.407-6.224 13.31" fill="#B8D4FF" mask="url(#b)"/></g><path d="M22.033 12.794l-.42 3.784-.547 3.043a59.757 59.757 0 0 1 16.278 1.62c-.04 5.17-2.144 10.408-6.226 13.31-3.661 2.597-9.055 3.53-13.245 2.597-6.236-1.382-12.03-5.214-14.479-11.425-2.459-6.206-1.05-13.747 3.341-18.93 4.082-4.826 11.67-7.164 17.037-4.08" stroke="#717791" stroke-width="2.5" stroke-linecap="round" stroke-linejoin="round"/><path d="M40.76 17.777l-14.763-2.374L27.782 1.04l.276.044c8.06 1.296 13.621 8.688 12.701 16.694" fill="#A9EBC8"/><g transform="translate(25.79 -.11)"><mask id="d" fill="#fff"><use xlink:href="#c"/></mask><path d="M.188 12.047l.326-5.52c.111-1.841.23-3.68.403-5.512A1.052 1.052 0 0 1 2.064.067l.05.005.05.008c2.03.295 4.085.95 5.913 1.978a15.771 15.771 0 0 1 4.786 4.07 15.403 15.403 0 0 1 2.77 5.64c.49 2.042.486 4.22-.207 6.171a.475.475 0 1 1-.916-.098v-.008c-.248-1.928-.564-3.714-1.13-5.432a15.127 15.127 0 0 0-2.491-4.744A14.744 14.744 0 0 0 6.907 4.07C5.36 3.125 3.649 2.528 1.82 2.217l1.247-.935c-.281 1.818-.616 3.63-.959 5.442l-1.035 5.432a.447.447 0 0 1-.885-.11" fill="#717791" mask="url(#d)"/></g></g></svg>