<?xml version="1.0" encoding="UTF-8"?>
<svg width="16px" height="16px" viewBox="0 0 16 16" version="1.1" xmlns="http://www.w3.org/2000/svg" xmlns:xlink="http://www.w3.org/1999/xlink">
    <!-- Generator: Sketch 52.6 (67491) - http://www.bohemiancoding.com/sketch -->
    <title>Group 7</title>
    <desc>Created with Sketch.</desc>
    <defs>
        <polygon id="path-1" points="0.000209559748 0.291018616 3.85401333 0.291018616 3.85401333 15.5672956 0.000209559748 15.5672956"></polygon>
        <polygon id="path-3" points="0.135435472 0.227941132 10.5932453 0.227941132 10.5932453 10.7773585 0.135435472 10.7773585"></polygon>
    </defs>
    <g id="Page-2" stroke="none" stroke-width="1" fill="none" fill-rule="evenodd">
        <g id="Index-page" transform="translate(-1313.000000, -5361.000000)">
            <g id="Group-14" transform="translate(1190.000000, 5350.000000)">
                <g id="Group-4" transform="translate(110.000000, 0.000000)">
                    <g id="Group-7" transform="translate(13.000000, 11.000000)">
                        <g id="Group-3" transform="translate(0.000000, 0.008352)">
                            <mask id="mask-2" fill="white">
                                <use xlink:href="#path-1"></use>
                            </mask>
                            <g id="Clip-2"></g>
                            <path d="M1.91558566,3.85263623 C3.11007623,3.85263623 3.85401333,3.06109912 3.85401333,2.07197711 C3.8315605,1.06040226 3.11007623,0.291018616 1.93803849,0.291018616 C0.766300126,0.291018616 0.000209559748,1.06040226 0.000209559748,2.07197711 C0.000209559748,3.06109912 0.743547925,3.85263623 1.89313283,3.85263623 L1.91558566,3.85263623 Z M0.202584403,15.5676249 L3.62858692,15.5676249 L3.62858692,5.25997962 L0.202584403,5.25997962 L0.202584403,15.5676249 Z" id="Fill-1" fill="#FFFFFF" mask="url(#mask-2)"></path>
                        </g>
                        <g id="Group-6" transform="translate(5.388679, 4.798290)">
                            <mask id="mask-4" fill="white">
                                <use xlink:href="#path-3"></use>
                            </mask>
                            <g id="Clip-5"></g>
                            <path d="M0.135435472,10.7774782 L3.56143799,10.7774782 L3.56143799,5.02117132 C3.56143799,4.71311849 3.58389082,4.40536503 3.67400151,4.18502792 C3.92188075,3.56982038 4.48559648,2.93216 5.43190843,2.93216 C6.6719034,2.93216 7.16766189,3.87727447 7.16766189,5.26306314 L7.16766189,10.7774782 L10.593365,10.7774782 L10.593365,4.86729459 C10.593365,1.70114616 8.90311597,0.227941132 6.64915119,0.227941132 C4.80083421,0.227941132 3.98953862,1.26107069 3.53868579,1.96489208 L3.56143799,1.96489208 L3.56143799,0.469832956 L0.135734843,0.469832956 C0.180341132,1.43710088 0.135734843,10.7774782 0.135734843,10.7774782 L0.135435472,10.7774782 Z" id="Fill-4" fill="#FFFFFF" mask="url(#mask-4)"></path>
                        </g>
                    </g>
                </g>
            </g>
        </g>
    </g>
</svg>