<?xml version="1.0" encoding="UTF-8"?>
<svg width="139px" height="40px" viewBox="0 0 139 40" version="1.1" xmlns="http://www.w3.org/2000/svg" xmlns:xlink="http://www.w3.org/1999/xlink">
    <!-- Generator: Sketch 52.6 (67491) - http://www.bohemiancoding.com/sketch -->
    <title>Group 9</title>
    <desc>Created with Sketch.</desc>
    <g id="Page-2" stroke="none" stroke-width="1" fill="none" fill-rule="evenodd">
        <g id="Index-page" transform="translate(-100.000000, -5053.000000)">
            <g id="Group-9" transform="translate(100.000000, 5053.000000)">
                <g id="Group-26">
                    <g id="Group-25">
                        <polygon id="Fill-1" fill="#C3C3C3" points="17.9998125 0 9 20 17.9998125 20 27 0"></polygon>
                        <polygon id="Fill-2" fill="#DB3A35" points="0 0 9 20 18 20 9 0"></polygon>
                    </g>
                    <g id="Group-24" transform="translate(21.000000, 8.000000)">
                        <path d="M19,16 C19,17.657 17.6566667,19 16,19 C14.343,19 13,17.657 13,16 C13,14.343 14.343,13 16,13 C17.6566667,13 19,14.343 19,16" id="Fill-3" fill="#DB3A35"></path>
                        <path d="M9.22988749,18 L0,18 C1.10079158,25.8566215 7.85436779,31.922841 16,31.922841 L16,22.891809 C12.8509619,22.891809 10.1765908,20.8380018 9.22988749,18" id="Fill-6" fill="#F89406"></path>
                        <path d="M9.22988749,14 C10.1765908,11.1462703 12.8509619,9.08108108 16,9.08108108 L16,0 C7.85436779,0 1.10079158,6.09983784 0,14 L9.22988749,14 Z" id="Fill-8" fill="#F89406"></path>
                    </g>
                </g>
                <path d="M56.7048726,9.32142857 L60.5105205,0.160714286 L61.4097453,0.160714286 L56.8815061,10.9285714 L56.5442968,10.9285714 L52,0.160714286 L52.8992248,0.160714286 L56.7048726,9.32142857 Z M63.6096346,0.160714286 L64.444629,0.160714286 L64.444629,10.7678571 L63.6096346,10.7678571 L63.6096346,0.160714286 Z M71.9595792,5.94642857 L75.5404208,10.7678571 L74.5609081,10.7678571 L70.996124,6.01071429 L68.4108527,6.01071429 L68.4108527,10.7678571 L67.5758583,10.7678571 L67.5758583,0.160714286 L71.1727575,0.160714286 C72.1522702,0.160714286 72.9390919,0.433928571 73.517165,0.980357143 C74.0952381,1.52678571 74.3842746,2.21785714 74.3842746,3.06964286 C74.3842746,4.54821429 73.4850498,5.67321429 71.9595792,5.94642857 Z M71.1406423,0.916071429 L68.4108527,0.916071429 L68.4108527,5.25535714 L71.1406423,5.25535714 C72.666113,5.25535714 73.517165,4.37142857 73.517165,3.08571429 C73.517165,1.8 72.666113,0.916071429 71.1406423,0.916071429 Z M75.845515,0.160714286 L84.4363234,0.160714286 L84.4363234,0.916071429 L80.5503876,0.916071429 L80.5503876,10.7678571 L79.7153931,10.7678571 L79.7153931,0.916071429 L75.845515,0.916071429 L75.845515,0.160714286 Z M90.6506091,0 C92.1600221,0 93.444629,0.530357143 94.5044297,1.575 C95.5642303,2.61964286 96.0941307,3.92142857 96.0941307,5.46428571 C96.0941307,6.99107143 95.5642303,8.29285714 94.5044297,9.35357143 C93.444629,10.3982143 92.1600221,10.9285714 90.6506091,10.9285714 C89.1251384,10.9285714 87.8405316,10.3982143 86.7967885,9.35357143 C85.7530454,8.29285714 85.2231451,6.99107143 85.2231451,5.46428571 C85.2231451,3.92142857 85.7530454,2.61964286 86.7967885,1.575 C87.8405316,0.530357143 89.1251384,0 90.6506091,0 Z M90.6666667,0.771428571 C89.3660022,0.771428571 88.2740864,1.22142857 87.4069767,2.12142857 C86.5398671,3.00535714 86.1063123,4.11428571 86.1063123,5.44821429 C86.1063123,6.78214286 86.5398671,7.89107143 87.4069767,8.79107143 C88.2740864,9.69107143 89.3660022,10.1410714 90.6666667,10.1410714 C91.9673311,10.1410714 93.0431894,9.69107143 93.910299,8.79107143 C94.7774086,7.89107143 95.2109635,6.78214286 95.2109635,5.44821429 C95.2109635,4.13035714 94.7774086,3.02142857 93.8942414,2.12142857 C93.0271318,1.22142857 91.9512735,0.771428571 90.6666667,0.771428571 Z M57.6522702,16.0714286 C59.4346622,16.0714286 60.9922481,16.8910714 61.9396456,18.225 L61.3133998,18.7232143 C60.4302326,17.4696429 59.209856,16.8428571 57.6683278,16.8428571 C56.3676633,16.8428571 55.2918051,17.2928571 54.4086379,18.1928571 C53.5415282,19.0767857 53.1079734,20.1857143 53.1079734,21.5196429 C53.1079734,22.8535714 53.5415282,23.9785714 54.4086379,24.8785714 C55.2757475,25.7625 56.3676633,26.2125 57.6683278,26.2125 C59.2259136,26.2125 60.4302326,25.5857143 61.3133998,24.3482143 L61.9396456,24.8464286 C60.9922481,26.1803571 59.4346622,27 57.6522702,27 C56.1267996,27 54.8421927,26.4696429 53.7984496,25.425 C52.7547065,24.3803571 52.2248062,23.0785714 52.2248062,21.5357143 C52.2248062,19.9928571 52.7547065,18.6910714 53.7984496,17.6464286 C54.8421927,16.6017857 56.1267996,16.0714286 57.6522702,16.0714286 Z M69.0049834,16.0714286 C70.5143965,16.0714286 71.7990033,16.6017857 72.858804,17.6464286 C73.9186047,18.6910714 74.448505,19.9928571 74.448505,21.5357143 C74.448505,23.0625 73.9186047,24.3642857 72.858804,25.425 C71.7990033,26.4696429 70.5143965,27 69.0049834,27 C67.4795127,27 66.1949059,26.4696429 65.1511628,25.425 C64.1074197,24.3642857 63.5775194,23.0625 63.5775194,21.5357143 C63.5775194,19.9928571 64.1074197,18.6910714 65.1511628,17.6464286 C66.1949059,16.6017857 67.4795127,16.0714286 69.0049834,16.0714286 Z M69.021041,16.8428571 C67.7203765,16.8428571 66.6284607,17.2928571 65.7613511,18.1928571 C64.8942414,19.0767857 64.4606866,20.1857143 64.4606866,21.5196429 C64.4606866,22.8535714 64.8942414,23.9625 65.7613511,24.8625 C66.6284607,25.7625 67.7203765,26.2125 69.021041,26.2125 C70.3217054,26.2125 71.3975637,25.7625 72.2646733,24.8625 C73.1317829,23.9625 73.5653378,22.8535714 73.5653378,21.5196429 C73.5653378,20.2017857 73.1317829,19.0928571 72.2486157,18.1928571 C71.3815061,17.2928571 70.3056478,16.8428571 69.021041,16.8428571 Z M81.5941307,22.3875 L86.0099668,16.0714286 L86.3311185,16.0714286 L86.3311185,26.8392857 L85.496124,26.8392857 L85.496124,18.2089286 L81.7707641,23.5285714 L81.4496124,23.5285714 L77.7081949,18.2089286 L77.7081949,26.8392857 L76.8732004,26.8392857 L76.8732004,16.0714286 L77.1943522,16.0714286 L81.5941307,22.3875 Z M94.1993355,22.3875 L98.6151717,16.0714286 L98.9363234,16.0714286 L98.9363234,26.8392857 L98.1013289,26.8392857 L98.1013289,18.2089286 L94.375969,23.5285714 L94.0548173,23.5285714 L90.3133998,18.2089286 L90.3133998,26.8392857 L89.4784053,26.8392857 L89.4784053,16.0714286 L89.799557,16.0714286 L94.1993355,22.3875 Z M102.08361,16.2321429 L108.715393,16.2321429 L108.715393,16.9875 L102.918605,16.9875 L102.918605,20.7321429 L107.430786,20.7321429 L107.430786,21.4875 L102.918605,21.4875 L102.918605,26.0839286 L108.908084,26.0839286 L108.908084,26.8392857 L102.08361,26.8392857 L102.08361,16.2321429 Z M115.507752,22.0178571 L119.088594,26.8392857 L118.109081,26.8392857 L114.544297,22.0821429 L111.959025,22.0821429 L111.959025,26.8392857 L111.124031,26.8392857 L111.124031,16.2321429 L114.72093,16.2321429 C115.700443,16.2321429 116.487265,16.5053571 117.065338,17.0517857 C117.643411,17.5982143 117.932447,18.2892857 117.932447,19.1410714 C117.932447,20.6196429 117.033223,21.7446429 115.507752,22.0178571 Z M114.688815,16.9875 L111.959025,16.9875 L111.959025,21.3267857 L114.688815,21.3267857 C116.214286,21.3267857 117.065338,20.4428571 117.065338,19.1571429 C117.065338,17.8714286 116.214286,16.9875 114.688815,16.9875 Z M125.447398,16.0714286 C127.22979,16.0714286 128.787375,16.8910714 129.734773,18.225 L129.108527,18.7232143 C128.22536,17.4696429 127.004983,16.8428571 125.463455,16.8428571 C124.162791,16.8428571 123.086932,17.2928571 122.203765,18.1928571 C121.336656,19.0767857 120.903101,20.1857143 120.903101,21.5196429 C120.903101,22.8535714 121.336656,23.9785714 122.203765,24.8785714 C123.070875,25.7625 124.162791,26.2125 125.463455,26.2125 C127.021041,26.2125 128.22536,25.5857143 129.108527,24.3482143 L129.734773,24.8464286 C128.787375,26.1803571 127.22979,27 125.447398,27 C123.921927,27 122.63732,26.4696429 121.593577,25.425 C120.549834,24.3803571 120.019934,23.0785714 120.019934,21.5357143 C120.019934,19.9928571 120.549834,18.6910714 121.593577,17.6464286 C122.63732,16.6017857 123.921927,16.0714286 125.447398,16.0714286 Z M132.175526,16.2321429 L138.807309,16.2321429 L138.807309,16.9875 L133.01052,16.9875 L133.01052,20.7321429 L137.522702,20.7321429 L137.522702,21.4875 L133.01052,21.4875 L133.01052,26.0839286 L139,26.0839286 L139,26.8392857 L132.175526,26.8392857 L132.175526,16.2321429 Z" id="VIRTO-COMMERCE" fill="#FFFFFF"></path>
            </g>
        </g>
    </g>
</svg>