<svg width="30px" height="30px" viewBox="0 0 30 30" version="1.1" xmlns="http://www.w3.org/2000/svg" xmlns:xlink="http://www.w3.org/1999/xlink">
	<g stroke="none" stroke-width="1" fill="none" fill-rule="evenodd">
		<g transform="translate(-1232.000000, -785.000000)">
			<g transform="translate(1148.000000, 785.000000)">
				<g>
					<g transform="translate(84.000000, 0.000000)">
						<path d="M15,0 C6.7,0 0,6.7 0,15 C0,23.3 6.7,30 15,30 C23.3,30 30,23.3 30,15 C30,6.7 23.3,0 15,0 Z" class="fill" fill-rule="nonzero" fill="#000000"></path>
						<path d="M22.6027243,10.39608 C22.2725529,10.53828 21.9306558,10.64988 21.5795015,10.73148 C21.96645,10.37388 22.2571243,9.92688 22.4212843,9.42768 C22.4681872,9.28488 22.3089643,9.16188 22.1768958,9.23808 C21.6881186,9.52008 21.1616958,9.73128 20.6124386,9.86628 C20.5809643,9.87408 20.5476386,9.87828 20.51493,9.87828 C20.4149529,9.87828 20.3174443,9.84228 20.2409186,9.77688 C19.6564843,9.27588 18.9048043,8.99988 18.1241186,8.99988 C17.7865415,8.99988 17.4458786,9.05088 17.11077,9.15228 C16.0733529,9.46488 15.2735358,10.29648 15.0217415,11.32308 C14.9279358,11.70828 14.9020158,12.09348 14.94645,12.46848 C14.9513872,12.51108 14.9304043,12.54168 14.9174443,12.55548 C14.89461,12.58068 14.8625186,12.59448 14.8291929,12.59448 C14.82549,12.59448 14.8217872,12.59448 14.8174672,12.59388 C12.5469986,12.38868 10.4999358,11.32548 9.05211862,9.59928 C8.97867862,9.51108 8.83673576,9.52188 8.77810719,9.62028 C8.49483862,10.09308 8.3448729,10.63368 8.3448729,11.18388 C8.3448729,12.02688 8.69355862,12.82128 9.29835862,13.40088 C9.04409576,13.34208 8.79785576,13.24968 8.56889576,13.12608 C8.45842719,13.06668 8.32203862,13.14348 8.32018719,13.26648 C8.30475862,14.51928 9.05890719,15.63348 10.1888958,16.13508 C10.1660615,16.13568 10.1438443,16.13568 10.1203929,16.13568 C9.94142147,16.13568 9.75998147,16.11948 9.58162719,16.08588 C9.45696433,16.06308 9.35205005,16.17828 9.39093005,16.29528 C9.75813005,17.40888 10.7437072,18.22968 11.9236843,18.41568 C10.9442786,19.05468 9.80379862,19.39188 8.6170329,19.39188 L8.24736433,19.39128 C8.1331929,19.39128 8.03691862,19.46388 8.0079129,19.57128 C7.97890719,19.67688 8.03198147,19.78848 8.1288729,19.84308 C9.46622147,20.60028 10.9917986,20.99988 12.5408272,20.99988 C13.8973072,20.99988 15.1655358,20.73828 16.31157,20.22228 C17.3619472,19.74948 18.29013,19.07328 19.0701986,18.21228 C19.7971929,17.41068 20.3655815,16.48548 20.7599358,15.46188 C21.1351586,14.48628 21.3332615,13.44528 21.3332615,12.45168 L21.3332615,12.40428 C21.3332615,12.24468 21.4073186,12.09468 21.5369186,11.99208 C22.0287815,11.60448 22.4570786,11.14728 22.8094672,10.63488 C22.9020386,10.49928 22.7557758,10.33008 22.6027243,10.39608" fill="#FFFFFF"></path>
					</g>
				</g>
			</g>
		</g>
	</g>
</svg>