<svg width="100" height="70" viewBox="0 0 100 70" xmlns="http://www.w3.org/2000/svg"><title>Fill 1</title><path d="M100 35.022l-.001-.01a4.975 4.975 0 0 0-1.47-3.548l-30.128-30a5.037 5.037 0 0 0-7.102 0 4.986 4.986 0 0 0 0 7.072l21.579 21.486H5.02c-2.772 0-5.021 2.238-5.021 5s2.249 5 5.021 5h77.812L61.299 61.464a4.986 4.986 0 0 0 0 7.071A5.02 5.02 0 0 0 64.849 70a5.02 5.02 0 0 0 3.552-1.465l29.997-29.869a4.97 4.97 0 0 0 1.507-2.699c.034-.174.038-.353.053-.53.012-.14.042-.273.042-.415" fill="#FFF" fill-rule="evenodd"/></svg>