<svg width="104" height="126" viewBox="0 0 104 126" xmlns="http://www.w3.org/2000/svg" xmlns:xlink="http://www.w3.org/1999/xlink"><title>Group 6</title><defs><path id="a" d="M0 0h103.206v95.998H0z"/></defs><g fill="none" fill-rule="evenodd"><mask id="b" fill="#fff"><use xlink:href="#a"/></mask><path d="M97.196 95.998H6.014c-4.842 0-7.692-5.43-4.938-9.408L7.7 77.008a23.885 23.885 0 0 0 4.122-11.064L15.5 32.116C17.486 13.846 32.912-.002 51.29-.002h1.11c18.498 0 33.984 14.022 35.82 32.424l3.342 33.48a23.987 23.987 0 0 0 4.062 11.16l6.528 9.558c2.718 3.978-.132 9.378-4.956 9.378" fill="#1C1C1C" mask="url(#b)"/><path d="M66.264 107.998c1.896 0 3.36 1.758 2.976 3.618-1.674 8.208-8.934 14.382-17.634 14.382-8.706 0-15.966-6.174-17.64-14.382-.378-1.86 1.08-3.618 2.976-3.618h29.322z" fill="#1C1C1C"/></g></svg>