<svg width="317" height="340" viewBox="0 0 317 340" fill="none" xmlns="http://www.w3.org/2000/svg"><path d="M183.996 335.222c-.57-1.058-8.009-1.566-10.394-1.814-9.2-.959-18.838-1.281-28.422-1.393-17.123-.198-34.25.161-51.377.112-26.946-.079-53.785-.075-80.703.983-2.682.108-8.162.124-8.696 1.348-.657 1.508 3.195 2.471 6.832 2.963 11.556 1.562 25.149 1.979 37.457 2.331 26.256.748 52.546-.372 78.728-1.025 4.405-.112 57.621-1.567 56.575-3.505z" fill="#DDD"/><path d="M3.627 211.966c.583 4.675 1.984 9.2 3.394 13.693 5.666 18.023 11.927 35.848 18.292 53.632 6.27 17.512 12.432 35.047 21.549 51.339 1.306 2.331 2.905 4.848 5.488 5.539 2.774.739 5.733-1.034 7.237-3.476 1.645-2.678 1.91-5.956 2.062-9.097.84-17.093-.55-34.27-1.632-51.331-.372-5.872-.748-11.749-1.12-17.622-.389-6.146-.273-10.552 1.165-16.487a111.411 111.411 0 0 0 2.844-34.183l-59.279 7.993z" fill="#CACEDE"/><path d="M3.284 216.074c1.505 6.873 3.898 13.577 6.084 20.26a1226.282 1226.282 0 0 0 6.865 20.326c4.596 13.258 9.245 26.508 14.163 39.651 2.398 6.397 4.91 12.754 7.7 18.99 2.608 5.832 5.31 11.858 8.741 17.26 2.546 4.008 6.811 5.872 11.051 2.988 4.898-3.327 4.733-10.043 4.906-15.305.533-16.106-.752-32.191-1.777-48.251-.054-.823-2.054-.368-1.996.533.864 13.506 1.905 27.021 1.88 40.564a231.715 231.715 0 0 1-.181 8.965c-.128 3.112-.14 6.472-1.451 9.365-1.306 2.881-4.538 5.455-7.67 3.521-2.36-1.459-3.67-4.439-4.94-6.782-5.996-11.072-10.716-22.772-15.08-34.568-4.415-11.927-8.647-23.929-12.825-35.944a1296.58 1296.58 0 0 1-7.018-20.701c-2.318-7.059-4.872-14.147-6.464-21.413-.177-.843-2.178-.331-1.988.541z" fill="#5D7183"/><path d="M58.198 207.837c2.637 19.119-.574 38.077-2.628 57.097-1.352 12.518-7.902 25.02-14.42 35.609-2.509 4.075-25.876 35.254-10.154 34.303 5.34-.322 10.86-4.178 15.16-7.075a154.723 154.723 0 0 0 33.463-30.563c20.88-25.629 31.993-60.833 28.964-93.809l-50.385 4.438z" fill="#CACEDE"/><path d="M57.971 233.738c-1.194 11.151-2.008 22.376-4.224 33.386-1.922 9.547-5.294 18.664-9.91 27.236-4.75 8.816-11.126 16.614-15.672 25.558-1.724 3.389-4.113 7.877-3.497 11.837.64 4.124 5.575 3.81 8.671 3.087 4.166-.971 7.906-3.244 11.436-5.584 3.93-2.603 7.778-5.331 11.481-8.249a155.388 155.388 0 0 0 21.016-19.999c14.151-16.255 24.045-35.75 29.137-56.679.116-.471-1.843-.186-1.971.339-4.373 17.97-12.267 35.15-23.542 49.843-11.105 14.469-25.334 27.686-41.16 36.857-3.033 1.757-12.336 6.125-13.096-.363-.472-4.026 1.988-8.506 3.765-11.94 4.137-7.981 9.753-15.011 14.171-22.81 5.15-9.092 8.973-18.821 11.064-29.071 2.286-11.204 3.112-22.628 4.327-33.981.03-.297-1.93-.095-1.996.533zm-37.87 4.7c4.873-3.113 8.225-7.948 9.498-13.581.227-1-1.819-.777-2.026.136-1.177 5.208-4.314 9.617-8.807 12.486-1.136.727.492 1.5 1.335.959z" fill="#5D7183"/><path d="M93.692 107.412c3.12-8.047 6.819-15.015 11.593-22.409 5.666-8.782 15.201-20.115 15.213-30.947.008-6.307-2.505-14.957-8.282-18.164-6.522-3.62-15.098-2.989-21.694.037-15.994 7.336-26.876 21.822-36.957 35.663-10.679 14.668-23.446 27.537-32.53 43.366-9.778 17.036-16.742 36.54-19.272 56.055-1.806 13.92-.095 28.025 1.616 41.958.137 1.115 14.726 3.194 16.359 3.451 5.385.847 10.658 1.016 16.097 1.07 11.82.12 23.636.24 35.456.355 8.535.087 17.086.17 25.596-.496 4.939-.388 9.927-1.045 14.502-2.951 2.897-12.481-2.943-27.07-6.435-39.014-3.777-12.916-8.042-25.699-11.192-38.788-2.174-9.026-3.86-19.106-.492-28.062.137-.38.277-.752.422-1.124z" fill="#fff"/><path d="M45.006 90.864c5.902 17.804 25.323 24.876 42.664 23.02 1.096-.116 1.554-1.567.19-1.418-16.651 1.786-35.2-5.063-40.858-22.136-.293-.884-2.285-.334-1.996.534z" fill="#5D7183"/><path d="M61.7 111.941a58.175 58.175 0 0 0-8.01 19.652c-.137.653 1.86.331 1.987-.285a57.551 57.551 0 0 1 7.865-19.387c.45-.711-1.525-.476-1.843.02zm-31.105 22.31c-.744 4.806-2.757 9.233-4.092 13.882-.529 1.848-.826 2.658 1.162 3.236a98.374 98.374 0 0 0 7.236 1.806c2.137.451 6.72 2.307 7.87-.557 1.892-4.716 3.145-9.808 4.698-14.647.108-.339-1.806-.133-1.967.363l-2.53 7.886c-.776 2.426-1.285 5.426-2.578 7.625.302-.157.603-.31.905-.467-.744.215-2.843-.566-3.604-.719a99.788 99.788 0 0 1-3.835-.839c-1.265-.302-2.563-.583-3.798-.988a3.412 3.412 0 0 1-1.39-.562c-.652-.112-.85-.475-.586-1.091-.041-.521.339-1.269.484-1.757 1.351-4.579 3.281-8.956 4.017-13.7.033-.19-1.901-.058-1.992.529zm36.229-63.296c-.773 1.963-.897 3.914.769 5.344 1.653 1.418 4.281 1.091 6.067-.153 1.785-1.244 2.93-3.195 4.017-5.083-.6-.438-7.882-5.2-7.427-5.943-.913 1.487-2.57 3.665-3.426 5.835z" fill="#5D7183"/><path d="M70.052 33.218c-2.162 3.157-3.534 7.133-2.021 10.857 3.004 7.402 12.713 7.15 18.213 2.947-2.67 5.228-.268 12.266 4.782 15.254 5.055 2.988 11.965 1.967 16.354-1.93-2.529 2.988-1.967 7.915.86 10.63 2.823 2.711 7.365 3.207 10.956 1.653 3.815-1.653 6.584-5.327 7.675-9.274.322-1.17.765-11.614-2.075-10.857 3.608-.963 6.592-3.972 7.526-7.588.934-3.617-.215-7.696-2.905-10.287-2.947-2.844-8.378-3.443-10.878-.199 1.719-5.211-1.649-11.518-6.935-12.99-5.286-1.47-11.427 2.191-12.647 7.543-1.438-3.413-5.389-6.654-9.303-6.183-1.715.207-8.53 4.592-5.807 6.968-4.781-4.178-10.534-1.31-13.795 3.456z" fill="#FDAF3C"/><path d="M101.983 161.966c-2.51-8.237-4.997-16.486-7.043-24.855-1.913-7.832-3.542-16.123-1.967-24.165 1.475-7.539 5.526-14.974 9.324-21.574 3.732-6.485 8.245-12.432 12.217-18.76 3.434-5.471 6.765-11.613 6.972-18.221.173-5.576-1.414-11.903-5.117-16.197-4.021-4.658-10.997-5.729-16.817-5.138-6.538.662-12.473 3.666-17.858 7.29C70.035 48.192 61.41 59.603 53.227 70.82c-9.262 12.692-20.095 24.198-28.832 37.275-8.683 12.998-15.155 27.657-19.404 42.68-2.215 7.828-3.897 15.887-4.608 24-.736 8.378-.322 16.805.484 25.157.194 2.021.413 4.038.644 6.055.244 2.12.137 4.823.819 6.844.388 1.145 1.467 1.256 2.628 1.554 4.055 1.041 8.245 1.624 12.383 2.252 6.567.996 13.097 1.298 19.734 1.364 8.795.087 17.59.178 26.385.265 4.323.045 8.646.095 12.969.124.67.004 2.145-.996.81-1.005-8.448-.053-16.891-.161-25.34-.248-8.356-.082-16.779.124-25.115-.487-4.505-.331-8.993-1.075-13.444-1.831-2.05-.347-4.1-.707-6.125-1.174-.69-.161-1.579-.273-2.215-.616-.98-.533-.724-1.103-.877-2.347-.996-8.179-1.938-16.383-2.112-24.632-.169-8.2.641-16.292 2.24-24.331 2.993-15.019 8.374-29.563 15.615-43.044 7.203-13.403 17.023-24.876 26.529-36.659 8.679-10.758 16.139-22.566 25.95-32.369 9.436-9.431 25.174-21.103 38.928-13.378 5.154 2.893 7.378 9.36 8.031 14.915.789 6.696-1.645 12.879-4.919 18.603-3.405 5.947-7.633 11.37-11.266 17.176-3.889 6.216-7.29 12.717-10.01 19.528-2.74 6.873-3.232 13.763-2.203 21.066 1.116 7.906 3.385 15.68 5.6 23.334a866.413 866.413 0 0 0 3.472 11.601c.194.612 2.182.058 2.005-.525z" fill="#5D7183"/><path d="M94.618 144.137c2.36 7.819 7.443 14.882 14.866 18.569 6.133 3.046 13.539 3.273 19.367-.612 8.373-5.575 9.005-16.535 8.075-25.628-1.211-11.837-5.906-22.983-10.944-33.642-2.851-6.038-6.335-11.977-8.303-18.375-.917-2.988-1.554-6.273-.979-9.39.512-2.781 2.182-6.087 5.36-6.236 1.141-.054 1.53-1.554.17-1.492-3.815.177-6.307 3.227-7.282 6.712-1.364 4.885.272 10.286 2.153 14.8 4.459 10.704 10.332 20.71 14.072 31.74 1.806 5.328 3.187 10.816 3.757 16.42.546 5.365.579 11.213-1.326 16.338-2.927 7.869-10.936 11.75-18.937 9.563-9.068-2.479-15.429-10.592-18.057-19.296-.277-.938-2.27-.401-1.992.529zM51.04 124.605c.008.033.02.066.033.103.186.508 1.455 1.562 1.922.851a2.16 2.16 0 0 0 .277-1.727c-.847-.542-2.6-.48-2.232.773zm3.869-7.626c-.033.005-.07.009-.108.017-.533.099-1.777 1.182-1.153 1.756a2.182 2.182 0 0 0 1.657.558c.678-.748.901-2.488-.396-2.331z" fill="#5D7183"/><path d="M309.686 215.521H206.364a6.203 6.203 0 0 1-6.2-6.2V72.398c0-3.422 2.778-6.2 6.2-6.2h103.322c3.422 0 6.2 2.778 6.2 6.2V209.32a6.2 6.2 0 0 1-6.2 6.2z" fill="#fff"/><path d="M280.756 241.653H177.433a6.201 6.201 0 0 1-6.199-6.199V98.53c0-3.422 2.777-6.2 6.199-6.2h103.323a6.201 6.201 0 0 1 6.199 6.2v136.924a6.199 6.199 0 0 1-6.199 6.199z" fill="#fff"/><path d="M251.826 267.785H148.503a6.202 6.202 0 0 1-6.2-6.199V124.663c0-3.423 2.778-6.2 6.2-6.2h103.323a6.201 6.201 0 0 1 6.199 6.2v136.923a6.199 6.199 0 0 1-6.199 6.199z" fill="#fff"/><path d="M245.246 66.79h60.568c2.757 0 5.678-.385 7.687 2.008 1.414 1.686 1.38 3.542 1.38 5.546v134.2c0 3.203-1.446 6.241-5.12 6.377-4.489.166-9.014 0-13.502 0h-4.026c-.785 0-2.108 1.186-.76 1.186h12.522c4.17 0 9.213.686 11.829-3.405 1.091-1.703 1.058-3.451 1.058-5.34V84.858c0-4.128.062-8.261 0-12.39-.058-4.03-3.025-6.766-6.989-6.873-2.285-.062-4.579 0-6.865 0h-57.026c-.781.008-2.099 1.194-.756 1.194z" fill="#CFCFCF"/><path d="M172.234 113.396v-10.101c0-3.893-.715-10.038 4.827-10.373 3.083-.186 6.237 0 9.324 0h91.457c.839 0 1.686-.033 2.525 0 3.98.153 5.584 3.5 5.584 6.964v64.523c0 .868 2 .463 2-.232v-63.093c0-1.818.19-3.79-.599-5.476-1.298-2.777-4.03-3.852-6.91-3.868-12.957-.083-25.922 0-38.879 0h-52.471c-3.724 0-7.452-.07-11.171 0-4.067.074-7.551 2.81-7.688 7.038-.119 3.806 0 7.638 0 11.448v3.41c0 .86 2.001.459 2.001-.24zm84.791 131.224v15.66c0 3.203-.971 6.679-4.844 6.91-.574.033-1.157 0-1.732 0h-98.293c-3.517 0-7.439.128-8.638-4.224-.595-2.157-.219-4.798-.219-7.001v-11.58c0-.868-2-.463-2 .231v16.205c0 4.836 3.182 7.555 7.844 7.555h100.042c3.732 0 7.72-.479 9.348-4.5.885-2.187.492-5.034.492-7.336v-12.155c0-.868-2-.463-2 .235z" fill="#CFCFCF"/><path d="M143.303 162.115c0-12.44-.334-24.926 0-37.362.087-3.182 2.1-5.67 5.369-5.699 1.426-.012 2.856 0 4.282 0h90.49c2.885 0 6.307-.508 9.159.132 4.099.922 4.422 4.72 4.422 8.093v34.799c0 .868 2 .463 2-.232 0-12.411.438-24.9 0-37.303-.14-4.001-3.182-6.588-7.08-6.675-1.281-.029-2.566 0-3.843 0h-92.458c-3.252 0-7.703-.641-10.658.992-3.092 1.707-3.679 4.604-3.679 7.79v35.701c-.004.863 1.996.462 1.996-.236z" fill="#CFCFCF"/><path d="M281.116 241.43H86.868a6.202 6.202 0 0 1-6.199-6.2v-63.646c0-3.423 2.777-6.2 6.2-6.2h194.247a6.201 6.201 0 0 1 6.199 6.2v63.646c0 3.427-2.773 6.2-6.199 6.2z" fill="#fff"/><path d="M281.768 241.045H90.104c-.855 0-1.723.038-2.578 0-3.472-.148-5.75-2.901-5.857-6.253-.033-.983 0-1.975 0-2.959 0-19.974-.177-39.961 0-59.935.03-3.203 1.81-6.014 5.208-6.129 1.612-.054 3.24 0 4.852 0h183.22c1.616 0 3.236-.021 4.852 0 3.691.049 6.414 2.512 6.514 6.302.227 8.671 0 17.375 0 26.046v33.328c.004 3.509.512 9.373-4.547 9.6-.396.017-2.231.815-1.306.773 3.468-.157 7.035-1.946 7.733-5.654.17-.896.116-1.839.116-2.748v-61.113c0-4.051-2.36-7.2-6.662-7.303-3.91-.091-7.828 0-11.738 0H130.698c-14.188 0-28.385-.112-42.573 0-3.687.029-7.646 1.686-8.357 5.74-.43 2.459-.1 5.204-.1 7.679v51.778c0 2.777-.545 6.484 1.133 8.877 2.633 3.749 8.675 2.744 12.684 2.744h186.973c.41 0 2.253-.773 1.31-.773z" fill="#5D7183"/><path d="M264.584 215.806H103.4a6.202 6.202 0 0 1-6.2-6.2v-12.398c0-3.422 2.778-6.2 6.2-6.2h161.184a6.202 6.202 0 0 1 6.199 6.2v12.398c0 3.427-2.773 6.2-6.199 6.2z" fill="#fff"/><path d="M121.998 215.806H103.4a6.202 6.202 0 0 1-6.2-6.2v-12.398c0-3.422 2.778-6.2 6.2-6.2h18.598v24.798z" fill="#FDAF3C"/><path d="M122.651 215.421h-17.403c-3.894 0-6.923-2.136-7.051-6.298-.095-3.22 0-6.456 0-9.675 0-3.567.372-7.737 4.959-8.051 3.001-.207 6.088 0 9.097 0h5.55c1.021 0 2.307-.215 3.307 0 .458.095-.141-.228-.108-.037.054.293 0 .64 0 .938v23.776c0 .273 1.996.004 1.996-.533v-24.797c0-.112-.31-.12-.347-.12h-13.655c-4.389 0-10.192-.595-12.287 4.36-.823 1.947-.508 4.402-.508 6.464 0 2.608-.025 5.216 0 7.824.024 2.901 1.343 5.488 4.211 6.517 1.719.62 3.757.401 5.555.401h15.378c.405.004 2.249-.769 1.306-.769z" fill="#5D7183"/><path d="M146.796 191.008h-24.798v24.798h24.798v-24.798z" fill="#FFBE5E"/><path d="M147.449 215.421H125.78c-.678 0-2.43.335-3.05 0 .264.145.198.12.264-.252.095-.525 0-1.169 0-1.703V190.74c-.549.219-1.099.438-1.649.653h21.669c.678 0 2.43-.335 3.05 0-.264-.145-.198-.12-.264.252-.095.525 0 1.169 0 1.702v22.727c0 .273 1.996.004 1.996-.533v-24.797c0-.112-.31-.12-.347-.12h-24.798c-.334 0-1.649.165-1.649.653v24.797c0 .112.31.12.347.12h24.798c.401 0 2.244-.773 1.302-.773z" fill="#5D7183"/><path d="M171.593 191.008h-24.797v24.798h24.797v-24.798z" fill="#FFCD84"/><path d="M172.246 215.421h-21.445c-.682 0-2.666.364-3.274 0 .174.104.223.162.265-.198.062-.492 0-1.029 0-1.521v-22.958c-.55.219-1.1.438-1.649.653h21.445c.682 0 2.666-.364 3.274 0-.174-.104-.223-.161-.265.198-.062.492 0 1.029 0 1.521v22.958c0 .273 1.996.004 1.996-.533v-24.797c0-.112-.31-.12-.347-.12h-24.797c-.335 0-1.649.165-1.649.653v24.797c0 .112.31.12.347.12h24.797c.401 0 2.245-.773 1.302-.773z" fill="#5D7183"/><path d="M196.391 191.008h-24.798v24.798h24.798v-24.798z" fill="#FFE0B1"/><path d="M197.044 215.421h-21.669c-.678 0-2.43.335-3.05 0 .264.145.198.12.264-.252.095-.525 0-1.169 0-1.703V190.74c-.549.219-1.099.438-1.649.653h21.669c.678 0 2.43-.335 3.05 0-.264-.145-.198-.12-.264.252-.095.525 0 1.169 0 1.702v22.727c0 .273 1.996.004 1.996-.533v-24.797c0-.112-.31-.12-.347-.12h-24.798c-.334 0-1.649.165-1.649.653v24.797c0 .112.31.12.347.12h24.798c.401 0 2.244-.773 1.302-.773z" fill="#5D7183"/><path d="M245.986 191.008h-24.798v24.798h24.798v-24.798z" fill="#fff"/><path d="M246.639 215.421H224.97c-.678 0-2.43.335-3.05 0 .264.145.198.12.264-.252.096-.525 0-1.169 0-1.703V190.74c-.549.219-1.099.438-1.649.653h21.669c.678 0 2.43-.335 3.05 0-.264-.145-.198-.12-.264.252-.095.525 0 1.169 0 1.702v22.727c0 .273 1.996.004 1.996-.533v-24.797c0-.112-.31-.12-.347-.12h-24.798c-.334 0-1.649.165-1.649.653v24.797c0 .112.31.12.348.12h24.797c.401 0 2.244-.773 1.302-.773z" fill="#5D7183"/><path d="M221.221 191.008h-24.797v24.798h24.797v-24.798z" fill="#fff"/><path d="M221.874 215.421h-21.669c-.677 0-2.43.335-3.05 0 .265.145.199.12.265-.252.095-.525 0-1.169 0-1.703V190.74c-.55.219-1.1.438-1.649.653h21.669c.677 0 2.43-.335 3.05 0-.265-.145-.199-.12-.265.252-.095.525 0 1.169 0 1.702v22.727c0 .273 1.996.004 1.996-.533v-24.797c0-.112-.31-.12-.347-.12h-24.797c-.335 0-1.649.165-1.649.653v24.797c0 .112.31.12.347.12h24.797c.401 0 2.245-.773 1.302-.773z" fill="#5D7183"/><path d="M264.584 215.806h-18.598v-24.798h18.598a6.202 6.202 0 0 1 6.199 6.2v12.398c0 3.427-2.773 6.2-6.199 6.2z" fill="#fff"/><path d="M265.237 215.421h-7.869c-3.34 0-6.857-.322-10.18 0-.702.071-.252-.128-.206.095-.046-.215-.021-.537 0-.748.111-1.281 0-2.62 0-3.905v-20.119c-.55.219-1.1.438-1.649.653h16.556c3.418 0 6.828.777 7.733 4.699.607 2.624.161 5.74.161 8.406.004 3.633.885 10.676-4.546 10.919-.397.017-2.232.815-1.306.773 4.215-.19 7.786-2.719 7.848-7.203.05-3.584 0-7.175 0-10.758 0-4.109-2.099-7.452-6.554-7.609-2.885-.103-5.787 0-8.671 0h-9.915c-.335 0-1.649.165-1.649.653v24.797c0 .112.31.12.347.12h18.598c.401 0 2.244-.773 1.302-.773z" fill="#5D7183"/><path d="M200.164 91.525c25.108 0 45.462-20.354 45.462-45.462C245.626 20.955 225.272.6 200.164.6c-25.108 0-45.462 20.354-45.462 45.462 0 25.108 20.354 45.462 45.462 45.462z" fill="#fff"/><path d="M199.151 80.7v6.77c0 1.067 2.026.786 2.026-.14v-6.77c0-1.066-2.026-.79-2.026.14zm.009-75.876v6.84c0 .955 2.008.596 2.008-.194V4.63c.005-.954-2.008-.595-2.008.194zm-34.246 41.214h-5.666c-.616 0-2.161.922-.835.922h5.667c.615 0 2.161-.922.834-.922zm76.968-.128h-6.171c-.38 0-1.157.128-1.314.554-.153.405.132.62.55.62h6.17c.38 0 1.157-.129 1.314-.554.157-.405-.128-.62-.549-.62zm-15.627 18.42a.939.939 0 0 1-.5-.149l-27.021-17.494a.921.921 0 0 1 1-1.546l27.021 17.495a.921.921 0 0 1-.5 1.694z" fill="#5D7183"/><path d="M201.507 45.641c-.26.236-.562.335-.822.24-.467-.165-.637-.885-.376-1.6l9.154-25.371c.261-.715.847-1.162 1.314-.997.467.166.637.885.377 1.6l-9.155 25.372a1.894 1.894 0 0 1-.492.756z" fill="#5D7183"/><path d="M200.893 50.568a4.55 4.55 0 1 0-1.452-8.984 4.55 4.55 0 0 0 1.452 8.984z" fill="#FFBE5D"/><path d="M246.63 45.96c-.119-19.326-12.349-36.825-30.612-43.33-18.164-6.468-39.193-.715-51.554 14.064-12.453 14.887-14.226 36.54-4.199 53.195 10.022 16.651 29.893 25.095 48.872 21.359 18.701-3.687 33.79-19.003 36.89-37.858.405-2.459.587-4.943.603-7.43.005-.918-2-.542-2.008.21-.116 18.429-11.469 35.436-28.836 41.966-17.668 6.641-38.06.793-49.929-13.746-11.746-14.383-13.399-35.175-4.005-51.211 9.551-16.305 28.844-24.955 47.363-20.954 20.499 4.426 35.283 23.07 35.411 43.945.004.918 2.009.538 2.004-.21zm-228.959 73.4c-6.513 14.329-11.63 33.559-3.996 48.446 4.178 8.15 11.886 13.101 20.974 13.911 10.209.914 20.648-2.922 29.352-7.997 5.013-2.922 9.324-6.559 13.626-10.423 2.707-2.434 5.993-5.117 9.87-4.918 3.24.165 6.005 2.632 6.2 5.906.036.611 2.04.211 1.995-.533-.252-4.261-4.389-6.646-8.332-6.46-4.72.219-8.522 3.145-11.87 6.199-8.315 7.588-17.882 13.726-28.992 16.276-10.8 2.475-22.322.066-28.938-9.37-4.865-6.931-5.993-15.758-5.357-24.02.732-9.436 3.559-18.693 7.46-27.282.265-.574-1.703-.367-1.992.265z" fill="#5D7183"/></svg>