<svg width="51" height="50" viewBox="0 0 51 50" fill="none" xmlns="http://www.w3.org/2000/svg">
<path d="M49.11 45.61C49.07 45.59 45.54 43.95 44.1 41.13C47.91 36.62 50 30.93 50 25C50 11.21 38.79 0 25 0C11.21 0 0 11.21 0 25C0 38.79 11.21 50 25 50C28.75 50 32.47 49.15 35.83 47.54C38.06 49.18 40.08 49.86 42.95 49.99C43.12 50 43.28 50 43.44 50C45.55 50 47.68 49.36 49.35 48.22C49.8 47.91 50.04 47.39 50 46.85C49.94 46.31 49.61 45.84 49.11 45.61ZM43.09 46.99C40.54 46.87 38.99 46.27 36.94 44.61C36.47 44.23 35.82 44.17 35.29 44.45C32.15 46.12 28.59 47 25 47C12.87 47 3 37.13 3 25C3 12.87 12.87 3 25 3C37.13 3 47 12.87 47 25C47 30.48 44.98 35.72 41.31 39.77C40.9 40.17 40.74 40.78 40.94 41.33C41.78 43.79 43.67 45.61 45.27 46.78C44.55 46.95 43.81 47.02 43.09 46.99Z" fill="#FDAF3C"/>
</svg>
