<svg width="50" height="50" viewBox="0 0 50 50" fill="none" xmlns="http://www.w3.org/2000/svg">
<path d="M25 11.75C17.69 11.75 11.75 17.69 11.75 25C11.75 32.31 17.69 38.25 25 38.25C32.31 38.25 38.25 32.31 38.25 25C38.25 17.69 32.31 11.75 25 11.75ZM25 35.25C19.35 35.25 14.75 30.65 14.75 25C14.75 19.35 19.35 14.75 25 14.75C30.65 14.75 35.25 19.35 35.25 25C35.25 30.65 30.65 35.25 25 35.25Z" fill="#FDAF3C"/>
<path d="M25 40.97C24.17 40.97 23.5 41.64 23.5 42.47V48.5C23.5 49.33 24.17 50 25 50C25.83 50 26.5 49.33 26.5 48.5V42.47C26.5 41.65 25.83 40.97 25 40.97Z" fill="#FDAF3C"/>
<path d="M25 9.03C25.83 9.03 26.5 8.36 26.5 7.53V1.5C26.5 0.67 25.83 0 25 0C24.17 0 23.5 0.67 23.5 1.5V7.53C23.5 8.35 24.17 9.03 25 9.03Z" fill="#FDAF3C"/>
<path d="M9.03 25C9.03 24.17 8.36 23.5 7.53 23.5H1.5C0.67 23.5 0 24.17 0 25C0 25.83 0.67 26.5 1.5 26.5H7.53C8.35 26.5 9.03 25.83 9.03 25Z" fill="#FDAF3C"/>
<path d="M48.5 23.5H42.47C41.64 23.5 40.97 24.17 40.97 25C40.97 25.83 41.64 26.5 42.47 26.5H48.5C49.33 26.5 50 25.83 50 25C50 24.17 49.33 23.5 48.5 23.5Z" fill="#FDAF3C"/>
<path d="M11.58 36.3001L7.32 40.5601C6.73 41.1501 6.73 42.1001 7.32 42.6801C7.61 42.9701 8 43.1201 8.38 43.1201C8.76 43.1201 9.15 42.9701 9.44 42.6801L13.7 38.4201C14.29 37.8301 14.29 36.8801 13.7 36.3001C13.11 35.7201 12.17 35.7101 11.58 36.3001Z" fill="#FDAF3C"/>
<path d="M37.36 14.1401C37.74 14.1401 38.13 13.9901 38.42 13.7001L42.68 9.4401C43.27 8.85011 43.27 7.90011 42.68 7.32011C42.09 6.74011 41.14 6.73011 40.56 7.32011L36.3 11.5801C35.71 12.1701 35.71 13.1201 36.3 13.7001C36.59 14.0001 36.97 14.1401 37.36 14.1401Z" fill="#FDAF3C"/>
<path d="M38.42 36.2999C37.84 35.7099 36.88 35.7099 36.3 36.2999C35.72 36.8899 35.71 37.8399 36.3 38.4199L40.56 42.6799C40.85 42.9699 41.24 43.1199 41.62 43.1199C42 43.1199 42.39 42.9699 42.68 42.6799C43.27 42.0899 43.27 41.1399 42.68 40.5599L38.42 36.2999Z" fill="#FDAF3C"/>
<path d="M11.58 13.6999C11.87 13.9899 12.26 14.1399 12.64 14.1399C13.02 14.1399 13.41 13.9999 13.7 13.6999C14.29 13.1099 14.29 12.1599 13.7 11.5799L9.43998 7.31994C8.84998 6.72994 7.89998 6.72994 7.31998 7.31994C6.73998 7.90994 6.72998 8.85994 7.31998 9.43994L11.58 13.6999Z" fill="#FDAF3C"/>
</svg>
