<?xml version="1.0" encoding="UTF-8"?>
<svg width="40px" height="40px" viewBox="0 0 40 40" version="1.1" xmlns="http://www.w3.org/2000/svg" xmlns:xlink="http://www.w3.org/1999/xlink">
    <!-- Generator: Sketch 55.1 (78136) - https://sketchapp.com -->
    <title>Group 4</title>
    <desc>Created with Sketch.</desc>
    <g id="Storytelling-Techniques-to-Communicate" stroke="none" stroke-width="1" fill="none" fill-rule="evenodd">
        <g id="How-Startups-v7" transform="translate(-270.000000, -1662.000000)">
            <g id="Group-4" transform="translate(270.000000, 1662.000000)">
                <polygon id="Fill-1" fill="#FFFFFF" points="0 40 40 40 40 0 0 0"></polygon>
                <path d="M13.775,14.375 C13.775,7.8125 19.1,2.5 25.65,2.5 C26.15,2.5 26.65,2.525 27.1375,2.5875 C28.1375,2.7125 28.825,3.4125 29.05,4.2375 C29.275,5.05 29.05,5.9625 28.4,6.6 L24.2625,10.70125 C22.9,12.0375 22.9,14.225 24.25,15.575 C25.5875,16.9125 27.7625,16.9125 29.1125,15.575 L33.375,11.3 C34.025,10.6625 34.9125,10.4375 35.7125,10.65 C36.525,10.86125 37.225,11.525 37.3875,12.5 C37.475,13.1125 37.525,13.7375 37.525,14.375 C37.525,20.9375 32.2125,26.25 25.65,26.25 C24.8125,26.25 23.9875,26.1625 23.2,26 L13.6,35.6 C11.0625,38.1375 6.9375,38.1375 4.4,35.6 C1.8625,33.0625 1.8625,28.9375 4.4,26.4 L14.025,16.7875 C13.8625,16 13.775,15.2 13.775,14.375 M25.65,5 C20.475,5 16.275,9.2 16.275,14.375 C16.275,15.225 16.4,16.0625 16.6125,16.85 L16.8,17.5375 L6.175,28.175 C4.6125,29.7375 4.6125,32.26375 6.175,33.82625 C7.7375,35.38875 10.2625,35.38875 11.825,33.82625 L22.4375,23.2125 L23.1375,23.4125 C23.9375,23.6375 24.7875,23.75 25.65,23.75 C30.8375,23.75 35.025,19.55 35.025,14.375 C35.025,14 35.0125,13.625 34.9625,13.25 L30.875,17.3375 C28.5625,19.6625 24.8,19.6625 22.475,17.3375 C20.15,15.0125 20.1625,11.2375 22.5,8.925 L26.4375,5.0375 C26.175,5.0125 25.9125,5 25.65,5" id="Fill-2" fill="#000000"></path>
            </g>
        </g>
    </g>
</svg>