<?xml version="1.0" encoding="UTF-8"?>
<svg width="234px" height="56px" viewBox="0 0 234 56" version="1.1" xmlns="http://www.w3.org/2000/svg" xmlns:xlink="http://www.w3.org/1999/xlink">
    <!-- Generator: Sketch 58 (84663) - https://sketch.com -->
    <title>Group 5</title>
    <desc>Created with Sketch.</desc>
    <g id="Contacts" stroke="none" stroke-width="1" fill="none" fill-rule="evenodd">
        <g id="feedback" transform="translate(-100.000000, -100.000000)" fill="#FFFFFF">
            <g id="Group-5" transform="translate(100.000000, 100.000000)">
                <path d="M88.268,19.548 L93.884,4.39 L96.562,4.39 L89.464,22.824 L86.942,22.824 L80,4.39 L82.704,4.39 L88.268,19.548 Z M101.762,22.824 L99.162,22.824 L99.162,4.39 L101.762,4.39 L101.762,22.824 Z M115.984,22.824 L111.772,15.284 L109.016,15.284 L109.016,22.824 L106.442,22.824 L106.442,4.39 L113.384,4.39 C116.868,4.39 119.026,6.834 119.026,9.876 C119.026,12.528 117.336,14.582 114.554,15.102 L118.948,22.824 L115.984,22.824 Z M109.016,12.996 L112.916,12.996 C114.996,12.996 116.4,11.774 116.4,9.876 C116.4,7.926 114.996,6.678 112.916,6.678 L109.016,6.678 L109.016,12.996 Z M135.328,6.756 L129.166,6.756 L129.166,22.824 L126.618,22.824 L126.618,6.756 L120.456,6.756 L120.456,4.39 L135.328,4.39 L135.328,6.756 Z M138.708,13.594 C138.708,18.404 141.932,20.874 145.364,20.874 C148.796,20.874 152.02,18.404 152.02,13.594 C152.02,8.784 148.796,6.34 145.364,6.34 C141.932,6.34 138.708,8.784 138.708,13.594 Z M136.108,13.594 C136.108,7.432 140.736,4 145.364,4 C149.992,4 154.62,7.432 154.62,13.594 C154.62,19.756 149.992,23.214 145.364,23.214 C140.736,23.214 136.108,19.756 136.108,13.594 Z M90.062,51.214 C85.304,51.214 80.91,47.756 80.91,41.594 C80.91,35.432 85.486,32 90.062,32 C94.274,32 97.238,34.288 98.174,37.85 L95.808,38.682 C95.106,35.9 93.078,34.34 90.062,34.34 C86.708,34.34 83.51,36.784 83.51,41.594 C83.51,46.404 86.708,48.874 90.062,48.874 C93.208,48.874 95.184,46.976 95.938,44.454 L98.2,45.286 C97.212,48.744 94.3,51.214 90.062,51.214 Z M102.75,41.594 C102.75,46.404 105.974,48.874 109.406,48.874 C112.838,48.874 116.062,46.404 116.062,41.594 C116.062,36.784 112.838,34.34 109.406,34.34 C105.974,34.34 102.75,36.784 102.75,41.594 Z M100.15,41.594 C100.15,35.432 104.778,32 109.406,32 C114.034,32 118.662,35.432 118.662,41.594 C118.662,47.756 114.034,51.214 109.406,51.214 C104.778,51.214 100.15,47.756 100.15,41.594 Z M142.088,50.824 L139.566,50.824 L139.566,36.472 L133.274,50.824 L130.934,50.824 L124.694,36.472 L124.694,50.824 L122.172,50.824 L122.172,32.39 L125.63,32.39 L132.13,47.392 L138.682,32.39 L142.088,32.39 L142.088,50.824 Z M166.684,50.824 L164.162,50.824 L164.162,36.472 L157.87,50.824 L155.53,50.824 L149.29,36.472 L149.29,50.824 L146.768,50.824 L146.768,32.39 L150.226,32.39 L156.726,47.392 L163.278,32.39 L166.684,32.39 L166.684,50.824 Z M182.57,50.824 L171.364,50.824 L171.364,32.39 L182.57,32.39 L182.57,34.756 L173.912,34.756 L173.912,40.424 L181.764,40.424 L181.764,42.816 L173.912,42.816 L173.912,48.458 L182.57,48.458 L182.57,50.824 Z M196.012,50.824 L191.8,43.284 L189.044,43.284 L189.044,50.824 L186.47,50.824 L186.47,32.39 L193.412,32.39 C196.896,32.39 199.054,34.834 199.054,37.876 C199.054,40.528 197.364,42.582 194.582,43.102 L198.976,50.824 L196.012,50.824 Z M189.044,40.996 L192.944,40.996 C195.024,40.996 196.428,39.774 196.428,37.876 C196.428,35.926 195.024,34.678 192.944,34.678 L189.044,34.678 L189.044,40.996 Z M210.416,51.214 C205.658,51.214 201.264,47.756 201.264,41.594 C201.264,35.432 205.84,32 210.416,32 C214.628,32 217.592,34.288 218.528,37.85 L216.162,38.682 C215.46,35.9 213.432,34.34 210.416,34.34 C207.062,34.34 203.864,36.784 203.864,41.594 C203.864,46.404 207.062,48.874 210.416,48.874 C213.562,48.874 215.538,46.976 216.292,44.454 L218.554,45.286 C217.566,48.744 214.654,51.214 210.416,51.214 Z M233.14,50.824 L221.934,50.824 L221.934,32.39 L233.14,32.39 L233.14,34.756 L224.482,34.756 L224.482,40.424 L232.334,40.424 L232.334,42.816 L224.482,42.816 L224.482,48.458 L233.14,48.458 L233.14,50.824 Z" id="VIRTOCOMMERCE" fill-rule="nonzero"></path>
                <g id="Group-2">
                    <polygon id="Fill-1" opacity="0.4" points="26.0001 0 12.9991 30 26.0001 30 39.0001 0"></polygon>
                    <polygon id="Fill-2" points="0 0 13 30 26 30 13 0"></polygon>
                    <path d="M60,32.9998 C60,35.7618 57.762,37.9998 55,37.9998 C52.238,37.9998 50,35.7618 50,32.9998 C50,30.2378 52.238,27.9998 55,27.9998 C57.762,27.9998 60,30.2378 60,32.9998" id="Fill-3" opacity="0.4"></path>
                    <path d="M45.4551,35.9891 L32.2001,35.9891 C33.6661,47.2781 43.3111,56.0001 55.0001,56.0001 L55.0001,43.0001 C50.5181,43.0001 46.7261,40.0511 45.4551,35.9891" id="Fill-5"></path>
                    <path d="M32.2012,29.9998 L45.4592,29.9998 C46.7332,25.9428 50.5222,22.9998 55.0002,22.9998 L55.0002,9.9998 C43.3142,9.9998 33.6722,18.7158 32.2012,29.9998" id="Fill-8"></path>
                </g>
            </g>
        </g>
    </g>
</svg>