<svg width="51" height="50" viewBox="0 0 51 50" fill="none" xmlns="http://www.w3.org/2000/svg"><path d="M49.11 45.61c-.04-.02-3.57-1.66-5.01-4.48C47.91 36.62 50 30.93 50 25 50 11.21 38.79 0 25 0S0 11.21 0 25s11.21 25 25 25c3.75 0 7.47-.85 10.83-2.46 2.23 1.64 4.25 2.32 7.12 2.45.17.01.33.01.49.01 2.11 0 4.24-.64 5.91-1.78.45-.31.69-.83.65-1.37-.06-.54-.39-1.01-.89-1.24zm-6.02 1.38c-2.55-.12-4.1-.72-6.15-2.38-.47-.38-1.12-.44-1.65-.16C32.15 46.12 28.59 47 25 47 12.87 47 3 37.13 3 25S12.87 3 25 3s22 9.87 22 22c0 5.48-2.02 10.72-5.69 14.77-.41.4-.57 1.01-.37 1.56.84 2.46 2.73 4.28 4.33 5.45-.72.17-1.46.24-2.18.21z" fill="#FDAF3C"/></svg>