<svg width="48" height="48" viewBox="0 0 48 48" xmlns="http://www.w3.org/2000/svg"><title>Group 9</title><g fill="none" fill-rule="evenodd"><circle fill-opacity=".249" fill="#F89406" cx="24" cy="24" r="24"/><path fill="#C3C3C3" d="M22.8 12l-5.4 12h5.4l5.4-12z"/><path fill="#DB3A35" d="M12 12l5.4 12h5.4l-5.4-12zm24 14.4a1.8 1.8 0 1 1-3.6 0 1.8 1.8 0 0 1 3.6 0"/><path d="M30.138 27.6H24.6c.66 4.714 4.713 8.354 9.6 8.354v-5.419a4.29 4.29 0 0 1-4.062-2.935m0-2.4c.568-1.712 2.173-2.951 4.062-2.951V16.8c-4.887 0-8.94 3.66-9.6 8.4h5.538z" fill="#F89406"/></g></svg>