<svg width="30" height="30" viewBox="0 0 30 30" xmlns="http://www.w3.org/2000/svg"><title>Group 12</title><g fill="none" fill-rule="evenodd"><path d="M15 0C6.7 0 0 6.7 0 15s6.7 15 15 15 15-6.7 15-15S23.3 0 15 0z" fill="#0C1015" fill-rule="nonzero"/><path d="M22.603 10.396a6.04 6.04 0 0 1-1.023.335 3.09 3.09 0 0 0 .841-1.303c.047-.143-.112-.266-.244-.19a5.99 5.99 0 0 1-1.565.628.423.423 0 0 1-.372-.09A3.251 3.251 0 0 0 18.125 9c-.337 0-.678.05-1.013.152a3.053 3.053 0 0 0-2.09 2.171 3.25 3.25 0 0 0-.075 1.145.11.11 0 0 1-.029.087.119.119 0 0 1-.088.04l-.012-.001a8.461 8.461 0 0 1-5.765-2.995.17.17 0 0 0-.274.021 3.043 3.043 0 0 0 .52 3.78 2.925 2.925 0 0 1-.73-.274c-.11-.06-.246.017-.248.14-.015 1.253.739 2.367 1.869 2.87h-.069a2.96 2.96 0 0 1-.538-.05c-.125-.023-.23.092-.191.21.367 1.113 1.353 1.934 2.533 2.12-.98.639-2.12.976-3.307.976h-.37a.244.244 0 0 0-.24.18.243.243 0 0 0 .122.271A8.968 8.968 0 0 0 12.54 21c1.356 0 2.625-.262 3.77-.778a8.3 8.3 0 0 0 2.76-2.01 8.766 8.766 0 0 0 1.689-2.75 8.483 8.483 0 0 0 .573-3.01v-.048c0-.16.074-.31.204-.412.492-.388.92-.845 1.272-1.357.093-.136-.053-.305-.206-.239" fill="#FFF"/></g></svg>