<svg width="50" height="50" viewBox="0 0 50 50" fill="none" xmlns="http://www.w3.org/2000/svg"><path d="M25 11.75c-7.31 0-13.25 5.94-13.25 13.25S17.69 38.25 25 38.25 38.25 32.31 38.25 25 32.31 11.75 25 11.75zm0 23.5c-5.65 0-10.25-4.6-10.25-10.25S19.35 14.75 25 14.75 35.25 19.35 35.25 25 30.65 35.25 25 35.25zm0 5.72c-.83 0-1.5.67-1.5 1.5v6.03c0 .83.67 1.5 1.5 1.5s1.5-.67 1.5-1.5v-6.03c0-.82-.67-1.5-1.5-1.5zm0-31.94c.83 0 1.5-.67 1.5-1.5V1.5C26.5.67 25.83 0 25 0s-1.5.67-1.5 1.5v6.03c0 .82.67 1.5 1.5 1.5zM9.03 25c0-.83-.67-1.5-1.5-1.5H1.5c-.83 0-1.5.67-1.5 1.5s.67 1.5 1.5 1.5h6.03c.82 0 1.5-.67 1.5-1.5zm39.47-1.5h-6.03c-.83 0-1.5.67-1.5 1.5s.67 1.5 1.5 1.5h6.03c.83 0 1.5-.67 1.5-1.5s-.67-1.5-1.5-1.5zM11.58 36.3l-4.26 4.26a1.49 1.49 0 0 0 0 2.12c.29.29.68.44 1.06.44s.77-.15 1.06-.44l4.26-4.26c.59-.59.59-1.54 0-2.12a1.5 1.5 0 0 0-2.12 0zm25.78-22.16c.38 0 .77-.15 1.06-.44l4.26-4.26c.59-.59.59-1.54 0-2.12-.59-.58-1.54-.59-2.12 0l-4.26 4.26a1.49 1.49 0 0 0 0 2.12c.29.3.67.44 1.06.44zm1.06 22.16a1.49 1.49 0 0 0-2.12 0c-.58.59-.59 1.54 0 2.12l4.26 4.26c.29.29.68.44 1.06.44s.77-.15 1.06-.44c.59-.59.59-1.54 0-2.12l-4.26-4.26zM11.58 13.7c.29.29.68.44 1.06.44s.77-.14 1.06-.44c.59-.59.59-1.54 0-2.12L9.44 7.32a1.49 1.49 0 0 0-2.12 0c-.58.59-.59 1.54 0 2.12l4.26 4.26z" fill="#FDAF3C"/></svg>