<svg width="50" height="50" viewBox="0 0 50 50" fill="none" xmlns="http://www.w3.org/2000/svg"><path d="M38.08 25.38c1.51-2.14 2.4-4.74 2.4-7.54 0-7.24-5.89-13.14-13.14-13.14-1.45 0-2.83.24-4.14.68C21.81 2.18 18.6 0 15.02 0c-4.93 0-8.93 4.01-8.93 8.93 0 1.7.48 3.28 1.31 4.63C2.85 16.25 0 21.13 0 26.5v.26c.01.67.46 1.25 1.1 1.43 3.09.86 6.34 1.42 9.7 1.67-3.85 4.12-6.11 9.6-6.11 15.47v.4c.01.66.46 1.24 1.1 1.42C12.57 49.04 19.82 50 27.34 50c7.52 0 14.78-.96 21.56-2.85.64-.18 1.09-.76 1.1-1.42v-.4c0-8.39-4.62-16.02-11.92-19.95zm-.6-7.54c0 5.59-4.55 10.14-10.14 10.14-5.59 0-10.14-4.55-10.14-10.14 0-5.59 4.55-10.14 10.14-10.14 5.59 0 10.14 4.55 10.14 10.14zM15.02 3c2.41 0 4.57 1.49 5.47 3.65a13.18 13.18 0 0 0-5.93 8.2 5.934 5.934 0 0 1-5.48-5.91C9.08 5.66 11.75 3 15.02 3zM9.4 15.87a8.885 8.885 0 0 0 4.8 1.95v.01c0 2.81.89 5.41 2.4 7.54-.91.49-1.78 1.03-2.6 1.62-3.81-.07-7.5-.54-10.98-1.41.32-4.11 2.73-7.77 6.38-9.71zM27.34 47c-6.84 0-13.44-.82-19.64-2.44.28-7.22 4.5-13.69 10.98-16.87 2.31 2.04 5.34 3.28 8.66 3.28 3.32 0 6.34-1.25 8.66-3.28 6.48 3.18 10.7 9.65 10.98 16.87C40.79 46.18 34.19 47 27.34 47z" fill="#FDAF3C"/></svg>