<svg width="42" height="40" viewBox="0 0 42 40" xmlns="http://www.w3.org/2000/svg"><title>LinkedIn 2</title><path d="M42 24.524V40h-9.002V25.56c0-3.627-1.302-6.102-4.56-6.102-2.488 0-3.968 1.668-4.62 3.282-.237.577-.298 1.38-.298 2.187V40h-9.005s.121-24.456 0-26.99h9.004v3.826c-.018.029-.042.06-.059.087h.06v-.087c1.196-1.836 3.332-4.46 8.114-4.46C37.559 12.376 42 16.234 42 24.524zM5.096 0C2.015 0 0 2.014 0 4.662c0 2.59 1.957 4.666 4.976 4.666h.06c3.14 0 5.093-2.075 5.093-4.666C10.07 2.014 8.176 0 5.096 0zM.535 40h9.001V13.01H.535V40z" fill="#0089CB"/></svg>