<?xml version="1.0" encoding="UTF-8"?>
<svg width="145px" height="20px" viewBox="0 0 145 20" version="1.1" xmlns="http://www.w3.org/2000/svg" xmlns:xlink="http://www.w3.org/1999/xlink">
    <!-- Generator: Sketch 52.6 (67491) - http://www.bohemiancoding.com/sketch -->
    <title>Group 28</title>
    <desc>Created with Sketch.</desc>
    <g id="Page-2" stroke="none" stroke-width="1" fill="none" fill-rule="evenodd">
        <g id="Index-page" transform="translate(-1002.000000, -1192.000000)" fill="#72778E">
            <g id="Group-28" transform="translate(1002.000000, 1192.000000)">
                <polygon id="polygon12" points="6.39488462e-14 0.850990991 6.39488462e-14 3.48288288 4.31693694 3.48288288 12.765045 19.3263063 23.1609009 19.3263063 31.609009 3.45657658 35.9252252 3.42936937 35.9345946 0.850990991 23.02 0.850990991 23.02 3.43837838 26.4592793 3.43837838 20.4936937 14.7018018 14.041982 3.47765766 18.7477477 3.45657658 18.7394595 0.850990991"></polygon>
                <polygon id="polygon14" points="83.3162162 0.850990991 83.3162162 3.48288288 87.6318919 3.48288288 96.0801802 19.3263063 106.476396 19.3263063 114.924505 3.45657658 119.241261 3.42936937 119.249009 0.850990991 106.336757 0.850990991 106.336757 3.43837838 109.774595 3.43837838 103.809189 14.7018018 97.3567568 3.47765766 102.063964 3.45657658 102.055135 0.850990991"></polygon>
                <path d="M62.0747748,0.850990991 L62.0747748,3.48288288 L66.390991,3.48288288 L66.3981982,16.4176577 L61.8477477,16.4176577 L61.8477477,19.3007207 L66.4012613,19.3264865 L87.952973,19.3264865 L87.952973,10.7264865 L85.1455856,10.7264865 C84.9917117,15.2798198 81.0418018,16.4237838 79.378018,16.4237838 C77.8535135,16.4237838 74.8996396,16.4178378 74.8996396,16.4178378 L74.8996396,3.47765766 L79.150991,3.4563964 L79.1452252,0.850810811 L62.0747748,0.850810811 L62.0747748,0.850990991 Z" id="path16"></path>
                <path d="M47.3527928,16.9603604 C44.7663063,16.9603604 42.6706306,13.8621622 42.6706306,10.0383784 C42.6706306,6.21369369 44.7663063,3.11315315 47.3527928,3.11315315 C49.9385586,3.11315315 52.034955,6.21369369 52.034955,10.0383784 C52.034955,13.8621622 49.9385586,16.9603604 47.3527928,16.9603604 Z M47.5430631,0.32018018 C40.2061261,0.32018018 34.2585586,4.68900901 34.2585586,10.076036 C34.2585586,15.4634234 40.2059459,19.8317117 47.5430631,19.8317117 C54.8794595,19.8317117 60.8279279,15.4634234 60.8279279,10.076036 C60.8279279,4.68900901 54.8794595,0.32018018 47.5430631,0.32018018 Z" id="path18"></path>
                <path d="M130.669369,16.9111712 C128.083784,16.9111712 125.988288,13.7616216 125.988288,9.87459459 C125.988288,5.98900901 128.083964,2.83873874 130.669369,2.83873874 C133.255315,2.83873874 135.35045,5.98900901 135.35045,9.87459459 C135.350631,13.7614414 133.255315,16.9111712 130.669369,16.9111712 Z M130.860541,1.08357767e-13 C123.521982,1.08357767e-13 117.576216,4.44 117.576216,9.91495495 C117.576216,15.3897297 123.521802,19.8288288 130.860541,19.8288288 C138.196396,19.8288288 144.144144,15.3897297 144.144144,9.91495495 C144.144144,4.44 138.196396,1.08357767e-13 130.860541,1.08357767e-13 Z" id="path20"></path>
            </g>
        </g>
    </g>
</svg>