<svg width="195" height="50" viewBox="0 0 195 50" xmlns="http://www.w3.org/2000/svg"><title>AngularJS_logo</title><g fill="none" fill-rule="evenodd"><path fill="#CCC" d="M52.657 16.304l12.24 16.111V16.304h2.446v20h-2.587L52.518 20.051v16.253H50.07v-20zM87.203 35.52c-1.613.617-3.352.924-5.217.924-7.244 0-10.867-3.473-10.867-10.42 0-6.573 3.496-9.86 10.488-9.86 2.007 0 3.872.28 5.596.84v2.238a14.896 14.896 0 0 0-5.316-.98c-5.454 0-8.18 2.588-8.18 7.762 0 5.548 2.684 8.323 8.056 8.323.857 0 1.808-.113 2.853-.337v-6.797h2.587v8.308zm4.127-6.936v-12.28h2.585v12.28c0 3.84 1.912 5.764 5.735 5.764 3.823 0 5.735-1.923 5.735-5.765V16.305h2.587v12.278c0 5.242-2.774 7.862-8.322 7.862-5.547 0-8.32-2.62-8.32-7.861zm34.308 5.623v2.097h-13.05v-20h2.586v17.903zm10.992-20.541l9.943 22.639h-2.866l-2.588-6.295h-6.614l.713-2.096h5.035l-3.735-9.064-7.147 17.455h-2.685zm12.671 22.638v-20h8.532c3.805 0 5.707 1.6 5.707 4.797 0 2.602-1.86 4.528-5.58 5.776l6.866 9.427h-3.412l-6.363-8.993v-1.69c3.822-.608 5.733-2.077 5.733-4.407 0-1.845-1.063-2.77-3.187-2.77h-5.708v17.86H149.3zm25.219-20v14.238c0 3.841-2.262 5.762-6.785 5.762v-2.098c2.797 0 4.197-1.223 4.197-3.664V16.304h2.587zm4.615 19.301v-2.378c2.098.745 4.363 1.12 6.797 1.12 3.44 0 5.162-1.26 5.162-3.779 0-2.141-1.27-3.216-3.805-3.216h-2.575c-4.185 0-6.28-1.817-6.28-5.454 0-3.822 2.682-5.735 8.045-5.735 2.33 0 4.498.282 6.503.84v2.378c-2.006-.747-4.173-1.12-6.503-1.12-3.637 0-5.455 1.213-5.455 3.637 0 2.144 1.23 3.216 3.69 3.216h2.575c4.26 0 6.392 1.82 6.392 5.454 0 3.918-2.583 5.876-7.75 5.876-2.433 0-4.698-.28-6.796-.84z"/><path fill="#000" d="M53.312 15.65l12.237 16.112V15.65h2.448v20H65.41L53.171 19.398v16.254h-2.446v-20zm34.545 19.217c-1.612.617-3.351.923-5.216.923-7.245 0-10.868-3.472-10.868-10.42 0-6.573 3.497-9.86 10.49-9.86 2.005 0 3.87.28 5.594.84v2.238a14.894 14.894 0 0 0-5.314-.98c-5.454 0-8.18 2.588-8.18 7.762 0 5.548 2.684 8.323 8.055 8.323.857 0 1.809-.112 2.854-.337V26.56h2.586v8.308zm4.126-6.937V15.65h2.586v12.28c0 3.84 1.912 5.762 5.736 5.762 3.822 0 5.734-1.922 5.734-5.763V15.65h2.587v12.28c0 5.242-2.774 7.86-8.321 7.86-5.548 0-8.322-2.617-8.322-7.86zm34.308 5.622v2.097h-13.048v-20h2.586v17.903zm10.993-20.542l9.944 22.64h-2.868l-2.587-6.294h-6.615l.715-2.097h5.033l-3.733-9.065-7.148 17.456h-2.685zm12.672 22.64v-20h8.531c3.805 0 5.705 1.599 5.705 4.797 0 2.601-1.858 4.528-5.578 5.776l6.867 9.428h-3.414l-6.362-8.993v-1.693c3.822-.608 5.734-2.075 5.734-4.406 0-1.846-1.064-2.769-3.19-2.769h-5.706v17.86h-2.587z"/><path d="M175.174 15.65v14.238c0 3.842-2.262 5.761-6.784 5.761v-2.097c2.797 0 4.196-1.223 4.196-3.664V15.649h2.588zm4.614 19.3v-2.377c2.099.745 4.364 1.12 6.798 1.12 3.44 0 5.161-1.26 5.161-3.778 0-2.142-1.269-3.216-3.805-3.216h-2.574c-4.186 0-6.28-1.818-6.28-5.455 0-3.823 2.68-5.736 8.044-5.736 2.33 0 4.498.282 6.504.841v2.378c-2.007-.747-4.174-1.12-6.504-1.12-3.637 0-5.455 1.213-5.455 3.637 0 2.144 1.23 3.216 3.69 3.216h2.575c4.26 0 6.392 1.819 6.392 5.455 0 3.917-2.582 5.875-7.749 5.875-2.433 0-4.698-.281-6.797-.84z" fill="#A6120D"/><path fill="#B3B3B3" d="M3.848 39.07L23.54 49.895l19.793-10.97 3.69-30.602L23.515.247.156 8.467z"/><path fill="#A6120D" d="M23.46 47.308l17.795-9.848 3.438-27.37L23.46 2.85z"/><path fill="#DD1B16" d="M23.46 47.308V2.85L2.778 10.221l3.163 27.37z"/><path d="M29.305 26.517L23.46 29.25H17.3l-2.895 7.243-5.387.1L23.46 4.464l5.845 22.053zm-.565-1.376L23.5 14.766l-4.3 10.197h4.26l5.28.178z" fill="#F2F2F2" fill-rule="nonzero"/><path fill="#B3B3B3" d="M28.377 24.97H23.47l-.01 4.274 6.783.006 3.17 7.344 5.154.096L23.46 4.464l.039 10.302z"/></g></svg>