<svg width="173" height="50" viewBox="0 0 173 50" xmlns="http://www.w3.org/2000/svg"><title>microsoft-azure-seeklogo.com</title><g fill="#035BDA" fill-rule="evenodd"><path d="M39.748 7.529l-9.47 19.073L46.95 45.926l-30.944 3.513 48.017.502zM37.88 0L16.14 18.195 0 45.424l13.738-1.38z"/><path d="M82.172 19.257L71.774 44.756h3.535l2.704-7.148h11.495l2.874 7.148h3.516l-10.436-25.5h-3.29zm1.55 3.094h.076c.139.782.277 1.351.416 1.707l4.254 10.865H79.07l4.217-10.865c.164-.415.309-.984.435-1.707zm80.405 3.77c-2.534 0-4.657.895-6.371 2.685-1.702 1.778-2.553 4.084-2.553 6.917 0 3 .782 5.328 2.345 6.988 1.563 1.648 3.711 2.472 6.447 2.472 2.798 0 5.048-.58 6.75-1.743v-2.738c-1.828 1.351-3.832 2.027-6.013 2.027-1.94 0-3.466-.551-4.575-1.654-1.11-1.102-1.69-2.667-1.74-4.694h13.67v-1.53c0-2.738-.693-4.877-2.08-6.418-1.386-1.542-3.347-2.312-5.88-2.312zm-13.853.107c-1.121 0-2.136.361-3.043 1.084-.908.712-1.582 1.707-2.023 2.987h-.076v-3.752h-3.1v18.209h3.1v-9.282c0-2.027.441-3.627 1.324-4.801.895-1.174 2.004-1.76 3.327-1.76 1.021 0 1.803.195 2.345.586v-3.023c-.429-.166-1.047-.248-1.854-.248zm-51.224.32v2.489h10.38L97.972 43.849v.907h15.9v-2.49H102.53l11.457-14.883v-.836H99.05zm19.6 0V37.43c0 5.169 2.307 7.753 6.92 7.753 2.697 0 4.689-1.103 5.974-3.308h.076v2.881h3.1V26.547h-3.1V37.04c0 1.695-.492 3.07-1.475 4.125-.97 1.043-2.212 1.565-3.724 1.565-3.126 0-4.69-1.92-4.69-5.761v-10.42h-3.081zm45.42 2.027c1.513 0 2.692.468 3.536 1.404.857.937 1.292 2.247 1.304 3.93h-10.455c.24-1.589.87-2.875 1.89-3.859 1.022-.984 2.263-1.475 3.725-1.475z" fill-rule="nonzero"/></g></svg>