<svg width="141" height="130" viewBox="0 0 141 130" xmlns="http://www.w3.org/2000/svg"><title>shutterstock_1259096683</title><g fill="none" fill-rule="evenodd"><path d="M70.548 130h-2.693c-2.884 0-5.222-2.374-5.222-5.304v-24.528c0-2.929 2.338-5.303 5.222-5.303h2.693c2.884 0 5.222 2.374 5.222 5.303v24.528c0 2.93-2.338 5.304-5.222 5.304" fill="#FFF7BF"/><path d="M75.604 122.78c-.085 3.45-2.513 7.007-5.957 6.295-3.017-.624-5.016-3.588-5.096-6.858-.008-.31-1.931 0-1.918.563.11 4.43 3.58 7.56 7.555 7.19 3.87-.36 7.224-3.32 7.333-7.753.007-.276-1.902-.02-1.917.563" fill="#71768E"/><path d="M115.888 87.126C108.492 56.44 109.064 16.69 69.64 16.69c-39.733 0-38.853 39.75-46.249 70.437-3.35 13.898-12.428 14.903-12.428 22.798 0 6.236 29.052 11.292 58.677 11.292s58.677-5.056 58.677-11.292c0-7.895-9.078-8.9-12.428-22.798" fill="#FFE07B"/><path d="M70.548 36.014h-2.693c-2.884 0-5.222-2.375-5.222-5.304V6.182c0-2.93 2.338-5.304 5.222-5.304h2.693c2.884 0 5.222 2.375 5.222 5.304V30.71c0 2.929-2.338 5.304-5.222 5.304" fill="#FFEEA4"/><path d="M108.874 87.704c-2.572-10.512-3.764-21.193-5.953-31.804-1.667-8.086-3.903-16.358-8.433-23.349-6.969-10.755-18.66-14.983-31.06-14.983-17.027 0-28.478 16.548-31.967 30.348-2.025 8.007-2.93 16.461-4.776 24.484-1.674 7.28-3.066 15.576-6.509 21.953-2.328 4.312-11.344 10.314-8.75 15.278 1.099 2.101 5.441 2.71 7.433 3.19 4.557 1.098 9.216 1.795 13.856 2.425 13.587 1.845 27.32 2.876 41.032 2.294 12.866-.545 26.094-2.05 37.936-7.477 7.958-3.648.06-12.138-1.5-17.469a113.16 113.16 0 0 1-1.309-4.89" fill="#FFEEA4"/><path d="M62.827 101.635c-5.442-.435-10.434-2.14-14.164-6.496-5.068-5.92-5.25-14.684-3.963-21.996.763-4.338 2.25-8.506 3.957-12.556 1.476-3.502 3.791-7.208 3.45-11.161-.171-1.981-1.396-4.005-3.329-4.508-1.465-.38-3.051.18-4.225 1.13-4.491 3.64-6.771 11.408-8.367 16.715a65.803 65.803 0 0 0-2.78 17.614c-.078 3.944-.968 8.097-2.771 11.717-1.946 3.906-5.474 6.042-7.761 9.556-3.151 4.842 8.765 6.31 11.322 6.82 9.036 1.809 18.017 2.09 27.193 2.2 2.436.029 5.045.009 7.06-1.354 2.464-1.667 2.976-5.235.145-6.758-1.207-.65-2.622-.782-3.993-.826a37.44 37.44 0 0 1-1.774-.097" fill="#FFF7BF"/><path d="M109.843 58.682c1.535 7.034 2.736 14.134 4.182 21.185 1.152 5.616 2.227 11.297 5.414 16.165 1.99 3.04 4.77 5.39 6.871 8.326 1.249 1.745 2.811 5.029 1.085 6.927-2.04 2.243-5.798 3.137-8.584 3.913-5.162 1.436-10.478 2.318-15.783 3.023-13.624 1.812-27.448 2.333-41.179 1.893-12.498-.4-25.275-1.37-37.46-4.333-3.45-.84-7.269-1.772-10.263-3.775-.782-.523-1.668-1.203-1.961-2.142-.366-1.174.073-2.711.516-3.805 1.258-3.104 4.144-5.363 6.211-7.907 3.138-3.86 4.914-8.253 6.034-13.071 2.105-9.055 3.476-18.261 5.464-27.34 1.878-8.58 4.237-17.391 8.921-24.913 4.535-7.282 11.267-12.487 19.644-14.517 1.453-.352 2.93-.59 4.4-.856.342-.062 1.127-.246 1.127-.72v-5.872c0-2.075-.32-4.546.513-6.5 1.77-4.157 6.939-4.349 9.497-.825 1.464 2.016 1.206 4.477 1.206 6.823v6.83a.271.271 0 0 0 .187.167l7.213 1.722c.436.105.985.037 1.37-.212.163-.106.674-.532.2-.645l-3.982-.952-2.24-.535c-.27-.064-.547-.117-.814-.194-.32-.092.032.178.012.047-.195-1.25 0-2.684 0-3.947v-5.1c0-1.717-.287-3.303-1.333-4.723C74.956.982 72.747-.01 70.488 0c-4.436.021-7.935 3.296-7.952 7.745-.012 3.17 0 6.342 0 9.512l1.128-.719c-3.902.705-7.728 1.519-11.365 3.159a32.557 32.557 0 0 0-10.273 7.29c-6.024 6.36-9.325 14.817-11.633 23.137-2.597 9.367-4.057 19.001-5.96 28.521-1.006 5.034-1.864 10.312-4.247 14.91-1.915 3.696-4.865 6.416-7.452 9.597-.969 1.191-1.831 2.511-2.267 3.998-.31 1.064-.612 2.492-.122 3.55 1.08 2.332 4.492 3.468 6.694 4.253 4.67 1.664 9.606 2.627 14.485 3.43 6.506 1.07 13.075 1.75 19.65 2.198 14.476.988 29.04.833 43.485-.532 6.147-.582 12.29-1.374 18.341-2.617 4.214-.865 8.522-1.865 12.437-3.698 1.802-.843 4.536-2.198 4.626-4.505.127-3.297-2.044-5.916-4.13-8.202-3.107-3.405-5.822-6.86-7.402-11.26-1.15-3.203-1.772-6.61-2.46-9.935-.746-3.603-1.42-7.22-2.107-10.834-.688-3.62-1.39-7.238-2.175-10.838-.122-.556-2.076-.074-1.946.522m-93.44-21.714c.137-10.314 6.781-19.502 16.608-22.365 1.172-.342.82-1.717-.363-1.372-10.515 3.063-18.035 12.71-18.183 23.873-.013 1.034 1.926.767 1.938-.136M2.407 40.535C2.585 22.372 15.041 5.874 32.97.905c1.149-.318.94-1.155-.227-.832C18.555 4.005 6.969 14.582 2.484 28.405 1.156 32.5.495 36.756.453 41.048c-.005.49 1.948.167 1.954-.513" fill="#71768E"/><path d="M140.577 28.987c0-15.524-12.547-28.109-28.025-28.109-15.477 0-28.024 12.585-28.024 28.109 0 15.523 12.547 28.108 28.024 28.108 15.478 0 28.025-12.585 28.025-28.108" fill="#FB7861"/><path d="M111.1 40.005V22.953c-3.086 2.436-5.163 3.654-6.232 3.654-.51 0-.962-.21-1.357-.628-.395-.418-.592-.902-.592-1.452 0-.637.194-1.106.583-1.406.389-.3 1.075-.687 2.059-1.162 1.47-.711 2.644-1.461 3.525-2.248a15.21 15.21 0 0 0 2.342-2.642c.68-.975 1.123-1.574 1.33-1.8.206-.224.595-.337 1.166-.337.643 0 1.16.257 1.548.769.39.512.583 1.218.583 2.117v21.456c0 2.511-.831 3.767-2.496 3.767-.74 0-1.336-.257-1.785-.769-.45-.512-.674-1.267-.674-2.267" fill="#FFF"/><path d="M56.6 69.352c3.365 3.007 8.677 4.454 13.346 4.432 4.649-.023 9.987-1.294 13.496-4.152.842-.686-1.087-.718-1.582-.314-6.119 4.986-17.644 4.527-23.44-.656-.499-.445-2.361.205-1.82.69" fill="#71768E"/><path d="M54.75 67.6c.022 1.94-.941 3.53-2.15 3.548-1.209.02-2.206-1.538-2.227-3.479-.021-1.94.941-3.528 2.15-3.547 1.21-.02 2.207 1.538 2.228 3.479m35.031-1.757c.021 1.94-.942 3.529-2.151 3.548-1.21.019-2.206-1.539-2.227-3.48-.022-1.94.942-3.528 2.15-3.547 1.21-.019 2.207 1.539 2.228 3.479" fill="#FF9A88"/><path d="M81.141 62.591c.026-.519.14-.999.408-1.432.434-.704.825-.805 1.523-.42.864.477 1.288 1.381 1.338 2.392.015.294 1.894-.025 1.869-.54-.219-4.376-6.811-3.362-7.006.54-.012.23 1.84.017 1.868-.54m-24.521-.036c.06-1.16.824-2.448 2.052-1.723.79.467 1.17 1.33 1.217 2.248.02.382 1.897.047 1.868-.525-.22-4.298-6.807-3.345-7.006.525-.016.323 1.837.08 1.869-.525" fill="#71768E"/></g></svg>