<svg width="146" height="50" viewBox="0 0 146 50" xmlns="http://www.w3.org/2000/svg"><title>elastic-logo</title><g fill="none" fill-rule="evenodd"><path d="M50.127 26.229a9.86 9.86 0 0 0-6.525-9.301c.17-.89.254-1.78.254-2.69C43.856 6.418 37.5.063 29.703.063A14.135 14.135 0 0 0 18.22 5.932a7.523 7.523 0 0 0-12.119 5.953c0 .912.17 1.801.467 2.628C2.669 15.91 0 19.66 0 23.835a9.886 9.886 0 0 0 6.547 9.322c-.17.868-.255 1.78-.255 2.69 0 7.797 6.335 14.132 14.132 14.132a14.09 14.09 0 0 0 11.462-5.89 7.404 7.404 0 0 0 4.597 1.61 7.523 7.523 0 0 0 7.521-7.521c0-.911-.17-1.8-.466-2.627 3.898-1.398 6.59-5.148 6.59-9.322" fill="#FFF"/><path d="M19.703 21.568l10.975 5 11.06-9.704c.169-.805.232-1.589.232-2.436 0-6.822-5.55-12.373-12.373-12.373a12.334 12.334 0 0 0-10.19 5.381l-1.843 9.556 2.14 4.576z" fill="#FED10A"/><path d="M8.347 33.178a12.027 12.027 0 0 0-.233 2.479c0 6.843 5.572 12.394 12.416 12.394 4.11 0 7.945-2.034 10.254-5.424l1.822-9.513-2.437-4.66-11.016-5.022-10.806 9.746z" fill="#24BBB1"/><path d="M8.284 14.195l7.521 1.78 1.653-8.539a5.9 5.9 0 0 0-3.602-1.207 5.936 5.936 0 0 0-5.572 7.966" fill="#EF5098"/><path d="M7.627 15.996c-3.347 1.101-5.699 4.322-5.699 7.86a8.313 8.313 0 0 0 5.339 7.754l10.55-9.534-1.927-4.131-8.263-1.95z" fill="#17A8E0"/><path d="M32.69 42.627c1.039.784 2.289 1.229 3.581 1.229a5.936 5.936 0 0 0 5.932-5.932c0-.72-.127-1.42-.36-2.055l-7.5-1.759-1.652 8.517z" fill="#93C83E"/><path d="M34.216 32.14l8.263 1.928c3.368-1.102 5.699-4.322 5.699-7.882a8.285 8.285 0 0 0-5.339-7.733l-10.805 9.47 2.182 4.217z" fill="#0779A1"/><path d="M70.085 35.127l.996-.106.063 2.034c-2.627.36-4.873.55-6.737.55-2.479 0-4.238-.72-5.276-2.16-1.038-1.44-1.546-3.687-1.546-6.716 0-6.06 2.415-9.09 7.224-9.09 2.33 0 4.068.658 5.212 1.95 1.144 1.292 1.716 3.347 1.716 6.123l-.148 1.97H60.191c0 1.907.339 3.326 1.038 4.237.699.912 1.885 1.378 3.602 1.378a48.719 48.719 0 0 0 5.254-.17zm-.932-7.479c0-2.118-.34-3.623-1.017-4.491-.678-.869-1.78-1.314-3.305-1.314-1.526 0-2.691.466-3.454 1.377-.763.911-1.165 2.394-1.186 4.428h8.962z" fill="#000" fill-rule="nonzero"/><path fill="#000" d="M75.339 37.288V12.5h2.585v24.788z"/><path d="M94.258 25.233v8.496c0 .868 2.14 1.038 2.14 1.038l-.127 2.288c-1.822 0-3.326.148-4.237-.72a15.186 15.186 0 0 1-6.208 1.292c-1.589 0-2.796-.445-3.623-1.356-.826-.89-1.25-2.182-1.25-3.877 0-1.674.424-2.924 1.272-3.708.847-.783 2.182-1.292 4.004-1.461l5.424-.509v-1.483c0-1.165-.255-2.013-.763-2.521-.509-.509-1.208-.763-2.076-.763h-6.801v-2.288h6.631c1.95 0 3.369.445 4.259 1.356.91.89 1.355 2.31 1.355 4.216zm-10.635 7.034c0 2.119.869 3.178 2.627 3.178a13.83 13.83 0 0 0 4.619-.784l.784-.275v-5.7l-5.106.488c-1.039.084-1.78.381-2.246.89-.466.508-.678 1.25-.678 2.203z" fill="#000" fill-rule="nonzero"/><path d="M104.364 21.97c-2.5 0-3.77.869-3.77 2.627 0 .806.296 1.378.868 1.717.572.339 1.885.678 3.94 1.038 2.056.36 3.496.847 4.344 1.504.847.636 1.27 1.843 1.27 3.623 0 1.78-.571 3.072-1.715 3.898-1.144.826-2.797 1.25-5 1.25-1.42 0-6.187-.53-6.187-.53l.149-2.245c2.733.254 4.724.466 6.059.466s2.352-.212 3.05-.636c.7-.424 1.06-1.144 1.06-2.14 0-.995-.296-1.673-.89-2.034-.593-.36-1.906-.699-3.94-1.016-2.034-.318-3.475-.784-4.322-1.42-.848-.614-1.272-1.78-1.272-3.453 0-1.674.594-2.924 1.78-3.73 1.187-.804 2.67-1.207 4.428-1.207 1.398 0 6.271.36 6.271.36v2.267c-2.563-.148-4.66-.339-6.123-.339zm19.153.297h-5.487v8.263c0 1.97.148 3.284.423 3.898.297.614.975.932 2.055.932l3.073-.212.169 2.14c-1.547.254-2.712.381-3.517.381-1.8 0-3.03-.444-3.729-1.313-.699-.869-1.038-2.542-1.038-5v-9.09h-2.458v-2.245h2.458v-5.296h2.564V20h5.487v2.267z" fill="#000"/><path d="M127.119 16.102v-2.988h2.584v3.009l-2.584-.021zm0 21.186V20.021h2.584v17.267h-2.584z" fill="#000" fill-rule="nonzero"/><path d="M140.932 19.661c.763 0 2.055.148 3.877.424l.827.106-.106 2.097c-1.844-.212-3.2-.318-4.068-.318-1.95 0-3.284.466-3.983 1.399-.7.932-1.06 2.67-1.06 5.19 0 2.522.318 4.28.975 5.276.657.996 2.013 1.483 4.09 1.483L145.55 35l.106 2.14c-2.14.318-3.75.487-4.81.487-2.69 0-4.555-.699-5.572-2.076-1.017-1.377-1.546-3.708-1.546-6.992s.55-5.593 1.652-6.906c1.123-1.314 2.966-1.992 5.551-1.992z" fill="#000"/></g></svg>