<svg width="212" height="258" viewBox="0 0 212 258" xmlns="http://www.w3.org/2000/svg" xmlns:xlink="http://www.w3.org/1999/xlink"><title>Group 49</title><defs><path id="a" d="M0 0h280v346H0z"/></defs><g transform="translate(-5 -40)" fill="none" fill-rule="evenodd"><mask id="b" fill="#fff"><use xlink:href="#a"/></mask><g mask="url(#b)"><path d="M13 70.472a3.534 3.534 0 0 0-3.53 3.53A3.535 3.535 0 0 0 13 77.53a3.535 3.535 0 0 0 3.53-3.529 3.534 3.534 0 0 0-3.53-3.53M13 82c-4.411 0-8-3.588-8-7.999C5 69.588 8.589 66 13 66s8 3.588 8 8.001C21 78.411 17.411 82 13 82m40.001 164.473A3.535 3.535 0 0 0 49.47 250a3.536 3.536 0 0 0 3.53 3.53 3.534 3.534 0 0 0 3.53-3.53 3.534 3.534 0 0 0-3.53-3.527M53 258c-4.41 0-8.001-3.589-8.001-8s3.59-8 8.001-8c4.41 0 7.999 3.589 7.999 8s-3.588 8-7.999 8" fill="#9FC3FD"/><g fill="#C9D7ED"><path d="M98.263 224.687a2.598 2.598 0 0 1-2.434-3.502l8.383-22.497a2.597 2.597 0 1 1 4.868 1.811l-8.383 22.498a2.598 2.598 0 0 1-2.434 1.69"/><path d="M113.704 217.63c-.301 0-.607-.051-.906-.163l-22.497-8.383a2.598 2.598 0 0 1 1.811-4.867l22.498 8.383a2.598 2.598 0 0 1-.906 5.03"/></g><path d="M153 287.58a2.423 2.423 0 0 0-2.42 2.42 2.425 2.425 0 0 0 2.42 2.42 2.425 2.425 0 0 0 2.42-2.42 2.423 2.423 0 0 0-2.42-2.42m0 10.42c-4.412 0-8-3.59-8-8 0-4.412 3.588-8 8-8s8 3.588 8 8c0 4.41-3.588 8-8 8" fill="#C9D7ED"/><path d="M205.102 45.773l1.672 6.124 6.125-1.672-1.673-6.125-6.124 1.673zM205.483 56a1.84 1.84 0 0 1-1.775-1.356l-2.642-9.676a1.84 1.84 0 0 1 .175-1.398 1.851 1.851 0 0 1 1.114-.863l9.676-2.642a1.84 1.84 0 0 1 2.261 1.291l2.642 9.674c.13.47.065.974-.174 1.398a1.85 1.85 0 0 1-1.117.863l-9.674 2.644a1.916 1.916 0 0 1-.486.065zM155.5 135.044a2.46 2.46 0 0 0-2.456 2.455 2.46 2.46 0 0 0 2.456 2.455 2.46 2.46 0 0 0 2.456-2.455 2.46 2.46 0 0 0-2.456-2.455m0 8.956a6.508 6.508 0 0 1-6.5-6.501 6.506 6.506 0 0 1 6.5-6.499c3.585 0 6.5 2.915 6.5 6.499a6.508 6.508 0 0 1-6.5 6.501" fill="#9FC3FD"/></g></g></svg>