<svg width="119" height="30" viewBox="0 0 119 30" fill="none" xmlns="http://www.w3.org/2000/svg"><path fill-rule="evenodd" clip-rule="evenodd" d="M53.3 0l-6.774 30h8.337l.968-5.137h6.551L63.35 30h8.263L64.839 0H53.3zM8.71 23.45h4.466l-1.414 6.476H0L4.764 8.857h7.296L8.71 23.45zM19.653 30H13.25l4.615-21.142h11.91V30H23.3v-3.052h-2.977L19.653 30zm3.647-8.486v-7.519l-2.01 7.519h2.01zm20.844 8.412l4.69-21.068h-6.7l-3.35 14.963V8.858h-6.55v21.067h11.91zm69.305-21.068h-11.836v21.067h6.402v-3.052h3.052l.67 3.052h6.402l-4.69-21.067zm-5.434 5.137v7.519h1.935l-1.935-7.519zm-8.412 9.752L100.869 30H87.99l1.34-14.367h-4.466l-1.192-6.7h13.549l-1.563 14.814h3.945zM86.203 30l-1.265-6.253h-3.945l1.563-14.814H69.007l1.191 6.7h4.467L73.325 30h12.879zM59.034 6.774l-2.16 11.464h4.393L59.032 6.774z" fill="#72778E"/></svg>