<?xml version="1.0" encoding="UTF-8"?>
<svg width="212px" height="258px" viewBox="0 0 212 258" version="1.1" xmlns="http://www.w3.org/2000/svg" xmlns:xlink="http://www.w3.org/1999/xlink">
    <!-- Generator: Sketch 52.6 (67491) - http://www.bohemiancoding.com/sketch -->
    <title>Group 49</title>
    <desc>Created with Sketch.</desc>
    <defs>
        <rect id="path-1" x="0" y="0" width="280" height="346"></rect>
    </defs>
    <g id="Page-2" stroke="none" stroke-width="1" fill="none" fill-rule="evenodd">
        <g id="Index-page" transform="translate(-5.000000, -4635.000000)">
            <g id="Group-49" transform="translate(0.000000, 4595.000000)">
                <mask id="mask-2" fill="white">
                    <use xlink:href="#path-1"></use>
                </mask>
                <use id="Mask" fill="#F9F9F9" fill-rule="nonzero" opacity="0" xlink:href="#path-1"></use>
                <g mask="url(#mask-2)">
                    <g transform="translate(-387.000000, -1.000000)">
                        <path d="M400,71.4718941 C398.055223,71.4718941 396.470253,73.0543617 396.470253,75.0011385 C396.470253,76.9456383 398.055223,78.5303828 400,78.5303828 C401.944777,78.5303828 403.529747,76.9456383 403.529747,75.0011385 C403.529747,73.0543617 401.944777,71.4718941 400,71.4718941 M400,83 C395.588955,83 392,79.4115554 392,75.0011385 C392,70.5884446 395.588955,67 400,67 C404.411045,67 408,70.5884446 408,75.0011385 C408,79.4115554 404.411045,83 400,83" id="Fill-6" fill="#9FC3FD"></path>
                        <path d="M440.001138,247.472531 C438.056639,247.472531 436.469617,249.055223 436.469617,251 C436.469617,252.947054 438.056639,254.529747 440.001138,254.529747 C441.945638,254.529747 443.530383,252.947054 443.530383,251 C443.530383,249.055223 441.945638,247.472531 440.001138,247.472531 M440.001138,259 C435.590722,259 432,255.411045 432,251 C432,246.588955 435.590722,243 440.001138,243 C444.411555,243 448,246.588955 448,251 C448,255.411045 444.411555,259 440.001138,259" id="Fill-8" fill="#9FC3FD"></path>
                        <g id="Group-14" stroke-width="1" fill="none" transform="translate(475.000000, 197.000000)">
                            <path d="M10.2628769,28.6874692 C9.96172308,28.6874692 9.65610769,28.6361615 9.35718462,28.5246231 C8.01203077,28.0227 7.32941538,26.5280846 7.82910769,25.1851615 L16.2123385,2.68785385 C16.7142615,1.3427 18.2066462,0.660084615 19.5518,1.15977692 C20.8969538,1.6617 21.5795692,3.15631538 21.0798769,4.49923846 L12.6966462,26.9965462 C12.3062615,28.0427769 11.3158,28.6874692 10.2628769,28.6874692" id="Fill-10" fill="#C9D7ED"></path>
                            <path d="M25.7040385,21.6302077 C25.4028846,21.6302077 25.0972692,21.5789 24.7983462,21.4673615 L2.30103846,13.0841308 C0.955884615,12.5822077 0.273269231,11.0875923 0.772961538,9.74466923 C1.27488462,8.39951538 2.76726923,7.7169 4.11242308,8.21659231 L26.6097308,16.5998231 C27.9548846,17.1017462 28.6375,18.5963615 28.1378077,19.9392846 C27.7474231,20.9855154 26.7569615,21.6302077 25.7040385,21.6302077" id="Fill-12" fill="#C9D7ED"></path>
                        </g>
                        <path d="M540,288.579389 C538.665069,288.579389 537.579389,289.665069 537.579389,291 C537.579389,292.332534 538.665069,293.420611 540,293.420611 C541.334931,293.420611 542.420611,292.332534 542.420611,291 C542.420611,289.665069 541.334931,288.579389 540,288.579389 M540,299 C535.587777,299 532,295.409826 532,291 C532,286.587777 535.587777,283 540,283 C544.412223,283 548,286.587777 548,291 C548,295.409826 544.412223,299 540,299" id="Fill-15" fill="#C9D7ED"></path>
                        <path d="M592.10176,46.7729841 L593.774337,52.8972293 L599.898811,51.2247147 L598.226234,45.1004695 L592.10176,46.7729841 Z M592.483138,57 C591.673022,57 590.930209,56.4616048 590.708362,55.6440418 L588.066139,45.9678839 C587.93652,45.4967882 587.998837,44.9957815 588.240625,44.569552 C588.484906,44.1458151 588.883732,43.8367363 589.354846,43.7071227 L599.031364,41.0649982 C600.018459,40.7982932 601.025495,41.3765695 601.29221,42.3561496 L603.934433,52.0298149 C604.064051,52.5009106 603.999242,53.0044098 603.759946,53.4281468 C603.515665,53.8518837 603.116839,54.1609624 602.643233,54.2905761 L592.969207,56.9351932 C592.807184,56.9775669 592.645161,57 592.483138,57 Z" id="Fill-17" fill="#9FC3FD"></path>
                        <path d="M542.5,136.043575 C541.146434,136.043575 540.044216,137.145619 540.044216,138.49897 C540.044216,139.852321 541.146434,140.954365 542.5,140.954365 C543.853566,140.954365 544.955784,139.852321 544.955784,138.49897 C544.955784,137.145619 543.853566,136.043575 542.5,136.043575 M542.5,145 C538.915214,145 536,142.083188 536,138.49897 C536,134.914752 538.915214,132 542.5,132 C546.084786,132 549,134.914752 549,138.49897 C549,142.083188 546.084786,145 542.5,145" id="Fill-27" fill="#9FC3FD"></path>
                    </g>
                </g>
            </g>
        </g>
    </g>
</svg>