<?xml version="1.0" encoding="UTF-8"?>
<svg width="30px" height="30px" viewBox="0 0 30 30" version="1.1" xmlns="http://www.w3.org/2000/svg" xmlns:xlink="http://www.w3.org/1999/xlink">
    <!-- Generator: Sketch 55.1 (78136) - https://sketchapp.com -->
    <title>Group 5</title>
    <desc>Created with Sketch.</desc>
    <g id="Blog" stroke="none" stroke-width="1" fill="none" fill-rule="evenodd">
        <g id="Article-v1" transform="translate(-1274.000000, -774.000000)" fill-rule="nonzero">
            <g id="Group-5" transform="translate(1274.000000, 774.000000)">
                <path d="M15,0 C6.7,0 0,6.7 0,15 C0,23.3 6.7,30 15,30 C23.3,30 30,23.3 30,15 C30,6.7 23.3,0 15,0 Z" id="Shape" fill="#0C1015"></path>
                <path d="M22.6511161,15.5833889 L22.6511161,21 L19.5109075,21 L19.5109075,15.9461608 C19.5109075,14.6765952 19.0567102,13.8101664 17.9200588,13.8101664 C17.0523696,13.8101664 16.5360071,14.3940759 16.3088403,14.9589102 C16.2259989,15.1608362 16.2046754,15.4418908 16.2046754,15.7245464 L16.2046754,21 L13.0634109,21 C13.0634109,21 13.1057172,12.4404553 13.0634109,11.5536226 L16.2043688,11.5536226 L16.2043688,12.8926088 C16.197999,12.9026233 16.1897217,12.9134213 16.1837266,12.9231293 L16.2043688,12.9231293 L16.2043688,12.8926088 C16.6216758,12.2498723 17.3669423,11.3317015 19.0350801,11.3317015 C21.1017903,11.3317015 22.6511161,12.6818264 22.6511161,15.5833889 Z M9.77751446,7 C8.70289196,7 8,7.70486762 8,8.63179255 C8,9.53851806 8.68255629,10.2647773 9.73582124,10.2647773 L9.7568041,10.2647773 C10.8522392,10.2647773 11.5335011,9.53865431 11.5335011,8.63179255 C11.5128588,7.70486762 10.8522392,7 9.77751446,7 Z M8.18656357,21 L11.3266359,21 L11.3266359,11.5536226 L8.18656357,11.5536226 L8.18656357,21 Z" id="LinkedIn" fill="#FFFFFF"></path>
            </g>
        </g>
    </g>
</svg>