<?xml version="1.0" encoding="UTF-8"?>
<svg width="200px" height="296px" viewBox="0 0 200 296" version="1.1" xmlns="http://www.w3.org/2000/svg" xmlns:xlink="http://www.w3.org/1999/xlink">
    <!-- Generator: Sketch 52.6 (67491) - http://www.bohemiancoding.com/sketch -->
    <title>Group 33</title>
    <desc>Created with Sketch.</desc>
    <defs>
        <rect id="path-1" x="0" y="0" width="280" height="347"></rect>
        <polygon id="path-3" points="0.318299108 0.885733333 19.8355379 0.885733333 19.8355379 19.5490133 0.318299108 19.5490133"></polygon>
    </defs>
    <g id="Page-2" stroke="none" stroke-width="1" fill="none" fill-rule="evenodd">
        <g id="Index-page" transform="translate(-1240.000000, -4594.000000)">
            <g id="Group-33" transform="translate(1160.000000, 4594.000000)">
                <mask id="mask-2" fill="white">
                    <use xlink:href="#path-1"></use>
                </mask>
                <use id="Mask" fill="#D8D8D8" fill-rule="nonzero" opacity="0" xlink:href="#path-1"></use>
                <g mask="url(#mask-2)">
                    <g transform="translate(80.000000, 0.000000)">
                        <g id="Group-17" stroke-width="1" fill="none" transform="translate(130.000000, 77.000000)">
                            <path d="M14.048841,27.3544615 C12.4919179,27.3544615 11.2283282,26.0908718 11.2283282,24.5339487 L11.2283282,2.93558974 C11.2283282,1.37866667 12.4919179,0.115076923 14.048841,0.115076923 C15.6057641,0.115076923 16.8693538,1.37866667 16.8693538,2.93558974 L16.8693538,24.5339487 C16.8693538,26.0908718 15.6057641,27.3544615 14.048841,27.3544615" id="Fill-13" fill="#FDD1BE"></path>
                            <path d="M24.8484718,16.5561846 L3.25011282,16.5561846 C1.69093333,16.5561846 0.4296,15.2925949 0.4296,13.7356718 C0.4296,12.1787487 1.69093333,10.915159 3.25011282,10.915159 L24.8484718,10.915159 C26.4053949,10.915159 27.6689846,12.1787487 27.6689846,13.7356718 C27.6689846,15.2925949 26.4053949,16.5561846 24.8484718,16.5561846" id="Fill-15" fill="#FDD1BE"></path>
                        </g>
                        <g id="Group-20" stroke-width="1" fill="none" transform="translate(109.000000, 0.000000)">
                            <mask id="mask-4" fill="white">
                                <use xlink:href="#path-3"></use>
                            </mask>
                            <g id="Clip-19"></g>
                            <path d="M6.02951111,8.00714667 L7.76462222,14.0863467 L14.1243259,12.4271467 L12.3892148,6.34568 L6.02951111,8.00714667 Z M5.96788148,19.5490133 C4.83958519,19.5490133 3.80847407,18.8327467 3.49795556,17.74248 L0.409362963,6.93501333 C0.229214815,6.30714667 0.319288889,5.63848 0.653511111,5.07408 C0.992474074,4.50968 1.54951111,4.09488 2.2061037,3.92261333 L13.5080296,0.971413333 C14.8804741,0.617813333 16.2861037,1.38394667 16.6558815,2.68954667 L19.7444741,13.49928 C19.9246222,14.1271467 19.8345481,14.7958133 19.5003259,15.3602133 C19.161363,15.9246133 18.6043259,16.3394133 17.9477333,16.5094133 L6.64580741,19.46288 C6.41825185,19.5218133 6.1906963,19.5490133 5.96788148,19.5490133 Z" id="Fill-18" fill="#9FC3FD" mask="url(#mask-4)"></path>
                        </g>
                        <path d="M178.5,281.638263 C176.369063,281.638263 174.637533,283.369984 174.637533,285.498846 C174.637533,287.630016 176.369063,289.361737 178.5,289.361737 C180.630937,289.361737 182.362467,287.630016 182.362467,285.498846 C182.362467,283.369984 180.630937,281.638263 178.5,281.638263 M178.5,296 C172.709763,296 168,291.28972 168,285.498846 C168,279.71028 172.709763,275 178.5,275 C184.290237,275 189,279.71028 189,285.498846 C189,291.28972 184.290237,296 178.5,296" id="Fill-21" fill="#D5BEFD"></path>
                        <path d="M50.7155607,237 C50.5989121,237 50.4822635,236.995374 50.3656148,236.981498 C47.7147177,236.69934 45.3863196,235.401878 43.8058451,233.329638 C42.0744136,231.056188 41.3882452,228.038026 41.8754248,224.832531 L42.2299451,222.482759 C42.4861146,220.780562 42.0904242,219.360523 41.1389374,218.585746 C40.1874505,217.810969 38.7350608,217.720771 37.1431502,218.335967 L34.9474114,219.187065 C31.1689108,220.65336 27.2486021,220.172304 24.4719074,217.905792 C21.6906383,215.63928 20.3960673,211.869469 21.0090443,207.824439 L21.3635647,205.479293 C21.6197342,203.777096 21.2217565,202.357057 20.2725569,201.584592 C19.3210701,200.807503 17.8618187,200.717305 16.2744825,201.334814 L14.0924671,202.181286 C10.3139665,203.645268 6.39594509,203.168838 3.6123887,200.902326 C0.831119531,198.635814 -0.463451478,194.866003 0.149525607,190.820973 C0.423992959,189.00545 2.08223321,187.761182 3.89600496,188.038714 C5.68919166,188.316246 6.92429474,190.011504 6.64754016,191.827027 C6.39137063,193.529224 6.78934829,194.949263 7.73854788,195.72404 C8.69232193,196.498817 10.1469989,196.591328 11.7366223,195.973819 L13.9186378,195.125033 C17.6994255,193.661051 21.6151597,194.137481 24.3987161,196.406306 C27.1822725,198.672818 28.4745563,202.440316 27.8638665,206.487659 L27.5093461,208.832806 C27.2508894,210.535002 27.648867,211.952729 28.5980666,212.727506 C29.5472662,213.502283 31.0065176,213.592481 32.5938538,212.977285 L34.7895926,212.126186 C38.5658059,210.664517 42.4838274,211.140947 45.2650966,213.40746 C48.0486529,215.676284 49.3409367,219.443782 48.7302469,223.488813 L48.3757265,225.838584 C48.1630143,227.233183 48.3894499,228.452012 49.0138631,229.268419 C49.494181,229.897491 50.1986472,230.276785 51.0563577,230.369296 C52.8609805,230.561255 54.1715621,232.198695 53.9817222,234.023468 C53.8033184,235.732603 52.3760882,237 50.7155607,237" id="Fill-27" fill="#D5BEFD"></path>
                        <path d="M175.207202,210 C175.158713,210 175.114842,209.997672 175.066352,209.995343 C173.851807,209.91851 172.928198,208.861471 173.004395,207.636796 C173.122156,205.755545 173.951094,204.072199 175.338817,202.894089 C176.862771,201.599565 178.938582,201.022152 181.187569,201.271277 L182.868537,201.45754 C184.140808,201.601893 185.186795,201.24101 185.740961,200.486647 C186.297435,199.729956 186.320525,198.617038 185.814849,197.434272 L185.142924,195.871996 C184.011503,193.234054 184.221624,190.447103 185.713252,188.412186 C187.200262,186.377269 189.777131,185.355154 192.614919,185.660159 L194.291269,185.846421 C195.551995,185.986118 196.609527,185.634548 197.161383,184.875528 C197.715548,184.118837 197.743257,183.005919 197.232963,181.820825 L196.565655,180.265533 C195.431926,177.62992 195.644356,174.840641 197.133675,172.805724 C198.622994,170.770807 201.197554,169.746363 204.035342,170.053696 C205.245269,170.188737 206.120388,171.287685 205.986465,172.505375 C205.852542,173.725394 204.799628,174.605484 203.552756,174.475101 C202.287412,174.330747 201.236807,174.686974 200.680333,175.443665 C200.128476,176.200356 200.100768,177.313274 200.611062,178.498369 L201.278369,180.05366 C202.412099,182.689273 202.199669,185.478553 200.71035,187.515798 C199.218722,189.553043 196.62569,190.57283 193.808683,190.265497 L192.132333,190.081563 C190.869298,189.937209 189.811766,190.293436 189.25991,191.050127 C188.705745,191.809147 188.680346,192.922065 189.18833,194.104831 L189.860256,195.664779 C190.991676,198.30272 190.779246,201.089672 189.292236,203.124589 C187.798299,205.161834 185.205267,206.18162 182.388261,205.876616 L180.707293,205.690353 C179.677469,205.576268 178.774641,205.790469 178.176605,206.295706 C177.7148,206.689186 177.446954,207.250301 177.405391,207.913861 C177.331503,209.094299 176.361713,210 175.207202,210" id="Fill-31" fill="#FEDFD2"></path>
                    </g>
                </g>
            </g>
        </g>
    </g>
</svg>