<?xml version="1.0" encoding="UTF-8"?>
<svg width="18px" height="14px" viewBox="0 0 18 14" version="1.1" xmlns="http://www.w3.org/2000/svg" xmlns:xlink="http://www.w3.org/1999/xlink">
    <!-- Generator: Sketch 52.6 (67491) - http://www.bohemiancoding.com/sketch -->
    <title>Path</title>
    <desc>Created with Sketch.</desc>
    <g id="Page-2" stroke="none" stroke-width="1" fill="none" fill-rule="evenodd">
        <g id="Index-page" transform="translate(-1202.000000, -5363.000000)" fill="#FFFFFF">
            <g id="Group-14" transform="translate(1190.000000, 5350.000000)">
                <path d="M29.4728682,14.627907 C28.8217054,14.9534884 28.1705426,15.0620155 27.4108527,15.1705426 C28.1705426,14.7364341 28.7131783,14.0852713 28.9302326,13.2170543 C28.2790698,13.6511628 27.5193798,13.8682171 26.6511628,14.0852713 C26,13.4341085 25.0232558,13 24.0465116,13 C22.0930233,13 20.4651163,14.627907 20.4651163,16.5813953 C20.4651163,16.9069767 20.4651163,17.124031 20.5736434,17.3410853 C17.6434109,17.2325581 15.0387597,15.8217054 13.1937984,13.6511628 C12.8682171,14.1937984 12.7596899,14.7364341 12.7596899,15.3875969 C12.7596899,16.5813953 13.4108527,17.6666667 14.3875969,18.3178295 C13.8449612,18.3178295 13.3023256,18.1007752 12.7596899,17.8837209 C12.7596899,17.8837209 12.7596899,17.8837209 12.7596899,17.8837209 C12.7596899,19.620155 13.9534884,21.0310078 15.5813953,21.3565891 C15.255814,21.4651163 14.9302326,21.4651163 14.6046512,21.4651163 C14.3875969,21.4651163 14.1705426,21.4651163 13.9534884,21.3565891 C14.3875969,22.7674419 15.6899225,23.8527132 17.3178295,23.8527132 C16.124031,24.8294574 14.6046512,25.372093 12.8682171,25.372093 C12.5426357,25.372093 12.3255814,25.372093 12,25.372093 C13.627907,26.3488372 15.4728682,27 17.4263566,27 C23.9379845,27 27.5193798,21.5736434 27.5193798,16.9069767 C27.5193798,16.7984496 27.5193798,16.5813953 27.5193798,16.4728682 C28.3875969,16.0387597 29.0387597,15.3875969 29.4728682,14.627907 Z" id="Path"></path>
            </g>
        </g>
    </g>
</svg>