<svg width="18" height="14" viewBox="0 0 18 14" xmlns="http://www.w3.org/2000/svg"><title>Path</title><path d="M17.473 1.628c-.651.325-1.302.434-2.062.543.76-.435 1.302-1.086 1.52-1.954-.652.434-1.412.651-2.28.868A3.79 3.79 0 0 0 12.047 0c-1.954 0-3.582 1.628-3.582 3.581 0 .326 0 .543.109.76-2.93-.108-5.535-1.52-7.38-3.69C.868 1.194.76 1.736.76 2.388c0 1.193.65 2.279 1.628 2.93-.543 0-1.086-.217-1.628-.434 0 1.736 1.193 3.146 2.82 3.473-.325.108-.65.108-.976.108-.217 0-.434 0-.652-.108.435 1.41 1.737 2.496 3.365 2.496-1.194.976-2.713 1.52-4.45 1.52H0C1.628 13.348 3.473 14 5.426 14 11.938 14 15.52 8.574 15.52 3.907v-.434a4.598 4.598 0 0 0 1.954-1.845z" fill="#FFF" fill-rule="evenodd"/></svg>