<?xml version="1.0" encoding="UTF-8"?>
<svg width="129px" height="30px" viewBox="0 0 129 30" version="1.1" xmlns="http://www.w3.org/2000/svg" xmlns:xlink="http://www.w3.org/1999/xlink">
    <!-- Generator: Sketch 52.6 (67491) - http://www.bohemiancoding.com/sketch -->
    <title>Group 16</title>
    <desc>Created with Sketch.</desc>
    <defs>
        <polygon id="path-1" points="0 0 30 0 30 29.9998 0 29.9998"></polygon>
    </defs>
    <g id="Page-2" stroke="none" stroke-width="1" fill="none" fill-rule="evenodd">
        <g id="Index-page" transform="translate(-293.000000, -1124.000000)">
            <g id="Group-16" transform="translate(293.000000, 1124.000000)">
                <g id="Group-3">
                    <mask id="mask-2" fill="white">
                        <use xlink:href="#path-1"></use>
                    </mask>
                    <g id="Clip-2"></g>
                    <path d="M28.154,14.9998 C28.154,22.2518 22.253,28.1538 15,28.1538 C7.748,28.1538 1.847,22.2518 1.847,14.9998 C1.847,7.7468 7.748,1.8458 15,1.8458 C22.253,1.8458 28.154,7.7468 28.154,14.9998 M15,-0.0002 C6.729,-0.0002 0,6.7288 0,14.9998 C0,23.2708 6.729,29.9998 15,29.9998 C23.271,29.9998 30,23.2708 30,14.9998 C30,6.7288 23.271,-0.0002 15,-0.0002" id="Fill-1" fill="#CACACA" mask="url(#mask-2)"></path>
                </g>
                <path d="M8.3112,20.7542 C7.0292,19.1212 6.3332,17.1112 6.3332,15.0002 C6.3332,12.8882 7.0292,10.8782 8.3112,9.2462 C8.2732,9.6842 8.2542,10.1362 8.2542,10.6002 L8.2542,19.4002 C8.2542,19.8632 8.2732,20.3162 8.3112,20.7542 M19.5822,12.8762 L19.5822,17.1232 C19.5822,17.2192 19.5032,17.2972 19.4072,17.2972 L10.5932,17.2972 C10.4972,17.2972 10.4182,17.2192 10.4182,17.1232 L10.4182,12.8762 C10.4182,12.7802 10.4972,12.7012 10.5932,12.7012 L19.4072,12.7012 C19.5032,12.7012 19.5822,12.7802 19.5822,12.8762 M21.6892,9.2462 C22.9712,10.8782 23.6672,12.8882 23.6672,15.0002 C23.6672,17.1112 22.9712,19.1222 21.6892,20.7542 C21.7282,20.3172 21.7472,19.8632 21.7472,19.4002 L21.7472,10.6002 C21.7472,10.1362 21.7282,9.6832 21.6892,9.2462 M20.3922,5.3402 C20.3092,5.2882 20.2122,5.2612 20.1142,5.2612 C19.8212,5.2612 19.5822,5.4992 19.5822,5.7922 L19.5822,10.3622 C19.5822,10.4592 19.5032,10.5372 19.4072,10.5372 L10.5932,10.5372 C10.4972,10.5372 10.4182,10.4592 10.4182,10.3622 L10.4182,5.7922 C10.4182,5.4992 10.1792,5.2612 9.8862,5.2612 C9.7872,5.2612 9.6902,5.2892 9.6102,5.3392 C6.2032,7.4062 4.1682,11.0182 4.1682,15.0002 C4.1682,18.9812 6.2032,22.5932 9.6122,24.6632 C9.6962,24.7122 9.7902,24.7382 9.8862,24.7382 C10.1792,24.7382 10.4182,24.5002 10.4182,24.2062 L10.4182,19.6372 C10.4182,19.5402 10.4972,19.4622 10.5932,19.4622 L19.4072,19.4622 C19.5032,19.4622 19.5822,19.5402 19.5822,19.6372 L19.5822,24.2062 C19.5822,24.5002 19.8212,24.7382 20.1142,24.7382 C20.2092,24.7382 20.3042,24.7122 20.3902,24.6612 C23.7972,22.5932 25.8322,18.9812 25.8322,15.0002 C25.8322,11.0182 23.7982,7.4072 20.3922,5.3402" id="Fill-4" fill="#CACACA"></path>
                <path d="M54.0476,19.4016 C54.0476,22.7476 50.9646,24.9486 47.8486,24.9486 L37.6926,24.9486 L37.6926,5.0796 L47.0036,5.0796 C50.5856,5.0796 53.1736,6.8686 53.1736,10.5386 C53.1736,13.6796 50.4406,14.6176 50.4406,14.6176 C50.4406,14.6476 54.0476,15.4696 54.0476,19.4016 M48.1116,11.0966 C48.1116,9.9816 47.3536,9.2186 46.2196,9.2186 L42.5816,9.2186 L42.5816,12.9166 L46.1336,12.9166 C47.4116,12.9166 48.1116,11.9776 48.1116,11.0966 M48.7516,18.8436 C48.7516,17.6996 47.9066,16.9066 46.1336,16.9066 L42.5816,16.9066 L42.5816,20.8106 L46.2196,20.8106 C47.7036,20.8106 48.7516,20.2826 48.7516,18.8436" id="Fill-6" fill="#FF141F"></path>
                <path d="M74.1374,14.9998 C74.1374,20.8398 70.7904,25.4178 65.0034,25.4178 C59.2414,25.4178 55.8654,20.8398 55.8654,14.9998 C55.8654,9.1888 59.2414,4.5818 64.9994,4.5818 C70.7904,4.5818 74.1374,9.1888 74.1374,14.9998 M69.2494,14.9998 C69.2494,11.8888 67.8234,9.3648 65.0034,9.3648 C62.1794,9.3648 60.7834,11.8888 60.7834,14.9998 C60.7834,18.1398 62.1794,20.6638 65.0034,20.6638 C67.8234,20.6638 69.2494,18.1398 69.2494,14.9998" id="Fill-8" fill="#FF141F"></path>
                <path d="M91.2023,18.9319 C91.2023,23.3049 87.2453,25.4179 83.5223,25.4179 C79.2153,25.4179 77.0023,23.7749 75.2583,21.6909 L78.4293,18.5789 C79.7683,20.2829 81.5153,21.1329 83.4653,21.1329 C85.0643,21.1329 86.1403,20.3409 86.1403,19.1669 C86.1403,17.9059 85.1893,17.5119 82.5883,16.9659 L81.8913,16.8189 C78.7593,16.1609 76.1863,14.3839 76.1863,10.8329 C76.1863,6.9299 79.3603,4.5819 83.5513,4.5819 C87.1003,4.5819 89.4003,6.1079 90.7973,7.6909 L87.7113,10.7439 C86.7503,9.7169 85.2953,8.8959 83.6383,8.8959 C82.5043,8.8959 81.2233,9.4239 81.2233,10.7439 C81.2233,11.9479 82.5563,12.3839 84.2483,12.7399 L84.9493,12.8879 C87.7813,13.4819 91.2023,14.3539 91.2023,18.9319" id="Fill-10" fill="#FF141F"></path>
                <path d="M110.1013,21.1038 C108.0643,24.0388 106.1723,25.4178 102.2453,25.4178 C96.6593,25.4178 93.0493,20.7818 93.0493,14.8828 C93.0493,9.2768 96.3093,4.6108 102.3023,4.6108 C105.5913,4.6108 107.9493,5.9018 109.9563,8.9248 L105.9413,11.5958 C105.1253,10.1868 104.0793,9.3648 102.3313,9.3648 C100.1223,9.3648 97.9963,11.3418 97.9963,14.8828 C97.9963,18.8498 100.2953,20.6638 102.4793,20.6638 C104.3683,20.6638 105.2413,19.7238 106.0573,18.3748 L110.1013,21.1038" id="Fill-12" fill="#FF141F"></path>
                <polygon id="Fill-14" fill="#FF141F" points="128.739 24.9485 123.501 24.9485 123.501 17.1125 117.475 17.1125 117.475 24.9485 112.269 24.9485 112.269 5.0795 117.475 5.0795 117.475 12.3875 123.501 12.3875 123.501 5.0795 128.739 5.0795"></polygon>
            </g>
        </g>
    </g>
</svg>