<?xml version="1.0" encoding="UTF-8"?>
<svg width="116px" height="60px" viewBox="0 0 116 60" version="1.1" xmlns="http://www.w3.org/2000/svg" xmlns:xlink="http://www.w3.org/1999/xlink">
    <!-- Generator: Sketch 52.6 (67491) - http://www.bohemiancoding.com/sketch -->
    <title>artwork-19 2</title>
    <desc>Created with Sketch.</desc>
    <g id="Page-2" stroke="none" stroke-width="1" fill="none" fill-rule="evenodd">
        <g id="Index-page" transform="translate(-1128.000000, -1195.000000)">
            <g id="Group-46" transform="translate(196.000000, 1195.000000)">
                <g id="artwork-19-2" transform="translate(932.000000, 0.000000)">
                    <g id="artwork-19">
                        <path d="M86.4950164,57.070623 C86.3304942,56.7630515 86.0171139,56.5639057 85.6687869,56.5455738 C85.4486557,56.5337705 63.7003279,55.3640656 55.8336393,51.7420328 L55.359541,51.3786885 C55.3414426,51.3653115 55.3239344,51.3523279 55.3050492,51.3393443 L55.071541,51.1837377 L55.2647213,49.8645246 C55.2907403,49.688608 55.2691385,49.508933 55.2021639,49.3441967 L54.8222951,48.4119344 C54.7841876,48.3193206 54.7327597,48.232768 54.6696393,48.1550164 L53.6443279,46.9072131 C53.6026053,46.8563275 53.5561696,46.8094965 53.5056393,46.7673443 L52.3229508,45.7992787 L51.481377,45.0424918 L51.0027541,44.1179016 C50.8157976,43.7570244 50.4287366,43.5455024 50.0240454,43.5830546 C49.6193543,43.6206069 49.2778219,43.8997367 49.160459,44.2888525 L48.3662951,43.6017049 L48.0753443,43.0499016 L47.8939672,42.404459 C47.8904741,42.3883362 47.8858059,42.3724906 47.88,42.3570492 L47.8133115,42.1563934 L48.0023607,41.9006557 L48.0877377,41.8971148 C48.1442098,41.8955451 48.2004307,41.8889619 48.2557377,41.8774426 L49.1856393,41.6848525 L51.423541,41.9038033 C51.9050868,41.951135 52.3512103,41.646207 52.4819878,41.1803487 C52.6127652,40.7144904 52.3905144,40.2219339 51.9546885,40.0117377 L50.8268852,39.4685902 L50.2597377,39.1497049 C50.1455106,39.0851679 50.0195961,39.0439765 49.8893115,39.0285246 L48.7416393,38.8908197 C48.6773463,38.8830879 48.6124622,38.8815069 48.5478689,38.8860984 L47.3580984,38.9750164 C47.3001915,38.9795826 47.2427935,38.9891928 47.1865574,39.0037377 L46.527541,39.1711475 C46.4815828,39.1826335 46.4365932,39.1976958 46.3929836,39.2161967 L45.7860984,39.4654426 C45.7243001,39.4917889 45.6650375,39.5237248 45.6090492,39.5608525 L45.1337705,39.8820984 C45.0972243,39.9066141 45.0625696,39.9338381 45.0300984,39.963541 L44.7328525,40.2269508 C44.6087143,40.3371303 44.5140485,40.4765595 44.4574426,40.6325902 L44.4456393,40.6642623 L43.9538361,39.9216393 L43.8456393,39.7020984 L43.9264918,39.4762623 L44.7241967,38.5943607 C45.0455665,38.2392145 45.0691747,37.7057934 44.7804361,37.323645 C44.4916975,36.9414967 43.9721158,36.8184918 43.5426885,37.030623 L42.9476066,37.3257049 L42.5958689,37.4240656 C42.4484449,37.4644636 42.3124141,37.5385398 42.1984918,37.640459 L41.9771803,37.8393443 L41.6606557,38.023082 C41.5467303,38.0894734 41.4471034,38.1778003 41.367541,38.2829508 L41.0685246,38.6411803 C40.9811818,38.7386426 40.9137513,38.852252 40.8700328,38.9756066 L40.4708852,38.148 L40.4106885,37.9678033 L40.580459,37.7425574 L41.0919344,37.4317377 L42.5246557,37.285377 C43.0221246,37.2342706 43.404957,36.8228561 43.4201735,36.3230006 C43.4353899,35.823145 43.0782915,35.3892058 42.5848525,35.3079344 L41.0030164,35.0486557 C40.9037088,35.0322659 40.8024863,35.0310719 40.7028197,35.0451148 L39.8600656,35.1631475 C39.7504189,35.1789309 39.6440951,35.2125558 39.5453115,35.2626885 L39.1443934,35.4674754 L38.6708852,35.6600656 C38.4663222,35.7428942 38.2950626,35.8913192 38.184,36.0820328 L37.9925902,36.4097705 L37.7537705,36.7626885 C37.7509476,36.7663752 37.7483841,36.7702534 37.7460984,36.7742951 L37.495082,36.452459 L37.1240656,35.5998689 L37.1175738,35.5465574 L37.2696393,35.3459016 L38.568,34.7571148 C39.0254906,34.5495179 39.2572812,34.0341533 39.1090553,33.5541292 C38.9608294,33.074105 38.4788225,32.7791528 37.9839344,32.8656393 L36.2820984,33.1640656 C36.1464064,33.1873657 36.0171621,33.23905 35.9028197,33.3157377 L35.5323934,33.5610492 C35.4162914,33.6385441 35.3176051,33.7393742 35.242623,33.8571148 L35.0805246,34.1128525 L34.8879344,34.3603279 C34.8270061,34.4379238 34.7778848,34.5241014 34.7421639,34.6160656 L34.324918,33.7170492 L34.2757377,33.3798689 L34.3640656,33.2118689 L34.9837377,32.9303607 L36.7809836,32.6085246 C37.293199,32.5174918 37.6494098,32.0480447 37.5991779,31.5302336 C37.5489459,31.0124226 37.1091455,30.6201951 36.5889836,30.6293115 L35.3862295,30.6489836 C35.3236984,30.6493628 35.2613595,30.6559525 35.2001311,30.6686557 L34.3357377,30.8476721 C34.2896686,30.8577593 34.2443224,30.8709031 34.2,30.8870164 L33.6521311,31.0837377 C33.627541,31.0925902 33.6047213,31.1018361 33.5813115,31.112459 L32.6185574,31.5483934 C32.3745112,31.6599554 32.1858305,31.8653052 32.0952787,32.1179016 L31.9331803,32.568 L31.6327869,31.7606557 L31.5999344,31.388459 L31.7573115,31.179541 L32.4458361,30.8657705 L34.1179672,30.6177049 C34.6329699,30.5406593 35.0021203,30.080518 34.9656636,29.5610618 C34.9292069,29.0416056 34.4994042,28.6375367 33.9786885,28.6331803 L33.0662951,28.6260984 C33.0316721,28.6278689 32.9842623,28.6278689 32.9427541,28.6325902 L32.2345574,28.7150164 C32.2188197,28.7167869 32.2040656,28.7191475 32.1883279,28.7220984 L31.4685246,28.8401311 C31.3508098,28.8588539 31.2374869,28.8988502 31.1340984,28.9581639 L30.4780328,29.3344918 C30.4360339,29.359386 30.3955676,29.3867796 30.3568525,29.4165246 L29.9659672,29.7249836 C29.9312677,29.7526478 29.898411,29.7825474 29.8676066,29.8144918 L29.5499016,30.1434098 C29.4680734,30.2281275 29.4015182,30.3263629 29.3531803,30.4337705 L29.2723279,30.2891803 L28.9379016,28.9548197 L29.086623,28.6422295 L29.3657705,28.4238689 L29.5349508,28.359541 L29.9118689,28.2641311 L31.3603279,28.1588852 C31.8836603,28.1148371 32.2832162,27.6725799 32.2740822,27.1474765 C32.2649481,26.622373 31.8502527,26.1942796 31.3257049,26.168459 L30.0938361,26.1064918 L29.7287213,26.0730492 C29.6158482,26.0618913 29.501891,26.0708161 29.3921311,26.0994098 L28.2761311,26.3913443 C28.1726476,26.418846 28.0743642,26.4631034 27.9851803,26.5223607 L27.6153443,26.7664918 C27.4367838,26.8847408 27.3008225,27.0571055 27.2274098,27.2582951 L27.0975738,27.6171148 L26.9097049,27.8962623 C26.8984918,27.9125902 26.8900328,27.9285246 26.878623,27.9448525 L26.4759344,26.823541 L26.4397377,26.4629508 L26.4895082,26.1241967 L26.5386885,25.9890492 L26.7997377,25.7649836 C26.8457715,25.7258426 26.887933,25.6823636 26.9256393,25.6351475 L27.4148852,25.4840656 L28.8135738,25.3026885 C29.3338109,25.2337456 29.7117261,24.7735935 29.6782291,24.2498781 C29.644732,23.7261627 29.2112731,23.3179064 28.6864918,23.3158033 L27.3743607,23.3030164 C27.3046113,23.3021444 27.2349688,23.3087393 27.166623,23.3226885 L26.4338361,23.4708197 C26.3079214,23.4956724 26.1881752,23.5452156 26.0815082,23.6165902 L25.452,24.0326557 C25.4101795,24.059518 25.3706957,24.0898547 25.3339672,24.1233443 L25.0388852,24.3897049 C24.9939758,24.4293362 24.9529987,24.473212 24.9165246,24.5207213 L24.6952131,24.8081311 C24.6324858,24.8892384 24.5825313,24.9794617 24.547082,25.0756721 L24.5002623,25.204918 L24.3212459,24.7384918 L24.2217049,24.2073443 L24.2498361,23.4149508 L24.4294426,23.0122623 L25.0196066,22.7447213 L26.5967213,22.4693115 C27.1109419,22.3794841 27.4689606,21.9084159 27.4178361,21.388918 C27.3723409,20.8669487 26.9266155,20.4716795 26.4029508,20.488918 L24.996,20.5205902 C24.8999738,20.5226422 24.804753,20.5386117 24.7133115,20.568 L23.7202623,20.8862951 C23.6031421,20.9238365 23.4940129,20.9828036 23.3984262,21.0601967 L22.7254426,21.6039344 C22.6487045,21.6658993 22.581494,21.7388101 22.5259672,21.8203279 L22.0918033,22.4655738 C22.0088937,22.5885033 21.9541481,22.7282221 21.9314754,22.8747541 L21.8466885,23.432459 L21.7015082,22.795082 C21.6930867,22.7586187 21.6825107,22.7226868 21.6698361,22.6874754 L21.4001311,21.9167213 L21.2940984,21.3525246 L21.2923279,20.7350164 L21.3637377,20.0508197 L21.460918,19.5088525 L21.6379672,19.0231475 L21.913377,18.6322623 L22.2704262,18.2939016 L22.6760656,18.010623 C23.0920467,17.7187246 23.2222527,17.1608543 22.9784693,16.714968 C22.7346858,16.2690817 22.1947747,16.0775906 21.7245246,16.2702295 L21.3159344,16.4382295 C21.2234857,16.4759423 21.1372664,16.5274086 21.0601967,16.5908852 L20.2076066,17.2943607 C20.1382186,17.3514628 20.0768169,17.4176284 20.0250492,17.491082 L19.3725246,18.4209836 C19.3215868,18.4932754 19.2804426,18.5719919 19.2501639,18.655082 L18.8750164,19.695541 C18.8525896,19.7567489 18.8365053,19.8200973 18.8270164,19.8845902 L18.7941639,20.103541 L18.6958033,19.7956721 L18.2732459,17.8896393 L18.0092459,16.0207869 L18.0163279,14.2668197 L18.2340984,12.8775738 L18.6806557,11.6445246 C18.860632,11.1488282 18.623787,10.5986728 18.1400247,10.3887195 C17.6562623,10.1787662 17.0926526,10.3815236 16.8535082,10.851541 L16.5836066,11.3740328 L16.2688525,11.9228852 C16.2605902,11.9380328 16.2513443,11.9539672 16.2442623,11.9697049 L15.9668852,12.5175738 C15.9486097,12.5540026 15.9325798,12.5915153 15.9188852,12.6299016 L15.6930492,13.2594098 C15.6814205,13.2906123 15.6716332,13.3224703 15.6637377,13.3548197 L15.4866885,14.0669508 C15.481377,14.088 15.4760656,14.1090492 15.4721311,14.1300984 L15.3574426,14.7596066 L15.1882623,15.4408525 C15.1762289,15.4897151 15.1680075,15.5394383 15.1636721,15.5895738 L15.0975738,16.3028852 L15.0139672,16.9914098 L14.6100984,16.1370492 L13.7966557,14.1009836 L13.1606557,12.1219672 L12.6780984,10.1321311 L12.5681311,8.14229508 L12.564,6.1947541 C12.5624879,5.65924031 12.1387352,5.22029772 11.6036066,5.19993443 C11.0705773,5.18547797 10.6183202,5.58826941 10.5712131,6.11940984 L10.4262295,7.98491803 L10.3447869,9.86636066 C10.3430164,9.90570492 10.3447869,9.94504918 10.3459672,9.98340984 L10.4822951,11.8180328 C10.4834754,11.8337705 10.4852459,11.8514754 10.4876066,11.8672131 L10.7327213,13.837377 C10.736614,13.8732936 10.7431897,13.9088684 10.7523934,13.9438033 L10.7594754,13.9713443 L8.16393443,8.96281967 L6.88839344,6.24511475 L5.6852459,3.54255738 L4.51927869,0.803606557 C4.31099943,0.314503475 3.75593196,0.0744571209 3.25689911,0.257673618 C2.75786625,0.440890116 2.48998955,0.983074792 2.64767213,1.4907541 L3.55259016,4.39986885 C3.55790164,4.41678689 3.56380328,4.43429508 3.5695082,4.45081967 L4.64813115,7.35422951 L5.73422951,10.1258361 L6.95685246,13.0648525 L8.56209836,16.7476721 L7.54445902,15.6352131 L6.17921311,14.227082 C6.16859016,14.2158689 6.15698361,14.2048525 6.14636066,14.1942295 L4.72131148,12.8571148 L3.27462295,11.581377 L1.82832787,10.3925902 C1.41719368,10.0513983 0.810241569,10.0946893 0.45169409,10.4907788 C0.093146611,10.8868683 0.110310184,11.4951202 0.490622951,11.8703607 L1.91803279,13.2906885 L3.40327869,14.8146885 L4.80432787,16.504918 L6.11704918,18.2858361 L8.35613115,21.4121311 L7.38747541,20.7350164 C7.34379418,20.7042786 7.29774878,20.677046 7.24977049,20.6535738 L4.46419672,19.3074098 C4.40880836,19.2806548 4.35096625,19.2593099 4.29147541,19.2436721 L1.89403279,18.5917377 C1.37110343,18.4493557 0.830157311,18.7505298 0.675734192,19.2700308 C0.521311073,19.7895317 0.809909567,20.3372903 1.32570492,20.5036721 L2.58039344,20.9093115 L4.06386885,21.6371803 L5.6907541,22.642623 L7.43645902,23.8880656 L9.12019672,25.3148852 L9.47134426,25.6571803 L8.86859016,25.3817705 C8.76812963,25.335963 8.66077484,25.3071135 8.55088525,25.2963934 L6.16131148,25.0640656 C5.99485955,25.0478204 5.82699835,25.0738013 5.6732459,25.1396066 L5.01422951,25.4211148 C4.57809987,25.6070083 4.3331005,26.0742234 4.42819674,26.5386824 C4.52329298,27.0031414 4.93220096,27.3364714 5.40629508,27.336 L5.41396721,27.336 L6.55691803,27.3271475 L7.81278689,27.6688525 L9.29055738,28.2914754 L10.6074098,29.1686557 C10.5142584,29.1540181 10.419539,29.1522309 10.3259016,29.1633443 L8.57370492,29.3797377 C8.31152193,29.4119943 8.07282986,29.5469041 7.90996721,29.7548852 L6.57088525,31.4663607 C6.25403774,31.8718885 6.29751988,32.4518554 6.67129306,32.805605 C7.04506625,33.1593546 7.62654679,33.1708703 8.01403279,32.8321967 L9.51167213,31.5218361 L11.4688525,31.9239344 L11.936459,32.1926557 L11.7883279,32.197377 C11.686692,32.2011475 11.5862399,32.2205214 11.4904918,32.2548197 L10.6642623,32.5473443 C10.5120254,32.6015493 10.3752463,32.6919477 10.2657049,32.8107541 L9.67868852,33.4467541 C9.63442456,33.4953365 9.59490091,33.5480347 9.56065574,33.6041311 L9.07259016,34.4041967 C8.81751686,34.8206283 8.90155332,35.3605169 9.27113171,35.6797182 C9.64071009,35.9989195 10.1870806,36.0035074 10.5619672,35.6905574 L12.1455738,34.3703607 L14.0693115,34.7085246 L14.6504262,34.9888525 L14.4053115,35.0262295 C14.2973977,35.0429929 14.192983,35.0774212 14.0962623,35.1281311 L13.356,35.5148852 C13.2334999,35.5781933 13.1256635,35.6665266 13.0394754,35.7741639 L12.5356721,36.400918 C12.466615,36.4860482 12.412412,36.5822169 12.3753443,36.685377 L12.032459,37.6296393 C11.8677219,38.0832553 12.0513973,38.5897445 12.4686048,38.8323216 C12.8858123,39.0748988 13.4168479,38.9839643 13.7295738,38.6163934 L14.9362623,37.1984262 L16.7551475,37.3148852 L17.3256393,37.5659016 L17.143082,37.6097705 C17.0420667,37.6338426 16.9454734,37.6736749 16.8568525,37.7278033 L16.1913443,38.1340328 C16.0833035,38.2001155 15.98878,38.2860946 15.9127869,38.3874098 L15.3737705,39.1078033 C15.2917696,39.2169573 15.2331711,39.3418559 15.2016393,39.4746885 L14.9693115,40.4490492 C14.8611205,40.9059114 15.0858753,41.3764284 15.5092427,41.5793777 C15.9326101,41.7823271 16.4401826,41.6628654 16.7285902,41.2923934 L17.9118689,39.7713443 L19.6495082,39.7965246 L19.8474098,39.8752131 C19.7327524,39.8968167 19.6225543,39.9375841 19.5214426,39.9958033 L19.1158033,40.2318689 C19.0573492,40.2661297 19.002455,40.3061306 18.9519344,40.3512787 L18.5405902,40.7222951 C18.498566,40.7599346 18.4598045,40.8010652 18.4247213,40.8452459 L18.2000656,41.1291148 C18.1676944,41.1702763 18.1385582,41.213882 18.112918,41.259541 L17.8927869,41.6516066 C17.8650956,41.7001221 17.84179,41.7510126 17.8231475,41.8036721 L17.7102295,42.1174426 C17.692725,42.1679081 17.67866,42.2195017 17.6681311,42.2718689 L17.5827541,42.7318033 C17.4881437,43.242326 17.800878,43.7400835 18.3018823,43.8763895 C18.8028865,44.0126955 19.3246937,43.7419881 19.5017705,43.2539016 L19.6247213,42.915541 L19.9255082,42.4379016 L20.6108852,41.9586885 L21.6092459,41.871541 L22.5485902,42.1272787 L22.5139672,42.1396721 C22.4376457,42.1669183 22.3649681,42.2034553 22.2975738,42.248459 L21.6714098,42.6657049 C21.5772787,42.7281984 21.4945702,42.8063823 21.4268852,42.8968525 L20.8866885,43.6166557 C20.8271515,43.6960872 20.7796262,43.7838468 20.7456393,43.8771148 L20.4057049,44.821377 C20.2232834,45.3276893 20.4752686,45.8874426 20.9752526,46.086555 C21.4752366,46.2856674 22.0430387,46.0523843 22.258623,45.5592787 L22.6323934,44.704918 L22.9929836,44.3339016 L23.4454426,44.1590164 L24.3883279,44.0730492 L25.7457049,44.3803279 L26.1051148,44.4897049 L26.0641967,44.509377 C26.0289836,44.5257049 25.9951475,44.5434098 25.9611148,44.5632787 L25.4508197,44.8735082 C25.4156181,44.8944924 25.3819589,44.9179619 25.3500984,44.9437377 L24.9598033,45.2516066 C24.8713473,45.3209084 24.7953708,45.4048019 24.7351475,45.4996721 L24.4536393,45.9432787 C24.2502487,46.263463 24.2461313,46.6713157 24.4430164,46.995541 L24.568918,47.2026885 C24.7396698,47.483742 25.0379449,47.6626088 25.3662958,47.6808527 C25.6946468,47.6990966 26.0109012,47.5543744 26.2117377,47.2939672 L26.4938361,46.9288525 L26.7940328,46.7193443 L27.2183607,46.5672787 C27.243541,46.5578361 27.267541,46.5476066 27.2921311,46.537377 L27.4518689,46.4647869 L29.0331148,46.5525246 L29.6008525,46.6888525 L29.2304262,46.9318033 C29.2140328,46.9422951 29.1982295,46.9534426 29.1830164,46.9652459 L28.911541,47.1664918 C28.8723761,47.1959571 28.8352427,47.2280299 28.8003934,47.2624918 L28.6083934,47.455082 C28.2202543,47.8440284 28.2197266,48.4736165 28.6072131,48.8632131 L28.8419016,49.0992787 C29.1780474,49.4374168 29.7064791,49.4904166 30.103082,49.2257705 L30.4471475,48.9969836 L30.7192131,48.8384262 L31.6140984,48.6686557 L32.7277377,48.7605246 L32.8003279,48.7687869 C32.7611304,48.8091471 32.7249665,48.8523465 32.6921311,48.8980328 L32.5288525,49.1303607 C32.2148343,49.5761117 32.3167076,50.191381 32.7576393,50.5121311 L33.1357377,50.787541 C33.3276829,50.926891 33.5630006,50.9932877 33.7994754,50.9748197 L36.5441311,50.780459 C36.3137354,51.1673928 36.3707803,51.6606532 36.6834098,51.9847869 L37.4073443,52.7356721 C37.7210784,53.0613336 38.2147038,53.1350585 38.6099016,52.9152787 L38.8603279,52.7754098 C38.8691803,52.7700984 38.8784262,52.765377 38.8872787,52.7602623 L40.5580328,52.7405902 L41.2257049,52.7602623 L43.2926557,52.9949508 L43.8352131,53.1413115 L45.6944262,53.968918 L46.4148197,54.421377 C46.4727582,54.4580505 46.534331,54.4886392 46.5985574,54.5126557 L47.3014426,54.7731148 C47.4338609,54.8217381 47.5749573,54.8422393 47.7157377,54.8333115 L48.7375082,54.7636721 C48.825468,54.757787 48.9122582,54.740257 48.9956066,54.711541 L50.1474098,54.3135738 L50.6968525,54.2234754 C50.8344266,54.201298 50.9657961,54.1504258 51.0824262,54.0741639 L51.3879344,53.872918 L52.0949508,53.8266885 L52.6310164,53.8483279 C54.1473443,54.4007213 66.3306885,58.6589508 84.7064262,59.9628197 C84.7298361,59.9645902 84.7532459,59.9651803 84.7766557,59.9651803 C85.129935,59.9650661 85.4567624,59.7779655 85.6357377,59.473377 L86.4767213,58.0483279 C86.6532809,57.7480233 86.6602175,57.3773227 86.4950164,57.070623 Z" id="Path" fill="#72778E"></path>
                        <path d="M30.7119344,59.9659672 C30.3591361,59.965971 30.0326274,59.779448 29.8534426,59.475541 L29.0112787,58.0499016 C28.8342127,57.7491853 28.8269461,57.3778574 28.9921115,57.0704439 C29.1572769,56.7630305 29.4709188,56.5641185 29.8194098,56.5457705 C30.0389508,56.5345574 51.7914098,55.3642623 59.6539672,51.7428197 L60.1304262,51.3777049 C60.1473443,51.364918 60.1654426,51.3519344 60.1831475,51.3397377 L60.4160656,51.1853115 L60.2222951,49.8672787 C60.1967931,49.6913555 60.2183786,49.5118161 60.2848525,49.3469508 L60.6641311,48.4135082 C60.7021972,48.3204388 60.754057,48.2336301 60.8179672,48.156 L61.8438689,46.9072131 C61.8853286,46.856745 61.9317955,46.8106077 61.9825574,46.7695082 L63.1658361,45.800459 L64.0068197,45.0442623 L64.4854426,44.1196721 C64.656753,43.7887424 64.9980475,43.5807044 65.3706885,43.5800656 C65.4162959,43.580027 65.4618499,43.5831823 65.5070164,43.5895082 C65.8940012,43.6431645 66.2141497,43.9175775 66.3263607,44.2918033 L66.3637377,44.2695738 L67.1205246,43.6042623 L67.4102951,43.0534426 L67.5887213,42.4091803 C67.5940328,42.3916721 67.6735082,42.1552131 67.6735082,42.1552131 L67.5786885,42.0230164 L67.4874098,41.9030164 L67.4020328,41.9000656 C67.3445804,41.8985648 67.2873736,41.8919817 67.231082,41.8803934 L66.3,41.6860328 L64.064459,41.9055738 C64.0316066,41.9085246 63.9983607,41.9102951 63.9660984,41.9102951 C63.5005632,41.9102892 63.0968999,41.5883507 62.9933409,41.13448 C62.889782,40.6806094 63.1138525,40.2154419 63.5333115,40.0135082 L64.6605246,39.4703607 L65.227082,39.1514754 C65.3415915,39.0872049 65.4676839,39.0462215 65.5980984,39.0308852 L66.7463607,38.8921967 C66.785567,38.8880028 66.8249637,38.885836 66.8643934,38.8857049 C66.8883934,38.8857049 66.9141639,38.8868852 66.9387541,38.8880656 L68.1291148,38.9769836 C68.1871861,38.981791 68.2447597,38.9913976 68.3012459,39.0057049 L68.959082,39.1731148 C69.0044849,39.184936 69.0490439,39.199789 69.092459,39.2175738 L69.6999344,39.468 C69.7620757,39.493389 69.8214107,39.5251662 69.8769836,39.5628197 L70.3534426,39.8834754 C70.3900015,39.9080606 70.4250181,39.9348651 70.4582951,39.9637377 L70.755541,40.2283279 C70.8817295,40.3397584 70.9774024,40.481541 71.0335082,40.6402623 L71.0429508,40.6660328 L71.1243934,40.5590164 L71.5327869,39.9245902 L71.6427541,39.7017049 L71.5624918,39.4782295 L70.7636066,38.5957377 C70.4993553,38.3028563 70.4323778,37.8818218 70.5927026,37.5213995 C70.7530273,37.1609773 71.1105771,36.928783 71.5050492,36.928918 C71.658178,36.9288121 71.8092353,36.9643034 71.9462951,37.0325902 L72.541377,37.3262951 L72.8919344,37.4246557 C73.0403125,37.4657616 73.1771406,37.5407072 73.2916721,37.6436066 L73.5123934,37.8415082 L73.8271475,38.0252459 C73.9404096,38.091596 74.0395863,38.1794783 74.119082,38.2839344 L74.2465574,38.4519344 L74.4192787,38.6451148 C74.5061831,38.7418278 74.5734036,38.8545525 74.6171803,38.9769836 L74.6693115,38.8996721 L75.0175082,38.1487869 L75.0782951,37.9697705 L74.9079344,37.7433443 L74.3988197,37.4337049 L72.9637377,37.2861639 C72.4663571,37.2346992 72.0838444,36.8230809 72.0689276,36.3232674 C72.0540107,35.8234539 72.4112952,35.3897565 72.9047213,35.3087213 L74.4859672,35.0494426 C74.5395996,35.041093 74.5937874,35.0368184 74.6480656,35.0366557 C74.694472,35.0367739 74.7408138,35.0401263 74.7867541,35.0466885 L75.6265574,35.1647213 C75.735916,35.1797134 75.8419809,35.2129625 75.9403279,35.263082 L76.3430164,35.468459 L76.8151475,35.6598689 C77.0190201,35.7418911 77.189726,35.8895455 77.3002623,36.0794754 L77.494623,36.4095738 C77.494623,36.4095738 77.7397377,36.7707541 77.7420984,36.7746885 L77.9895738,36.4552131 L78.3594098,35.6036066 L78.3659016,35.5473443 L78.2138361,35.3472787 L76.9174426,34.759082 C76.4901381,34.5647604 76.2560703,34.0988672 76.3552314,33.6400458 C76.4543925,33.1812244 76.8599628,32.8535707 77.329377,32.8530492 C77.3872721,32.8526813 77.4450816,32.8575536 77.5020984,32.8676066 L79.2039344,33.1660328 C79.3400695,33.1899325 79.4697979,33.2417033 79.5849836,33.3180984 L79.9530492,33.5632131 C80.0699261,33.6407001 80.1689182,33.7422407 80.2434098,33.8610492 L80.404918,34.1167869 L80.5963279,34.360918 C80.6574457,34.4398928 80.7065658,34.5274604 80.7420984,34.6207869 L80.8022951,34.5212459 L81.1617049,33.72 L81.2097049,33.3828197 L81.1225574,33.2142295 L80.5017049,32.9327213 L78.7032787,32.6120656 C78.1943995,32.5211941 77.8391416,32.0567772 77.8846138,31.541852 C77.930086,31.0269268 78.3612349,30.6319562 78.8781639,30.6316721 L80.0990164,30.6513443 C80.1621116,30.6521012 80.2250019,30.6586865 80.2868852,30.6710164 L81.1500984,30.850623 C81.1955188,30.8604059 81.2402661,30.8730876 81.2840656,30.8885902 L81.8335082,31.0864918 C81.856918,31.0953443 81.8803279,31.1045902 81.9037377,31.1152131 L82.5257705,31.3949508 L82.8657049,31.5505574 C83.1100101,31.6624399 83.2988752,31.8681134 83.3895738,32.1210492 L83.551082,32.5711475 L83.848918,31.7630164 L83.8829508,31.3892459 L83.7267541,31.1820984 L83.0382295,30.8673443 L81.3633443,30.6198689 C80.8476605,30.5434 80.4777215,30.0828929 80.5142086,29.5628488 C80.5506957,29.0428047 80.9813136,28.6384659 81.502623,28.6347541 L82.4254426,28.6288525 C82.463593,28.6285873 82.5017162,28.6309536 82.539541,28.6359344 C82.539541,28.6359344 83.2798033,28.7213115 83.2951475,28.7236721 L84.0137705,28.8417049 C84.1314108,28.8614929 84.2446277,28.901918 84.3481967,28.9611148 L85.0042623,29.3374426 C85.0473378,29.3621845 85.0886199,29.3899251 85.1278033,29.420459 L85.516918,29.7295082 C85.5506277,29.7561869 85.5825031,29.7851047 85.6123279,29.8160656 L85.9318033,30.1443934 C86.0141501,30.2297323 86.0807502,30.3289664 86.1285246,30.4375082 L86.209377,30.2923279 L86.4517377,29.3087213 L86.5459672,28.9581639 L86.506623,28.8487869 L86.3990164,28.6463607 L86.2375082,28.5216393 L86.120459,28.4268197 L85.9500984,28.363082 L85.5731803,28.267082 L84.9340328,28.2314754 L84.123541,28.1624262 C83.6005906,28.1174547 83.2018534,27.675081 83.2112386,27.1502844 C83.2206239,26.6254878 83.6349236,26.1976541 84.1591475,26.1714098 L85.3910164,26.110623 L85.755541,26.076 C85.7864918,26.0736393 85.816918,26.072459 85.8468197,26.072459 C85.9294369,26.0724161 86.0117504,26.0824576 86.0919344,26.1023607 L86.6197377,26.236918 L87.2085246,26.3942951 C87.3121816,26.4221117 87.4106405,26.4665577 87.5000656,26.5259016 L87.8687213,26.7700328 C88.0463595,26.8879809 88.1816606,27.0596059 88.2548852,27.2598689 L88.3859016,27.6192787 L88.5737705,27.8972459 C88.5855738,27.9153443 88.5971803,27.9322623 88.6078033,27.9511475 L88.6288525,27.9037377 L89.0093115,26.8298361 L89.0455082,26.4692459 L88.9967213,26.1245902 L88.9504918,25.9923934 L88.6888525,25.7700984 C88.6414503,25.7292263 88.5978008,25.6841942 88.5584262,25.635541 L88.5403279,25.6243279 L88.0744918,25.486623 L87.5390164,25.4240656 L86.6734426,25.3046557 C86.1531001,25.2356903 85.7751635,24.7753655 85.8088223,24.2515529 C85.8424812,23.7277403 86.2762249,23.319572 86.8011148,23.3177705 L88.1224918,23.3049836 C88.1894732,23.3048737 88.2562976,23.3114638 88.3219672,23.3246557 L89.0535738,23.4739672 C89.17816,23.4995338 89.2967335,23.5486056 89.4029508,23.6185574 L90.0338361,24.0334426 C90.0763008,24.061403 90.1166104,24.0925065 90.1544262,24.1264918 L90.4481311,24.3916721 C90.4925946,24.4320059 90.5333483,24.4762489 90.5699016,24.5238689 L90.790623,24.8112787 C90.8532834,24.8923316 90.9030502,24.9825755 90.9381639,25.0788197 L90.9855738,25.2086557 L91.1645902,24.7398689 L91.2647213,24.2073443 L91.2377705,23.4161311 L91.0563934,23.0140328 L90.4662295,22.7464918 L88.8873443,22.4697049 C88.3781473,22.3799567 88.0218685,21.9160934 88.0664878,21.4009765 C88.111107,20.8858596 88.5418402,20.4901669 89.0588852,20.4893115 L90.4939672,20.5233443 C90.5889768,20.5254449 90.6831892,20.5412132 90.7737049,20.5701639 L91.7657705,20.8872787 C91.8834411,20.9247924 91.9931562,20.9837517 92.089377,21.0611803 L92.7617705,21.604918 C92.8392413,21.6672647 92.9067113,21.7411036 92.9618361,21.8238689 L93.394623,22.4681311 C93.4772132,22.589808 93.5315858,22.7283943 93.5537705,22.8737705 L93.6403279,23.4338361 L93.7843279,22.796459 C93.7926703,22.7595882 93.8032472,22.7232589 93.816,22.6876721 L94.0857049,21.9180984 L94.1899672,21.3539016 L94.1911475,20.7336393 L94.1238689,20.0500328 L94.0255082,19.5110164 L93.848459,19.0229508 L93.5730492,18.6314754 L93.2171803,18.2942951 L92.8139016,18.0121967 C92.3971128,17.7208541 92.2662489,17.1625938 92.510144,16.7163778 C92.7540391,16.2701618 93.2945883,16.078886 93.7648525,16.2723934 L94.1699016,16.438623 C94.2624641,16.4761075 94.3487166,16.5275936 94.4256393,16.5912787 L95.2794098,17.2947541 C95.3487978,17.3518562 95.4101994,17.4180218 95.4619672,17.4914754 L96.1144918,18.4225574 C96.1647112,18.4948871 96.2054375,18.5733646 96.2356721,18.6560656 L96.612,19.6947541 C96.6342828,19.756856 96.6505541,19.8209531 96.6605902,19.8861639 L96.6934426,20.1068852 L96.7918033,19.7972459 L97.212,17.8890492 L97.4783607,16.0180328 L97.4718689,14.2658361 L97.2517377,12.8754098 L96.8063607,11.6411803 C96.6276321,11.1453309 96.8654019,10.5959935 97.349241,10.3869234 C97.83308,10.1778533 98.3960783,10.3811734 98.6346885,10.8511475 L98.9016393,11.376 L99.2360656,11.9661639 L99.5158033,12.5140328 C99.5358238,12.5527523 99.5530481,12.5928547 99.5673443,12.6340328 L99.7914098,13.263541 C99.8020328,13.2940328 99.811082,13.3237377 99.8183607,13.3548197 L99.9967869,14.0669508 C100.002358,14.0877491 100.006823,14.1088278 100.010164,14.1300984 L100.124852,14.7596066 L100.295803,15.4396721 C100.308614,15.4900066 100.317623,15.5412329 100.322754,15.592918 L100.389443,16.3349508 L100.471279,16.9927869 L100.875738,16.1384262 L101.68682,14.103541 L102.322426,12.1225574 L102.80518,10.1333115 L102.915738,8.14347541 L102.919869,6.1947541 C102.921304,5.65908455 103.345541,5.22017064 103.880852,5.20052459 C103.893639,5.19934426 103.906033,5.19934426 103.91823,5.19934426 C104.439234,5.19944474 104.872382,5.6005391 104.912459,6.12 L105.054098,7.95186885 L105.140066,9.8667541 C105.141804,9.90609885 105.141212,9.94551196 105.138295,9.98478689 L105.00059,11.8194098 C104.99941,11.8351475 104.749574,13.8379672 104.749574,13.8379672 C104.745057,13.8737896 104.738488,13.9093233 104.729902,13.9443934 L104.721639,13.9794098 L105.957639,11.6197377 L107.329967,8.93291803 L108.609836,6.22583607 L109.809836,3.52740984 L110.969115,0.803803279 C111.179192,0.317961726 111.732096,0.0807140589 112.228954,0.263214178 C112.725812,0.445714297 112.993693,0.984443217 112.839344,1.4907541 L111.935803,4.40045902 C111.930492,4.41737705 111.924,4.43508197 111.918295,4.45259016 L110.845967,7.33770492 L109.759869,10.1069508 L108.536656,13.0506885 L107.357508,15.7731148 L106.928459,16.7433443 L107.922098,15.6566557 C107.922098,15.6566557 109.332,14.2052459 109.342426,14.1954098 L110.739148,12.8785574 L112.186426,11.6034098 L113.658295,10.3925902 C114.069565,10.0544903 114.673859,10.0989381 115.031233,10.4935743 C115.388608,10.8882105 115.3731,11.4939383 114.996,11.8697705 L113.558164,13.3013115 L112.083934,14.8140984 L110.683475,16.507082 L109.359148,18.3001967 L107.993705,20.2168525 L107.129311,21.4137049 L108.100721,20.7348197 C108.144369,20.7043735 108.190423,20.6775307 108.238426,20.6545574 L111.023016,19.3074098 C111.078738,19.2808061 111.136743,19.2592765 111.196328,19.243082 L113.593377,18.5917377 C113.678612,18.5682962 113.766617,18.5564519 113.855016,18.5565246 C114.345864,18.5569987 114.763521,18.914274 114.840019,19.3991244 C114.916518,19.8839747 114.629152,20.3524869 114.162295,20.5040656 L112.906426,20.9102951 L111.422951,21.637377 L109.796066,22.6428197 L108.050361,23.8876721 L106.367213,25.315082 L106.016066,25.6567869 L106.62,25.381377 C106.720463,25.3355764 106.827817,25.3067272 106.937705,25.296 L109.326098,25.0636721 C109.358183,25.0603186 109.390429,25.0587425 109.422689,25.0589508 C109.556957,25.0585544 109.689918,25.0853205 109.813574,25.1376393 L110.474951,25.4203279 C110.91048,25.6066788 111.154987,26.0735374 111.060131,26.5376656 C110.965274,27.0017938 110.557197,27.3352807 110.083475,27.3358033 L108.930492,27.3257705 L107.674033,27.6674754 L106.196852,28.2900984 L104.88118,29.1672787 C104.933621,29.1589073 104.986633,29.154632 105.039738,29.1544918 C105.08066,29.1545998 105.121533,29.1573597 105.162098,29.1627541 L106.914295,29.3791475 C107.176542,29.4116361 107.415219,29.5467495 107.578033,29.7548852 L108.915738,31.4663607 C109.232878,31.871844 109.189483,32.4520381 108.815554,32.8058338 C108.441624,33.1596295 107.859918,33.1708782 107.47259,32.8318033 L105.975541,31.5202623 L104.019148,31.923541 L103.553311,32.1904918 L103.701443,32.1958033 C103.803203,32.1997127 103.903799,32.2188771 103.999869,32.2526557 L104.822754,32.5457705 C104.974311,32.6000785 105.110596,32.6900135 105.220131,32.808 L105.810295,33.4441967 C105.856741,33.4932872 105.897765,33.5472377 105.932656,33.6051148 L106.418951,34.4069508 C106.671684,34.8239866 106.585954,35.3626044 106.216233,35.6805661 C105.846513,35.9985277 105.30113,36.0026699 104.926623,35.6903607 L103.343607,34.3695738 L101.421049,34.7073443 L100.841705,34.987082 L101.085246,35.024459 C101.19398,35.0408143 101.299107,35.0756794 101.396066,35.127541 L102.136328,35.5154754 C102.257118,35.5786552 102.363542,35.6661252 102.448918,35.7723934 L102.953311,36.397377 C103.022027,36.4829567 103.076193,36.5792594 103.113639,36.6824262 L103.457705,37.6280656 C103.622446,38.0816784 103.438918,38.5881773 103.021838,38.8309703 C102.604758,39.0737634 102.073693,38.9832473 101.76059,38.616 L100.553902,37.1974426 L98.7350164,37.3133115 L98.1627541,37.5655082 L98.3459016,37.6099672 C98.4462146,37.6337144 98.5421947,37.6730092 98.6303607,37.7264262 L99.2974426,38.1314754 C99.4063955,38.1982113 99.5017161,38.2849878 99.5783607,38.3872131 L100.116787,39.1070164 C100.198676,39.2160186 100.257267,39.3407009 100.288918,39.4733115 L100.520656,40.4482623 C100.628997,40.9048625 100.40458,41.3752618 99.9815196,41.578342 C99.5584594,41.7814223 99.0510625,41.6623134 98.7625574,41.2921967 L97.5775082,39.7711475 L95.840459,39.796918 L95.6437377,39.8756066 C95.7583786,39.8962751 95.868506,39.9368904 95.9691148,39.9956066 L96.3729836,40.2316721 C96.4304417,40.2651486 96.4843569,40.3043656 96.5339016,40.3487213 L96.9481967,40.7185574 C96.993435,40.7594737 97.0349733,40.8043034 97.0723279,40.8525246 L97.2940328,41.1387541 C97.3214912,41.1757646 97.3469061,41.2142482 97.3701639,41.2540328 L97.5936393,41.6443279 C97.6224588,41.6955168 97.647128,41.7489338 97.6674098,41.8040656 L97.7791475,42.1178361 C97.7967995,42.1675601 97.8104817,42.2186052 97.8200656,42.2704918 L97.9060328,42.7316066 C98.0025026,43.2436975 97.6886555,43.7437861 97.1855683,43.8796052 C96.682481,44.0154243 96.1595993,43.7412285 95.9852459,43.2501639 L95.8658361,42.9157377 L95.564459,42.4375082 L94.8773115,41.9582951 L93.8819016,41.8717377 L92.9419672,42.1274754 L92.9748197,42.1386885 C93.0501261,42.1657771 93.1218643,42.2019104 93.188459,42.2462951 L93.8179672,42.663541 C93.913521,42.7267046 93.9974437,42.8059022 94.0660328,42.8976393 L94.6038689,43.6180328 C94.6624989,43.6966848 94.7094134,43.7834235 94.7431475,43.875541 L95.0854426,44.8198033 C95.2686196,45.325935 95.0175001,45.8861523 94.5177865,46.0861757 C94.0180728,46.2861992 93.4497603,46.0539809 93.2331148,45.5612459 L92.8567869,44.7051148 L92.4967869,44.3340984 L92.0431475,44.158623 L91.0988852,44.0720656 L89.7442623,44.3803279 L89.3860328,44.4897049 L89.4281311,44.509377 C89.4635029,44.5255602 89.4979198,44.5437539 89.5312131,44.5638689 L90.040918,44.8740984 C90.0754014,44.894963 90.1086382,44.9178215 90.140459,44.9425574 L90.5319344,45.2510164 C90.6202807,45.3208976 90.6962279,45.4051578 90.7565902,45.5002623 L91.0375082,45.9432787 C91.2398316,46.2622817 91.2447803,46.6681587 91.0502951,46.992 L90.9249836,47.2003279 C90.7546139,47.4826196 90.4558766,47.6626129 90.1266885,47.6813115 C90.1070164,47.6824918 90.0887213,47.683082 90.0698361,47.683082 C89.7601591,47.6832325 89.4680018,47.5394437 89.2792131,47.2939672 L88.9977049,46.9276721 L88.6986885,46.7199344 L88.2725902,46.5672787 C88.2462295,46.5578361 88.2210492,46.5476066 88.1958689,46.5361967 L88.0402623,46.4647869 L86.4566557,46.5519344 L85.8883279,46.6882623 C85.8883279,46.6882623 86.2880656,46.9522623 86.3014426,46.9615082 L86.5768525,47.1639344 C86.6194493,47.1949194 86.6593907,47.2293993 86.6962623,47.2670164 L86.8853115,47.4596066 C87.2671518,47.8472369 87.267677,48.4694304 86.8864918,48.8577049 L86.6541639,49.0937705 C86.3195666,49.4365538 85.7880627,49.4918877 85.3900328,49.225377 L85.0447869,48.996 L84.7721311,48.8374426 L84.6344262,48.7980984 L83.8776393,48.6682623 L82.7234754,48.763082 L82.6894426,48.7672131 C82.7311014,48.8081571 82.7687179,48.8530202 82.8017705,48.9011803 L82.9638689,49.132918 C83.2752718,49.5790043 83.1719285,50.1923263 82.731541,50.5117377 L82.3516721,50.7871475 C82.1813052,50.9106812 81.9762771,50.9772568 81.7658361,50.977377 C81.7400656,50.977377 81.7137049,50.977377 81.6871475,50.9744262 L81.1953443,50.936459 L80.1851803,50.868 L78.9468197,50.7802623 C79.1781411,51.1669014 79.1212816,51.6606516 78.8081311,51.9845902 L78.0830164,52.7354754 C77.7682653,53.0604769 77.2742798,53.1331337 76.8792787,52.9125246 C76.8792787,52.9125246 76.612918,52.7638033 76.6038689,52.7586885 L74.8923934,52.7405902 L74.2656393,52.7586885 L72.1967213,52.9951475 L71.6541639,53.1420984 L69.7937705,53.9697049 L69.076918,54.4221639 C69.0190905,54.4583448 68.9577238,54.4885338 68.8937705,54.5122623 L68.1920656,54.7739016 C68.0804803,54.8155129 67.96237,54.8368966 67.8432787,54.8370492 C67.820459,54.8370492 67.7976393,54.8370492 67.7754098,54.8352787 L66.7512787,54.7650492 C66.6633182,54.7591687 66.5765275,54.7416385 66.4931803,54.712918 L65.3407869,54.3143607 L64.7913443,54.2242623 C64.6536873,54.2020427 64.5222869,54.1509575 64.4057705,54.0743607 L64.1014426,53.8754754 L63.3961967,53.8274754 L62.8601311,53.8491148 C61.3432131,54.4020984 49.1580984,58.6597377 30.7823607,59.9641967 C30.759541,59.9659672 30.7361311,59.9665574 30.711541,59.9665574" id="Path" fill="#72778E"></path>
                        <path d="M108.67141,21.5523934 L105.837049,23.5351475 L103.068984,25.8098361 L104.400393,23.7521311 L105.718426,21.6633443 L107.180262,19.6384918 L108.556131,17.7078689 L109.896393,15.8931148 L111.340131,14.1474098 L112.853508,12.5933115 L114.290754,11.1623607 L112.845246,12.351541 L111.422951,13.6048525 L110.02623,14.9211148 L108.658033,16.3298361 L107.227672,17.8947541 L105.689115,19.5934426 L104.109639,21.5130492 L102.306492,23.6982295 L103.723869,20.995082 L105.189246,18.2087213 L106.441574,15.3773115 L107.615016,12.6688525 L108.830557,9.74321311 L109.910951,6.99088525 L110.982492,4.10518033 L111.886033,1.19547541 L110.720262,3.93383607 L109.511803,6.65114754 L108.223082,9.38557377 L106.846033,12.0806557 L105.428066,14.7855738 L103.915869,17.4454426 L102.393443,20.0758033 L100.809836,22.7567213 L101.775541,20.2443934 L102.668852,17.8554098 L103.289705,15.7140984 L103.761836,13.7138361 L104.008918,11.7442623 L104.146623,9.91022951 L104.063016,8.02878689 L103.921377,6.19691803 L103.916066,8.172 L103.800197,10.2794754 L103.286361,12.3926557 L102.629508,14.4393443 L101.793836,16.5361967 L100.797836,18.6411148 L99.6836066,20.7426885 L98.3504262,22.8015738 L98.6441311,22.0648525 L98.9600656,21.2846557 L99.1485246,20.371082 L99.2842623,19.6400656 L99.3629508,18.7548197 L99.4402623,17.9718689 L99.5022295,17.2619016 L99.3991475,16.424459 L99.3312787,15.6830164 L99.1522623,14.9702951 L99.0316721,14.308918 L98.854623,13.5971803 L98.6311475,12.9676721 L98.3514098,12.4194098 L98.026623,11.848918 L97.7486557,11.3028197 L98.2262951,12.6259672 L98.4731803,14.1855738 L98.4796721,16.087082 L98.1987541,18.0668852 L97.7586885,20.0577049 L97.1032131,22.1036066 L96.1967213,24.0118033 L94.9811803,25.6223607 L95.3352787,24.8340984 L95.4365902,24.1148852 L95.5705574,23.3856393 L95.7163279,22.6874754 L95.8540328,21.9596066 L95.8060328,21.2801311 L95.7598033,20.6012459 L95.6756066,20.0358689 L95.2992787,18.9969836 L94.6461639,18.0653115 L93.7923934,17.3624262 L93.3873443,17.1961967 L93.8514098,17.5198033 L94.3335738,17.977377 L94.7419672,18.559082 L94.9935738,19.2501639 L95.1135738,19.9121311 L95.1908852,20.6864262 L95.1891148,21.4477377 L95.0539672,22.1756066 L94.7588852,23.0171803 L94.5757377,23.8288525 L94.1822951,24.7300328 L93.781377,25.4972459 L93.3558689,26.305377 L92.8695738,27.0621639 L92.4090492,27.7742951 L92.6079344,26.3382295 L92.7302951,25.1291803 L92.7175082,23.9881967 L92.5687869,23.026623 L92.136,22.3817705 L91.4632131,21.8360656 L90.4713443,21.519541 L89.0608525,21.4866885 L90.764459,21.7845246 L91.8125902,22.2603934 L92.2292459,23.1849836 L92.266623,24.2817049 L92.1302951,25.011541 L91.8623607,25.7085246 L91.6459672,26.425377 L91.3259016,27.202623 L91.0087869,27.9822295 L90.6922623,28.7594754 L90.4113443,29.5302295 L90.1556066,30.2547541 L90.3129836,29.0362623 L90.4365246,27.7229508 L90.3481967,26.7080656 L90.1487213,25.8261639 L90.0005902,25.4181639 L89.7794754,25.1313443 L89.4857705,24.8661639 L88.8548852,24.4512787 L88.1232787,24.301377 L86.8111475,24.3135738 L87.6527213,24.430623 L88.2753443,24.502623 L88.945377,24.7020984 L89.3041967,24.916918 L89.3370492,25.0087869 L89.7993443,25.4038033 L89.9691148,25.8784918 L90.0539016,26.4415082 L89.9925246,27.046623 L89.5597377,28.272 L88.9416393,29.6502295 L88.2885246,31.042623 L87.6173115,32.504459 L87.8695082,31.3286557 L88.0502951,30.1711475 L87.9261639,29.2711475 L87.7506885,28.4541639 L87.4949508,28.0742951 L87.3216393,27.6001967 L86.9529836,27.3554754 L86.3789508,27.2010492 L85.8511475,27.067082 L85.4659672,27.1026885 L84.212459,27.1658361 L84.9932459,27.2325246 L85.7283934,27.2734426 L86.2528525,27.4068197 L86.6250492,27.5472787 L86.8520656,27.7292459 L87.1821639,27.9849836 L87.4245246,28.438623 L87.5954754,28.9097705 L87.4251148,29.545377 L87.1497049,30.6584262 L86.424,31.9634754 L85.7340984,33.3633443 L84.9698361,34.7819016 L85.2981639,33.4803934 L85.5005902,32.3878033 L85.4695082,31.531082 L85.2196721,30.8376393 L84.9007869,30.5093115 L84.5122623,30.2008525 L83.8556066,29.8245246 L83.1369836,29.7064918 L82.4287869,29.6246557 L81.5128525,29.6305574 L83.3264262,29.8996721 L84.3751475,30.3767213 L84.9159344,31.0941639 L84.835082,31.9825574 L84.452459,33.0177049 L83.7566557,34.1783607 L83.0661639,35.4739672 L82.3076066,36.6836066 L82.7020328,35.5740984 L82.9062295,34.4791475 L82.839541,33.5264262 L82.5908852,32.8329836 L82.4545574,32.4566557 L82.1215082,32.304 L81.4994754,32.0248525 L80.950623,31.8269508 L80.0874098,31.6473443 L78.883082,31.6276721 L80.8038689,31.9711475 L81.8543607,32.4464262 L82.2464262,33.2059672 L82.1352787,33.9983607 L81.6922623,34.9819672 L81.0180984,36.0997377 L80.1981639,37.3603279 L79.3420328,38.6309508 L79.726623,37.4899672 L79.9626885,36.4904262 L80.041377,35.6051803 L79.8137705,34.9719344 L79.5930492,34.6886557 L79.4051803,34.3914098 L79.0365246,34.1460984 L77.3352787,33.8482623 L78.8616393,34.5411148 L79.4714754,35.343541 L79.3678033,35.6132459 L79.3379016,35.8648525 L78.8596721,36.9651148 L78.0438689,38.017377 L77.089377,39.2427541 L76.1636066,40.4295738 L76.4498361,39.9029508 L76.6015082,39.5488525 L76.7799344,39.1554098 L77.0069508,38.5807869 L77.004,38.1243934 L76.9384918,37.7276066 L76.9127213,37.3190164 L76.6558033,36.9391475 L76.4462951,36.5820984 L75.9330492,36.3743607 L75.4912131,36.1491148 L74.6525902,36.031082 L73.0707541,36.2897705 L74.7287213,36.4601311 L75.5942951,36.9867541 L76.1339016,37.705377 L76.1913443,37.8627541 L76.1427541,37.9457705 L75.9495738,38.5162623 L75.5451148,39.3877377 L74.974623,40.2352131 L74.2495082,40.8818361 L73.6841311,41.5209836 L73.1047869,42.1290492 L73.3558033,41.7147541 L73.495082,41.3295738 L73.5623607,40.964459 L73.8017705,39.9655082 L73.6613115,39.5874098 L73.6809836,39.307082 L73.4815082,39.0847869 L73.3288525,38.8841311 L72.9255738,38.6480656 L72.6304918,38.3822951 L72.1874754,38.2599344 L71.5085902,37.9255082 L72.4384918,38.9537705 L72.664918,39.5832787 L72.6845902,39.8541639 L72.4072131,40.4154098 L71.9472787,41.1299016 L71.3531803,41.9128525 L70.5625574,42.8193443 L70.4028197,41.8239344 L70.2336393,41.3504262 L70.099082,40.972918 L69.8018361,40.708918 L69.3247869,40.3882623 L68.7147541,40.1370492 L68.056918,39.9696393 L66.8665574,39.8807213 L65.7182951,40.0184262 L65.1236066,40.3528525 L63.9678689,40.9099672 L66.3540984,40.6760656 L67.4344918,40.9007213 L67.9980984,40.9203934 L68.3872131,41.4383607 L68.7828197,41.9868197 L68.551082,42.6753443 L68.3433443,43.4228852 L67.9178361,44.2316066 L66.951541,45.0820328 L65.6335082,45.8557377 L65.3706885,44.5788197 L64.8082623,45.6655082 L63.8140328,46.558623 L62.6140328,47.5422295 L61.5881311,48.790623 L61.2088525,49.7240656 L61.3465574,50.6557377 L61.4307541,51.2234754 L61.3483279,51.7648525 L60.7367213,52.1722623 L60.1737049,52.603082 C59.3836805,52.9650211 58.5721879,53.2781343 57.7438033,53.5406557 C56.9153483,53.2783348 56.1038435,52.965217 55.3139016,52.603082 L54.7520656,52.1722623 L54.1398689,51.7648525 L54.0568525,51.2234754 L54.1416393,50.6557377 L54.2779672,49.7228852 L53.8975082,48.790623 L52.873377,47.5422295 L51.673377,46.558623 L50.6791475,45.6655082 L50.115541,44.5788197 L49.8521311,45.8551475 L48.5358689,45.0820328 L47.5683934,44.2316066 L47.1428852,43.4228852 L46.9339672,42.6753443 L46.704,41.9868197 L47.1019672,41.4383607 L47.4887213,40.9203934 L48.0523279,40.9007213 L49.131541,40.6772459 L51.5205246,40.9107541 L50.3641967,40.3536393 L49.7695082,40.0192131 L48.6218361,39.8815082 L47.4308852,39.9704262 L46.7718689,40.1378361 L46.1655738,40.3882623 L45.6902951,40.708918 L45.3930492,40.972918 L45.2567213,41.3492459 L45.087541,41.8239344 L44.9272131,42.8193443 L44.1365902,41.9122623 L43.5464262,41.1299016 L43.0819672,40.4138361 L42.8065574,39.8531803 L42.8262295,39.5822951 L43.0520656,38.9527869 L43.9819672,37.9245246 L43.3036721,38.2589508 L42.8618361,38.3813115 L42.5645902,38.647082 L42.1601311,38.8831475 L42.0090492,39.0838033 L41.8078033,39.3060984 L41.8274754,39.5864262 L41.6897705,39.9645246 L41.9258361,40.9634754 L41.9925246,41.3285902 L42.1341639,41.7137705 L42.3834098,42.1280656 L41.8040656,41.5182295 L41.236918,40.879082 L40.5141639,40.2342295 L39.9436721,39.3867541 L39.5398033,38.5152787 L39.3472131,37.9447869 L39.2974426,37.8617705 L39.3554754,37.702623 L39.895082,36.9857705 L40.7624262,36.4591475 L42.4192131,36.2887869 L40.8385574,36.0300984 L39.9958033,36.1481311 L39.5563279,36.3727869 L39.0424918,36.5811148 L38.8341639,36.9381639 L38.5772459,37.3180328 L38.5491148,37.7260328 L38.4841967,38.1234098 L38.5058361,38.737377 L38.710623,39.1540328 L38.8860984,39.548459 L39.0399344,39.9025574 L39.3249836,40.4291803 L38.3980328,39.2423607 L37.447082,38.0169836 L36.6295082,36.9647213 L36.1497049,35.863082 L36.1203934,35.6138361 L36.0173115,35.3441311 L36.6271475,34.5417049 L38.1535082,33.8488525 L36.4522623,34.1466885 L36.0830164,34.392 L35.8951475,34.687082 L35.6734426,34.9721311 L35.4470164,35.6041967 L35.5257049,36.4894426 L35.7633443,37.4889836 L36.1467541,38.6299672 L35.290623,37.3587541 L34.4712787,36.0969836 L33.7971148,34.9809836 L33.356459,33.997377 L33.2429508,33.2049836 L33.6363934,32.4454426 L34.6839344,31.9701639 L36.6047213,31.6266885 L35.4015738,31.6463607 L34.5377705,31.8259672 L33.988918,32.0238689 L33.3680656,32.3030164 L33.0336393,32.4556721 L32.8984918,32.832 L32.6474754,33.5254426 L32.5819672,34.4781639 L32.7861639,35.5731148 L33.1823607,36.682623 L32.4238033,35.4729836 L31.7333115,34.177377 L31.0357377,33.0167213 L30.6517377,31.9796066 L30.5744262,31.0929836 L31.114623,30.375541 L32.1633443,29.8984918 L33.9731803,29.629377 L33.0601967,29.6222951 L32.352,29.7053115 L31.6321967,29.8233443 L30.9761311,30.1996721 L30.5852459,30.5081311 L30.2663607,30.836459 L30.0182951,31.5299016 L29.9872131,32.386623 L30.1896393,33.4792131 L30.517377,34.7807213 L29.7531148,33.3621639 L29.0645902,31.9622951 L28.3367213,30.6572459 L28.0613115,29.5441967 L27.895082,28.9085902 L28.0636721,28.4374426 L28.3083934,27.9838033 L28.6367213,27.7280656 L28.864918,27.5460984 L29.2329836,27.4056393 L29.7596066,27.2722623 L30.4941639,27.2313443 L31.2749508,27.1646557 L30.022623,27.1015082 L29.6374426,27.0659016 L29.1102295,27.1998689 L28.5356066,27.3542951 L28.1645902,27.6 L27.9930492,28.0740984 L27.7373115,28.4539672 L27.5624262,29.2709508 L27.4359344,30.1709508 L27.6161311,31.328459 L27.8683279,32.5042623 L27.2006557,31.042623 L26.5451803,29.6516066 L25.9318033,28.273377 L25.4952787,27.0462295 L25.4333115,26.4411148 L25.516918,25.8798689 L25.6896393,25.4051803 L26.1483934,25.0101639 L26.184,24.9182951 L26.5410492,24.7034754 L27.2128525,24.504 L27.8342951,24.432 L28.676459,24.3149508 L27.3631475,24.3027541 L26.6309508,24.4508852 L26.0014426,24.867541 L25.7063607,25.1327213 L25.4846557,25.419541 L25.3359344,25.827541 L25.136459,26.7094426 L25.051082,27.7243279 L25.1728525,29.0376393 L25.3314098,30.2561311 L25.0744918,29.5298361 L24.7953443,28.7608525 L24.4782295,27.9836066 L24.1599344,27.204 L23.8434098,26.4267541 L23.624459,25.7099016 L23.3575082,25.012918 L23.2211803,24.283082 L23.2605246,23.1863607 L23.6736393,22.2617705 L24.7229508,21.7859016 L26.4259672,21.4880656 L25.0190164,21.5191475 L24.0251803,21.8360656 L23.3527869,22.3798033 L22.9180328,23.0234754 L22.7704918,23.9862295 L22.7577049,25.1272131 L22.8771148,26.3362623 L23.0765902,27.7723279 L22.6172459,27.0601967 L22.1311475,26.3055738 L21.7056393,25.4974426 L21.303541,24.7302295 L20.9132459,23.8290492 L20.727541,23.0163934 L20.432459,22.1748197 L20.2967213,21.4469508 L20.2937705,20.6850492 L20.3740328,19.9113443 L20.4934426,19.249377 L20.744459,18.5582951 L21.1528525,17.9765902 L21.6361967,17.5190164 L22.1016393,17.1934426 L21.6932459,17.3614426 L20.8400656,18.0643279 L20.187541,18.9942295 L19.8123934,20.0346885 L19.7258361,20.6000656 L19.6801967,21.2789508 L19.6339672,21.9584262 L19.7702951,22.6862951 L19.9166557,23.384459 L20.0518033,24.1137049 L20.1501639,24.832918 L20.5042623,25.6211803 L19.2904918,24.0100328 L18.3845902,22.1018361 L17.7297049,20.0559344 L17.2890492,18.0672787 L17.0095082,16.0874754 L17.0171803,14.1859672 L17.2613115,12.6263607 L17.7405246,11.3032131 L17.4625574,11.8493115 L17.1354098,12.4198033 L16.8590164,12.9676721 L16.6325902,13.5971803 L16.455541,14.308918 L16.335541,14.9702951 L16.1584918,15.6830164 L16.0894426,16.424459 L15.987541,17.2619016 L16.048918,17.9718689 L16.1262295,18.7548197 L16.204918,19.6400656 L16.3412459,20.371082 L16.5285246,21.2846557 L16.8432787,22.0648525 L17.1369836,22.8015738 L15.8043934,20.7426885 L14.6889836,18.6403279 L13.6947541,16.5369836 L12.8567213,14.4393443 L12.2006557,12.3922623 L11.6868197,10.279082 L11.5703607,8.17101639 L11.5672131,6.19672131 L11.4243934,8.02859016 L11.3425574,9.91003279 L11.4767213,11.7442623 L11.7220328,13.7142295 L12.1941639,15.7144918 L12.8179672,17.8558033 L13.711082,20.2447869 L14.6767869,22.7565246 L13.0937705,20.0761967 L11.5703607,17.4470164 L10.0575738,14.7859672 L8.6437377,12.0810492 L7.26137705,9.38596721 L5.97737705,6.65154098 L4.76636066,3.93285246 L3.60118033,1.1944918 L4.50491803,4.10360656 L5.57645902,6.98990164 L6.65508197,9.74242623 L7.87219672,12.6688525 L9.04681967,15.3779016 L10.297377,18.2093115 L11.7627541,20.9956721 L13.1803279,23.6978361 L11.3783607,21.5126557 L9.79534426,19.5934426 L8.25855738,17.8939672 L6.82819672,16.3298361 L5.46216393,14.9211148 L4.06111475,13.6048525 L2.64078689,12.3519344 L1.19409836,11.1627541 L2.63311475,12.5937049 L4.1464918,14.1478033 L5.59081967,15.8917377 L6.92852459,17.7082623 L8.30439344,19.6406557 L9.76681967,21.6637377 L11.0864262,23.7525246 L12.4172459,25.8102295 L9.64740984,23.5359344 L6.81462295,21.5531803 L4.03081967,20.2062295 L1.63278689,19.5540984 L2.95652459,19.9807869 L4.54898361,20.7621639 L6.24432787,21.8108852 L8.05101639,23.0996066 L9.79318033,24.5750164 L11.4131803,26.1592131 L12.9897049,27.764459 L14.2624918,29.425377 L11.2642623,27.5712787 L8.4544918,26.288459 L6.06491803,26.0561311 L5.4064918,26.3376393 L6.68695082,26.3270164 L8.13954098,26.7220328 L9.76583607,27.408 L11.3396066,28.4573115 L13.0139016,29.5709508 L14.5109508,30.948 L15.9442623,32.1676721 L12.8478689,30.910623 L10.4490492,30.1532459 L8.6962623,30.3696393 L7.35718033,32.0811148 L9.22603279,30.4441967 L11.8251148,30.9779016 L14.9333115,32.7582295 L18.4658361,34.6876721 L15.3985574,33.6792787 L12.8352787,33.1571803 L11.8245246,33.193377 L10.9982951,33.4859016 L10.4112787,34.1226885 L9.92262295,34.9227541 L11.860918,33.3057049 L14.3756066,33.7481311 L17.5007213,35.2538361 L20.9927213,37.0697705 L17.9289836,36.1685902 L15.6096393,35.8485246 L14.557377,36.0116066 L13.8159344,36.3983607 L13.3127213,37.0245246 L12.9698361,37.9687869 L14.5013115,36.1697705 L16.995541,36.328918 L20.0913443,37.6908197 L23.7503607,39.2732459 L20.5532459,38.5083934 L18.2527869,38.3679344 L17.377377,38.5792131 L16.712459,38.9848525 L16.1728525,39.7046557 L15.9417049,40.6796066 L17.4299016,38.7659016 L19.8495738,38.8005246 L22.8137705,39.9867541 L26.5264918,41.4123934 L23.212918,40.7545574 L20.9702951,40.6638689 L20.4458361,40.7978361 L20.0250492,40.8568525 L19.6190164,41.095082 L19.2076721,41.4655082 L18.9824262,41.7499672 L18.7617049,42.1414426 L18.6487869,42.4561967 L18.5634098,42.9161311 L18.7219672,42.4766557 L19.1883934,41.7369836 L20.2575738,40.9894426 L21.6989508,40.863541 L23.4078689,41.3287869 L24.5685246,41.643541 L25.6963279,42.0554754 L26.9966557,42.6507541 L28.743541,43.2295082 L28.6709508,43.2078689 L28.6469508,43.2739672 L26.3767869,42.931082 L25.0611148,42.8158033 L24.096,42.7274754 L23.6763934,42.7843279 L22.8501639,43.0803934 L22.2251803,43.4976393 L21.6843934,44.2174426 L21.344459,45.1617049 L21.7910164,44.1417049 L22.4289836,43.484459 L23.2131148,43.1789508 L24.4538361,43.0654426 L25.9988852,43.416 L28.1588852,44.0726557 L29.7214426,44.6010492 L31.588918,45.1780328 L29.7336393,45.1241311 L28.0221639,45.003541 L27.286623,45.0462295 L26.9541639,45.1982951 L26.4765246,45.4160656 L25.9662295,45.7262951 L25.5759344,46.0341639 L25.2944262,46.4771803 L25.4197377,46.6843279 L25.7954754,46.1968525 L26.3297705,45.8258361 L26.878623,45.6273443 L27.2608525,45.454623 L29.1763279,45.560459 L31.3780328,46.0894426 L32.8815738,46.567082 L35.2619016,47.0441311 L34.1289836,46.9768525 L33.5525902,46.9223607 L32.6736393,46.9264918 L31.484459,47.1232131 L30.6428852,47.2412459 L30.3,47.4232131 L30.0377705,47.5947541 L29.7773115,47.7662951 L29.5058361,47.9681311 L29.3138361,48.1601311 L29.5485246,48.3961967 L29.9177705,48.1504918 L30.3228197,47.9144262 L30.6312787,47.824918 L31.5688525,47.664 L32.847541,47.7692459 L33.994623,47.9085246 L36.1377049,48.4908197 L37.7183607,48.7495082 L39.0971803,49.0198033 L37.6620984,48.9062951 L36.2041967,48.8565246 L35.0289836,49.1262295 L34.0815738,49.2116066 L33.6741639,49.3443934 L33.5073443,49.4720656 L33.3434754,49.7049836 L33.7221639,49.9803934 L34.2173115,49.9430164 L35.2379016,49.8739672 L36.5476721,49.7797377 L37.4419672,49.8505574 L39.5557377,50.1830164 L40.8836066,50.3702951 L42.2256393,50.7354098 L40.9135082,50.6213115 L39.8049836,50.5943607 L38.686623,50.7072787 L37.918623,50.9508197 L37.6798033,51.0572459 L37.3977049,51.2933115 L38.1228197,52.0441967 L38.3732459,51.9043279 L38.5019016,51.768 L40.5836066,51.7451803 L41.2941639,51.7648525 L43.4777705,52.012918 L44.1662951,52.1996066 L46.1608525,53.0874098 L46.9410492,53.5778361 L47.6445246,53.8382951 L48.6674754,53.7686557 L49.8993443,53.3431475 L50.5325902,53.2394754 L51.0580328,52.8954098 L52.0792131,52.8281311 L52.825377,52.8580328 C52.825377,52.8580328 54.0180984,53.3150164 56.2500984,53.9852459 C46.549377,56.6744262 29.8697705,57.543541 29.8697705,57.543541 L30.7113443,58.9685902 C42.9971803,58.0959344 52.4128525,55.9247213 57.742623,54.4207869 C63.0718033,55.924918 72.4868852,58.0961311 84.7733115,58.968 L85.6137049,57.5429508 C85.6137049,57.5429508 68.9362623,56.6744262 59.2349508,53.9858361 C61.4681311,53.3152131 62.6608525,52.8580328 62.6608525,52.8580328 L63.4083934,52.8281311 L64.4283934,52.8971803 L64.951082,53.2394754 L65.5855082,53.3431475 L66.817377,53.7692459 L67.8415082,53.8394754 L68.5438033,53.5778361 L69.3216393,53.0874098 L71.317377,52.1996066 L72.0072787,52.012918 L74.192459,51.7648525 L74.9006557,51.7451803 L76.9823607,51.768 L77.1127869,51.9043279 L77.362623,52.0441967 L78.0871475,51.2933115 L77.8032787,51.0572459 L77.5672131,50.9508197 L76.8017705,50.7078689 L75.684,50.5967213 L74.5760656,50.6213115 L73.2633443,50.7354098 L74.6057705,50.3702951 L75.9344262,50.1836066 L78.0499672,49.8511475 L78.9407213,49.7803279 L80.2516721,49.8745574 L81.2722623,49.9436066 L81.7640656,49.9809836 L82.1439344,49.7055738 L81.9818361,49.4726557 L81.8138361,49.3449836 L81.409377,49.2121967 L80.4572459,49.1268197 L79.2843934,48.8571148 L77.8264918,48.9068852 L76.3904262,49.0209836 L77.7692459,48.7500984 L79.351082,48.4914098 L81.4941639,47.9091148 L82.6394754,47.7698361 L83.9181639,47.6649836 L84.8557377,47.8253115 L85.1647869,47.9148197 L85.5698361,48.1508852 L85.9396721,48.3965902 L86.172,48.1605246 L85.9829508,47.9685246 L85.707541,47.7666885 L85.4488525,47.5963279 L85.1848525,47.4236066 L84.8431475,47.2416393 L84.0033443,47.1236066 L82.8141639,46.9268852 L81.9352131,46.9245246 L81.3582295,46.9784262 L80.2247213,47.0457049 L82.6050492,46.5686557 L84.1074098,46.0910164 L86.3097049,45.5620328 L88.2287213,45.4561967 L88.608,45.628918 L89.1588197,45.8274098 L89.6931148,46.1984262 L90.0688525,46.6864918 L90.1941639,46.4787541 L89.9132459,46.0357377 L89.5217705,45.7278689 L89.0114754,45.4176393 L88.5361967,45.1998689 L88.1984262,45.0478033 L87.4656393,45.0068852 L85.7541639,45.124918 L83.8979016,45.1788197 L85.7641967,44.6018361 L87.3273443,44.0740328 L89.4857705,43.4167869 L91.0314098,43.0662295 L92.2707541,43.1797377 L93.0576393,43.4840656 L93.6944262,44.1413115 L94.1439344,45.1613115 L93.8016393,44.2170492 L93.2638033,43.4972459 L92.6342951,43.08 L91.8080656,42.7839344 L91.388459,42.727082 L90.4245246,42.8154098 L89.1088525,42.9306885 L86.8380984,43.2735738 L86.8146885,43.2074754 L86.744459,43.2297049 L88.4878033,42.6503607 L89.7904918,42.055082 L90.9171148,41.6431475 L92.0817049,41.3283934 L93.7882623,40.8631475 L95.2266885,40.9890492 L96.2970492,41.7365902 L96.7646557,42.4768525 L96.9220328,42.9163279 L96.8360656,42.4558033 L96.7237377,42.1410492 L96.5008525,41.7507541 L96.2791475,41.4639344 L95.8660328,41.0946885 L95.4615738,40.8570492 L95.041377,40.7980328 L94.5159344,40.6640656 L92.2721311,40.7547541 L88.9615082,41.4125902 L92.6736393,39.9869508 L95.6378361,38.8024918 L98.0559344,38.7662951 L99.5464918,40.68 L99.3147541,39.7050492 L98.7763279,38.9852459 L98.1086557,38.5801967 L97.2332459,38.368918 L94.9327869,38.5087869 L91.738623,39.2736393 L95.3939016,37.6912131 L98.4914754,36.3293115 L100.986295,36.1701639 L102.51659,37.9697705 L102.173115,37.0241311 L101.669311,36.3997377 L100.929639,36.0112131 L99.8744262,35.8479344 L97.5568525,36.1691803 L94.4901639,37.0703607 L97.9862951,35.2544262 L101.109049,33.7497049 L103.623738,33.3066885 L105.562623,34.924918 L105.075738,34.123082 L104.485574,33.4862951 L103.661508,33.1937705 L102.649574,33.1575738 L100.087475,33.6802623 L97.0229508,34.688459 L100.551934,32.7590164 L103.660131,30.980459 L106.258033,30.4449836 L108.126885,32.0824918 L106.78918,30.3710164 L105.036984,30.1532459 L102.636984,30.910623 L99.5405902,32.1676721 L100.975082,30.948 L102.473311,29.5721311 L104.145443,28.459082 L105.719213,27.4085902 L107.346098,26.722623 L108.799279,26.3276066 L110.080918,26.3388197 L109.420131,26.0567213 L107.031738,26.2890492 L104.222951,27.5720656 L101.223541,29.4261639 L102.497508,27.7652459 L104.073049,26.16 L105.69423,24.5763934 L107.435803,23.0998033 L109.241902,21.811082 L110.938426,20.7623607 L112.530885,19.9827541 L113.853443,19.5542951 L111.456393,20.2062295 L108.67141,21.5523934 Z M48.5523934,46.4691148 L49.4313443,47.020918 L49.9231475,47.5347541 L50.1578361,47.7729836 L50.1261639,48.0737705 L50.0512131,48.5051803 L49.9160656,48.8826885 L49.801377,49.1974426 L49.8470164,49.6264918 L50.4961967,50.2520656 L49.0646557,49.5843934 L48.0023607,48.9869508 L47.3521967,48.3574426 L47.1426885,48.0578361 L47.2544262,47.7440656 L47.4779016,47.4572459 L47.6130492,47.0791475 L47.6523934,46.6396721 L47.6207213,46.2855738 L47.0817049,45.7937705 L48.5523934,46.4691148 Z M44.0278033,44.2013115 L45.2807213,44.8176393 L46.2328525,45.3881311 L46.7366557,45.9782951 L46.9467541,46.1714754 L47.0362623,46.4734426 L46.8893115,46.8836066 L46.6798033,47.2424262 L46.5651148,47.5583607 L46.6119344,47.984459 L47.2380984,48.6729836 L45.792,48.0385574 L44.7450492,47.4064918 L44.1639344,46.8 L43.9894426,46.4065574 L44.0681311,46.1852459 L44.2032787,45.8071475 L44.3531803,45.3975738 L44.3940984,45.0631475 L44.3982295,44.7184918 L44.0278033,44.2013115 Z M40.788,42.4538361 L42.1257049,43.0601311 L42.996,43.7486557 L43.4980328,44.2296393 L43.711082,44.5304262 L43.7777705,44.8943607 L43.6642623,45.2091148 L43.5147541,45.6196721 L43.4024262,45.9344262 L43.3237377,46.1551475 L43.4238689,46.4236721 L43.6223607,46.6500984 L43.9664262,47.0222951 L42.5313443,46.3552131 L41.5060328,45.6588197 L40.9158689,45.085377 L40.752,44.7641311 L40.868459,44.449377 L41.0527869,44.1542951 L41.1904918,43.7744262 L41.2648525,43.3459672 L41.2707541,43.0019016 L40.788,42.4538361 Z M38.9620328,41.439541 L39.8669508,42.0297049 L40.3445902,42.5763934 L40.5434754,42.804 L40.5375738,43.1474754 L40.3894426,43.556459 L40.2531148,43.9351475 L40.1390164,44.2499016 L40.1736393,44.7080656 L40.8145574,45.3688525 L39.3900984,44.6700984 L38.3535738,44.0063607 L37.7612459,43.4323279 L37.623541,43.0467541 L37.6158689,42.7341639 L37.873377,42.3548852 L38.0588852,42.0576393 L38.1965902,41.6801311 L38.1299016,41.3144262 L37.552918,40.7081311 L38.9620328,41.439541 Z M34.5230164,40.9227541 L34.7443279,40.6371148 L34.9544262,40.2800656 L34.9937705,39.9456393 L35.0331148,39.5061639 L34.5413115,38.8876721 L35.9651803,39.6900984 L36.7371148,40.3156721 L37.207082,40.8932459 L37.4038033,41.119082 L37.399082,41.464918 L37.2965902,41.7476066 L37.1502295,42.1565902 L37.035541,42.4731148 L36.9568525,42.6932459 L36.9708197,42.8702951 L37.2428852,43.2214426 L37.6363279,43.5708197 L36.2622295,42.9544918 L35.2491148,42.229377 L34.6914098,41.5593443 L34.4439344,41.1462295 L34.5230164,40.9227541 Z M32.9862295,37.9422295 L33.7365246,38.6321311 L34.2295082,39.1455738 L34.404,39.4359344 L34.2893115,39.7506885 L34.1516066,40.129377 L34.0022951,40.537377 L33.8911475,40.8539016 L33.8460984,40.9798033 L33.9356066,41.2823607 L34.1126557,41.677377 L34.6001311,41.9805246 L33.188459,41.2500984 L32.1385574,40.5149508 L31.6060328,39.8854426 L31.4649836,39.3979672 L31.5452459,39.1760656 L31.8009836,38.7956066 L31.9052459,38.5123279 L32.0305574,38.1676721 L32.080918,37.695541 L31.6841311,37.1366557 L32.9862295,37.9422295 Z M29.4584262,35.6445246 L28.9739016,34.9931803 L30.2549508,35.8587541 L31.0660328,36.6001967 L31.400459,37.1045902 L31.5625574,37.4281967 L31.5356066,37.7307541 L31.3142951,38.1186885 L31.1744262,38.4979672 L30.9548852,38.7836066 L31.0064262,38.9708852 L30.9867541,39.2423607 L31.1992131,39.5419672 L31.6300328,40.006623 L30.4589508,39.1674098 L29.5377049,38.4001967 L29.0789508,37.7885902 L28.8291148,37.3754754 L28.9571803,37.028459 L29.1299016,36.7650492 L29.388,36.384 L29.5257049,36.0064918 L29.4584262,35.6445246 Z M26.2402623,34.940459 L26.4598033,34.5495738 L26.6740328,34.2985574 L26.7851803,33.9820328 L26.8758689,33.7286557 L26.8260984,33.5419672 L26.7582295,33.2820984 L26.4005902,32.839082 L27.5523934,33.739082 L28.3628852,34.5849836 L28.7344918,35.1011803 L28.8017705,35.4657049 L28.8322623,35.7161311 L28.6841311,36.1245246 L28.4606557,36.4113443 L28.2511475,36.7672131 L28.1921311,36.9245902 L28.2851803,37.2271475 L28.4584918,37.5145574 L28.819082,37.9587541 L27.6082623,37.1106885 L26.7139672,36.2791475 L26.3008525,35.5445902 L26.1598033,35.1605902 L26.2402623,34.940459 Z M23.9958689,32.4269508 L24.2059672,32.0663607 L24.2820984,31.6379016 L24.3607869,31.4183607 L24.3080656,31.231082 L24.3180984,30.9922623 L24.0454426,30.6393443 L25.0880656,31.5102295 L25.7897705,32.3242623 L26.0543607,32.9177705 L26.1556721,33.1874754 L26.1509508,33.5327213 L26.0034098,33.9401311 L25.6868852,34.2672787 L25.5716066,34.5861639 L25.5147541,34.743541 L25.5820328,35.1068852 L25.7559344,35.3978361 L26.1527213,35.9549508 L24.9312787,35.0348852 L24.1528525,34.0967213 L23.6935082,33.4880656 L23.5542295,33.1019016 L23.775541,32.7127869 L23.9958689,32.4269508 Z M21.3306885,30.4203934 L21.5758033,30.0716066 L21.7965246,29.6824918 L21.9328525,29.3043934 L21.9902951,29.1458361 L21.997377,28.9058361 L21.9792787,28.624918 L21.6562623,28.1921311 L22.774623,29.1869508 L23.3423607,30.0356066 L23.6472787,30.6354098 L23.7883279,31.02 L23.6730492,31.3347541 L23.463541,31.6918033 L23.2178361,32.0417705 L23.0305574,32.3378361 L22.9410492,32.5888525 L23.0423607,32.8585574 L23.1330492,33.1611148 L23.4554754,33.5939016 L22.3892459,32.680918 L21.6023607,31.8784918 L21.2876066,31.1000656 L21.2396066,30.673377 L21.3306885,30.4203934 Z M19.6833443,26.4771148 L20.292,27.3356066 L20.6437377,28.0180328 L20.7830164,28.4014426 L20.7765246,28.6438033 L20.7478033,29.0518033 L20.6002623,29.4607869 L20.4849836,29.775541 L20.5166557,30.025377 L20.6179672,30.2968525 L20.8678033,30.7099672 L21.0690492,31.1459016 L20.0378361,30.136918 L19.3099672,29.2825574 L18.7522623,28.5088525 L18.7434098,28.0904262 L18.747541,27.7445902 L18.8622295,27.4298361 L18.9481967,26.9704918 L18.9861639,26.5298361 L19.0451803,26.372459 L19.051082,26.132459 L18.9621639,25.8316721 L18.7101639,25.4163934 L19.6833443,26.4771148 Z M16.7636066,23.9535738 L17.3704918,24.7062295 L17.7456393,25.3282623 L17.8860984,25.7116721 L17.9521967,26.077377 L18.0944262,26.5648525 L18.0072787,27.025377 L18.076918,27.391082 L18.0932459,27.672 L18.267541,27.9611803 L18.5191475,28.3766557 L18.838623,28.8108197 L17.9561311,28.0506885 L17.22,27.3314754 L16.6868852,26.5975082 L16.4610492,26.1198689 L16.5137705,25.7541639 L16.4716721,25.3257049 L16.4571148,24.8041967 L16.4108852,24.3775082 L16.3945574,24.096 L16.3302295,23.835541 L16.1183607,23.5365246 L15.9540984,23.2131148 L16.7636066,23.9535738 Z M14.3179672,26.6445246 L13.6853115,25.851541 L13.1708852,24.8459016 L13.700459,25.3685902 L14.152918,25.6652459 L15.195541,26.0878033 L15.9615738,26.4009836 L16.4262295,26.768459 L17.0049836,27.3759344 L17.7200656,28.1600656 L18.1619016,29.1436721 L17.473377,28.5074754 L16.9139016,28.1832787 L15.9540984,27.8508197 L15.1048525,27.447541 L14.8192131,27.1286557 L14.3179672,26.6445246 Z M15.368459,29.1458361 L14.512918,27.9806557 L15.2000656,28.5118033 L15.687541,28.8184918 L16.5771148,28.7834754 L17.3612459,28.8228197 L17.9793443,29.0948852 L18.6419016,29.6895738 L19.5999344,30.5748197 L20.5245246,31.6558033 L19.5718033,30.9816393 L18.9192787,30.8045902 L18.1351475,30.7642623 L17.1318689,30.5612459 L16.7901639,30.3991475 L16.1445246,29.9803279 L15.368459,29.1458361 Z M17.652,32.432459 L16.7384262,31.4228852 L17.4822295,31.7980328 L18.0598033,31.8501639 L18.901377,31.7337049 L19.8137705,31.6353443 L20.3592787,31.7834754 L21.099541,32.1572459 L22.0925902,32.9441311 L23.1352131,33.9208525 L22.1889836,33.5608525 L21.5376393,33.4882623 L20.5866885,33.5748197 L19.7836721,33.7024918 L19.2387541,33.5543607 L18.6037377,33.1042623 L17.652,32.432459 Z M20.1426885,34.8066885 L19.162623,33.7770492 L19.8678689,34.2458361 L20.4694426,34.2352131 L21.490623,34.1685246 L22.2578361,33.9267541 L22.8033443,34.0742951 L23.617377,34.4687213 L24.644459,35.2670164 L25.6890492,36.2431475 L24.6548852,35.7906885 L24.0544918,35.7989508 L23.0718689,35.9820984 L22.1923279,35.9850492 L21.7563934,35.8670164 L21.0149508,35.4900984 L20.1426885,34.8066885 Z M23.6236721,37.7596721 L22.6487213,37.1486557 L21.565377,36.0578361 L22.417377,36.4617049 L22.9634754,36.6110164 L23.9215082,36.3881311 L24.7965246,36.1739016 L25.3396721,36.3238033 L26.1912787,36.727082 L27.2171803,37.4222951 L28.3565902,38.3539672 L27.2996066,37.9624918 L26.7342295,37.9821639 L25.753377,38.1647213 L24.7642623,38.139541 L24.328918,38.0201311 L23.6236721,37.7596721 Z M26.3384262,39.8478689 L25.3294426,39.3322623 L24.2122623,38.3356721 L25.0654426,38.7407213 L25.6664262,38.7300984 L26.6028197,38.5709508 L27.4766557,38.3573115 L28.0461639,38.4438689 L28.968,38.8670164 L30.0173115,39.4984918 L31.1667541,40.399082 L30.1713443,39.9554754 L29.5691803,39.9655082 L28.5619672,40.2096393 L27.5783607,40.2883279 L27.1062295,40.1596721 L26.3384262,39.8478689 Z M29.0392131,42.0267541 L28.0408525,41.4782951 L26.8878689,40.5771148 L27.8832787,40.916459 L28.375082,40.8784918 L28.8690492,40.8391475 L29.4198689,40.7460984 L29.8746885,40.5928525 L30.136918,40.419541 L30.6777049,40.4657705 L31.6603279,40.8367869 L32.7834098,41.487541 L33.9690492,42.3993443 L32.9016393,42.0387541 L32.2994754,42.0487869 L31.8552787,42.1687869 L31.3420328,42.272459 L30.7796066,42.3983607 L30.3576393,42.4558033 L29.8133115,42.3064918 L29.0392131,42.0267541 Z M31.0154754,43.2224262 L29.7350164,42.3568525 L30.6082623,42.697377 L31.2824262,42.7095738 L31.7254426,42.5872131 L32.2896393,42.4624918 L32.744459,42.3098361 L33.1518689,42.2817049 L34.7846557,42.6228197 L37.1372459,44.0588852 L36.0470164,43.7622295 L35.2994754,43.7323279 L34.4142295,43.976459 L33.2846557,44.1210492 L32.8831475,44.0099016 L32.0480656,43.678623 L31.0154754,43.2224262 Z M35.0998033,45.6143607 L32.7737705,44.3242623 L33.6590164,44.635082 L34.2857705,44.5607213 L34.8476066,44.4383607 L35.2912131,44.316 L35.8178361,44.1832131 L36.0554754,44.0750164 L37.8082623,44.4121967 L40.2814426,45.7436066 L39.2256393,45.4556066 L38.5174426,45.4359344 L38.0398033,45.6537049 L37.4903607,45.8486557 L36.8547541,45.952918 L36.4685902,45.9179016 L35.0998033,45.6143607 Z M35.8068197,46.0837377 L36.6920656,46.3951475 L37.4254426,46.3500984 L37.9172459,46.3127213 L38.3937049,46.0949508 L38.911082,45.9965902 L39.2939016,45.8220984 L40.9463607,46.0975082 L43.515541,47.4902951 L42.3521311,47.1731803 L41.6077377,47.2469508 L41.235541,47.2837377 L40.7228852,47.4920656 L40.1968525,47.6242623 L39.6800656,47.7279344 L38.3030164,47.4558689 L35.8068197,46.0837377 Z M41.4660984,49.0784262 L39.0572459,47.7997377 L39.9322623,48.1402623 L40.6280656,48.087541 L41.191082,47.9628197 L41.7405246,47.7672787 L42.1847213,47.6443279 L42.4961311,47.5577705 L44.2091803,47.7806557 L46.776,49.0687869 L45.6511475,48.7615082 L44.9165902,48.8047869 L44.4641311,48.9574426 L43.9239344,49.1224918 L43.3259016,49.3388852 L42.8460984,49.3465574 L41.4660984,49.0784262 Z M42.2952787,49.5448525 L43.2985574,49.7490492 L44.0067541,49.6642623 L44.4163279,49.6367213 L44.9763934,49.4091148 L45.4556066,49.2961967 L45.8630164,49.1669508 L47.4824262,49.4333115 L49.9977049,50.6376393 L48.9584262,50.424 L48.1782295,50.4859672 L47.804459,50.6287869 L47.1478033,50.7938361 L46.5601967,50.8780328 L46.1032131,50.9260328 L44.8337705,50.6848525 L42.2952787,49.5448525 Z M52.232459,52.0742951 L51.5571148,52.063082 L51.1013115,52.216918 L50.5540328,52.4148197 L49.9687869,52.6015082 L49.5076721,52.5446557 L48.1798033,52.3567869 L45.6639344,51.1542295 L46.5710164,51.4011148 L47.1611803,51.3180984 L47.7609836,51.3074754 L48.272459,50.9960656 L48.7898361,50.8947541 L49.1584918,50.7525246 L50.8615082,51.0094426 L53.3205246,52.3707541 L52.232459,52.0742951 Z M52.2487869,51.2480656 L51.2750164,50.6382295 L50.5534426,50.0944918 L50.4123934,49.7122623 L50.5264918,49.3963279 L50.6411803,49.0815738 L50.8864918,48.733377 L51.0005902,48.4174426 L50.955541,47.9901639 L50.2473443,47.5201967 L51.7139016,48.0918689 L52.6538361,48.6958033 L53.1952131,49.1876066 L53.3685246,49.4750164 L53.3649836,49.8214426 L53.3228852,50.1558689 L53.1871475,50.533377 L53.072459,50.8499016 L53.1086557,51.3080656 L53.6962623,51.8838689 L52.2487869,51.2480656 Z M97.3196066,27.8909508 L97.495082,27.6029508 L97.5125902,27.3214426 L97.5780984,26.956918 L97.4921311,26.4952131 L97.6361311,26.0077377 L97.704,25.6420328 L97.8456393,25.258623 L98.2194098,24.6365902 L98.8257049,23.8839344 L99.6344262,23.1442623 L99.4711475,23.4678689 L99.260459,23.7662951 L99.1943607,24.0261639 L99.1746885,24.3082623 L99.1308197,24.7349508 L99.118623,25.256459 L99.0747541,25.6843279 L99.1262951,26.050623 L98.900459,26.5288525 L98.3673443,27.2622295 L97.6312131,27.982623 L96.747541,28.7409836 L97.0699672,28.3062295 L97.3196066,27.8909508 Z M94.7228852,30.640918 L94.9727213,30.2278033 L95.0763934,29.9563279 L95.1027541,29.7064918 L94.9880656,29.3917377 L94.8422951,28.9827541 L94.8141639,28.5747541 L94.8064918,28.3323934 L94.9469508,27.9489836 L95.2975082,27.2665574 L95.9049836,26.4086557 L96.8781639,25.3463607 L96.628918,25.7618361 L96.5388197,26.0620328 L96.5447213,26.3032131 L96.6037377,26.4605902 L96.6399344,26.9012459 L96.7288525,27.3605902 L96.8417705,27.6777049 L96.8464918,28.0217705 L96.8370492,28.4401967 L96.2799344,29.2139016 L95.5530492,30.0688525 L94.5200656,31.0772459 L94.7228852,30.640918 Z M91.9418361,30.5665574 L92.2461639,29.9655738 L92.8166557,29.116918 L93.9302951,28.1226885 L93.6090492,28.5568525 L93.589377,28.836 L93.596459,29.0765902 L93.6554754,29.2339672 L93.7894426,29.6132459 L94.0107541,30.0023607 L94.2558689,30.3517377 L94.3483279,30.6051148 L94.3026885,31.0323934 L93.9849836,31.8102295 L93.1980984,32.6120656 L92.1312787,33.5256393 L92.4525246,33.0928525 L92.5455738,32.7914754 L92.6439344,32.5205902 L92.5538361,32.2695738 L92.3659672,31.9744918 L92.1218361,31.6245246 L91.912918,31.2680656 L91.7982295,30.9521311 L91.9418361,30.5665574 Z M89.5371148,32.8485246 L89.8005246,32.2544262 L90.5051803,31.4403934 L91.5478033,30.5700984 L91.2723934,30.9224262 L91.2806557,31.1612459 L91.2291148,31.3491148 L91.3105574,31.5674754 L91.384918,31.9977049 L91.5926557,32.3565246 L91.8161311,32.6427541 L92.0374426,33.0330492 L91.8987541,33.4180328 L91.4388197,34.0266885 L90.6609836,34.9642623 L89.4383607,35.8855082 L89.8363279,35.3272131 L90.0090492,35.0362623 L90.0763279,34.6735082 L90.0194754,34.5161311 L89.9047869,34.1978361 L89.5888525,33.8700984 L89.4413115,33.4632787 L89.4354098,33.1174426 L89.5371148,32.8485246 Z M86.7871475,35.3948852 L86.8538361,35.0309508 L87.2276066,34.5135738 L88.0380984,33.6708197 L89.1904918,32.7696393 L88.8304918,33.2126557 L88.7655738,33.4719344 L88.7140328,33.6609836 L88.803541,33.9125902 L88.9194098,34.2285246 L89.1300984,34.479541 L89.3490492,34.8704262 L89.4299016,35.0921311 L89.2894426,35.4749508 L88.8763279,36.2100984 L87.9802623,37.0428197 L86.7718033,37.8887213 L87.1288525,37.4457049 L87.3043279,37.1577049 L87.3944262,36.8551475 L87.3381639,36.6989508 L87.1286557,36.3401311 L86.904,36.0539016 L86.7576393,35.6443279 L86.7871475,35.3948852 Z M84.1892459,37.0353443 L84.5236721,36.5303607 L85.3323934,35.7912787 L86.6152131,34.9233443 L86.132459,35.5752787 L86.0645902,35.9370492 L86.1997377,36.3145574 L86.4590164,36.6956066 L86.6333115,36.9596066 L86.7598033,37.3054426 L86.5099672,37.7185574 L86.0523934,38.3313443 L85.1311475,39.0985574 L83.9582951,39.9371803 L84.391082,39.4737049 L84.6011803,39.1740984 L84.5842623,38.9020328 L84.634623,38.7147541 L84.412918,38.4291148 L84.2742295,38.0504262 L84.0540984,37.6619016 L84.0247869,37.3593443 L84.1892459,37.0353443 Z M81.2596721,38.9754098 L81.7514754,38.4621639 L82.4990164,37.7736393 L83.8052459,36.967082 L83.408459,37.5247869 L83.4594098,37.996918 L83.5847213,38.3433443 L83.6872131,38.6254426 L83.9429508,39.0064918 L84.0238033,39.2278033 L83.8803934,39.7158689 L83.3492459,40.345377 L82.2987541,41.0805246 L80.8882623,41.8109508 L81.3751475,41.5083934 L81.5535738,41.1127869 L81.6424918,40.8102295 L81.5992131,40.6843279 L81.4839344,40.3678033 L81.3358033,39.9598033 L81.2000656,39.5817049 L81.085377,39.2657705 L81.2596721,38.9754098 Z M78.4548197,42.4721311 L78.339541,42.157377 L78.1931803,41.746623 L78.0877377,41.4639344 L78.0841967,41.1180984 L78.2820984,40.8922623 L78.7502951,40.3152787 L79.5228197,39.6891148 L80.9460984,38.8866885 L80.4542951,39.5051803 L80.4922623,39.9446557 L80.5349508,40.279082 L80.7438689,40.6361311 L80.9651803,40.9217705 L81.0454426,41.143082 L80.7985574,41.5561967 L80.2420328,42.2262295 L79.2277377,42.9513443 L77.8548197,43.5676721 L78.2468852,43.2188852 L78.5183607,42.8671475 L78.5335082,42.6926557 L78.4548197,42.4721311 Z M75.1406557,42.5763934 L75.620459,42.0297049 L76.525377,41.439541 L77.9380328,40.7091148 L77.3592787,41.3154098 L77.2902295,41.6811148 L77.4259672,42.058623 L77.6120656,42.3558689 L77.8689836,42.7351475 L77.8619016,43.0477377 L77.722623,43.4333115 L77.132459,44.0073443 L76.0953443,44.6716721 L74.6726557,45.3698361 L75.310623,44.7108197 L75.3474098,44.2508852 L75.2327213,43.9343607 L75.0950164,43.5568525 L74.9474754,43.1488525 L74.9427541,42.8041967 L75.1406557,42.5763934 Z M72.0855738,45.9344262 L71.9714754,45.6184918 L71.8245246,45.208918 L71.7092459,44.8941639 L71.7765246,44.5302295 L71.9907541,44.2294426 L72.4921967,43.748459 L73.3613115,43.0599344 L74.6980328,42.4536393 L74.216459,43.0020984 L74.2217705,43.3461639 L74.2967213,43.774623 L74.4354098,44.1544918 L74.6226885,44.4495738 L74.7344262,44.7643279 L74.572918,45.0855738 L73.9827541,45.6590164 L72.9568525,46.3554098 L71.5217705,47.0224918 L71.8658361,46.6502951 L72.0625574,46.4238689 L72.1620984,46.1553443 L72.0855738,45.9344262 Z M68.5402623,46.1720656 L68.7485902,45.9771148 L69.2547541,45.3869508 L70.2074754,44.816459 L71.4603934,44.2001311 L71.086623,44.7163279 L71.0925246,45.0609836 L71.1318689,45.3975738 L71.2811803,45.8055738 L71.4188852,46.1836721 L71.4975738,46.4049836 L71.3205246,46.7984262 L70.743541,47.4059016 L69.6954098,48.0379672 L68.2493115,48.6723934 L68.8766557,47.9838689 L68.9228852,47.5577705 L68.8076066,47.2418361 L68.5992787,46.8830164 L68.4505574,46.4728525 L68.5402623,46.1720656 Z M65.5642623,47.533377 L66.052918,47.0207213 L66.9348197,46.468918 L68.404918,45.7935738 L67.864918,46.2885246 L67.8332459,46.642623 L67.8741639,47.080918 L68.0087213,47.4590164 L68.2321967,47.7458361 L68.3439344,48.0596066 L68.1344262,48.3598033 L67.4842623,48.9877377 L66.4243279,49.5851803 L64.9904262,50.2528525 L65.6411803,49.6266885 L65.6862295,49.1982295 L65.5703607,48.8834754 L65.4340328,48.5059672 L65.3596721,48.0757377 L65.3285902,47.7737705 L65.5642623,47.533377 Z M62.2986885,50.5321967 L62.1641311,50.156459 L62.1202623,49.820459 L62.1167213,49.4740328 L62.2912131,49.186623 L62.8325902,48.6948197 L63.7707541,48.0908852 L65.2402623,47.5192131 L64.5320656,47.9874098 L64.4864262,48.416459 L64.6005246,48.7323934 L64.8462295,49.0805902 L64.960918,49.3953443 L65.0732459,49.7118689 L64.9345574,50.0940984 L64.2118033,50.6378361 L63.2356721,51.2476721 L61.7907541,51.8832787 L62.3824918,51.3074754 L62.4159344,50.8493115 L62.2986885,50.5321967 Z M67.3076066,52.3563934 L65.9785574,52.5442623 L65.518623,52.6011148 L64.9339672,52.4144262 L64.3857049,52.2165246 L63.9293115,52.0632787 L63.2545574,52.0739016 L62.1660984,52.3717377 L64.6282623,51.0092459 L66.3295082,50.7523279 L66.6969836,50.8945574 L67.2143607,50.9958689 L67.7258361,51.3072787 L68.3268197,51.3179016 L68.9144262,51.400918 L69.8238689,51.1540328 L67.3076066,52.3563934 Z M70.6518689,50.6842623 L69.3841967,50.9254426 L68.926623,50.8774426 L68.3396066,50.7932459 L67.6823607,50.6281967 L67.3085902,50.4865574 L66.5295738,50.4234098 L65.4869508,50.6370492 L68.0069508,49.4327213 L69.6228197,49.1663607 L70.0312131,49.2956066 L70.5098361,49.4091148 L71.071082,49.6361311 L71.4812459,49.6636721 L72.1894426,49.748459 L73.1927213,49.5442623 L70.6518689,50.6842623 Z M74.0199344,49.0778361 L72.6428852,49.3487213 L72.1619016,49.3392787 L71.5615082,49.1228852 L71.023082,48.9572459 L70.570623,48.8045902 L69.8366557,48.7613115 L68.7100328,49.0685902 L71.278623,47.780459 L72.9916721,47.5581639 L73.3042623,47.6447213 L73.7455082,47.767082 L74.2963279,47.962623 L74.8593443,48.0879344 L75.5563279,48.1400656 L76.4295738,47.799541 L74.0199344,49.0778361 Z M77.1830164,47.4544918 L75.8059672,47.7265574 L75.2891803,47.6228852 L74.7637377,47.4906885 L74.2493115,47.2823607 L73.8771148,47.2455738 L73.1333115,47.1718033 L71.9685246,47.4885246 L74.5388852,46.0957377 L76.1913443,45.8203279 L76.5753443,45.9948197 L77.0909508,46.0931803 L77.5674098,46.3109508 L78.0625574,46.3483279 L78.7935738,46.393377 L79.6788197,46.0819672 L77.1830164,47.4544918 Z M80.3895738,45.6139672 L79.0219672,45.9171148 L78.6358033,45.9527213 L78.0007869,45.8496393 L77.4519344,45.652918 L76.9733115,45.4351475 L76.2615738,45.4548197 L75.2099016,45.7428197 L77.6807213,44.4114098 L79.432918,44.0742295 L79.6717377,44.1824262 L80.1983607,44.3152131 L80.6431475,44.4375738 L81.2043934,44.5599344 L81.8299672,44.6342951 L82.7152131,44.3234754 L80.3895738,45.6139672 Z M84.4709508,43.2220328 L83.4385574,43.6772459 L82.6017049,44.0085246 L82.2001967,44.1196721 L81.0723934,43.975082 L80.1871475,43.7321311 L79.4415738,43.7608525 L78.3507541,44.0575082 L80.7015738,42.6224262 L82.3379016,42.2813115 L82.743541,42.3094426 L83.1987541,42.4615082 L83.763541,42.5862295 L84.2047869,42.7091803 L84.879541,42.6963934 L85.7527869,42.3558689 L84.4709508,43.2220328 Z M87.4469508,41.3065574 L86.4503607,41.8550164 L85.6731148,42.1347541 L85.1287869,42.2840656 L84.7074098,42.226623 L84.1455738,42.1007213 L83.629377,41.9970492 L83.1881311,41.8770492 L82.585377,41.8670164 L81.517377,42.2276066 L82.7036066,41.3169836 L83.824918,40.664459 L84.8085246,40.2940328 L85.3504918,40.2489836 L85.6133115,40.4211148 L86.0657705,40.5743607 L86.6175738,40.6674098 L87.1121311,40.7067541 L87.6039344,40.747082 L88.5963934,40.405377 L87.4469508,41.3065574 Z M90.2557377,39.262623 L89.2485246,39.7782295 L88.483082,40.0896393 L88.0109508,40.2188852 L87.0273443,40.1401967 L86.0201311,39.8960656 L85.417377,39.886623 L84.4237377,40.3296393 L85.5737705,39.4296393 L86.6219016,38.7975738 L87.5464918,38.3750164 L88.1118689,38.2890492 L88.9872787,38.5020984 L89.9242623,38.6606557 L90.5246557,38.6718689 L91.3766557,38.2662295 L90.2557377,39.262623 Z M92.9390164,37.0790164 L91.9664262,37.690623 L91.2611803,37.951082 L90.8240656,38.0704918 L89.835541,38.095082 L88.8519344,37.9125246 L88.2877377,37.8928525 L87.2325246,38.284918 L88.3735082,37.3532459 L89.3988197,36.6580328 L90.2492459,36.2553443 L90.7929836,36.1048525 L91.6674098,36.3184918 L92.6260328,36.5425574 L93.1727213,36.3926557 L94.0219672,35.9881967 L92.9390164,37.0790164 Z M95.4438689,34.7362623 L94.5759344,35.4210492 L93.8344918,35.7961967 L93.397377,35.9161967 L92.5178361,35.9161967 L91.5342295,35.7312787 L90.9332459,35.7218361 L89.9016393,36.1748852 L90.9442623,35.1999344 L91.9695738,34.400459 L92.7877377,34.0054426 L93.3314754,33.8579016 L94.096918,34.099082 L95.1198689,34.1669508 L95.7214426,34.1758033 L96.4296393,33.7081967 L95.4438689,34.7362623 Z M97.9380984,32.3632131 L96.9847869,33.0367869 L96.348,33.4868852 L95.8048525,33.6350164 L95.0006557,33.5073443 L94.0479344,33.4207869 L93.4007213,33.4939672 L92.4527213,33.8539672 L93.4973115,32.8766557 L94.4881967,32.0897705 L95.228459,31.716 L95.7751475,31.5666885 L96.687541,31.6650492 L97.5273443,31.780918 L98.1060984,31.7281967 L98.851082,31.3544262 L97.9380984,32.3632131 Z M100.221639,29.076 L99.4449836,29.911082 L98.7977705,30.3283279 L98.4566557,30.4904262 L97.4559344,30.6934426 L96.6718033,30.7343607 L96.0175082,30.9114098 L95.065377,31.5855738 L95.9899672,30.5036066 L96.9474098,29.6183607 L97.6099672,29.023082 L98.228459,28.7527869 L99.012,28.712459 L99.9015738,28.7464918 L100.39082,28.4398033 L101.076197,27.9086557 L100.221639,29.076 Z M101.903607,25.7817049 L101.270361,26.5752787 L100.768721,27.0598033 L100.484262,27.3780984 L99.6332459,27.781377 L98.6754098,28.1134426 L98.1129836,28.4388197 L97.429377,29.0744262 L97.8694426,28.0908197 L98.5851148,27.3060984 L99.1632787,26.6992131 L99.6273443,26.3323279 L100.394557,26.0185574 L101.43718,25.5965902 L101.889639,25.3005246 L102.418033,24.7766557 L101.903607,25.7817049 Z" id="Shape" fill="#FFFFFF" fill-rule="nonzero"></path>
                    </g>
                </g>
            </g>
        </g>
    </g>
</svg>