<svg width="145" height="20" viewBox="0 0 145 20" xmlns="http://www.w3.org/2000/svg"><title>Group 28</title><path d="M0 .851v2.632h4.317l8.448 15.843h10.396l8.448-15.87 4.316-.027.01-2.578H23.02v2.587h3.44l-5.966 11.264-6.452-11.224 4.706-.021L18.739.85zm83.316 0v2.632h4.316l8.448 15.843h10.396l8.449-15.87 4.316-.027.008-2.578h-12.912v2.587h3.438l-5.966 11.264-6.452-11.224 4.707-.021-.009-2.606zm-21.241 0v2.632h4.316l.007 12.935h-4.55V19.3l4.553.025h21.552v-8.6h-2.807c-.154 4.554-4.104 5.698-5.768 5.698-1.524 0-4.478-.006-4.478-.006V3.478l4.251-.022-.006-2.605h-17.07zM47.353 16.96c-2.587 0-4.682-3.098-4.682-6.922s2.095-6.925 4.682-6.925c2.586 0 4.682 3.1 4.682 6.925 0 3.824-2.096 6.922-4.682 6.922zm.19-16.64c-7.337 0-13.283 4.37-13.283 9.756 0 5.387 5.947 9.756 13.284 9.756 7.336 0 13.285-4.369 13.285-9.756C60.829 4.689 54.88.32 47.544.32zm83.127 16.591c-2.586 0-4.682-3.15-4.682-7.036 0-3.886 2.096-7.036 4.681-7.036 2.586 0 4.681 3.15 4.681 7.036 0 3.886-2.095 7.036-4.68 7.036zM130.86 0c-7.338 0-13.284 4.44-13.284 9.915 0 5.475 5.946 9.914 13.285 9.914 7.335 0 13.283-4.44 13.283-9.914 0-5.475-5.948-9.915-13.283-9.915z" fill="#72778E" fill-rule="evenodd"/></svg>