<svg width="40" height="40" viewBox="0 0 40 40" xmlns="http://www.w3.org/2000/svg"><title>Group 7</title><g fill="none" fill-rule="evenodd"><path fill="#FFF" d="M0 40h40V0H0z"/><path d="M13.75 11.25a6.25 6.25 0 1 1 12.501.001 6.25 6.25 0 0 1-12.501-.001M20 2.5A8.75 8.75 0 1 0 20 20a8.75 8.75 0 0 0 0-17.5M7.637 26.05C7.95 25.419 8.65 25 9.505 25h20.99c.856 0 1.555.419 1.867 1.05.6 1.21 1.245 2.843 1.38 4.416.06.699-.23 1.276-.706 1.572C31.252 33.146 27.201 35 20 35S8.747 33.146 6.964 32.038c-.475-.296-.767-.873-.707-1.572.135-1.573.78-3.206 1.38-4.416zm1.868-3.55c-1.65 0-3.308.826-4.108 2.44-.655 1.32-1.456 3.282-1.63 5.312-.13 1.503.495 3.05 1.878 3.91C7.834 35.521 12.344 37.5 20 37.5c7.656 0 12.166-1.979 14.355-3.338 1.382-.86 2.007-2.407 1.879-3.91-.175-2.03-.977-3.992-1.632-5.312-.8-1.614-2.457-2.44-4.107-2.44H9.505z" fill="#000"/></g></svg>