<?xml version="1.0" encoding="UTF-8"?>
<svg width="470px" height="250px" viewBox="0 0 470 250" version="1.1" xmlns="http://www.w3.org/2000/svg" xmlns:xlink="http://www.w3.org/1999/xlink">
    <!-- Generator: Sketch 55.1 (78136) - https://sketchapp.com -->
    <title>Group 14</title>
    <desc>Created with Sketch.</desc>
    <g id="Tilda" stroke="none" stroke-width="1" fill="none" fill-rule="evenodd">
        <g id="Inventory-Management" transform="translate(-841.000000, -1625.000000)" fill-rule="nonzero">
            <g id="Group-14" transform="translate(841.090000, 1625.500000)">
                <path d="M295.058007,237.914537 L278.266934,191.302136 C277.481051,189.120506 275.411291,187.666135 273.092429,187.666135 L240.640469,187.666135 C237.602903,187.666135 235.140469,190.128569 235.140469,193.166135 C235.140469,196.203702 237.602903,198.666135 240.640469,198.666135 L269.227711,198.666135 L286.028463,245.305406 C286.819089,247.500201 288.908313,248.957453 291.241113,248.941539 L306.448144,248.835805 C309.470752,248.814842 311.91,246.358618 311.91,243.335938 L311.91,11 L457.41,11 C460.447566,11 462.91,8.53756612 462.91,5.5 C462.91,2.46243388 460.447566,9.9475983e-14 457.41,9.9475983e-14 L306.41,9.9475983e-14 C303.372434,9.9475983e-14 300.91,2.46243388 300.91,5.5 L300.91,237.873951 L295.058007,237.914537 Z" id="Line" fill="#979797"></path>
                <path d="M27,157.441406 L-1.42108547e-12,157.441406 L-1.42108547e-12,114.901406 L26.94,114.901406 L26.94,123.841406 L9.48,123.841406 L9.48,131.941406 L25.32,131.941406 L25.32,140.281406 L9.48,140.281406 L9.48,148.441406 L27,148.441406 L27,157.441406 Z M42.36,136.141406 C42.36,145.021406 48.72,148.981406 54.66,148.981406 C60.54,148.981406 66.9,145.021406 66.9,136.141406 C66.9,127.261406 60.54,123.241406 54.66,123.241406 C48.72,123.241406 42.36,127.261406 42.36,136.141406 Z M32.52,136.201406 C32.52,122.701406 42.66,114.001406 54.66,114.001406 C66.6,114.001406 76.74,122.701406 76.74,136.201406 C76.74,149.641406 66.6,158.341406 54.66,158.341406 C42.66,158.341406 32.52,149.641406 32.52,136.201406 Z M81.06,136.201406 C81.06,122.701406 91.2,114.001406 103.2,114.001406 C115.14,114.001406 125.28,122.701406 125.28,136.201406 C125.28,141.901406 123.48,146.701406 120.48,150.361406 L125.7,156.061406 L119.46,161.341406 L114.24,155.581406 C111,157.381406 107.16,158.341406 103.2,158.341406 C91.2,158.341406 81.06,149.641406 81.06,136.201406 Z M90.9,136.141406 C90.9,145.021406 97.26,148.981406 103.2,148.981406 C104.64,148.981406 106.08,148.741406 107.52,148.261406 L101.28,141.421406 L107.58,136.141406 L113.82,142.981406 C114.84,141.121406 115.44,138.901406 115.44,136.141406 C115.44,127.261406 109.08,123.241406 103.2,123.241406 C97.26,123.241406 90.9,127.261406 90.9,136.141406 Z" id="EOQ" fill="#0C1015"></path>
                <g id="2DK" transform="translate(347.070000, 52.901406)">
                    <path d="M9.48,19.2 L0.6,19.14 C0.42,18.66 0.24,17.1 0.24,15.9 C0.24,8.94 5.46,2.7 14.82,2.7 C23.76,2.7 29.28,8.52 29.28,15.48 C29.28,20.52 26.58,24.66 21.6,27.6 L14.22,31.98 C13.08,32.7 12.12,33.48 11.58,34.62 L29.58,34.62 L29.58,42.54 L9.09494702e-13,42.54 C9.09494702e-13,35.4 2.04,29.52 9.18,25.38 L15.54,21.66 C18.6,19.86 19.8,18.24 19.8,15.66 C19.8,13.2 18.06,11.04 14.58,11.04 C10.92,11.04 9.12,13.56 9.12,16.8 C9.12,17.58 9.24,18.42 9.48,19.2 Z" id="2" fill="#0C1015"></path>
                    <path d="M45.3,33.6 L50.82,33.6 C57.36,33.6 62.7,29.82 62.7,21.3 C62.7,12.78 57.36,8.94 50.82,8.94 L45.3,8.94 L45.3,33.6 Z M51.18,42.54 L35.82,42.54 L35.82,0 L51.24,0 C64.02,0 72.6,8.16 72.6,21.3 C72.6,34.44 64.02,42.54 51.18,42.54 Z M105.12,42.54 L93.66,25.8 L88.86,31.14 L88.86,42.54 L79.38,42.54 L79.38,0 L88.86,0 L88.86,17.88 L104.4,0 L116.88,0 L100.32,18.42 L116.94,42.54 L105.12,42.54 Z" id="DK" fill="#F89407"></path>
                </g>
                <path d="M344.41,142.941406 L464.41,142.941406 C467.447566,142.941406 469.91,140.478972 469.91,137.441406 C469.91,134.40384 467.447566,131.941406 464.41,131.941406 L344.41,131.941406 C341.372434,131.941406 338.91,134.40384 338.91,137.441406 C338.91,140.478972 341.372434,142.941406 344.41,142.941406 Z" id="Line-2" fill="#979797"></path>
                <polygon id="H" fill="#F89407" points="423.44 219.441406 413.9 219.441406 413.9 202.521406 396.92 202.521406 396.92 219.441406 387.44 219.441406 387.44 176.901406 396.92 176.901406 396.92 193.581406 413.9 193.581406 413.9 176.901406 423.44 176.901406"></polygon>
            </g>
        </g>
    </g>
</svg>