<?xml version="1.0" encoding="UTF-8"?>
<svg width="97px" height="83px" viewBox="0 0 97 83" version="1.1" xmlns="http://www.w3.org/2000/svg" xmlns:xlink="http://www.w3.org/1999/xlink">
    <!-- Generator: Sketch 52.6 (67491) - http://www.bohemiancoding.com/sketch -->
    <title>Group 16</title>
    <desc>Created with Sketch.</desc>
    <defs>
        <polygon id="path-1" points="0.43521797 0.4292861 17.9630175 0.4292861 17.9630175 19.7037037 0.43521797 19.7037037"></polygon>
    </defs>
    <g id="Features" stroke="none" stroke-width="1" fill="none" fill-rule="evenodd">
        <g id="Features-(desktop)" transform="translate(-671.000000, -1090.000000)">
            <g id="Group-16" transform="translate(671.000000, 1089.000000)">
                <polygon id="Fill-1" fill="#CFE2FF" points="21.1762351 15.4684444 90.8304904 14.5828148 94.6093628 19.5191111 86.2952245 46.1014815 82.3904585 47.1136296 31.5046713 47.4931852"></polygon>
                <g id="Group-15" transform="translate(0.000000, 0.183244)">
                    <path d="M1.17173936,0.8568 C3.71334574,1.0445037 6.21470745,1.42094815 8.71090957,1.82746667 C9.95539894,2.04420741 11.2009202,2.25887407 12.4381862,2.51087407 C13.8054734,2.7410963 15.3213564,3.31354074 16.5586223,4.13176296 C17.8299415,4.94376296 18.9309947,6.01813333 19.7916117,7.25946667 C20.2157287,7.8848 20.5954734,8.54331852 20.8906011,9.24020741 C21.0340372,9.57205926 21.1857287,9.97961481 21.2827287,10.263763 L21.5923032,11.1628741 L24.0709628,18.3568 C25.7354415,23.1479111 27.2956968,27.9753185 28.9127074,32.7830222 C30.5132074,37.5969481 32.0662394,42.4253926 33.58625,47.2673185 L33.5872819,47.2714667 L32.1229947,46.2209481 L69.5061755,45.8984296 L78.8511968,45.8579852 L81.1874521,45.8476148 L82.3566117,45.8424296 C82.6651543,45.8341333 82.8715372,45.8216889 83.1253883,45.7625778 C84.0974521,45.5655407 84.9621968,44.8976889 85.4110798,44.0172444 C85.5349096,43.7963556 85.603016,43.5765037 85.6866011,43.3141333 L85.9992713,42.183763 L86.6256436,39.9209481 L87.8763245,35.3963556 L90.37975,26.3471704 L91.6459096,21.8267259 L91.9627074,20.6973926 C92.0266862,20.4132444 92.0782819,20.2068741 92.0906649,19.9569481 C92.1236862,19.477837 92.0493883,18.9966519 91.8729309,18.5476148 C91.5272394,17.6433185 90.755367,16.9070222 89.8534734,16.6145778 C89.6295479,16.5347259 89.3922074,16.4942815 89.1528032,16.4642074 L88.7709947,16.4424296 L88.1858989,16.4424296 L85.8506755,16.4434667 L67.1585691,16.4476148 L48.4674947,16.4528 C42.2367926,16.453837 36.0071223,16.3522074 29.7764202,15.6874667 C29.0654309,15.6128 28.5505053,14.9708741 28.6258351,14.2573926 C28.6918777,13.6362074 29.1830691,13.1633185 29.7764202,13.1010963 C36.0071223,12.4363556 42.2367926,12.3347259 48.4674947,12.335763 L67.1585691,12.3409481 L85.8506755,12.3450963 L88.1858989,12.3461333 L88.7709947,12.3461333 L89.5531862,12.3886519 C90.0866862,12.4467259 90.6201862,12.5504296 91.132016,12.7256889 C93.1968777,13.4039111 94.8861223,15.0351704 95.6641862,17.0522074 C96.0594096,18.0581333 96.2276117,19.1605037 96.1522819,20.2410963 C96.1244202,20.7751704 96.0005904,21.3341333 95.8798564,21.8101333 L95.5630585,22.9394667 L94.2865798,27.4568 L91.7057606,36.4842074 L90.415867,40.9973926 L89.7709202,43.2539852 L89.4489628,44.3833185 C89.3013989,44.8665778 89.1146223,45.3913185 88.8566436,45.853837 C87.8598138,47.7526519 85.9972074,49.1495407 83.9065479,49.5602074 C83.4009096,49.6753185 82.8251011,49.7095407 82.3566117,49.7105778 L81.1874521,49.7053926 L78.8511968,49.6960593 L69.5061755,49.6556148 L32.1229947,49.3320593 C31.45225,49.3268741 30.8836649,48.8975407 30.6648989,48.3002074 L30.6597394,48.2815407 L30.6576755,48.2784296 C28.8972287,43.5194667 27.171867,38.7490963 25.4919096,33.9631704 C23.8294947,29.1710222 22.1103245,24.3985778 20.4943457,19.5908741 L18.0528351,12.3845037 L17.7473883,11.4833185 C17.6400691,11.1680593 17.568867,10.9813926 17.4646436,10.7293926 C17.2696117,10.2565037 17.0126649,9.81265185 16.7299202,9.3885037 C16.1530798,8.54642963 15.4121649,7.81324444 14.5536117,7.25946667 C14.1294947,6.97531852 13.6713245,6.74302222 13.1976755,6.55531852 C12.9634309,6.45368889 12.7178351,6.38213333 12.4773989,6.29502222 C12.221484,6.22761481 12.0140691,6.16124444 11.6797287,6.08761481 C10.4465904,5.81176296 9.22273936,5.49754074 7.99785638,5.18539259 C5.55428191,4.5330963 3.11793085,3.85176296 0.720792553,2.98168889 C0.154271277,2.77635556 -0.139824468,2.14687407 0.0655265957,1.57754074 C0.235792553,1.10465185 0.696026596,0.821540741 1.17173936,0.8568" id="Fill-2" fill="#717791"></path>
                    <path d="M83.6906713,26.7184296 C79.705416,27.1892444 75.7191287,27.343763 71.7338734,27.4319111 C67.7486181,27.5200593 63.7623309,27.623763 59.7770755,27.6279111 C55.7928521,27.6403556 51.8065649,27.5522074 47.8213096,27.3966519 C43.8350223,27.2089481 39.8507989,26.9185778 35.8645117,26.2590222 C35.4465862,26.1895407 35.1628096,25.7923556 35.2319479,25.3723556 C35.2866394,25.0373926 35.5497777,24.7895407 35.8645117,24.7366519 C39.8507989,24.0770963 43.8350223,23.7867259 47.8213096,23.5990222 C51.8065649,23.4434667 55.7928521,23.3553185 59.7770755,23.367763 C63.7623309,23.3719111 67.7486181,23.4756148 71.7338734,23.563763 C75.7191287,23.6519111 79.705416,23.8064296 83.6906713,24.2772444 C84.361416,24.3560593 84.8412564,24.9679111 84.7628309,25.6409481 C84.6957564,26.2175407 84.2406819,26.6541333 83.6906713,26.7184296" id="Fill-4" fill="#717791"></path>
                    <path d="M80.9668287,37.5191704 C77.434584,37.7027259 73.9033713,37.8696889 70.3721585,37.9599111 C66.8409457,38.0542815 63.309733,38.1890963 59.7774883,38.2160593 L49.1828181,38.3602074 C45.6516053,38.3560593 42.1193606,38.265837 38.5891798,37.8250963 C37.9153394,37.7410963 37.4375628,37.1261333 37.5211479,36.4499852 C37.5933819,35.8775407 38.0432968,35.4450963 38.5891798,35.3776889 C42.1193606,34.9369481 45.6516053,34.8467259 49.1828181,34.8425778 L59.7774883,34.9867259 C63.309733,35.0136889 66.8409457,35.1485037 70.3721585,35.2428741 C73.9033713,35.3330963 77.434584,35.5000593 80.9668287,35.6836148 C81.4714351,35.7095407 81.8584032,36.1419852 81.8326053,36.6490963 C81.8078394,37.1219852 81.4270628,37.4942815 80.9668287,37.5191704" id="Fill-6" fill="#717791"></path>
                    <path d="M30.8504372,46.9856593 L30.9092564,46.8881778 C31.3488521,46.1518815 32.2992457,45.9144 33.0319053,46.3572148 C33.5901713,46.6942519 33.8615649,47.3299556 33.7625011,47.9386963 L33.7552777,47.9832889 C33.4002989,50.1558815 33.8378309,52.4238815 35.0534266,54.2324741 C36.2566394,56.0348444 38.1182138,57.3778074 40.2037138,57.8600296 C40.7289585,57.9575111 41.2552351,58.0632889 41.7928628,58.0632889 L42.1942777,58.0850667 L42.6741181,58.0829926 L43.6399904,58.0757333 L47.5024479,58.0466963 L55.2273628,57.9875852 C60.3766181,57.9668444 65.5269053,57.871437 70.6771926,57.9222519 C75.8264479,58.0186963 80.9767351,58.1483259 86.1259904,58.8784 C86.6471074,58.9530667 87.0103415,59.437363 86.9370755,59.9610667 C86.8761926,60.3935111 86.5356606,60.7170667 86.1259904,60.7751407 C80.9767351,61.5062519 75.8264479,61.6348444 70.6771926,61.7312889 C65.5269053,61.7831407 60.3766181,61.6866963 55.2273628,61.6659556 L47.5024479,61.6078815 L43.6399904,61.5788444 L42.6741181,61.5715852 L42.1880862,61.5664 L41.6256926,61.5332148 C40.8744585,61.5135111 40.1304479,61.3672889 39.3957245,61.2075852 C36.4619904,60.4764741 33.8749798,58.5662519 32.2796394,56.0255111 C30.6646926,53.4858074 30.1404798,50.311437 30.7152564,47.3963259 L33.5623096,48.491437 L33.5034904,48.5889185 C33.0638947,49.3252148 32.1124691,49.5626963 31.3798096,49.1209185 C30.64715,48.6781037 30.4098096,47.7219556 30.8504372,46.9856593" id="Fill-8" fill="#717791"></path>
                    <g id="Group-12" transform="translate(31.989362, 63.259259)">
                        <mask id="mask-2" fill="white">
                            <use xlink:href="#path-1"></use>
                        </mask>
                        <g id="Clip-11"></g>
                        <path d="M17.4495777,14.9165333 C16.7468436,16.7230519 15.202067,18.2443852 13.3115989,19.0366815 C11.4149394,19.862163 9.2283117,19.892237 7.23155638,19.2886815 C5.23686489,18.6706074 3.42895,17.398163 2.21335426,15.6652741 C1.00291809,13.9365333 0.347652128,11.7898667 0.444652128,9.6712 C0.513790426,7.54423704 1.36615213,5.4712 2.69835426,3.84408889 C4.0666734,2.24186667 5.94682234,1.08142222 7.9951734,0.651051852 C10.0270138,0.205125926 12.2084819,0.422903704 14.0360032,1.38423704 C15.8583649,2.32586667 17.2989181,3.93431111 17.9129074,5.78853333 C18.0831734,6.30601481 17.8055883,6.86394074 17.2916947,7.03505185 C16.9109181,7.16260741 16.5064074,7.04231111 16.2535883,6.76023704 L16.2246947,6.72912593 C14.1969819,4.4632 11.3860457,3.51431111 8.82070532,4.17386667 C7.54938617,4.48808889 6.44110957,5.28038519 5.62589681,6.27386667 C4.83854574,7.29223704 4.33806702,8.53875556 4.32774787,9.82986667 C4.15025851,12.4152 5.87562021,14.9569778 8.34499255,15.8384593 C10.8525457,16.6888296 13.6965032,16.0126815 16.0203755,13.9593481 L16.051333,13.9323852 C16.4155989,13.6098667 16.9707691,13.6451259 17.2916947,14.012237 C17.5145883,14.2683852 17.5641202,14.6189037 17.4495777,14.9165333" id="Fill-10" fill="#717791" mask="url(#mask-2)"></path>
                    </g>
                    <path d="M79.2043181,64.5206074 C81.2258394,64.1794222 83.4650947,64.8431259 85.1419564,66.2348296 C85.9870947,66.9234222 86.6939564,67.7976444 87.1799883,68.7828296 C87.6649883,69.7700889 87.93535,70.8506815 88.0302862,71.9271259 C88.2129351,74.0623852 87.8785947,76.2733481 86.746584,78.1120148 C85.6486266,79.9413481 83.945967,81.3952741 81.9492117,82.1450519 C79.9545202,82.8875704 77.7121691,82.9560148 75.6947755,82.2518667 C73.6794457,81.5705333 71.8859777,80.1892 70.7973074,78.3536444 C69.6849032,76.5429778 69.1999032,74.3392741 69.5001904,72.2527556 C69.79635,70.1683111 70.9572543,68.2052 72.6537223,67.1235704 C73.0314032,66.8829778 73.5318819,66.9949778 73.7702543,67.3745333 C73.9405202,67.644163 73.9343287,67.9770519 73.7795415,68.232163 L73.760967,68.2632741 C72.9044777,69.6767556 72.3957436,71.1047556 72.294616,72.5794222 C72.17285,74.0499407 72.5340202,75.5287556 73.3358181,76.7337926 C74.1272968,77.9419407 75.3150309,78.8783852 76.670967,79.3305333 C78.0227755,79.8023852 79.54485,79.7619407 80.8853074,79.2766074 C83.6178181,78.3214963 85.4350202,75.2446074 84.8375415,72.404163 C83.9800202,69.6995704 82.16385,67.5186815 79.0918394,66.4163111 L79.0381798,66.3966074 C78.5346053,66.216163 78.2724989,65.6592741 78.4520521,65.152163 C78.5738181,64.8089037 78.8699777,64.5776444 79.2043181,64.5206074" id="Fill-13" fill="#717791"></path>
                </g>
            </g>
        </g>
    </g>
</svg>