<?xml version="1.0" encoding="UTF-8"?>
<svg width="159px" height="41px" viewBox="0 0 159 41" version="1.1" xmlns="http://www.w3.org/2000/svg" xmlns:xlink="http://www.w3.org/1999/xlink">
    <!-- Generator: Sketch 55.2 (78181) - https://sketchapp.com -->
    <title>Shape</title>
    <desc>Created with Sketch.</desc>
    <g id="Index" stroke="none" stroke-width="1" fill="none" fill-rule="evenodd">
        <g id="Index-(dekstop)" transform="translate(-1119.000000, -948.000000)" fill="#182C54" fill-rule="nonzero">
            <path d="M1136.8,988.3 L1145.4,988.3 L1146.3,984.2 L1150.3,984.2 L1150.3,988.3 L1159,988.3 L1159,959.9 L1143,959.9 L1136.8,988.3 Z M1150.3,966.8 L1150.3,976.9 L1147.6,976.9 L1150.3,966.8 Z M1130.7,979.5 L1136.7,979.5 L1134.8,988.2 L1119,988.2 L1125.4,959.9 L1135.2,959.9 L1130.7,979.5 Z M1184.6,959.9 L1178.3,988.2 L1162.3,988.2 L1162.3,959.9 L1171.1,959.9 L1171.1,980 L1175.6,959.9 L1184.6,959.9 Z M1271.4,959.9 L1255.5,959.9 L1255.5,988.2 L1264.1,988.2 L1264.1,984.1 L1268.2,984.1 L1269.1,988.2 L1277.7,988.2 L1271.4,959.9 Z M1264.1,976.9 L1264.1,966.8 L1266.7,976.9 L1264.1,976.9 Z M1252.8,979.9 L1254.5,988.3 L1237.2,988.3 L1239,969 L1233,969 L1231.4,960 L1249.6,960 L1247.5,979.9 L1252.8,979.9 Z M1233.1,979.9 L1234.8,988.3 L1217.5,988.3 L1219.3,969 L1213.3,969 L1211.7,960 L1229.9,960 L1227.8,979.9 L1233.1,979.9 L1233.1,979.9 Z M1190.6,948 L1181.5,988.3 L1192.7,988.3 L1194,981.4 L1202.8,981.4 L1204.1,988.3 L1215.2,988.3 L1206.1,948 L1190.6,948 Z M1195.4,972.5 L1198.3,957.1 L1201.3,972.5 L1195.4,972.5 Z" id="Shape"></path>
        </g>
    </g>
</svg>