<svg width="16" height="16" viewBox="0 0 16 16" xmlns="http://www.w3.org/2000/svg" xmlns:xlink="http://www.w3.org/1999/xlink"><title>Group 7</title><defs><path id="a" d="M0 .291h3.854v15.276H0z"/><path id="c" d="M.135.228h10.458v10.55H.135z"/></defs><g fill="none" fill-rule="evenodd"><g transform="translate(0 .008)"><mask id="b" fill="#fff"><use xlink:href="#a"/></mask><path d="M1.916 3.853c1.194 0 1.938-.792 1.938-1.781C3.832 1.06 3.11.291 1.938.291S0 1.061 0 2.072c0 .99.744 1.78 1.893 1.78h.023zM.203 15.568h3.426V5.26H.203v10.308z" fill="#FFF" mask="url(#b)"/></g><g transform="translate(5.389 4.798)"><mask id="d" fill="#fff"><use xlink:href="#c"/></mask><path d="M.135 10.777h3.426V5.021c0-.308.023-.616.113-.836.248-.615.812-1.253 1.758-1.253 1.24 0 1.736.945 1.736 2.331v5.514h3.425v-5.91c0-3.166-1.69-4.64-3.944-4.64-1.848 0-2.66 1.034-3.11 1.738h.022V.47H.136c.044.967 0 10.307 0 10.307z" fill="#FFF" mask="url(#d)"/></g></g></svg>