<svg width="103" height="79" viewBox="0 0 103 79" xmlns="http://www.w3.org/2000/svg" xmlns:xlink="http://www.w3.org/1999/xlink"><title>Group 14</title><defs><path id="a" d="M0 79.129h102.183V0H0z"/></defs><g fill="none" fill-rule="evenodd"><path d="M98.114 77.748H4.07a2.688 2.688 0 0 1-2.69-2.688V4.07a2.689 2.689 0 0 1 2.69-2.69h94.044a2.69 2.69 0 0 1 2.689 2.69v70.99a2.689 2.689 0 0 1-2.689 2.688" fill="#FFF"/><mask id="b" fill="#fff"><use xlink:href="#a"/></mask><path fill="#B8D4FF" mask="url(#b)" d="M2.382 12.117H99.83V2.042H2.382z"/><path d="M98.114 77.748H4.07a2.688 2.688 0 0 1-2.69-2.688V4.07a2.689 2.689 0 0 1 2.69-2.69h94.044a2.69 2.69 0 0 1 2.689 2.69v70.99a2.689 2.689 0 0 1-2.689 2.688z" stroke="#717791" stroke-width="2.485" stroke-linecap="round" stroke-linejoin="round" mask="url(#b)"/><path d="M100.803 12.086H12.187" fill="#FFF" mask="url(#b)"/><path d="M100.803 13.197l-22.154.097-22.154-.003-22.153-.088-11.078-.048c-3.692-.014-7.385.022-11.077-.519a.556.556 0 0 1 0-1.1c3.692-.54 7.385-.504 11.077-.519l11.078-.047 22.153-.088 22.154-.004 22.154.097a1.112 1.112 0 0 1 0 2.222M8.313 6.739a1.311 1.311 0 1 1-2.623-.001 1.311 1.311 0 0 1 2.623 0m4.415.001a1.311 1.311 0 1 1-2.623-.001 1.311 1.311 0 0 1 2.623 0m4.415.001a1.311 1.311 0 1 1-2.622-.001 1.311 1.311 0 0 1 2.622 0" fill="#717791" mask="url(#b)"/><path stroke="#717791" stroke-width="2.485" stroke-linecap="round" stroke-linejoin="round" mask="url(#b)" d="M38.69 60.842L22.804 44.956 38.69 29.069m23.977 31.773l15.887-15.886-15.887-15.887m-7.732 5.877l-7.902 18.966"/></g></svg>