<svg width="108" height="69" viewBox="0 0 108 69" xmlns="http://www.w3.org/2000/svg" xmlns:xlink="http://www.w3.org/1999/xlink"><title>Group 15</title><defs><path id="a" d="M.599.159h95.41v68.516H.599z"/><path id="c" d="M0 .414h41.705v41.752H0z"/></defs><g fill="none" fill-rule="evenodd"><path d="M96.357 4.674H40.774v-.407A3.015 3.015 0 0 0 37.76 1.25H19.014A3.015 3.015 0 0 0 16 4.267v.407h-3.75a4.401 4.401 0 0 0-4.4 4.4V64.74a2.527 2.527 0 0 0 2.525 2.527h87.857a2.527 2.527 0 0 0 2.526-2.527V9.075a4.4 4.4 0 0 0-4.4-4.401" fill="#B8D4FF"/><g transform="translate(6 -.159)"><mask id="b" fill="#fff"><use xlink:href="#a"/></mask><path d="M94.104 9.075c-.317-1.083-.903-1.974-1.75-2.504A3.523 3.523 0 0 0 91 6.086a4.223 4.223 0 0 0-.732-.028l-.974.015-7.788.01H34.774a1.25 1.25 0 0 1-1.25-1.244v-.007l-.002-.434c-.005-.09-.007-.179-.025-.265a1.782 1.782 0 0 0-.89-1.256 2.064 2.064 0 0 0-.494-.182c-.188-.03-.297-.038-.655-.036H13.314c-.357-.002-.466.006-.654.036-.172.04-.338.1-.495.182-.307.174-.57.438-.726.756a1.622 1.622 0 0 0-.163.5c-.018.086-.02.175-.026.265v.441A1.25 1.25 0 0 1 10 6.082H6.297l-.309.014a3.119 3.119 0 0 0-1.626.62A3.153 3.153 0 0 0 3.1 9.264v55.1c-.007.668-.005.792.123 1.075a1.27 1.27 0 0 0 .956.717c.072.016.128.011.22.018H91.98c.337.003.38-.006.54-.035.134-.026.261-.084.378-.156a1.262 1.262 0 0 0 .605-1.032l.005-.77V16.483a1.25 1.25 0 1 1 2.5 0v47.698c-.003.298.006.497-.007.874a3.764 3.764 0 0 1-1.79 3.056 3.655 3.655 0 0 1-1.134.465c-.376.095-.885.103-1.097.098H4.398c-.184-.007-.403-.01-.6-.047a3.78 3.78 0 0 1-3.173-3.301c-.04-.464-.02-.68-.026-.962v-55.1a5.656 5.656 0 0 1 5.186-5.659l.513-.023H10l-1.25 1.25.002-.472c.007-.213.02-.426.06-.637.07-.42.198-.837.396-1.217A4.296 4.296 0 0 1 10.96.687a4.523 4.523 0 0 1 1.202-.442c.407-.085.905-.089 1.152-.086h18.144c.248-.003.746.001 1.152.086.42.09.826.238 1.203.442a4.294 4.294 0 0 1 1.752 1.82c.2.38.327.795.398 1.216.04.211.052.424.06.637l.001.472-1.25-1.25h46.732l7.788.01.974.015c.365.011.812.06 1.204.15a5.415 5.415 0 0 1 2.166 1.104c1.252 1.01 1.971 2.65 1.766 4.16a.66.66 0 0 1-1.287.097l-.013-.043z" fill="#717791" mask="url(#b)"/></g><path d="M101.557 13.025H36.245v-1.676a3.015 3.015 0 0 0-3.015-3.016H14.485a3.015 3.015 0 0 0-3.015 3.016v1.676H5.606a4.401 4.401 0 0 0-4.4 4.4l4.77 47.058a3.358 3.358 0 0 0 3.34 3.019h88.93a3.358 3.358 0 0 0 3.342-3.047l4.37-47.03a4.4 4.4 0 0 0-4.4-4.4" fill="#FFF"/><path d="M54.867 13.863c-.494.363-.988.461-1.482.497-.494.016-.988-.052-1.48-.413a1.031 1.031 0 0 1 0-1.665c.492-.36.986-.428 1.48-.412.494.035.988.134 1.482.496a.93.93 0 0 1 0 1.497M5.45 53.553c.466.775.75 1.57.93 2.373.07.815.129 1.631.223 2.444l.495 4.883.124 1.211c.027.257.102.506.219.733a2.119 2.119 0 0 0 1.878 1.144H13l19.635.001 39.267.002 19.634.001h6.136l.599-.002a2.106 2.106 0 0 0 2.075-1.906l.057-.606.23-2.444.46-4.886 3.68-39.095-.004.11c.027-1.54-1.207-3-2.75-3.182-.204-.036-.341-.03-.612-.039h-.785l-1.57-.003-3.138-.004-12.555-.015-12.554-.016c-4.185-.023-8.37-.047-12.555-.356a.79.79 0 1 1 0-1.572c4.185-.31 8.37-.334 12.555-.357l12.554-.016 12.555-.015 3.139-.004 1.569-.002h.785c.25.004.64.004.95.06a5.538 5.538 0 0 1 3.422 1.867 5.632 5.632 0 0 1 1.369 3.653c0 .036-.002.076-.005.111l-3.585 39.104-.448 4.888-.225 2.444-.058.616a4.608 4.608 0 0 1-3.691 4.073 5.01 5.01 0 0 1-.836.085l-.628.002h-6.137l-19.633.001-39.267.002H9.319a4.618 4.618 0 0 1-4.101-2.499 4.587 4.587 0 0 1-.481-1.605l-.126-1.23-.495-4.885c-.071-.815-.18-1.627-.273-2.439a7.897 7.897 0 0 1 .436-2.51.651.651 0 0 1 1.17-.12" fill="#717791"/><g transform="translate(0 6.841)"><mask id="d" fill="#fff"><use xlink:href="#c"/></mask><path d="M41.337 6.823a8.325 8.325 0 0 1-1.272.4 10.08 10.08 0 0 1-1.273.25c-.85.13-1.698.177-2.546-.032l-.314-.077a1.124 1.124 0 0 1-.854-1.09v-.987c-.001-.304.005-.729-.01-.873a1.852 1.852 0 0 0-.491-1.078 1.81 1.81 0 0 0-1.045-.559c-.1-.02-.2-.02-.302-.028H14.486c-.102.008-.203.007-.302.028a1.81 1.81 0 0 0-1.045.56c-.284.291-.445.68-.492 1.077-.014.144-.008.57-.01.873v.986c0 .645-.522 1.168-1.167 1.168l-3.194.014-1.597.008c-.513.006-1.132-.008-1.454.032A3.168 3.168 0 0 0 3.224 8.56a3.288 3.288 0 0 0-.814 2.114l-.006-.12 1.492 15.473.746 7.737.373 3.87c.126 1.288.283 2.574.056 3.9a.762.762 0 0 1-1.461.147c-.488-1.253-.592-2.544-.727-3.833l-.411-3.864-.822-7.729L.006 10.796a2.063 2.063 0 0 1-.006-.11v-.012c-.004-1.352.499-2.718 1.412-3.723.9-1.01 2.18-1.69 3.53-1.833.738-.066 1.187-.027 1.737-.034l1.597.007 3.194.015-1.168 1.167v-.986c.006-.354-.014-.588.02-1.1a4.18 4.18 0 0 1 1.114-2.448 4.153 4.153 0 0 1 2.37-1.267c.226-.042.453-.05.68-.058H33.23c.227.008.454.016.679.058a4.153 4.153 0 0 1 2.37 1.267 4.18 4.18 0 0 1 1.114 2.448c.035.512.015.746.02 1.1v.986l-1.167-1.167c.848-.21 1.697-.162 2.546-.033.424.058.848.137 1.273.251.423.1.848.224 1.272.4a.596.596 0 0 1 0 1.1" fill="#717791" mask="url(#d)"/></g></g></svg>