<svg width="73" height="84" viewBox="0 0 73 84" xmlns="http://www.w3.org/2000/svg" xmlns:xlink="http://www.w3.org/1999/xlink"><title>Group 19</title><defs><path id="a" d="M.073.09h30.665v58.33H.073z"/><path id="c" d="M.7.775h43.375v23.79H.7z"/></defs><g fill="none" fill-rule="evenodd"><path d="M71.49 76.843c-.1.64-.365 1.26-.84 1.835-.684.831-1.698 1.105-2.784 1.068-2.063-.054-4.41-1.232-5.35-1.99-5.843 4.218-31.053 5.405-43.991 1.534-.931-.283-3.835-.603-4.63-.356-.237.064-.428-1.242-.63-1.087-5.514 4.31-13.613.146-5.112-8.08a32.298 32.298 0 0 1-.411-2.283C5.815 54.144 12.115 39.82 23.2 32.012a24.87 24.87 0 0 1 4.273-2.4c1.223-.53 2.62-1.042 3.953-1.343-.466-.667-1.086-2.986-1.388-3.743-3.195-8.08-8.007-11.505-9.221-15.047-.33-.987-.083-1.954.593-2.776 1.762-2.164 5.405-3.908 10.327-1.762 3.296 1.433 5.788 2.72 8.747 3.323 3.159.658 6.847.548 12.59-.95 2.2-.575 4.173-.803 4.173-.803s-7.03 7.77-9.66 17.02c-.073.237-.164.465-.236.693 3.596.393 6.691 2.904 9.184 5.825 8.583 10.053 12.673 22.982 12.527 36.321 0 .402-.01.804-.018 1.206-.019.32-.484 3.095-.366 3.223 1.744 1.817 3.114 4.026 2.812 6.044" fill="#B8D4FF"/><path d="M70.65 78.678c-.684.831-1.698 1.105-2.784 1.069-2.064-.055-4.41-1.233-5.35-1.99-5.844 4.218-31.053 5.404-43.991 1.533-.931-.283-3.835-.602-4.63-.356-.237.064-.428-1.242-.63-1.086-5.514 4.31-13.613.146-5.112-8.08a32.298 32.298 0 0 1-.411-2.283c.849.967 1.315 2.291 2.876 4.218 2.438 2.985 24.004 11.057 41.041.767 8.026-4.849 13.678-6.127 17.403-6.1 0 .402-.01.804-.018 1.206-.019.32-.484 3.095-.366 3.223 2.301 2.392 3.945 5.478 1.973 7.88" fill="#96C0FF"/><g transform="translate(42 22.964)"><mask id="b" fill="#fff"><use xlink:href="#a"/></mask><path d="M18.452 52.912c.932.192 1.35.742 2.001 1.174.621.438 1.306.812 2.01 1.114a9.96 9.96 0 0 0 2.153.684c.711.148 1.438.207 2.025.073.288-.069.549-.163.754-.3.201-.143.37-.29.549-.548.334-.475.461-1.034.424-1.646-.046-.614-.28-1.275-.627-1.913-.356-.655-.794-1.216-1.34-1.88-.14-.173-.28-.335-.426-.538l-.214-.292-.22-.363a2.24 2.24 0 0 1-.207-.445 1.856 1.856 0 0 1-.138-.551 1.977 1.977 0 0 1-.01-.556c.012-.191.04-.318.068-.443l.288-1.236c.077-.375.13-.76.178-1.147.17-1.56.137-3.206.02-4.846a55.941 55.941 0 0 0-1.507-9.782c-1.555-6.413-4.353-12.528-8.27-17.819-1.973-2.628-4.088-5.23-6.642-7.038-1.27-.917-2.65-1.631-4.107-1.985-.727-.167-1.468-.274-2.214-.246-.752.006-1.461.109-2.353-.16L.57 2.198a.7.7 0 0 1-.266-1.19C1.048.343 2 .099 2.938.103c.94-.052 1.884.06 2.8.251 1.832.41 3.52 1.234 4.988 2.277 1.478 1.04 2.754 2.281 3.929 3.579a50.948 50.948 0 0 1 3.228 4.045 51.235 51.235 0 0 1 5.17 8.935 53.59 53.59 0 0 1 3.392 9.736 58.276 58.276 0 0 1 1.567 10.178c.12 1.718.165 3.46-.03 5.252-.054.449-.117.898-.21 1.348-.087.438-.219.915-.285 1.226-.044.35-.052.182.056.433l.109.177.163.215c.1.14.237.297.363.448 1.104 1.298 2.325 2.93 2.54 5.074.095 1.062-.16 2.241-.794 3.158a4.388 4.388 0 0 1-1.222 1.223c-.502.328-1.044.518-1.575.637-1.07.225-2.062.114-2.991-.073a11.467 11.467 0 0 1-2.632-.911c-.83-.39-1.62-.852-2.36-1.408-.708-.556-1.586-1.116-1.663-2.28a.704.704 0 0 1 .842-.738l.129.027z" fill="#717791" mask="url(#b)"/></g><path d="M12.728 77.574c.76-.383 1.218-.003 1.714.19l1.426.635c.23.094.438.18.588.208l.75.173 1.493.373c1.004.224 2.028.402 3.038.617 1.024.173 2.056.313 3.084.467 4.135.515 8.325.703 12.509.711 4.183.007 8.374-.209 12.507-.737l1.548-.2 1.535-.252c1.029-.144 2.03-.375 3.036-.587.508-.095.995-.227 1.486-.355.482-.14 1-.229 1.455-.407l1.392-.5c.403-.234.802-.4 1.497-.242l.162.036a.767.767 0 0 1 .558.998c-.228.667-.753 1.016-1.278 1.287l-1.57.627c-.524.22-1.05.331-1.577.502-.528.152-1.053.33-1.584.424-1.063.22-2.124.457-3.187.602-1.062.18-2.128.32-3.193.424-4.26.455-8.524.642-12.788.656-4.266 0-8.53-.216-12.787-.709l-3.19-.432c-1.06-.195-2.124-.355-3.18-.6l-1.58-.397-.787-.212c-.36-.106-.635-.243-.889-.361l-1.436-.726c-.458-.26-.96-.323-1.183-1.09l-.023-.076a.892.892 0 0 1 .454-1.047m-4.811-8.81c-.662.886-1.292 1.536-2.006 2.21-.659.67-1.351 1.282-1.956 1.951-.598.666-1.092 1.405-1.4 2.143-.297.739-.376 1.47-.137 2.032.208.576.748 1.045 1.45 1.339.712.276 1.546.369 2.366.266.827-.07 1.634-.316 2.425-.616.398-.152.788-.33 1.196-.508.5-.239.809-.29 1.24-.5l.037-.019a.578.578 0 0 1 .816.657c-.144.597-.655 1.122-.957 1.445-.392.39-.841.735-1.337.994a7.517 7.517 0 0 1-3.232.93c-1.137.062-2.306-.083-3.423-.545a5.686 5.686 0 0 1-1.58-.986c-.48-.434-.876-1-1.123-1.628-.518-1.282-.283-2.655.147-3.713.445-1.084 1.1-1.973 1.777-2.798a12.78 12.78 0 0 1 2.292-2.136c.831-.542 1.755-1.097 2.63-1.439l.057-.022a.616.616 0 0 1 .718.943" fill="#717791"/><path d="M32.002 25.379c-.544.698-1.128.609-1.712.711l-1.719.363-1.685.485-1.654.578c-2.171.862-4.242 2.012-6.1 3.464-3.735 2.893-6.675 6.78-8.86 11.02-2.193 4.25-3.631 8.902-4.287 13.646a44.874 44.874 0 0 0-.43 7.15 46.53 46.53 0 0 0 .195 3.568c.063.591.151 1.178.225 1.77.114.584.189 1.166-.155 1.86l-.02.041a.776.776 0 0 1-1.21.237c-.579-.512-.758-1.134-.864-1.757-.097-.626-.209-1.252-.294-1.88a40.484 40.484 0 0 1-.306-3.786c-.052-2.53.122-5.059.51-7.55.781-4.981 2.314-9.84 4.61-14.34 2.304-4.486 5.445-8.617 9.474-11.79 2.015-1.572 4.229-2.937 6.636-3.874l1.826-.64c.624-.163 1.25-.319 1.877-.464l1.904-.317c.638-.033 1.275-.257 1.952.304a.833.833 0 0 1 .126 1.153l-.039.048z" fill="#717791"/><g transform="translate(13.696 .138)"><mask id="d" fill="#fff"><use xlink:href="#c"/></mask><path d="M12.228 22.655c-2.164-1.707-3.71-3.834-5.377-5.914-1.622-2.113-3.224-4.252-4.658-6.64a18.024 18.024 0 0 1-.994-1.895l-.206-.523a3.112 3.112 0 0 1-.182-.618C.67 6.608.688 6.123.732 5.64a4.52 4.52 0 0 1 1.226-2.347c.283-.313.608-.54.92-.796.332-.199.657-.43 1.001-.591C6.636.564 9.675.54 12.457 1.19l1.041.275 1.008.365c.687.241 1.262.529 1.894.793l3.635 1.651c2.395 1.066 4.797 1.971 7.296 2.37 2.492.442 5.055.368 7.592-.011 1.284-.18 2.503-.472 3.817-.776a38.25 38.25 0 0 1 4.063-.72 1.133 1.133 0 0 1 .98 1.884l-.025.026a49.42 49.42 0 0 0-3.081 3.782 54.688 54.688 0 0 0-2.735 4.075 43.459 43.459 0 0 0-2.307 4.305c-.698 1.468-1.249 2.99-1.737 4.521l-.013.042a1.139 1.139 0 0 1-2.17-.688c.523-1.653 1.116-3.28 1.854-4.833a45.774 45.774 0 0 1 2.426-4.528 57.284 57.284 0 0 1 2.851-4.249A50.915 50.915 0 0 1 42.1 5.487l.955 1.912c-1.249.152-2.55.385-3.794.674-1.277.295-2.648.625-4.002.811-2.72.41-5.545.494-8.303.007-2.769-.444-5.388-1.441-7.847-2.537l-3.635-1.65c-.594-.25-1.215-.555-1.786-.748l-.868-.316-.89-.235c-1.192-.272-2.416-.409-3.622-.333-1.198.086-2.385.36-3.401.865-1.03.48-1.797 1.314-1.923 2.045-.137.576.562 1.884 1.206 2.906C4.856 9.965 5.653 11 6.452 12.04l2.428 3.14c1.582 2.136 3.262 4.242 4.207 6.856a.55.55 0 0 1-.859.618" fill="#717791" mask="url(#d)"/></g><path d="M40.226 54.744a3.656 3.656 0 0 0-.167-.147c-.109.808-.238 1.813-.293 2.622.858-.858 2.59-.573.46-2.475zm-3.356-8.54c-.84.208-2.203.602-2.796 1.233.18.272 2.352 1.468 2.543 1.468l.253-2.7zm9.831-1.554c-.521.926-2.498.85-5.683.85-.239 2.282-.587 4.512-.587 5.497 2.061 1.56 3.545 1.602 4.128 2.818.64 1.135 1.134 3.573-1.095 5.37-1.127.912-2.633 1.557-4.011 1.985-.168 2.323-.526 5.556-.43 6.261.279 2.046.504 2.325.146 2.778-.84 1.06-3.071 1.052-3.707.097-1.039-1.33-.117-4.245-.117-7.434-4.732 1.038-7.223 1.843-8.618.274-.716-.8-.12-2.774 2.416-3.344 2.34-.527 6.515-.452 6.515-1.33.44-3.557.587-4.494.587-5.792-2.351-1.168-6.886-2.007-6.886-5.79 0-1.838 4.14-3.884 7.844-4.421.06-.605.039-1.411.039-5.068 0-1.394 2.747-2.505 4.001-1.125 1.244 1.369.03 4.615.03 5.547.397 0 1.018.006 1.389-.02 1.148-.079 1.164-.332 2.25-.332 2.332 0 2.238 2.377 1.79 3.179z" fill="#FFF"/></g></svg>