<svg width="84" height="84" viewBox="0 0 84 84" xmlns="http://www.w3.org/2000/svg" xmlns:xlink="http://www.w3.org/1999/xlink"><title>Group 16</title><defs><path id="a" d="M0 .058h83.232v83.171H0z"/></defs><g fill="none" fill-rule="evenodd"><g transform="translate(0 .713)"><mask id="b" fill="#fff"><use xlink:href="#a"/></mask><path d="M24.188 13.04c-.661 0-1.244-.296-1.804-.9a127.697 127.697 0 0 0-2.968-3.066l-1.49-1.507a1.157 1.157 0 0 1 1.64-1.63l1.493 1.51c.997 1.007 2.028 2.048 3.021 3.122.078.083.13.13.162.154.049-.013.141-.043.295-.114 1.905-.887 3.799-1.686 5.803-2.531l1.606-.678V1.214c0-.638.517-1.156 1.155-1.156h16.922c.64 0 1.156.518 1.156 1.156v6.082l.685.306c.583.26.844.944.583 1.527-.26.583-.945.845-1.527.583l-1.367-.61a1.156 1.156 0 0 1-.686-1.056V2.37h-14.61v5.793c0 .464-.275.881-.7 1.063-.78.334-1.553.66-2.318.982-1.985.837-3.86 1.628-5.725 2.496-.48.224-.918.337-1.326.337zM8.276 34.38H5.072a1.156 1.156 0 1 1 0-2.311h2.35l.027-.087c.198-.66.403-1.342.681-2.004.642-1.524 1.505-3.526 2.493-5.522.02-.039.035-.072.047-.099a3.004 3.004 0 0 0-.048-.047c-1.104-1.027-2.185-2.075-3.25-3.107l-1.216-1.176a1.159 1.159 0 0 1-.018-1.649l7.879-7.914a1.155 1.155 0 1 1 1.638 1.63l-7.051 7.084.376.365c1.055 1.02 2.125 2.058 3.215 3.074.885.823 1.049 1.76.5 2.867-.961 1.938-1.806 3.9-2.434 5.391-.23.548-.409 1.142-.598 1.771-.092.308-.186.62-.287.935-.154.476-.6.8-1.1.8zm-7.12.573A1.156 1.156 0 0 1 0 33.797v-.572c0-.64.517-1.156 1.156-1.156h.34a1.156 1.156 0 0 1 .781 2.007c-.125.504-.58.877-1.121.877zm48.929 48.276H33.133a1.155 1.155 0 0 1-1.156-1.156v-6.072l-1.314-.584a352.29 352.29 0 0 0-6.361-2.787.512.512 0 0 0-.095.045 163.903 163.903 0 0 0-3.224 3.24l-1.1 1.123a1.155 1.155 0 0 1-1.648.002L6.209 64.84a1.155 1.155 0 0 1 .023-1.646c.367-.352.745-.719 1.134-1.094a143.962 143.962 0 0 1 3.193-3.028 1.25 1.25 0 0 0 .1-.1 2.078 2.078 0 0 0-.103-.257c-.892-1.904-1.706-3.798-2.568-5.805l-.697-1.615H1.156A1.155 1.155 0 0 1 0 50.139V37.288a1.156 1.156 0 1 1 2.312 0v11.695H8.05c.46 0 .876.273 1.06.695.34.782.673 1.555 1 2.32.856 1.988 1.664 3.867 2.539 5.737.391.836.684 1.938-.533 3.047-1.085.988-2.131 2-3.142 2.979l-.298.288 10.38 10.53.273-.28a154.922 154.922 0 0 1 3.297-3.307c.547-.527 1.615-.894 2.391-.57 2.181.92 4.322 1.874 6.587 2.883l1.998.889c.418.185.687.6.687 1.056v5.668h14.64v-5.724c0-.46.273-.876.694-1.06.785-.342 1.56-.676 2.326-1.005 1.991-.857 3.873-1.666 5.74-2.547 1.206-.57 2.142-.4 3.03.55.977 1.044 2.011 2.083 3.01 3.087.139.139.278.278.415.418l10.364-10.45-4.128-3.88c-.35-.33-.46-.841-.276-1.285l3.89-9.395c.179-.432.6-.714 1.069-.714h5.857V34.317h-5.884c-.467 0-.888-.28-1.067-.712l-3.861-9.3a1.157 1.157 0 0 1 .274-1.285l3.983-3.752L64.01 8.784l-.236.241a179.298 179.298 0 0 1-3.285 3.322c-.459.449-1.48.92-2.314.567-.457-.194-.912-.39-1.367-.588a1.156 1.156 0 0 1 .92-2.121c.378.164.755.327 1.133.488a.329.329 0 0 0 .038-.022 188.613 188.613 0 0 0 3.217-3.257l1.06-1.09c.218-.222.497-.36.827-.348.309 0 .605.124.823.344l12.016 12.165a1.157 1.157 0 0 1-.03 1.654l-4.263 4.016 3.26 7.85h6.267c.638 0 1.156.518 1.156 1.156v16.908c0 .639-.518 1.156-1.156 1.156h-6.24l-3.29 7.943 4.41 4.146a1.153 1.153 0 0 1 .03 1.657L64.964 77.093a1.155 1.155 0 0 1-.82.342h-.002c-.309 0-.604-.125-.821-.345-.41-.415-.82-.828-1.23-1.24a139.545 139.545 0 0 1-3.06-3.14 1.817 1.817 0 0 0-.132-.129 1.964 1.964 0 0 0-.224.091c-1.903.899-3.802 1.716-5.812 2.581-.536.23-1.077.463-1.622.7v6.12c0 .64-.517 1.156-1.156 1.156z" fill="#717791" mask="url(#b)"/></g><path d="M31.194 33.13a1.156 1.156 0 0 1-.792-1.998l.227-.21a1.157 1.157 0 0 1 1.557 1.71l-.2.184c-.223.21-.508.314-.792.314" fill="#717791"/><path d="M41.296 58.478c-8.736 0-15.843-7.106-15.843-15.842 0-3.196.947-6.277 2.74-8.908a1.157 1.157 0 0 1 1.911 1.302 13.453 13.453 0 0 0-2.34 7.606c0 7.46 6.07 13.53 13.532 13.53 7.46 0 13.53-6.07 13.53-13.53 0-7.461-6.07-13.531-13.53-13.531-1.945 0-3.823.403-5.579 1.2a1.157 1.157 0 0 1-.955-2.106 15.723 15.723 0 0 1 6.534-1.406c8.735 0 15.843 7.107 15.843 15.843S50.03 58.478 41.296 58.478" fill="#717791"/><path d="M51.247 19.368a.767.767 0 0 1-.294-.059 30.757 30.757 0 0 0-.465-.187.77.77 0 1 1 .561-1.435c.165.065.33.13.493.199a.77.77 0 0 1-.295 1.482m-27.151 4.509a.77.77 0 0 1-.509-1.35 26.83 26.83 0 0 1 6.306-4.131 26.647 26.647 0 0 1 15.601-2.22.77.77 0 1 1-.243 1.522A25.116 25.116 0 0 0 30.55 19.79a25.32 25.32 0 0 0-5.945 3.894.764.764 0 0 1-.509.193M23.17 62.08a.769.769 0 0 1-.536-.217 26.682 26.682 0 0 1-5.578-7.826 26.674 26.674 0 0 1-1.187-19.832.771.771 0 0 1 1.463.486 25.134 25.134 0 0 0 1.119 18.69 25.14 25.14 0 0 0 5.255 7.375.77.77 0 0 1-.536 1.324m18.143 7.357c-3.06 0-6.13-.53-9.096-1.599a.77.77 0 0 1 .523-1.45c6.343 2.285 13.199 1.964 19.301-.907 6.102-2.87 10.721-7.945 13.007-14.29 2.286-6.344 1.964-13.199-.907-19.3a25.051 25.051 0 0 0-6.456-8.468.77.77 0 1 1 1-1.173 26.575 26.575 0 0 1 6.851 8.984c6.287 13.366.527 29.355-12.839 35.642a26.7 26.7 0 0 1-11.384 2.561" fill="#A3ACD6"/></g></svg>