<svg width="119" height="30" viewBox="0 0 119 30" fill="none" xmlns="http://www.w3.org/2000/svg">
<path id="Shape" fill-rule="evenodd" clip-rule="evenodd" d="M53.3002 0L46.5261 30H54.8635L55.8313 24.8635H62.3821L63.3499 30H71.6129L64.8387 0H53.3002ZM8.70968 23.4491H13.1762L11.7618 29.9255H0L4.76427 8.85849H12.0596L8.70968 23.4491ZM19.6526 29.9999H13.2506L17.866 8.85849H29.7767V29.9999H23.3002V26.9478H20.3226L19.6526 29.9999ZM23.3002 21.5137V13.9951L21.2903 21.5137H23.3002ZM44.1439 29.9255L48.8337 8.85849H42.134L38.7841 23.8213V8.85849H32.2332V29.9255H44.1439ZM113.449 8.85849H101.613V29.9255H108.015V26.8734H111.067L111.737 29.9255H118.139L113.449 8.85849ZM108.015 13.9951V21.5137H109.95L108.015 13.9951ZM99.603 23.7469L100.869 30H87.9901L89.33 15.6328H84.8635L83.6725 8.933H97.2209L95.6576 23.7469H99.603ZM86.2035 30L84.938 23.7469H80.9926L82.5558 8.933H69.0075L70.1985 15.6328H74.665L73.3251 30H86.2035ZM59.0323 6.77427L56.8735 18.2383H61.2655L59.0323 6.77427Z" fill="#72778E"/>
</svg>
