<svg xmlns="http://www.w3.org/2000/svg" width="236" height="60" viewBox="0 0 236 60">
    <path fill="#FFF" fill-rule="nonzero" d="M26.47 60H39.26l1.338-6.104h5.949V60h12.937V17.717H35.69L26.47 60zm20.076-32.01v15.037H42.53l4.015-15.037zM17.399 46.898h8.922l-2.825 12.953H0l9.517-42.134h14.574l-6.692 29.181zm80.154-29.18L88.184 59.85H64.391V17.717h13.086v29.926l6.692-29.926h13.384zm129.078 0h-23.644V59.85h12.789v-6.104h6.097l1.338 6.104H236l-9.369-42.134zm-10.855 25.31V27.99l3.866 15.037h-3.866zm-16.804 4.466L201.5 60h-25.727l2.677-28.734h-8.923l-2.379-13.4h27.065l-3.123 29.628h7.882zm-29.296 0L172.204 60h-25.726l2.676-28.734h-8.922l-2.38-13.4h27.065l-3.122 29.628h7.881zM106.476 0L92.942 60h16.655l1.933-10.273h13.087L126.55 60h16.506L129.525 0h-23.05zm7.137 36.476l4.313-22.928 4.46 22.928h-8.773z"/>
</svg>
