<svg width="176" height="176" viewBox="0 0 176 176" fill="none" xmlns="http://www.w3.org/2000/svg">
<path d="M4 8C6.20914 8 8 6.20914 8 4C8 1.79086 6.20914 0 4 0C1.79086 0 0 1.79086 0 4C0 6.20914 1.79086 8 4 8Z" fill="#FDAF3C"/>
<path d="M28 8C30.2091 8 32 6.20914 32 4C32 1.79086 30.2091 0 28 0C25.7909 0 24 1.79086 24 4C24 6.20914 25.7909 8 28 8Z" fill="#CFCFCF"/>
<path d="M52 8C54.2091 8 56 6.20914 56 4C56 1.79086 54.2091 0 52 0C49.7909 0 48 1.79086 48 4C48 6.20914 49.7909 8 52 8Z" fill="#FF543B"/>
<path d="M4 32C6.20914 32 8 30.2091 8 28C8 25.7909 6.20914 24 4 24C1.79086 24 0 25.7909 0 28C0 30.2091 1.79086 32 4 32Z" fill="#CFCFCF"/>
<path d="M28 32C30.2091 32 32 30.2091 32 28C32 25.7909 30.2091 24 28 24C25.7909 24 24 25.7909 24 28C24 30.2091 25.7909 32 28 32Z" fill="#FDAF3C"/>
<path d="M52 32C54.2091 32 56 30.2091 56 28C56 25.7909 54.2091 24 52 24C49.7909 24 48 25.7909 48 28C48 30.2091 49.7909 32 52 32Z" fill="#FDAF3C"/>
<path d="M4 56C6.20914 56 8 54.2091 8 52C8 49.7909 6.20914 48 4 48C1.79086 48 0 49.7909 0 52C0 54.2091 1.79086 56 4 56Z" fill="#CFCFCF"/>
<path d="M28 56C30.2091 56 32 54.2091 32 52C32 49.7909 30.2091 48 28 48C25.7909 48 24 49.7909 24 52C24 54.2091 25.7909 56 28 56Z" fill="#FF543B"/>
<path d="M52 56C54.2091 56 56 54.2091 56 52C56 49.7909 54.2091 48 52 48C49.7909 48 48 49.7909 48 52C48 54.2091 49.7909 56 52 56Z" fill="#CFCFCF"/>
<path d="M4 80C6.20914 80 8 78.2091 8 76C8 73.7909 6.20914 72 4 72C1.79086 72 0 73.7909 0 76C0 78.2091 1.79086 80 4 80Z" fill="#CFCFCF"/>
<path d="M28 80C30.2091 80 32 78.2091 32 76C32 73.7909 30.2091 72 28 72C25.7909 72 24 73.7909 24 76C24 78.2091 25.7909 80 28 80Z" fill="#FDAF3C"/>
<path d="M52 80C54.2091 80 56 78.2091 56 76C56 73.7909 54.2091 72 52 72C49.7909 72 48 73.7909 48 76C48 78.2091 49.7909 80 52 80Z" fill="#CFCFCF"/>
<path d="M4 104C6.20914 104 8 102.209 8 100C8 97.7909 6.20914 96 4 96C1.79086 96 0 97.7909 0 100C0 102.209 1.79086 104 4 104Z" fill="#FF543B"/>
<path d="M28 104C30.2091 104 32 102.209 32 100C32 97.7909 30.2091 96 28 96C25.7909 96 24 97.7909 24 100C24 102.209 25.7909 104 28 104Z" fill="#CFCFCF"/>
<path d="M52 104C54.2091 104 56 102.209 56 100C56 97.7909 54.2091 96 52 96C49.7909 96 48 97.7909 48 100C48 102.209 49.7909 104 52 104Z" fill="#FF543B"/>
<path d="M4 128C6.20914 128 8 126.209 8 124C8 121.791 6.20914 120 4 120C1.79086 120 0 121.791 0 124C0 126.209 1.79086 128 4 128Z" fill="#FDAF3C"/>
<path d="M28 128C30.2091 128 32 126.209 32 124C32 121.791 30.2091 120 28 120C25.7909 120 24 121.791 24 124C24 126.209 25.7909 128 28 128Z" fill="#FF543B"/>
<path d="M52 128C54.2091 128 56 126.209 56 124C56 121.791 54.2091 120 52 120C49.7909 120 48 121.791 48 124C48 126.209 49.7909 128 52 128Z" fill="#CFCFCF"/>
<path d="M76 128C78.2091 128 80 126.209 80 124C80 121.791 78.2091 120 76 120C73.7909 120 72 121.791 72 124C72 126.209 73.7909 128 76 128Z" fill="#CFCFCF"/>
<path d="M100 128C102.209 128 104 126.209 104 124C104 121.791 102.209 120 100 120C97.7909 120 96 121.791 96 124C96 126.209 97.7909 128 100 128Z" fill="#CFCFCF"/>
<path d="M124 128C126.209 128 128 126.209 128 124C128 121.791 126.209 120 124 120C121.791 120 120 121.791 120 124C120 126.209 121.791 128 124 128Z" fill="#FDAF3C"/>
<path d="M148 128C150.209 128 152 126.209 152 124C152 121.791 150.209 120 148 120C145.791 120 144 121.791 144 124C144 126.209 145.791 128 148 128Z" fill="#FF543B"/>
<path d="M172 128C174.209 128 176 126.209 176 124C176 121.791 174.209 120 172 120C169.791 120 168 121.791 168 124C168 126.209 169.791 128 172 128Z" fill="#FDAF3C"/>
<path d="M4 152C6.20914 152 8 150.209 8 148C8 145.791 6.20914 144 4 144C1.79086 144 0 145.791 0 148C0 150.209 1.79086 152 4 152Z" fill="#FDAF3C"/>
<path d="M28 152C30.2091 152 32 150.209 32 148C32 145.791 30.2091 144 28 144C25.7909 144 24 145.791 24 148C24 150.209 25.7909 152 28 152Z" fill="#CFCFCF"/>
<path d="M52 152C54.2091 152 56 150.209 56 148C56 145.791 54.2091 144 52 144C49.7909 144 48 145.791 48 148C48 150.209 49.7909 152 52 152Z" fill="#FF543B"/>
<path d="M76 152C78.2091 152 80 150.209 80 148C80 145.791 78.2091 144 76 144C73.7909 144 72 145.791 72 148C72 150.209 73.7909 152 76 152Z" fill="#CFCFCF"/>
<path d="M100 152C102.209 152 104 150.209 104 148C104 145.791 102.209 144 100 144C97.7909 144 96 145.791 96 148C96 150.209 97.7909 152 100 152Z" fill="#FF543B"/>
<path d="M124 152C126.209 152 128 150.209 128 148C128 145.791 126.209 144 124 144C121.791 144 120 145.791 120 148C120 150.209 121.791 152 124 152Z" fill="#FF543B"/>
<path d="M148 152C150.209 152 152 150.209 152 148C152 145.791 150.209 144 148 144C145.791 144 144 145.791 144 148C144 150.209 145.791 152 148 152Z" fill="#CFCFCF"/>
<path d="M172 152C174.209 152 176 150.209 176 148C176 145.791 174.209 144 172 144C169.791 144 168 145.791 168 148C168 150.209 169.791 152 172 152Z" fill="#FDAF3C"/>
<path d="M4 176C6.20914 176 8 174.209 8 172C8 169.791 6.20914 168 4 168C1.79086 168 0 169.791 0 172C0 174.209 1.79086 176 4 176Z" fill="#CFCFCF"/>
<path d="M28 176C30.2091 176 32 174.209 32 172C32 169.791 30.2091 168 28 168C25.7909 168 24 169.791 24 172C24 174.209 25.7909 176 28 176Z" fill="#FF543B"/>
<path d="M52 176C54.2091 176 56 174.209 56 172C56 169.791 54.2091 168 52 168C49.7909 168 48 169.791 48 172C48 174.209 49.7909 176 52 176Z" fill="#CFCFCF"/>
<path d="M76 176C78.2091 176 80 174.209 80 172C80 169.791 78.2091 168 76 168C73.7909 168 72 169.791 72 172C72 174.209 73.7909 176 76 176Z" fill="#FDAF3C"/>
<path d="M100 176C102.209 176 104 174.209 104 172C104 169.791 102.209 168 100 168C97.7909 168 96 169.791 96 172C96 174.209 97.7909 176 100 176Z" fill="#FDAF3C"/>
<path d="M124 176C126.209 176 128 174.209 128 172C128 169.791 126.209 168 124 168C121.791 168 120 169.791 120 172C120 174.209 121.791 176 124 176Z" fill="#CFCFCF"/>
<path d="M148 176C150.209 176 152 174.209 152 172C152 169.791 150.209 168 148 168C145.791 168 144 169.791 144 172C144 174.209 145.791 176 148 176Z" fill="#FF543B"/>
<path d="M172 176C174.209 176 176 174.209 176 172C176 169.791 174.209 168 172 168C169.791 168 168 169.791 168 172C168 174.209 169.791 176 172 176Z" fill="#FF543B"/>
</svg>
