<svg width="429" height="400" viewBox="0 0 429 400" fill="none" xmlns="http://www.w3.org/2000/svg">
<path opacity="0.4" fill-rule="evenodd" clip-rule="evenodd" d="M185.715 0L92.8508 214.285H185.715L278.572 0H185.715Z" fill="black" fill-opacity="0.1"/>
<path fill-rule="evenodd" clip-rule="evenodd" d="M0 0L92.8569 214.285H185.714L92.8569 0H0Z" fill="black" fill-opacity="0.1"/>
<path fill-rule="evenodd" clip-rule="evenodd" d="M428.57 235.713C428.57 255.441 412.585 271.427 392.856 271.427C373.128 271.427 357.142 255.441 357.142 235.713C357.142 215.984 373.128 199.998 392.856 199.998C412.585 199.998 428.57 215.984 428.57 235.713Z" fill="black" fill-opacity="0.1"/>
<path fill-rule="evenodd" clip-rule="evenodd" d="M324.678 257.065H230C240.471 337.7 309.364 400 392.857 400V307.143C360.842 307.143 333.757 286.079 324.678 257.065Z" fill="black" fill-opacity="0.1"/>
<path fill-rule="evenodd" clip-rule="evenodd" d="M230.008 214.283H324.708C333.808 185.305 360.872 164.284 392.857 164.284V71.4266C309.386 71.4266 240.515 133.684 230.008 214.283Z" fill="black" fill-opacity="0.1"/>
</svg>
