<svg width="320" height="238" viewBox="0 0 320 238" xmlns="http://www.w3.org/2000/svg" xmlns:xlink="http://www.w3.org/1999/xlink"><title>Group 130</title><defs><path id="a" d="M.587.618h78.37v2.32H.587z"/><path id="c" d="M0 238.02h319.242V.477H0z"/></defs><g fill="none" fill-rule="evenodd"><path d="M285.131 223.231h5.492-5.492z" fill="#E5EEFD"/><g transform="translate(0 -.498)"><path d="M285.132 223.031c.915-.354 1.83-.388 2.746-.376.914.01 1.83.074 2.745.27a.824.824 0 0 1 0 1.609c-.915.193-1.831.258-2.745.269-.916.012-1.831-.023-2.746-.377a.747.747 0 0 1 0-1.395" fill="#717791"/><path d="M34.471 223.729h246.626" fill="#E5EEFD"/><path d="M34.471 223.067c10.276-.301 20.553-.35 30.829-.343l30.828-.024 61.657-.049 61.656-.05 30.829-.024c10.275.007 20.551.03 30.827.289a.863.863 0 0 1 0 1.725c-10.276.258-20.552.282-30.827.29l-30.829-.025-61.656-.05-61.657-.049-30.828-.025c-10.276.007-20.553-.04-30.829-.342a.66.66 0 0 1 0-1.323" fill="#717791"/><path d="M28.404 223.729h.802" fill="#E5EEFD"/><path d="M28.404 222.75c.134-.031.267 0 .401.002.068-.003.134.032.2.048.068.018.135.04.201.085a1.017 1.017 0 0 1 0 1.686.622.622 0 0 1-.2.085c-.067.018-.133.052-.201.05-.134.002-.267.032-.401.002a1.004 1.004 0 0 1 0-1.959" fill="#717791"/><path d="M18.529 223.729h3.997" fill="#E5EEFD"/><path d="M18.529 223.015c.666-.173 1.332-.237 1.998-.266.667-.043 1.332-.015 1.999.189a.828.828 0 0 1 .55 1.032.838.838 0 0 1-.55.55c-.667.202-1.332.23-1.999.189-.666-.03-1.332-.094-1.998-.267a.738.738 0 0 1 0-1.427" fill="#717791"/><path d="M129.383 236.86h76.975" fill="#E5EEFD"/><g transform="translate(128.196 235.082)"><mask id="b" fill="#fff"><use xlink:href="#a"/></mask><path d="M1.188 1.117C4.394.813 7.602.774 10.809.768l9.622-.05 19.244-.1 19.243.004 9.622.001c3.208.015 6.415.034 9.622.292a.866.866 0 0 1 0 1.726c-3.207.26-6.414.278-9.622.292l-9.622.002-19.243.004-19.244-.1-9.622-.05c-3.207-.006-6.415-.045-9.621-.349a.665.665 0 0 1 0-1.323" fill="#717791" mask="url(#b)"/></g><path d="M97.712 236.86h19.724" fill="#E5EEFD"/><path d="M97.712 236.147c3.287-.173 6.575-.237 9.862-.266 3.288-.033 6.575-.02 9.862.188a.793.793 0 0 1 0 1.583c-3.287.208-6.574.22-9.862.189-3.287-.03-6.575-.094-9.862-.268a.713.713 0 0 1 0-1.426" fill="#717791"/><path d="M208.232 123.177a79.718 79.718 0 0 0-.103 1.873" fill="#93B9F4"/><path d="M287.527 114.795c-27.972-9.8-58.613.568-86.605-4.14-7.476-1.257-17.358-3.783-23.24-10.06-2.94-3.138 19.427-17.29 44.897-22.374 10.794-2.154 23.747-.454 33.416-7.47 6.738-4.888 11.78-16.12 8.899-25.492-8.668-28.196-49.034-5.2-86.33-.786-48.74 5.77-84.91-15.792-130.112-12.744-20.167 1.36-37.907 32.198-9.322 38.203 10.545 2.215 23.625 3.664 33.025 10.073 5.109 3.484 7.611 10.89 3.597 16.775-3.926 5.754-12.437 5.297-18.054 6.36-14.318 2.708-29.16 5.713-40.812 17.012-11.525 11.177-14.862 31.203-3.556 44.12 11.223 12.821 52.493 26.398 96.307 10.506 15.55-5.64 30.478-17.362 46.823-17.519 13.645-.13 26.29 8.125 39.133 13.948 44.655 20.246 91.938 7.338 105.42-6.415 14.911-15.21 11.313-41.307-13.486-49.997m.779-47.598c4.796 3.514 10.51 4.584 15.516 2.523 2.153-.887 4.174-2.353 5.935-4.453 4.765-5.681 6.355-14.465 3.993-22.047-2.542-8.158-9.934-15.66-17.473-14.078-6.761 1.42-15.38 10.983-17.034 19.078-1.51 7.382 4.21 15.422 9.063 18.977" fill="#E5EEFD"/><mask id="d" fill="#fff"><use xlink:href="#c"/></mask><path fill="#FFF" mask="url(#d)" d="M180.342 222.46h93.99v-88.761h-93.99z"/><path fill="#E5EEFD" mask="url(#d)" d="M205.66 116.48l27.337 17.134 23.196-16.874h38.632l-20.269 17.456h-46.67l-40.466-.496v-16.197l10.66-1.272z"/><path d="M232.134 170.92c.555 3.706.733 7.412.819 11.119a98.394 98.394 0 0 1-.045 5.559c-.069 1.853-.19 3.706-.45 5.56a.977.977 0 0 1-1.934 0c-.26-1.854-.382-3.707-.45-5.56a96.59 96.59 0 0 1-.044-5.56c.085-3.706.262-7.412.818-11.118a.65.65 0 0 1 1.286 0m-44.505-38.193h86.003l-.885.298 23.033-17.456.886 2.64h-40.474l.856-.275a79.456 79.456 0 0 1-4.348 3.139c-1.469 1.02-2.98 1.978-4.47 2.965a356.085 356.085 0 0 1-9.06 5.769.693.693 0 0 1-.805-1.125 354.217 354.217 0 0 1 8.366-6.735c1.413-1.097 2.805-2.222 4.241-3.287a79.284 79.284 0 0 1 4.365-3.114l.048-.031c.25-.166.529-.245.807-.244h40.474a1.468 1.468 0 0 1 .886 2.64l-23.034 17.457c-.264.2-.577.297-.886.297H187.63a1.468 1.468 0 0 1 0-2.938" fill="#717791" mask="url(#d)"/><path stroke="#717791" stroke-width="3.556" stroke-linecap="round" stroke-linejoin="round" mask="url(#d)" d="M232.32 133.429l-25.156-16.689H187.42v16.96"/><path d="M275.1 134.196c.026 7.053.103 14.108.087 21.161l-.053 21.162-.148 21.16c-.04 7.054-.18 14.108-.724 21.162a.632.632 0 0 1-1.259 0c-.545-7.054-.684-14.108-.724-21.161l-.149-21.161-.053-21.162c-.015-7.053.062-14.108.087-21.16a1.469 1.469 0 0 1 2.936 0m-41.312.767c.016 1.676-.01 3.35-.026 5.027l-.013 1.256-.007.63c-.106.209-.08.417-.095.627l-.107 2.513-.403 10.053a.819.819 0 0 1-.85.786.821.821 0 0 1-.783-.786l-.403-10.053-.107-2.513c-.016-.21.01-.418-.095-.628l-.007-.629-.012-1.256c-.016-1.676-.043-3.351-.028-5.027a1.47 1.47 0 0 1 2.936 0" fill="#717791" mask="url(#d)"/><path d="M203.946 116.976l9.286 3.452v86.574c0 8.36-6.771 15.138-15.124 15.138h-21.755l5.041-89.496" fill="#3F72BA" mask="url(#d)"/><path d="M208.288 36.053v162.451c0 12.46-10.09 22.548-22.527 22.548h-68.187c-10.237 0-18.877-6.827-21.619-16.181a22.434 22.434 0 0 1-.91-6.367V36.053c0-1.293.109-2.567.323-3.8 1.8-10.648 11.058-18.749 22.206-18.749h68.187c11.146 0 20.404 8.1 22.194 18.748.227 1.234.333 2.508.333 3.8" fill="#FFF" mask="url(#d)"/><path d="M207.956 32.252H95.368c1.801-10.647 11.059-18.748 22.206-18.748h68.187c11.146 0 20.404 8.1 22.195 18.748" fill="#E5EEFD" mask="url(#d)"/><path d="M93.904 71.772c-.06-.192-.021-.385.038-.578a2.13 2.13 0 0 1 .26-.58 1.002 1.002 0 0 1 1.68 0c.125.194.203.386.259.58.06.193.097.386.038.578a1.188 1.188 0 0 1-2.275 0" fill="#717791" mask="url(#d)"/><path d="M94.22 65.875c-.223-6.054-.347-12.109-.516-18.163a401.578 401.578 0 0 1-.127-9.082l-.004-2.27c.007-.768.068-1.6.103-2.395.05-.804.22-1.597.327-2.395.132-.795.38-1.568.566-2.351 1.796-6.213 6.249-11.568 11.996-14.505a23.905 23.905 0 0 1 9.243-2.603c1.649-.117 3.127-.086 4.642-.09l4.536-.001 36.293-.016 18.146-.007 4.537-.002c.77.01 1.482-.024 2.3.024.803.057 1.614.036 2.412.167a23.83 23.83 0 0 1 9.118 3.054c5.599 3.225 9.792 8.79 11.306 15.087.232.776.333 1.579.454 2.378.155.796.173 1.604.214 2.411.056.826.047 1.574.046 2.329l.001 2.27.004 9.081.016 36.327.03 72.654-.014 36.327-.01 4.55c-.043.807-.07 1.617-.134 2.422-.125.8-.233 1.603-.379 2.397a23.948 23.948 0 0 1-3.848 8.842c-3.7 5.31-9.615 9.016-16.018 9.972l-1.198.18-1.21.067-1.208.058-1.14.004-4.537-.003-9.073-.005-18.146-.01-18.147-.01-9.073-.004-4.536-.002-2.27-.002c-.751.003-1.502.008-2.327-.048-6.454-.22-12.745-3.233-16.997-8.087a24.027 24.027 0 0 1-4.804-8.325c-.287-.754-.428-1.555-.645-2.332-.205-.78-.27-1.59-.407-2.384-.124-.797-.107-1.608-.163-2.412-.045-.812-.012-1.529-.022-2.298l.02-36.327.019-36.327.01-18.163c-.004-6.055.07-12.11.725-18.164a.715.715 0 1 1 1.42 0c.655 6.055.73 12.11.727 18.164l.008 18.163.02 36.327.019 36.327c.01.744-.021 1.542.023 2.242.057.704.033 1.417.146 2.114.126.695.175 1.406.358 2.089.197.678.311 1.38.568 2.04a21.036 21.036 0 0 0 4.214 7.284c3.737 4.25 9.231 6.875 14.882 7.062.685.05 1.447.047 2.207.043h2.269l4.536-.003 9.073-.006 18.147-.009 18.146-.01 9.073-.004 4.538-.002 1.128-.005 1.056-.056 1.055-.056 1.045-.162c5.574-.837 10.725-4.07 13.948-8.702a20.847 20.847 0 0 0 3.342-7.7c.124-.692.214-1.391.327-2.087l.115-2.11.004-4.532-.014-36.327.03-72.654.015-36.327.003-9.082.001-2.27c.002-.758.01-1.525-.042-2.21-.036-.705-.046-1.413-.184-2.107-.108-.697-.19-1.4-.396-2.076-1.314-5.49-4.976-10.363-9.867-13.186a20.81 20.81 0 0 0-7.962-2.674c-1.395-.154-2.795-.183-4.347-.172l-4.537-.002-18.146-.008-36.293-.015-4.536-.002c-1.51.001-3.058-.023-4.428.079a20.92 20.92 0 0 0-8.099 2.273c-5.04 2.567-8.958 7.27-10.532 12.712-.16.689-.384 1.363-.499 2.061-.089.7-.246 1.394-.287 2.101-.028.716-.086 1.394-.095 2.141l-.004 2.27c-.01 3.028-.049 6.055-.127 9.083-.169 6.054-.294 12.109-.516 18.163a.823.823 0 0 1-1.643 0" fill="#717791" mask="url(#d)"/><path d="M144.07 22.324c1.324-.29 2.648-.41 3.972-.496 1.324-.088 2.648-.072 3.972-.056 2.648.043 5.296.178 7.944.552a.91.91 0 0 1 0 1.803c-2.648.375-5.296.51-7.944.553-1.324.015-2.648.031-3.972-.057-1.324-.086-2.648-.205-3.972-.496a.923.923 0 0 1 0-1.803m14.237 190.111c-.71 1.612-2.206 2.901-3.961 3.497-1.763.605-3.737.501-5.48-.184-1.736-.69-3.275-1.937-4.196-3.578a8.361 8.361 0 0 1-1.075-5.392 8.457 8.457 0 0 1 2.471-4.845c1.321-1.258 3.04-2.104 4.84-2.278a7.773 7.773 0 0 1 5.106 1.183c1.462.98 2.564 2.44 3.006 4.063a.52.52 0 0 1-.95.402l-.003-.007c-1.476-2.505-4.278-3.81-6.849-3.341-1.282.196-2.445.875-3.31 1.793a5.749 5.749 0 0 0-1.484 3.371c-.285 2.489 1.259 4.96 3.538 5.868a5.23 5.23 0 0 0 1.78.396c.614.055 1.231-.007 1.84-.127 1.22-.251 2.393-.828 3.52-1.712l.03-.024a.766.766 0 0 1 1.077.131c.181.23.209.533.1.784m38.423-17.271c1.876-.428 3.754-.61 5.631-.73 1.877-.112 3.754-.171 5.632-.062a1.472 1.472 0 0 1 0 2.939c-1.878.11-3.755.05-5.632-.062-1.877-.12-3.755-.3-5.632-.73a.695.695 0 0 1 0-1.355m-19.429.086c.522-.363 1.042-.524 1.564-.614.52-.064 1.041-.19 1.562.441.372.452.36 1.094 0 1.53-.521.63-1.042.504-1.562.44-.522-.09-1.042-.251-1.563-.613a.722.722 0 0 1 0-1.184m-82.113-.878c12.303-.2 24.606-.189 36.908-.175l18.453.147c6.151.09 12.303-.124 18.454.928a.577.577 0 0 1 0 1.14c-6.151 1.052-12.303.837-18.454.927l-18.453.147c-12.302.015-24.605.026-36.908-.175a1.47 1.47 0 0 1 0-2.939M108.003 31.85c8.333-.81 16.665-.707 24.998-.77l24.997-.14 24.997-.024 24.998.118a1.47 1.47 0 1 1 0 2.939l-24.998.116-24.997-.023-24.997-.14c-8.333-.063-16.665.039-24.998-.77a.657.657 0 0 1 0-1.306" fill="#717791" mask="url(#d)"/><path d="M180.463 63.137h8.1a4.392 4.392 0 0 1 4.391 4.394v104.913a4.393 4.393 0 0 1-4.39 4.394h-83.097a4.392 4.392 0 0 1-4.39-4.394V67.531a4.391 4.391 0 0 1 4.39-4.394h53.92" fill="#3F72BA" mask="url(#d)"/><path d="M185.134 56.989h8.1a4.392 4.392 0 0 1 4.39 4.394v104.913a4.391 4.391 0 0 1-4.39 4.394h-83.096a4.392 4.392 0 0 1-4.39-4.394V61.383a4.393 4.393 0 0 1 4.39-4.394h53.92" fill="#FFF" mask="url(#d)"/><path d="M185.134 56.322c1.992-.34 3.982-.477 5.974-.548.498-.026.996-.02 1.494-.032.262 0 .465-.013.78-.004.318.004.635.045.951.1a5.71 5.71 0 0 1 3.245 1.926 5.709 5.709 0 0 1 1.31 3.542l.008 3.007.008 5.98.036 23.917.075 47.835.036 23.918v.386l-.026.493a6.102 6.102 0 0 1-.177.974 5.881 5.881 0 0 1-.826 1.792 5.864 5.864 0 0 1-3.148 2.282 6.074 6.074 0 0 1-.97.198 8.978 8.978 0 0 1-.91.042l-1.493.002-2.987.004-11.948.019-47.79.072-11.947-.006-5.974-.003-.757-.002a6.237 6.237 0 0 1-1-.094 6.003 6.003 0 0 1-1.885-.683c-1.172-.657-2.087-1.738-2.58-2.987a5.689 5.689 0 0 1-.4-1.963c-.016-.597-.004-1.025-.008-1.544l.002-2.99.003-5.98.005-11.958.023-47.836.01-23.916.002-5.98.002-2.99v-1.494l.001-.374.02-.483c.03-.33.071-.663.16-.984a5.82 5.82 0 0 1 2.162-3.263 5.85 5.85 0 0 1 1.764-.912c.615-.201 1.357-.275 1.915-.27l5.974.003 23.895.01c7.966.086 15.93-.288 23.896.656a.811.811 0 0 1 0 1.609c-7.966.944-15.93.57-23.896.656l-23.895.01-5.974.004c-.77-.013-1.356.18-1.906.59a2.87 2.87 0 0 0-1.072 1.621c-.05.158-.065.324-.08.489l-.012.264v1.868l.003 2.99.003 5.98.01 23.916.022 47.836.005 11.959.003 5.978.002 2.99c.003.477-.006 1.046.006 1.446.005.328.072.65.194.95.24.598.681 1.133 1.252 1.447.284.158.59.269.91.327.159.032.321.039.484.047h.737l5.974-.002 11.947-.006 47.79.071 11.948.019 2.987.005 1.494.002c.284.003.402-.009.58-.02a2.998 2.998 0 0 0 2.092-1.252c.19-.278.333-.585.42-.909.05-.16.071-.327.095-.492l.014-.254.001-.36.038-23.918.072-47.835.036-23.918.01-5.979.002-2.973a3.163 3.163 0 0 0-.717-1.959 3.186 3.186 0 0 0-1.792-1.072 3.405 3.405 0 0 0-.53-.057c-.183-.014-.48-.01-.714-.017-.498-.011-.996-.007-1.494-.032-1.992-.07-3.982-.208-5.974-.549a.675.675 0 0 1 0-1.332" fill="#717791" mask="url(#d)"/><path d="M119.818 142.36h63.711" fill="#E5EEFD" mask="url(#d)"/><path d="M119.818 141.27c5.31-.556 10.62-.64 15.928-.612l15.928.13c5.31.018 10.619.173 15.928.253 5.31.095 10.62.25 15.927.437a.883.883 0 0 1 0 1.765c-5.307.188-10.617.343-15.927.438-5.309.08-10.618.234-15.928.252l-15.928.132c-5.308.028-10.618-.058-15.928-.614a1.095 1.095 0 0 1 0-2.18" fill="#A3ACD6" mask="url(#d)"/><path d="M139.07 154.032h29.226" fill="#E5EEFD" mask="url(#d)"/><path d="M139.07 153.129c4.871-1.006 9.742-.812 14.613-.746 4.87.11 9.742.322 14.613.836a.817.817 0 0 1 0 1.627c-4.87.513-9.742.726-14.613.835-4.871.066-9.742.26-14.613-.745a.922.922 0 0 1 0-1.807" fill="#A3ACD6" mask="url(#d)"/><path d="M119.818 154.032h12.3" fill="#E5EEFD" mask="url(#d)"/><path d="M119.818 153.002c2.05-.807 4.1-.693 6.15-.648 2.05.076 4.1.238 6.15.648a1.05 1.05 0 0 1 0 2.06c-2.05.41-4.1.573-6.15.647-2.05.046-4.1.16-6.15-.647a1.108 1.108 0 0 1 0-2.06" fill="#A3ACD6" mask="url(#d)"/><path d="M170.328 56.738h.462" fill="#FFF" mask="url(#d)"/><path d="M170.33 55.717l.46-.099a1.145 1.145 0 1 1 0 2.24l-.46-.098a1.044 1.044 0 0 1 0-2.043" fill="#717791" mask="url(#d)"/><path d="M145.83 75.663s-3.98-.2-3.781-.2c.199 0-13.134 6.44-13.134 6.44l-6.633 3.918 5.373 11.486 7.561-2.191-.132 8.365 15.986 20.781 11.41-.067 8.025-.53.066-27.42 1.327-.996 6.168 2.655 4.71-12.415-20.364-10.158-16.583.332z" fill="#B8D4FF" mask="url(#d)"/><path d="M169.939 124.966c-1.23.198-2.46.1-3.689.143-1.229.019-2.458.017-3.688.013l-1.844-.004c-.615-.024-1.23-.102-1.844-.127l-3.688-.238a.532.532 0 0 1 0-1.063l3.688-.238c.614-.024 1.229-.102 1.844-.127l1.844-.003c1.23-.005 2.46-.007 3.688.012 1.23.044 2.459-.054 3.689.143a.755.755 0 0 1 0 1.49m-35.919-25.16v-5.199l1.862 1.212-4.987 2.22-1.248.556c-.77.35-1.733.324-2.48-.091a2.768 2.768 0 0 1-1.132-1.12l-.113-.22-.147-.308-.59-1.232-2.359-4.927-1.18-2.463-.295-.616-.147-.309a3.247 3.247 0 0 1-.21-.576 2.826 2.826 0 0 1 1.54-3.224l.615-.291 1.234-.583 2.469-1.166 4.938-2.332 9.874-4.663c.181-.086.378-.127.566-.128h21.005c.193 0 .38.046.545.123l9.881 4.665 4.938 2.332 2.468 1.167 1.235.583.618.29a2.832 2.832 0 0 1 1.545 3.214c-.047.2-.138.433-.21.583l-.147.308-.295.616-1.18 2.463-2.36 4.927-.59 1.232-.146.307c-.029.06-.164.337-.278.487-.246.355-.579.65-.956.853a2.825 2.825 0 0 1-2.486.103l-1.247-.555-4.989-2.22-.01-.005 1.863-1.212c.009 3.546-.109 7.091-.244 10.636-.143 3.545-.302 7.09-.543 10.635a.538.538 0 0 1-1.074 0c-.241-3.544-.4-7.09-.545-10.635-.134-3.545-.252-7.09-.244-10.636a1.326 1.326 0 0 1 1.864-1.211l.009.004 4.988 2.22 1.245.554c.048.017.098.02.146-.008-.068.271.48-.948.848-1.695l2.358-4.926 1.18-2.463.295-.616.149-.308c.024-.057.013-.036.022-.059a.173.173 0 0 0-.034-.144c-.02-.02-.023-.028-.066-.049l-.616-.291-1.234-.583-2.468-1.166-4.935-2.33-9.865-4.659.554.122H142.23l.564-.127-9.875 4.664-4.938 2.332-2.468 1.166-1.235.584-.616.29c-.035.018-.044.03-.062.05-.035.036-.041.097-.034.14.01.023-.003-.002.027.064l.147.308.296.616 1.179 2.464 2.36 4.93.59 1.231.147.308.035.075.007.01c.001.007.008.009.01.015a.14.14 0 0 0 .054.048c.053.026.093.027.153.004l1.247-.555 4.989-2.22a1.325 1.325 0 0 1 1.862 1.211v5.199a1.325 1.325 0 1 1-2.649 0" fill="#717791" mask="url(#d)"/><path d="M143.516 81.33l-.092-.67a.71.71 0 0 1 .972-.75l.084.035.554.233a1.102 1.102 0 1 1-1.516 1.168l-.002-.016zm20.602-5.341c-.182 1.83-.806 3.648-1.862 5.177-1.046 1.534-2.465 2.819-4.117 3.66-1.632.882-3.495 1.278-5.316 1.273-1.815.003-3.666-.581-4.993-1.79a.538.538 0 0 1-.036-.758.534.534 0 0 1 .459-.172l.022.003c1.613.198 3.042.334 4.486.219a9.287 9.287 0 0 0 4.043-1.23 9.543 9.543 0 0 0 3.081-2.834c.813-1.151 1.331-2.486 1.604-3.883l.01-.051a1.326 1.326 0 0 1 1.555-1.047 1.331 1.331 0 0 1 1.064 1.433" fill="#717791" mask="url(#d)"/><path d="M144.43 129.119c-.243-.015-.49-.012-.729-.047-1.295-.195-2.433.172-3.489.915-1.639 1.155-1.655 1.16-3.312-.006-1.076-.757-2.225-1.066-3.542-.912-1.851.216-1.944.156-2.725-1.567-.568-1.252-1.448-2.13-2.699-2.695-1.709-.772-1.77-.867-1.556-2.734.153-1.339-.174-2.5-.947-3.586-1.131-1.59-1.132-1.639.005-3.233.774-1.088 1.094-2.25.941-3.587-.212-1.854-.139-1.974 1.56-2.73 1.257-.56 2.131-1.438 2.697-2.693.783-1.735.888-1.793 2.773-1.563 1.3.159 2.432-.163 3.487-.914 1.656-1.178 1.674-1.177 3.313-.014 1.07.761 2.214 1.088 3.535.926 1.86-.228 1.993-.148 2.76 1.585.55 1.243 1.416 2.108 2.657 2.66 1.734.773 1.805.887 1.59 2.761-.152 1.34.18 2.5.956 3.584 1.114 1.558 1.116 1.65.012 3.19-.788 1.1-1.125 2.275-.966 3.634.213 1.826.125 1.962-1.576 2.72-1.238.552-2.14 1.402-2.657 2.66-.087.208-.202.404-.29.612-.336.807-.883 1.237-1.798 1.034" fill="#FFF" mask="url(#d)"/><path d="M143.51 127.198c-.205-.013-.412-.01-.615-.04-1.092-.164-2.052.146-2.941.773-1.383.973-1.397.977-2.793-.006-.906-.638-1.877-.898-2.987-.77-1.562.183-1.64.133-2.298-1.32-.478-1.055-1.22-1.796-2.276-2.273-1.44-.65-1.491-.73-1.312-2.305.13-1.13-.146-2.109-.799-3.024-.954-1.34-.954-1.382.004-2.726.654-.916.923-1.898.794-3.024-.178-1.564-.117-1.665 1.316-2.303 1.06-.471 1.798-1.212 2.274-2.27.66-1.464.748-1.512 2.34-1.319 1.095.134 2.05-.136 2.939-.77 1.396-.993 1.411-.993 2.792-.01.902.64 1.869.916 2.982.78 1.57-.193 1.68-.125 2.327 1.335.465 1.048 1.195 1.779 2.24 2.244 1.462.652 1.523.748 1.342 2.328-.129 1.129.151 2.108.806 3.022.94 1.313.94 1.391.01 2.69-.665.928-.949 1.918-.816 3.064.18 1.54.107 1.654-1.328 2.294-1.044.465-1.805 1.181-2.24 2.242-.073.175-.17.34-.244.516-.284.681-.746 1.044-1.517.872" fill="#D5BEFD" mask="url(#d)"/><path d="M152.467 119.238c.105.695.026 1.13-.074 1.588a4.33 4.33 0 0 0-.034 1.439c.035.305.072.622.085.995.003.355.013.888-.325 1.472-.361.561-.797.793-1.1.97-.32.172-.608.303-.887.43-.956.417-1.647 1.017-2.078 1.852-.052.104-.103.21-.148.321l-.188.402c-.116.23-.262.65-.538 1.026-.264.381-.716.782-1.267.956-.55.182-1.07.139-1.492.048l.18.027c-.37-.025-.883-.054-1.092-.083a3.464 3.464 0 0 0-.794.026c-.521.077-1.032.291-1.526.606l-.852.588c-.328.203-.656.484-1.381.655a2.25 2.25 0 0 1-1.112-.083 3.706 3.706 0 0 1-.703-.338c-.372-.224-.664-.434-.96-.638a4.172 4.172 0 0 0-1.511-.691 3.71 3.71 0 0 0-.812-.09c-.288-.002-.522.026-.922.073-.385.033-.743.1-1.338.04a2.255 2.255 0 0 1-1.022-.373 2.484 2.484 0 0 1-.682-.71c-.53-.847-.698-1.47-1.006-1.912a4.034 4.034 0 0 0-1.137-1.176 4.778 4.778 0 0 0-.744-.414c-.328-.15-.662-.292-1.062-.515a3.251 3.251 0 0 1-.68-.493 2.185 2.185 0 0 1-.59-.987c-.184-.723-.09-1.107-.076-1.51l.057-.559a6.82 6.82 0 0 0 .029-.429 3.799 3.799 0 0 0-.063-.808 4.167 4.167 0 0 0-.615-1.505l-.603-.882c-.195-.348-.535-.72-.61-1.588a2.383 2.383 0 0 1 .213-1.058c.118-.262.239-.458.351-.634.22-.34.458-.655.626-.902a4.03 4.03 0 0 0 .655-1.502 4.149 4.149 0 0 0 .052-1.236l-.054-.543c-.025-.388-.088-.785.026-1.425.067-.33.251-.728.502-1.006.253-.292.485-.427.7-.567.41-.239.752-.385 1.085-.534.297-.13.53-.251.77-.408.467-.304.852-.69 1.16-1.16.162-.246.278-.47.422-.785.157-.335.298-.666.553-1.083.135-.21.297-.45.585-.692a2.26 2.26 0 0 1 1.007-.46c.623-.095 1.01-.025 1.394.006l.539.063a3.783 3.783 0 0 0 1.232-.041c.526-.105 1.032-.336 1.517-.671.28-.192.577-.41.924-.63.185-.112.372-.23.65-.341.25-.112.656-.21 1.043-.166.802.107 1.136.424 1.48.621l.87.608c.488.323 1 .539 1.537.634.27.049.546.064.83.053.258-.005.609-.062 1.008-.096.392-.02.818-.1 1.504.103.339.108.682.342.898.582.204.231.351.458.452.647.214.387.357.727.505 1.055.118.27.257.525.418.759.317.47.726.838 1.19 1.183l.359.261.19.134c.084.056.168.113.248.176.327.242.635.502.897.795a.607.607 0 0 1-.496 1.011l-.19-.015a5.703 5.703 0 0 1-1.233-.236l-.292-.093a5.063 5.063 0 0 1-.575-.255c-.75-.397-1.398-1.025-1.885-1.728a6.755 6.755 0 0 1-.62-1.103c-.146-.32-.287-.634-.42-.867-.066-.125-.124-.192-.152-.23l.012.009c.002-.013-.299-.029-.611.01-.308.025-.66.089-1.112.111a6.097 6.097 0 0 1-1.297-.074 6.336 6.336 0 0 1-2.39-.95l-.883-.608c-.25-.176-.527-.288-.443-.25.129-.018-.028.003-.285.177-.251.161-.528.364-.832.579-.679.479-1.485.87-2.353 1.049a6.35 6.35 0 0 1-1.951.087l-.522-.057c-.321-.036-.65-.044-.731-.024-.03.011.028-.008.046-.029.014-.012-.033.04-.088.13-.119.19-.264.512-.404.823a7.788 7.788 0 0 1-.584 1.096 6.325 6.325 0 0 1-1.82 1.85 7.595 7.595 0 0 1-1.105.603 8.655 8.655 0 0 0-.828.407.83.83 0 0 0-.13.095c.016-.01.045-.077.036-.061-.015.064-.012.385.024.703l.057.518a6.456 6.456 0 0 1-.073 1.952 6.45 6.45 0 0 1-1.009 2.396c-.232.342-.42.596-.585.856-.182.26-.196.433-.174.272-.037-.145.042.105.22.35l.61.874c.468.704.836 1.54.986 2.42.078.437.109.882.093 1.316a8.105 8.105 0 0 1-.048.636l-.054.501c-.036.302-.03.645-.018.612.007-.005-.06-.095-.051-.082.008.007.068.06.184.123.221.127.538.272.856.419.38.174.757.383 1.113.63a6.452 6.452 0 0 1 1.796 1.883c.474.752.719 1.52.962 1.871.054.087.077.097.039.067-.03-.029-.104-.03-.028-.022.112.023.467-.002.788-.036.305-.034.779-.09 1.203-.08.432.004.874.056 1.304.155a6.515 6.515 0 0 1 2.34 1.075c.287.202.574.406.81.55.123.08.21.114.252.133.03.003-.037-.006-.062.004-.026.018.254-.107.514-.293.279-.185.536-.38.909-.617.705-.443 1.533-.798 2.423-.923a5.726 5.726 0 0 1 1.332-.037c.497.067.696.057 1.033.087l.026.002c.05.004.105.013.154.023.16.035.26.026.282.017.023-.009.052-.013.133-.12.082-.106.141-.258.288-.564l.195-.412c.07-.166.148-.33.232-.492.663-1.314 1.924-2.332 3.167-2.844.267-.118.525-.237.732-.346.217-.11.303-.214.267-.165-.028.064.02-.031.01-.267a9.965 9.965 0 0 0-.065-.795 6.533 6.533 0 0 1 .078-2.137c.14-.715.527-1.405 1.254-1.732a.69.69 0 0 1 .964.523l.01.069z" fill="#717791" mask="url(#d)"/><path d="M133.056 121.73c.446-1.273 1.244-2.192 2.059-3.095.826-.894 1.75-1.688 2.632-2.524 1.778-1.657 3.556-3.317 5.401-4.906a.883.883 0 0 1 1.246 1.246c-1.587 1.848-3.246 3.626-4.902 5.407-.835.883-1.628 1.808-2.52 2.634-.903.816-1.822 1.615-3.093 2.06a.645.645 0 0 1-.823-.822" fill="#717791" mask="url(#d)"/><path d="M136.307 111.355a2.414 2.414 0 0 1 0 3.413 2.409 2.409 0 0 1-3.41 0 2.414 2.414 0 0 1 0-3.413 2.409 2.409 0 0 1 3.41 0zm7.92 7.828a2.414 2.414 0 0 1 0 3.414 2.409 2.409 0 0 1-3.41 0 2.414 2.414 0 0 1 0-3.414 2.41 2.41 0 0 1 3.41 0z" stroke="#717791" stroke-width="2.2" stroke-linecap="round" stroke-linejoin="round" mask="url(#d)"/><path d="M158.14 94.18c1.384-.08 5.375 0 6.88 0" fill="#FFF" mask="url(#d)"/><path d="M158.086 93.26c1.142-.234 2.301-.283 3.459-.277 1.16.015 2.321.098 3.476.422a.806.806 0 0 1 0 1.55c-1.138.326-2.27.407-3.406.423-1.135.006-2.27-.042-3.422-.279l-.106-.021a.926.926 0 0 1-.001-1.817m-6.284 18.594c.23.36.24.663.193.953-.052.288-.153.564-.404.802a1.047 1.047 0 0 1-1.72-.429c-.108-.329-.066-.62.023-.9.094-.277.245-.54.618-.75a.974.974 0 0 1 1.29.324m-1.075 3.562c.455-.085.892-.03 1.37.227.225.134.482.342.655.624.175.285.296.628.3.935.04.626-.149 1.096-.37 1.479-.226.39-.51.696-.872.943a.552.552 0 0 1-.866-.449v-.044c-.007-.406.064-.757.092-1.067.036-.31.054-.576.036-.697-.04-.111.028-.12-.097-.332-.104-.207-.35-.47-.576-.848l-.01-.018a.504.504 0 0 1 .338-.753" fill="#717791" mask="url(#d)"/><path fill="#3F72BA" mask="url(#d)" d="M90.222 147.952l14.928-1.179h8.21l3.135 15.14 3.153-5.19 3.415.26 7.313 63.948-18.21-1.046z"/><path fill="#FFF" mask="url(#d)" d="M115.574 172.28H54.46l6-26.955h49.115z"/><path stroke="#717791" stroke-width="3" stroke-linecap="round" stroke-linejoin="round" mask="url(#d)" d="M115.574 172.28H54.46l6-26.955h49.115z"/><path d="M47.701 221.14a4.052 4.052 0 0 1-1.021-3.073l5.354-60.026a3.099 3.099 0 0 1 3.085-2.825h62.884c.855 0 1.568.654 1.646 1.506l5.47 61.345a4.056 4.056 0 0 1-1.494 3.522 3.98 3.98 0 0 0-1.029 1.253" fill="#FFF" mask="url(#d)"/><path d="M47.144 221.64c-.893-.862-1.423-2.13-1.418-3.42.03-1.136.066-2.118.13-3.182.123-2.089.207-4.181.36-6.268.275-4.174.652-8.34 1.007-12.509l2.148-25.006 1.074-12.503.068-.78a4.653 4.653 0 0 1 1.474-3.062 4.648 4.648 0 0 1 3.179-1.232l.784-.003 6.268-.02 25.075-.082 25.074-.025h3.136l1.567.002h.783c.077 0 .371-.006.633.037.26.035.515.11.76.205a3.325 3.325 0 0 1 1.978 2.298c.126.631.09.718.129 1.021l.07.78.278 3.125 1.111 12.5 2.133 25.008 1.067 12.504.533 6.251.066.828a5.531 5.531 0 0 1-2.094 4.653c-.29.19-.63.239-1.577.262l-.08.002a.665.665 0 0 1-.607-.362c-.464-.904-.132-1.683.38-2.162.33-.272.502-.484.682-.787.162-.29.272-.608.311-.936a2.17 2.17 0 0 0 .016-.497l-.066-.735-.581-6.247-1.164-12.496-2.326-24.99-1.117-12.499-.28-3.124-.12-1.318c.006.008.002.01.008.01l-5.629.003-25.074-.026-25.075-.08-6.268-.021-.784-.002a1.592 1.592 0 0 0-1.109.407 1.572 1.572 0 0 0-.428.658 1.62 1.62 0 0 0-.086.422l-.071.781-1.156 12.496-2.31 24.99c-.39 4.166-.757 8.333-1.225 12.49-.217 2.081-.505 4.155-.754 6.233-.118 1.02-.282 2.119-.416 3.068a3.325 3.325 0 0 0 .649 2.338l.009.014a.751.751 0 0 1-1.125.988" fill="#717791" mask="url(#d)"/><path fill="#E5EEFD" mask="url(#d)" d="M54.45 155.22l10.782-4.98-4.861-5.022h49.252l-3.594 4.176 12.316 5.814z"/><path stroke="#717791" stroke-width="3" stroke-linecap="round" stroke-linejoin="round" mask="url(#d)" d="M54.45 155.22l10.782-4.98-4.861-5.022h49.252l-3.594 4.176 12.316 5.814zm46.805 14.313v6.814c0 8.819-7.952 14.633-16.763 14.633-8.81 0-15.142-5.814-15.142-14.633v-6.814"/><path d="M74.107 172.186c-.345 1.117-1.312 2.036-2.476 2.463-1.171.45-2.503.355-3.674-.094-1.167-.461-2.208-1.294-2.82-2.402a5.596 5.596 0 0 1-.704-3.622 5.643 5.643 0 0 1 1.677-3.225c.892-.825 2.043-1.364 3.232-1.462a5.008 5.008 0 0 1 3.332.842c.943.658 1.6 1.655 1.81 2.703a.526.526 0 0 1-.932.422l-.02-.027c-1.02-1.348-2.535-1.917-3.878-1.634-1.346.263-2.336 1.482-2.39 2.723-.114 1.257.667 2.452 1.788 2.922.559.243 1.193.242 1.813.179.63-.084 1.272-.291 2.034-.679l.094-.047a.792.792 0 1 1 1.115.938m30.735 0c-.344 1.117-1.312 2.036-2.476 2.463-1.171.45-2.502.355-3.673-.094-1.168-.461-2.208-1.294-2.82-2.402a5.602 5.602 0 0 1-.705-3.622 5.643 5.643 0 0 1 1.677-3.225c.892-.825 2.044-1.364 3.232-1.462a5.012 5.012 0 0 1 3.332.842c.944.658 1.6 1.655 1.81 2.703a.526.526 0 0 1-.932.422l-.02-.027c-1.021-1.348-2.534-1.917-3.879-1.634-1.345.263-2.335 1.482-2.387 2.723-.115 1.257.665 2.452 1.786 2.922.56.243 1.193.242 1.813.179.63-.084 1.272-.291 2.034-.679l.093-.047a.79.79 0 0 1 1.115.938M75.882 14.66c-2.622.475-5.243.71-7.864.875-2.622.15-5.243.243-7.864.118l-.143-.007a1.378 1.378 0 0 1-1.292-1.148c-.553-2.544-1.121-4.988-2.313-6.962-1.175-1.953-3.043-3.52-5.123-3.984-2.01-.466-4.4.27-5.54 1.836-1.195 1.566-1.192 4.042-.962 6.572l-2.925-.013c.117-1.246-.216-2.572-.915-3.57a4.078 4.078 0 0 0-2.938-1.769c-1.189-.132-2.31.253-2.97 1.102-.702.852-.931 2.125-.53 2.985l-2.685 1.186c-.006-.004-.029-.054-.166-.11a.893.893 0 0 0-.482-.028c-.26.053-.7.425-.943 1-.254.565-.373 1.296-.326 1.983.04.697.246 1.384.579 1.978l.016.026a1.491 1.491 0 0 1-1.259 2.204h-.014c-2.397.065-4.795.045-7.191.015-2.399-.063-4.795-.104-7.193-.217-4.794-.184-9.59-.414-14.383-.775a.492.492 0 0 1 0-.984c4.794-.361 9.589-.591 14.383-.774 2.398-.114 4.794-.155 7.193-.218 2.396-.03 4.794-.05 7.191.015l-1.272 2.203-.024-.044a7.56 7.56 0 0 1-.956-3.245c-.066-1.135.09-2.267.581-3.377.492-1.074 1.373-2.226 2.916-2.644a3.805 3.805 0 0 1 2.216.13c.715.262 1.452.837 1.82 1.678l.007.014a1.47 1.47 0 0 1-.755 1.936 1.467 1.467 0 0 1-1.933-.755l-.004-.01c-.905-2.102-.362-4.407.93-6.017a5.894 5.894 0 0 1 2.56-1.833 6.713 6.713 0 0 1 3.025-.344c1 .117 1.966.44 2.837.956a7.167 7.167 0 0 1 2.178 2.053c1.125 1.628 1.6 3.59 1.431 5.518a1.468 1.468 0 0 1-2.925-.013c-.107-1.325-.201-2.722-.05-4.193.149-1.459.587-3.046 1.584-4.378.992-1.332 2.406-2.24 3.894-2.72A8.88 8.88 0 0 1 51.93.684c3.066.707 5.478 2.836 6.989 5.332 1.52 2.541 2.103 5.307 2.67 7.85l-1.434-1.154c2.62-.125 5.242-.033 7.864.118 2.621.166 5.242.4 7.864.876a.484.484 0 0 1 0 .953" fill="#717791" mask="url(#d)"/><path d="M262.25 97.525h-65.692a2.56 2.56 0 0 1-2.56-2.563v-12.01a2.56 2.56 0 0 1 2.56-2.563h65.691a2.562 2.562 0 0 1 2.56 2.563v12.01a2.562 2.562 0 0 1-2.56 2.563" fill="#FFF" mask="url(#d)"/><path d="M214.438 79.677c3.36-.295 6.72-.314 10.08-.318l10.08.013 20.16.024 5.041.007 2.52.003c.17-.002.53.002.812.06.293.062.584.15.849.29a3.281 3.281 0 0 1 1.806 2.902v1.27l-.003 2.523-.007 5.044-.003 2.523-.004 1.282a3.251 3.251 0 0 1-1.839 2.858 3.14 3.14 0 0 1-.848.274c-.291.059-.622.05-.795.051l-2.52-.003-10.08-.013-40.32-.05-10.08-.011-2.52-.003c-.237-.005-.362.009-.69-.012a3.178 3.178 0 0 1-2.25-1.171 3.16 3.16 0 0 1-.672-1.583c-.022-.141-.022-.295-.028-.426v-.946l.005-2.523.005-5.045.003-2.523.002-1.26c.002-.177-.006-.496.05-.777.052-.284.138-.563.268-.822.493-1.045 1.604-1.77 2.763-1.774l2.539.039c1.68.039 3.36.111 5.04.256a.553.553 0 0 1 .504.6.554.554 0 0 1-.504.506 80.21 80.21 0 0 1-5.04.257l-2.502.043a1.446 1.446 0 0 0-1.382 1.192c-.027.131-.022.237-.024.48l.002 1.26.003 2.523.006 5.045.004 2.522v.947c.008.078.003.136.016.202a1.405 1.405 0 0 0 .932 1.152c.24.098.465.082.95.082l2.52-.002 10.08-.012 40.32-.051 10.08-.012 2.52-.003c.247-.002.34.001.462-.023a1.25 1.25 0 0 0 .346-.114c.22-.102.41-.277.54-.48.135-.208.205-.446.21-.692l.001-1.24-.004-2.523-.005-5.044-.003-2.523-.003-1.253a1.333 1.333 0 0 0-.2-.684 1.307 1.307 0 0 0-.868-.595 2.283 2.283 0 0 0-.444-.024l-2.52.003-5.04.007-20.16.024-10.08.013c-3.361-.004-6.72-.022-10.081-.317a.715.715 0 0 1 0-1.425" fill="#717791" mask="url(#d)"/><path d="M211.774 79.632l.182.107a.757.757 0 0 1 0 1.3l-.182.108a.882.882 0 1 1 0-1.515" fill="#717791" mask="url(#d)"/><path d="M205.005 85.295l.995 2.02c.071.145.21.245.37.269l2.227.323c.404.06.566.556.273.842l-1.61 1.572a.496.496 0 0 0-.143.437l.381 2.218a.493.493 0 0 1-.715.52l-1.992-1.048a.494.494 0 0 0-.459 0l-1.99 1.048a.493.493 0 0 1-.715-.52l.38-2.218a.493.493 0 0 0-.142-.437l-1.61-1.572a.493.493 0 0 1 .272-.842l2.227-.323a.49.49 0 0 0 .37-.27l.997-2.02a.492.492 0 0 1 .884 0" fill="#FDD1BE" mask="url(#d)"/><path d="M204.691 84.422l1.102 2.236c.08.162.233.273.411.299l2.465.358a.547.547 0 0 1 .303.932l-1.784 1.74a.546.546 0 0 0-.157.484l.42 2.458a.545.545 0 0 1-.79.576l-2.206-1.16a.542.542 0 0 0-.508 0l-2.205 1.16a.545.545 0 0 1-.791-.576l.42-2.458a.546.546 0 0 0-.157-.483l-1.783-1.741a.546.546 0 0 1 .303-.932l2.465-.358a.543.543 0 0 0 .41-.299l1.103-2.236a.545.545 0 0 1 .98 0z" stroke="#717791" stroke-linecap="round" stroke-linejoin="round" mask="url(#d)"/><path d="M217.655 85.295l.996 2.02c.072.145.21.245.37.269l2.227.323c.404.06.566.556.273.842l-1.61 1.572a.496.496 0 0 0-.143.437l.38 2.218a.493.493 0 0 1-.714.52l-1.992-1.048a.494.494 0 0 0-.459 0l-1.99 1.048a.493.493 0 0 1-.715-.52l.38-2.218a.493.493 0 0 0-.142-.437l-1.61-1.572a.494.494 0 0 1 .272-.842l2.227-.323a.49.49 0 0 0 .37-.27l.997-2.02a.492.492 0 0 1 .883 0" fill="#FDD1BE" mask="url(#d)"/><path d="M217.342 84.422l1.102 2.236c.08.162.233.273.41.299l2.466.358a.547.547 0 0 1 .303.932l-1.784 1.74a.543.543 0 0 0-.156.484l.42 2.458a.545.545 0 0 1-.791.576l-2.206-1.16a.542.542 0 0 0-.508 0l-2.205 1.16a.545.545 0 0 1-.791-.576l.42-2.458a.548.548 0 0 0-.156-.483l-1.784-1.741a.546.546 0 0 1 .302-.932l2.466-.358a.543.543 0 0 0 .41-.299l1.103-2.236a.545.545 0 0 1 .979 0z" stroke="#717791" stroke-linecap="round" stroke-linejoin="round" mask="url(#d)"/><path d="M230.307 85.295l.996 2.02c.071.145.21.245.37.269l2.226.323c.404.06.566.556.273.842l-1.61 1.572a.496.496 0 0 0-.143.437l.381 2.218a.493.493 0 0 1-.715.52l-1.992-1.048a.494.494 0 0 0-.459 0l-1.99 1.048a.493.493 0 0 1-.715-.52l.38-2.218a.493.493 0 0 0-.142-.437l-1.61-1.572a.494.494 0 0 1 .272-.842l2.227-.323a.49.49 0 0 0 .37-.27l.997-2.02a.492.492 0 0 1 .884 0" fill="#FDD1BE" mask="url(#d)"/><path d="M229.993 84.422l1.102 2.236c.08.162.233.273.411.299l2.465.358a.546.546 0 0 1 .303.932l-1.784 1.74a.543.543 0 0 0-.156.484l.42 2.458a.545.545 0 0 1-.791.576l-2.206-1.16a.542.542 0 0 0-.508 0l-2.204 1.16a.546.546 0 0 1-.792-.576l.42-2.458a.545.545 0 0 0-.156-.483l-1.784-1.741a.546.546 0 0 1 .303-.932l2.465-.358a.543.543 0 0 0 .41-.299l1.104-2.236a.545.545 0 0 1 .978 0z" stroke="#717791" stroke-linecap="round" stroke-linejoin="round" mask="url(#d)"/><path d="M242.958 85.295l.996 2.02c.071.145.21.245.37.269l2.227.323c.403.06.565.556.272.842l-1.61 1.572a.499.499 0 0 0-.143.437l.381 2.218a.493.493 0 0 1-.715.52l-1.992-1.048a.492.492 0 0 0-.458 0l-1.991 1.048a.493.493 0 0 1-.715-.52l.38-2.218a.495.495 0 0 0-.14-.437l-1.613-1.572a.494.494 0 0 1 .273-.842l2.227-.323a.49.49 0 0 0 .37-.27l.997-2.02a.492.492 0 0 1 .884 0" fill="#FDD1BE" mask="url(#d)"/><path d="M242.644 84.422l1.103 2.236c.08.162.233.273.41.299l2.465.358a.546.546 0 0 1 .303.932l-1.784 1.74a.543.543 0 0 0-.156.484l.42 2.458a.545.545 0 0 1-.791.576l-2.205-1.16a.544.544 0 0 0-.509 0l-2.204 1.16a.546.546 0 0 1-.792-.576l.42-2.458a.545.545 0 0 0-.156-.483l-1.784-1.741a.546.546 0 0 1 .303-.932l2.465-.358a.543.543 0 0 0 .41-.299l1.103-2.236a.545.545 0 0 1 .98 0z" stroke="#717791" stroke-linecap="round" stroke-linejoin="round" mask="url(#d)"/><path d="M255.609 85.295l.996 2.02c.071.145.21.245.37.269l2.227.323c.403.06.565.556.272.842l-1.61 1.572a.496.496 0 0 0-.143.437l.381 2.218a.493.493 0 0 1-.715.52l-1.992-1.048a.492.492 0 0 0-.458 0l-1.991 1.048a.493.493 0 0 1-.715-.52l.38-2.218a.492.492 0 0 0-.14-.437l-1.613-1.572a.494.494 0 0 1 .274-.842l2.226-.323a.49.49 0 0 0 .37-.27l.997-2.02a.492.492 0 0 1 .884 0" fill="#FDD1BE" mask="url(#d)"/><path d="M255.295 84.422l1.103 2.236c.08.162.233.273.41.299l2.465.358a.546.546 0 0 1 .303.932l-1.784 1.74a.543.543 0 0 0-.156.484l.42 2.458a.546.546 0 0 1-.791.576l-2.205-1.16a.544.544 0 0 0-.509 0l-2.204 1.16a.546.546 0 0 1-.792-.576l.42-2.458a.545.545 0 0 0-.156-.483l-1.784-1.741a.546.546 0 0 1 .302-.932l2.466-.358a.543.543 0 0 0 .41-.299l1.103-2.236a.545.545 0 0 1 .979 0z" stroke="#717791" stroke-linecap="round" stroke-linejoin="round" mask="url(#d)"/><path d="M85.345 63.95c-6.162 0-11.158-5-11.158-11.168v-4.731h22.316v4.731c0 6.168-4.995 11.168-11.158 11.168" fill="#FFF" mask="url(#d)"/><path d="M85.345 63.95c-6.162 0-11.158-5-11.158-11.168v-4.731h22.316v4.731c0 6.168-4.995 11.168-11.158 11.168z" stroke="#717791" stroke-width="2.331" stroke-linecap="round" stroke-linejoin="round" mask="url(#d)"/><path d="M107.807 63.95c-6.163 0-11.158-5-11.158-11.168v-4.731h22.315v4.731c0 6.168-4.994 11.168-11.157 11.168" fill="#FFBFBF" mask="url(#d)"/><path d="M107.807 63.95c-6.163 0-11.158-5-11.158-11.168v-4.731h22.315v4.731c0 6.168-4.994 11.168-11.157 11.168z" stroke="#717791" stroke-width="2.331" stroke-linecap="round" stroke-linejoin="round" mask="url(#d)"/><path d="M130.268 63.95c-6.163 0-11.158-5-11.158-11.168v-4.731h22.316v4.731c0 6.168-4.996 11.168-11.158 11.168" fill="#FFF" mask="url(#d)"/><path d="M130.268 63.95c-6.163 0-11.158-5-11.158-11.168v-4.731h22.316v4.731c0 6.168-4.996 11.168-11.158 11.168z" stroke="#717791" stroke-width="2.331" stroke-linecap="round" stroke-linejoin="round" mask="url(#d)"/><path d="M152.73 63.95c-6.163 0-11.158-5-11.158-11.168v-4.731h22.316v4.731c0 6.168-4.996 11.168-11.158 11.168" fill="#FFBFBF" mask="url(#d)"/><path d="M152.73 63.95c-6.163 0-11.158-5-11.158-11.168v-4.731h22.316v4.731c0 6.168-4.996 11.168-11.158 11.168z" stroke="#717791" stroke-width="2.331" stroke-linecap="round" stroke-linejoin="round" mask="url(#d)"/><path d="M175.19 63.95c-6.161 0-11.157-5-11.157-11.168v-4.731h22.316v4.731c0 6.168-4.995 11.168-11.158 11.168" fill="#FFF" mask="url(#d)"/><path d="M175.19 63.95c-6.161 0-11.157-5-11.157-11.168v-4.731h22.316v4.731c0 6.168-4.995 11.168-11.158 11.168z" stroke="#717791" stroke-width="2.331" stroke-linecap="round" stroke-linejoin="round" mask="url(#d)"/><path d="M197.653 63.95c-6.164 0-11.158-5-11.158-11.168v-4.731h22.316v4.731c0 6.168-4.996 11.168-11.158 11.168" fill="#FFBFBF" mask="url(#d)"/><path d="M197.653 63.95c-6.164 0-11.158-5-11.158-11.168v-4.731h22.316v4.731c0 6.168-4.996 11.168-11.158 11.168z" stroke="#717791" stroke-width="2.331" stroke-linecap="round" stroke-linejoin="round" mask="url(#d)"/><path d="M220.114 63.95c-6.163 0-11.158-5-11.158-11.168v-4.731h22.316v4.731c0 6.168-4.995 11.168-11.158 11.168" fill="#FFF" mask="url(#d)"/><path d="M220.114 63.95c-6.163 0-11.158-5-11.158-11.168v-4.731h22.316v4.731c0 6.168-4.995 11.168-11.158 11.168z" stroke="#717791" stroke-width="2.331" stroke-linecap="round" stroke-linejoin="round" mask="url(#d)"/><path fill="#FFF" mask="url(#d)" d="M111.983 30.293H95.998L74.187 48.062h22.316z"/><path stroke="#717791" stroke-width="2.331" stroke-linecap="round" stroke-linejoin="round" mask="url(#d)" d="M111.983 30.293H95.998L74.187 48.062h22.316z"/><path fill="#FFBFBF" mask="url(#d)" d="M128.111 30.293h-15.983l-15.48 17.769h22.316z"/><path stroke="#717791" stroke-width="2.331" stroke-linecap="round" stroke-linejoin="round" mask="url(#d)" d="M128.111 30.293h-15.983l-15.48 17.769h22.316z"/><path fill="#FFF" mask="url(#d)" d="M143.538 30.293h-15.281l-9.147 17.769h22.317z"/><path stroke="#717791" stroke-width="2.331" stroke-linecap="round" stroke-linejoin="round" mask="url(#d)" d="M143.538 30.293h-15.281l-9.147 17.769h22.317z"/><path fill="#FFBFBF" mask="url(#d)" d="M159.666 30.293h-15.984l-2.11 17.769h22.316z"/><path stroke="#717791" stroke-width="2.331" stroke-linecap="round" stroke-linejoin="round" mask="url(#d)" d="M159.666 30.293h-15.984l-2.11 17.769h22.316z"/><path fill="#FFF" mask="url(#d)" d="M175.091 30.293h-15.28l4.221 17.769h22.317z"/><path stroke="#717791" stroke-width="2.331" stroke-linecap="round" stroke-linejoin="round" mask="url(#d)" d="M175.091 30.293h-15.28l4.221 17.769h22.317z"/><path fill="#FFBFBF" mask="url(#d)" d="M191.221 30.293h-15.984l11.257 17.769h22.317z"/><path stroke="#717791" stroke-width="2.331" stroke-linecap="round" stroke-linejoin="round" mask="url(#d)" d="M191.221 30.293h-15.984l11.257 17.769h22.317z"/><path fill="#FFF" mask="url(#d)" d="M207.35 30.293h-15.985l17.592 17.769h22.315z"/><path stroke="#717791" stroke-width="2.331" stroke-linecap="round" stroke-linejoin="round" mask="url(#d)" d="M207.35 30.293h-15.985l17.592 17.769h22.315z"/><path d="M247.428 48.57c2.48-.476 4.96-.71 7.441-.876 2.48-.15 4.96-.243 7.44-.118l-1.434 1.155c.535-2.408 1.09-5.032 2.535-7.452 1.439-2.376 3.735-4.405 6.663-5.08a8.483 8.483 0 0 1 4.437.214c1.422.458 2.774 1.328 3.724 2.603.952 1.275 1.371 2.792 1.512 4.18.144 1.402.054 2.727-.047 3.983a1.469 1.469 0 0 1-1.58 1.348 1.472 1.472 0 0 1-1.345-1.336c-.161-1.843.292-3.716 1.368-5.273a6.876 6.876 0 0 1 2.085-1.964 6.869 6.869 0 0 1 2.715-.915 6.43 6.43 0 0 1 2.899.329 5.66 5.66 0 0 1 2.456 1.758c1.239 1.545 1.76 3.753.892 5.775a1.467 1.467 0 1 1-2.697-1.16l.004-.01.007-.016c.358-.818 1.074-1.375 1.766-1.629a3.687 3.687 0 0 1 2.144-.125c1.494.404 2.339 1.515 2.811 2.546.47 1.063.62 2.146.557 3.233a7.233 7.233 0 0 1-.915 3.102l-.023.043-1.273-2.204c2.27-.064 4.537-.045 6.806-.013 2.268.061 4.535.103 6.804.217 4.536.183 9.071.413 13.608.775a.493.493 0 0 1 0 .982c-4.537.362-9.072.592-13.608.775-2.269.114-4.536.156-6.804.218-2.269.03-4.536.05-6.806-.014h-.008a1.49 1.49 0 0 1-1.263-2.204l.013-.025a4.27 4.27 0 0 0 .54-1.837c.043-.639-.068-1.319-.303-1.839-.223-.53-.627-.862-.838-.902a.782.782 0 0 0-.41.023c-.114.049-.116.081-.111.062l-2.687-1.186c.367-.78.159-1.956-.49-2.74-.607-.781-1.636-1.137-2.739-1.015a3.779 3.779 0 0 0-2.723 1.64c-.65.928-.961 2.164-.853 3.326l-2.925.013c.22-2.393.214-4.716-.893-6.164-1.055-1.452-3.288-2.143-5.161-1.708-1.943.433-3.695 1.9-4.796 3.733-1.12 1.853-1.658 4.156-2.18 6.563a1.37 1.37 0 0 1-1.283 1.147l-.151.008c-2.48.125-4.96.032-7.44-.118-2.48-.165-4.96-.4-7.44-.875a.485.485 0 0 1 0-.953" fill="#717791" mask="url(#d)"/></g></g></svg>