<svg width="91" height="84" viewBox="0 0 91 84" xmlns="http://www.w3.org/2000/svg" xmlns:xlink="http://www.w3.org/1999/xlink"><title>Group 40</title><defs><path id="a" d="M.571.308h41.693V42H.57z"/></defs><g fill="none" fill-rule="evenodd"><path d="M44.01 20.484a.989.989 0 0 1-.776-1.605l4.33-5.473a.99.99 0 1 1 1.553 1.23l-4.329 5.471a.988.988 0 0 1-.777.377m9.916 1.012a.99.99 0 0 1-.94-.68l-2.198-6.622a.991.991 0 0 1 1.88-.624l2.199 6.623a.991.991 0 0 1-.941 1.303m-18.574 9.933a.989.989 0 0 1-.776-1.605l4.329-5.473a.991.991 0 0 1 1.554 1.23l-4.328 5.472a.99.99 0 0 1-.779.376m22.97 3.312a.99.99 0 0 1-.94-.68l-2.198-6.622a.991.991 0 0 1 1.88-.624l2.198 6.623a.991.991 0 0 1-.94 1.303m-31.627 7.634a.99.99 0 0 1-.776-1.605l4.328-5.474a.991.991 0 0 1 1.554 1.23l-4.328 5.472a.99.99 0 0 1-.778.377m36.022 5.61a.99.99 0 0 1-.94-.678l-2.198-6.623a.99.99 0 1 1 1.882-.623l2.197 6.622a.991.991 0 0 1-.94 1.303M26.112 50.53a.981.981 0 0 1-.233-.028l-4.928-1.187a.991.991 0 0 1-.545-1.577l1.184-1.497a.991.991 0 0 1 1.554 1.229l-.223.282 3.422.824a.99.99 0 0 1-.23 1.954m13.567 3.266c-.077 0-.155-.01-.233-.028l-6.783-1.633a.99.99 0 1 1 .463-1.927l6.784 1.634a.99.99 0 0 1-.231 1.954m13.568 3.266a1.09 1.09 0 0 1-.233-.027l-6.784-1.634a.99.99 0 1 1 .464-1.926l6.783 1.633a.99.99 0 0 1-.23 1.954m13.566 3.266a.973.973 0 0 1-.232-.028L59.8 58.668a.99.99 0 1 1 .463-1.926l5.05 1.216-1.337-4.029a.99.99 0 0 1 1.88-.624l1.9 5.721a.99.99 0 0 1-.94 1.303" fill="#7282C4"/><path d="M34.871 51.074c0 4.295-1.6 8.216-4.23 11.202a16.896 16.896 0 0 1-12.71 5.738 16.9 16.9 0 0 1-12.71-5.742A16.863 16.863 0 0 1 .99 51.074c0-9.354 7.586-16.94 16.94-16.94 9.358 0 16.94 7.586 16.94 16.94" fill="#FFF"/><path d="M17.93 35.124c-8.794 0-15.949 7.155-15.949 15.95 0 3.889 1.415 7.632 3.982 10.543a15.967 15.967 0 0 0 11.968 5.407 15.943 15.943 0 0 0 15.95-15.95c0-8.795-7.156-15.95-15.95-15.95m0 33.881a17.945 17.945 0 0 1-13.453-6.078A17.899 17.899 0 0 1 0 51.074c0-9.887 8.043-17.93 17.93-17.93 9.888 0 17.932 8.043 17.932 17.93A17.926 17.926 0 0 1 17.93 69.005" fill="#717791"/><path d="M33.11 51.074c0 3.513-1.194 6.742-3.194 9.312-2.78-3.57-7.113-5.864-11.985-5.864a15.157 15.157 0 0 0-11.985 5.864 15.087 15.087 0 0 1-3.196-9.312c0-8.38 6.8-15.18 15.18-15.18 8.385 0 15.18 6.8 15.18 15.18" fill="#D5BEFD"/><path d="M22.991 46.014a5.06 5.06 0 1 1-10.12 0 5.06 5.06 0 0 1 10.12 0" fill="#FFF"/><path d="M17.93 41.945a4.074 4.074 0 0 0-4.068 4.069 4.074 4.074 0 0 0 4.069 4.07 4.075 4.075 0 0 0 4.07-4.07 4.074 4.074 0 0 0-4.07-4.07m0 10.121a6.058 6.058 0 0 1-6.05-6.051 6.057 6.057 0 0 1 6.05-6.05 6.058 6.058 0 0 1 6.051 6.05 6.059 6.059 0 0 1-6.051 6.051M5.852 60.089c.136-.248.27-.462.428-.708.161-.248.317-.505.504-.736.361-.474.757-.925 1.194-1.335.867-.829 1.866-1.516 2.926-2.087a14.698 14.698 0 0 1 13.906-.039c2.115 1.114 3.933 2.88 5.002 4.91l.015.03a.441.441 0 0 1-.688.528c-.85-.79-1.635-1.468-2.504-2.098a17.462 17.462 0 0 0-2.713-1.61c-1.89-.906-3.977-1.335-6.056-1.32a13.82 13.82 0 0 0-6.023 1.415c-.937.462-1.811 1.044-2.645 1.683-.419.32-.823.66-1.224 1.012-.205.172-.39.363-.598.538-.205.183-.432.4-.658.583a.585.585 0 0 1-.883-.737l.017-.03z" fill="#717791"/><path d="M62.974 13.044c0 3.056-1.138 5.846-3.01 7.97a12.022 12.022 0 0 1-9.043 4.083 12.025 12.025 0 0 1-9.043-4.085 11.999 11.999 0 0 1-3.01-7.968C38.868 6.389 44.265.99 50.921.99c6.658 0 12.053 5.399 12.053 12.054" fill="#FFF"/><path d="M50.92 1.981c-6.1 0-11.062 4.962-11.062 11.063 0 2.696.981 5.293 2.763 7.312a11.071 11.071 0 0 0 8.3 3.75 11.062 11.062 0 0 0 11.063-11.063c0-6.1-4.963-11.062-11.063-11.062m0 24.107a13.051 13.051 0 0 1-9.786-4.422 13.021 13.021 0 0 1-3.258-8.622C37.877 5.85 43.73 0 50.921 0s13.044 5.851 13.044 13.044A13.04 13.04 0 0 1 50.92 26.088" fill="#717791"/><path d="M61.311 12.964c0 2.405-.817 4.616-2.187 6.374a10.372 10.372 0 0 0-8.203-4.014c-3.332 0-6.3 1.57-8.203 4.014a10.328 10.328 0 0 1-2.187-6.374c0-5.735 4.654-10.39 10.39-10.39 5.739 0 10.39 4.655 10.39 10.39" fill="#FDD1BE"/><path d="M54.521 9.444a3.6 3.6 0 1 1-7.2 0 3.6 3.6 0 0 1 7.2 0" fill="#FFF"/><path d="M50.921 6.834a2.613 2.613 0 0 0-2.61 2.61 2.614 2.614 0 0 0 2.61 2.61c1.44 0 2.61-1.172 2.61-2.61 0-1.439-1.17-2.61-2.61-2.61m0 7.2a4.596 4.596 0 0 1-4.59-4.59 4.596 4.596 0 0 1 4.59-4.591 4.597 4.597 0 0 1 4.591 4.59 4.596 4.596 0 0 1-4.59 4.592m-8.72 5.312c.085-.182.161-.34.268-.523.111-.186.218-.377.348-.55.251-.356.532-.693.846-.997.621-.616 1.35-1.121 2.122-1.544a10.602 10.602 0 0 1 5.08-1.308c1.768-.006 3.535.45 5.078 1.29 1.535.823 2.85 2.153 3.528 3.667l.015.033a.444.444 0 0 1-.69.525c-1.251-1.036-2.412-1.855-3.741-2.466-1.312-.611-2.75-.891-4.18-.88a9.73 9.73 0 0 0-4.151.956c-.648.313-1.253.711-1.842 1.14-.295.213-.584.44-.875.673l-.436.356c-.15.123-.332.271-.504.395a.593.593 0 0 1-.883-.734l.017-.033z" fill="#717791"/><path d="M89.613 62.509a19.8 19.8 0 0 1-4.958 13.13 19.805 19.805 0 0 1-14.898 6.725 19.805 19.805 0 0 1-14.897-6.73 19.761 19.761 0 0 1-4.958-13.125c0-10.964 8.89-19.856 19.855-19.856 10.969 0 19.856 8.892 19.856 19.856" fill="#FFF"/><g transform="translate(48.34 41.355)"><mask id="b" fill="#fff"><use xlink:href="#a"/></mask><path d="M21.418 2.289c-10.403 0-18.866 8.462-18.866 18.865 0 4.598 1.673 9.027 4.71 12.47a18.881 18.881 0 0 0 14.156 6.395 18.858 18.858 0 0 0 18.865-18.865c0-10.403-8.463-18.865-18.865-18.865m0 39.711a20.86 20.86 0 0 1-15.641-7.066A20.811 20.811 0 0 1 .57 21.154C.571 9.659 9.923.308 21.418.308c11.494 0 20.846 9.351 20.846 20.846A20.84 20.84 0 0 1 21.418 42" fill="#717791" mask="url(#b)"/></g><path d="M87.55 62.509a17.7 17.7 0 0 1-3.746 10.914c-3.258-4.183-8.337-6.873-14.047-6.873-5.706 0-10.79 2.69-14.047 6.873a17.682 17.682 0 0 1-3.746-10.914c0-9.823 7.97-17.793 17.793-17.793 9.827 0 17.793 7.97 17.793 17.793" fill="#B8D4FF"/><path d="M75.688 56.578a5.931 5.931 0 1 1-11.862 0 5.931 5.931 0 0 1 11.862 0" fill="#FFF"/><path d="M69.757 51.637a4.946 4.946 0 0 0-4.94 4.94 4.946 4.946 0 0 0 4.94 4.942 4.946 4.946 0 0 0 4.94-4.941 4.946 4.946 0 0 0-4.94-4.94m0 11.862c-3.816 0-6.921-3.106-6.921-6.922a6.93 6.93 0 0 1 6.921-6.922 6.93 6.93 0 0 1 6.921 6.922c0 3.816-3.104 6.922-6.92 6.922m-14.085 9.64c.168-.283.333-.534.522-.817.193-.286.379-.581.599-.847.426-.545.892-1.064 1.402-1.537 1.013-.955 2.174-1.751 3.405-2.411a17.161 17.161 0 0 1 16.142-.05c2.463 1.287 4.579 3.314 5.882 5.651l.016.03a.44.44 0 0 1-.69.528c-.968-.942-1.883-1.764-2.901-2.52a19.752 19.752 0 0 0-3.194-1.93c-2.235-1.081-4.71-1.6-7.176-1.583a16.266 16.266 0 0 0-7.14 1.69c-1.108.551-2.143 1.242-3.124 2.009-.492.38-.965.79-1.432 1.212-.238.207-.454.437-.693.648-.236.22-.494.474-.75.695a.584.584 0 0 1-.884-.739l.016-.028z" fill="#717791"/></g></svg>