<svg width="79" height="82" viewBox="0 0 79 82" xmlns="http://www.w3.org/2000/svg" xmlns:xlink="http://www.w3.org/1999/xlink"><title>Group 17</title><defs><path id="a" d="M.63.307h75.866v75.827H.631z"/><path id="c" d="M0 1.008h78.028v81.774H0z"/></defs><g fill="none" fill-rule="evenodd"><g transform="translate(2.435 2.861)"><mask id="b" fill="#fff"><use xlink:href="#a"/></mask><path d="M54.484 71.429c-.66-.04-1.327-.03-1.978-.128-3.516-.528-6.602.467-9.464 2.482-4.452 3.133-4.496 3.143-8.99-.017-2.917-2.049-6.039-2.889-9.612-2.471-5.023.585-5.275.423-7.393-4.248-1.539-3.394-3.928-5.774-7.325-7.308-4.632-2.091-4.798-2.347-4.218-7.41.413-3.629-.474-6.777-2.573-9.72-3.069-4.308-3.07-4.442.014-8.766 2.101-2.945 2.97-6.1 2.554-9.722-.575-5.028-.376-5.35 4.234-7.402 3.41-1.515 5.784-3.895 7.319-7.298 2.122-4.707 2.406-4.861 7.525-4.238 3.528.43 6.596-.44 9.459-2.476 4.493-3.194 4.543-3.194 8.988-.037 2.902 2.062 6.01 2.947 9.592 2.508 5.048-.618 5.409-.399 7.489 4.294 1.494 3.37 3.843 5.718 7.208 7.216 4.705 2.092 4.9 2.401 4.318 7.484-.415 3.63.485 6.776 2.592 9.715 3.024 4.22 3.028 4.473.032 8.648-2.138 2.98-3.052 6.166-2.621 9.848.58 4.953.34 5.32-4.276 7.376-3.359 1.496-5.808 3.8-7.212 7.206-.232.567-.547 1.099-.782 1.664-.913 2.186-2.399 3.355-4.88 2.8" fill="#FFF" mask="url(#b)"/></g><path d="M54.423 69.083c-.557-.034-1.12-.025-1.668-.108-2.965-.444-5.566.394-7.98 2.094-3.754 2.64-3.791 2.65-7.581-.013-2.46-1.73-5.091-2.436-8.105-2.086-4.234.493-4.448.358-6.233-3.581-1.297-2.862-3.313-4.869-6.176-6.162-3.908-1.764-4.046-1.98-3.559-6.248.35-3.061-.399-5.715-2.168-8.197-2.588-3.633-2.59-3.745.011-7.391 1.773-2.483 2.503-5.143 2.154-8.198-.485-4.24-.317-4.513 3.57-6.241 2.875-1.279 4.878-3.285 6.171-6.154 1.79-3.969 2.028-4.1 6.345-3.573 2.976.361 5.563-.372 7.977-2.09 3.788-2.694 3.83-2.692 7.578-.03 2.447 1.739 5.07 2.486 8.088 2.115 4.257-.521 4.56-.337 6.316 3.62 1.259 2.843 3.24 4.822 6.077 6.084 3.969 1.766 4.132 2.027 3.641 6.312-.349 3.059.41 5.713 2.186 8.192 2.55 3.56 2.554 3.771.026 7.292-1.801 2.512-2.572 5.2-2.21 8.304.488 4.176.287 4.486-3.604 6.22-2.831 1.26-4.897 3.202-6.08 6.076-.198.476-.463.926-.662 1.403-.77 1.843-2.022 2.828-4.114 2.36" fill="#D5BEFD"/><g transform="translate(0 -.79)"><mask id="d" fill="#fff"><use xlink:href="#c"/></mask><path d="M78.01 47.862c-.323 1.617-.775 2.977-1.07 4.411-.295 1.438-.316 2.888-.124 4.412.094.817.187 1.648.215 2.552.012.876 0 1.997-.65 3.106-.683 1.073-1.61 1.609-2.37 2.036a35.12 35.12 0 0 1-2.293 1.105c-2.806 1.202-5.097 3.135-6.438 5.75-.168.325-.323.656-.466.996l-.511 1.097c-.34.679-.673 1.619-1.28 2.443-.58.83-1.497 1.625-2.604 1.977-1.104.365-2.208.285-3.158.084l.224.032c-.982-.071-2.143-.12-2.921-.227a10.89 10.89 0 0 0-2.55.08c-1.684.244-3.302.926-4.8 1.874-.723.46-1.529 1.064-2.353 1.616-.841.538-1.693 1.184-3.11 1.51-.726.14-1.522.045-2.155-.168a8.493 8.493 0 0 1-1.577-.765c-.909-.55-1.697-1.114-2.493-1.668-1.458-1.035-3.036-1.778-4.712-2.154a11.988 11.988 0 0 0-2.56-.292c-.883-.01-1.694.087-2.71.206-.997.087-1.967.24-3.229.102a4.354 4.354 0 0 1-2.001-.72c-.635-.43-1.063-.973-1.376-1.453-1.228-1.932-1.738-3.726-2.697-5.153a12.76 12.76 0 0 0-3.57-3.706 14.713 14.713 0 0 0-2.289-1.28c-.881-.405-1.777-.794-2.73-1.326A7.145 7.145 0 0 1 6.17 63.27c-.513-.458-.952-1.21-1.131-1.89-.37-1.404-.189-2.415-.135-3.432l.152-1.475c.048-.454.08-.875.094-1.313a12.17 12.17 0 0 0-.193-2.564c-.308-1.679-.978-3.282-1.944-4.753-.467-.706-1.098-1.546-1.64-2.385a12.282 12.282 0 0 1-.827-1.42c-.25-.536-.52-1.182-.543-1.976-.032-.773.175-1.518.428-2.073a11.19 11.19 0 0 1 .82-1.471c.552-.862 1.163-1.673 1.666-2.41.995-1.456 1.713-3.048 2.037-4.729.167-.84.24-1.7.232-2.567a13.916 13.916 0 0 0-.075-1.309l-.149-1.454c-.076-1.001-.204-2.023.032-3.333.144-.667.486-1.402.969-1.944.486-.565.998-.874 1.483-1.19.962-.56 1.865-.954 2.755-1.353a15.611 15.611 0 0 0 2.335-1.25 12.449 12.449 0 0 0 3.634-3.654c.487-.741.868-1.485 1.26-2.354.415-.89.8-1.782 1.392-2.747.31-.48.667-.992 1.225-1.462.57-.472 1.308-.77 1.959-.888 1.294-.199 2.3-.058 3.295.034l1.449.165c.435.048.87.08 1.304.086.867.013 1.726-.063 2.566-.233 1.681-.338 3.275-1.083 4.73-2.096.779-.54 1.57-1.118 2.444-1.672.454-.275.908-.557 1.498-.792.55-.243 1.32-.422 2.062-.339.744.07 1.374.329 1.87.59.523.261.954.546 1.38.826l2.37 1.646c1.482.973 3.101 1.657 4.8 1.95.85.151 1.717.196 2.591.16.844-.03 1.798-.187 2.816-.273 1.003-.067 2.07-.212 3.427.197.668.22 1.317.658 1.764 1.148a7.73 7.73 0 0 1 1.004 1.446c.52.94.909 1.841 1.305 2.724.362.813.788 1.588 1.284 2.308.987 1.446 2.274 2.633 3.743 3.606 1.41.988 3.271 1.671 4.892 3.126a.757.757 0 0 1-.81 1.259l-.046-.02c-1.6-.7-3.533-1.073-5.393-2.154-1.824-1.039-3.409-2.548-4.607-4.284a16.823 16.823 0 0 1-1.535-2.736c-.397-.875-.782-1.743-1.2-2.492a5.259 5.259 0 0 0-.635-.929 1.531 1.531 0 0 0-.633-.412c-.499-.172-1.408-.146-2.313-.058-.904.077-1.857.244-2.942.294a14.879 14.879 0 0 1-3.175-.186c-2.109-.354-4.116-1.203-5.86-2.344l-2.388-1.645c-.746-.494-1.54-.948-1.964-.953-.37-.08-1.048.241-1.805.72-.754.482-1.52 1.042-2.325 1.605-1.7 1.195-3.666 2.138-5.772 2.569a14.77 14.77 0 0 1-3.183.3 15.89 15.89 0 0 1-1.583-.097l-1.427-.158c-.918-.095-1.854-.162-2.472-.055-.294.065-.469.144-.65.283-.182.156-.397.43-.605.762-.42.682-.814 1.562-1.206 2.422-.395.89-.888 1.872-1.462 2.743a15.411 15.411 0 0 1-4.453 4.51 18.718 18.718 0 0 1-2.754 1.49c-.869.39-1.732.784-2.434 1.199-.32.209-.638.42-.775.603a1.43 1.43 0 0 0-.3.619c-.112.594-.06 1.52.032 2.433l.151 1.424c.055.522.09 1.049.097 1.579a15.528 15.528 0 0 1-.28 3.185c-.398 2.114-1.3 4.11-2.475 5.842-.582.857-1.133 1.588-1.617 2.353-.502.757-.806 1.448-.762 1.78-.02.35.387 1.116.885 1.856.509.778 1.043 1.478 1.648 2.375 1.157 1.748 2.033 3.764 2.406 5.888.19 1.059.265 2.135.231 3.195a21.088 21.088 0 0 1-.118 1.572l-.15 1.403c-.078.892-.137 1.852.02 2.32.076.243.126.368.332.56.199.187.493.401.866.606.73.413 1.603.805 2.473 1.204.95.433 1.876.947 2.748 1.552a15.783 15.783 0 0 1 4.39 4.584c1.165 1.811 1.771 3.786 2.642 5.103.21.326.408.544.577.651.178.11.343.2.696.231.66.09 1.625-.008 2.543-.1.899-.103 2.008-.233 3.057-.211a14.93 14.93 0 0 1 3.178.372c2.09.471 4.06 1.427 5.74 2.631.786.55 1.57 1.108 2.309 1.558.374.238.718.396 1.014.512.285.085.469.102.694.069.483-.091 1.275-.545 2.032-1.062.783-.518 1.519-1.074 2.424-1.65 1.757-1.11 3.771-1.965 5.916-2.27a13.702 13.702 0 0 1 3.219-.09c1.136.153 1.906.154 2.846.23.072.004.156.018.225.03 1.309.269 2.142.042 2.847-.94.365-.487.59-1.095.967-1.868l.52-1.109c.173-.409.364-.812.57-1.207a14.628 14.628 0 0 1 3.319-4.209c1.34-1.186 2.915-2.088 4.475-2.775a32.578 32.578 0 0 0 2.099-1.001c.652-.343 1.145-.72 1.336-1.036.415-.595.242-2.375.066-3.91-.21-1.695-.192-3.536.18-5.28.36-1.75 1.17-3.435 2.536-4.59a.746.746 0 0 1 1.217.712l-.005.023z" fill="#717791" mask="url(#d)"/></g><path d="M26.661 54.865c1.814-2.845 4.076-5.244 6.35-7.63 2.292-2.368 4.695-4.624 7.056-6.922 4.766-4.555 9.464-9.175 14.29-13.67a1.095 1.095 0 0 1 1.549 1.55c-4.494 4.825-9.115 9.524-13.668 14.29-2.298 2.362-4.554 4.765-6.923 7.056-2.386 2.274-4.785 4.535-7.63 6.349a.741.741 0 0 1-1.024-1.023" fill="#717791"/><path d="M34.879 26.135a6.545 6.545 0 1 1-9.256 9.255 6.545 6.545 0 0 1 9.256-9.255zm21.487 21.222a6.546 6.546 0 0 1-9.256 9.256 6.544 6.544 0 1 1 9.256-9.256z" stroke="#717791" stroke-width="2.2" stroke-linecap="round" stroke-linejoin="round"/><path d="M75.973 27.255c.182.863.09 1.656-.073 2.433-.168.774-.398 1.534-.815 2.247a1.148 1.148 0 0 1-1.57.413 1.161 1.161 0 0 1-.567-.947c-.033-.825.124-1.603.338-2.367.223-.762.515-1.506 1.082-2.181a.92.92 0 0 1 1.605.402" fill="#717791"/></g></svg>