<?xml version="1.0" encoding="UTF-8"?>
<svg width="66px" height="43px" viewBox="0 0 66 43" version="1.1" xmlns="http://www.w3.org/2000/svg" xmlns:xlink="http://www.w3.org/1999/xlink">
    <!-- Generator: Sketch 52.6 (67491) - http://www.bohemiancoding.com/sketch -->
    <title>Group 16</title>
    <desc>Created with Sketch.</desc>
    <defs>
        <polygon id="path-1" points="0.921255692 0.477 59.5274 0.477 59.5274 42.8586 0.921255692 42.8586"></polygon>
        <polygon id="path-3" points="0.2978 0.7225 63.563 0.7225 63.563 35.9995 0.2978 35.9995"></polygon>
        <polygon id="path-5" points="0 0.9069 25.7180097 0.9069 25.7180097 26.6800195 0 26.6800195"></polygon>
    </defs>
    <g id="Features" stroke="none" stroke-width="1" fill="none" fill-rule="evenodd">
        <g id="Features-(desktop)" transform="translate(-100.000000, -7554.000000)">
            <g id="Group-51" transform="translate(100.000000, 7363.000000)">
                <g id="Group-16" transform="translate(0.000000, 190.000000)">
                    <path d="M58.5839,4.3367 L25.0709,4.3367 L25.0709,4.0907 C25.0709,3.0867 24.2569,2.2737 23.2519,2.2737 L11.9499,2.2737 C10.9459,2.2737 10.1319,3.0867 10.1319,4.0907 L10.1319,4.3367 L7.8719,4.3367 C6.4059,4.3367 5.2179,5.5247 5.2179,6.9907 L5.2179,40.5527 C5.2179,41.3947 5.8999,42.0767 6.7409,42.0767 L59.7139,42.0767 C60.5559,42.0767 61.2379,41.3947 61.2379,40.5527 L61.2379,6.9907 C61.2379,5.5247 60.0499,4.3367 58.5839,4.3367" id="Fill-1" fill="#B8D4FF"></path>
                    <g id="Group-5" transform="translate(3.000000, 0.523000)">
                        <mask id="mask-2" fill="white">
                            <use xlink:href="#path-1"></use>
                        </mask>
                        <g id="Clip-4"></g>
                        <path d="M57.5854,6.3826 C57.2874,5.8166 56.9604,5.4276 56.5324,5.2016 C56.3194,5.0926 56.0924,5.0496 55.8774,5.0326 C55.7584,5.0266 55.6864,5.0286 55.5304,5.0396 L54.9434,5.0546 L50.2474,5.0666 L40.8554,5.0706 L22.0704,5.0796 C21.3724,5.0796 20.8054,4.5136 20.8054,3.8156 L20.8054,3.8146 L20.8034,3.5596 C20.8014,3.5306 20.8024,3.5026 20.7954,3.4766 C20.7854,3.4226 20.7724,3.3686 20.7444,3.3206 C20.6964,3.2226 20.6114,3.1396 20.5174,3.0846 C20.4674,3.0596 20.4174,3.0416 20.3644,3.0286 C20.2954,3.0216 20.3094,3.0166 20.0714,3.0176 L18.9774,3.0176 L14.6014,3.0196 L10.2254,3.0226 L9.1314,3.0226 C8.8934,3.0216 8.9074,3.0276 8.8394,3.0336 C8.7874,3.0476 8.7374,3.0656 8.6894,3.0896 C8.5954,3.1446 8.5114,3.2266 8.4644,3.3246 C8.4374,3.3716 8.4254,3.4246 8.4154,3.4776 C8.4084,3.5036 8.4094,3.5316 8.4074,3.5596 L8.4064,3.8146 L8.4064,3.8196 C8.4024,4.5236 7.8354,5.0906 7.1314,5.0876 L5.1484,5.0886 L4.9004,5.0886 L4.7564,5.0956 C4.6714,5.1046 4.5864,5.1166 4.5044,5.1416 C4.3404,5.1866 4.1854,5.2636 4.0474,5.3666 C3.7714,5.5736 3.5784,5.8856 3.5194,6.2206 C3.5024,6.3076 3.5004,6.3816 3.4954,6.4866 L3.4954,6.9826 L3.4964,7.9736 L3.4994,15.9076 L3.5074,31.7746 L3.5114,39.7086 C3.5094,40.1646 3.5124,40.0486 3.5344,40.1266 C3.5514,40.1726 3.5954,40.2096 3.6364,40.2336 C3.6574,40.2466 3.6814,40.2506 3.7054,40.2546 C3.7214,40.2596 3.7194,40.2546 3.7544,40.2596 L4.0024,40.2586 L4.9944,40.2586 L8.9604,40.2566 L24.8284,40.2486 L56.5634,40.2596 C56.7934,40.2606 56.7174,40.2556 56.7674,40.2526 C56.7914,40.2496 56.8124,40.2386 56.8334,40.2256 C56.8774,40.2016 56.9134,40.1576 56.9294,40.1126 C56.9404,40.0906 56.9444,40.0686 56.9444,40.0406 L56.9474,39.5986 L56.9494,38.6066 L56.9544,34.6396 L56.9654,26.7066 L56.9874,10.8386 C56.9884,10.1486 57.5494,9.5896 58.2394,9.5906 C58.9294,9.5916 59.4884,10.1486 59.4874,10.8386 L59.5094,26.7066 L59.5214,34.6396 L59.5264,38.6066 L59.5274,39.5986 L59.5244,40.1486 C59.5134,40.4506 59.4514,40.7566 59.3394,41.0416 C59.1204,41.6146 58.7124,42.1076 58.1904,42.4266 C57.9314,42.5866 57.6444,42.7076 57.3454,42.7746 C57.0714,42.8456 56.6644,42.8516 56.5634,42.8476 L24.8284,42.8586 L8.9604,42.8506 L4.9944,42.8486 L4.0024,42.8476 L3.7544,42.8476 C3.6254,42.8436 3.4574,42.8396 3.3104,42.8126 C3.0084,42.7656 2.7104,42.6726 2.4404,42.5286 C1.8984,42.2436 1.4524,41.7866 1.1944,41.2306 C0.9084,40.7096 0.9134,39.9076 0.9254,39.7086 L0.9284,31.7746 L0.9364,15.9076 L0.9404,7.9736 L0.9404,6.9826 L0.9404,6.4866 C0.9454,6.2596 0.9604,6.0036 1.0064,5.7656 C1.1794,4.7976 1.7324,3.9096 2.5154,3.3256 C2.9064,3.0326 3.3544,2.8126 3.8274,2.6826 C4.0634,2.6146 4.3064,2.5756 4.5494,2.5546 L4.9004,2.5386 L5.1484,2.5386 L7.1314,2.5396 L5.8584,3.8146 L5.8594,3.5216 C5.8644,3.3666 5.8744,3.2126 5.9024,3.0596 C5.9544,2.7546 6.0474,2.4526 6.1904,2.1766 C6.4694,1.6206 6.9184,1.1606 7.4614,0.8596 C7.7344,0.7116 8.0294,0.6036 8.3334,0.5396 C8.6244,0.4776 9.0054,0.4746 9.1314,0.4776 L10.2254,0.4786 L14.6014,0.4806 L18.9774,0.4826 L20.0714,0.4836 C20.1974,0.4806 20.5774,0.4826 20.8684,0.5446 C21.1714,0.6096 21.4654,0.7176 21.7384,0.8646 C22.2794,1.1656 22.7274,1.6256 23.0054,2.1806 C23.1474,2.4556 23.2414,2.7566 23.2924,3.0606 C23.3204,3.2136 23.3304,3.3676 23.3354,3.5216 L23.3364,3.8146 L22.0704,2.5486 L40.8554,2.5576 L50.2474,2.5626 L54.9434,2.5726 L55.5304,2.5886 C55.7664,2.5996 56.0854,2.6366 56.3504,2.7016 C56.9024,2.8446 57.4034,3.1316 57.8174,3.4906 C58.6564,4.1946 59.1164,5.3306 58.8854,6.3286 C58.8024,6.6886 58.4424,6.9126 58.0834,6.8296 C57.8864,6.7846 57.7314,6.6566 57.6434,6.4916 L57.5854,6.3826 Z" id="Fill-3" fill="#717791" mask="url(#mask-2)"></path>
                    </g>
                    <path d="M61.7196,9.3724 L22.3396,9.3724 L22.3396,8.3614 C22.3396,7.3574 21.5256,6.5434 20.5216,6.5434 L9.2196,6.5434 C8.2156,6.5434 7.4016,7.3574 7.4016,8.3614 L7.4016,9.3724 L3.8656,9.3724 C2.4006,9.3724 1.2116,10.5604 1.2116,12.0254 L4.0886,40.3984 C4.1926,41.4324 5.0636,42.2194 6.1026,42.2194 L59.7226,42.2194 C60.7676,42.2194 61.6416,41.4224 61.7386,40.3814 L64.3726,12.0254 C64.3726,10.5604 63.1846,9.3724 61.7196,9.3724" id="Fill-6" fill="#FFFFFF"></path>
                    <path d="M33.5673,10.1751 C33.2703,10.5371 32.9723,10.6361 32.6743,10.6711 C32.3763,10.6871 32.0783,10.6191 31.7803,10.2581 C31.3753,9.7671 31.3903,9.0681 31.7803,8.5941 C32.0783,8.2331 32.3763,8.1651 32.6743,8.1821 C32.9723,8.2161 33.2703,8.3161 33.5673,8.6781 C33.9313,9.1201 33.9183,9.7491 33.5673,10.1751" id="Fill-8" fill="#717791"></path>
                    <g id="Group-12" transform="translate(2.000000, 7.523000)">
                        <mask id="mask-4" fill="white">
                            <use xlink:href="#path-3"></use>
                        </mask>
                        <g id="Clip-11"></g>
                        <path d="M2.0038,26.2625 C2.4328,26.7145 2.6908,27.1845 2.8368,27.6655 C2.8748,28.1575 2.8988,28.6505 2.9608,29.1405 L3.2588,32.0845 L3.3328,32.8105 C3.3428,32.9065 3.3698,32.9955 3.4128,33.0795 C3.4978,33.2465 3.6518,33.3835 3.8268,33.4495 C3.9148,33.4825 4.0048,33.4995 4.1038,33.4995 L4.8438,33.4995 L6.3238,33.4995 L18.1618,33.5005 L41.8388,33.5025 L53.6768,33.5035 L56.6368,33.5035 L57.3768,33.5035 L57.7318,33.5025 C57.7798,33.5015 57.8268,33.4955 57.8738,33.4885 C58.0578,33.4535 58.2298,33.3455 58.3448,33.1925 C58.4018,33.1165 58.4438,33.0315 58.4698,32.9415 C58.4818,32.8955 58.4898,32.8485 58.4968,32.8005 L58.5308,32.4375 L58.6698,30.9635 L58.9498,28.0175 L61.1888,4.4475 L61.1838,4.5565 C61.1968,3.8565 60.6348,3.1855 59.9318,3.1035 C59.8288,3.0855 59.7958,3.0885 59.6288,3.0835 L59.1548,3.0825 L58.2088,3.0805 L56.3168,3.0765 L48.7468,3.0615 L41.1768,3.0465 C38.6538,3.0405 36.1298,2.9905 33.6078,2.6895 C33.1728,2.6375 32.8628,2.2435 32.9148,1.8095 C32.9598,1.4395 33.2528,1.1595 33.6078,1.1175 C36.1298,0.8165 38.6538,0.7655 41.1768,0.7605 L48.7468,0.7445 L56.3168,0.7295 L58.2088,0.7255 L59.1548,0.7235 L59.6288,0.7225 C59.7748,0.7255 60.0608,0.7265 60.2688,0.7645 C62.1118,0.9845 63.5898,2.7055 63.5628,4.5565 L63.5618,4.5755 L63.5568,4.6665 L61.4148,28.2465 L61.1478,31.1945 L61.0128,32.6675 L60.9778,33.0405 C60.9568,33.2385 60.9208,33.4345 60.8668,33.6265 C60.7568,34.0105 60.5748,34.3745 60.3358,34.6925 C59.8578,35.3295 59.1408,35.7835 58.3548,35.9345 C58.1578,35.9715 57.9598,35.9925 57.7608,35.9955 L57.3768,35.9965 L56.6368,35.9965 L53.6768,35.9965 L41.8388,35.9975 L18.1618,35.9995 L6.3238,35.9995 L4.8438,35.9995 L4.1038,35.9995 C3.7098,35.9995 3.3068,35.9275 2.9348,35.7835 C2.1858,35.5005 1.5548,34.9365 1.1908,34.2235 C1.0068,33.8685 0.8908,33.4775 0.8478,33.0825 L0.7718,32.3365 L0.4728,29.3925 C0.4358,28.9005 0.3598,28.4115 0.2978,27.9225 C0.3448,27.4225 0.5038,26.9095 0.8328,26.3805 C1.0498,26.0325 1.5078,25.9255 1.8568,26.1425 C1.9108,26.1765 1.9618,26.2185 2.0038,26.2625" id="Fill-10" fill="#717791" mask="url(#mask-4)"></path>
                    </g>
                    <g id="Group-15" transform="translate(0.000000, 4.523000)">
                        <mask id="mask-6" fill="white">
                            <use xlink:href="#path-5"></use>
                        </mask>
                        <g id="Clip-14"></g>
                        <path d="M25.4096,5.4529 C25.1536,5.6099 24.8976,5.7619 24.6416,5.8519 C24.3866,5.9669 24.1306,6.0459 23.8746,6.1029 C23.3636,6.2329 22.8516,6.2799 22.3396,6.0709 L21.8136,5.8559 C21.4156,5.6929 21.1736,5.3079 21.1726,4.9029 L21.1686,3.8279 C21.1496,3.6879 21.0976,3.5529 20.9946,3.4489 C20.8966,3.3439 20.7676,3.2729 20.6286,3.2529 C20.5946,3.2439 20.5576,3.2469 20.5216,3.2419 L20.2236,3.2419 L19.6296,3.2419 L14.8706,3.2419 L10.1126,3.2419 L9.5166,3.2419 L9.2196,3.2419 C9.1836,3.2469 9.1466,3.2439 9.1126,3.2529 C8.9736,3.2729 8.8446,3.3439 8.7456,3.4489 C8.6436,3.5529 8.5916,3.6879 8.5726,3.8279 L8.5686,4.9029 C8.5666,5.5459 8.0476,6.0659 7.4076,6.0709 L7.4016,6.0709 L5.4756,6.0859 L4.5126,6.0929 C4.2096,6.0969 3.8036,6.0939 3.6916,6.1119 C2.9816,6.1919 2.4216,6.8569 2.4246,7.5569 L2.4176,7.4349 C2.7196,10.5449 3.0446,13.6519 3.3096,16.7659 L3.7266,21.4339 L3.9346,23.7679 C4.0046,24.5459 4.1126,25.3199 3.8326,26.1339 C3.6876,26.5569 3.2276,26.7809 2.8056,26.6359 C2.6166,26.5709 2.4666,26.4409 2.3726,26.2819 C1.9346,25.5409 1.8856,24.7609 1.7976,23.9849 L1.5336,21.6559 L1.0046,16.9989 C0.6396,13.8959 0.3346,10.7859 0.0066,7.6799 C0.0026,7.6409 -0.0004,7.6029 -0.0004,7.5659 L-0.0004,7.5569 C-0.0024,6.6249 0.3476,5.6829 0.9776,4.9929 C1.5976,4.2979 2.4796,3.8329 3.4096,3.7349 C3.9366,3.6899 4.1736,3.7189 4.5126,3.7139 L5.4756,3.7219 L7.4016,3.7359 L6.2336,4.9029 L6.2336,4.3079 C6.2376,4.0849 6.2226,3.9829 6.2476,3.5999 C6.3146,2.9529 6.5926,2.3219 7.0426,1.8519 C7.4846,1.3769 8.0896,1.0499 8.7356,0.9479 C8.8956,0.9189 9.0586,0.9119 9.2196,0.9069 L9.5166,0.9069 L10.1126,0.9069 L14.8706,0.9069 L19.6296,0.9069 L20.2236,0.9069 L20.5216,0.9069 C20.6826,0.9119 20.8456,0.9189 21.0056,0.9479 C21.6516,1.0499 22.2566,1.3769 22.6996,1.8519 C23.1486,2.3219 23.4266,2.9529 23.4926,3.5999 C23.5186,3.9829 23.5036,4.0849 23.5076,4.3079 L23.5076,4.9029 L22.3396,3.7359 C22.8516,3.5259 23.3636,3.5739 23.8746,3.7039 C24.1306,3.7609 24.3866,3.8409 24.6416,3.9539 C24.8976,4.0449 25.1536,4.1969 25.4096,4.3529 C25.7136,4.5389 25.8086,4.9359 25.6236,5.2389 C25.5686,5.3289 25.4926,5.4019 25.4096,5.4529" id="Fill-13" fill="#717791" mask="url(#mask-6)"></path>
                    </g>
                </g>
            </g>
        </g>
    </g>
</svg>