<?xml version="1.0" encoding="UTF-8"?>
<svg width="57px" height="43px" viewBox="0 0 57 43" version="1.1" xmlns="http://www.w3.org/2000/svg" xmlns:xlink="http://www.w3.org/1999/xlink">
    <!-- Generator: Sketch 52.6 (67491) - http://www.bohemiancoding.com/sketch -->
    <title>Group 21</title>
    <desc>Created with Sketch.</desc>
    <defs>
        <polygon id="path-1" points="0 42.2 56.179 42.2 56.179 0 0 0"></polygon>
    </defs>
    <g id="Features" stroke="none" stroke-width="1" fill="none" fill-rule="evenodd">
        <g id="Features-(desktop)" transform="translate(-720.000000, -7940.000000)">
            <g id="Group-51" transform="translate(100.000000, 7363.000000)">
                <g id="Group-21" transform="translate(620.000000, 577.000000)">
                    <path d="M51.5957,41.1001 L4.5837,41.1001 C2.6587,41.1001 1.0997,39.5401 1.0997,37.6161 L1.0997,4.5831 C1.0997,2.6601 2.6587,1.1001 4.5837,1.1001 L51.5957,1.1001 C53.5197,1.1001 55.0787,2.6601 55.0787,4.5831 L55.0787,37.6161 C55.0787,39.5401 53.5197,41.1001 51.5957,41.1001" id="Fill-1" fill="#FFFFFF"></path>
                    <mask id="mask-2" fill="white">
                        <use xlink:href="#path-1"></use>
                    </mask>
                    <g id="Clip-4"></g>
                    <polygon id="Fill-3" fill="#B8D4FF" mask="url(#mask-2)" points="1.644 6.929 54.551 6.929 54.551 1.459 1.644 1.459"></polygon>
                    <path d="M51.5957,41.1001 L4.5837,41.1001 C2.6587,41.1001 1.0997,39.5401 1.0997,37.6161 L1.0997,4.5831 C1.0997,2.6601 2.6587,1.1001 4.5837,1.1001 L51.5957,1.1001 C53.5197,1.1001 55.0787,2.6601 55.0787,4.5831 L55.0787,37.6161 C55.0787,39.5401 53.5197,41.1001 51.5957,41.1001 Z" id="Stroke-5" stroke="#717791" stroke-width="2.2" stroke-linecap="round" stroke-linejoin="round" mask="url(#mask-2)"></path>
                    <path d="M55.0791,6.9126 L6.9681,6.9126" id="Fill-6" fill="#FFFFFF" mask="url(#mask-2)"></path>
                    <path d="M55.0791,8.0127 L43.0521,8.1077 L31.0231,8.1047 L18.9951,8.0177 L12.9811,7.9707 C10.9761,7.9567 8.9721,7.9927 6.9681,7.4567 C6.6671,7.3767 6.4881,7.0677 6.5681,6.7667 C6.6221,6.5657 6.7791,6.4187 6.9681,6.3677 C8.9721,5.8317 10.9761,5.8677 12.9811,5.8537 L18.9951,5.8067 L31.0231,5.7207 L43.0521,5.7167 L55.0791,5.8127 C55.6861,5.8177 56.1761,6.3137 56.1711,6.9217 C56.1661,7.5227 55.6791,8.0077 55.0791,8.0127" id="Fill-7" fill="#717791" mask="url(#mask-2)"></path>
                    <path d="M4.8633,4.0087 C4.8633,4.4017 4.5453,4.7207 4.1523,4.7207 C3.7593,4.7207 3.4403,4.4017 3.4403,4.0087 C3.4403,3.6157 3.7593,3.2977 4.1523,3.2977 C4.5453,3.2977 4.8633,3.6157 4.8633,4.0087" id="Fill-8" fill="#717791" mask="url(#mask-2)"></path>
                    <path d="M7.2608,4.0087 C7.2608,4.4017 6.9428,4.7207 6.5488,4.7207 C6.1568,4.7207 5.8378,4.4017 5.8378,4.0087 C5.8378,3.6157 6.1568,3.2977 6.5488,3.2977 C6.9428,3.2977 7.2608,3.6157 7.2608,4.0087" id="Fill-9" fill="#717791" mask="url(#mask-2)"></path>
                    <path d="M9.6582,4.0087 C9.6582,4.4017 9.3402,4.7207 8.9462,4.7207 C8.5542,4.7207 8.2342,4.4017 8.2342,4.0087 C8.2342,3.6157 8.5542,3.2977 8.9462,3.2977 C9.3402,3.2977 9.6582,3.6157 9.6582,4.0087" id="Fill-10" fill="#717791" mask="url(#mask-2)"></path>
                    <path d="M27.4512,20.7817 C28.0212,20.7807 28.2122,21.2277 28.2122,21.7797 L28.2312,34.2847 C28.2322,34.8367 28.0442,35.2857 27.4732,35.2877 L7.4302,35.3407 C6.8602,35.3427 6.6712,34.8947 6.6702,34.3437 L6.6502,21.8377 C6.6492,21.2857 6.8382,20.8367 7.4092,20.8357 L27.4512,20.7817 Z" id="Fill-11" fill="#FFFFFF" mask="url(#mask-2)"></path>
                    <path d="M27.4512,20.7817 C28.0212,20.7807 28.2122,21.2277 28.2122,21.7797 L28.2312,34.2847 C28.2322,34.8367 28.0442,35.2857 27.4732,35.2877 L7.4302,35.3407 C6.8602,35.3427 6.6712,34.8947 6.6702,34.3437 L6.6502,21.8377 C6.6492,21.2857 6.8382,20.8367 7.4092,20.8357 L27.4512,20.7817 Z" id="Fill-12" fill="#B8D4FF" mask="url(#mask-2)"></path>
                    <polygon id="Fill-13" fill="#96C0FF" mask="url(#mask-2)" points="28.2149 30.7373 28.1819 31.7793 28.1529 34.5133 27.8449 35.2693 8.0199 35.1473 8.0159 35.1473 8.0199 35.1423 9.8339 33.2373 13.1449 30.2163 16.5659 32.9693 23.7159 26.3803"></polygon>
                    <polygon id="Fill-14" fill="#B8D4FF" mask="url(#mask-2)" points="8.0196 35.1426 8.0196 35.1476 8.0156 35.1476"></polygon>
                    <path d="M15.4444,24.812 C15.4464,25.922 14.5474,26.824 13.4364,26.826 C12.3264,26.828 11.4234,25.93 11.4224,24.819 C11.4204,23.708 12.3194,22.807 13.4294,22.805 C14.5404,22.803 15.4424,23.701 15.4444,24.812" id="Fill-15" fill="#FFFFFF" mask="url(#mask-2)"></path>
                    <path d="M49.3164,16.2407 L8.1464,16.2407 C7.1504,16.2407 6.3414,15.4327 6.3414,14.4357 C6.3414,13.4387 7.1504,12.6307 8.1464,12.6307 L49.3164,12.6307 C50.3124,12.6307 51.1214,13.4387 51.1214,14.4357 C51.1214,15.4327 50.3124,16.2407 49.3164,16.2407" id="Fill-16" fill="#B8D4FF" mask="url(#mask-2)"></path>
                    <path d="M32.041,21.375 C34.992,21.254 37.944,21.257 40.895,21.279 L45.323,21.372 C46.8,21.392 48.275,21.417 49.751,21.945 C50.036,22.047 50.185,22.36 50.082,22.645 C50.025,22.805 49.899,22.923 49.751,22.977 C48.275,23.504 46.8,23.529 45.323,23.549 L40.895,23.643 C37.944,23.665 34.992,23.667 32.041,23.546 C31.441,23.522 30.975,23.016 30.999,22.416 C31.022,21.848 31.482,21.399 32.041,21.375" id="Fill-17" fill="#96C0FF" mask="url(#mask-2)"></path>
                    <path d="M32.041,32.7031 C33.791,32.5891 35.54,32.5681 37.29,32.6041 C38.165,32.6211 39.04,32.6491 39.915,32.6941 C40.79,32.7251 41.665,32.7431 42.54,33.2731 C42.825,33.4461 42.916,33.8171 42.743,34.1011 C42.691,34.1871 42.619,34.2561 42.54,34.3051 C41.665,34.8351 40.79,34.8531 39.915,34.8841 C39.04,34.9291 38.165,34.9571 37.29,34.9741 C35.54,35.0101 33.791,34.9891 32.041,34.8751 C31.441,34.8361 30.987,34.3181 31.026,33.7181 C31.062,33.1661 31.504,32.7381 32.041,32.7031" id="Fill-18" fill="#96C0FF" mask="url(#mask-2)"></path>
                    <path d="M41.8799,27.4228 C42.5359,27.0938 43.1919,26.9448 43.8479,26.8568 C44.5039,26.7798 45.1589,26.7328 45.8159,26.7278 C46.4719,26.7268 47.1279,26.7698 47.7829,26.8188 C48.4399,26.8698 49.0949,26.9688 49.7509,27.2518 C50.1139,27.4088 50.2809,27.8308 50.1249,28.1938 C50.0499,28.3678 49.9119,28.4978 49.7509,28.5678 C49.0949,28.8508 48.4399,28.9498 47.7829,29.0008 C47.1279,29.0498 46.4719,29.0928 45.8159,29.0908 C45.1589,29.0868 44.5039,29.0398 43.8479,28.9638 C43.1919,28.8738 42.5359,28.7258 41.8799,28.3968 C41.6109,28.2618 41.5029,27.9348 41.6379,27.6658 C41.6929,27.5568 41.7789,27.4738 41.8799,27.4228" id="Fill-19" fill="#96C0FF" mask="url(#mask-2)"></path>
                    <path d="M31.6826,27.4228 C32.3386,27.0938 32.9946,26.9448 33.6506,26.8568 C34.3066,26.7798 34.9616,26.7328 35.6186,26.7278 C36.2746,26.7268 36.9296,26.7698 37.5856,26.8188 C38.2416,26.8698 38.8976,26.9688 39.5536,27.2518 C39.9166,27.4088 40.0836,27.8308 39.9266,28.1938 C39.8526,28.3678 39.7146,28.4978 39.5536,28.5678 C38.8976,28.8508 38.2416,28.9498 37.5856,29.0008 C36.9296,29.0498 36.2746,29.0928 35.6186,29.0908 C34.9616,29.0868 34.3066,29.0398 33.6506,28.9638 C32.9946,28.8738 32.3386,28.7258 31.6826,28.3968 C31.4136,28.2618 31.3056,27.9348 31.4406,27.6658 C31.4956,27.5568 31.5806,27.4738 31.6826,27.4228" id="Fill-20" fill="#96C0FF" mask="url(#mask-2)"></path>
                </g>
            </g>
        </g>
    </g>
</svg>